<?xml version="1.0" encoding="utf-8"?>
<!-- Generator: Adobe Illustrator 25.2.1, SVG Export Plug-In . SVG Version: 6.00 Build 0)  -->
<svg version="1.1" id="Layer_1" xmlns="http://www.w3.org/2000/svg" xmlns:xlink="http://www.w3.org/1999/xlink" x="0px" y="0px"
	 viewBox="0 0 500 500" style="enable-background:new 0 0 500 500;" xml:space="preserve">
<style type="text/css">
	.st0{fill:#202020;stroke:#000000;stroke-width:0.75;stroke-linecap:round;stroke-linejoin:round;stroke-miterlimit:10;}
	.st1{fill:#202020;stroke:#000000;stroke-width:3;stroke-linecap:round;stroke-linejoin:round;stroke-miterlimit:10;}
	.st2{fill:none;stroke:#000000;stroke-width:4;stroke-linecap:round;stroke-miterlimit:10;}
	.st3{fill:#1D1D1D;stroke:#000000;stroke-width:3;stroke-linejoin:round;stroke-miterlimit:10;}
	.st4{fill:#202020;stroke:#000000;stroke-width:4;stroke-linecap:round;stroke-linejoin:bevel;stroke-miterlimit:10;}
</style>
<g>
	<g>
		<g>
			<g>
				<g>
					<path class="st0" d="M246.8,125.4c0.1,0.1,0.5,0.2,0.5,0.1l-0.7-0.3L246.8,125.4z"/>
					<path class="st0" d="M248.2,125.3c-0.3-0.2-0.9-0.4-1.5-0.7c0.7,0.3,0.3,0.2,1.1,0.5c0,0.1-0.2,0.1-0.5,0
						c0.2,0.1-0.2,0.1,0.2,0.3c0.5,0.1,0.7-0.1,0.2-0.3C247.9,125.1,248.1,125.2,248.2,125.3z"/>
					<path class="st0" d="M246.8,115.4L246.8,115.4L246.8,115.4z"/>
					<path class="st0" d="M241.8,111.2c0,0,0.1,0,0.1-0.1C241.8,111.1,241.8,111.1,241.8,111.2z"/>
					<path class="st0" d="M241,110L241,110L241,110z"/>
					<path class="st0" d="M246.8,115.4v-0.3C246.7,115.2,246.8,115.3,246.8,115.4z"/>
					<path class="st0" d="M246.8,123.7c0,0,0.1,0.1,0.2,0.1c0,0,0,0-0.1-0.1C246.8,123.8,246.8,123.8,246.8,123.7z"/>
					<path class="st0" d="M249,117.5L249,117.5c0.1,0,0.2,0,0.3,0H249z"/>
					<path class="st0" d="M250,119.7c0-0.1-0.5,0.1-0.9,0.1c0.2,0,0.3,0,0.4,0C249.7,119.8,249.8,119.8,250,119.7z"/>
					<path class="st0" d="M249.3,123.5L249.3,123.5L249.3,123.5z"/>
					<path class="st0" d="M248.2,116.1c0.1-0.1,0.1-0.1,0.2-0.1C248.4,116,248.2,116,248.2,116.1z"/>
					<path class="st0" d="M244.6,126.3C244.7,126.3,244.7,126.3,244.6,126.3C244.7,126.3,244.6,126.3,244.6,126.3z"/>
					<polygon class="st0" points="248.2,126 248.4,126.1 248.6,126.2 					"/>
					<path class="st0" d="M239,108.5L239,108.5C239.2,108.5,239,108.5,239,108.5z"/>
					<path class="st0" d="M222.5,119.2c0.5-0.2,0.7,0.4,1.3,0.1C223.6,119.4,222.8,118.9,222.5,119.2z"/>
					<path class="st0" d="M246.9,123.7C246.8,123.7,246.8,123.7,246.9,123.7C246.8,123.7,246.8,123.7,246.9,123.7z"/>
					<path class="st0" d="M223.8,119.3L223.8,119.3L223.8,119.3L223.8,119.3z"/>
					<path class="st0" d="M233.7,108.6c0,0.1,0,0.2,0.1,0.2C233.8,108.9,233.8,108.8,233.7,108.6z"/>
					<path class="st0" d="M237.5,109.5L237.5,109.5L237.5,109.5z"/>
					<path class="st0" d="M231.9,109.9c-0.1,0-0.1-0.1-0.1,0C231.7,109.9,231.8,109.9,231.9,109.9
						C231.8,109.7,231.8,109.7,231.9,109.9z"/>
					<path class="st0" d="M230,110.5L230,110.5h0.1H230z"/>
					<path class="st0" d="M241.7,128.7c0.1,0.1,0.2,0.3,0.2,0.5C241.8,128.8,241.9,128.6,241.7,128.7z"/>
					<path class="st0" d="M247.1,123.8c-0.1,0-0.2,0-0.2-0.1l0,0C247,123.8,247,123.8,247.1,123.8z"/>
					<path class="st0" d="M233,114.6h-0.2C232.9,114.6,232.9,114.6,233,114.6z"/>
					<path class="st0" d="M231.8,127.4L231.8,127.4C231.9,127.3,231.9,127.3,231.8,127.4z"/>
					<path class="st0" d="M232.3,114.8c-0.1-0.2-0.2-0.3-0.2-0.3v0.1L232.3,114.8z"/>
					<path class="st0" d="M242,129.2L242,129.2L242,129.2z"/>
					<path class="st0" d="M242.5,127.3c-0.1,0.1,0.3,0.8,0.5,1.2c-0.1,0.3-0.4-0.4-0.7-0.8c0,0.2,0.2,1,0.1,1
						c-0.1-0.1-0.1-0.1-0.1-0.3c0.1,0.7-0.4,0.2-0.3,1.1c0-0.1-0.1-0.1-0.1-0.2c0.2,0.3,0.3,0.8,0.4,1c-0.1,0,0,0.5-0.2,0.1
						c0.1,0,0-0.2,0-0.3v0.2c-0.3-0.7,0-0.3-0.1-0.9c-0.1,0.3-0.1,1-0.3,0.9c-0.2-0.7,0.3-0.3-0.1-0.9c0.1,0.1,0.2,0.1,0.3,0.2
						c-0.5-1.1,0.1,0-0.4-1.1c-0.3-0.1-0.2,0.4-0.5,0.3c0,0.4,0.2,0.5,0.2,1c-0.3,0.9-0.8-1.8-0.9-0.7c0,0.5,0.1,1.4-0.2,1v-0.9
						c-0.3,0,0,1.2-0.4,0.7c0-0.3,0.2-0.3,0.1-0.4c-0.3-0.7-0.1,0.4-0.2,0.5l-0.1-0.8c-0.3,0.1-0.7,0.8-1,0.9c0-0.2,0.1-0.4,0-0.7
						c-0.4,0.4-1-0.1-1.3-0.7l-0.2,0.7c0,0,0-0.3,0-0.4c-0.1-0.2-0.1,0.4-0.2,0.7c-0.1,0-0.1-0.4,0-0.5c-0.2,0.2-0.4,0.5-0.7,0.5
						c-0.2,0.1-0.4,0-0.5-0.3l0.1-0.2c-0.2-0.3-0.7,1.2-0.7,0.5l0.1-0.1c-0.4-0.4-1.3-0.1-1.3-1.2c-0.4,0.8-0.3-0.5-0.9,0.5
						c0-0.8,0.2-0.9,0-1.4c-0.1-0.1-0.5,0.7-0.8,0.7l0.3-0.5l-0.5,0.5l0.3-0.8l-0.2,0.1c0,0.1-0.1,0.3-0.2,0.4c-0.3,0.1-0.2-0.7,0-1
						c-0.2,0.1-0.4,0.1-0.8,0.1c0.2-0.2,0.3-0.2,0.4-0.3c-0.7,0.4,0.4-0.5-0.2-0.2c-0.1,0.1-0.2,0.3-0.3,0.4c0.1-0.4,0-0.5-0.3-0.5
						l0.3-0.3c-0.1-0.3-0.7-0.3-1-0.7c-0.1,0.2-0.7,0.8-0.9,0.8l0.5-0.5c-0.3,0.2-0.1,0.3-0.7,0.5c0-0.2,0.5-0.7,0.8-0.7h-0.3
						c0.1-0.1,0.2-0.2,0.4-0.3c-0.4,0.2,0.3-0.7-0.3-0.2l0.1-0.1c-0.2-0.3-0.5-0.3-0.8-0.5c-0.5,0.3-0.4,0.1-1,0.3
						c0-0.3,0.3-0.8,0.2-1c-0.3,0-0.5,0.2-0.9,0.2c0.5-0.2,0.3-0.4,0.8-0.5c-0.2-0.2-0.2-0.3-0.9-0.5c-0.2,0.1-0.3,0.2-0.4,0.2
						c-0.1,0,0.1-0.2,0.4-0.3h0.1c-0.4-0.1-0.1-0.5,0.1-0.9c0.3-0.3,0.7-0.5,0-0.7h0.1c-0.2-0.1-0.4-0.2-0.7-0.3
						c0.1-0.2,0.4,0.1,0.8-0.1c-0.4-0.1-0.4-0.3-0.4-0.4c0.1-0.1,0.2-0.2-0.1-0.4c0.9-0.1,0.8-0.2,0.8-0.4c-0.1-0.2-0.2-0.5,0.3-0.5
						l-0.3-0.1c-0.3-0.2,0.2,0,0.3,0c-0.3-0.1-0.3,0-0.5-0.1c-0.1-0.4,0.2-0.8,0.5-1c0.4-0.2,0.9-0.3,1.2-0.4
						c0.2-0.1-1.4-1.4-0.5-1.1l0.4,0.5c-0.1-0.4,0.1-0.7,0.3-0.9c0.2-0.1,0.4-0.3,0.5-0.8c0.1,0.1,0.2,0.3,0.1,0.3
						c0.3,0.3,0.3-0.2,0.1-0.5c0.1,0,0.2,0.3,0.3,0.4c0.2,0.2,0-0.8,0.2-0.3c0,0.1,0,0.2,0,0.2c0-0.2,0.3-0.1,0-0.7
						c0.3,0.1,0.3-0.4,0.5-0.1c-0.1-0.7,0.4,0.2,0.2-0.8c0.3,1,0.7,0.7,0.7,0.2c0,0.3,0.2,0.2,0.2,0.7c0.1-0.1,0.2-0.2,0.1-0.8
						c0.5,1.1,0.4-1.1,0.9,0.4c0.4-0.5,0.9-1,1.3-1.2c0,1-0.5,0.1-0.4,1.1c0.3-0.4,0.7-1.3,1.1-1c0.1,0.1-0.1,0.4-0.1,0.5
						c0.4-0.3,0.8,0.1,1.3-0.3c0,0.1-0.1,0.2-0.1,0.2c0.1,0,0.1,0.2,0.2-0.2l-0.1,0.1c0-0.7,0.5-1.3,0.7-1.6c-0.3,1.2,0.3,0.4-0.2,2
						c0.1-0.1,0.2-0.3,0.2-0.5c0.1,0.1,0,0.3-0.1,0.5c0.3-0.2,0.3-0.7,0.5-0.5c0,0.2-0.1,0.3-0.2,0.5c0.2-0.3,0.4-0.8,0.7-0.5
						c0,0.1-0.1,0.3-0.1,0.3c0.3,0,1-0.9,1.2-0.3c-0.4,0.9,0,0.3-0.2,1.1c0.1-0.1,0.2-0.1,0.3-0.1l0.1-0.4c0.2,0.1,0.5-0.4,0.7-0.1
						l-0.2,0.2h0.4l-0.1-0.3c0.3-0.3,0.4-1,0.5-0.7c-0.1,0,0.2,0.1,0.1,0.5l0,0c0.2-0.2,0.4-0.3,0.4-0.1c-0.1,0.2-0.4,0.8-0.5,1
						c0.4-0.5,0.5,0.1,1-0.5c-0.1,0.1-0.3,0.5-0.3,0.5l0.3-0.4c0,0.2,0,0.3-0.2,0.5c0.2,0.2,0.4-1,0.5-0.3c0,0-0.1,0.1-0.2,0.1
						c0.1,0.4,0.8,0.1,0.9,0.4c-0.4,0.8-0.3,0-0.7,0.7c0.4,0.1,1.3-0.2,1.5,0.2v-0.1c0.9-0.8-0.1,0.7,0.3,0.4
						c-0.1,0-0.5,0.4-0.4,0.3c0.1,0.3,0.7,0.2,1.2,0.3l-0.2,0.1c-0.1,0.3,0.2,0.4,0.2,0.7c0.2-0.1,0.3,0,0.5-0.3
						c-0.5,0.8-0.1,0.8,0.2,0.9c0.3,0.1,0.8,0.2,0.3,0.8h-0.3c0.1,0.1,0.3,0.1,0.4,0.2c0.4-0.2,0.2-0.2,0.5-0.4
						c0.3-0.1,0.5-0.1,0.7,0c-0.4,0-0.8,0.3-1,0.5c0.1-0.1,0.3-0.1,0.4-0.2c-0.7,0.5,1-0.4,0.5,0.1l-0.2,0.1c0.2,0,0.5,0,0.5,0.2
						c-0.5,0.2-0.3,0-0.8,0.1c0.1,0.1,1.2-0.1,0.7,0.3c-0.2,0-0.2-0.1-0.4-0.1c-0.5,0.4-0.4,0.3-0.4,0.5l0,0
						c-0.1,0.1-0.1,0.2-0.2,0.3l0.1-0.1c1.5-0.2,0.3,0.3,1.4,0.4c-1-0.1-0.5,0.1-1.2,0.2c-0.1,0.1-0.3,0.2-0.5,0.2
						c0.5,0-0.3,0.3,0.4,0.3c-0.2,0,0,0.1-0.5,0.2c0.2,0.1,0.3-0.1,0.7-0.1c0.3,0.1,0.2,0.2,0,0.4c-0.2,0.2-0.3,0.3,0.2,0.5
						c0.4,0.3,1.1,0.4,1.4,0.8c-0.3,0.1-0.8-0.1-0.8-0.1c-0.3,0.1-0.3,0.3,0,0.4c-0.2-0.1-0.3,0-0.5,0c0,0.1,0.8,0.2,0.4,0.3
						c-0.2-0.1-0.5-0.1-0.9-0.2c0.2,0.1,0.5,0.3,0.7,0.5c-0.3,0-0.5-0.2-0.8-0.3c0.1,0.2,0.2,0.4,0.8,0.7l0.2-0.1
						c0,0.1-0.5-0.1-0.5-0.1c-0.4-0.2,0.2-0.2,0.4-0.1l0.1,0.1c1.2,0.1-0.1-0.5,0-0.8l0.9,0.2c-0.2-0.1-0.4-0.2-0.8-0.3
						c0.2,0,0.8,0,0.9,0.1c0.4-0.1-0.3-0.2,0.2-0.3c0.1,0,0.1,0,0.1,0l-0.2-0.2c0.2,0,0.7,0,0.5,0.1c0.5-0.3-0.7-0.5,0-0.8h0.1
						c-0.3-0.4-0.7,0-1.4-0.3c0.5-0.1,1.1-0.2,1.6-0.3h-0.7c0,0,0.1-0.1,0.3-0.1c-0.4-0.1-0.3,0.1-0.8,0c0.5-0.3-0.3-0.5,0.7-0.8
						c-0.5,0-0.3,0.3-0.8,0.1c1.1-0.3-0.2-0.2,0.2-0.5c0.5-0.1,0.3,0.2,0.8-0.1c-1,0.1,0.1-0.4-0.1-0.7c-0.8,0.2-0.4-0.3-0.8-0.5
						c0.2-0.1,0.2-0.7,0.3-1.1h0.1c-0.8,0.2-0.8-0.1-1-0.2c0.4-0.2,0.7-0.2,0.9-0.2l-0.1-0.2c-0.2,0.1-0.4,0.1-0.5,0l0.5-0.2
						c-0.1-0.2-0.9-0.1-0.8-0.7c-0.4,0.3-1.2,1.1-1.6,1c0.2-0.2,0.7-0.4,0.9-0.4c0,0-0.2,0-0.2-0.1l0.5-0.1c0.1-0.2-0.4,0.1-0.4,0
						c0.3-0.2,0.2-0.2,0.5-0.4c0,0-0.1,0.2,0.1,0.1c0-0.2,0.1-0.4,0.3-0.7c-0.2,0.1-0.4,0.3-0.5,0.3c-0.2-0.2,0.3-0.3,0.4-0.7
						c-0.3,0.1-0.1-0.2-0.7,0.2c0-0.1,0.2-0.2,0.3-0.4c-0.3,0-0.4-0.4-0.9,0.1v0.1l0,0l0,0l0,0c-0.8,0.1-0.3-1-0.9-1.1l0.1-0.1
						c-0.3,0-0.5-0.3-1-0.1c0-0.1,0.1-0.4,0.3-0.5c-0.2,0-0.4,0.2-0.4-0.3c0.4-0.1,0.1-0.3,0.3-0.1c-0.1-0.3,0-0.7-0.5-0.3
						c0.4-0.3,0.2-0.7,0-0.7l-0.1,0.4c-0.1,0-0.2-0.1-0.3-0.2l0.4-0.5c0-1.1-1.6,0.7-1.3-0.8c-0.4,0.3,0.1,0.4-0.3,0.9
						c-0.2-0.2,0.1-1.3,0-1.3c-0.1-0.5-0.8,0.8-1,0.3c-0.1,0.2-0.3,0.9-0.7,1c-0.2-0.2,0.1-1.1,0.4-1.2c0.1,0,0.1,0.1,0,0.2
						c0.1,0,0.2-0.1,0.3-0.4l-0.1,0.2c0-0.3-0.3-0.4-0.1-0.8c-0.3,0.1-0.2,0.3-0.1,0.5c-0.2-0.4-0.4-0.2-0.8-0.5
						c0,0.1,0,0.4-0.1,0.4c-0.3-0.4-0.3,0.4-0.8,0.4c-0.1-0.4,0.3-0.9-0.1-0.7c-0.1-0.3,0.1-0.7,0.3-0.9c-0.4,0.3-0.5-0.5-0.7-0.7
						l0.2-0.1c-0.1,0.1-0.2,0.1-0.3,0v0.5c-0.1-0.1-0.2-0.1-0.1-0.3c-0.2,0.3-0.1,0.9-0.4,1.2c-0.1-0.3-0.4,0.2-0.3-0.5
						c0.3,0.3,0.1-0.7,0.4-0.7c-0.1,0.1-0.2,0-0.2-0.1s0-0.1,0.1-0.2c-0.3-0.7-0.3,0.8-0.8,0.7c0.1-0.3,0-0.8-0.1-0.7
						c0.2,0,0,0.7-0.2,0.9c-0.2-0.3-0.3,0.2-0.4,0.1l0.1,0.2c-0.1,0.3-0.2,0.3-0.4,0.4c0-0.3,0.2-0.2,0.1-0.3
						c-0.3,0.7-0.3-0.8-0.8-0.3c-0.1-0.2,0-0.8-0.1-0.9c-0.3,0.4-0.3-0.5-0.8-0.2c0.1,0.5,0.1,0.4-0.1,0.9c0.2-0.1,0.4-0.2,0.5-0.3
						l-0.4,0.8c0.1,0,0.3-0.3,0.4-0.2c-0.2,0.4-0.2,0.3-0.1,0.8c-0.2-0.8-0.4,0.4-0.7-0.1v-1.3c-0.4-0.5-0.8,0.7-1.3,0.3l0.2,0.2
						c0,0.5-0.3,0.1-0.4,0.3c0-0.4-0.1-0.5-0.2-0.9c0,0.3-0.4,0-0.3,0.9l-0.3-0.5c-0.4-0.1-0.2,1.3-0.7,1.2c0-0.4-0.2-0.8,0-1.1
						c-0.1,0-0.3,0-0.2,0.2c-0.1-0.2-0.2,0.7-0.4,0.3c0,0.2,0.1,0.7-0.1,0.7c0-0.1-0.1-0.2-0.1-0.2c0,0.2-0.1,0.3,0.1,0.8
						c-0.8-1.2-1,0.4-1.8-0.5c-0.2,0.2-0.4,0.5-0.7,0.7c0-0.1-0.1-0.2,0-0.2c-0.5-0.2,0.3,1.2-0.2,1c-0.5-0.4,0-0.4-0.2-0.7
						c-0.8-1.2-0.3,0.4-1-0.1v-0.1c-0.4-0.3-0.2,0.8-0.5,0.9c0,0-0.1-0.1-0.1-0.2c0.2,0.8,0,1.2,0,1.5c-0.3-0.4-0.1-0.3-0.5-0.7
						c0,0.2,0.7,0.7,0.5,1c-0.3-0.1-0.7-0.2-1.1-0.5l0.2-0.2c-0.7-0.4-0.2,0.3-0.4,0.3l-0.2-0.2c-0.2,0.4,0.4,1,0.1,1.3l0.2,0.1
						c0.5,0.7-0.5-0.1-0.1,0.4l-0.8-0.4c0.1,0.3,0.3,1,0.3,1.3c-0.4-0.4-0.5-1-0.8-1.3c-0.1,0.1-0.3,0.5,0,0.9c0-0.1-0.2-0.3,0-0.3
						c0.4,0.5,0.7,0.9,0.5,1.2c-1.5-0.8-0.8,0.7-2.1,0.4c0.3,0.8-0.7,1.2-0.7,2.1c1.3-0.1,0,0.2,1.3,0.3c0.1,0.2,0,0.2,0,0.2
						c-0.3,0.1-0.5,0.3-0.9,0.4c-0.4,0.1-0.3-0.2-0.5-0.2c-0.1,0.4-0.5,0.1-1,0.4c0.4,0,0.7,0.1,0.5,0.4l0.7-0.3
						c0.8,0.5-1.1,0.5-0.3,1.1l-0.4-0.1c0.2,0.3,0.1,1.1,1.2,1.2c-0.1,0.1-0.5,0.2-0.7,0.1c0,0.3,0.3,0.7,0.7,1
						c0.3,0.3,0.5,0.5,0.3,0.9l-0.3,0.1c0.1,0.1,0.7,0,0.4,0.2c-0.1,0-0.3,0.1-0.3,0.1c0.1,0,0.7,0.1,0.5,0.3h-0.4
						c-0.1,0.8,1.2,0.5,1.6,0.9c-0.9,0.4-0.9,1.1-0.9,1.3l-0.1,0.1c0.3,0.8,1.4,0.7,2.1,0.9c-0.5,1,0.5,1.3,0.8,2.2
						c0-0.2,0.5-0.5,0.7-0.5c0,0.2,0.8-0.2,0.1,0.4l0,0c-0.4,0.8-0.1,0.8,0.1,1l0.8-0.9c-0.2,0.9,0.2,1,0.7,1.1
						c0.4,0.1,0.8,0.1,0.5,0.9c0.3-0.2,0.4-0.1,0.8-0.2l-0.3,0.5c0.3,0.3,0.4,0.5,1.1,0.7l-0.3,0.3c0.3,0.2,1.1-1.4,1.3-1.4
						l-0.3,0.9c0.4,0.2,0.8,1.1,1.5,0.5c0,0.1-0.1,0.3-0.2,0.4c0.2,0.1,0.8,0.9,1-0.3c-0.2,0.8,0.5,0.2,0.9-0.1l-0.2,0.5
						c0.4-0.7,0.4-0.9,0.8-1.1c0.1,0.1,0,0.4-0.1,0.3c0.2,0.3,0.3-0.5,0.5-0.2l-0.2,0.3c0.2,0.1,0.2-0.1,0.4-0.5
						c0.2-0.2,0.4,0.2,0.4,0.8c0.1-0.3,0.2-0.8,0.4-0.5c0,0.2-0.1,0.3-0.1,0.4c0.4,0.4,0.7-0.7,1-0.1c0,0.2,0,0.3,0,0.3
						c-0.3,0-0.7-0.1-0.7-0.1c0,0.5,0.2,0.7,0,1.4c0.3-0.4,0.7-1.3,1-1.1c0,0,0,0.1,0,0.2v0.1c0.1,0.1,0.1,0,0.2-0.1
						c0.1,0.1,0.1,0.1,0.2,0.2c0,0.4,0.3,0.2,0.5,0.2c0-0.7,0.1-0.5-0.1-1c0,0,0,0.1-0.1,0.1c0,0,0,0-0.1,0.1v-0.1
						c-0.1,0-0.2,0-0.3,0c0.1-0.3,0.2-0.5,0.3-0.2c0-0.4,0.1-0.8,0.1-1c0.2,0.9,0.7,1.3,0.8,1.8c0.4-0.3,1.1-0.4,1.1-1.5
						c0.1-0.2,0.2,0.3,0.3,0.4c0,0.1-0.1,0.1-0.1,0.3c0.2-0.3,0.7-0.3,0.5-1.1c0.4,0.2,0,0.8,0.4,0.5v0.2c0.7,0.5,0.8-0.1,1-0.7
						c0.2-0.5,0.3-1.1,1.1-0.5c-0.1-0.1-0.1-0.1-0.2-0.2c0.7,0.1,1.1-0.3,1.4-0.8c0.4-0.4,0.8-0.8,1.5-0.7c0.3,0,0-0.4-0.1-0.9
						l0.5,0.4c-0.1-0.2-0.2-0.5-0.3-0.8c-0.1-0.3,0.3-0.2,0.8-0.2s0.8,0,0.5-0.5l-0.4-0.2c0.2-0.1,0.1-0.7,0.5-0.3
						c-0.1-0.1-0.3-0.3-0.1-0.2l0.3,0.2c-0.1-0.2-0.1-0.4-0.3-0.7c0.3-0.2,1.2,0.7,1.5,0.1c0-0.3-0.7-1-0.9-1c0,0.1-0.3,0.1-0.7,0
						l-0.1-0.2c-0.9-0.4-1.9-0.9-2.6-0.9c0.1,0.1,0.3,0.3,0.4,0.4l-0.4-0.1v-0.2c-0.4-0.1-0.1,0.1,0.1,0.3c-0.2-0.1-0.4-0.1-0.5-0.2
						c0.2,0.2,0.5,0.4,0.8,0.7c-0.3-0.2-0.7-0.4-0.9-0.4c0.3,0.3,0.9,0.3,1,0.7c-0.4-0.1-0.8-0.3-0.4-0.1c-0.2-0.1-0.3-0.2-0.4-0.3
						c0.2,0.2,0,0.3,0.4,0.7c-0.5-0.2-0.1,0.3-0.9-0.2c0.2,0.1,0.4,0.7,0.4,0.8c-0.8-0.9-0.3,0.2-1.2-0.7c0.7,0.8,0,0.7,0.2,1.2
						c0-0.1-0.1-0.2-0.1-0.2c-0.1,0-0.4-0.2-0.5-0.3c0.5,0.7,0.4,1,0.7,1.4c-0.7-0.5-0.5-0.9-1.1-1.4c0.4,0.5,0.2,0.8,0.5,1.2
						c-0.4-0.3-0.2-0.1-0.7-0.7c0.5,0.9,0,0.2,0.3,0.9c-0.4-0.3-0.5-0.9-0.5-0.4C242.7,127.7,242.5,127.3,242.5,127.3z M238.4,130.2
						L238.4,130.2h0.1H238.4z M237.9,130.2c0.1,0,0.1,0,0.2,0c0,0.2,0,0.4-0.1,0.4C238.1,130.6,237.9,130.4,237.9,130.2z M239,134.5
						c-0.1,0.1-0.1,0-0.1-0.1c0,0,0.1,0,0.2-0.1c0,0,0,0,0-0.1C239.2,134.3,239,134.4,239,134.5z"/>
					<path class="st0" d="M239.3,133.7C239.3,133.6,239.3,133.6,239.3,133.7c0-0.1,0-0.1,0-0.2V133.7L239.3,133.7z"/>
					<path class="st0" d="M246.8,115.5L246.8,115.5L246.8,115.5L246.8,115.5z"/>
					<path class="st0" d="M232.4,127.4l-0.1,0.1L232.4,127.4z"/>
					<path class="st0" d="M246.6,119.1l-0.1,0.1C246.5,119.2,246.6,119.2,246.6,119.1z"/>
					<path class="st0" d="M246.9,120.1l-0.1,0.2C246.8,120.3,246.9,120.1,246.9,120.1z"/>
					<path class="st0" d="M246.8,121c0.1,0,0.2,0,0.2,0l0,0H246.8z"/>
					<path class="st0" d="M237,113.7L237,113.7C236.9,113.8,237,113.7,237,113.7z"/>
					<path class="st0" d="M241.2,113.5c-0.1,0.1-0.2,0.1-0.2,0.2C241.1,113.8,241.1,113.8,241.2,113.5z"/>
					<path class="st0" d="M233,114.6L233,114.6L233,114.6L233,114.6z"/>
					<path class="st0" d="M240.8,113.6c0,0.1,0.1,0.1,0.2,0.1C241,113.7,240.9,113.6,240.8,113.6z"/>
					<path class="st0" d="M246.6,124.3L246.6,124.3C246.6,124.4,246.6,124.4,246.6,124.3L246.6,124.3z"/>
					<path class="st0" d="M246.7,124.4L246.7,124.4L246.7,124.4z"/>
					<path class="st0" d="M246.8,124.6l-0.1-0.1C246.7,124.5,246.7,124.5,246.8,124.6z"/>
					<path class="st0" d="M247,123.4h-0.2C246.8,123.3,246.9,123.4,247,123.4z"/>
					<path class="st0" d="M247,123.1c-0.1,0.1-0.4,0.1-0.3,0.2h0.2C246.5,123.3,247.4,123.2,247,123.1z"/>
					<path class="st0" d="M249.7,121.4l-0.1,0.3c0.2-0.1,0.5-0.2,0.7,0C250.8,121.1,249.7,121.9,249.7,121.4z"/>
					<path class="st0" d="M249.8,120.1c0.1,0.2,0.3-0.1,0.4-0.1C250,120,249.9,120,249.8,120.1z"/>
					<path class="st0" d="M245.4,113.5l0.3-0.4C245.6,113,245.6,113.1,245.4,113.5z"/>
					<polygon class="st0" points="242.5,114.9 242.4,115.2 242.8,114.9 					"/>
					<path class="st0" d="M244,111.1L244,111.1c0,0-0.1,0-0.2,0H244z"/>
					<path class="st0" d="M230.1,109.9l0.3,0.7C230.4,110.3,230.2,109.5,230.1,109.9z"/>
					<path class="st0" d="M225.5,114.1c-0.3-0.1-0.7-0.1-0.4,0.1C225.1,114.1,225.5,114.2,225.5,114.1z"/>
					<polygon class="st0" points="228.1,131.2 227.9,131.2 228.2,131.2 					"/>
				</g>
			</g>
		</g>
	</g>
</g>
<g>
	<g>
		<g>
			<g>
				<g>
					<path class="st1" d="M190,177.9c-0.3-0.2-0.9-0.1-0.8,0.4l1.1,0.3L190,177.9z"/>
					<path class="st1" d="M188,181c0.5,0.5,1.4,1.2,2.4,0.9c-1.1-0.5-0.7-0.7-1.9-1.2c-0.1-0.4,0.3-0.8,0.8-0.8
						c-0.3-0.2,0.2-0.8-0.4-1c-0.9,0.7-0.9,1.4-0.2,2.2C188.4,181.3,188.2,181,188,181z"/>
					<path class="st1" d="M186.3,226.6l0.1-0.3C186.4,226.4,186.4,226.5,186.3,226.6z"/>
					<path class="st1" d="M185.7,254.8c0-0.2-0.1-0.3-0.2-0.3C185.6,254.6,185.6,254.9,185.7,254.8z"/>
					<path class="st1" d="M184.5,259.6c0-0.1,0-0.2,0.1-0.3C184.5,259.5,184.4,259.6,184.5,259.6z"/>
					<path class="st1" d="M186.3,226.6l-0.3,0.8C186.4,227.4,186.3,226.9,186.3,226.6z"/>
					<path class="st1" d="M190.6,187.3c0-0.1-0.1-0.3-0.3-0.4c0,0.1,0.1,0.2,0.1,0.4C190.5,187.3,190.5,187.3,190.6,187.3z"/>
					<path class="st1" d="M185.4,214.1v-0.2c-0.1-0.1-0.2-0.1-0.4-0.2L185.4,214.1z"/>
					<path class="st1" d="M185.3,204.6c0,0.2,0.9,0.3,1.3,0.3c-0.3-0.1-0.5-0.3-0.7-0.4C185.7,204.5,185.5,204.5,185.3,204.6z"/>
					<path class="st1" d="M186.9,189.5l-0.1-0.2C186.8,189.3,186.8,189.4,186.9,189.5z"/>
					<path class="st1" d="M185.3,220.9c-0.1,0-0.2,0-0.3,0.1C185,221,185.2,221,185.3,220.9z"/>
					<path class="st1" d="M195.6,187c0,0,0-0.1,0.1-0.1C195.6,186.8,195.5,187,195.6,187z"/>
					<path class="st1" d="M187.9,177.6h0.1c0.1-0.1,0.2-0.3,0.2-0.4L187.9,177.6z"/>
					<path class="st1" d="M183.3,268.4C183.3,268.3,183.3,268.3,183.3,268.4C183.2,268.1,183.3,268.2,183.3,268.4z"/>
					<path class="st1" d="M244.5,254.3c-1.2-0.2,0.7-1.6-1-1.8C243.9,252.8,243.3,254.4,244.5,254.3z"/>
					<path class="st1" d="M190.5,187.5c0,0.1,0,0.2,0,0.4C190.5,187.7,190.5,187.6,190.5,187.5z"/>
					<path class="st1" d="M243.5,252.6L243.5,252.6h-0.2C243.4,252.6,243.5,252.6,243.5,252.6z"/>
					<path class="st1" d="M189.4,288.6c0-0.2-0.1-0.3-0.1-0.4C189.2,288.4,189.3,288.5,189.4,288.6z"/>
					<path class="st1" d="M185.2,273.6l-0.1,0.3C185.2,273.8,185.2,273.7,185.2,273.6z"/>
					<path class="st1" d="M199.1,281.1c0.2,0,0.3,0,0.5-0.2h-0.1C199.4,281,199.4,281.1,199.1,281.1z"/>
					<path class="st1" d="M206.1,276.8c-0.1,0-0.1,0-0.2-0.1c-0.1,0.1-0.1,0.1-0.2,0.2L206.1,276.8z"/>
					<path class="st1" d="M217.7,198.3c0-0.3,0-0.7,0.1-0.9C217.5,198,216.4,197.7,217.7,198.3z"/>
					<path class="st1" d="M190.1,187.3c0.2,0,0.3,0.1,0.4,0.2c0-0.1,0-0.2,0-0.2C190.3,187.3,190.2,187.3,190.1,187.3z"/>
					<path class="st1" d="M195.6,274.7l1.2-0.5C196.3,274.2,195.9,274.5,195.6,274.7z"/>
					<path class="st1" d="M269.4,225.9h-0.3C269.2,225.9,269.3,225.9,269.4,225.9z"/>
					<path class="st1" d="M199.9,272.1c0.3,0.1,0.7,0.2,1,0.1c0-0.1,0-0.2,0-0.3L199.9,272.1z"/>
					<path class="st1" d="M217.7,197.4L217.7,197.4L217.7,197.4z"/>
					<path class="st1" d="M209.1,195.3c1.1,0.7,1.1-0.8,1.6-1.3c1.4,0.4,0.2,1.1,0.3,1.9c1,0.1,2.1-0.5,2.7-0.1c0,0.2,0,0.3-0.2,0.4
						c1.3-0.4,2.6,1.3,4.2,0.8c0,0.1,0,0.2,0,0.3c0.1-0.7,0.4-1.2,0.7-1.5c0.5,0.2,1.3-0.2,1.1,0.7c-0.3-0.2-0.4,0.1-0.8,0.2h0.7
						c-0.1,1.2-0.9,0-1.3,0.8c1.2,0.2,2.7,0,3.4,0.7c-0.3,1.1-2-0.7-1.4,0.8l-1-1c0.1,2.1-0.7-0.5-0.8,1.6c1.4,1.1,2,0.4,3.4,1.5
						c0.7-0.3,0.3-0.9,1-1.2c2.7,0.2,0.4,3.4,2.7,3c0.8-0.4,1.6-1.5,2.4-0.3l-1,0.9c1.4,0.9,1.8-1.1,2.8,0.4c-0.5,0.3-1.4-0.2-1.2,0
						c0.5,1.4,1.1-0.2,1.9,0.2l-0.3,1.1c1.6,0.7,3.8,1,5.7,1.8c-0.2,0.2-0.8,0.4-0.4,0.9c2.5,0.7,4.7,2.7,6.6,4.4l1.3-0.4
						c0.2,0.1,0.1,0.5-0.1,0.7c0.7,0.8,0.3-0.5,0.9-0.7c0.5,0.2,0.3,0.9-0.1,0.9c1.9,0.1,5,0.8,6.1,2.5l-0.4,0.1c1,1,2.3-1,3.1,0.4
						h-0.3c2.4,1.8,5.8,2.6,7.1,4.9c1.1-1,2.3,2,3.4,0.3c1.1,1.6,0.4,1.8,2.3,3.4c0.5,0.4,1.4-0.7,2.2-0.4l-0.4,0.9l1.4-0.4
						l-0.1,1.3l0.8,0.1c-0.2-0.2-0.3-0.7-0.2-1c0.7,0.1,1.2,0.5,1.5,1.1c0.2,0.3,0.1,0.4,0.1,0.7s-0.1,0.3-0.2,0.4
						c0.3-0.1,0.8-0.2,1.3-0.2c-0.4,0.2-0.7,0.2-1,0.3c1.3-0.4-1.1,0.7,0.1,0.2c0.2-0.1,0.8-0.3,1-0.4c-0.5,0.4-0.4,0.4,0.3,0.5
						l-1.2,0.1c0,0,0,0.1,0.1,0.1c0,0.1,0.2,0.3-0.1,0.4c0.5,0.1,2.2,0.4,2,0.8c-0.4-0.1-0.9-0.2-1.3-0.4c0.7,0.4,0.8,0,1.3,0.7
						c-0.5,0.2-1.4-0.5-1.8-0.8c0.1,0.1,0.1,0.2,0.1,0.3c-0.3-0.2-0.4-0.3-0.9-0.5c0.3,0.2,0,0.1-0.2,0c-0.2-0.1-0.3-0.2,0,0.2
						l-0.2-0.2c-0.1,0.1-0.2,0.2-0.3,0.2c-0.2,0.1-0.4,0.3-0.5,0.4c-0.3,0.2-0.7,0.5-1,0.8c-0.7,0.5-1.2,1-2,1.5
						c0.4,0.8-0.3,1-0.3,2c-1.3,0.4-3,0.7-4.4,1.6c-0.8,1,0.1,0.9,0,1.5c-0.5-0.7-1.9,0.2-1.4-0.7c-1.6,1.2-2.1,1.5-3.8,3.4
						c0.4,0.1,0.8,0.1,0.8,0.4c-0.3,0.3-1.1,0.2-1.2-0.1l0.1-0.1c-1.8,2.5-6.9,1.3-7.9,4.1l0.1-0.1l-1.5,2c-1,0.4,0.2-0.9-0.8-0.9
						c-1.4,2.5-3.5,2-4.8,3.8c-2.6-1.3-4.7,3.2-7.4,3l0.4,0.4c-0.2,0.8-0.8,0.1-1.2,0.2c0.3,0.3,0.8,0.1,0.7,0.5
						c-3.6,3.1-8.8,4.5-13.3,6.6c-1.6,0.8,0.8,3.1-1.9,3.1v-1.2c-2.4,3-6.2,3.8-8.7,6.7c0-0.3-0.1-0.7,0.2-0.8
						c-1.1-0.3-2.4,1.4-2.1,2c-0.5,0.2-0.4-0.4-0.9-0.5c-0.9,0-1.1,1.9-1.9,1.4c-0.1-0.1,0-0.3,0.1-0.4c-0.2,0.5-2,1.1-1.1,1.6
						c-1.3,0.3-2,1.6-3.1,1.8c0,1.2-2.2,0.8-1.6,2.1c-0.7-1.3-2.6,0.2-3,1.2c0-0.5-0.9,0-0.9-0.8c-0.8,0.5-1.4,1.2-0.9,1.8
						c-0.3-0.1-0.7,0-0.8-0.1c-0.1,0-0.1,0-0.2,0c-0.1,0.1-0.1,0.2-0.1,0.4c-0.1,0.4-0.4,0.9-0.4-0.4c-0.3,0.9-1.2,1.9-2.1,2.8
						c-0.1-0.1-0.2-0.2-0.3-0.5c0.5-0.8,0.8-0.8,0.8-0.8c0.1,0.1,0,0.3,0.2,0c0.2-0.2,0.4-0.7,0.8-1.2c0,0.1-0.1,0.1-0.1,0.2
						c-0.3,0.3-0.8,0.8-1.1,0.8c-0.3,0.1-0.5-0.2-0.3-0.9c0.2-0.4,0.7-0.3,0.9-0.4c-0.3-0.1-0.2-0.5-0.2-1V275c0-0.3,0-0.5,0-0.9
						c0-0.5-0.1-1.1-0.3-1.6c0.1,0,0.3,0.2,0.4,0.4c0-0.4,0.2-1-0.4-1l0.2,0.4c-1,0.7-2.1-1.6-2.5-1.8c2,0.8,0.4-2.1,3-1
						c-0.1-0.3-0.4-0.7-0.9-0.5c0.1-0.4,0.4-0.5,0.9-0.1c-0.3-1.5-1.1-1-1.1-2.3c0.3,0,0.4,0.3,0.9,0.4c-0.7-0.7-1.3-1.4-1-2.5
						c0.2,0.1,0.4-0.1,0.4,0.3c-0.1-2-1.6-3.4-1.1-5.6c1.4,0.7,0.4-0.8,1.6-0.9l-0.3-1.2l-0.5,0.4c0-1-0.9-2-0.4-2.8l0.5,0.8l-0.2-2
						l-0.4,1.1c-0.7-1.1-1.5,0.1-1.2-1.3c0.1,0.3,0-1,0.8-1.5l0,0c-0.4-0.5-0.8-1-0.5-1.8c0.4-0.2,1.3,0.1,1.6,0
						c-1-0.5-0.3-2.4-1.4-3.1c0.2,0.2,0.9,0.2,1,0.1l-1,0c0.2-0.4,0.4-0.5,0.9-0.4c0.1-1.4-1.5,0.4-0.9-1.2c0.1,0.1,0.2,0.1,0.3,0.3
						c0.3-1.8-0.5-3.3-0.1-4.9c1.2-0.4,0.3,1.4,1.3,0.9c-0.2-2.3-1.5-4.7-1.2-6.9l-0.1,0.4c-1.8-0.3,0.9-1.6,0-2.7
						c0.1,0.2,1,0.3,0.8,0.3c0.3-1.5-0.4-3.1-1-5.4l0.4,0.3c0.4-0.9,0.2-2.3,0.4-3.3c-0.4-0.3-0.3-0.9-1-0.5c2.5-3-1.3-5.6,0.8-8.2
						c0,0.3,0.4,0.8,0.4,0.5l-0.4-2.2c-0.8,0.2-0.4,0.3-1.1,0.8c-0.4-0.3-0.8-0.9-0.8-1.4c0.5,1,1.2,0,1.6-0.4
						c-0.2,0.1-0.4-0.1-0.8,0c1.3-1.2-1.5-0.2-0.7-1.8l0.4,0.1c-0.2-0.5-0.8-1.1-0.7-1.8c0.9-0.2,0.4,0.7,1.1,0.7
						c0-0.9-1.6-1.8-0.8-2.6c0.2,0.3,0.2,1,0.4,1.3c1-0.9,0.8-1,1-1.6v0.1l0.4-1.5l-0.3,0.4c-2.3-1.1-0.4-2.3-2-3.8
						c1.4,1.4,0.9,0.2,1.9,0.3c0.3-0.4,0.5-1,0.9-0.8c-0.8-0.8,0.7-1.2-0.5-2.2c0.3,0,0-0.8,0.9-0.7c-0.2-1-0.5,0.2-1,0.1
						c-1.1-1.4,1.3-3.4-0.2-5.5c-0.7-1.8-1.8-2.1-2.2-3.7c0.5-0.5,1.2,0.4,1.2,0.4c0.4-0.9,0.4-1.5,0-2.4c0.3,0.2,0.5,0,0.9-0.2
						c-0.1-0.7-1.2-0.4-0.7-1.3c0.3,0.1,0.9,0.3,1.3,0.7c-0.3-0.8-0.9-1.6-1.2-2.4c0.5-0.2,0.9,0.5,1.2,0.8c-0.2-1-0.5-2.4-1.4-2.7
						l-0.3,0.5c0-0.3,0.8-0.2,0.9,0.1c0.7,0.8-0.3,1.2-0.7,1.2l-0.2-0.5c-1.9,0.7,0.3,2.4,0.2,3.6l-1.3-0.5l1.1,1.2
						c-0.3,0.2-1.1,0.4-1.3-0.1c-0.7,0.9,0.4,0.8-0.2,1.5c-0.1,0.1-0.2,0-0.2,0l0.4,0.9c-0.3-0.1-1,0.1-0.8-0.3c-0.8,1.5,1,2.4,0,3
						l-0.1-0.1c0.4,2.1,1,0.2,2.2,1.8l-2.5,1.1l1,0.2c0,0.2-0.1,0.7-0.5,0.5c0.7,0.8,0.4-0.1,1.1,0.3c-0.9,1,0.4,2.8-1.2,3.1
						c0.8,0.3,0.5-1,1.1,0.1c-1.8,0.3,0.3,1.3-0.5,2.2c-0.9-0.3-0.4-1.2-1.2-0.2c1.5,0.5-0.3,1.9,0,2.6c1.2,0,0.5,1.8,0.9,3.1
						c-0.4-0.1-0.7,2.5-1.1,3.7h-0.2c1.2,0.2,1,1.5,1.2,2.4c-0.8,0-1-0.2-1.3-0.7v0.9c0.4,0.2,0.5,0.4,0.8,1.1l-0.9-0.2
						c0,1.2,1.1,2.3,0.4,3.8c0.9,0.1,2.3-1.2,3,0.4c-0.4,0.1-1.2,0.1-1.4-0.3c0.1,0.1,0.3,0.4,0.2,0.8l-0.8-0.7
						c-0.3,0.7,0.7,0.3,0.5,0.9c-0.7,0-0.4,0.4-1,0.3c-0.1-0.1,0.2-0.4,0-0.7c-0.1,0.7-0.5,1.3-1,1.6c0.3,0,0.9,0,1,0.4
						c0,1.2-0.8,0.4-1.1,1.1c0.4,0.3,0,1,1,1.1c0,0.3-0.4,0.4-0.8,0.5c0.4,0.7,0.1,2.8,1.2,2.2l0.1-0.1v0.1l0,0l0,0
						c1,2-0.5,4.2-0.1,6.1H186c0.3,1.2,0.2,2.6,0.9,3.5c0,0.3-0.5,0.8-1,0.7c0.2,0.9,0.7,1,0.1,2.3c-0.5-0.9-0.5,0.3-0.4-0.9
						c-0.3,1.2-0.8,1.4,0.1,2.6c-0.9-0.4-1.1,0.9-0.8,1.4l0.5-0.8c0.1,0.7,0,1.2,0,1.8l-1.1-0.3c-1.3,2.4,2.3,4.3,0,6.1
						c0.8,0.7,0.5-1.3,1.4-0.8c-0.1,1.1-1.8,2.2-1.8,2.6c-0.7,1.5,1.6,1.4,1.2,3c0.4-0.2,1.4-0.4,1.8,0.8c-0.1,1.1-1.6,1.3-2,0.7
						c0-0.2,0.1-0.4,0.2-0.3c-0.1-0.3-0.3-0.8-0.8-0.4l0.4,0.1c-0.4,0.5-0.3,2.1-1,1.8c0.3,0.9,0.7,0.3,0.9-0.2
						c-0.5,1.4,0,2.2-0.4,3.6c0.2-0.2,0.7-0.4,0.7-0.2c-0.4,2.1,0.8,1,0.9,2.4c-0.5,0.8-1.4-0.3-0.9,1.2c-0.4,0.9-1,0.2-1.3-0.2
						c0.8,1.3-0.5,2.5-0.7,3.2l-0.3-0.7c0.2,0.4,0.2,0.8,0.2,1.1l0.8-0.4c-0.1,0.4-0.1,0.8-0.4,0.8c0.5,0.4,1.3-0.3,2,0.5
						c-0.4,0.5,0.4,1.6-0.7,1.9c0.3-1.8-1,0.2-1.2-1.3c0.1,0.3,0.1,0.7,0,1c-0.1,0.1-0.2-0.1-0.2-0.2c-0.9,1.6,1.2,0.8,1.1,2.4
						c-0.5-0.2-1.1,0.4-1,0.7c0-0.7,1-0.3,1.4,0.3c-0.4,1.1,0.3,1.2,0.3,1.8l0.2-0.7c0.5,0.2,0.5,0.8,0.7,1.5
						c-0.4,0.1-0.3-0.7-0.5-0.4c0.5,0.4,0.2,0.9-0.1,1.4c-0.3,0.8-0.7,1.8-0.3,2.5c-0.4,1-1.1,0.4-1.3,1.3c0.3,1,0.2,1.6,0,2.4
						c-0.2,0.8-0.4,1.6-0.1,2.6c0.8-1.4,0.5-1.2,1.3-0.5c-0.2-1-0.3-2-0.5-3.2c0.3,0.5,0.8,1,1.1,1.3c0-1-0.4-1.8-0.3-2.4
						c0.7,0.7,0.4,0.5,1.1-0.2c-0.5,1-0.4,1.5-0.2,2c0.2,0.4,0.4,0.8,0.1,1.9l-2,2.2c-0.3,1.3-0.2,2.3-0.1,3
						c0.1,0.7,0.4,1.2,0.5,1.9c0.8-0.5,1.4-1.1,2.1-1.3c-0.2,0-0.4,0-0.7,0c0.5-0.8,0.9-1.1,1.3-1.3c0.4-0.2,0.9-0.4,1.4-0.9
						c-0.4,1,0,1.1,0.2,1.4c0.1-0.7,2.2-1.3,2.6-3.2c0.3,0.1,0.8,0.2,1.1,0.3c1.2-0.5,1.9-1.4,2.3-2.3c0.4-0.9,0.8-1.6,1.6-2
						c0,0.4,0.2,0.7,0.3,0.9c0.1,0.2,0.2,0.4-0.4,1.2c0.2-0.1,0.3-0.2,0.5-0.3c0.1,0,0.2-0.1,0.2-0.1l0.1-0.1
						c0.1-0.1,0.2-0.2,0.1-0.4c0.4,0.2,0.9-1.5,1.6-1.3c0-0.3-0.2-1,0.3-1.3c0.1,0.1,0.2,0.2,0.2,0.2c-0.2-0.2,0.5-0.9-0.2-1.2
						c2.5,0.9,3.9-2.6,6.1-2c0.9-0.8,2-1.8,3-2.4c0,0.2,0.2,0.3,0,0.3c1.6-0.3-0.2-2.1,1.6-2.4c1.3,0.4-0.4,1,0.2,1
						c1.3,1.6,1.6-1.3,3.3-0.9l-0.2,0.2c1.1,0.1,1.4-1.9,2.7-2.4c0,0,0,0.2,0.1,0.3c0.2-1.4,1.6-2.7,2.6-3.7c0.1,1-0.3,0.7,0.3,1.3
						c0.4-0.4-0.9-1.1,0-1.9c0.5,0.2,1.5,0,2.1,0.8l-1,0.7c1.1,0.7,1.3-0.9,1.9-1l0.2,0.4c1.4-1.1,0.8-2.2,2.4-3.2l-0.3-0.2
						c0.2-1.6,1.1,0.1,1.5-1.2l1,1c0.4-0.7,1.4-2.3,2.3-3.2c-0.1,1.2-1.1,2.4-1.5,3.3c0.5-0.3,2-1.3,1.9-2.1
						c-0.2,0.2-0.3,0.7-0.7,0.7c0.2-1.3,0.9-2.3,2.1-3.1c1.1,2.3,3.4-1.3,5.3-0.2c1.5-2.1,4.3-2.2,6.6-3.8c-1.9-1.1,0.7-0.4-0.5-2.1
						c0.4-0.4,0.8-0.5,0.9-0.4h2.3c0.7,0.2-0.3,0.7,0,1.1c1.3-0.7,1,0.4,2.1,0.3c-0.5-0.5-0.1-1.1,0.8-1.3l-1.4-0.2
						c1.1-2,2.4,0.5,3.5-1.4l-0.2,0.9c0.7-0.9,3.3-2,3.3-3.9c0.3,0.1,0.8,0.4,0.4,0.8c2.2-1.1,3.8-4.4,5.9-4.6l0.1,0.5
						c0.3-0.3,0.2-1.2,1-1.1c0.1,0.2,0.1,0.5,0.3,0.4c0.1-0.2,0.5-1.4,1.3-1.4l-0.1,0.8c2.4-0.8,2.4-3.1,4.1-4.5
						c0.8,1.2,2.6,0.7,3.6,0.3l0.1,0.2c1.2-0.7,2.1-1.5,2.8-2.5c0.4-0.4,0.8-1,1.2-1.4c0.7-0.7,1.4-1.3,2.2-2
						c1.5-0.1,3.6-1.2,5.7-2.4c2.1-1.2,4.3-2.5,6.8-3.8c-0.3-0.2-0.5-0.4-0.8-0.7c0.1,0.3-2.3,0.1-3.2-0.2c-0.2-0.2-1.2-0.5-1.9-0.8
						c-0.7-0.2-1-0.4,0.1-0.5l0.3,0.2c1.3-0.8-1.3-1.8-2.8-2.6c-0.8,0.2-1.4,0.5-2.2,0.8c-0.2-0.8-1.1-1.6-2.2-2.3
						c-1.1-0.7-2.6-1.3-3.1-1.4c-1.5-0.5-2.8-0.9-3-2.2c-0.8,0.1-1.4-0.3-2.2-0.2l0.4-0.8c-1.4-1-2.1-1.5-4.1-2.3l0.7-0.3
						c-1-0.7-2.6,1.6-3.6,1.2l0.3-1.4c-1.9-1-3.2-3.1-5.6-3c0.1-0.1,0.3-0.4,0.7-0.3c-0.9-0.5-3-2.6-3.5-0.8
						c0.5-1.1-1.9-1.1-3.1-1.2l0.5-0.8c-1.4,0.5-1.5,0.9-2.8,0.5c-0.2-0.2,0.1-0.8,0.3-0.3c-0.7-0.9-1.1,0.3-2-0.7l0.7-0.3
						c-0.9-0.5-1-0.2-1.9,0.1c-0.8,0-1.8-1.2-1.4-2c-0.3,0.3-1.2,0.7-1.6,0.2c0.1-0.3,0.3-0.3,0.5-0.4c-1.3-1.4-2.8-0.3-3.5-1.8
						c0.1-0.3,0.1-0.4,0.1-0.5c1.2,0.7,2.3,1.3,2.1,1.3c0.4-0.8-0.5-1.4,0.8-2c-1.1,0.1-3.2,0.5-3.9-0.3c0-0.1,0-0.2,0-0.3h0.1
						c-0.2-0.2-0.4-0.2-0.7-0.2c-0.2-0.3-0.4-0.4-0.7-0.7c0.2-0.7-1-1-1.5-1.3c-0.4,0.9-1,0.3-0.8,1.3c0-0.1,0.1,0,0.5,0.1
						c0.1,0,0.2,0,0.2,0s0,0-0.1,0c0.3,0.1,0.8,0.3,1.3,0.7c-0.7,0.2-1.2,0.3-1.5-0.4c-0.5,0.3-1.1,0.8-1.4,1
						c-0.1-1.5-1.1-2.8-0.9-3.6c-1.8-0.3-3.8-1.6-5.6-0.7c-0.5,0-0.2-0.7-0.3-1c0.3,0,0.7,0.2,0.9,0c-1.1-0.1-2.7-1.2-3.5-0.3
						c-0.9-1.1,1.2-0.7-0.4-1.3l0.3-0.2c-2.1-3.3-6.4,0.1-8.5-3.8c0.1,0.2,0.2,0.3,0.2,0.5c-3.3-3-8.3-3.3-11.3-6.9
						c-0.9-0.9-1.4-0.2-2.3-0.1l0.2-1l-1.6,0.4c-2-0.1-1.5-3.6-4.4-3.3l-0.1,0.8c-0.7-0.5-2.4-0.9-2-1.5c-0.1,0.1-0.5,0.4-0.7,0
						l0.2-0.4l-2.2-0.1c-1.2-1.1,1.2-1.8-0.8-2.8c-0.9-0.2-2.8,0.2-2.7,0.7c0.3,0.2,0.7,0.7,0.4,1.2l-0.8-0.1
						c-0.9,1.3-2.1,2.4-1,4.3l1.6-0.2v0.9l-1-0.4c0.2,0.9,0.9,0.5,1.4,0.4c-0.1,0.4-0.1,0.8,0.1,1l1.9-0.7c-0.1,0.5-1.1,0.8-0.4,1.4
						c0.9-0.3,0.1-1.4,1.2-1.4c0.2,0.9-0.2,1.3,0.8,1.1c-0.1,0.4-0.3,0.5-0.7,0.5c0.8-0.1,1.6,0.7,2.3,0.1c0.2,1.1,2.1,0.9,1.3,2.1
						c0.3-0.2,1.5-0.4,2.1-0.2c-1.8,1,2,1.2,0.8,2.6c1.4-1,3,0.8,4.6,0.7c-0.1,0.1-0.4,0.2-0.4,0.1c0.7,0.5,0.7,1,1,1.5
						c0.7-1.1,2-0.8,3-1.1c0.3,1.5-1.2,1.1-1.5,2.2c0.4-1,2-0.1,2.1-1c0.3,1,0.4,0.7,0.2,1.8c0.9-1.3,0.8,0.1,1.8-0.4
						c0.5,1.2-0.4,1.4,0.9,1.6C210.3,195.3,209.1,195.3,209.1,195.3z M236,206.5C235.9,206.5,235.9,206.5,236,206.5
						c-0.2-0.1-0.4-0.2-0.5-0.2C235.4,206.3,235.6,206.3,236,206.5z M238.1,207.7c-0.2-0.2-0.5-0.3-0.9-0.5c0.1-0.3,0.3-0.5,0.5-0.4
						C237.5,206.8,237.8,207.2,238.1,207.7z M236.5,199.6c0.4,0.1,0.4,0.3,0.4,0.4c-0.2-0.1-0.3-0.1-0.7-0.2l-0.1,0.1
						C236.3,199.8,236.4,199.7,236.5,199.6z"/>
					<path class="st1" d="M235.4,200.3c-0.1,0-0.1,0-0.2,0c0,0.1,0.1,0.2,0.1,0.3c0.1-0.1,0.2-0.1,0.2-0.2
						C235.5,200.3,235.4,200.3,235.4,200.3z"/>
					<path class="st1" d="M186.5,226.2L186.5,226.2c0,0,0,0,0.1-0.1C186.5,226.2,186.5,226.2,186.5,226.2z"/>
					<polygon class="st1" points="266.8,225.1 266.9,224.9 266.6,224.9 					"/>
					<path class="st1" d="M189.6,212.8c0.1,0,0.2-0.1,0.2-0.2C189.8,212.7,189.8,212.7,189.6,212.8z"/>
					<path class="st1" d="M189.9,207l0.3-0.8C190,206.6,189.9,206.9,189.9,207z"/>
					<path class="st1" d="M190.3,202.6c-0.1-0.1-0.3-0.1-0.4-0.1l0,0L190.3,202.6z"/>
					<path class="st1" d="M191.4,273.3c0,0.1,0,0.1,0,0.2C191.6,273.8,191.5,273.6,191.4,273.3z"/>
					<path class="st1" d="M189.2,252.2c0.2,0.2,0.3,0.4,0.4,0.7C189.8,252.6,189.8,252.2,189.2,252.2z"/>
					<path class="st1" d="M195.3,274.8L195.3,274.8l0.1-0.1L195.3,274.8z"/>
					<path class="st1" d="M189.6,253.9c0.2-0.3,0.1-0.7,0-1C189.6,253.2,189.5,253.5,189.6,253.9z"/>
					<path class="st1" d="M190.7,183.3v-0.2c-0.1,0-0.1,0-0.1,0L190.7,183.3z"/>
					<path class="st1" d="M190.6,183.1l-0.1-0.2C190.5,183,190.5,183.1,190.6,183.1z"/>
					<path class="st1" d="M190.3,182.4l0.2,0.5C190.5,182.7,190.5,182.5,190.3,182.4z"/>
					<path class="st1" d="M190.3,189.3l0.3,0.1C190.5,189.3,190.4,189.3,190.3,189.3z"/>
					<path class="st1" d="M190.4,191c0.1-0.4,0.8-1.1,0.5-1.6l-0.2-0.1C191.1,189.6,189.9,190.6,190.4,191z"/>
					<path class="st1" d="M186.3,198.5l0.2-1.5c-0.3,0.2-0.9,0.7-0.9-0.1C184.5,198.8,186.4,196.5,186.3,198.5z"/>
					<path class="st1" d="M185.7,203.2c-0.2-0.8-0.5,0-0.8,0C185.4,203.6,185.4,203.7,185.7,203.2z"/>
					<path class="st1" d="M185.7,236.7l-0.9-0.1C185,237.2,185.2,236.6,185.7,236.7z"/>
					<polygon class="st1" points="190.1,243.1 190.6,242.5 189.9,242.3 					"/>
					<polygon class="st1" points="184.1,246.9 184,246.6 184.3,247.6 					"/>
					<path class="st1" d="M205.2,278.3l-0.7-0.8C204.2,277.9,204.8,278.8,205.2,278.3z"/>
					<path class="st1" d="M225.4,264.5c0.5,0.3,1.2,0.2,1.3-0.4C226.2,264.3,225.5,264.3,225.4,264.5z"/>
					<polygon class="st1" points="278.1,221.7 279.2,221.9 277.5,221.2 					"/>
				</g>
			</g>
		</g>
	</g>
</g>
<path class="st2" d="M415.4,335.9"/>
<path class="st2" d="M310,335.9"/>
<g>
	<g>
		<g>
			<g>
				<g>
					<path class="st3" d="M432.8,298.5c0.7-1.1-0.9,0.1,0.3-0.8C433.2,298,433.2,298.2,432.8,298.5z"/>
					<path class="st3" d="M434.4,300.9c3.8,2.1,5.9,7.2,9.5,10c0.3,0.3-0.8,0.4,0.1,1.2c3.7,2.5,7.3,8.2,9.9,12.9l-0.4-0.1
						c0.4,0.9,1.9,1.3,2.5,2.2c-0.1,0.1-0.4-0.1-0.4,0.2c0.5-0.1,1.4,1.3,2,1.4c0.1,0.4-0.2,0.7-0.1,1.2l0.9,0.1
						c2.2,0.4,2.5,3.2,4.5,4.5c-0.2,0-0.4-0.1-0.4,0.1c3,2.3,5.8,6,8.5,9c-0.2,0-0.7,0.1-0.7,0.4c0.7-0.2,1.5,0.7,2.3,1.4
						c-0.2,0.8,1.6,1.1,2.2,2.3h-0.2c1.1,0.3,0.5,1.3,1.8,1.4v0.8c1-0.2,0.5,1.3,1.3,1.6l0.1-0.1c0.7,0.4,0.5,1,1.1,1.4v0.1
						c1.2,1.1,1.4,2.2,2,1.6c-0.1,0.8-1.2-1.1-1.2,0.1c1.1,1.1,2.2,2.2,3.2,3.3s2.2,2.5,3.3,3.8c-1.5,2-3.1,3.8-4.5,5.8
						c-0.5,0.3-0.9,0.5-1.2,0.5c-0.2,0.5-1.1,1.6-1.2,2.3c0.1-0.1-0.5,0-0.7,0.2c-0.8,0.5,0,1.3-1,2c0.1-0.4,0-0.7-0.2-0.8
						c-0.1,1.1-1,2-1.5,3c0-0.2,0.1-0.4-0.1-0.5c-0.2,1.3-1.4,1.6-1.8,2.6l-0.1-0.5c-1.4,1,0.3,0.9-0.8,1.9c0.1-0.3-0.1-0.3-0.2-0.5
						c-0.2,1.5-1.8,3.1-2.4,4.3c0-0.1-0.1-0.1-0.1-0.1c-0.9,1.2-2,2.3-2.7,3.7c-0.5,0.3-0.7-0.8-1.5,0.5c0.7,0.4-1.3,2.3-0.1,2.1
						c-0.9,1-2.4,2.4-2.7,3.3c0.1-0.7-1.2-0.1-0.5-1l-0.9,0.3c-0.2-0.3,0.7-0.5,0.1-0.7c-0.3,0.4-1.1,1.9-1.4,2.2
						c-0.2,1.1-0.1,2.4-1,3.7c0.2-0.8-1-0.2-0.8-0.7l-0.2,2.7c-0.3,0.4-0.5-0.3-0.9,0.4c0.2,0.1,0.1,0.4,0.1,0.8
						c-0.2,0.1-1.2,1.9-2,1.6c-0.4,0,0.4-0.8-0.2-0.5c-0.7,0.8-0.4,1-1.1,1.8h-0.1c-0.5,0.4-1,1.8-0.1,1.4c0.3-0.3-0.4-0.1,0.1-0.5
						c0.1,0.7-0.5,1.6-1.2,2.4c0.1-0.3-0.1-0.4-0.2-0.7c-0.3,1.4-1.1,2.7-1.9,4.1c0.3,0.2-0.2-0.9,0.1-0.9c-1.6,1.2-1.9,3.6-3.5,4.4
						c0.1-0.2,0.5,0.2,0.4,0.2c-0.7,0.7-1,0.3-1.2,1c-0.3-0.1-0.4,0.7-0.7,1.2c0,0.4-0.2,0,0.1-0.4c-0.3,0.9-2.1,3.9-3.7,5.3
						c0.2,0.1-0.1,1.4-0.4,1.9l-0.3-0.4c-0.5,0.1-1,1.2-1.3,1.1c-0.1,1.2,2-3.3,1.5-2c-0.5,0-0.5,2-0.9,1.3
						c-0.5,0.8-0.7,1.8-1.6,2.2c0.2-0.1-0.1-1-0.5-0.4c-0.8,1.1,0,0.4-0.5,1.4l-0.2,0.7c0.3,0.3-0.8,0.9,0,0.9
						c-0.3-0.2-1.6,2.5-2,1.6c-0.1-0.2-0.1-0.5-0.2-0.8c-0.4,0.7-0.4,1.6-0.8,2.4c-0.1,0-0.3,0-0.3-0.1c0.1,0.5-0.2,1-0.5,1.4
						c-0.4,0.4-0.9,0.9-1.1,1.9c-0.2,0.2-0.5,0.4-0.8,0.8c-1.1-1.5-2.4-3-2.6-3.9c-1-0.7-2-1.4-2.8-2.8c0.2,0.2,0.5,0.5,0.8,0.4
						c-0.2-0.4-0.4-0.7-0.7-0.9c-0.2-0.2-0.3-0.2-0.7-0.4c0.2,0-0.4-1.4-0.5-2.2c-0.8-0.5-1,0-1.3,0.2c0.2-1.3-2.1-1.6-2.1-3
						c0.3,0.1,1.2,0.8,0.9,0c0.2-1.2-1.6-0.9-2.1-2.2l-0.4,0.8c0-0.8-1.6-1.2-0.9-1.6c-0.5-0.2-0.8-1.4-1.3-0.8
						c-0.9-2.2-3.7-3.9-3.5-5.9c-0.3-0.2-0.7-0.9-0.9-0.4c0,0.7,0.7,0.3,0.7,0.8c-0.2-0.2-0.4-0.1-0.5-0.1c-0.3-0.7-0.5-1.1,0.3-1
						c-0.5-1.5-2.1-0.4-3.1-2.1c0.3-0.1,0.3-0.3-0.1-0.8l-1.1-0.5c-0.7-1.1,0.1-1,0.5-1.4c-0.5-0.4-1-1.1-1.5-1.1v-1.1
						c0,0.8-0.7-0.2-0.9-0.4l0.3,0.1c0.1-0.2-0.5-0.8-0.8-1c-0.2,0.3,0.2,1,0.4,1.4c-0.4-0.1-0.7-0.5-1.2-0.8
						c0.5-0.2-0.4-1.1-0.7-1.5c-0.3-0.5-0.8-0.2-0.9-0.4c0.2-0.2-0.5-0.8,0-0.7c0.2,0.1,0.1,0.5,0.5,0.7c-0.1-0.4,0.3-0.8-0.5-1.1
						c-0.7-0.3-0.8,0.8-1.2-0.3c0.3,0.1,0.5,0.1,0.8,0.1l-0.5-1.1l-0.4,0.2c0-0.2,0.1-0.1,0.1-0.2c-0.7,0.1-1.2-1.2-1.9-1.1
						c-0.4-0.4-0.5-1.1-0.8-1.6h0.1c-0.2-0.7-0.9-1.3-1.5-1.5h0.1c-0.2-0.3-0.8-0.9-1.3-1.1c-0.3-1,1.2-1.4,0.1-1.8
						c-0.7-0.7-1.6-0.5-1.6-0.1c-0.8-1.5-2.6-2.5-3.1-4.2c-0.3-0.1-0.3,0.1-0.7-0.2c-1.4-2.1-3.7-3.6-4.3-5.8
						c0.7,0.4,0.4-0.2,0.7-0.4c-0.7-0.2-0.1-0.9-0.8-0.5c-0.3,0.3-0.5,0.4-0.2,1.1c-1.1-1-2.5-2.7-2.7-3.6c0.1,0.4-0.2,0.3-0.5,0.1
						c0.7-0.3,0-1.3-0.7-1.8L385,376v-0.7c-0.3-0.1-0.9,0.3-1.1-0.5c0.1-0.1,0.2-0.3,0.2-0.4c-0.8-0.4-2-1-2.3-2v-1
						c-0.3-0.2-1-0.5-0.8,0.1c-0.7-1.4-1.3-2.3-1.2-3c-0.4-0.2-0.9-0.4-1.3-0.8s-0.8-0.5-1.5-1.3c-1.3-1.3-2.7-2.8-4.1-4.4
						c1.3-1.5,2.6-3.2,3.8-4.6l0.2,0.3c1.1-0.9,0.1-1,0.7-1.3c0.1,0.4,0.9-0.1,0.8,0.7c1-0.7,0.5-1.5,1-2.2
						c-0.2-0.3-0.2,0.7-0.5,0.2c0-0.2,1.3-1.1,1-1.6c0.4-0.1,0.5,0.4,0.7,0.7l0.2-0.8c1.2-0.2-0.3,2.4,1,2.3l0.3-0.5
						c0.9-0.1-0.5,1.9,0.7,0.7c0.2-0.8-0.1-1.9-0.7-1.5c0.9-1.3-0.7-1.5,0.4-2.7c0.5-0.1-0.8,1.1-0.2,1.2c0.9-0.2,0.8-1.4,1.4-1.8
						c-0.7,0.4-0.8-0.4-0.5-1c0.8-0.4,0.1,0.8,0.9-0.1c-0.1-0.4,0.3-1.4-0.4-0.9c-0.3-0.9,1-0.8,0.9-1.8c0.7,0.1,0.2,1.9,1.3,1
						c-0.5-0.2,0.4-1.8-0.7-1.8c0.4-0.3,0.9,0,0.9,0.4c0.8-0.3,0.3-2.1,1.4-1.5l-0.3-0.5c0.3,0,0.7-0.2,1.1-0.3
						c0.4-0.4,0.8-2.1,1.4-1.5c0.1-0.2,1.1-1.3,0.2-1.3c-0.9,0.4-0.3,1.1-1.3,1c0.9-0.1,0.8-1.1,1-1.6l0.3,0.1
						c0.1-0.3,0.7-0.9,0.4-1.2c0,0.3,0.2,0.3,0.4,0.2l-0.2-0.5c0.7-1.1,0.9,0.3,1.5-0.7l-0.3,1c0.1-0.2,0.7-0.2,1-0.8
						c-0.2-0.4-0.3-1.2-0.5-1.5c0.3-0.7,0.7,0.1,0.7-0.8l-0.1,1.1c0,0.2,1,0,1.5-0.7c0.2-0.5,0.3-1.8-0.4-1.2c0.3-0.3,1-0.7,1-0.2
						c0.5-0.9-0.4-0.2-0.1-1.1c0.4-0.1,1.5-0.7,2.4-1v1.2l0.4-0.4c-0.1,1,0.7,0,0.9,0.8c0.3-0.2,0.5-0.8,0.7-1.2
						c-1.6,0.3-0.2-2.1-1.2-2.4c0.9-1.5,2.5,0.7,2.5-1.6c-0.4,0.1-0.4-1.1-0.9,0c0.8-0.8-0.2-1.2,0.9-1.9c-0.3,1,1.4-0.1,1,1.3
						c-0.2-0.3-0.7,0.4-0.8,0.7c0.5-0.1,0.7,0.7,1.4-0.1c0.3-0.5,1-1.3,0.4-1.5c-0.4-0.3-0.7,0.9-0.8,0.1c0.8-1.2,1.5-0.8,1.1-1.9
						c-0.5,0.7-1.1,0.5-1.3,0.2l0.4-0.9l0.1,0.4c1.2-1.1-0.2-0.8,0.9-1.9l1-0.1c0.2,0.7-1.6,1.5-0.7,2c0.7-0.8,0.5-1.3,1.3-1.9
						c-0.1,0.2-0.2,0.4-0.3,0.7c0.2-0.2,1.5,0.3,1.9-1.3c0.2-0.8-0.1-0.4-0.4-0.7c1-1.3,1-2,1.6-2.7c0.4,0.7,1.2-1.3,1.1,0
						c-0.7,0.1-2.2,2-2,2.8c1.1,0.1-0.9,0.9-0.4,1.8c0.9-1,1.4-0.3,2.1-0.1c0.2-0.2,0.3-0.7,0.3-0.9c-0.3-0.4-0.7-0.1-1.1-0.4
						c1.1-1,1.8-2.3,1.9-3.2c0.5-0.2,0.9,0.2,0.5,0.8c1-1.4,2.2-2.7,3.4-3.9c-1.3,0.2,1-1.5,0-1.4c-0.8,0.5-1.6,0.8-1.6,0.1
						c0.4-0.3,0.3,0.2,0.5,0.2c0.1-0.9,1.3-0.3,1.1-1.3c-0.8,1.4,0.7,0.9,1,1.5c0.4-1.1,0.3,0.3,1.1-0.5c0.4-1.1,1.1-2.4,1.8-3.4
						c1.5-0.8,2.6-3.1,3.5-4.2c0.8-0.3,1,0.5,1.6,0c0.5-0.8-1.1,0,0.1-0.9v0.2c0.1-0.4,2.1-1.6,1.4-2.6l0.3,0.9
						c0.2-0.1,0.2-0.4,0.3-0.7c0.2,0.2,0.5,0.1,0.4,0.5c1-0.3,1.1-1.4,1.6-2.2l-0.8,0.1c0.8-1.4,1.8-2,2.6-3.3l0.3,0.3l0.3-0.9
						c0.2,0.4,1,0,1-0.5l-0.7,2.6c-0.7,0.3,0-1-0.7-0.9c-0.5,0-1.3,1.2-1.2,1.6c0.4-0.3,0.3-0.4,0.4-0.9c0.7,0.3,0.1,0.9,0.1,1.5
						c0.1-0.2,0.5-0.4,0.4-0.5c-0.1,0.7-0.4,1.1-1,1.9c0.2-0.7-0.5,0-0.5-0.3c0.4,0.4,0,1.2-0.9,2c-1.1,0.2-1.1,2-2.1,2.8
						c-0.1-0.8,0-1.6,0.3-2.4c-0.8,0.4-0.5,0.8-1.4,1.2c0.1,0.5,0.4,1.3-0.1,2.3l-0.3-0.2c-0.4,0.9,0,1.3-0.9,2.2
						c-1.5,1.5-3,3.2-4.2,4.5l-0.3-0.2c0.1,1.3-1.8,2.6-2.2,3.8c-1.6,1.3-2.6,3.8-3.9,4.2c-2.2,3.1-3.9,5.8-6.6,8.7l-0.1-0.9
						c-0.1,0.9-0.5,0.1-1,0.7c0.9-0.2-0.1,1.2-0.1,1.8c-1.5,1-2.5,3.1-3.2,4.5l-0.3-0.2c-0.3,1.8-2.1,2.6-3.4,4.1
						c-0.3,0-0.9,0-1.2,0.5c-0.1,1.2-0.5,1.6-1.2,3.1c-0.8,0.9-2,2.1-3,2.8c-2,3.8-5.1,6.7-7.6,10.4l-0.7-0.1
						c-0.2,0.4-0.4,0.8-0.7,1.2l-0.2,0.3v0.1l-0.1,0.2c-0.1,0.3-0.3,0.5-0.5,0.8c0.3,0.3,0.5,0.8,0.8,1.1c0.8,1,1.5,1.9,2.3,2.6
						l-0.9,0.3c0.5,1.1,1.9,1.9,2.1,1.2c0.5,1.1,2.1,2,2,3c0.7,1,1.2,0.9,2,1.5c1.2,2,1.9,2.6,3.3,4.3l-0.3-0.4
						c-0.3-0.1-0.7,0.1-0.3,0.7c0.7,0.4,1.8,2.5,2,1.2c1,2.2,3.8,3.9,4.6,6.1c0.1-0.3,0.5,0.1,0.8,0.1c1.3,1.5,2.2,3.6,3.6,4.6
						c0.1,0.3-0.7-0.1-0.2,0.5c0.4,0.3,0.3-0.2,0.8,0.1c2.5,2.2,3.8,5.6,5.8,7.8c3.8,3.8,7.1,8.3,10.5,12.3l-0.2,0.1
						c1.8,0.8,1.9,3.6,3.7,3.9c0.1,0.4,0.9,1.3,0.4,1.3c1.3,0.7,2,3.3,3.8,4.4c-0.1-0.1-0.2-0.2-0.4-0.3c0.4,0.9,1.1,1.6,1.8,2.3
						c0.3,0.3,0.7,0.7,1,1.1c0.2,0.3,0.7,1,0.7,1c-0.1,0-0.1,0-0.2,0c0,0-0.2-0.1-0.3,0c0,0.1,0,0.1,0,0.1s0,0,0,0.1l0.1,0.1
						c0.1,0,0.2,0,0.3,0c0.2,0,0.3,0,0.1,0.5c0.1,0.1,0.3-0.4,0.2-0.4c0.2,0.4,0.4,0.8,0.8,1.1c0.4-0.5,0.8-1.2,1-1.6
						c0-0.1,0-0.1,0.1-0.2l0.3-0.5l0.8-1.1c0.5-0.8,1-1.4,1.5-2.2c2.6-2.3,1.5,0.9,2.6-1.8c0.3,0-0.2-0.3,0-0.2c0.4-1,2-0.5,2-1.5
						c-0.7-0.1,0-0.5-0.2-0.9c1.6-1.4,2.3-1.4,3-3l0.2,0.3c0.4-2.1,2.3-3.6,2.4-5.6c6.5-8.5,12.4-17.1,18.8-25.4
						c2.8-3.5,5.7-7.1,8.4-10.7c1.4-1.8,2.8-3.6,4.3-5.4l1.1-1.3l0.5-0.7l0.2-0.3c0.1-0.1,0-0.1,0-0.1l0,0l0.2-0.1c0,0,0-0.1,0-0.2
						l0,0v-0.1c0-0.1,0-0.1-0.1-0.2c0-0.1-0.1-0.2-0.1-0.4c-0.1-0.2-0.2-0.4-0.2-0.7c-0.2-0.4-0.3-0.7-0.5-1c-0.4-0.5-0.9-1.1-1.9-2
						c0.2,0,0.3,0.1,0.3-0.1c-0.7,0.3-1.2-1.4-2-1.2c-2.4-3.1-4.8-5.8-7.3-8.9c0.4,0.4,1.1,0.3,0.7-0.2l-0.9-0.3l0.1-0.2
						c-0.4-0.3-1-0.5-0.9,0c-6.8-7.4-11.9-16-18.3-23.5c-1.2-2-3.6-4.4-5.3-6.2c-4.1-6.5-7.7-12.2-13-17.7
						C430.1,299,432.1,298.7,434.4,300.9z"/>
					<path class="st3" d="M431.9,299.7c-0.4,0-1.2,0.5-1.1-0.3C431.2,299.4,431.7,299.3,431.9,299.7z"/>
					<path class="st3" d="M414,315.2c0.1,0.1-0.3,0.1-0.4,0.2c0.2-0.2,0.1-0.7,0.4-0.7C413.8,314.9,414,315,414,315.2z"/>
					<path class="st3" d="M410,319.6c-0.2-0.3,0.4-1.4,0.9-2L410,319.6z"/>
					<path class="st3" d="M405.4,323c-0.5,0.2-0.5,0-0.1-0.5C405.4,322.5,405.3,322.8,405.4,323z"/>
					<path class="st3" d="M405.6,323.8c-0.3,0.3-0.5,0.4-0.9,0.4C405,324.4,405.3,323.3,405.6,323.8z"/>
					<path class="st3" d="M397.1,332.4c-0.2,0.2-0.3,0.9-0.8,0.9C396.8,333.3,397,332,397.1,332.4z"/>
					<path class="st3" d="M393.9,337c-0.1,0.1-0.2,0.1-0.3,0.3c-0.3,0.1-0.3-0.2-0.1-0.5L393.9,337z"/>
					<polygon class="st3" points="421.6,420 421.2,419.6 421.5,419.5 					"/>
					<path class="st3" d="M453.4,406.7c0.2-0.5,0.5-0.1,0.5-0.2C453.7,407,453.8,406.1,453.4,406.7z"/>
					<polygon class="st3" points="467.2,386.7 467.1,386.8 466.5,386.4 					"/>
				</g>
			</g>
		</g>
	</g>
</g>
<g>
	<g>
		<g>
			<g>
				<g>
					<path class="st4" d="M448.5,224.1c0.3,0.8,0.9,0.3,0.8-1.9l-1.1-1.6L448.5,224.1z"/>
					<path class="st4" d="M450.5,208.9c-0.5-2.6-1.4-5.7-2.4-3.9c1.1,2.6,0.7,3.3,1.9,6.1c0.1,2.3-0.3,3.9-0.8,3.5
						c0.3,0.8-0.2,3.5,0.4,4.7c0.9-3,0.9-6.7,0.2-10.5C450,207.9,450.3,208.6,450.5,208.9z"/>
					<path class="st4" d="M350.2,88.5l1.4,0.1C351.3,88.5,350.8,88.5,350.2,88.5z"/>
					<path class="st4" d="M273.1,114.3c-0.7-0.4-1.1-0.4-1.1-0.3C272.7,114.1,273.2,114.5,273.1,114.3z"/>
					<path class="st4" d="M269.4,130.4c0.3-0.3,0.7-0.5,0.9-0.8C269.9,129.9,269.5,130.1,269.4,130.4z"/>
					<path class="st4" d="M350.2,88.5l-3.6-0.3C346.4,88.5,348.5,88.4,350.2,88.5z"/>
					<path class="st4" d="M447.9,178.5c0,0.8,0.1,1.4,0.3,2c0-0.7-0.1-1.2-0.1-1.9C448,178.6,447.9,178.5,447.9,178.5z"/>
					<path class="st4" d="M410.3,87.2h1.1c0.3-0.1,0.7-0.3,0.9-0.4L410.3,87.2z"/>
					<path class="st4" d="M453.3,95c0-0.4-0.2-1.1-0.4-1.4c-0.3-0.3-0.7-0.5-0.8-0.8c0.2,0.3,0.3,0.8,0.4,1.2c0,0.2,0.1,0.4,0.1,0.7
						s0.1,0.4,0.1,0.7C452.8,95.5,452.9,95.3,453.3,95z"/>
					<path class="st4" d="M451.6,168.1l0.1,1.3C451.7,169.1,451.6,168.6,451.6,168.1z"/>
					<path class="st4" d="M377.4,87.3c-0.1-0.1-0.2-0.2-0.4-0.3C376.9,87.1,377,87.2,377.4,87.3z"/>
					<path class="st4" d="M357.3,312.9c0-0.1-0.1-0.1-0.1-0.1C357.1,313,357.1,313.1,357.3,312.9z"/>
					<path class="st4" d="M319.3,350.8l0.4-0.5c-0.1-0.2-0.1-0.3-0.3-0.4L319.3,350.8z"/>
					<path class="st4" d="M231.8,139.8c0.1,0,0.1,0,0.2,0C233,139.6,232.5,139.6,231.8,139.8z"/>
					<path class="st4" d="M22.7,248.8c0.9-4.4,1.1,7.2,2,0.5C24.4,249.9,23.3,243.3,22.7,248.8z"/>
					<path class="st4" d="M448,177.3c0-0.7,0-1.2,0-1.9C448,176.3,448,176.9,448,177.3z"/>
					<path class="st4" d="M24.7,249.4L24.7,249.4l0.1-0.7C24.8,248.9,24.8,249.1,24.7,249.4z"/>
					<path class="st4" d="M160,85.2c0.2,0.1,0.5,0.3,1,0.4C161,85.4,160.7,85.3,160,85.2z"/>
					<path class="st4" d="M208.6,135.9c-0.5-0.2-1-0.5-1.5-0.9C207.6,135.5,208,135.8,208.6,135.9z"/>
					<path class="st4" d="M122,86.4c-1-0.1-1.3-0.2-2.6-0.1c0.1,0,0.2,0.1,0.4,0.1C120.2,86.4,120.9,86.3,122,86.4z"/>
					<path class="st4" d="M82.4,86.4c0.2,0.1,0.4,0.1,0.8,0.2c0.4,0,0.9,0,1.2,0L82.4,86.4z"/>
					<path class="st4" d="M403,374.8c0.8-0.5,1.3-0.8,1.8-0.9C403.9,374,407.3,369.3,403,374.8z"/>
					<path class="st4" d="M448.5,178.5c-0.2-0.2-0.3-0.5-0.4-1.2c0,0.4,0,0.9,0,1.3C448.2,178.7,448.3,178.7,448.5,178.5z"/>
					<path class="st4" d="M120.4,93.8l-6.2-0.1C115.8,93.8,118.1,93.8,120.4,93.8z"/>
					<path class="st4" d="M179.6,358.4l1.4-0.1C180.4,358.3,179.9,358.3,179.6,358.4z"/>
					<path class="st4" d="M95.5,93.8c-1.1-0.3-2.3-0.5-3.5-0.7c-0.2,0.1-0.5,0.1-0.8,0.2L95.5,93.8z"/>
					<path class="st4" d="M404.9,373.9C404.8,373.9,404.8,373.9,404.9,373.9C404.8,373.9,404.8,373.9,404.9,373.9z"/>
					<path class="st4" d="M398.7,346.9c3.7,4.7,2.7,1.4,4.1,2c4.8,5.4,1.4,3.2,2.4,5.4c1.5,1.6,3.1,3,4.5,4.2c0.7,0.7,1.3,1.2,2,1.8
						c0.3,0.3,0.7,0.7,0.9,0.9c0.1,0.1,0.2,0.2,0.3,0.3c-0.1,0.1-0.1,0.3-0.4,0.2c0.3,0.1,0.5,0.3,0.9,0.5c-0.1,0.3-0.3,0.7-0.7,1.1
						c-0.9,1.1-1.8,2.3-2.6,3.4c-1.8,2.4-3.5,4.7-4.5,6.9c-0.3,0.2-0.5,0.3-0.7,0.3c1-0.3,1.6,0,1.9,0.3c-1.6,2.1-2.5,4.4-3.7,4.7
						c1-1.3,0.9-1.5,1.2-2.3l-1.4,2.4c-2.4,1.3,2.1-3.3,1.4-3.8c-3.1,4.5-6.4,10.2-9.2,13.3c-1.4,0,5.8-8,1.5-4.2l4.4-4.8
						c-4.5,2.8,2.5-3.1-1.8-0.7c-5.6,6.6-5.5,7.9-11.1,14.3c-0.7,1.9,1.1,0.1,0.4,2c-6.7,10.2-8.1,5.8-12.5,13.7
						c-0.9,2.3-0.3,3.8-4.8,8.3l0.3-2.5c-2.6,3.2-3,4.4-3.5,5.6c-0.2,0.5-0.5,1.2-1.1,2c-0.2,0.4-0.8,1-1.4,1.4
						c0.1-0.5,0.4-1.2,0.8-1.5c0.1-0.1,0.1-0.2,0.1-0.2c0.1-0.2,0.2-0.3,0.3-0.5c0.2-0.2,0.2-0.3,0-0.1c-0.1,0.1-0.2,0.2-0.3,0.3
						l-0.1,0.1h-0.1c-0.1,0-0.1,0.1-0.2,0.1c-0.1,0.1-0.2,0.1-0.2,0.2c-0.1,0.1-0.1,0.3-0.2,0.5c-0.1,0.4-0.1,1.2-0.5,2
						c-0.1,0-0.2-0.1-0.3-0.3c0-0.7-0.1-1.2,0-1.8c-0.2-0.2-0.3-0.3-0.5-0.5l-0.2-0.1l-0.1-0.1l0,0l-0.1-0.1l-0.1-0.1
						c-0.3-0.4-0.8-0.9-1.1-1.3c-1.5-1.8-3.2-3.5-4.7-5.3c-3.2-3.5-6.5-7.1-9.6-10.8c0.5,0.2,2,1.3,0.8-0.7
						c-8.2-9.2-16.5-20.5-23.5-30.1l-3.6-3c-0.7-0.9-0.9-1.8,0-1c-2.6-3.8-0.7,0.2-2.3-1.3c-1.8-2-1.8-3.1-0.4-2
						c-0.9-0.9-1.8-1.9-2.8-2.8c-0.5-0.5-1.1-1.1-1.6-1.8c-0.9-1-1.8-2-2.6-3c-1.5,0.1-3.1,0.1-4.6,0.2c-1,0-2.1,0.1-3.1,0.1
						c-2.1,0.1-4.2,0.1-6.1,0.1c-4.1,0-7.9-0.1-11-0.4l1.6-0.3c-6.7-0.4-7.6,2-13.8,1.1l1.2-0.2c-14.6-0.4-30.7,0.4-41.7-1
						c-2.1,1.4-14.5-0.7-15.3,1.3c-8.3-1-5.9-1.3-17.6-2c-3.2-0.1-4.7,1.2-8.5,1.4l-0.1-1l-5.3,1.1l-2.7-1.2l-3.6,0.2
						c1.4,0.1,3.1,0.4,2.8,0.8c-5.7,0.4-13.8-0.7-13.9-1.2l-13.4,0.9c0.3-0.4,2.5-0.5,4.3-0.8c-7.1,1-1.3-1.1-7.9-0.1
						c0.9,0.2-0.4,0.7-0.7,0.8c-3.3-0.7-10.7-0.7-16.2-0.3l1.1-0.7c-10-0.2-20.9,0.3-32.1,0.3c4.1,0.3,3.1,1.5-0.2,1.6l-1.3-1.1
						c-2.1,0.7,3.4,0.4-0.9,1.2c-4.2-0.1-2.8-1.2-0.4-1.5l-5,0.3c-0.3-0.3,0.9-0.4,1.2-0.9c-2.1,0.7-8.8-1.1-11.7,0.1l-0.3-0.3
						c-11.2,0-16.2,0.3-25.3,0.4c-0.2,0.9-3.7,0.8-6.5,1.4c-6.7-0.3-14.1-1-22.1-1c-0.9,0.1-0.8,0.1-1,0.2c-0.1,0-0.2,0.1-0.3,0.1
						c-0.2,0.1-0.3,0.2-0.3,0.3c-0.1,0.2,0,0.4-0.8,0.7c0.1-0.2-0.1-0.4-0.3-0.5c0.1-0.7,0.2-1.2,0.3-1.4c0.1-0.3,0.2-0.3,0.4,0
						c0-0.1,0-0.3,0-0.4c0-0.2,0-0.1,0-0.8c0-1,0-2,0-2.8c0-1.8-0.1-3.4-0.1-5.1c-0.1-3.4-0.3-7.1-0.7-13.3
						c-0.3,1.3-0.5,2.8-0.8,2.1c-0.1-2.2,0.3-5,0.8-4.7l0.1,0.5c-1.3-13.7,2.4-31.7,0.7-42.5l0.1,0.7L30,279.5
						c0.1-5.3,0.7,3.1,1.2-0.8c-1.4-12.2,0.2-19.3-0.8-29.4c2.5-7.8-0.2-27.6,1.4-38.1l-0.5,0.7c-0.5-2.7,0.3-3.3,0.4-5.3
						c-0.4,0.3-0.5,3-0.9,1.2c-0.7-23,0.9-47.4,1.4-71c0.1-8.7-3.1-4.9-1.6-15.8l1.1,3.1c-0.4-5.8-0.5-11.7-0.7-17.6
						c0-4.5,0-9.1,0-13.6c1.5,0,3-0.1,4.5-0.1c2.8-0.1,5.7-0.2,8.5-0.3c-1,0.2-1.1,0.5-2.7,0.5c3.6,0.8,13.3,0,13.4-0.7
						c2.6,0.1,0.7,0.5,2.3,0.9c3.6,0.4,9.1-1,11-0.2c0.3,0.1-1,0.2-1.6,0.3c2.3-0.3,11,0.1,8.7-0.8c6.4,0.4,12.3-0.4,17.3,0.1
						c3.3-1,11,0.4,12-1c-0.4,1.5,11.2,1.2,15.2,0.5c-1.3,0.4,3.5,0.4,2,1.1c4.6,0,8.9-0.3,8-1.1c8.5,1.8,17.1-1.4,21.9,0.9
						c2.6-0.1,5.1-0.3,7.6-0.4c0.7,0,1.2-0.1,1.9-0.1h0.4c0.1,0,0.3,0,0.3,0h0.2c0.3,0,0.8-0.1,1.1-0.1c0.1,0.3,0.2,0.7,0.3,1
						c0.1,0.1,0.1,0.3,0.3,1c0.1,0.5,0.3,1.1,0.4,1.5c0.7,2.1,1.4,4.2,2.3,6c1.8,3.8,3.8,7.3,6,10.6c-0.8,0.2-2.6-2.7-4.3-5.8
						c-1.6-3.1-2.8-6.2-3.5-5.7c2.6,5.8,5.5,9.7,8.3,13.6c1.4,1.9,3,3.7,4.6,5.7c0.4,0.4,0.9,1,1.3,1.5c0.4,0.5,1,1,1.4,1.5
						c0.5,0.5,1,1,1.5,1.5c0.5,0.5,1.1,1,1.6,1.5c2.3,2.2-1.8-0.7-2.7-1.3c4.7,4.1,9.5,7.4,14.3,10.4c4.8,3,9.9,5.4,15,7
						c-0.1,0.1-1.2-0.2-2.3-0.5c2,0.9,4.6,2,4.6,1.3l-2-0.5c-1.4-1.1,0.8-0.8,3.3-0.3c2.5,0.4,5.6,0.8,5.8,0.5c-2,0.4,0.5,1.3,2.8,2
						c2.3,0.7,4.5,1.2,1.4,2c0.8,0,1.5,0.1,2.2,0c0.5-0.1,1-0.2,0.9-0.4c2.1,0.3,2.7,0.7,0.5,1c3.8,0.2,5.1-0.1,6.2-0.3
						c1.1-0.2,2.2-0.3,5.6-0.5c0,0.3-1.4,0.5-2.1,0.9c1.8-0.3,3.5-0.8,5.5-1.2c2-0.3,4.3-0.8,7.1-1.1c-0.3,0.2,0.4,0.4-1.3,0.7
						c4.9-0.9,9-2.4,13-4.3c2-1,3.9-2.1,6-3.3c2-1.3,4.1-2.7,6.2-4.6c-0.7,1.6,0,1.1,1.2,0.1c0.5-0.5,1.2-1.2,1.8-1.6
						c0.5-0.5,1-0.9,1.4-0.9c1.1-1.9,2.1-3.9,2.6-6c-0.5,0.8-1,1.5-1.5,2.2c0.5-1.3,1-2.6,1.2-3.9c0.1-0.7,0.2-1.3,0.2-2
						c0.1-0.7,0.1-1.3,0.1-2c-0.1-1.4-0.3-2.7-0.9-4.1c-0.5-1.2-1.3-2.4-2.1-3.4c1.2,1,2.2,2.3,2.8,3.7c-0.7-2-2-3.6-3.5-4.8
						c-1.5-1.2-3.4-2.1-5.5-2.3c2.3,0.4,4.2,1.6,5.6,3.3c-1.2-0.9-2-1.1-2.3-1.1c-0.3,0-0.4,0.1-0.5,0.2c-0.1,0.1-0.2,0.1-0.8,0
						c-0.5-0.1-1.3-0.7-3.2-0.8c0.3,0,0.2,0-0.3-0.1c-0.2,0-0.5,0-1,0.1c-0.2,0-0.4,0.1-0.5,0.1c-0.2,0-0.3,0-0.5,0.1
						c-0.4,0-0.9,0.1-1.4,0.1l-0.8,0.1c-0.2,0-0.4,0-0.7,0.1c-0.9,0-1.6-0.1-2.2-0.3l0,0c-1.1,0.1-2.3,0.1-3.6-0.2
						c-1.2-0.3-2.5-1.1-3.5-2.5c-0.1-0.4,0.3-0.5,0.7-0.5s0.8-0.1,0.7-0.3c-0.4-0.1-1.1-0.8-1.5-1.6c-0.2-0.4-0.4-1-0.5-1.6
						c-0.1-0.5-0.2-1.1-0.1-1.5c0.1-2,2.4-3.9,3.3-5c-0.7,0.7-0.3,1.3,0,1.2c0.3-0.5,0.7-1.1,1.1-1.5c1-0.3,1.5-0.3,1.9-0.2
						c0.3,0.1,0.3,0.2,0.2,0.5c1.3-0.2,1.9-0.1,2.1-0.2c0.2-0.1,0-0.3-0.1-0.4c-0.1-0.2-0.3-0.3,0.1-0.3c0.3,0,1.2,0,3.1,0.8
						c-0.5-0.1-0.3,0.1-1.5-0.1c0.9,0.2,1.8,0.5,2.6,0.9c1,0.4,1.9,0.8,2.7,1.2c1.9,0.8,3.8,1.4,5.9,1.9c1.1,0.2,2,0.3,3.2,0.3
						c1.2,0,2.5-0.3,3.5-0.9c1.1-0.5,2-1.4,2.6-2.5c0.3-0.5,0.5-1.1,0.8-1.6l0.4-1.4c0.4-0.4,0.5-0.3,0.5,0.2c0,0.2-0.1,0.5-0.1,1
						c0,0.2,0,0.3-0.1,0.7c-0.1,0.2-0.2,0.5-0.3,0.8c-0.4,1.1-1.1,2-1.5,2.5c-0.4,0.4-0.4,0.7,0.4,0.2c0.5-0.7,1.1-1.3,1.4-2.1
						c0.2-0.3,0.3-0.8,0.4-1.2c0.1-0.2,0.1-0.3,0.1-0.5l0.1-0.4c0.3-1.4,0.3-1.6,0.4-2.3c0.1-0.4,0.1-0.9,0.2-1.3l0,0
						c0.4,0.1,1,0,1.5,0h0.4c0.1,0,0.2,0,0.5,0h1.5c2.1,0,4.1-0.1,6.1-0.1c4.1-0.1,8.1-0.1,11.9,0l-2-0.1c1.5-1.8,7.9,0.9,13.3,0.1
						c-1.3,0.1-1.8,1-1.4,0.8c7.2,0.3,14.9-0.4,25.8-1l-1.3,0.4c4.3,0.4,11.3,0.2,15.9,0.3c1.4-0.4,4.1-0.4,2.4-1
						c14.2,2.4,27.2-1.5,39.9,0.4c-1.5,0-3.6,0.4-2.4,0.4l10.7-0.5c-0.9-0.8-1.4-0.4-3.7-1c1.3-0.4,4.4-0.9,7.1-0.9
						c-4.8,0.5,0,1.2,2.2,1.6c-0.3-0.2,0.3-0.5,0.2-0.8c5.7,1.3,0.9-1.5,8.7-0.7l-0.4,0.4c2.8-0.2,5.5-0.8,8.7-0.8
						c1.3,0.9-3.1,0.4-3.3,1.2c4.4-0.1,8.5-1.8,12.5-1c-1.9,0.2-4.5,0.3-6.4,0.5c4.3,1,4.8,0.8,8,0.9h-0.3c1.2,0,1.6,0.1,2.3,0.2
						l1.6,0.2l-0.1,0.5l0.1-0.7l-0.4-0.1c0.3-0.1,0.5-0.2,0.9-0.3c0.4,0.4,0.7,1.3,0.8,2.4c0.1,1,0.1,2.5,0.1,3.8c0,2.8,0,6,0.7,9.4
						c-1.4-7.1-0.9-1.2-1.9-1.8c-0.3,1.9-0.5,4.7-0.9,3.9c0.8,3.5-0.7,5.8,0.5,10.7c-0.3,0.2,0,3.7-0.9,3c0.2,4.5,0.5-1.1,1-0.7
						c1.1,7-1.3,16.3,0.2,26.4c0.7,8.7,1.8,10.2,2.2,18.3c-0.5,2.7-1.2-2.2-1.2-2.2c-0.4,4.4-0.4,7.7,0,11.7c-0.3-0.9-0.5,0-0.9,1.3
						c0.1,3.3,1.2,2.2,0.7,6.6c-0.3-0.8-0.9-1.8-1.3-3.3c0.3,3.8,0.9,7.8,1.2,11.7c-0.5,1.1-0.9-2.4-1.2-3.8
						c0.2,4.5,0.5,11.7,1.4,13.1l0.3-2.8c0,1.6-0.8,0.9-0.9-0.3c-0.7-3.8,0.3-5.6,0.7-5.8l0.2,2.8c1.9-3-0.3-11.5-0.2-17.3l1.3,2.4
						l-1.1-5.9c0.3-1.2,1.1-2.1,1.3,0.8c0.7-4.2-0.4-3.6,0.2-7.2c0.1-0.4,0.2-0.2,0.2,0.1l-0.4-4.1c0.3,0.8,1-0.7,0.8,1.9
						c0.8-7.2-1-11.7,0-14.5l0.1,0.7c-0.4-10.1-1-1-2.2-8.5l2.5-5l-1-1c0-1,0.1-3.1,0.5-2.7c-0.7-3.8-0.4,0.7-1.1-1.5
						c0.9-5-0.4-13.8,1.2-14.9c-0.8-1.8-0.5,4.8-1.1-0.5c1.8-1.5-0.3-6.1,0.5-10.7c0.9,1.4,0.4,5.7,1.2,1.2c-1.5-2.7,0.3-8.9,0-12.7
						c-0.3-0.1-0.5-0.7-0.7-2.1S452,91.1,452,89c-1.6,0-3.3,0-5.1,0.1c-0.8,0-1.6,0-2.4,0.1c-0.8,0-1.4,0.1-2.1,0.1
						c0.4-0.4-12.2-0.5-18.2-0.9l0.2-0.2c-1.2,1.2-7.3,1.1-11.8,1.3c0.2-0.8,1-1,3.4-1.3h-4.3c-1,0.4-2.3,0.7-5,0.8l1.1-0.9
						c-5.7,0.1-11.4,1.2-18.6,0.7c-0.4,0.9,5.8,2.3-1.9,3c-0.3-0.4-0.5-1.2,1.4-1.4c-0.7,0.1-2.3,0.4-3.7,0.2l3.1-0.8
						c-3.3-0.3-1.8,0.7-4.4,0.7c0-0.7-2-0.4-1.5-1c0.7-0.1,2.3,0.2,3.3,0c-3-0.1-6.6-0.4-7.8-1c0.2,0.3,0,0.9-2.2,1
						c-5.7,0.1-2-0.8-5.3-1.1c-1.3,0.4-4.9,0-5,1c-1.6,0-2-0.4-2.6-0.7c-3,0.4-13.7,0.2-10.4,1.2l0.8,0.1c-0.1,0-0.3,0-0.4,0l0,0
						l0,0c-9.5,1-19.9-0.4-29.5-0.1v-0.3c-5.7,0.3-12.6,0.2-16.6,0.9c-1.6,0-3.9-0.7-3.2-1c-4.4,0.2-4.8,0.5-11.1-0.2
						c4.4-0.4-1.5-0.5,4.5-0.3c-2.3-0.2-3.8-0.3-5.3-0.5h-0.5l-0.8-0.1c-0.3,0-0.5,0-0.9-0.1h-0.4c-0.1,0-0.1,0-0.2,0v0.8
						c0,0.4,0,1,0,1.4v0.3h-0.1h-0.1c-0.2,0-0.4,0-0.7-0.1c-0.4-0.1-1-0.1-1.3-0.2l0,0c-0.7,0.2-1.5,0.5-2.4,1.1c0,0.1,0,0.2,0,0.3
						c0-0.2,0-0.3-0.1-0.3c0.2-0.2,0.1-0.2-0.3-0.2c-0.2,0.2-0.4,0.8-0.7,1.5c-0.1,0.4-0.2,0.9-0.4,1.3c-0.1,0.3-0.2,0.7-0.3,1
						l-0.1,0.5c0,0.1-0.1,0.3-0.1,0.4c-0.1,0.1-0.1,0.3-0.2,0.4c-0.1,0.3-0.3,0.5-0.4,0.8c0.3-0.1,0.5-0.3,0.9-0.7
						c0.1-0.1,0.2-0.3,0.3-0.4c0.1-0.2,0.2-0.5,0.3-0.9l-0.1,0.5l-0.1,0.2v0.2c-0.1,0.2-0.1,0.4-0.2,0.7c-0.2,0.3-0.4,0.7-0.8,1
						c-0.7,0.5-1.4,0.7-2.2,0.7c0.3-0.3,0.5-0.8,0.7-1.1c-0.1,0-0.2,0-0.4-0.1c-0.1,0-0.1,0-0.2-0.1l-0.4-0.1
						c-0.5-0.1-1.1-0.2-1.6-0.4c-1.1-0.3-2.2-0.7-3.4-1c-1.2-0.4-2.4-0.8-3.6-1.2c-0.5-0.2-1.3-0.4-2-0.5c-0.7-0.2-1.4-0.3-2.1-0.4
						c-1.4-0.2-3-0.3-4.5-0.1c-1.5,0.2-3,0.7-4.3,1.2c-0.7,0.3-1.3,0.7-1.9,1c-0.5,0.3-1.1,0.7-1.6,1.1c-1.1,0.8-2.3,1.6-3.3,3.1
						c-0.5,2.3,0.3-0.1,1.9-1.5s3.1-2.3,2.2-1c-1.2,0.9-2.4,2.1-3.3,3.6c-0.4,0.8-0.8,1.6-1,2.5c-0.2,0.9-0.2,1.8-0.2,2.5
						c0.1,2.7,1,5.3,1.8,6.1c1.5,2.2,3.3,3.2,4.7,3.7c0.8,0.2,1.3,0.4,2,0.4c0.7,0.1,1.1,0.1,1.6,0.1c1.1,0,2.2-0.1,3.5-0.2
						c0.7-0.1,1.4-0.2,2.3-0.4c0.2,0,0.4-0.1,0.7-0.1c0.1,0,0.2-0.1,0.4-0.1c0.3,0,0.8-0.1,1.3-0.1c-0.7-0.1-1.1-0.4-0.8-0.8
						c0.1-0.2,0.5-0.4,1.3-0.8c0.5-0.2,1.4-0.5,2.7-0.2c1.2,0.3,2,1,2.5,1.5c0.5,0.5,0.7,1.1,0.7,1.3c0,0.7-0.7,0.5-1.6-0.1
						c-0.8-0.5-1.1-0.8-1-0.9c-0.5-0.2-1.3-0.3-1.6-0.2c-0.3,0.1-0.3,0.2,0.2,0.5l0.5-0.3c0.4,0.2,1,0.5,1.5,1c0.5,0.4,1,1,1.3,1.5
						c0.5,1.1,0.5,1.9,0.1,1.5c0.4,1,0.5,1.3,0.7,1c0.1-0.3,0.1-1.1-0.2-2.1c0.3,1.1,0.4,2,0.3,3c0,0.1,0,0.2,0,0.3l-0.1,0.4
						c0,0.3-0.1,0.5-0.1,0.9c-0.1,0.5-0.3,1.1-0.4,1.6c-0.7,2.2-1.8,4.3-3.9,6.4c0.8-0.5,1.8-1,1.1-0.2c-1.5,1.6-2.7,2.5-3.4,3.2
						c-0.8,0.5-1,1-1.2,1.2c-0.4,0.5-0.4,1.1-3.3,2.7c-1.9,0.7-1.6,0.1-1.8-0.1c-0.1-0.2-0.4,0-3.5,1.4c-3.9,1-1.1-0.7,0.2-1.5
						c-2.6,1.4-5.4,2.1-7.9,2.4s-4.7,0.3-6.4,0.4c1-0.2,2.1-0.5,3.1-0.8c-1.9,0.5-3.4,0.7-4.9,0.9c0.7,0.2,1.2,0.3,1.9,0.5
						c-1.9,0.1-3.5,0.2-3.5-0.1c-1.9,0.7,1.6,1.2-2.2,2.2c-1.3-0.1-3.2,0-4.9,0c-1.8,0-3.3-0.1-3.6-0.7c3.9,0.3,3.7,0,3.4-0.3
						c-0.3-0.3-0.9-0.7,2.4-0.8c-1.3,0.1-2.8,0.1-4.7-0.1c-0.2-0.1,0.2-0.2,0.8-0.2c-3.7-0.7-4.5-0.5-5.5-0.2
						c-0.4,0.1-0.9,0.3-1.8,0.3c-0.9,0.1-2,0-3.9-0.4c1.1-0.3-1.4-1.5-2.6-1.8c3,0.8,1.2,1.4-1.8,0.9c-4.6-2.1-5.3-1.5-7.8-2.6
						l2.7,1.4c-1.2,0.1-3.5-0.9-6.9-2.3c-0.1-0.5,3.1,1.1,2,0.4c-1-0.2-2-0.5-3-1.1s-2-1.2-3-2c-2-1.4-4.1-3.1-6.6-4.4
						c-1.9-1.8,0.4-1.1-1.2-2.5c-2.7-1.4-3.8-2.6-4.9-3.9c-1.1-1.2-2.2-2.5-4.4-4.5c0.2,0.9,0.5,1.3,0.2,1.3c-0.1,0-0.4-0.2-0.9-0.5
						c-0.4-0.3-1-0.9-1.9-1.6c0.5,0.7,1.2,1.4,1.8,2l1.9,1.8l2,1.6c0.7,0.5,1.4,1.1,2.1,1.5c-1-0.5-2-1.1-3-1.8l-1.4-1l-1.3-1
						c2.1,2.3,5.3,4.2,6.7,5.5c-3-1.5-2.5-1.5-1.8,0c-1.3-1.9-3.1-3.2-4.8-4.6c-0.4-0.3-0.9-0.8-1.3-1.1c-0.4-0.4-0.8-0.9-1.2-1.3
						c-0.8-0.9-1.5-2-2.1-3.1l1.6-1c-1.9-3.3-3.8-6-5.8-9.1c-1-1.5-2-3.2-2.7-5c-0.9-1.8-1.5-3.9-2-6.2c0.1,1.1,0.3,2.1,0.5,3.1
						c-0.4-0.4-0.9-1.6-1.2-3.1c-0.1-0.5-0.4-1.9-0.7-3.1c-0.2-1.2-0.4-2.4-0.7-3.5c-0.7-0.1-1.4,0-2.1,0c0.4-0.3-0.1-0.5-1.1-0.8
						c-0.4-0.1-1.1-0.2-1.6-0.2c-0.3,0-0.7-0.1-1-0.1c-0.3,0-0.7-0.1-0.8-0.1c0.2,0.4-7.6,0-8.4,1.2l-4.6-0.9
						c-8.3-0.3-9.4,1.9-17.4,1.6c2.4-0.7-1.2-1.2,4.2-1.6c-2.6,0-5-0.1-5.1,0.3c-1.5-0.4-7.3,0.9-9.9,0.2c-1.1,0.3-1.5,1-4.5,0.9
						c-0.3-0.1,0-0.3,0-0.3c0,0.3-4.7,0.4-2.1,1.2c-8.2-2-22.9,0.1-30-1.6c-5.8,0.2-12.8,0.4-18.1,0.4c0.3-0.2,0-0.3,1-0.2
						c-7.2-0.7-4.5,1.9-12.7,1.2c-4.3-1.1,4.4-0.5,1.8-1c-1.1-2.1-10,0.3-15.6-1l1.3-0.1c-3.9-0.7-7.6,0.4-16.9,0.7
						c0,1.4,0,2.8,0,4.4c0,0-0.2-0.5-0.3-0.2c0.2,1.5,0.4,3.4,0.7,5.5c0.2,1.6,0.3,3.4,0.4,5.3c0.2,3.7,0.4,7.6,0.5,11
						c-0.9-2.1-0.4-3.1-1.3-1.8c0.1,3,1.3-0.9,1.6,5.1c-0.4,2-0.9,6.2-1.8,6.8v-5.7c-1.2,2.8,0,7.3-0.1,10.3l-0.5-0.3
						c0.2,8.7,1.4,8.8,1.3,18.1l0.4-1c1.3,5-0.8,4.3,0.2,9.3l-1.3,1.5c0.3,3.4,1.2,11.7,1.5,17.7c-1-3.4-1.4-10.4-2-14.8
						c0,3.3,0.1,11.3,0.8,13c-0.1-1.3-0.4-3.1-0.2-4.4c1,4.1,1.5,9.4,1.5,16.1c-2.5-1.2-0.7,17.3-2.6,22c0.9,11.7-0.4,23.2-0.2,36.9
						c2-4.8,0.1,3.9,2.1,3.2c0.1,3.2,0.1,4.4,0,4.7l-1.2,9.6c-0.5,2.3-0.4-3.1-0.9-2.7c-0.1,7-0.9,3-1.4,7.6c0.8-1,1,2.4,0.8,6.4
						L23,266c1.1,9.7-1.6,8.4-0.7,18.2l-0.7-3.1c0.3,5,0,18.5,1.6,23.4c-0.2,0.9-0.8,2.1-0.9-0.1c-0.2,12,1.8,26.7,0.8,36.1
						l-0.4-0.9c0.1,2.2,0.9,3.9,0.4,6.7c-0.2-0.1-0.4-0.9-0.5,0.1c0.2,1.2,0.9,5.9,0.5,9l-0.5-2.5c-0.1,1-0.1,2-0.1,3
						c0,0.4,0,1,0,1.4c0,0.5,0,1.1,0,1.6c0,3.2,0.1,6,0.2,8.7c2.6-0.1,5.1-0.2,7.4-0.4c0.5,0,1.2-0.1,1.8-0.1L33,367
						c0.7-0.1,1.3-0.1,2.1-0.2c2.7-0.3,5.6-0.5,8.8-0.7c0,1.4,9.2,1.9,13.8,2.2l-0.1,0.2c13.7,0.2,23.2-1.2,35.8-1.8
						c7.9,1.5,26.6,0.7,39.2,1.5c-2-0.2,0.3-1.1,2.5-1.3c3,0.3,8.2-1,7.7,0.3h-1.1c2.2,1.3,8.3,1,13,1l0.8-1.8
						c12.4,2.5,32.5-0.9,39.3,1.3c3-0.4,6.7-0.4,9.6-0.9l-0.1,0.9c8.3,0.2,12.5,0.3,22.8,0.1l-2.1,0.7c5.8,0.1,7.3-2.6,12.7-2.7
						l1.6,1.4c10.1,0,20.4,1.2,30.3-0.1c-0.1,0.2-0.4,0.7-2.1,0.7c4.7,0,18.4,1,16.6-1c0.1,1.2,10.4,0.1,15.9-0.4l-0.9,0.9
						c2.3-0.5,3.4-1,4.8-1.2c0.7-0.1,1.4-0.2,2.4-0.3c0.7-0.1,1.5-0.1,2.7-0.2l0.1,0.1c0.5,0.8,0.1,1.1-0.4,0.3c0,0-0.1,0-0.2,0
						c0.1,0,0.1,0,0.2,0c0.3,0.5,0.5,0.9,0.9,1.2c0.4,0.4,0.9,0.8,1.3,1.2c0.9,0.8,1.9,1.5,3.5,4.1l-1.9-1.4
						c3.3,4.1,3.3,3.6,5.6,5.4c2.4,2.3,6.1,7.8,5.9,9c0.9,0.2,3.2,2,4.9,4.6c0,0.5-0.9-0.2-1.3-0.7c5,7.1,9.1,9.4,12.2,14.6
						c-0.1,0.3,0,0.7,0.2,1.1c-4.4-5.4-7.9-9.7-7.4-9.4c-0.7,0.5,2.7,4.9-1,2.3c3.4,3.1,9.3,8.2,12.5,12.7c0.1,0.2,0.2,0.5,0.2,0.8
						l-0.4-0.3c0.8,1,1.5,1.9,2.3,2.6c1,1.4,1.6,2.4,2.6,3.6c-0.1,1,3.7,5.3,5.5,7.4c0.5-0.8,2.7,2.2,1.2-1c0.2,0.4-0.4-0.3-1.6-1.8
						c-0.3-0.3-0.7-0.7-0.9-0.9c0,0,0.1,0.1,0.2,0.1c-1.2-1.4-2.7-3.3-4.5-5.4c1.8,1.4,3.5,3,5,5.7c1.3,0.8,2.8,1.5,3.6,2.1
						c0.2,0.7,0.7,1.4,1,2.3c0.2,0.4,0.3,0.8,0.7,1.3c0.3,0.5,0.7,1.1,1.1,1.8c1.4,2.3,3.2,4.9,4.5,7c1-1,1.8-1.6,2.2-1.8
						c1.9-2.5,3.9-5.3,6-8.1c1.4-1.9,2.8-3.8,4.2-5.8c2.6-3.8,5-7.3,6-10c1.3-2.1,2.1-1.9,2.8-2.4c-0.8,1.2-1.8,2.5-2.1,3.3
						c2.6-4.1,8.8-11.4,8.5-13c4.3-4.5-1.2,3.4,3.8-3.3l-0.4,1.1c5.1-5.1,8.5-10.3,11.8-15.4c1.6-2.6,3.3-5.1,5-7.8
						c0.9-1.3,1.9-2.6,2.8-3.9c0.3-0.3,0.5-0.7,0.9-1.1c0.3-0.4,0.7-0.9,1-1.3c0.7-0.9,1.4-1.8,2.2-2.6c-0.8-1-1.5-2.1-2.3-3.2
						c-0.2-0.3-0.4-0.5-0.7-0.9l-0.3-0.4l-0.2-0.3c-0.3-0.4-0.5-1-0.9-1.4c0.7,1.1,1,1.6,1.1,2c-12.4-17-28-32.7-39.6-49.8
						c-1.8-2.4-2.8-3.6-3.8-4.5c-0.5-0.4-1-0.9-1.5-1.2c-0.2-0.2-0.5-0.4-0.9-0.7c-0.3-0.2-0.5-0.4-1-0.9c-0.1-0.7-0.2-1.3-0.4-2.1
						c-1.6-1.5-3.1-2.8-4.3-3.9l-1.2,1.8c-0.9,1.2-1.6,2.2-2.4,3.1c-0.4,0.4-0.8,0.9-1.2,1.4c-0.4,0.4-0.8,0.8-1.1,1.1
						c-1.4,1.4-2.8,2.7-4.4,4.1c-3,2.7-6.1,5.8-9.1,10.5l1.4-0.7c-2.6,3-7.8,9.9-7.9,8.8c-0.2,0.4-0.3,1.4-1.5,2.4l-0.4-0.2l-5.6,8
						c-5.1,5.5-0.8-2.2-8,6.1c-2.5,3.3-6.4,9.9-5,8.9c1.1-1.2,3-3,3.4-2.7l-2.2,3.1c0.8,1.5,0.1,4.7,6.8-1.6l3.4-5.5l1.9-1.1
						l-3.4,4.2c2.5-1.9,3.3-3.7,4.4-5.7c0.7-0.1,1.4-0.7,2.3-1.5l3-5.7c1-0.2-0.9,3,2.1-0.1c1.4-2.6-2.8,1.3,0-2.7
						c2.5-1.9,2.4-0.9,4.2-3.9c0.7-0.1,0.3,0.7-0.4,1.8c1.6-2.7,5.3-6.6,5.7-8.3c2.7-1.9,6.8-8.3,7.7-7.2c0.3-1,2.7-5,4.6-7.3
						c-0.9,2.1,0.1,1.2,1.6-0.4c0.1-0.2,0.3-0.3,0.4-0.5l0.2-0.2l0.3-0.3c0.2-0.2,0.4-0.3,0.5-0.3c0.1,0.4,0.1,0.8,0,1.2
						c0.1-0.5,0.3-0.5,0.7-0.4c0.1,0,0.1,0.1,0.2,0.1c0.2,0.2,0.5,0.7,0.9,1c0.7,0.7,1.2,1.4,1.9,2.2c2.5,3.1,5.3,6.4,7.9,8.9
						c-0.3-0.2-1-0.7-1.3-1.2c2.4,3.2,2.7,4.4,4.2,6.5c1.3-0.4,5.5,4.2,8.1,6.2c2.1,4.5-3.1-1.3-3,0.7c0.7-0.9,6.1,5.8,5.7,4.1
						c1.8,3.4,1.8,2.7,2.1,4.8c1.6-0.5,2.4,2.5,5,4.3c2.7,4.6-0.3,2,3.8,6.2C402.5,350.6,398.7,346.9,398.7,346.9z M347.8,404.5
						L347.8,404.5c0.8,0.9,1.4,1.6,1.9,2.2C349.2,406.1,348.7,405.6,347.8,404.5z M340.4,395.4c0.9,1.1,2,2.5,3.2,3.9
						c0,0.5-0.5,0.4-1.2-0.5C342.8,399.1,341.2,396.9,340.4,395.4z M351.1,418.6c-1.3-1.3-1.5-2-1.5-2.3c0.5,0.7,1.2,1.4,2.2,2.4
						c0.1,0,0.1,0.1,0.2,0.1C351.6,418.9,351.4,418.8,351.1,418.6z"/>
					<path class="st4" d="M354.2,420.5c0.2,0.2,0.3,0.3,0.5,0.5c-0.2-0.3-0.3-0.7-0.5-1c-0.2-0.1-0.4-0.2-0.7-0.3
						C353.7,419.9,353.9,420.2,354.2,420.5z"/>
					<path class="st4" d="M352,88.6h-0.2c0.2,0,0.4,0.1,0.5,0.1C352.1,88.7,352.1,88.7,352,88.6z"/>
					<polygon class="st4" points="192.6,357.9 192.6,358.1 193.7,357.9 					"/>
					<path class="st4" d="M416.7,91.3c0.1,0.1,0.3,0.1,0.9,0.2C417.5,91.5,417.1,91.3,416.7,91.3z"/>
					<path class="st4" d="M444.6,91.2c0.8,0,1.1,0.1,1.4,0.1l1.1,0.1c-0.4-0.1-0.9-0.1-1.2-0.2C445.6,91.2,445.2,91.2,444.6,91.2z"
						/>
					<path class="st4" d="M448.2,104.5c0.1,0.2,0.3,0.3,0.4,0.4l0,0L448.2,104.5z"/>
					<path class="st4" d="M207.5,142.3c-0.3-0.1-0.5-0.2-0.8-0.3C204.8,141.3,206.1,141.7,207.5,142.3z"/>
					<path class="st4" d="M262.5,110.6c1-0.1,1.9-0.3,2.7-0.7C263.8,110.3,262.6,110.1,262.5,110.6z"/>
					<path class="st4" d="M121.1,93.8L121.1,93.8c-0.2,0-0.4,0-0.7,0H121.1z"/>
					<path class="st4" d="M270.5,109.3c-0.5-0.1-1.1-0.1-1.8,0c-0.2,0-0.7,0.1-0.8,0.1s-0.3,0-0.4,0.1c-0.3,0-0.7,0.1-1.1,0.2
						c-0.2,0-0.4,0.1-0.7,0.1l-0.3,0.1l-0.2,0.1c0.2,0,0.4-0.1,0.7-0.1c0.2,0,0.4-0.1,0.7-0.1c0.4,0,0.9-0.1,1.2-0.1
						c0.2,0,0.3,0,0.5-0.1c0.2,0,0.5-0.1,0.8-0.1C269.5,109.3,270,109.3,270.5,109.3z"/>
					<path class="st4" d="M447.8,197.7v1c0.1,0,0.1,0,0.1,0.1L447.8,197.7z"/>
					<path class="st4" d="M447.9,198.9l0.1,1.2C448,199.4,448,199,447.9,198.9z"/>
					<path class="st4" d="M448.2,202.4L448,200C448,200.9,448,201.9,448.2,202.4z"/>
					<path class="st4" d="M448.2,169.2l-0.3-0.3C448,169.1,448.1,169.2,448.2,169.2z"/>
					<path class="st4" d="M448.1,160.6c-0.1,2.1-0.8,5.1-0.5,8.1l0.2,0.2C447.4,167.6,448.7,162.5,448.1,160.6z"/>
					<path class="st4" d="M452.3,124.5l-0.2,7.2c0.3-1.3,0.9-3,0.9,0.3C454,123,452.2,133.9,452.3,124.5z"/>
					<path class="st4" d="M452.8,102c0.2,3.9,0.5,0,0.8,0.1C453.2,99.7,453.1,99.1,452.8,102z"/>
					<path class="st4" d="M301.3,87.8l0.4-0.9C298.7,87.1,301.7,87.3,301.3,87.8z"/>
					<path class="st4" d="M276.7,101.3c0.5,0.2,1.1,0.3,1.6,0.4c0.2,0.1,0.7,0.1,1,0.2c0.3,0,0.8,0.1,1.1,0c0.7-0.3,1.2-0.8,1.8-1.3
						c-0.9,0.4-1.9,0.7-2.8,0.7h-0.8h-0.7C277.5,101.4,277.1,101.4,276.7,101.3z"/>
					<path class="st4" d="M258.4,91.5c0.5-0.2,1.2-0.4,1.8-0.5c-2.3,0.4-4.5,1.6-6,3C255.3,93,256.8,92.1,258.4,91.5z"/>
					<path class="st4" d="M89.5,85.6l0.9,1C92.4,86.5,92.8,85.3,89.5,85.6z"/>
					<path class="st4" d="M24.2,143.9c-0.5,1.3-0.9,4.6-0.3,6.7C23.9,147.9,24.3,145.2,24.2,143.9z"/>
					<polygon class="st4" points="161.4,366.2 159,366.6 163.5,366.4 					"/>
				</g>
			</g>
		</g>
	</g>
</g>
</svg>
