<?xml version="1.0" encoding="utf-8"?>
<!-- Generator: Adobe Illustrator 25.2.1, SVG Export Plug-In . SVG Version: 6.00 Build 0)  -->
<svg version="1.1" id="Layer_1" xmlns="http://www.w3.org/2000/svg" xmlns:xlink="http://www.w3.org/1999/xlink" x="0px" y="0px"
	 viewBox="0 0 500 500" style="enable-background:new 0 0 500 500;" xml:space="preserve">
<style type="text/css">
	.st0{display:none;}
	.st1{display:inline;}
	.st2{fill:#FFFFFF;}
	.st3{opacity:0.75;}
</style>
<g id="BG" class="st0">
	<g class="st1">
		<rect x="-13.5" y="-21.5" class="st2" width="535" height="535"/>
		<path d="M521-21v534H-13V-21H521 M522-22H-14v536h536V-22L522-22z"/>
	</g>
</g>
<g id="layout" class="st0">
</g>
<g id="blur" class="st0">
</g>
<g id="circles" class="st0">
	<g class="st1">
		<g class="st3">
			<path class="st2" d="M56.2-2.1c0,2.4-1.9,4.3-4.3,4.3s-4.3-1.9-4.3-4.3s1.9-4.3,4.3-4.3S56.2-4.4,56.2-2.1z"/>
		</g>
		<g class="st3">
			<path class="st2" d="M43.5-3.1c0,2.4-1.9,4.3-4.3,4.3s-4.3-1.9-4.3-4.3s1.9-4.3,4.3-4.3S43.5-5.5,43.5-3.1z"/>
		</g>
		<g class="st3">
			<path class="st2" d="M13.4,7.8c0,2.4-1.9,4.3-4.3,4.3s-4.3-1.9-4.3-4.3s1.9-4.3,4.3-4.3S13.4,5.4,13.4,7.8z"/>
		</g>
		<g class="st3">
			<path class="st2" d="M55.8,4.6c0,2.4-1.9,4.3-4.3,4.3S47.2,7,47.2,4.6s1.9-4.3,4.3-4.3S55.8,2.2,55.8,4.6z"/>
		</g>
		<g class="st3">
			<path class="st2" d="M39.6,0.4c0,2.4-1.9,4.3-4.3,4.3S31,2.8,31,0.4s1.9-4.3,4.3-4.3S39.6-2,39.6,0.4z"/>
		</g>
		<g class="st3">
			<path class="st2" d="M28.6,11.8c0,2.4-1.9,4.3-4.3,4.3S20,14.2,20,11.8s1.9-4.3,4.3-4.3S28.6,9.4,28.6,11.8z"/>
		</g>
		<g class="st3">
			<path class="st2" d="M55.4,11.6c0,2.4-1.9,4.3-4.3,4.3s-4.3-1.9-4.3-4.3s1.9-4.3,4.3-4.3S55.4,9.2,55.4,11.6z"/>
		</g>
		<g class="st3">
			<path class="st2" d="M47.8,37.2c0,2.4-1.9,4.3-4.3,4.3s-4.3-1.9-4.3-4.3s1.9-4.3,4.3-4.3S47.8,34.9,47.8,37.2z"/>
		</g>
		<g class="st3">
			<path class="st2" d="M40,23.5c0,2.4-1.9,4.3-4.3,4.3s-4.3-1.9-4.3-4.3s1.9-4.3,4.3-4.3C38,19.3,40,21.2,40,23.5z"/>
		</g>
		<g class="st3">
			<path class="st2" d="M28.6,38.8c0,2.4-1.9,4.3-4.3,4.3S20,41.2,20,38.8s1.9-4.3,4.3-4.3C26.7,34.6,28.6,36.5,28.6,38.8z"/>
		</g>
		<g class="st3">
			<path class="st2" d="M16.8,23c0,2.4-1.9,4.3-4.3,4.3S8.2,25.4,8.2,23s1.9-4.3,4.3-4.3C14.9,18.8,16.8,20.7,16.8,23z"/>
		</g>
		<g class="st3">
			<path class="st2" d="M8.4,42.5c0,2.4-1.9,4.3-4.3,4.3s-4.3-1.9-4.3-4.3s1.9-4.3,4.3-4.3S8.4,40.2,8.4,42.5z"/>
		</g>
		<g class="st3">
			<path class="st2" d="M1.8,46.4c0,2.4-1.9,4.3-4.3,4.3s-4.3-1.9-4.3-4.3s1.9-4.3,4.3-4.3C-0.1,42.2,1.8,44.1,1.8,46.4z"/>
		</g>
		<g class="st3">
			<path class="st2" d="M8.7,15.7C8.7,18,6.8,20,4.4,20s-4.3-2-4.3-4.3s1.9-4.3,4.3-4.3S8.7,13.3,8.7,15.7z"/>
		</g>
		<g class="st3">
			<path class="st2" d="M19.9,25c0,2.4-1.9,4.3-4.3,4.3s-4.3-1.9-4.3-4.3s1.9-4.3,4.3-4.3S19.9,22.7,19.9,25z"/>
		</g>
		<g class="st3">
			<path class="st2" d="M30.6,35.9c0,2.4-1.9,4.3-4.3,4.3S22,38.3,22,35.9s1.9-4.3,4.3-4.3S30.6,33.5,30.6,35.9z"/>
		</g>
		<g class="st3">
			<path class="st2" d="M41.2,52.1c0,2.4-1.9,4.3-4.3,4.3s-4.3-1.9-4.3-4.3s1.9-4.3,4.3-4.3S41.2,49.7,41.2,52.1z"/>
		</g>
		<g class="st3">
			<path class="st2" d="M48.9,39.4c0,2.4-1.9,4.3-4.3,4.3s-4.3-1.9-4.3-4.3s1.9-4.3,4.3-4.3S48.9,37.1,48.9,39.4z"/>
		</g>
		<g class="st3">
			<path class="st2" d="M54.3,55.8c0,2.4-1.9,4.3-4.3,4.3s-4.3-1.9-4.3-4.3s1.9-4.3,4.3-4.3S54.3,53.5,54.3,55.8z"/>
		</g>
		<g class="st3">
			<path class="st2" d="M44.2,38c0,2.4-1.9,4.3-4.3,4.3s-4.3-1.9-4.3-4.3s1.9-4.3,4.3-4.3S44.2,35.6,44.2,38z"/>
		</g>
		<g class="st3">
			<path class="st2" d="M30.2,51.5c0,2.4-1.9,4.3-4.3,4.3s-4.3-1.9-4.3-4.3s1.9-4.3,4.3-4.3S30.2,49.1,30.2,51.5z"/>
		</g>
		<g class="st3">
			<path class="st2" d="M23.3,45c0,2.4-1.9,4.3-4.3,4.3s-4.3-1.9-4.3-4.3s1.9-4.3,4.3-4.3S23.3,42.6,23.3,45z"/>
		</g>
		<g class="st3">
			<path class="st2" d="M11.8,46.1c0,2.4-1.9,4.3-4.3,4.3s-4.3-1.9-4.3-4.3s1.9-4.3,4.3-4.3S11.8,43.7,11.8,46.1z"/>
		</g>
		<g class="st3">
			<path class="st2" d="M3.3,19.2c0,2.4-1.9,4.3-4.3,4.3s-4.3-1.9-4.3-4.3S-3.4,15-1,15S3.3,16.9,3.3,19.2z"/>
		</g>
		<g class="st3">
			<path class="st2" d="M34.9,1.8c0,2.4-1.9,4.3-4.3,4.3s-4.3-1.9-4.3-4.3s1.9-4.3,4.3-4.3S34.9-0.6,34.9,1.8z"/>
		</g>
		<g class="st3">
			<path class="st2" d="M45.8,3.4c0,2.4-1.9,4.3-4.3,4.3s-4.3-1.9-4.3-4.3s1.9-4.3,4.3-4.3C43.9-0.9,45.8,1,45.8,3.4z"/>
		</g>
		<g class="st3">
			<path class="st2" d="M24.6,1.5c0,2.4-1.9,4.3-4.3,4.3S16,3.9,16,1.5s1.9-4.3,4.3-4.3S24.6-0.9,24.6,1.5z"/>
		</g>
		<g class="st3">
			<path class="st2" d="M56-3.1c0,2.4-1.9,4.3-4.3,4.3s-4.3-1.9-4.3-4.3s1.9-4.3,4.3-4.3S56-5.5,56-3.1z"/>
		</g>
		<g class="st3">
			<path class="st2" d="M46.3,24.8c0,2.4-1.9,4.3-4.3,4.3s-4.3-1.9-4.3-4.3s1.9-4.3,4.3-4.3S46.3,22.4,46.3,24.8z"/>
		</g>
		<g class="st3">
			<path class="st2" d="M34.9,4.7C34.9,7.1,33,9,30.6,9s-4.3-1.9-4.3-4.3s1.9-4.3,4.3-4.3C33,0.4,34.9,2.3,34.9,4.7z"/>
		</g>
		<g class="st3">
			<path class="st2" d="M23.1,12.6c0,2.4-1.9,4.3-4.3,4.3s-4.3-1.9-4.3-4.3s1.9-4.3,4.3-4.3C21.2,8.3,23.1,10.2,23.1,12.6z"/>
		</g>
		<g class="st3">
			<path class="st2" d="M11.3,13.8c0,2.4-1.9,4.3-4.3,4.3s-4.3-1.9-4.3-4.3s2-4.3,4.3-4.3C9.4,9.6,11.3,11.5,11.3,13.8z"/>
		</g>
		<g class="st3">
			<path class="st2" d="M1.8,13.1c0,2.4-1.9,4.3-4.3,4.3s-4.3-1.9-4.3-4.3s1.9-4.3,4.3-4.3C-0.2,8.9,1.8,10.8,1.8,13.1z"/>
		</g>
		<g class="st3">
			<path class="st2" d="M1.7,0.8c0,2.4-1.9,4.3-4.3,4.3s-4.3-1.9-4.3-4.3S-5-3.5-2.6-3.5C-0.2-3.4,1.7-1.5,1.7,0.8z"/>
		</g>
		<g class="st3">
			<path class="st2" d="M11.1,14.1c0,2.4-1.9,4.3-4.3,4.3s-4.3-1.9-4.3-4.3s1.9-4.3,4.3-4.3C9.2,9.8,11.1,11.7,11.1,14.1z"/>
		</g>
		<g class="st3">
			<path class="st2" d="M23,0.5c0,2.4-1.9,4.3-4.3,4.3s-4.3-1.9-4.3-4.3s1.9-4.3,4.3-4.3C21.1-3.8,23-1.9,23,0.5z"/>
		</g>
		<g class="st3">
			<path class="st2" d="M30.5,6c0,2.4-1.9,4.3-4.3,4.3s-4.3-2-4.3-4.3s1.9-4.3,4.3-4.3S30.5,3.6,30.5,6z"/>
		</g>
		<g class="st3">
			<path class="st2" d="M39.9,22.6c0,2.4-1.9,4.3-4.3,4.3s-4.3-1.9-4.3-4.3s1.9-4.3,4.3-4.3C38,18.4,39.9,20.2,39.9,22.6z"/>
		</g>
		<g class="st3">
			<path class="st2" d="M46.8-4.2c0,2.4-1.9,4.3-4.3,4.3s-4.3-1.9-4.3-4.3s1.9-4.3,4.3-4.3C44.9-8.4,46.8-6.5,46.8-4.2z"/>
		</g>
		<g class="st3">
			<path class="st2" d="M56.6-4.2c0,2.4-1.9,4.3-4.3,4.3S48-1.8,48-4.2s1.9-4.3,4.3-4.3S56.6-6.5,56.6-4.2z"/>
		</g>
		<g class="st3">
			<path class="st2" d="M56.5,35.1c0,2.4-1.9,4.3-4.3,4.3s-4.3-1.9-4.3-4.3s1.9-4.3,4.3-4.3S56.5,32.7,56.5,35.1z"/>
		</g>
		<g class="st3">
			<path class="st2" d="M44.2,29.6c0,2.4-1.9,4.3-4.3,4.3s-4.3-1.9-4.3-4.3s1.9-4.3,4.3-4.3C42.2,25.3,44.2,27.2,44.2,29.6z"/>
		</g>
		<g class="st3">
			<path class="st2" d="M34.9,45.8c0,2.4-1.9,4.3-4.3,4.3s-4.3-1.9-4.3-4.3s1.9-4.3,4.3-4.3C33,41.6,34.9,43.5,34.9,45.8z"/>
		</g>
		<g class="st3">
			<path class="st2" d="M29,53.1c0,2.4-1.9,4.3-4.3,4.3s-4.3-1.9-4.3-4.3s1.9-4.3,4.3-4.3S29,50.8,29,53.1z"/>
		</g>
		<g class="st3">
			<path class="st2" d="M19.9,37.7c0,2.4-1.9,4.3-4.3,4.3s-4.3-1.9-4.3-4.3s1.9-4.3,4.3-4.3S19.9,35.3,19.9,37.7z"/>
		</g>
		<g class="st3">
			<path class="st2" d="M12.9,49.8c0,2.4-1.9,4.3-4.3,4.3s-4.3-1.9-4.3-4.3s1.9-4.3,4.3-4.3S12.9,47.4,12.9,49.8z"/>
		</g>
		<g class="st3">
			<path class="st2" d="M1.8,35.5c0,2.4-1.9,4.3-4.3,4.3s-4.3-1.9-4.3-4.3s1.9-4.3,4.3-4.3S1.8,33.1,1.8,35.5z"/>
		</g>
		<g class="st3">
			<path class="st2" d="M4.7,57.5c0,2.4-1.9,4.3-4.3,4.3s-4.3-1.9-4.3-4.3s1.9-4.3,4.3-4.3S4.7,55.1,4.7,57.5z"/>
		</g>
		<g class="st3">
			<path class="st2" d="M11.5,58c0,2.4-1.9,4.3-4.3,4.3S3,60.3,3,58s1.9-4.3,4.3-4.3S11.5,55.6,11.5,58z"/>
		</g>
		<g class="st3">
			<path class="st2" d="M19.3,48.7c0,2.4-1.9,4.3-4.3,4.3s-4.3-1.9-4.3-4.3s1.9-4.3,4.3-4.3S19.3,46.3,19.3,48.7z"/>
		</g>
		<g>
			<path class="st2" d="M30.2,75.4c0,2.4-1.9,4.3-4.3,4.3s-4.3-1.9-4.3-4.3s1.9-4.3,4.3-4.3S30.2,73.1,30.2,75.4z"/>
		</g>
		<g>
			<path class="st2" d="M40.8,80.7c0,2.4-1.9,4.3-4.3,4.3s-4.3-1.9-4.3-4.3s1.9-4.3,4.3-4.3S40.8,78.4,40.8,80.7z"/>
		</g>
		<g class="st3">
			<path class="st2" d="M50.2,67.3c0,2.4-1.9,4.3-4.3,4.3s-4.3-1.9-4.3-4.3s1.9-4.3,4.3-4.3C48.3,63,50.2,64.9,50.2,67.3z"/>
		</g>
		<g>
			<path class="st2" d="M56.1,80.6c0,2.4-1.9,4.3-4.3,4.3s-4.3-1.9-4.3-4.3s1.9-4.3,4.3-4.3S56.1,78.2,56.1,80.6z"/>
		</g>
		<g class="st3">
			<path class="st2" d="M44.8,67.3c0,2.4-1.9,4.3-4.3,4.3s-4.3-1.9-4.3-4.3s1.9-4.3,4.3-4.3C42.9,63.1,44.8,65,44.8,67.3z"/>
		</g>
		<g>
			<path class="st2" d="M37.9,77.3c0,2.4-1.9,4.3-4.3,4.3s-4.3-1.9-4.3-4.3s1.9-4.3,4.3-4.3S37.9,74.9,37.9,77.3z"/>
		</g>
		<g>
			<path class="st2" d="M29.2,77.9c0,2.4-1.9,4.3-4.3,4.3s-4.3-1.9-4.3-4.3s1.9-4.3,4.3-4.3S29.2,75.5,29.2,77.9z"/>
		</g>
		<g>
			<path class="st2" d="M19.3,85.1c0,2.4-1.9,4.3-4.3,4.3s-4.3-1.9-4.3-4.3s1.9-4.3,4.3-4.3S19.3,82.7,19.3,85.1z"/>
		</g>
		<g class="st3">
			<path class="st2" d="M7,51.2c0,2.4-1.9,4.3-4.3,4.3s-4.3-1.9-4.3-4.3s2-4.2,4.3-4.2S7,48.9,7,51.2z"/>
		</g>
		<g class="st3">
			<path class="st2" d="M3.7,60.1c0,2.4-1.9,4.3-4.3,4.3s-4.3-1.9-4.3-4.3s1.9-4.3,4.3-4.3S3.7,57.7,3.7,60.1z"/>
		</g>
		<g class="st3">
			<path class="st2" d="M13.7,54.5c0,2.4-1.9,4.3-4.3,4.3s-4.3-1.9-4.3-4.3s1.9-4.3,4.3-4.3S13.7,52.1,13.7,54.5z"/>
		</g>
		<g>
			<path class="st2" d="M22,78.1c0,2.4-1.9,4.3-4.3,4.3s-4.3-1.9-4.3-4.3s1.9-4.3,4.3-4.3C20.1,73.9,22,75.8,22,78.1z"/>
		</g>
		<g class="st3">
			<path class="st2" d="M30.3,61.4c0,2.4-1.9,4.3-4.3,4.3s-4.3-1.9-4.3-4.3s1.9-4.3,4.3-4.3S30.3,59,30.3,61.4z"/>
		</g>
		<g class="st3">
			<path class="st2" d="M42.8,62.7c0,2.4-1.9,4.3-4.3,4.3s-4.3-1.9-4.3-4.3c0-2.4,1.9-4.3,4.3-4.3S42.8,60.4,42.8,62.7z"/>
		</g>
		<g class="st3">
			<path class="st2" d="M54.3,66.8c0,2.4-1.9,4.3-4.3,4.3s-4.3-1.9-4.3-4.3s1.9-4.3,4.3-4.3C52.4,62.6,54.3,64.5,54.3,66.8z"/>
		</g>
		<g>
			<path class="st2" d="M49.2,96.5c0,2.4-1.9,4.3-4.3,4.3s-4.3-1.9-4.3-4.3s1.9-4.3,4.3-4.3C47.2,92.2,49.2,94.1,49.2,96.5z"/>
		</g>
		<g>
			<path class="st2" d="M38.5,100.7c0,2.4-1.9,4.3-4.3,4.3s-4.3-1.9-4.3-4.3s1.9-4.3,4.3-4.3C36.6,96.5,38.5,98.4,38.5,100.7z"/>
		</g>
		<g>
			<path class="st2" d="M27,117.8c0,2.4-1.9,4.3-4.3,4.3s-4.3-1.9-4.3-4.3s1.9-4.3,4.3-4.3C25.1,113.6,27,115.5,27,117.8z"/>
		</g>
		<g>
			<path class="st2" d="M16,86.7c0,2.4-1.9,4.3-4.3,4.3s-4.2-2-4.2-4.3s1.9-4.3,4.3-4.3C14.1,82.4,16,84.3,16,86.7z"/>
		</g>
		<g>
			<path class="st2" d="M10.4,84.8c0,2.4-1.9,4.3-4.3,4.3s-4.3-1.9-4.3-4.3s1.9-4.3,4.3-4.3C8.5,80.6,10.4,82.5,10.4,84.8z"/>
		</g>
		<g>
			<path class="st2" d="M17,86.7c0,2.4-1.9,4.3-4.3,4.3s-4.3-1.9-4.3-4.3s1.9-4.3,4.3-4.3C15.1,82.5,17,84.4,17,86.7z"/>
		</g>
		<g>
			<path class="st2" d="M28,90.3c0,2.4-1.9,4.3-4.3,4.3s-4.3-1.9-4.3-4.3s1.9-4.3,4.3-4.3C26.1,86.1,28,88,28,90.3z"/>
		</g>
		<g>
			<path class="st2" d="M37.2,86.9c0,2.4-1.9,4.3-4.3,4.3s-4.3-1.9-4.3-4.3s1.9-4.3,4.3-4.3S37.2,84.6,37.2,86.9z"/>
		</g>
		<g>
			<path class="st2" d="M47.8,113.7c0,2.4-1.9,4.3-4.3,4.3s-4.3-1.9-4.3-4.3s1.9-4.3,4.3-4.3C45.9,109.4,47.8,111.3,47.8,113.7z"/>
		</g>
		<g>
			<path class="st2" d="M48.4,97.6c0,2.4-1.9,4.3-4.3,4.3s-4.3-1.9-4.3-4.3s1.9-4.3,4.3-4.3C46.5,93.3,48.4,95.3,48.4,97.6z"/>
		</g>
		<g>
			<path class="st2" d="M38,100.5c0,2.4-1.9,4.3-4.3,4.3s-4.3-1.9-4.3-4.3s1.9-4.3,4.3-4.3S38,98.2,38,100.5z"/>
		</g>
		<g>
			<path class="st2" d="M25.5,119.7c0,2.4-1.9,4.3-4.3,4.3s-4.3-1.9-4.3-4.3s1.9-4.3,4.3-4.3C23.6,115.5,25.5,117.4,25.5,119.7z"/>
		</g>
		<g>
			<path class="st2" d="M13.5,122.4c0,2.4-1.9,4.3-4.3,4.3s-4.2-2-4.2-4.3s1.9-4.3,4.3-4.3C11.6,118.1,13.5,120,13.5,122.4z"/>
		</g>
		<g>
			<path class="st2" d="M6.2,124.8c0,2.4-1.9,4.3-4.3,4.3s-4.3-1.9-4.3-4.3s1.9-4.3,4.3-4.3C4.3,120.6,6.2,122.5,6.2,124.8z"/>
		</g>
		<g>
			<path class="st2" d="M2.1,117.1c0,2.4-1.9,4.3-4.3,4.3s-4.3-1.9-4.3-4.3s1.9-4.3,4.3-4.3C0.2,112.8,2.1,114.7,2.1,117.1z"/>
		</g>
		<g>
			<path class="st2" d="M8.9,113.1c0,2.4-1.9,4.3-4.3,4.3s-4.3-1.9-4.3-4.3s1.9-4.3,4.3-4.3C7,108.8,8.9,110.7,8.9,113.1z"/>
		</g>
		<g>
			<path class="st2" d="M19.5,111.1c0,2.4-1.9,4.3-4.3,4.3s-4.3-1.9-4.3-4.3s1.9-4.3,4.3-4.3C17.6,106.8,19.5,108.7,19.5,111.1z"/>
		</g>
		<g>
			<path class="st2" d="M31.2,123.2c0,2.4-1.9,4.3-4.3,4.3s-4.3-1.9-4.3-4.3s1.9-4.3,4.3-4.3C29.3,118.9,31.2,120.9,31.2,123.2z"/>
		</g>
		<g>
			<path class="st2" d="M41.8,104.8c0,2.4-1.9,4.3-4.3,4.3s-4.3-1.9-4.3-4.3s1.9-4.3,4.3-4.3C39.9,100.5,41.8,102.4,41.8,104.8z"/>
		</g>
		<g>
			<path class="st2" d="M49.4,118.9c0,2.4-1.9,4.3-4.3,4.3s-4.3-1.9-4.3-4.3s1.9-4.3,4.3-4.3C47.5,114.7,49.4,116.6,49.4,118.9z"/>
		</g>
		<g>
			<path class="st2" d="M23.9,174.2c0,2.4-1.9,4.3-4.3,4.3s-4.3-1.9-4.3-4.3s1.9-4.3,4.3-4.3S23.9,171.9,23.9,174.2z"/>
		</g>
		<g>
			<path class="st2" d="M14.6,167.5c0,2.4-1.9,4.3-4.3,4.3S6,169.9,6,167.5s1.9-4.3,4.3-4.3C12.7,163.3,14.6,165.2,14.6,167.5z"/>
		</g>
		<g>
			<path class="st2" d="M25.1,173.1c0,2.4-1.9,4.3-4.3,4.3s-4.3-1.9-4.3-4.3s1.9-4.3,4.3-4.3C23.2,168.9,25.1,170.8,25.1,173.1z"/>
		</g>
		<g>
			<path class="st2" d="M37,192.1c0,2.4-1.9,4.3-4.3,4.3s-4.3-1.9-4.3-4.3s1.9-4.3,4.3-4.3S37,189.7,37,192.1z"/>
		</g>
		<g>
			<path class="st2" d="M43.8,184.1c0,2.4-1.9,4.3-4.3,4.3s-4.3-1.9-4.3-4.3s1.9-4.3,4.3-4.3S43.8,181.7,43.8,184.1z"/>
		</g>
		<g>
			<path class="st2" d="M55.5,165.3c0,2.4-1.9,4.3-4.3,4.3s-4.3-1.9-4.3-4.3s1.9-4.3,4.3-4.3C53.5,161.1,55.5,163,55.5,165.3z"/>
		</g>
		<g>
			<path class="st2" d="M52.1,187.7c0,2.4-1.9,4.3-4.3,4.3s-4.3-1.9-4.3-4.3s1.9-4.3,4.3-4.3C50.2,183.5,52.1,185.4,52.1,187.7z"/>
		</g>
		<g>
			<path class="st2" d="M44.8,190c0,2.4-1.9,4.3-4.3,4.3s-4.3-1.9-4.3-4.3s1.9-4.3,4.3-4.3C42.9,185.8,44.8,187.7,44.8,190z"/>
		</g>
		<g>
			<path class="st2" d="M38.3,187.1c0,2.4-1.9,4.3-4.3,4.3s-4.3-1.9-4.3-4.3s1.9-4.3,4.3-4.3S38.3,184.8,38.3,187.1z"/>
		</g>
		<g>
			<path class="st2" d="M26.4,186.8c0,2.4-1.9,4.3-4.3,4.3s-4.3-1.9-4.3-4.3s1.9-4.3,4.3-4.3S26.4,184.4,26.4,186.8z"/>
		</g>
		<g>
			<path class="st2" d="M4.6,176.4c0,2.4-1.9,4.3-4.3,4.3s-4.3-1.9-4.3-4.3s1.9-4.3,4.3-4.3S4.6,174,4.6,176.4z"/>
		</g>
		<g>
			<path class="st2" d="M17.5,177.4c0,2.4-1.9,4.3-4.3,4.3s-4.3-1.9-4.3-4.3s1.9-4.3,4.3-4.3C15.6,173.2,17.5,175.1,17.5,177.4z"/>
		</g>
		<g>
			<path class="st2" d="M26.3,175.1c0,2.4-1.9,4.3-4.3,4.3s-4.3-1.9-4.3-4.3s1.9-4.3,4.3-4.3S26.3,172.7,26.3,175.1z"/>
		</g>
		<g>
			<path class="st2" d="M37.1,189.7c0,2.4-1.9,4.3-4.3,4.3s-4.3-1.9-4.3-4.3s1.9-4.3,4.3-4.3S37.1,187.3,37.1,189.7z"/>
		</g>
		<g>
			<path class="st2" d="M46.9,186.8c0,2.4-1.9,4.3-4.3,4.3s-4.3-1.9-4.3-4.3s1.9-4.3,4.3-4.3S46.9,184.5,46.9,186.8z"/>
		</g>
		<g>
			<path class="st2" d="M4.7,113.8c0,2.4-1.9,4.3-4.3,4.3s-4.3-1.9-4.3-4.3s1.9-4.3,4.3-4.3S4.7,111.4,4.7,113.8z"/>
		</g>
		<g>
			<path class="st2" d="M9.9,95.1c0,2.4-1.9,4.3-4.3,4.3s-4.3-1.9-4.3-4.3s1.9-4.3,4.3-4.3C7.9,90.8,9.9,92.7,9.9,95.1z"/>
		</g>
		<g>
			<path class="st2" d="M20.9,107.4c0,2.4-1.9,4.3-4.3,4.3s-4.3-1.9-4.3-4.3s1.9-4.3,4.3-4.3S20.9,105,20.9,107.4z"/>
		</g>
		<g>
			<path class="st2" d="M27.9,77.3c0,2.4-1.9,4.3-4.3,4.3s-4.3-1.9-4.3-4.3s1.9-4.3,4.3-4.3S27.9,75,27.9,77.3z"/>
		</g>
		<g>
			<path class="st2" d="M37.1,95.6c0,2.4-1.9,4.3-4.3,4.3s-4.3-1.9-4.3-4.3s1.9-4.3,4.3-4.3S37.1,93.2,37.1,95.6z"/>
		</g>
		<g>
			<path class="st2" d="M46,75.3c0,2.4-1.9,4.3-4.3,4.3s-4.3-1.9-4.3-4.3s1.9-4.3,4.3-4.3S46,72.9,46,75.3z"/>
		</g>
		<g>
			<path class="st2" d="M46.2,94.3c0,2.4-1.9,4.3-4.3,4.3s-4.3-1.9-4.3-4.3s2-4.3,4.4-4.3S46.2,91.9,46.2,94.3z"/>
		</g>
		<g>
			<path class="st2" d="M34.7,110.2c0,2.4-1.9,4.3-4.3,4.3s-4.3-1.9-4.3-4.3s1.9-4.3,4.3-4.3C32.8,105.9,34.7,107.8,34.7,110.2z"/>
		</g>
		<g>
			<path class="st2" d="M23.5,110.2c0,2.4-1.9,4.3-4.3,4.3s-4.3-1.9-4.3-4.3s1.9-4.3,4.3-4.3C21.6,105.9,23.5,107.9,23.5,110.2z"/>
		</g>
		<g>
			<path class="st2" d="M13.1,87.3c0,2.4-1.9,4.3-4.3,4.3s-4.3-1.9-4.3-4.3S6.4,83,8.8,83C11.2,83.1,13.1,85,13.1,87.3z"/>
		</g>
		<g>
			<path class="st2" d="M6.9,117.4c0,2.4-1.9,4.3-4.3,4.3s-4.3-1.9-4.3-4.3s1.9-4.3,4.3-4.3C5,113.2,6.9,115.1,6.9,117.4z"/>
		</g>
		<g>
			<path class="st2" d="M30.2,185.5c0,2.4-1.9,4.3-4.3,4.3s-4.3-1.9-4.3-4.3s1.9-4.3,4.3-4.3S30.2,183.1,30.2,185.5z"/>
		</g>
		<g>
			<path class="st2" d="M46.6,189c0,2.4-1.9,4.3-4.3,4.3S38,191.4,38,189s1.9-4.3,4.3-4.3S46.6,186.6,46.6,189z"/>
		</g>
		<g>
			<path class="st2" d="M4.8,179.8c0,2.4-1.9,4.3-4.3,4.3s-4.3-1.9-4.3-4.3s1.9-4.3,4.3-4.3S4.8,177.4,4.8,179.8z"/>
		</g>
		<g>
			<path class="st2" d="M37.5,182.7c0,2.4-1.9,4.3-4.3,4.3s-4.3-1.9-4.3-4.3s1.9-4.3,4.3-4.3S37.5,180.4,37.5,182.7z"/>
		</g>
		<g>
			<path class="st2" d="M56.5,170c0,2.4-1.9,4.3-4.3,4.3S48,172.4,48,170s1.9-4.3,4.3-4.3S56.5,167.7,56.5,170z"/>
		</g>
		<g>
			<path class="st2" d="M27,85.8c0,2.4-1.9,4.3-4.3,4.3s-4.3-1.9-4.3-4.3s1.9-4.3,4.3-4.3C25.1,81.6,27,83.5,27,85.8z"/>
		</g>
		<g>
			<path class="st2" d="M25.5,87.7c0,2.4-1.9,4.3-4.3,4.3s-4.3-1.9-4.3-4.3s1.9-4.3,4.3-4.3C23.6,83.5,25.5,85.4,25.5,87.7z"/>
		</g>
		<g>
			<path class="st2" d="M13.5,90.4c0,2.4-1.9,4.3-4.3,4.3S5,92.7,5,90.4s1.9-4.3,4.3-4.3C11.6,86.1,13.5,88,13.5,90.4z"/>
		</g>
		<g>
			<path class="st2" d="M6.2,92.8c0,2.4-1.9,4.3-4.3,4.3s-4.3-1.9-4.3-4.3s1.9-4.3,4.3-4.3C4.3,88.6,6.2,90.5,6.2,92.8z"/>
		</g>
		<g>
			<path class="st2" d="M2.1,85.1c0,2.4-1.9,4.3-4.3,4.3s-4.3-1.9-4.3-4.3s1.9-4.3,4.3-4.3C0.2,80.8,2.1,82.7,2.1,85.1z"/>
		</g>
		<g>
			<path class="st2" d="M31.2,91.2c0,2.4-1.9,4.3-4.3,4.3s-4.3-1.9-4.3-4.3s1.9-4.3,4.3-4.3C29.3,86.9,31.2,88.9,31.2,91.2z"/>
		</g>
		<g>
			<path class="st2" d="M49.4,86.9c0,2.4-1.9,4.3-4.3,4.3s-4.3-1.9-4.3-4.3s1.9-4.3,4.3-4.3C47.5,82.7,49.4,84.6,49.4,86.9z"/>
		</g>
		<g>
			<path class="st2" d="M23.9,142.2c0,2.4-1.9,4.3-4.3,4.3s-4.3-1.9-4.3-4.3s1.9-4.3,4.3-4.3S23.9,139.9,23.9,142.2z"/>
		</g>
		<g>
			<path class="st2" d="M14.6,135.5c0,2.4-1.9,4.3-4.3,4.3S6,137.9,6,135.5s1.9-4.3,4.3-4.3C12.7,131.3,14.6,133.2,14.6,135.5z"/>
		</g>
		<g>
			<path class="st2" d="M25.1,141.1c0,2.4-1.9,4.3-4.3,4.3s-4.3-1.9-4.3-4.3s1.9-4.3,4.3-4.3C23.2,136.9,25.1,138.8,25.1,141.1z"/>
		</g>
		<g>
			<path class="st2" d="M43.8,152.1c0,2.4-1.9,4.3-4.3,4.3s-4.3-1.9-4.3-4.3s1.9-4.3,4.3-4.3S43.8,149.7,43.8,152.1z"/>
		</g>
		<g>
			<path class="st2" d="M55.5,133.3c0,2.4-1.9,4.3-4.3,4.3s-4.3-1.9-4.3-4.3s1.9-4.3,4.3-4.3C53.5,129.1,55.5,131,55.5,133.3z"/>
		</g>
		<g>
			<path class="st2" d="M52.1,155.7c0,2.4-1.9,4.3-4.3,4.3s-4.3-1.9-4.3-4.3s1.9-4.3,4.3-4.3C50.2,151.5,52.1,153.4,52.1,155.7z"/>
		</g>
		<g>
			<path class="st2" d="M44.8,158c0,2.4-1.9,4.3-4.3,4.3s-4.3-1.9-4.3-4.3s1.9-4.3,4.3-4.3C42.9,153.8,44.8,155.7,44.8,158z"/>
		</g>
		<g>
			<path class="st2" d="M38.3,155.1c0,2.4-1.9,4.3-4.3,4.3s-4.3-1.9-4.3-4.3s1.9-4.3,4.3-4.3S38.3,152.8,38.3,155.1z"/>
		</g>
		<g>
			<path class="st2" d="M26.4,154.8c0,2.4-1.9,4.3-4.3,4.3s-4.3-1.9-4.3-4.3s1.9-4.3,4.3-4.3S26.4,152.4,26.4,154.8z"/>
		</g>
		<g>
			<path class="st2" d="M4.6,144.4c0,2.4-1.9,4.3-4.3,4.3s-4.3-1.9-4.3-4.3s1.9-4.3,4.3-4.3S4.6,142,4.6,144.4z"/>
		</g>
		<g>
			<path class="st2" d="M17.5,145.4c0,2.4-1.9,4.3-4.3,4.3s-4.3-1.9-4.3-4.3s1.9-4.3,4.3-4.3C15.6,141.2,17.5,143.1,17.5,145.4z"/>
		</g>
		<g>
			<path class="st2" d="M26.3,143.1c0,2.4-1.9,4.3-4.3,4.3s-4.3-1.9-4.3-4.3s1.9-4.3,4.3-4.3S26.3,140.7,26.3,143.1z"/>
		</g>
		<g>
			<path class="st2" d="M37.1,157.7c0,2.4-1.9,4.3-4.3,4.3s-4.3-1.9-4.3-4.3s1.9-4.3,4.3-4.3S37.1,155.3,37.1,157.7z"/>
		</g>
		<g>
			<path class="st2" d="M46.9,154.8c0,2.4-1.9,4.3-4.3,4.3s-4.3-1.9-4.3-4.3s1.9-4.3,4.3-4.3S46.9,152.5,46.9,154.8z"/>
		</g>
		<g>
			<path class="st2" d="M4.8,147.8c0,2.4-1.9,4.3-4.3,4.3s-4.3-1.9-4.3-4.3s1.9-4.3,4.3-4.3S4.8,145.4,4.8,147.8z"/>
		</g>
		<g>
			<path class="st2" d="M37.5,150.7c0,2.4-1.9,4.3-4.3,4.3s-4.3-1.9-4.3-4.3s1.9-4.3,4.3-4.3S37.5,148.4,37.5,150.7z"/>
		</g>
		<g>
			<path class="st2" d="M56.5,138c0,2.4-1.9,4.3-4.3,4.3S48,140.4,48,138s1.9-4.3,4.3-4.3S56.5,135.7,56.5,138z"/>
		</g>
	</g>
</g>
<g id="candles" class="st0">
</g>
<g id="pens_and_brushes" class="st0">
</g>
<g id="Layer_8" class="st0">
</g>
<g id="layout_1_" class="st0">
</g>
<g id="color">
</g>
<g id="name" class="st0">
</g>
<g>
	<path class="st2" d="M70.7,425.9c-0.5,0-1.1,0.2-1.6,0.3C70.4,425.3,71,425.1,70.7,425.9z"/>
	<path class="st2" d="M51.1,433.1c4.8-2.5,12.4-6.3,18.1-7C65.1,428.8,54.9,437.2,51.1,433.1z"/>
	<path class="st2" d="M75.5,433.3l-6.7,1.5C71.7,431.8,72.1,434.4,75.5,433.3z"/>
	<polygon class="st2" points="71.1,429.9 70.5,427.9 74.6,428.1 	"/>
	<path class="st2" d="M365,260.8c-0.9-0.5-1.6-1.2-2.3-2.2C363.5,259.4,364.2,260.1,365,260.8z"/>
	<path class="st2" d="M381.7,262.5c1.3-0.3,2.2-0.6,2.9-0.8C384.1,262.1,383.3,262.3,381.7,262.5z"/>
	<path class="st2" d="M356.3,266.1l2.3-1.5C357.9,265.3,357.1,265.9,356.3,266.1z"/>
	<path class="st2" d="M205.7,349.9c-2.9-0.1-5.7-0.2-7.7-0.2C201.7,346.1,203.5,348.8,205.7,349.9z"/>
	<path class="st2" d="M416.9,222.7L414,223C413.8,222.1,414,221.5,416.9,222.7z"/>
	<path class="st2" d="M417.4,274.4c-1.3-0.4-1.9-0.8-2.1-1.3c0.6-0.1,1.1-0.3,1.6-0.4C417.1,273.2,417.3,273.8,417.4,274.4z"/>
	<path class="st2" d="M347.9,273.9c0,0.1,0,0.1-0.1,0.2l-2.4,0.1C346.4,273.4,347.2,273.4,347.9,273.9z"/>
	<path class="st2" d="M384.1,203.9c-0.6-0.8-1.1-1.6-1.6-2.5c-0.2-0.4-0.5-0.9-0.7-1.4c-0.1-0.2-0.2-0.5-0.3-0.7l-0.1-0.4
		c0-0.1,0-0.2,0-0.3c0,0.1,0.3,0.3,0.5,0.4c0.2,0.2,0.4,0.3,0.5,0.5c0.3,0.3,0.6,0.6,0.9,0.9c0.5,0.6,0.9,1.1,1.1,1.5
		C384.8,202.8,384.7,203.5,384.1,203.9z"/>
	<path class="st2" d="M384.8,261.6c0.1,0,0.1,0,0.1,0c-0.1,0-0.3,0.1-0.4,0.1C384.6,261.7,384.8,261.6,384.8,261.6z"/>
	<path class="st2" d="M383,289.6c1.9-0.6,3.6-1.3,5.7-1.9C386.7,289.1,384.6,289.7,383,289.6z"/>
	<path class="st2" d="M205.7,349.9c0.8,0,1.6,0.1,2.5,0.1C207.2,350.5,206.4,350.3,205.7,349.9z"/>
	<path class="st2" d="M85.2,414.6c1.9-1,2.9-0.2,3.8,0.6C87.7,415.3,86.5,415.2,85.2,414.6z"/>
	<path class="st2" d="M52.1,76.6l-0.8-0.4C51.7,76.3,52,76.4,52.1,76.6z"/>
	<path class="st2" d="M124.4,117.5c0.2,0.5,0.4,1,0.4,1.6C124,119.2,124,118.4,124.4,117.5z"/>
	<path class="st2" d="M210,117.2c-5.9-0.3-8.8-7.1-12.9-9.4l0.6,2.5l-3.5-3.6l-1.2,2.6c-6.4-4.7-16.5-6.4-17-11.8l-1.2,4.5l-5.9-6.9
		l2.9,4.9c-8.8-3.3-20-12.9-21.8-13.7v1.9c-1.8,0.1-2.3-1.4-3.5-2.7v2.8c-12.3-6.9-18.3-3.6-31.2-13c-4.1-1.4,1.8,1.8,1.2,3.1
		c-3,0.7-7.1-3.4-7.6-5c-0.6,4.1,5.8,6-0.1,6.6c-2.3-3.3,0.6,4.4-4.7,0.8l0.1-5.6c-3.5-0.8-2.4,3.2-7.1,0.3
		c-4.7-4.8,9.5-1.7,0.7-6.9c-4.7-2-14.9,5.7-22.5-1.2c-8.8-1.5,0.5,9.1-9.5,2.6l5.3,6.4c-2.4,0.4-2.4,3.2-6.5,0
		c-0.6-2.5-2.3-6.1-4.6-7.6c8.2,8.4-11.3,0.8-4.3,9.9l-3.4-1.9c0.3,0.4,0.2,0.9-0.2,1.1l-4.7-2c2.3,2.4,8.8,6.2,4,7.9l-7-2.5
		c0.5,3.4-2.4,3.2-3.1,5.4l17,14.6c0-1.9-2.3-4.3-0.5-5.3c5.9,1.3,2.9,4.8,8.8,5.2l-1.2-3.1c0,1,0.6,1.5-0.6,1.3
		c-2.4,0.4-2.3-1.4-1.7-2.7c3-1.7,7,2.5,7.6,5c6.5,2.8,3.6-3.9,5.4-4c1.1,5.9,10.6,5.2,13.5,9.1l-1.1-4c6.5-0.9,9.4,4,11.7,6.3v-2.8
		c6.5,3.8,13.6-2.2,14.7,8.4v-1.9c3.1,0.7,8.1,1.1,9.5,4.8c0.5-0.9,1.6-1.9,2.8-1.6c-0.1,3.9,4,2.9,8.3,4.4
		c-2.3-2.2,0.6-5.7-1.8-8.1c8.3-1,3.5,7.3,8.8,9.9c4.2-0.5-1.7-3.7-1.7-5.5c7,6.2,21.3-1,22.4,9.6l-4.8,0.8c2.4,3.3,4.1,4.2,4.1,3.3
		c-1.2-0.3-1.1-1.2-1.1-2.1c11.8,0.7,12.3,13.5,22.9,16.8c0-1.9-1.1-3.1-0.6-4.4c5.3,0.7,0.5,10,9.4,10.5l-0.6-2.5
		c3,0.2,3.5,3.6,2.9,3.9c3.6-6.7,15.3,8.1,24.8,1.7c1.7,5.5,10.5,13.6,14.6,13.1c6.5-1.9-1.7-6.5,1.9-9.5c3.5,1.7,3.5,6.4,9.4,7.7
		c-1.8,3.8-14.2,2.5-5.4,9.6l2.4-1.4c-1.2-0.2-2.9-0.2-4.1-1.4c-1.7-3.7,3-1.7,4.1-2.4l10,6.4c-1.2,4.4-7.1,0.3-8.3,1
		c8.8,3.3,21.8,2.4,28.3,9v-1.9c8.2,8.4,9.5-4.5,14.1,5.9c4.7,1,0.6-5,7.1-2.2c1.8,0.9,0,1.9-0.6,2.2c7,5.3,5.3-2.1,10.6,5.2l0.6-5
		c7,7.2,12.2,19.1,20.5,21c1.2-3.5-3.5-5.5-4.1-8.9c7,10.9,23.5,12.7,31.1,20.5c-4.2,1.4,1.1,8.7-6,8.1c0.6-5-3.6-3.6-6.5-5.7
		c0.2,5.9,6.1,7.5,11.7,8.6c2.8,0.6,5.4,1.1,7.3,2c0.9,0.4,1.6,1,2,1.7c0.1,0.2,0.2,0.4,0.2,0.6c0,0.2,0,0.3-0.1,0.5
		c-0.1,0.4-0.3,0.8-0.5,1.3c0.7-1,1.5-2,2.4-2.9c0.2,0.4,0.3,1.4,0.1,2.3c-0.2,0.9-0.8,1.7-1.6,2c1.6-0.1,3.5,0,5.7,0.2
		c0.3-0.6,0.6-1.5,0.8-2.5c0.2-1,0.1-2-0.1-3c-0.5-1.9-2-3.3-3.7-1.9c0.1-2.2,1-2.4,2.1-2.7s2.5-0.4,2.7-2.9c0.6,2,1,2.9,1.5,3.2
		c0.6,0.4,1.3,0.2,2.2-0.1c0.9-0.3,1.9-0.6,3.1-0.6s2.5,0.3,3.7,1.3c-1.9,0.5-2.9,1.3-3.4,2.1s-0.6,1.7-0.6,2.5
		c0,1.6,0.1,2.9-1.5,3.6c1.2,0,1.8,0.8,1.8,1.6s-0.7,1.7-1.6,2.2c0.5,0.5,3.4,0.9,6.5,1.6c3.1,0.7,6.6,1.7,6.3,2.6
		c1.2-0.3,2.3-0.8,4-1.4c1.6-0.5,3.7-1,7.1-1.2c-0.7,0.7-0.5,1.4,1,1.8c1.5,0.5,4.4,0.8,9,0.9c1.6-1.2,0.6-2.1-1.1-2.5
		c-1.8-0.4-4.5-0.4-7.3-0.4s-5.7,0.1-7.7,0c-2-0.2-3.1-0.5-2.8-1.7c3-1,4.2-2,4.4-3c0.2-1-0.7-2.1-2.1-3.6c2.8,0,4.5-0.2,6.1-0.6
		c1.6-0.3,3-0.8,5.8-1.1c-1.5,1.8-1.6,3.1-0.8,4.2c0.8,1.1,2.6,2.1,4.9,3.1s5,2,7.3,3s4.2,2.1,4.5,3.1c-0.9,0.3-1.9,0.5-3,0.7
		c-4.7,0.8-9.5,0.7-14.2,0.9s-9.2,0.4-12.6,1.6c-0.4-0.9-1-1.6-1.9-2.3c0.4,0.5,0.1,0.9-0.5,1s-1.7,0.1-2.9,0.1
		c-2.4-0.1-5.7-0.3-7.9,0.2c2.2,0,4.5,0,6.9,0c-0.7,1-2.6,1.4-7.3,1.2c3.1,0.2,6.4,0.4,9.9,0.4c-0.1,0.7-1.6,2.1-6,1.2
		c1.6,0.5,2.9,0.9,4.2,1.2c-1.5-0.1-2.8,0-4,0.7c1.6-0.2,1.8-0.6,3.9-0.1c-1.9,0.6-2.4,1.1-2.3,1.5s0.9,0.8,1.8,1.1
		c1.8,0.7,4,1.2,1.4,2.2c2.1,0.2,2.5,1.5,1.3,2.8c-2.1-1-4.4-1.5-6.6-1.8c-2.1-0.3-4.2-0.3-6-0.4c-3.7-0.1-6.6,0-8.7-1.3l0.1,0.1
		c-0.9-0.1-1.8-0.2-2.6-0.4c-0.4-0.1-0.8-0.2-1.2-0.3l-0.3-0.1h-0.1h-0.3l-1.1,0.1c1.9-0.2,1.1,2.4-0.8,4.3l0.4-0.2
		c-2,2.3,6.6,5.8-1.8,7.6h-4.9c0.8-0.1,0.7,1.3,0.6,1.9l-4.9,0.2c-3,9.4-13.4,2.3-19.1,9c1.8-1.6,5.2-2.7,4.9,0
		c-1,1.5-3.5,1.8-5.1,1.3l0.7,0.6l-15.8,2.7c2.3,1.7,10-2,7.9,2.3c-0.5,4.1-6.1,2.8-8.7,3.8c-0.6-1.9,3.2-5.8-1.9-4.4
		c-0.1,1.2-3.6,5.2-0.9,5.4c-5.6,0.5-13,2.9-18.8,1.8c-1,1.4,1.5,1.1,2.3,1l0.1-0.7c3.3-0.4,2.7,4.3,7.4-0.3
		c3.4,5.6-7.2,5.6-11.7,8.9l9.8,0.1c-9.2,14.6-31.2,14.8-44.3,21.2c2.9-3.7,7-3.6,4.2-7.9c-9.2,1.9-7.6,2.3-16.2,5.4l0.8-0.1
		c-3,4.4-11,2.8-11.7,8.2c3.1,1.6,4.7-5.3,7.4-0.3l-10.4,4.7c4.7,1.4,10.4-4.7,14.6-5.9c2.7-1.7-6,2.1-6.3-1.9
		c9.6-4.6,13.4-2.4,20.4,0c4.6,2.1-2.4,5.7-4.1,6.6c-8.7-2.2-18.7-0.2-27,6.9l-3.3,6.4c-6.4-1.2-7.9-9-15.9-3.9l3.9,1.5
		c-1.3,2-2.3,3-3.2,3.4c4.7,0.3,9.7,0.7,14.1,1.2c-1.9,8.3-15.2,4-22.9,6.3c0.7,0.6,3.3-0.4,4.8,0.7c-9.8,6.6-24.3,5.2-32.9,8.3
		c-2.2,4.3,7.6-1.7,7.8,3c-5,0.7-8.2,6.4-11.1,3.5c4.4,4.1-9.6,5.3,0.9,5.9c-14.3,9.9-33.6,13.7-50.5,18.7c1.5,1.1,2.1,2.4,2,3.7
		c5.2-2.7,13.7-5.1,18.4-3.1c-2.2,4.3-9.9,0.6-10.1,2.7c2.4,0.4,5.9-1.4,7.2,1.1c-3.1,5.1-7.6,2.3-11,3.4l1.1-2.1
		c-11.6,1.5-9.9-6.1-19.7,0.6c-2.3,5,1.3,2.5,3.3,6.3c-3.2-0.3-9.1,7.9-13.7,5.1l6.2-3.5c-5,1.2-9.2,3.3-12.9,3.5
		c0.7,0.7,1.4,1.4,2.5,1.2c-4.1,0.5-8.5,3.1-11.6,1.5l1,4.6c1.2-2.9,7.4-6.3,9.5-4.6c1.2,3.9-6.3,4.8-9,6.5
		c12.9-5,16.2,1.2,25.3-6.6l-2.4-0.4c5-6.3,14.2-4.6,19.8-7.6c-1.2,1.6-0.8,3.3,0.3,3.6c11-9.5,24.6-13.2,37.9-22.3l6.3,1.8
		l-1.3-3.2c6.3-4.8,3.7,3.5,8,1c-1.7,0.9-1.7,0.2-2.4-0.4c9.9-0.6,3.1-5.1,8.2-6.4c-3.8-2.2-9.4,3.2-9.5-2.1
		c9.8-0.6,21.5-8.8,26.4-2.1c13.6-10.5,34.6-15.2,47.6-20.9c1.1-2.2-1.6-0.5-1.4-1.8c7.1,1.7,15.3-11.4,17.3-7.6
		c1.9-2.3,1.5-5.5,1.7-6.9c4.1,0.2,8.4-0.8,12.8-2.3l-3.5,0.4l0.1-0.7l5-0.6v0.3c10.7-4,22-10.8,33.3-11.3c-6.6,0.2-0.9-5.2-4.2-5.5
		c7.7,3.7,19-1.8,27.8-7c-0.7-1.2-0.5-2.6-2-3.1l6.5-0.2l-1.5-1.2c8.9-5.9,22.6-4.3,27.4-10.3c-4.2,1.2-4.9,0-6.3-1.9
		c3.4-1.6,6.8-3.2,10.3-4.7c1.8-0.7,3.6-1.4,5.6-2.1c0.5-0.2,1-0.3,1.5-0.5c0.3-0.1,0.5-0.1,0.8-0.3c0.4-0.1,0.8-0.3,1.2-0.4
		c1.6-0.6,3.3-1.2,5-1.7c-0.9,0-1.6-0.2-1.9-0.6c1.5-1.1,3.4-1.7,5.5-2.3c2.1-0.6,4.4-1,6.4-1.6l-2.2-2.7c3.7-1,7.3-2.8,11.1-4.6
		c3.8-1.8,7.9-3.6,13.4-4.8c-0.8-1.7,4.6-3.4,11.7-5.7c3.5-1.1,7.5-2.4,11-3.7c3.5-1.3,6.6-2.7,8.2-3.9c2.5-0.8-1.2,0-4.2,0.3
		s-5.3,0.2-0.5-2.1c7.6,0.3,10.9-1.3,14.3-2.9c3.4-1.6,6.8-3.1,15.8-3.1c0.4-0.7,0.8-1.3,1.2-1.9l-9.1-2.6c2.2-0.4,4.3-0.8,6.3-1.3
		c-5.9-0.9-9-1.6-10.9-2.5c-1.8-0.8-2.3-1.7-2.6-2.7c-0.4-1-0.7-2.1-1.9-3.4c-1.3-1.3-3.5-2.7-7.6-4c-0.7,0.6,0.1,1.3-1.5,1.2
		c-1.3-1.1-4-2.8-5.1-3.9c-1.1-1.1-0.8-1.6,4.4-0.2c-3.4-1.7-10.3-5.6-15.8-8.3c-2.7-1.3-5.1-2.3-6.4-2.5s-1.5,0.4-0.3,2.2
		c1-0.8,3.3,0.3,5.6,1.8c2.3,1.5,4.7,3.4,6,4.6c-2.7,0.5-5.9-0.5-9.3-1.6s-7-2.2-10.3-1.8c0.2-0.3-0.3-1.2-0.5-1.9l-3.7,0.5
		c-3.3-3.7-8.8-6.8-13.8-9.7s-9.5-5.8-12.6-10c-0.5,0.3-1.4,0.4-2.6,0.1c-0.6-0.1-1.3-0.4-2.1-0.7c-0.1-0.1-0.3-0.1-0.4-0.2
		c-0.1-0.1-0.2-0.1-0.4-0.2c-0.3-0.1-0.5-0.3-0.8-0.4l1.8-3.8l-7.1-3.4l0.5,7.2c-8.3-2.8-10.5-11.7-16.4-15.8
		c-4.8,5.5-11.2-8.6-19.5-5.7l4.1,4.2c-10-6.4-13.6-3.5-22.4-10.6c9.4,2.1,8.8,3.4,23.6,4.3c-13.6-3.5-19.3-14.1-32.4-16.1
		c0,1.9,2.3,4.3-1.2,4.4c-0.6-4.4-10.6-5.2-7-8.1c-4.1-0.4-6.5,2.8-8.9,2.3l-9.3-10.5v0.9c-24.2-1.1-34.1-24.4-55.9-30.6l-0.6,2.2
		l-3.5-5.5c2.9,3.9-3,1.7-4.2,3.3l-9.8-10.1C207.8,112,206.5,116.4,210,117.2z M377.1,202.8l1.4,0.9c0.2,0.1,0.7,0.4,1.1,0.6
		l1.3,0.7c1.2,0.3,2.3,0.8,3.2,1.8l-3.2-1.8c-0.7-0.2-1.5-0.3-2.1-0.4c-0.4-0.1-0.5,0-0.7,0s-0.4,0-0.5,0
		C377,204.5,376.7,204.1,377.1,202.8z M204.7,374.2c-2.3-1,1.8-1.6,2.7-2.3l-5.1,2C202.1,375.3,203.8,374.4,204.7,374.2z M365,227.5
		l-3,1.7l-1.2-3.1L365,227.5z M322.1,206.3l3.5,3.6l-0.6,0.3l-3.5-3.6L322.1,206.3z M284.7,162c0.2,0.3,0.4,0.5,0.6,0.9
		C285.1,162.7,284.9,162.3,284.7,162c-2.4-3.5-6,0.4-6.4-5.3C283.5,154.5,283.6,159.5,284.7,162z M360,199.6
		c1.2,1.2,1.8,1.8,2.9,2.1c0-1.9-1.7-5.6,0.6-5c0.6,2.5,5.3,5.4,4.1,7.9C364.8,199.7,358.2,205.3,360,199.6z M409.3,273.7l1.3-1
		c-2.9,0.6-5.7,1.2-8.4,1.7C404.5,274.2,406.9,274,409.3,273.7z M379.8,285.2c-1.3-0.4-2.7-0.4-4.1-0.2c-0.7,0.1-1.5,0.3-2.2,0.4
		c-0.6,0.1-1.2,0.3-1.7,0.4c-2.3,0.7-4.7,1.9-6.8,2.5c0.4,3.3,5.9,4.6,10.4,2c0.2,0,0.4,0,0.6,0s0.5-0.1,0.7-0.1
		c0.5-0.1,0.9-0.2,1.2-0.4c0.7-0.3,1.1-0.6,1.4-0.9c0.6-0.6,0.5-1.3,0.2-1.8C378.8,286,377.6,285.1,379.8,285.2z M324.7,188v2.8
		l-1.2-0.2l3.5,3.6c-7.1,0.3-8.2-7.4-10.5-9.8C318.8,185.8,322.8,194.7,324.7,188z M338.4,303.9c-4.9,0-13.2,1-13.7-1.6
		c1.9,4.4,8.5,3.6,10.3,2.7C335.9,304.3,336.8,304.1,338.4,303.9z M334.6,295.7c6.6-0.9,8,1,14.4,2.8c-4.7,4.6-9-0.1-9.5-2.8
		c-4.9,0-2.7,2.4-4.6,3.9L334.6,295.7z M346.5,304.9l2-1.7c1.8-3.2,0-8.3,6.2-5.4l-6.2,5.4C348.1,303.9,347.5,304.5,346.5,304.9z
		 M298.8,328.5l3.1,0.3C299.5,329.8,298.9,329.3,298.8,328.5l-2.6-0.3C300.5,324.1,298.6,326.9,298.8,328.5z M334.5,309.1l6.9-2.9
		C340,304.4,336.4,307.5,334.5,309.1z M298.4,323.9c2.7-1.7,9.7-6,8.8-5.2C307.7,321.3,300.8,324.2,298.4,323.9z M147.7,391.7
		l4.3-1.9l-0.5,4.1L147.7,391.7z M196.1,364.7l-0.3,2l-2.6,1L196.1,364.7z M241.6,341.7c0.1,0.8,0.6,1.5,1.4,2.1
		c0.8-0.1,1.6,0,2.2,0.5c-0.6,0.3-1.5,0.1-2.2-0.5c-2.2,0.2-4.7,2-5.5,3.5c1.5,1.1,4.2-0.6,5.7-0.1c-2.4,5.7-17.1-0.4-9.3,8.6
		c-2.4-0.4-9.8-0.1-8.6-2.9C230.4,351,238.9,345.4,241.6,341.7c-0.1-0.7,0.1-1.3,0.9-1.8C242.4,340.4,242,341,241.6,341.7z
		 M301.9,308.7c1.9-0.6,2.8-0.7,3.3-0.5c1.9,0,3.6,0.6,3.8,2.3c-4.2,0.6-2.5-1.8-3.8-2.3C304,308.2,302.9,308.3,301.9,308.7z
		 M312.5,302.6l-6.6,0.9l4,0.8h-10.6C303,299.9,310.3,300.2,312.5,302.6z M313.5,299.7l2.4,1.9l-3-1.6L313.5,299.7l-0.5-0.4
		l10.2-3.3L313.5,299.7z M415.1,255c-3.6-0.8-6.9-1-9.7-0.9c-2.8,0.1-5.1,0.5-7.2,0.9c-4.1,0.9-7.5,2-11.7,1.6
		c2.4,0.6,4.8,1.7,7.4,2.2s5.8,0.3,10.1-2c-0.5,1.1-1.8,1.8-3.1,2.1c-1.4,0.3-2.8,0.4-3.9,0.4s-1.9,0-1.9,0.4c0,0.3,0.7,1,2.4,2.4
		c1.5-1.1,4.2-1.9,6.9-2.6c2.7-0.7,5.3-1.2,5.9-1.4l-4.3,2.5c6,0.3,7.1-1.1,7-2.4C412.9,256.9,411.6,255.7,415.1,255z M382.7,230.4
		l-5.8-3.1l5,3.4L382.7,230.4z M234.4,159.2c-0.6,2.2-10.1,2-10-2.7C228.6,158,232.7,160.3,234.4,159.2z M171.5,127.1l5.8,5
		c-3.6,3.9-5.9-3.2-9.4-4C168,125.3,169.7,128.1,171.5,127.1z M127.9,105.3l-1.8-1.8v5.6L127.9,105.3z M127.9,112.8
		c-2.4,1.4,1.7,4.6,2.9,4.9L127.9,112.8z M86.6,97.1l2.9,1.1L89,92.9L86.6,97.1z M93.4,94.6c-0.8,3.2-3,7,4.4,8.3
		c1.8-2.9,0-3.8,4.2-6.1c-1.7-1.8-4.1-1.4-5.3-1.6c1.2,1.2,3.5,0.8,2.9,3C96.7,98,94.4,96.4,93.4,94.6c0.3-1.1,0.4-2.2-0.2-3.1
		C92.8,92.4,92.9,93.6,93.4,94.6z M118.3,103.1c1,0.1,2,0,2.6-0.3v1C119.4,104.6,118.8,103.9,118.3,103.1c-1.1-0.1-2.4-0.3-3.7-0.5
		c-2,2.2,1.5,6.2,2,8.2c-1.7-1.8-2.3-5.2-5.8-5c0,0.9-0.6,1.3,1.1,2.1l-4.1-1.4c-2.6-5.8,2.1-4.8,6.8-3.9c0.4-0.5,1-0.9,2.1-1.2
		C117.6,101.3,117.9,102.3,118.3,103.1z M90.4,81.9l1.7,1.8c0.6,1.5-0.6,2.2-0.6,3.2C89.1,85.4,86.8,82.1,90.4,81.9z M216.9,144.1
		c-1.8,0.1-0.1,4.7,3.5,5.5l-3.6,3c1.2-2.6-5.3-5.4-5.9-6C211.6,142.5,213.3,145.2,216.9,144.1z M363.4,217.2
		c-1.3,5.4,8.3,6.5,9.3,8.6C368.1,224.9,358,221.2,363.4,217.2z M379.5,222.9c2.5,1.3,3.7,1.3,1.3,3.2c0.2,0.7,1,1,1.8,1.3
		s1.7,0.7,1.8,1.3c-3.3-0.3-3.9-1.2-4-2.3C380.2,225.4,380.6,224,379.5,222.9c-0.7-0.4-1.4-0.8-2.3-1.4
		C378.4,221.9,379,222.4,379.5,222.9z M292.8,179.1l-1.2-5l-4.7-2L292.8,179.1z M247,148.4c-0.6,2.2-5.9-0.4-6.5-1.9
		c-1,2.8,2.7,4.2,5.3,5.9c0.2,0.4,0.8,0.8,1.7,1.3c-0.5-0.5-1-0.9-1.7-1.3c-0.7-1.1,0.7-2.1,1.1-3.1l1.8-0.1l-3.5-2.7L247,148.4z
		 M162.3,102.5c-4.2,0.5-4.2-0.4-5.9-2.2C157.6,99.5,160.6,100.7,162.3,102.5z M274.1,159c-5.9-1.3,0.5,5.3-3.6,4.9l2.9,1.1
		c-5.9,0.6-1.7-4.6-5.2-5.4l2.4,0.5c2.9-1.7-2.4-3.4-1.7-5.6C271.8,154.8,276.5,159.5,274.1,159z M158.2,98.3
		c-6.5,0-2.9-4.9-5.8-6.9C157.7,91.1,154.7,95.6,158.2,98.3z M244.8,134.7l0.6-0.3l-3.5-3.6l-0.6,0.3L244.8,134.7z"/>
	<path class="st2" d="M138.4,121.7c-1.5-0.3-2.3-0.8-2.9-1.4C136.5,120.6,137.5,121.1,138.4,121.7z"/>
	<path class="st2" d="M372.1,241.8c0.9-0.4,1.6-0.5,2.2-0.5C373.7,241.5,373,241.7,372.1,241.8z"/>
	<path class="st2" d="M374.4,245l0.1,0.1c-0.1,0.1-0.2,0.1-0.3,0.2L374.4,245z"/>
	<path class="st2" d="M86.7,409.8c-3.8-2.2,1.8-1.6,3.6-2.5C88.5,408.2,89,410.8,86.7,409.8z"/>
	<path class="st2" d="M103.2,408.3c-1.5-0.4-3.3-0.4-5.3,0.3C99,407.9,100.4,407.6,103.2,408.3z"/>
	<path class="st2" d="M91.2,412.5c2.4-2,4.6-3.3,6.7-4C96.2,409.6,95.3,411.6,91.2,412.5z"/>
	<path class="st2" d="M139.9,388.7c-3.2-0.9-6.8,2.2-6.8,2.2c8.2-6.4-3.7-2.9-5.2-4C133.9,384.8,135.2,387.4,139.9,388.7z"/>
	<path class="st2" d="M152.5,383.7c-0.9,0.5-1.8,1-2.3,1.7C150.8,384.4,151.6,384,152.5,383.7z"/>
	<path class="st2" d="M154.9,380.1c3.4-1.1,5.6,0.6,7.9,1.6c-3,3.5-7.2,1.1-10.4,2C154.7,382.6,157,381.7,154.9,380.1z"/>
	<path class="st2" d="M246.5,320.6c-0.8,0.1-2.6,1-3.3-0.2l5.2-2.7C251,317.4,247.4,319.8,246.5,320.6z"/>
	<path class="st2" d="M269,317c4.3-1.9,0.5-4.1,3-4.4l1.9,4.4H269z"/>
	<path class="st2" d="M277.6,340l-1.5,0.2c0.5-0.2,1-0.4,1.5-0.6V340z"/>
	<path class="st2" d="M287.2,302.6l-5.3-3.3C286,298.7,288,302.5,287.2,302.6z"/>
	<polygon class="st2" points="301.6,291.3 298.4,291.1 306.9,288.7 	"/>
	<polygon class="st2" points="322.2,284 322.3,282.6 328.2,281.2 	"/>
	<path class="st2" d="M300.3,200.1c1.2-4.4,8.8,1.5,11.8,1.6C307.9,206,306.2,196.7,300.3,200.1z"/>
	<path class="st2" d="M146.7,123.5l7.6,5C147.3,126.9,152.6,127.6,146.7,123.5z"/>
</g>
</svg>
