<?xml version="1.0" encoding="utf-8"?>
<!-- Generator: Adobe Illustrator 25.2.1, SVG Export Plug-In . SVG Version: 6.00 Build 0)  -->
<svg version="1.1" id="Layer_1" xmlns="http://www.w3.org/2000/svg" xmlns:xlink="http://www.w3.org/1999/xlink" x="0px" y="0px"
	 viewBox="0 0 500 500" style="enable-background:new 0 0 500 500;" xml:space="preserve">
<style type="text/css">
	.st0{fill:white;stroke:white;stroke-width:3;stroke-linejoin:round;stroke-miterlimit:10;}
	.st1{fill:black;stroke:white;stroke-width:3;stroke-linejoin:round;stroke-miterlimit:10;}
</style>
<g>
	<g>
		<g>
			<g>
				<g>
					<path class="st0" d="M314.5,397.8c0.1,0.2,0.6,0.2,0.6-0.1l-0.7-0.5L314.5,397.8z"/>
					<path class="st0" d="M316.4,396c-0.2-0.5-0.7-1.1-1.5-1c0.6,0.6,0.2,0.6,0.9,1.3c0,0.3-0.5,0.5-0.7,0.3
						c0.1,0.2-0.3,0.5,0.1,0.8c0.7-0.2,0.9-0.8,0.6-1.5C316.2,395.8,316.3,395.9,316.4,396z"/>
					<path class="st0" d="M309.6,364l0.1,0.2C309.7,364.2,309.7,364.1,309.6,364z"/>
					<path class="st0" d="M292.8,351c0.1,0,0.2,0,0.3,0C292.9,350.9,292.8,350.9,292.8,351z"/>
					<path class="st0" d="M289.7,348.9c0.1,0,0.1,0.1,0.2,0.1C289.8,348.9,289.8,348.8,289.7,348.9z"/>
					<path class="st0" d="M309.6,364l-0.2-0.6C309.3,363.5,309.5,363.8,309.6,364z"/>
					<path class="st0" d="M315.7,391.3c0,0.1,0.1,0.2,0.1,0.3c0-0.1,0-0.2,0-0.2C315.7,391.3,315.7,391.3,315.7,391.3z"/>
					<path class="st0" d="M315.4,371.6l0.1,0.1c0.1,0,0.2,0,0.3,0L315.4,371.6z"/>
					<path class="st0" d="M318.2,378.4c0-0.2-0.7,0-0.9,0c0.2,0,0.5,0.1,0.6,0.2C318,378.5,318.1,378.5,318.2,378.4z"/>
					<path class="st0" d="M318.3,390l0.1,0.2C318.5,390.1,318.3,390,318.3,390z"/>
					<path class="st0" d="M312.9,366.9c0.1-0.1,0.1-0.1,0.1-0.2C312.9,366.8,312.9,366.9,312.9,366.9z"/>
					<path class="st0" d="M309.5,403.5L309.5,403.5L309.5,403.5z"/>
					<path class="st0" d="M316.1,398.3v0.1c0.1,0,0.2,0.1,0.3,0.1L316.1,398.3z"/>
					<path class="st0" d="M283.3,346.1L283.3,346.1C283.6,346.1,283.5,346.1,283.3,346.1z"/>
					<path class="st0" d="M234.6,375.8c0.6-0.7,0.7,1.3,1.4,0.2C235.7,376.2,235,375,234.6,375.8z"/>
					<path class="st0" d="M315.7,391.2c0-0.1,0-0.2,0-0.2C315.7,390.9,315.7,391,315.7,391.2z"/>
					<path class="st0" d="M235.9,376L235.9,376L235.9,376L235.9,376z"/>
					<path class="st0" d="M267.4,345.6c0,0.1,0.1,0.2,0.2,0.2C267.7,345.8,267.5,345.7,267.4,345.6z"/>
					<path class="st0" d="M279.1,346.7l-0.2-0.1C279,346.6,279,346.6,279.1,346.7z"/>
					<path class="st0" d="M261.5,347.5c-0.1,0-0.2-0.1-0.5,0.1c0,0,0,0,0.1,0.1C261.3,347.5,261.4,347.4,261.5,347.5z"/>
					<path class="st0" d="M255.5,349.4c0,0,0.1,0,0.1,0.1c0,0,0.1-0.1,0.2-0.1H255.5z"/>
					<path class="st0" d="M296.2,413.4c0.2,0.1,0.3,0.2,0.5,0.5C296.3,413.4,297.1,413,296.2,413.4z"/>
					<path class="st0" d="M316.1,391.4c-0.1,0-0.2-0.1-0.2-0.2c0,0.1,0,0.1,0,0.2C315.8,391.4,316,391.4,316.1,391.4z"/>
					<path class="st0" d="M262.5,352.4l-0.9,0.1C262,352.6,262.2,352.5,262.5,352.4z"/>
					<path class="st0" d="M257.1,408.1h0.2C257.2,408.1,257.1,408.1,257.1,408.1z"/>
					<path class="st0" d="M259.2,353.5c-0.2-0.1-0.5-0.2-0.6-0.2c0,0.1,0,0.1,0,0.2H259.2z"/>
					<path class="st0" d="M296.6,413.9L296.6,413.9L296.6,413.9z"/>
					<path class="st0" d="M301.2,410c-0.7,0.5,0.1,0.9,0.2,1.5c-0.8,0.7-0.7-0.3-1.3-0.6c-0.5,0.5-0.6,1.4-1,1.6
						c-0.1-0.1-0.2-0.1-0.2-0.3c-0.1,0.5-0.6,0.7-1,0.9c-0.5,0.2-0.9,0.5-1.1,1c-0.1,0-0.1-0.1-0.2-0.1c0.2,0.3,0.5,0.7,0.6,1
						c-0.3,0.1-0.6,0.8-0.8,0.3c0.2-0.1,0.2-0.3,0.2-0.5l-0.3,0.3c-0.6-0.6,0.5-0.5,0.2-1c-0.3,0.2-0.7,0.7-1,0.9
						c-0.3,0.3-0.7,0.5-1,0.5c-0.3-0.7,1.4-0.7,0.3-1c0.3,0,0.7,0,1,0c-1-0.9,0.6-0.1-0.5-1.1c-1.3,0.2-1.1,0.8-2.4,0.9
						c-0.1,0.5,0.2,0.6,0.1,1c-1.5,1.3-1.8-1.6-2.8-0.3c-0.2,0.6-0.2,1.6-1.1,1.3l0.1-0.9c-1.1,0.1-0.5,1.4-1.8,0.9
						c0.2-0.3,0.9-0.3,0.7-0.5c-0.9-0.6-0.5,0.6-1.1,0.6l-0.2-0.8c-0.6,0.1-1.3,0.3-1.9,0.6c-0.7,0.2-1.4,0.3-2.2,0.5
						c0.1-0.2,0.3-0.5,0-0.7c-0.9,0.2-1.8,0.2-2.7,0s-1.8-0.5-2.6-0.8l-0.7,0.6c-0.1,0-0.2-0.3,0-0.5c-0.6-0.3-0.1,0.5-0.5,0.6
						c-0.3,0-0.5-0.5-0.2-0.6c-0.6,0.2-1.5,0.3-2.4,0.3c-0.9-0.1-1.7-0.3-2.3-0.8l0.3-0.1c-0.9-0.5-1.5,1-2.2,0.2h0.2
						c-1-0.5-2-0.8-3.1-1.1c-1-0.3-1.8-0.9-2.4-1.7c-0.7,0.7-1.7-1.3-2.4-0.1c-0.8-1.1-0.3-1.3-1.6-2.4c-0.3-0.2-1,0.5-1.6,0.2
						l0.3-0.6l-1,0.2l0.1-0.9l-0.6-0.1c0.1,0.1,0.2,0.5,0.1,0.7c-0.9-0.2-1.4-1.5-1.3-1.8c-0.7-0.2-1.3-0.5-1.9-0.7
						c0.2-0.2,0.6-0.1,0.8-0.1c-1.3-0.1,0.3-0.7-0.8-0.8c0,0.2-0.3,0.2-0.5,0.3c-0.1-0.7-0.9-1.3-1.6-1.7l0.5-0.2
						c-0.9-1-2.4-1.8-3.4-3.1c0.2,0.6-0.5,1-0.9,0.8l0.5-0.7c-0.6,0.1,0.1,0.6-0.7,0.5c-0.3-0.6,0.3-0.9,0.8-0.8l-0.7-0.3
						c0.1-0.2,0.3-0.1,0.6-0.2c-0.6,0.1-0.2-1.4-1.1-1.3l0.1-0.1c-0.5-0.7-0.9-1-1.3-1.5c-0.2-0.2-0.3-0.3-0.6-0.6
						c-0.1-0.2-0.3-0.5-0.5-0.7c-0.6,0.3-0.7-0.2-1.4-0.2c-0.1-0.5-0.2-1-0.5-1.5c-0.1-0.6-0.2-1.1-0.6-1.6c-0.7-0.6-0.6,0-1.1-0.1
						c0.5-0.3-0.1-1.4,0.6-0.9c-0.7-1.3-0.8-1.6-1.8-3.1c-0.1,0.2-0.2,0.5-0.5,0.5c-0.2-0.2,0-0.8,0.2-0.8l0.1,0.1
						c-0.7-0.8-0.6-2-0.5-3.2s0.3-2.2-0.3-2.8l0.1,0.1c-0.3-0.5-0.6-1-0.8-1.5c0.1-0.8,0.5,0.5,0.8-0.1c-0.6-0.8-0.6-1.5-0.5-2.2
						c0.1-0.7,0.3-1.3,0-1.9c0.5-0.2,0.7-0.6,0.8-1c0.1-0.5,0.2-0.9,0.2-1.4c0-0.5,0.1-1,0.1-1.5c0.1-0.5,0.3-0.8,0.7-1.1h-0.5
						c-0.2-0.5,0.3-0.3,0.6-0.6c-0.3-0.1-0.5,0.2-0.6,0c0.2-1.6,1.1-3.1,2-4.4l1.7-1.8l0.5-0.5l0.5-0.5c0.3-0.2,0.6-0.6,0.9-0.8
						c0.8-0.8-1.3-1.9,0.6-2.4l0.2,0.8c0.6-1.1,1.4-2,2.4-2.8c0.5-0.3,1-0.8,1.5-1.1c0.5-0.5,0.9-0.8,1.4-1.3c0,0.2,0.1,0.5-0.1,0.6
						c0.7,0.2,1.6-1,1.4-1.4c0.3-0.1,0.2,0.3,0.6,0.3c0.6,0.1,0.8-1.1,1.3-0.8c0.1,0.1,0,0.2-0.1,0.3c0.2-0.3,1.4-0.7,0.8-1
						c0.9-0.1,1.5-0.9,2.3-0.8c0.2-0.8,1.6-0.2,1.4-1.3c0.2,1,1.8,0.3,2.2-0.2c-0.1,0.3,0.6,0.2,0.5,0.7c0.6-0.2,1.1-0.5,0.9-1
						c1.5,1,2.3-1.5,3.2,0c1.8-0.7,3.6-1.4,5.5-1.5c0,1-1.9,0.1-1.8,1.1c0.8-0.2,1.5-0.6,2.2-0.8c0.7-0.2,1.4-0.5,2.2-0.2
						c0.5,0.2-0.2,0.5-0.5,0.6c1.7-0.2,3.3,0.2,4.8,0c0,0.1-0.2,0.1-0.3,0.2c0.3,0,0.7,0.2,0.7-0.2l-0.3,0.1
						c-0.3-0.8,1.4-1.3,1.6-1.6c-0.8,1.3,1.5,0.6,0.3,2c0.2,0,0.5-0.2,0.6-0.6c0.2,0.1,0.3,0.3,0,0.7c1.1,0,0.8-0.6,1.8-0.3
						c-0.1,0.2-0.2,0.2-0.5,0.5c0.6-0.3,1.1-0.6,1.9-0.2c-0.1,0.1,0,0.3-0.2,0.2c0.7,0.1,1.4,0,2,0s1.4,0,2,0.5
						c-0.8,0.8,0.3,0.5,0.1,1.3c0.3,0,0.6,0,0.9,0.1l-0.1-0.6c0.7,0.3,1.5,0,1.9,0.6l-0.7,0.1l1.4,0.5l-0.6-0.6
						c0.9-0.1,0.3-1,1.1-0.3c-0.2,0,0.7,0.3,0.8,0.9l0,0c0.5-0.1,0.9-0.1,1.3,0.3c0,0.3-0.6,0.8-0.6,1c0.7-0.5,1.6,0.7,2.4,0.2
						c-0.2,0.1-0.5,0.5-0.5,0.6l0.6-0.3c0.2,0.3,0.2,0.5,0,0.7c0.8,0.7,0.3-1.1,1,0c-0.1,0-0.1,0.1-0.3,0c0.9,0.9,2.3,1,3,1.9
						c-0.2,0.9-0.9-0.5-1,0.3c0.7,0.5,1.5,0.7,2.3,1.1c0.8,0.3,1.6,0.7,2,1.4l-0.1-0.2c1-0.8,0.5,1.3,1.5,1.4
						c-0.2-0.1-0.7,0.3-0.6,0.2c0.3,0.5,0.8,0.7,1.4,1.1c0.6,0.3,1.1,0.7,1.8,1.3h-0.3c0.2,0.7,1,1.4,1.3,2c0.3,0,0.6,0.3,0.8-0.1
						c-0.1,1.4,0.8,2,1.5,2.7c0.7,0.7,1.5,1.4,1.4,2.5c-0.1-0.2-0.6-0.3-0.5-0.1c0.3,0.3,0.7,0.8,1,1.3c0.5-0.3,0.2-0.3,0.5-0.8
						c0.3,0,0.8,0.3,1,0.7c-0.7-0.5-0.8,0.3-0.9,0.8c0.1-0.1,0.3-0.1,0.5-0.2c-0.5,1.1,1-0.3,0.9,1h-0.2c0.3,0.3,0.8,0.6,0.9,1
						c-0.5,0.5-0.5-0.3-0.9-0.1c0.2,0.6,1.5,0.8,1.1,1.6c-0.2-0.2-0.5-0.6-0.7-0.8c-0.5,0.9-0.2,0.8-0.2,1.4l0,0
						c0,0.3,0.1,0.7,0,1.1l0.1-0.3c1.7,0.3,0.7,1.5,1.9,2.3c-1.3-0.8-0.6,0-1.3,0c-0.1,0.3-0.2,0.8-0.5,0.7c0.7,0.3-0.3,0.9,0.7,1.5
						c-0.2,0.1,0.1,0.6-0.5,0.5c0.2,0.6,0.3-0.2,0.7-0.2c0.5,0.5,0.3,1,0.2,1.7c-0.1,0.7-0.3,1.4,0.2,2c0.5,1.3,1.3,1.5,1.5,2.7
						c-0.3,0.3-0.8-0.3-0.8-0.3c-0.3,0.7-0.3,1.1-0.1,1.7c-0.2-0.1-0.3,0-0.6,0.1c0,0.5,0.8,0.5,0.3,1c-0.2-0.1-0.6-0.3-0.8-0.6
						c0.1,0.6,0.3,1.3,0.5,1.8c-0.5,0.1-0.5-0.5-0.7-0.7c0,0.7,0,1.7,0.6,2c0.1-0.1,0.2-0.2,0.3-0.3c0,0.2-0.6,0-0.6-0.2
						c-0.3-0.7,0.3-0.8,0.6-0.8l0.1,0.5c1.4-0.1,0.1-1.7,0.3-2.6l0.9,0.5c-0.2-0.3-0.5-0.7-0.7-1c0.2-0.1,0.8-0.2,0.9,0.2
						c0.5-0.6-0.3-0.6,0.2-1.1c0.1,0,0.1,0,0.1,0l-0.2-0.7c0.2,0.1,0.7-0.1,0.5,0.3c0.3-0.6,0.1-1,0-1.4c-0.1-0.3-0.3-0.7,0-0.9
						l0.1,0.1c-0.3-1.6-0.7-0.1-1.6-1.3c0.6-0.2,1.1-0.6,1.7-0.9l-0.7-0.1c0-0.1,0-0.5,0.3-0.5c-0.6-0.6-0.3,0.1-0.8-0.2
						c0.5-0.8-0.6-2,0.5-2.4c-0.6-0.2-0.3,0.8-0.8,0c1.1-0.5-0.3-0.9,0-1.7c0.7,0.1,0.6,0.8,0.9,0c-1.1-0.2-0.1-1.4-0.5-1.9
						c-0.8,0.2-0.7-1.1-1.3-2c0.2,0-0.2-1.9-0.3-3h0.1c-0.8,0.2-1.1-0.8-1.6-1.4c0.5-0.2,0.7-0.2,1,0.1l-0.3-0.6
						c-0.3,0-0.6-0.1-0.8-0.5l0.7-0.1c-0.5-0.8-1.6-1.3-1.8-2.4c-0.6,0.2-0.9,1.6-1.8,0.8c0.2-0.2,0.7-0.6,0.9-0.3
						c-0.1-0.1-0.5-0.1-0.5-0.5l0.7,0.1c-0.1-0.6-0.6,0-0.7-0.3c0.3-0.2,0.1-0.5,0.5-0.6c0.1,0.1,0,0.5,0.2,0.5
						c-0.2-0.5-0.2-1.1-0.1-1.4c-0.2,0.2-0.5,0.3-0.8,0.1c-0.6-0.7,0.2-0.6,0.1-1.1c-0.3,0-0.5-0.7-1-0.2c-0.1-0.2,0.1-0.5,0.1-0.7
						c-0.2-0.1-0.6-0.6-0.9-0.8c-0.3-0.2-0.6-0.5-0.7,0v0.1c0,0,0,0-0.1,0l0,0l0,0c-0.8-0.3-1.1-1-1.6-1.6c-0.2-0.3-0.5-0.7-0.7-1
						c-0.2-0.3-0.6-0.6-0.8-0.8l0.1-0.1c-0.8-0.5-1.6-1.3-2.4-1.4c-0.2-0.2-0.2-0.7,0.1-0.8c-0.7-0.3-0.9-0.1-1.4-1
						c0.8,0.1,0-0.5,0.7,0.2c-0.6-0.7-0.6-1.1-1.6-1.3c0.6-0.2-0.1-1-0.6-1.1c0.1,0.2,0.2,0.5,0.2,0.7c-0.5-0.2-0.8-0.5-1-0.8
						l0.6-0.5c-0.6-0.9-1.5-1-2.3-1.1c-0.8-0.2-1.6-0.3-1.8-1.3c-0.7,0.2,0.7,0.8,0,1.1c-0.7-0.5-0.9-1.8-1.1-2
						c-0.8-0.9-1.5,0.5-2.4-0.3c0,0.3-0.1,1-1,0.9c-0.7-0.5-0.5-1.5,0.1-1.5c0.2,0.1,0.2,0.2,0.2,0.2c0.3,0,0.7,0.1,0.5-0.3
						l-0.2,0.2c-0.2-0.5-1.4-0.9-0.9-1.1c-0.7,0-0.5,0.3,0,0.6c-0.8-0.8-1.5-0.7-2.5-1.4c0.1,0.2,0.1,0.6,0,0.5
						c-1.5-0.8-0.9,0.2-1.9,0c-0.5-0.6,0.6-0.9-0.7-0.9c-0.6-0.5,0.1-0.7,0.5-0.8c-1.1,0.1-1.7-0.9-2.3-1.1l0.6-0.1
						c-0.3,0-0.6,0-0.9-0.1l0.1,0.6c-0.3-0.1-0.6-0.2-0.5-0.5c-0.5,0.2,0,0.9-0.7,1.3c-0.3-0.3-1.3,0-1.3-0.8c1.3,0.6,0-0.7,1.1-0.6
						c-0.2,0-0.5,0-0.8-0.2c0-0.1,0.1-0.1,0.1-0.1c-1.1-0.9-0.8,0.7-2,0.5c0.2-0.3-0.1-0.8-0.5-0.8c0.6,0.1,0.1,0.7-0.3,0.9
						c-0.8-0.5-0.9,0.1-1.4,0l0.5,0.2c-0.2,0.3-0.7,0.2-1.3,0.3c0-0.3,0.6-0.1,0.3-0.3c-0.7,0.6-1.4-0.9-2.3-0.5
						c-0.3-0.3,0-0.8-0.3-1c-1,0.5-1.1-0.7-2.2-0.2c0.3,0.6,0.3,0.5-0.5,0.9c0.6-0.1,1.1-0.2,1.8-0.3l-1.1,0.7
						c0.6,0,1.1-0.2,1.5-0.1c-0.6,0.5-0.5,0.2-0.2,0.8c-0.7-0.9-1.5,0.3-2.3-0.1v-1.4c-0.7-0.3-1.3-0.1-1.8,0.1
						c-0.6,0.2-1.3,0.5-2,0.3l0.6,0.2c-0.2,0.6-1,0.1-1.5,0.5c0-0.5-0.3-0.6-0.6-0.8c0.1,0.3-1.3,0.1-1.3,1
						c-0.2-0.2-0.6-0.3-0.8-0.5c-1.4,0-1.3,1.6-2.5,1.6c0.2-0.6-0.3-0.8,0.5-1.3c-0.5,0.1-0.8,0.1-0.8,0.3c-0.3-0.2-1,0.9-1.5,0.6
						c-0.1,0.2-0.1,0.7-0.6,0.8c-0.1-0.1-0.1-0.2-0.1-0.2c0,0.2-0.7,0.5-0.1,0.9c-0.8-0.5-1.7-0.2-2.5,0.1c-0.8,0.3-1.6,0.8-2.4,0.3
						c-0.8,0.5-1.7,1.1-2.5,1.5c0-0.1-0.1-0.2,0.1-0.2c-1.3,0.1,0,1.5-1.4,1.7c-0.9-0.2,0.3-0.7-0.1-0.7c-0.9-1.1-1.3,1-2.5,0.8
						l0.1-0.2c-0.5,0-0.7,0.3-1,0.7c-0.2,0.5-0.6,0.9-1,1.3c0,0,0-0.1-0.1-0.2c-0.1,1.1-1.1,2-1.7,3.1c-0.1-0.7,0.1-0.6-0.5-0.8
						c-0.2,0.3,0.8,0.6,0.2,1.4c-0.5,0-1.1,0.2-1.6-0.1l0.6-0.7c-0.9-0.2-0.8,0.9-1.3,1.1l-0.2-0.2c-0.8,1.1-0.1,1.8-1.1,2.8h0.3
						c0.2,1.1-0.9,0.2-0.8,1.3l-0.9-0.3c-0.1,0.6-0.2,2-0.6,3c-0.3-0.8,0-1.9,0-2.7c-0.3,0.5-0.9,1.6-0.7,2c0-0.2,0-0.6,0.2-0.7
						c0.1,0.5,0.1,0.9,0.1,1.4c0,0.5-0.1,0.9-0.3,1.4c-0.8-0.5-1.1,0.1-1.6,0.8c-0.5,0.7-0.7,1.6-1.5,1.8c0,1-0.5,1.9-0.7,2.8
						c-0.3,0.9-0.7,1.9-0.9,3.1c0.8-0.3,0.7-0.1,0.7,0.1s0,0.6,0.7,0.6c0,0.6,0,0.7-0.1,0.8l-0.9,1.5c-0.5,0.3-0.2-0.5-0.6-0.5
						c-0.2,1.1-0.6,0.5-1,1.3c0.5-0.1,0.7,0.5,0.6,1.1l0.6-0.9c0.8,1.6-1.1,1.5-0.3,3.1l-0.5-0.5c0.2,0.8,0.3,3.2,1.6,3.8
						c-0.1,0.2-0.5,0.5-0.7,0.1c0,1,0.7,2,1.1,3c0.2,0.5,0.5,0.9,0.6,1.4c0.1,0.5,0.3,0.9,0.2,1.3h-0.3c0.2,0.3,0.8,0.3,0.7,0.9
						c-0.1,0-0.3,0-0.3,0.1c0.2,0.1,0.9,0.7,0.9,1.3l-0.5-0.2c0.3,1.9,2.2,2.3,3,3.5c-0.9,0.5-0.3,1.9-0.1,2.6h-0.1
						c0.2,0.5,0.6,0.9,0.9,1.3c0.3,0.3,0.8,0.7,1.1,0.9c0.8,0.6,1.6,1.1,2.4,1.8c0,0.8,0.7,1.7,1.4,2.6c0.2,0.2,0.3,0.5,0.6,0.7
						c0.2,0.2,0.5,0.5,0.6,0.7c0.5,0.5,0.8,0.9,1,1.4c-0.1-0.3,0.6-0.6,0.9-0.3c0.2,0.5,1.4,0.3,0.8,1l-0.1-0.1
						c-0.3,0.9,0.7,1.4,1.3,1.8l0.8-0.9c0.1,0.7,0.5,1.1,0.9,1.6c0.5,0.5,1,0.7,1.6,0.9c1.1,0.5,2,0.9,2.2,1.9
						c0.6,0,1.1,0.2,1.7,0.2l-0.3,0.6c0.6,0.3,1,0.7,1.5,1c0.5,0.3,1,0.6,1.8,0.8l-0.5,0.2c0.9,0.5,1.8-1.3,2.6-0.9l-0.1,1
						c1.5,0.7,2.8,1.9,4.5,1.7c-0.1,0.1-0.2,0.3-0.5,0.3c0.3,0.1,1,0.6,1.6,0.7c0.6,0.1,1.1,0.1,1.1-0.6c-0.2,0.8,1.6,0.5,2.5,0.3
						l-0.2,0.6c0.9-0.6,0.9-0.8,2-0.9c0.2,0.1,0.1,0.6-0.1,0.3c0.8,0.5,0.7-0.5,1.6,0l-0.5,0.3c0.8,0.2,0.8,0,1.3-0.5
						c0.6-0.1,1.5,0.3,1.6,0.9c0.1-0.3,0.7-0.8,1.1-0.6c0,0.2-0.1,0.3-0.2,0.5c1.4,0.6,2-0.6,3,0c0,0.2,0.1,0.3,0.1,0.3
						c-1.1,0-2-0.1-1.9-0.1c0,0.6,0.9,0.8,0.1,1.5c0.8-0.3,2-1.4,2.8-1c0,0,0.1,0.1,0.1,0.2l-0.1,0.1c0.2,0,0.3,0,0.6-0.1
						c0.2,0.1,0.5,0.1,0.7,0.1c0.1,0.5,1,0.2,1.5,0.2c-0.1-0.7,0.6-0.6-0.1-1c0.1,0-0.1,0.1-0.3,0.1c-0.1,0-0.1,0-0.2,0.1
						c0,0,0,0,0-0.1c-0.3,0-0.7,0-1.1,0.1c0.3-0.3,0.7-0.6,1.3-0.2c0.2-0.5,0.5-0.9,0.6-1.1c0.7,0.8,1.9,1.3,2.2,1.7
						c0.3-0.1,0.7-0.2,1-0.3c0.3-0.1,0.8-0.2,1.1-0.5c0.7-0.3,1.4-0.7,1.6-1.4c0.3-0.2,0.5,0.2,0.7,0.5c-0.2,0.1-0.5,0.2-0.6,0.3
						c0.7-0.3,2.2-0.7,2.2-1.5c1,0.1-0.3,0.9,0.9,0.5l-0.1,0.3c0.7,0.1,1.4,0,1.8-0.2c0.5-0.3,0.9-0.8,1.4-1.1
						c0.5-0.5,0.9-0.8,1.4-1.1c0.6-0.3,1.1-0.5,1.9-0.5c-0.2,0-0.3,0-0.5-0.1c0.8-0.2,1.6-0.6,2.4-0.9c0.7-0.5,1.4-1,2-1.5
						c0.7-0.5,1.4-1.1,2-1.6c0.7-0.6,1.5-0.9,2.3-1.3c0.8-0.5,0.6-0.9,0.7-1.6l0.7,0.3l0.1-1.3c0.2-0.7,0.9-0.9,1.6-1.1
						c0.7-0.3,1.4-0.7,1.5-1.7l-0.5-0.1c0.5-0.5,0.8-1.8,1.3-1.5c0-0.1-0.3-0.5,0-0.5l0.3,0.1c0.1-0.6,0.2-1,0.2-1.6
						c0.7-0.9,1.1,0.8,2-0.8c0.1-0.7-0.2-2.2-0.5-1.9c-0.1,0.2-0.5,0.6-0.8,0.3l0.1-0.6c-0.9-0.5-1.8-1.3-3-0.3l0.2,1h-0.6l0.3-0.7
						c-0.6,0.2-0.3,0.6-0.2,1c-0.2,0-0.5,0-0.7,0.1c0.2,0.5,0.3,0.8,0.5,1.3c-0.5-0.1-0.6-0.7-1-0.3c0.2,0.6,1,0.1,0.9,0.9
						c-0.7,0.1-0.9-0.2-0.8,0.5c-0.2-0.1-0.3-0.2-0.3-0.5c0,0.6-0.5,1-0.1,1.6c-0.7,0.1-0.8,1.3-1.6,0.7c0.1,0.2,0.1,1.1-0.1,1.5
						c-0.2-0.7-0.5-0.3-0.8,0c-0.2,0.3-0.7,0.7-1.1,0.1c0.3,1.1-1,1.7-1.4,2.8c0-0.1,0-0.3,0.1-0.3c-0.5,0.2-0.8,0.1-1.3,0.2
						c0.6,0.7,0,1.5-0.1,2.2c-1-0.2-0.3-1.1-1-1.6c0.5,0.6-0.5,1.4,0,1.6c-0.8-0.1-0.6,0-1.1-0.5c0.6,1-0.3,0.5-0.3,1.3
						c-0.9,0-0.7-0.8-1.3,0C300.7,410.7,301.2,410,301.2,410z M282.5,416.8L282.5,416.8c0.2,0,0.3,0,0.5,0
						C282.9,416.7,282.8,416.7,282.5,416.8z M280.8,416.8c0.2,0,0.5,0,0.8,0c0,0.2,0,0.5-0.2,0.5
						C281.5,417.2,281.1,417.1,280.8,416.8z M284.7,421.3c-0.3,0.1-0.5,0-0.5-0.1c0.1,0,0.3,0,0.6-0.1c0,0,0,0,0-0.1
						C284.8,421.1,284.8,421.2,284.7,421.3z"/>
					<path class="st0" d="M285.3,420.4c0,0,0.1,0,0.1-0.1c-0.1,0-0.1-0.1-0.2-0.1c0,0.1-0.1,0.1-0.1,0.2
						C285.2,420.4,285.2,420.4,285.3,420.4z"/>
					<path class="st0" d="M309.7,364.3L309.7,364.3L309.7,364.3L309.7,364.3z"/>
					<polygon class="st0" points="258.8,408.9 258.7,409 258.9,409 					"/>
					<path class="st0" d="M313.2,373.8c0,0-0.1,0.1-0.1,0.2C313.2,373.9,313.2,373.8,313.2,373.8z"/>
					<path class="st0" d="M314.7,377.6v0.6C314.7,378,314.7,377.7,314.7,377.6z"/>
					<path class="st0" d="M315.3,380.7c0.1,0,0.2,0,0.2,0l0,0H315.3z"/>
					<path class="st0" d="M278.8,350.9h-0.1C278.3,351,278.6,351,278.8,350.9z"/>
					<path class="st0" d="M293.5,354c-0.2,0-0.3,0.1-0.6,0.1C293.1,354.2,293.3,354.3,293.5,354z"/>
					<path class="st0" d="M262.7,352.4L262.7,352.4L262.7,352.4L262.7,352.4z"/>
					<path class="st0" d="M292.3,353.8c0.2,0.2,0.5,0.3,0.7,0.3C292.8,353.9,292.5,353.8,292.3,353.8z"/>
					<path class="st0" d="M315,394v0.1h0.1L315,394z"/>
					<path class="st0" d="M315.2,394.1v0.2C315.2,394.2,315.2,394.2,315.2,394.1z"/>
					<path class="st0" d="M315.3,394.7c0-0.1,0-0.2-0.1-0.3C315.2,394.5,315,394.6,315.3,394.7z"/>
					<path class="st0" d="M316,390l-0.2-0.1C315.8,389.9,315.8,390,316,390z"/>
					<path class="st0" d="M316.1,388.8c-0.1,0.3-0.6,0.7-0.5,1.1h0.2C315.5,389.7,316.4,389,316.1,388.8z"/>
					<path class="st0" d="M318.6,383.1v1.1c0.2-0.2,0.5-0.6,0.7,0C319.7,382.7,318.7,384.7,318.6,383.1z"/>
					<path class="st0" d="M318.2,379.6c0.2,0.6,0.3-0.1,0.5-0.1C318.3,379.1,318.3,379.1,318.2,379.6z"/>
					<path class="st0" d="M304.5,358.3l0.5-0.5C304.5,357.6,304.7,358.1,304.5,358.3z"/>
					<polygon class="st0" points="298.9,357.9 299,358.4 299.5,358.1 					"/>
					<path class="st0" d="M298.7,352.7h0.2c-0.2-0.1-0.6-0.1-0.8-0.2L298.7,352.7z"/>
					<path class="st0" d="M256.4,348.5l0.3,0.6C257.1,349,256.9,348.2,256.4,348.5z"/>
					<path class="st0" d="M241.6,360.4c-0.5,0-0.9,0.2-0.9,0.7C241.1,360.7,241.5,360.6,241.6,360.4z"/>
					<polygon class="st0" points="251.6,410.9 251.2,410.9 251.9,411.2 					"/>
				</g>
			</g>
		</g>
	</g>
</g>
<g>
	<g>
		<g>
			<g>
				<g>
					<path class="st0" d="M144.8,326.8c0.2,0,0.6-0.2,0.5-0.3l-0.8,0.2L144.8,326.8z"/>
					<path class="st0" d="M145.4,324.9c-0.5-0.1-1.1,0-1.7,0.5c0.7-0.1,0.5,0,1.4-0.1c0.2,0.1,0,0.5-0.3,0.6c0.2,0,0,0.3,0.5,0.2
						c0.5-0.5,0.2-0.8-0.3-0.9C145,325,145.2,325,145.4,324.9z"/>
					<path class="st0" d="M127.7,313.1l0.1,0.1C127.9,313.1,127.7,313.1,127.7,313.1z"/>
					<path class="st0" d="M113.9,314.7c0.1,0,0.1-0.1,0.1-0.2C113.9,314.6,113.9,314.7,113.9,314.7z"/>
					<path class="st0" d="M111.4,314.9c0.1,0,0.1,0,0.1,0C111.4,314.8,111.4,314.8,111.4,314.9z"/>
					<path class="st0" d="M127.7,313.1l-0.3-0.2C127.3,313.1,127.5,313,127.7,313.1z"/>
					<path class="st0" d="M142.4,323.5c0.1,0,0.1,0,0.2,0C142.5,323.5,142.5,323.5,142.4,323.5L142.4,323.5z"/>
					<path class="st0" d="M134,313.6L134,313.6c0.1,0,0.2-0.1,0.3-0.2L134,313.6z"/>
					<path class="st0" d="M138.5,315.5c-0.1-0.1-0.5,0.5-0.6,0.7c0.2-0.2,0.3-0.2,0.5-0.2C138.4,315.8,138.4,315.7,138.5,315.5z"/>
					<path class="st0" d="M143.8,321.1h0.1H143.8z"/>
					<path class="st0" d="M130.6,312.6c0-0.1,0-0.2,0-0.2C130.6,312.5,130.6,312.6,130.6,312.6z"/>
					<path class="st0" d="M144.6,331.7C144.7,331.7,144.7,331.7,144.6,331.7C144.7,331.6,144.6,331.6,144.6,331.7z"/>
					<path class="st0" d="M146.4,326.1L146.4,326.1c0.1,0,0.2,0,0.3-0.1L146.4,326.1z"/>
					<path class="st0" d="M106.9,316.4L106.9,316.4C107.1,316.1,106.9,316.3,106.9,316.4z"/>
					<path class="st0" d="M98.2,353.7c0.1-0.7,1,0.1,1.1-0.8C99.1,353.1,98.1,353,98.2,353.7z"/>
					<path class="st0" d="M142.4,323.4l-0.1-0.1C142.3,323.3,142.3,323.4,142.4,323.4z"/>
					<path class="st0" d="M99.2,352.9L99.2,352.9L99.2,352.9C99.2,352.7,99.2,352.7,99.2,352.9z"/>
					<path class="st0" d="M99.3,323.6c0.1,0,0.2,0.1,0.3,0.1C99.5,323.6,99.4,323.6,99.3,323.6z"/>
					<path class="st0" d="M105.5,318.9h-0.2C105.3,319,105.5,319,105.5,318.9z"/>
					<path class="st0" d="M97.6,327.5c-0.1,0.1-0.2,0-0.2,0.2h0.1C97.5,327.6,97.5,327.5,97.6,327.5z"/>
					<path class="st0" d="M95.8,331.3h0.1v-0.1L95.8,331.3z"/>
					<path class="st0" d="M143.2,341.7c0.2,0,0.3,0,0.6,0.1C143.4,341.7,143.4,341.1,143.2,341.7z"/>
					<path class="st0" d="M142.6,323.3c-0.1,0.1-0.2,0.1-0.3,0.1c0,0,0.1,0,0.1,0.1C142.5,323.4,142.6,323.3,142.6,323.3z"/>
					<path class="st0" d="M101.9,330.2l-0.3,0.5C101.7,330.6,101.8,330.4,101.9,330.2z"/>
					<path class="st0" d="M123.6,356.6L123.6,356.6C123.8,356.5,123.6,356.5,123.6,356.6z"/>
					<path class="st0" d="M100.9,332.1c-0.2,0-0.5,0-0.6,0.1l0.1,0.1L100.9,332.1z"/>
					<path class="st0" d="M143.8,341.8L143.8,341.8L143.8,341.8z"/>
					<path class="st0" d="M143.5,338c-0.1,0.5,0.8,0.5,1.1,0.7c0,0.7-0.7,0.1-1.1,0.2c0.1,0.5,0.7,0.9,0.6,1.3c-0.1,0-0.2,0-0.3-0.1
						c0.6,0.7-0.3,1.1,0.1,1.9c-0.1,0-0.1,0-0.2,0c0.5,0.1,0.8,0.2,1.1,0.3c-0.1,0.2,0.3,0.7-0.2,0.6c0.1-0.1-0.1-0.2-0.2-0.3
						l0.1,0.3c-0.8-0.1-0.1-0.5-0.7-0.7c0,0.6,0.3,1.4,0,1.6c-0.7-0.3,0.2-0.9-0.7-0.8c0.2-0.1,0.3-0.2,0.6-0.3
						c-1.3-0.1,0.2-0.2-1.1-0.5c-0.5,0.6,0,0.9-0.6,1.5c0.3,0.3,0.6,0.2,0.9,0.7c0.1,1.4-2-0.3-1.7,0.9c0.3,0.5,1,1.1,0.3,1.3
						l-0.6-0.7c-0.5,0.6,0.8,1.1-0.2,1.4c-0.2-0.3,0.1-0.7,0-0.6c-0.9,0,0.1,0.6-0.1,0.9l-0.7-0.5c-0.2,0.3-0.3,0.8-0.5,1.3
						c-0.2,0.5-0.3,0.9-0.7,1.3c-0.1-0.2-0.2-0.5-0.5-0.5c-0.5,1.1-1.8,1.6-3,1.8l0.1,0.8c-0.1,0-0.3-0.1-0.3-0.3
						c-0.5,0,0.2,0.3,0.2,0.7c-0.1,0.2-0.5-0.1-0.5-0.3c-0.1,0.5-0.3,1-0.8,1.5c-0.3,0.3-0.9,0.7-1.4,0.6v-0.2
						c-0.7,0.1,0.1,1.6-0.7,1.3v-0.1c-1.4,0.3-2.4,1.6-3.8,0.9c0.1,0.9-1.4,0.1-1,1.4c-0.9-0.5-0.8-0.7-1.9-0.8
						c-0.2,0-0.2,0.9-0.5,1.1l-0.2-0.7l-0.3,0.8l-0.5-0.8l-0.2,0.2c0.1,0,0.3,0.2,0.3,0.5c-0.5,0.5-1.4-0.2-1.4-0.6
						c-0.3,0.2-0.7,0.5-1.1,0.8c0-0.2,0.2-0.5,0.3-0.6c-0.6,0.8-0.2-0.7-0.7,0c0.1,0.1,0,0.5,0,0.6c-0.3-0.3-1-0.3-1.5-0.1l0.1-0.5
						c-0.9-0.1-1.8,0.3-2.8,0.2c0.3,0.2,0.2,1-0.1,1.1l-0.1-0.8c-0.2,0.5,0.3,0.3-0.1,0.8c-0.3-0.1-0.2-0.9,0-1.1l-0.5,0.2
						c0-0.2,0.1-0.3,0.1-0.6c-0.2,0.5-0.7-0.8-1,0v-0.2c-0.9-0.1-1.5,0.1-2.2-0.1c-0.1,0.6-0.5,0.5-0.8,0.9
						c-0.2-0.1-0.6-0.5-0.8-0.7c-0.2-0.2-0.6-0.5-0.9-0.6c-0.6,0.1-0.3,0.5-0.7,0.8c0.1-0.6-0.6-0.7,0-1c-0.8-0.2-1-0.3-2.3-0.3
						c0,0.2,0.1,0.5-0.1,0.6c-0.2,0-0.3-0.5-0.1-0.7h0.1c-0.7,0.1-1.1-0.7-1.5-1.3c-0.3-0.7-0.6-1.4-1.4-1.1h0.1
						c-0.5,0-0.8-0.1-1.1-0.1c-0.2-0.3,0.5-0.1,0.5-0.7c-0.7,0-1-0.3-1.3-0.6c-0.2-0.3-0.3-0.7-0.9-0.8c0.2-0.5,0.2-0.7,0.1-0.9
						c-0.1-0.2-0.2-0.5-0.5-0.7c-0.5-0.5-0.9-0.9-0.7-1.5l-0.3,0.2c-0.5,0,0.1-0.3,0.1-0.6c-0.2,0.1-0.2,0.3-0.5,0.3
						c-0.7-0.7-0.9-1.8-1-2.8c0-1,0.1-2,0.2-3c0-0.7-2.2-0.2-1.3-1.3L99,341c-0.5-0.7-0.5-1.5-0.3-2.2c0-0.3,0.1-0.8,0.1-1.1
						c0-0.3,0-0.8-0.1-1.1c0.1,0.1,0.3,0.2,0.3,0.3c0.6-0.2,0.2-1.1-0.1-1.3c0.1-0.2,0.5,0,0.7,0c0.5-0.2-0.5-0.9,0.1-0.9
						c0.1,0,0.1,0.1,0.1,0.2c-0.2-0.2,0.3-0.9-0.3-0.9c0.5-0.5,0.1-1.1,0.7-1.4c-0.6-0.6,0.7-0.7-0.1-1.3c0.9,0.5,1.3-0.5,1-1
						c0.2,0.2,0.5-0.1,0.7,0.2c0.1-0.3,0.2-0.8-0.2-1c1.5,0.1,0.1-1.8,1.6-1.3c0.3-1.3,0.8-2.4,1.5-3.4c0.7,0.8-0.8,0.9,0,1.7
						c0.5-1,0.2-2.2,1.1-2.6c0.3-0.1,0.2,0.5,0.2,0.6c0.6-1,1.6-1.3,2-2.3c0,0.1,0,0.2,0,0.3c0.1-0.1,0.5-0.1,0.1-0.5l-0.1,0.2
						c-0.7-0.3-0.2-1.6-0.3-1.9c0.5,1.3,1-0.3,1.5,1.4c0-0.1,0-0.5-0.1-0.7c0.2,0,0.3,0.1,0.3,0.5c0.5-0.6,0-0.9,0.5-1.1
						c0.1,0.2,0,0.3,0.1,0.6c0-0.6,0.1-1,0.7-1.1c0,0.1,0.2,0.2,0,0.3c0.7-0.6,0.8-1.7,1.9-1.8c0.1,1,0.5,0.1,0.8,0.9
						c0.1-0.1,0.2-0.3,0.3-0.5l-0.3-0.3c0.5-0.1,0.6-0.9,1-0.8l-0.2,0.5l0.8-0.5l-0.6-0.1c0.3-0.6-0.5-1,0.2-1
						c-0.1,0.1,0.5-0.2,0.9,0.2l0,0c0.1-0.3,0.3-0.7,0.7-0.6c0.1,0.2,0.2,0.9,0.3,1c0-0.8,1-0.5,1.1-1.4c0,0.2,0.1,0.7,0.1,0.7v-0.6
						c0.2,0.1,0.3,0.2,0.3,0.6c0.7,0-0.5-1,0.5-0.7c0,0.1,0,0.1-0.1,0.2c0.8,0.1,1.4-0.7,2.2-0.6c0.3,0.8-0.6,0.3-0.2,1
						c0.9-0.2,1.9-1.4,3-1.1l-0.2-0.1c0.1-1.3,0.8,0.6,1.3,0c-0.1,0.1-0.1,0.7-0.1,0.6c0.7,0.1,1.4-0.3,2.5-0.6l-0.1,0.3
						c0.3,0.3,1,0.2,1.5,0.5c0.1-0.3,0.5-0.2,0.3-0.7c0.6,1,1.3,0.8,1.8,0.7c0.7-0.1,1.4-0.2,1.7,0.6c-0.1,0-0.5,0.2-0.3,0.2
						c0.3,0,0.7,0,1,0c0.1-0.6,0-0.3-0.1-0.8c0.2-0.2,0.6-0.3,0.8-0.3c-0.6,0.2-0.2,0.8-0.2,1.1c0-0.1,0.1-0.3,0.2-0.5
						c0.2,1,0.5-0.9,0.9-0.1l-0.1,0.2c0.3,0,0.7-0.2,0.9-0.1c-0.1,0.6-0.3,0.1-0.6,0.6c0.3,0.1,1.3-0.7,1.4,0c-0.2,0.1-0.5,0-0.7,0
						c0.1,0.8,0.2,0.7,0.5,0.9l0,0c0.1,0.2,0.3,0.3,0.5,0.6l-0.1-0.2c1.1-1.1,1,0.2,2.2-0.2c-1.1,0.5-0.3,0.5-0.8,1
						c0,0.2,0.1,0.6,0,0.7c0.6-0.3,0.2,0.7,1,0.2c-0.1,0.2,0.2,0.2-0.1,0.6c0.5,0.1,0.1-0.3,0.3-0.6c0.5-0.1,0.7,0.3,0.9,0.7
						c0.2,0.5,0.3,0.8,1,0.8c0.9,0.2,1.5-0.1,2.3,0.2c-0.1,0.5-0.8,0.3-0.8,0.3c0,0.6,0.2,0.7,0.7,0.9c-0.2,0.1-0.2,0.2-0.5,0.5
						c0.2,0.2,0.8-0.3,0.7,0.2c-0.2,0.1-0.6,0.2-0.9,0.2c0.3,0.1,0.9,0.2,1.3,0.5c-0.2,0.3-0.6,0.1-0.9,0.2c0.3,0.2,0.9,0.7,1.5,0.5
						c0-0.1,0-0.2,0-0.3c0.1,0.1-0.5,0.3-0.6,0.3c-0.6,0-0.1-0.6,0.1-0.7l0.2,0.1c0.9-0.9-0.8-0.8-1-1.3l0.9-0.3c-0.3,0-0.7,0-1,0
						c0.1-0.2,0.5-0.7,0.8-0.6c0.1-0.6-0.5-0.1-0.3-0.7c0-0.1,0.1-0.1,0.1-0.1l-0.5-0.1c0.2-0.1,0.5-0.5,0.6-0.2
						c-0.1-0.9-1.3-0.5-1-1.1h0.1c-1-0.5-0.6,0.5-1.7,0.6c0.2-0.6,0.6-1,0.8-1.6l-0.6,0.5c-0.1-0.1-0.2-0.2,0-0.5
						c-0.6,0.1-0.1,0.2-0.6,0.5c0-0.8-1.3-0.6-0.7-1.6c-0.5,0.3,0.1,0.6-0.5,0.6c0.6-1-0.6-0.2-0.7-0.9c0.5-0.5,0.7,0,0.6-0.7
						c-0.8,0.7-0.7-0.7-1.1-0.7c-0.5,0.7-0.9-0.1-1.6-0.1c0.1-0.2-0.9-0.9-1.5-1.5l0.1-0.1c-0.5,0.8-0.9,0.3-1.5,0.5
						c0.2-0.5,0.3-0.7,0.7-0.8l-0.5-0.1c-0.2,0.2-0.3,0.3-0.7,0.3l0.3-0.6c-0.6-0.2-1.4,0.5-1.9-0.2c-0.1,0.6,0.2,1.7-0.7,1.9
						c0-0.3,0.1-0.8,0.3-0.9c-0.1,0-0.3,0.2-0.3,0l0.5-0.5c-0.2-0.3-0.2,0.3-0.6,0.2c0.1-0.5-0.1-0.3,0-0.7c0.1,0,0.2,0.2,0.3,0.1
						c-0.2-0.1-0.6-0.5-0.7-0.8c0,0.2-0.1,0.6-0.3,0.6c-0.6,0-0.1-0.6-0.5-0.8c-0.2,0.3-0.6-0.1-0.6,0.6c-0.1,0-0.1-0.3-0.2-0.6
						c-0.2,0.1-0.6,0.1-0.8,0.1c-0.2,0-0.5,0.2-0.3,0.6h0.1l0,0l0,0l0,0c-1,0.7-2-0.6-3-0.2v-0.2c-0.6,0.2-1.3,0.2-1.7,0.7
						c-0.1,0-0.5-0.3-0.3-0.7c-0.5,0.2-0.5,0.5-1.1,0.2c0.5-0.5-0.2-0.3,0.5-0.3c-0.6-0.1-0.8-0.5-1.4,0.2c0.1-0.6-0.6-0.7-0.8-0.5
						c0.1,0.1,0.3,0.2,0.5,0.3c-0.3,0.1-0.6,0.1-0.8,0.1v-0.8c-1.4-0.7-1.8,1.9-3.1,0.7c-0.1,0.6,0.7,0.2,0.6,0.9
						c-0.6,0-1.4-0.8-1.6-0.8c-0.9-0.1-0.3,1.3-1.1,1.3c0.2,0.2,0.5,0.9,0.1,1.4c-0.6,0.1-1-0.8-0.8-1.1c0.1-0.1,0.2,0,0.2,0.1
						c0.1-0.1,0.3-0.3,0-0.6v0.2c-0.3-0.1-1,0.1-1-0.3c-0.3,0.3,0,0.5,0.3,0.5c-0.8-0.1-1,0.3-1.8,0.5c0.1,0.1,0.3,0.3,0.3,0.3
						c-1.1,0.1-0.2,0.7-0.8,1.1c-0.6-0.2-0.3-0.9-0.8-0.3c-0.6,0-0.5-0.6-0.3-0.9c-0.3,0.8-1.3,0.3-1.7,0.5l0.2-0.3
						c-0.1,0.2-0.2,0.3-0.5,0.5l0.5,0.3c-0.2,0-0.3,0.1-0.5-0.1c0,0.5,0.6,0.7,0.5,1.4c-0.3-0.1-0.6,0.7-1,0.1
						c0.9-0.2-0.5-0.6,0.1-1c-0.1,0.1-0.2,0.2-0.5,0.2c-0.1,0,0-0.1,0-0.2c-1.1-0.1,0.1,0.9-0.6,1.4c-0.1-0.5-0.6-0.5-0.7-0.3
						c0.3-0.2,0.6,0.5,0.5,0.9c-0.7,0.1-0.3,0.6-0.6,0.7l0.3-0.1c0.1,0.3-0.1,0.5-0.3,0.8c-0.2-0.2,0.1-0.3,0-0.5
						c0.1,0.8-1.3,0-1.4,0.8c-0.3,0-0.5-0.6-0.8-0.6c-0.2,0.8-0.9,0.1-1.1,0.9c0.6,0.2,0.5,0.1,0.5,0.9c0.2-0.3,0.3-0.7,0.6-1v1
						c0.2-0.2,0.3-0.7,0.6-0.8c0,0.6,0,0.5,0.3,0.7c-0.9-0.3-0.3,0.9-1.1,0.9l-0.9-1c-1,0.2-0.6,1.5-1.5,2.2l0.5-0.1
						c0.3,0.5-0.3,0.6-0.5,1c-0.3-0.3-0.6-0.2-0.9-0.3c0.2,0.2-0.6,0.6,0.1,1.3c-0.2,0-0.5,0-0.8,0c-0.7,0.6,0.5,1.6-0.1,2.2
						c-0.2-0.5-0.8-0.3-0.7-1c-0.1,0.2-0.3,0.5-0.1,0.6c-0.3,0,0.1,1-0.3,1c0.1,0.2,0.5,0.5,0.3,0.7c-0.1,0-0.2-0.1-0.2-0.1
						c0.2,0.1,0,0.6,0.6,0.6c-0.8,0-1.1,0.6-1.3,1.1c-0.2,0.6-0.3,1.1-1,1.3c-0.1,0.6-0.2,1.4-0.3,1.9c-0.1-0.1-0.2-0.1-0.1-0.1
						c-0.7,0.6,1,0.8,0.3,1.5c-0.8,0.2-0.2-0.6-0.6-0.3c-1.5-0.2,0,1-1,1.5v-0.1c-0.3,0.2-0.2,0.5-0.1,0.8c0.1,0.3,0.3,0.7,0.2,1.1
						c0,0-0.1,0-0.2,0c0.7,0.6,0.8,1.6,1,2.3c-0.6-0.2-0.3-0.3-0.9-0.2c0.1,0.3,0.9-0.1,1.1,0.6c-0.3,0.2-0.6,0.7-1.3,0.7v-0.6
						c-0.8,0.3,0,0.8-0.1,1.1h-0.3c0.2,0.9,1.1,0.9,1.1,1.8l0.2-0.1c0.9,0.3-0.5,0.6,0.3,0.9l-0.8,0.3c0.3,0.3,1.1,1,1.5,1.6
						c-0.7-0.1-1.3-0.8-1.7-1.1c0.1,0.3,0.3,1.3,0.8,1.3c-0.1-0.1-0.3-0.2-0.2-0.5c0.3,0.1,0.7,0.3,0.9,0.6s0.5,0.5,0.6,0.8
						c-1.7,0.5,0.2,1.8-0.7,2.8c0.6,0.5,0.8,1,1,1.7c0.2,0.7,0.5,1.4,1,1.9c0.8-1.3,0.3,0.3,1.4-0.6c0.3,0.2,0.3,0.3,0.3,0.3
						c0,0.5,0,0.9,0,1.4c-0.1,0.5-0.5,0-0.7,0.2c0.5,0.7-0.2,0.7-0.1,1.3c0.2-0.5,0.7-0.3,0.9,0.1v-0.9c1.3,0.2-0.1,1.5,1.3,1.7
						l-0.6,0.1c0.6,0.2,1.7,1.4,2.7,0.8c0,0.2-0.1,0.6-0.3,0.6c0.5,0.5,1.4,0.6,2,0.8c0.7,0.1,1.4,0.3,1.7,0.8l-0.2,0.2
						c0.2,0,0.7-0.5,0.8,0c-0.1,0.1-0.2,0.2-0.1,0.3c0.2,0,0.8-0.2,1,0l-0.5,0.2c1,0.9,2.2-0.2,3.2-0.1c-0.3,0.9,0.6,1.5,1,1.8v0.1
						c0.3,0.1,0.7,0.1,1,0.1s0.7-0.1,1-0.2c0.7-0.2,1.3-0.5,1.9-0.6c0.8,1.1,2.8,0.7,4.2,1.1c-0.2-0.2,0-0.8,0.2-0.9
						c0.3,0.2,0.8-0.7,0.8,0.2h-0.1c0.3,0.9,0.9,0.6,1.5,0.6l-0.1-1.3c0.8,0.8,1.6,0.6,2.4,0.1c0.8-0.3,1.4-0.7,1.9,0
						c0.2-0.3,0.6-0.5,0.8-0.9l0.1,0.6c0.9-0.1,1.4-0.1,2.4-0.7l-0.1,0.6c0.6-0.2,0.1-2,0.6-2.3l0.6,0.8c1-0.3,2.4-0.1,3-1.4
						c0,0.1,0.1,0.3,0,0.5c0.5-0.1,2-0.3,1.3-1.5c0.5,0.7,1-0.5,1.3-1.1l0.2,0.6c0-0.9-0.1-1.1,0.2-1.7c0.2,0,0.5,0.3,0.1,0.3
						c0.6,0,0-0.7,0.7-0.8v0.5c0.5-0.2,0.3-0.5,0.2-1c0.1-0.3,0.9-0.5,1.4-0.1c-0.1-0.3-0.2-0.9,0.1-0.9c0.2,0.1,0.2,0.3,0.1,0.5
						c1-0.3,0.6-1.4,1.4-1.4c0.1,0.1,0.2,0.2,0.3,0.2c-0.5,0.6-1,0.8-1,0.8c0.3,0.5,0.9,0.1,1.1,1c0.1-0.7,0-1.9,0.6-2.2
						c0.1,0,0.1,0,0.2,0.1v0.1c0.1,0,0.2-0.2,0.2-0.3c0.2-0.1,0.3-0.1,0.5-0.2c0.5,0.2,0.7-0.3,0.9-0.6c-0.5-0.5-0.2-0.7-0.8-0.7
						c0.1,0,0,0.1-0.1,0.2v0.1l0,0c-0.1,0.1-0.2,0.3-0.5,0.6c-0.1-0.3-0.1-0.7,0.3-0.8c-0.2-0.3-0.5-0.8-0.6-1
						c0.9,0.3,1.8,0,2.3,0.2c0.3-0.9,1.1-1.9,0.5-3.1c0-0.3,0.5,0,0.7,0c0,0.2-0.1,0.3,0,0.5c0-0.6,0.7-1.4,0-1.9
						c0.7-0.3,0.5,0.7,0.8-0.1l0.1,0.2c0.5-0.2,0.8-0.6,0.8-0.9c0.1-0.5,0-0.8-0.1-1.3c-0.1-0.9-0.2-1.7,0.8-2.3
						c-0.1,0.1-0.2,0.1-0.3,0.1c0.3-0.5,0.6-1,0.7-1.5c0.1-0.6,0.1-1.1,0.2-1.7c0.1-0.6,0.1-1.1,0.2-1.7c0.1-0.6,0.3-1,0.6-1.6
						c0.2-0.6-0.3-0.7-0.7-1l0.7-0.1l-0.8-0.6c-0.3-0.5,0-0.8,0.3-1.3c0.3-0.5,0.6-1-0.1-1.5l-0.5,0.2c0-0.5-0.6-1.3,0-1.3
						c-0.1,0-0.5,0-0.3-0.2l0.3-0.1c-0.3-0.2-0.6-0.6-0.9-0.8c0-0.8,1.4-0.3,1-1.5c-0.3-0.3-1.4-0.8-1.6-0.6c0,0.1,0,0.5-0.3,0.7
						l-0.3-0.2c-1,0.3-2,0.6-2.5,1.6l0.8,0.3l-0.5,0.3l-0.2-0.5c-0.3,0.5,0.1,0.5,0.5,0.5c-0.2,0.1-0.5,0.2-0.5,0.3
						c0.3,0.1,0.8,0.1,1.1,0.2c-0.3,0.2-0.8,0-1,0.5c0.5,0.1,0.8-0.5,1.3-0.1c-0.5,0.3-0.8,0.5-0.3,0.6c-0.2,0.1-0.5,0.1-0.6,0
						c0.3,0.2,0.3,0.7,0.9,0.7c-0.5,0.3,0.2,0.9-0.7,1c0.2,0,0.8,0.3,0.9,0.7c-1.3-0.3,0,0.9-1.3,0.9c1,0.3,0.5,1.1,1,1.8
						c-0.1,0-0.2-0.1-0.2-0.1c-0.1,0.3-0.5,0.5-0.7,0.6c0.9,0.1,1,0.7,1.5,1c-0.9,0.3-1-0.5-1.8-0.3c0.7,0.1,0.7,0.8,1.3,0.8
						c-0.6,0.2-0.3,0.2-1,0.2c1.1,0.2,0.1,0.3,0.7,0.7c-0.7,0.3-1-0.1-0.8,0.5C143.9,338.4,143.5,338,143.5,338z M139,349.4
						L139,349.4c0.1-0.1,0.1-0.2,0.1-0.2S139.1,349.3,139,349.4z M138.3,350.2c0.1-0.1,0.2-0.2,0.3-0.3c0.2,0.1,0.3,0.3,0.2,0.3
						C138.8,350.1,138.5,350.2,138.3,350.2z M143.2,351.5c-0.1,0.2-0.2,0.1-0.3,0.1c0.1-0.1,0.1-0.1,0.2-0.3c0,0,0,0,0-0.1
						C143.1,351.4,143.1,351.5,143.2,351.5z"/>
					<path class="st0" d="M142.7,350.7C142.7,350.7,142.7,350.6,142.7,350.7c0-0.1-0.1-0.1-0.1-0.1
						C142.6,350.7,142.6,350.7,142.7,350.7L142.7,350.7z"/>
					<path class="st0" d="M127.9,313.2L127.9,313.2L127.9,313.2L127.9,313.2z"/>
					<path class="st0" d="M124.8,356v0.2V356z"/>
					<path class="st0" d="M133.6,316.6c0,0,0,0.1,0,0.2C133.6,316.7,133.6,316.7,133.6,316.6z"/>
					<path class="st0" d="M136,317.7l0.2,0.3C136.1,318,136,317.8,136,317.7z"/>
					<path class="st0" d="M137.5,319c0.1-0.1,0.1-0.1,0.2-0.2l0,0L137.5,319z"/>
					<path class="st0" d="M108.2,322.3C108.2,322.3,108.1,322.3,108.2,322.3C108.1,322.5,108.1,322.4,108.2,322.3z"/>
					<path class="st0" d="M115.9,316.5c-0.1,0.1-0.1,0.3-0.2,0.3C115.8,316.9,115.9,316.8,115.9,316.5z"/>
					<path class="st0" d="M101.9,330.1L101.9,330.1L101.9,330.1L101.9,330.1z"/>
					<path class="st0" d="M115.2,317.1c0.2,0.1,0.3,0,0.5-0.1C115.6,316.9,115.3,316.9,115.2,317.1z"/>
					<path class="st0" d="M143.2,325L143.2,325c0.1,0.1,0.1,0,0.1,0H143.2z"/>
					<path class="st0" d="M143.4,325h0.1C143.4,325,143.4,325,143.4,325z"/>
					<path class="st0" d="M143.8,325.1c-0.1,0-0.1-0.1-0.2-0.1C143.5,325.1,143.5,325.2,143.8,325.1z"/>
					<path class="st0" d="M141.9,322.7l-0.2,0.1C141.8,322.8,141.9,322.8,141.9,322.7z"/>
					<path class="st0" d="M141.5,322.2c0.1,0.2-0.1,0.7,0.2,0.8l0.1-0.1C141.5,323,141.8,322.1,141.5,322.2z"/>
					<path class="st0" d="M140.7,317.7l0.5,0.6c0-0.2,0.1-0.7,0.5-0.5C141.4,316.7,141.5,318.4,140.7,317.7z"/>
					<path class="st0" d="M139,316.1c0.5,0.1,0.2-0.3,0.2-0.5C138.9,315.8,138.9,315.8,139,316.1z"/>
					<path class="st0" d="M122.7,312.6v-0.6C122.4,312.2,122.7,312.3,122.7,312.6z"/>
					<polygon class="st0" points="120,316 120.3,316.4 120.5,315.8 					"/>
					<path class="st0" d="M117.4,312.4l0.1-0.1c-0.1,0.1-0.3,0.2-0.5,0.3L117.4,312.4z"/>
					<path class="st0" d="M95.6,330.4l0.7,0.2C96.3,330.2,95.6,329.9,95.6,330.4z"/>
					<path class="st0" d="M94.4,342.9c-0.3,0.2-0.6,0.6-0.1,0.8C94.3,343.3,94.5,343,94.4,342.9z"/>
					<polygon class="st0" points="122.7,362.3 122.5,362.5 123,362.3 					"/>
				</g>
			</g>
		</g>
	</g>
</g>
<g>
	<g>
		<g>
			<g>
				<g>
					<path class="st0" d="M124.4,270.9c0.2,0.1,0.6,0.1,0.6-0.1l-0.7-0.3L124.4,270.9z"/>
					<path class="st0" d="M126,269.8c-0.3-0.3-0.9-0.7-1.6-0.6c0.7,0.3,0.3,0.3,1.1,0.7c0,0.2-0.3,0.3-0.6,0.2
						c0.2,0.1-0.2,0.3,0.2,0.5c0.6-0.2,0.7-0.6,0.2-1C125.7,269.7,125.9,269.7,126,269.8z"/>
					<path class="st0" d="M118.5,249.9v0.1C118.5,249.9,118.5,249.9,118.5,249.9z"/>
					<path class="st0" d="M106.3,243.2c0.1,0,0.2,0,0.2-0.1C106.4,243.1,106.3,243.1,106.3,243.2z"/>
					<path class="st0" d="M104.1,241.8c0,0,0.1,0,0.1,0.1C104.2,241.8,104.1,241.8,104.1,241.8z"/>
					<path class="st0" d="M118.5,249.9l-0.1-0.5C118.2,249.5,118.4,249.7,118.5,249.9z"/>
					<path class="st0" d="M124.3,266.8c0,0.1,0.1,0.1,0.2,0.1c0,0,0-0.1-0.1-0.1C124.4,266.8,124.4,266.8,124.3,266.8z"/>
					<path class="st0" d="M123.2,254L123.2,254c0.1,0.1,0.2,0,0.3,0H123.2z"/>
					<path class="st0" d="M125.9,258.1c0-0.1-0.6,0.1-0.9,0.2c0.2-0.1,0.5,0,0.5,0C125.6,258.3,125.7,258.2,125.9,258.1z"/>
					<path class="st0" d="M126.8,265.7l0.1,0.1C126.9,265.8,126.9,265.7,126.8,265.7z"/>
					<path class="st0" d="M121,251.2c0.1-0.1,0.1-0.1,0.1-0.2C121.1,251,121.1,251.1,121,251.2z"/>
					<path class="st0" d="M121.5,274.8L121.5,274.8L121.5,274.8z"/>
					<path class="st0" d="M126.1,271.2L126.1,271.2c0.1,0.1,0.2,0.1,0.3,0.1L126.1,271.2z"/>
					<path class="st0" d="M99.7,240.4L99.7,240.4C99.8,240.4,99.8,240.4,99.7,240.4z"/>
					<path class="st0" d="M70.9,265.8c0.6-0.6,0.8,0.7,1.4,0C72,265.9,71.1,265.2,70.9,265.8z"/>
					<path class="st0" d="M124.4,266.7v-0.1V266.7z"/>
					<path class="st0" d="M72.3,265.8L72.3,265.8L72.3,265.8C72.3,265.7,72.3,265.8,72.3,265.8z"/>
					<path class="st0" d="M89.2,242c0,0.1,0.1,0.2,0.2,0.2C89.3,242.2,89.3,242.2,89.2,242z"/>
					<path class="st0" d="M96.9,241.7l-0.2-0.1C96.8,241.7,96.9,241.7,96.9,241.7z"/>
					<path class="st0" d="M85.7,244.2c-0.1,0-0.2-0.1-0.2,0.1c0,0,0,0,0.1,0C85.5,244.2,85.5,244.2,85.7,244.2z"/>
					<path class="st0" d="M81.9,246.1c0,0,0.1,0,0.1,0.1l0.1-0.1H81.9z"/>
					<path class="st0" d="M114.6,282.2c0.1,0.1,0.3,0.2,0.5,0.5C114.7,282.3,115,281.8,114.6,282.2z"/>
					<path class="st0" d="M124.8,266.8c-0.1,0-0.2,0-0.3-0.1v0.1C124.6,266.8,124.7,266.8,124.8,266.8z"/>
					<path class="st0" d="M87.5,248.9l-0.6,0.1C87.2,249,87.4,249,87.5,248.9z"/>
					<path class="st0" d="M90,283h0.1H90z"/>
					<path class="st0" d="M85.6,249.9c-0.2-0.1-0.3-0.2-0.5-0.2c0,0,0,0.1,0,0.2H85.6z"/>
					<path class="st0" d="M115,282.6L115,282.6L115,282.6z"/>
					<path class="st0" d="M117.1,279.3c-0.3,0.3,0.3,0.8,0.6,1.3c-0.3,0.6-0.6-0.3-1-0.6c-0.1,0.3,0,1.1-0.2,1.4
						c-0.1-0.1-0.2-0.1-0.2-0.3c0.1,0.8-1,0.7-1,1.7c-0.1,0-0.1-0.1-0.1-0.1c0.2,0.3,0.6,0.7,0.7,0.9c-0.2,0.1-0.1,0.7-0.5,0.2
						c0.1-0.1,0-0.2,0-0.5l-0.1,0.3c-0.6-0.6,0.2-0.5-0.1-0.9c-0.3,0.5-0.5,1.4-1,1.4c-0.5-0.7,0.7-0.6-0.1-1c0.2,0,0.5,0,0.7,0
						c-1-0.8,0.3-0.1-0.7-1c-0.8,0.1-0.6,0.7-1.4,0.8c0,0.5,0.3,0.6,0.3,1c-0.7,1.3-1.6-1.5-1.9-0.2c0,0.6,0.2,1.5-0.5,1.3l-0.1-0.9
						c-0.7,0.2,0,1.4-0.9,1c0-0.3,0.5-0.5,0.3-0.5c-0.7-0.6-0.2,0.6-0.6,0.7l-0.3-0.7c-0.3,0.1-0.7,0.5-1.1,0.7
						c-0.3,0.2-0.8,0.5-1.3,0.7c0-0.2,0.1-0.5-0.1-0.7c-1,0.6-2.4,0.2-3.4-0.1l-0.3,0.7c-0.1,0-0.2-0.3-0.1-0.5
						c-0.5-0.2,0,0.5-0.2,0.7c-0.2,0-0.3-0.3-0.2-0.6c-0.3,0.2-0.9,0.6-1.5,0.8c-0.6,0.1-1.1,0-1.5-0.3l0.1-0.2
						c-0.6-0.3-0.8,1.4-1.4,0.7l0.1-0.1c-1.3-0.5-2.8-0.1-3.6-1.4c-0.5,0.9-1.1-0.7-1.6,0.6c-0.6-0.9-0.2-1-1.1-1.8
						c-0.2-0.1-0.7,0.7-1,0.7l0.2-0.7l-0.7,0.5l0.1-0.9h-0.3c0.1,0.1,0.1,0.5,0,0.6c-0.6,0.1-0.9-0.9-0.8-1.3c-0.5,0-0.9,0-1.4,0
						c0.1-0.2,0.3-0.2,0.6-0.3c-0.9,0.3,0.2-0.7-0.6-0.5c0,0.2-0.2,0.3-0.3,0.5c0-0.6-0.7-0.8-1.1-0.9l0.3-0.3
						c-0.7-0.6-1.7-0.8-2.4-1.5c0.1,0.3-0.5,1-0.7,0.9l0.3-0.7c-0.5,0.2,0.1,0.5-0.6,0.6c-0.2-0.3,0.3-0.8,0.7-0.9l-0.6-0.1
						c0.1-0.2,0.2-0.2,0.5-0.5c-0.5,0.2-0.1-1-0.8-0.6l0.1-0.2c-0.7-0.7-1.3-0.8-1.7-1.4c-0.5,0.5-0.6,0.1-1.1,0.2
						c-0.1-0.3-0.2-0.7-0.3-1c-0.1-0.3-0.2-0.7-0.5-0.9c-0.6-0.2-0.6,0.2-1,0.2c0.5-0.3,0-0.9,0.6-0.8c-0.6-0.7-0.7-0.8-1.6-1.6
						c-0.1,0.2-0.2,0.3-0.3,0.5c-0.2-0.1,0-0.6,0.2-0.6h0.1c-0.7-0.3-0.6-1.3-0.5-1.9c0.1-0.8,0.2-1.4-0.5-1.7h0.1
						c-0.3-0.2-0.6-0.5-0.9-0.8c0-0.5,0.5,0.1,0.8-0.2c-0.6-0.3-0.7-0.8-0.7-1.3s0.1-0.8-0.2-1.1c0.5-0.2,0.6-0.5,0.7-0.7
						c0.1-0.2,0.1-0.6,0-0.8c-0.1-0.6-0.2-1.3,0.3-1.6h-0.5c-0.3-0.2,0.2-0.2,0.3-0.3c-0.3,0-0.3,0.2-0.6,0c-0.1-1,0.3-1.9,0.8-2.8
						c0.7-0.8,1.3-1.6,1.9-2.3c0.5-0.6-1.6-1.5-0.2-1.7L79,256c0.1-0.8,0.5-1.5,1-2c0.2-0.2,0.6-0.6,0.8-0.8c0.2-0.3,0.5-0.6,0.6-1
						c0,0.2,0.2,0.3,0.1,0.5c0.6,0.2,0.8-0.7,0.6-1.1c0.2-0.1,0.3,0.2,0.6,0.3c0.5,0.1,0.2-1,0.7-0.7c0.1,0,0,0.2,0,0.2
						c0-0.3,0.8-0.5,0.2-0.9c0.6-0.1,0.8-0.8,1.4-0.7c-0.1-0.8,1-0.2,0.6-1.1c0.5,0.9,1.3,0.3,1.4-0.2c0,0.3,0.5,0.1,0.5,0.6
						c0.3-0.2,0.6-0.5,0.3-0.9c1.1,0.9,1.1-1.5,2-0.1c1-0.8,2-1.6,3.1-1.9c0.1,1-1.3,0.3-0.9,1.4c0.9-0.6,1.4-1.6,2.5-1.5
						c0.3,0.1-0.1,0.5-0.2,0.7c1-0.5,2-0.1,3-0.7c0,0.1-0.1,0.2-0.2,0.2c0.2,0,0.5,0.1,0.5-0.3l-0.2,0.1c-0.3-0.7,0.8-1.4,0.8-1.8
						c-0.3,1.4,1,0.3,0.5,2c0.1-0.1,0.3-0.3,0.2-0.6c0.2,0.1,0.2,0.3,0,0.7c0.7-0.2,0.5-0.7,1.1-0.7c0,0.2-0.1,0.3-0.2,0.6
						c0.3-0.5,0.7-0.8,1.3-0.6c0,0.1,0,0.3-0.1,0.3c0.9,0,1.7-0.9,2.6-0.3c-0.5,0.9,0.2,0.3,0.1,1.3c0.2-0.1,0.3-0.1,0.6-0.1
						l-0.1-0.5c0.5,0.1,1-0.3,1.4,0l-0.5,0.2h0.9l-0.5-0.5c0.6-0.3,0.2-1,0.8-0.7c-0.1,0,0.5,0.1,0.6,0.7l0,0c0.3-0.2,0.6-0.3,0.9,0
						c0,0.3-0.3,0.9-0.3,1c0.5-0.6,1.1,0.1,1.6-0.5c-0.1,0.1-0.3,0.6-0.3,0.7l0.3-0.5c0.1,0.2,0.1,0.3,0,0.7
						c0.6,0.3,0.2-1.1,0.8-0.3c-0.1,0-0.1,0.1-0.2,0.1c0.6,0.6,1.6,0.2,2,0.8c-0.2,0.9-0.7-0.1-0.8,0.7c0.9,0.3,2.4,0.1,3.1,0.8
						l-0.1-0.2c0.8-0.9,0.3,0.9,1,0.7c-0.1,0-0.5,0.5-0.5,0.3c0.5,0.6,1.3,0.6,2.4,0.9l-0.3,0.1c0.1,0.5,0.7,0.8,0.9,1.1
						c0.3-0.1,0.5,0.1,0.7-0.3c-0.1,1.1,0.6,1.4,1.1,1.6c0.6,0.2,1.3,0.6,1.1,1.5c-0.1-0.1-0.5-0.1-0.3,0c0.3,0.2,0.6,0.5,0.8,0.6
						c0.3-0.3,0.2-0.3,0.3-0.7c0.3-0.1,0.7,0,0.8,0.2c-0.6-0.2-0.7,0.5-0.8,0.8c0.1-0.1,0.3-0.1,0.5-0.2c-0.5,1,0.9-0.6,0.8,0.5
						l-0.2,0.1c0.2,0.1,0.7,0.2,0.8,0.5c-0.5,0.5-0.3-0.1-0.8,0.1c0.2,0.3,1.4,0.1,1,0.8c-0.2-0.1-0.3-0.3-0.6-0.3
						c-0.5,0.7-0.2,0.7-0.2,1l0,0c0,0.2,0,0.5,0,0.8l0.1-0.2c1.6-0.2,0.7,0.8,1.9,1c-1.1-0.2-0.6,0.1-1.3,0.3
						c-0.1,0.2-0.2,0.6-0.5,0.6c0.7,0.1-0.2,0.7,0.7,0.8c-0.2,0.1,0.1,0.3-0.5,0.5c0.3,0.3,0.3-0.2,0.6-0.2c0.5,0.2,0.3,0.6,0.3,1
						c-0.1,0.5-0.2,0.9,0.5,1.3c0.6,0.7,1.4,0.8,1.8,1.5c-0.3,0.3-0.8-0.1-0.8-0.1c-0.3,0.5-0.2,0.7,0.1,1.1c-0.2-0.1-0.3,0-0.6,0.1
						c0.1,0.3,0.8,0.2,0.5,0.6c-0.2-0.1-0.7-0.1-0.9-0.3c0.2,0.3,0.6,0.7,0.8,1.1c-0.3,0.1-0.6-0.2-0.8-0.3c0.1,0.5,0.3,1,0.9,1.3
						c0.1-0.1,0.1-0.2,0.2-0.2c0,0.1-0.6,0-0.7-0.1c-0.5-0.3,0.2-0.5,0.5-0.6l0.1,0.2c1.3-0.2-0.2-1.1-0.1-1.6l0.9,0.2
						c-0.2-0.2-0.6-0.3-0.8-0.6c0.2-0.1,0.8-0.2,0.9,0c0.5-0.5-0.3-0.3,0.1-0.7c0.1,0,0.1,0,0.1,0l-0.3-0.3c0.2,0.1,0.7-0.1,0.6,0.1
						c0.5-0.8-0.8-1.1-0.2-1.5h0.1c-0.6-0.9-0.7,0-1.7-0.6c0.6-0.2,1-0.6,1.6-0.9l-0.7,0.1c0-0.1,0-0.3,0.3-0.3
						c-0.6-0.2-0.2,0.1-0.8,0c0.5-0.7-0.7-1.3,0.3-1.7c-0.6,0-0.2,0.6-0.8,0.2c1-0.6-0.3-0.6-0.1-1.1c0.7-0.1,0.5,0.5,0.8-0.2
						c-1,0.1-0.2-0.9-0.6-1.3c-0.8,0.3-0.7-0.7-1.3-1c0.2-0.1-0.2-1.4-0.3-2l0.1-0.1c-0.8,0.3-1-0.2-1.4-0.5
						c0.5-0.2,0.6-0.3,0.9-0.2l-0.2-0.3c-0.2,0.1-0.5,0-0.7-0.1l0.6-0.3c-0.3-0.5-1.4-0.5-1.5-1.3c-0.5,0.3-0.8,1.5-1.6,1.3
						c0.2-0.2,0.6-0.6,0.8-0.6c-0.1,0-0.3,0-0.3-0.2l0.6-0.1c0-0.5-0.5,0.1-0.6-0.1c0.3-0.3,0.1-0.3,0.3-0.6c0.1,0,0,0.3,0.2,0.2
						c-0.1-0.2-0.2-0.8,0-1c-0.1,0.2-0.5,0.5-0.7,0.3c-0.5-0.3,0.2-0.6,0.1-0.9c-0.3,0.1-0.3-0.3-0.8,0.1c-0.1-0.1,0.1-0.3,0.1-0.6
						c-0.2,0-0.5-0.2-0.7-0.3c-0.2-0.1-0.5-0.1-0.6,0.2v0.1c0,0,0,0-0.1,0l0,0l0,0c-1.3-0.1-1.4-1.6-2.3-1.9l0.1-0.2
						c-0.7-0.1-1.1-0.6-1.7-0.5c-0.1-0.1-0.1-0.6,0.1-0.8c-0.5-0.1-0.7,0.1-1-0.5c0.6-0.1,0-0.3,0.6,0c-0.5-0.5-0.3-0.8-1.3-0.6
						c0.5-0.5-0.1-0.9-0.3-0.8c0.1,0.2,0.1,0.3,0.2,0.6c-0.3-0.1-0.6-0.2-0.8-0.3l0.5-0.6c-0.8-1.4-2.6,0.6-3-1.1
						c-0.5,0.3,0.5,0.6,0,1c-0.5-0.2-0.7-1.5-0.8-1.6c-0.6-0.7-1,0.8-1.7,0.3c0,0.3-0.1,1-0.7,1.1c-0.5-0.2-0.3-1.3,0-1.4
						c0.1,0,0.2,0.1,0.1,0.2c0.2,0,0.5-0.1,0.3-0.5l-0.1,0.2c-0.2-0.3-0.9-0.5-0.7-0.9c-0.5,0.1-0.2,0.3,0,0.6
						c-0.6-0.6-1-0.3-1.7-0.7c0.1,0.1,0.1,0.5,0,0.5c-1-0.5-0.6,0.5-1.3,0.5c-0.3-0.5,0.3-0.9-0.5-0.7c-0.5-0.3,0-0.7,0.2-0.9
						c-0.7,0.3-1.3-0.5-1.6-0.7l0.3-0.2c-0.2,0.1-0.5,0.1-0.6,0.1l0.1,0.6c-0.2-0.1-0.3-0.1-0.3-0.3c-0.2,0.3,0.1,0.9-0.3,1.4
						c-0.2-0.3-0.8,0.2-0.9-0.5c0.9,0.3-0.1-0.7,0.7-0.8c-0.1,0.1-0.3,0.1-0.6,0c0-0.1,0-0.1,0.1-0.2c-0.8-0.7-0.5,0.8-1.3,0.8
						c0.1-0.5-0.2-0.8-0.3-0.7c0.3,0,0.1,0.7-0.1,1c-0.6-0.3-0.6,0.2-0.9,0.2l0.3,0.1c-0.1,0.5-0.3,0.3-0.8,0.5
						c0-0.3,0.3-0.2,0.2-0.3c-0.3,0.7-1-0.7-1.6-0.1c-0.3-0.2-0.1-0.8-0.3-0.9c-0.7,0.6-0.8-0.5-1.5,0c0.2,0.5,0.3,0.3-0.1,1
						c0.3-0.2,0.7-0.3,1.1-0.6l-0.7,0.8c0.3,0,0.7-0.5,0.9-0.3c-0.3,0.5-0.2,0.3-0.1,0.8c-0.6-0.8-0.9,0.6-1.5,0.1l-0.2-1.4
						c-0.9-0.5-1.4,0.9-2.5,0.8l0.3,0.1c0,0.6-0.6,0.2-0.9,0.6c-0.1-0.5-0.3-0.6-0.6-0.8c0.1,0.3-0.8,0.2-0.6,1
						c-0.2-0.1-0.5-0.2-0.7-0.5c-0.9,0.1-0.6,1.6-1.4,1.7c0-0.6-0.5-0.7,0-1.3c-0.2,0.1-0.6,0.1-0.5,0.3c-0.2-0.2-0.5,0.9-0.9,0.6
						c0,0.2,0.1,0.7-0.1,0.8c-0.1-0.1-0.1-0.2-0.1-0.2c0.1,0.2-0.3,0.5,0.1,0.8c-0.7-0.5-1.3-0.2-1.7,0.1c-0.5,0.3-0.9,0.7-1.6,0.3
						c-0.5,0.5-0.9,1-1.4,1.4c0-0.1-0.1-0.2,0-0.2c-0.9,0.1,0.3,1.3-0.6,1.5c-0.8-0.2,0.1-0.6-0.3-0.7c-1-1-0.7,0.9-1.7,0.6v-0.1
						c-0.3,0-0.5,0.2-0.6,0.6c-0.1,0.3-0.1,0.8-0.5,1l-0.1-0.1c0.2,0.9-0.2,1.7-0.5,2.4c-0.3-0.6-0.1-0.5-0.6-0.7
						c-0.1,0.3,0.8,0.5,0.6,1.1c-0.3,0-0.9,0.2-1.4-0.1l0.3-0.6c-0.8-0.2-0.5,0.7-0.7,0.8l-0.2-0.2c-0.3,0.9,0.3,1.4-0.1,2.2H74
						c0.6,0.9-0.7,0.1-0.3,0.9l-0.9-0.2c0,0.5,0.3,1.5,0.2,2.2c-0.5-0.6-0.6-1.4-0.7-1.9c-0.1,0.3-0.5,1.1,0,1.5
						c0-0.1-0.1-0.5,0-0.5c0.2,0.3,0.5,0.7,0.5,0.9c0.1,0.3,0.1,0.7,0,1c-1.6-0.6-0.9,1.6-2.3,1.9c0.2,0.7,0,1.4-0.1,1.9
						c-0.1,0.7-0.3,1.4-0.3,2.2c1.4-0.6,0,0.5,1.5,0.2c0.1,0.3,0.1,0.5,0,0.5c-0.2,0.3-0.5,0.7-0.7,1.1c-0.3,0.3-0.3-0.3-0.7-0.2
						c0,0.8-0.6,0.5-0.9,1c0.5-0.2,0.8,0.1,0.7,0.7l0.5-0.7c0.9,0.9-0.9,1.1,0,2l-0.5-0.2c0.3,0.6,0.6,2,1.8,2.2
						c-0.1,0.1-0.5,0.5-0.6,0.2c0.1,0.7,0.7,1.3,1.3,1.8c0.5,0.6,0.9,1,0.9,1.6l-0.3,0.1c0.2,0.1,0.8,0,0.7,0.5
						c-0.1,0.1-0.3,0.1-0.3,0.2c0.1,0.1,0.8,0.2,0.8,0.7h-0.5c0.3,1.4,1.9,1.1,2.7,1.8c-0.8,0.6-0.3,1.6-0.1,2l-0.1,0.1
						c0.2,0.3,0.5,0.6,0.8,0.8c0.3,0.2,0.6,0.3,0.9,0.5c0.7,0.2,1.3,0.5,1.9,0.7c0,1.4,1.9,2.2,2.7,3.4c-0.1-0.2,0.5-0.7,0.7-0.6
						c0.1,0.3,1.1-0.1,0.6,0.7c0,0-0.1,0-0.1-0.1c-0.2,0.9,0.5,1,0.9,1.3l0.7-1c0.1,1.1,1,1.4,1.8,1.5c0.8,0.1,1.5,0.2,1.6,1.1
						c0.5-0.2,0.8,0,1.1-0.2l-0.2,0.6c0.8,0.5,1.1,0.7,2.3,0.8l-0.3,0.3c0.6,0.2,1.3-1.6,1.8-1.5l-0.1,1c1,0.2,2,1.3,3.2,0.6
						c0,0.1-0.1,0.5-0.3,0.5c0.5,0.1,1.9,0.9,1.8-0.5c-0.1,0.9,1.1,0.2,1.7-0.1l-0.1,0.7c0.6-0.8,0.6-1,1.3-1.3
						c0.1,0.1,0.1,0.5-0.1,0.3c0.6,0.3,0.5-0.6,1-0.2l-0.2,0.5c0.6,0,0.5-0.2,0.8-0.7c0.3-0.2,1,0.1,1.1,0.7c0-0.3,0.3-0.8,0.7-0.7
						c0.1,0.2,0,0.3-0.1,0.5c0.9,0.3,1.3-0.8,1.9-0.3c0,0.2,0.1,0.3,0.1,0.3c-0.7,0.1-1.4,0.1-1.3,0.1c0.1,0.6,0.7,0.7,0.3,1.5
						c0.5-0.5,1.1-1.6,1.7-1.4c0,0,0.1,0.1,0.1,0.2v0.1c0.1,0,0.2,0,0.3-0.1c0.2,0.1,0.3,0.1,0.6,0.1c0.1,0.5,0.8,0.1,1,0.1
						c-0.2-0.6,0.2-0.6-0.2-1c0,0,0,0.1-0.2,0.1c0,0-0.1,0-0.1,0.1v-0.1c-0.2,0.1-0.5,0.1-0.7,0.2c0.1-0.3,0.3-0.7,0.7-0.3
						c0-0.5,0.1-0.9,0.1-1.1c0.6,0.8,1.5,1,1.7,1.5c0.8-0.6,2-0.9,2-2.3c0.2-0.2,0.5,0.2,0.6,0.3c-0.1,0.1-0.2,0.2-0.2,0.3
						c0.3-0.5,1.4-0.7,1.1-1.5c0.7,0.1,0,0.9,0.7,0.3v0.2c0.6,0.1,0.9,0,1.3-0.3c0.2-0.3,0.5-0.7,0.7-1.1c0.3-0.8,0.8-1.5,2-1.4
						c-0.1,0-0.2,0-0.3-0.1c0.6-0.2,1-0.5,1.5-0.8c0.5-0.3,0.8-0.8,1.1-1.3c0.3-0.5,0.7-0.9,1.1-1.3c0.3-0.3,0.9-0.7,1.5-0.9
						c0.6-0.3,0.2-0.8,0-1.3l0.7,0.2l-0.3-0.9c0-0.6,0.6-0.7,1-0.9c0.5-0.2,1-0.5,0.8-1.3l-0.5-0.1c0.2-0.3,0.2-1.3,0.7-1
						c-0.1-0.1-0.3-0.3-0.1-0.3l0.3,0.1c-0.1-0.3-0.1-0.8-0.2-1.1c0.5-0.7,1.4,0.6,1.7-0.6c0-0.5-0.7-1.5-1-1.4
						c-0.1,0.1-0.3,0.3-0.7,0.3l-0.1-0.5c-1-0.3-2-0.7-3-0.1l0.5,0.7h-0.6l0.1-0.5c-0.6,0.1-0.1,0.3,0.1,0.7c-0.2,0-0.5,0-0.6,0
						c0.2,0.2,0.6,0.6,0.8,0.8c-0.5-0.1-0.7-0.5-1-0.2c0.3,0.3,1,0.1,1.1,0.6c-0.6,0.1-0.9-0.1-0.6,0.3c-0.2-0.1-0.5-0.2-0.5-0.3
						c0.2,0.3-0.1,0.7,0.3,1.1c-0.6,0-0.3,0.9-1.1,0.5c0.2,0.2,0.5,0.8,0.3,1c-0.8-1-0.6,0.8-1.6,0c0.7,0.9-0.2,1.3-0.2,2
						c0-0.1-0.1-0.2,0-0.2c-0.3,0.2-0.6,0.1-0.9,0.1c0.7,0.6,0.5,1.1,0.7,1.7c-0.9-0.2-0.6-0.9-1.3-1.4c0.6,0.5,0,1,0.6,1.4
						c-0.6-0.1-0.3,0-1-0.5c0.7,0.8-0.1,0.3,0.2,1c-0.7-0.1-0.8-0.7-0.9-0.1C116.9,279.9,117.1,279.3,117.1,279.3z M106.7,286
						L106.7,286c0.1,0,0.2-0.1,0.2-0.1C106.8,285.9,106.8,286,106.7,286z M105.6,286.3c0.1,0,0.3,0,0.5,0c0.1,0.2,0.1,0.5,0,0.5
						C106,286.5,105.8,286.4,105.6,286.3z M108.9,290.1c-0.2,0.1-0.2,0-0.3-0.1c0.1,0,0.2-0.1,0.3-0.1c0,0,0,0,0-0.1
						C108.9,289.9,108.9,290,108.9,290.1z"/>
					<path class="st0" d="M109,289.2L109,289.2c0-0.1,0-0.1-0.1-0.2C108.9,289.1,108.9,289.2,109,289.2
						C108.9,289.3,109,289.2,109,289.2z"/>
					<path class="st0" d="M118.5,250L118.5,250C118.5,250,118.5,250.1,118.5,250C118.5,250.1,118.5,250,118.5,250z"/>
					<polygon class="st0" points="91.1,283.2 91.1,283.3 91.3,283.3 					"/>
					<path class="st0" d="M121.3,256.1l-0.1,0.1C121.1,256.2,121.3,256.2,121.3,256.1z"/>
					<path class="st0" d="M122.5,258.4v0.5C122.5,258.6,122.5,258.5,122.5,258.4z"/>
					<path class="st0" d="M123.1,260.3c0.1,0,0.2,0,0.2-0.1l0,0L123.1,260.3z"/>
					<path class="st0" d="M97.3,246C97.2,246,97.2,246,97.3,246C96.9,246.1,97,246.1,97.3,246z"/>
					<path class="st0" d="M106.8,245.8c-0.1,0.1-0.2,0.1-0.3,0.2C106.6,246.1,106.7,246.1,106.8,245.8z"/>
					<path class="st0" d="M87.6,248.9L87.6,248.9L87.6,248.9L87.6,248.9z"/>
					<path class="st0" d="M106,245.9c0.1,0.1,0.2,0.2,0.5,0.1C106.3,245.9,106.1,245.8,106,245.9z"/>
					<path class="st0" d="M124.3,268.5L124.3,268.5C124.3,268.6,124.3,268.6,124.3,268.5L124.3,268.5z"/>
					<path class="st0" d="M124.3,268.6L124.3,268.6C124.4,268.7,124.4,268.6,124.3,268.6z"/>
					<path class="st0" d="M124.6,269c0-0.1-0.1-0.1-0.1-0.2C124.4,268.9,124.4,268.9,124.6,269z"/>
					<path class="st0" d="M124.6,266h-0.2C124.3,266,124.4,266,124.6,266z"/>
					<path class="st0" d="M124.4,265.2c0,0.2-0.5,0.6-0.2,0.8h0.2C124,265.9,124.8,265.3,124.4,265.2z"/>
					<path class="st0" d="M126.4,261.2l0.1,0.8c0.2-0.2,0.5-0.5,0.7-0.1C127.5,260.7,126.6,262.2,126.4,261.2z"/>
					<path class="st0" d="M125.9,258.9c0.2,0.3,0.3-0.1,0.5-0.2C126,258.5,125.9,258.5,125.9,258.9z"/>
					<path class="st0" d="M114.7,246.6l0.3-0.5C114.7,246,114.9,246.4,114.7,246.6z"/>
					<polygon class="st0" points="110.5,247.8 110.6,248.3 110.9,247.8 					"/>
					<path class="st0" d="M110.5,243.3h0.1c-0.2,0-0.3,0-0.6,0H110.5z"/>
					<path class="st0" d="M82.3,245.3l0.5,0.6C82.8,245.7,82.5,245,82.3,245.3z"/>
					<path class="st0" d="M74.1,254.9c-0.3,0-0.8,0.2-0.6,0.6C73.7,255.1,74.1,255,74.1,254.9z"/>
					<polygon class="st0" points="86,287.2 85.7,287.2 86.1,287.3 					"/>
				</g>
			</g>
		</g>
	</g>
</g>
<g>
	<g>
		<g>
			<g>
				<g>
					<path class="st0" d="M134.9,205.8c0.1,0.1,0.6,0.3,0.6,0.1l-0.6-0.5V205.8z"/>
					<path class="st0" d="M136.7,205.1c-0.2-0.3-0.7-0.9-1.5-0.9c0.6,0.5,0.2,0.5,1,1c0,0.2-0.3,0.2-0.6,0.1
						c0.1,0.1-0.2,0.2,0.1,0.6c0.7,0,0.8-0.3,0.5-0.9C136.5,204.9,136.6,205,136.7,205.1z"/>
					<path class="st0" d="M134.6,184v0.1C134.6,184,134.6,184,134.6,184z"/>
					<path class="st0" d="M124.4,174.3c0.1,0,0.2,0,0.2-0.1C124.6,174.3,124.4,174.3,124.4,174.3z"/>
					<path class="st0" d="M122.6,172.5C122.7,172.5,122.7,172.6,122.6,172.5C122.7,172.5,122.7,172.5,122.6,172.5z"/>
					<path class="st0" d="M134.6,184v-0.5C134.3,183.6,134.4,183.7,134.6,184z"/>
					<path class="st0" d="M135.9,201.8c0,0.1,0.1,0.1,0.1,0.2C136,202,136,201.9,135.9,201.8C135.9,201.9,135.9,201.8,135.9,201.8z"
						/>
					<path class="st0" d="M138.1,189.1L138.1,189.1c0.1,0.1,0.2,0.1,0.3,0.1L138.1,189.1z"/>
					<path class="st0" d="M139.6,193.7c0-0.1-0.6,0-0.9,0c0.2,0,0.5,0.1,0.5,0.1C139.2,193.8,139.4,193.8,139.6,193.7z"/>
					<path class="st0" d="M138.5,201.3l0.1,0.1C138.6,201.5,138.6,201.5,138.5,201.3z"/>
					<path class="st0" d="M136.7,185.9c0.1,0,0.1-0.1,0.2-0.1C136.8,185.8,136.7,185.8,136.7,185.9z"/>
					<path class="st0" d="M131,208.7C131,208.8,131.1,208.8,131,208.7C131.1,208.7,131,208.7,131,208.7z"/>
					<polygon class="st0" points="136.4,206.6 136.4,206.7 136.7,206.8 					"/>
					<path class="st0" d="M118.8,170.1L118.8,170.1C118.9,170,118.9,170,118.8,170.1z"/>
					<path class="st0" d="M84.4,187.1c0.7-0.3,0.6,0.9,1.4,0.3C85.5,187.5,84.9,186.7,84.4,187.1z"/>
					<path class="st0" d="M136,201.8v-0.1C135.9,201.7,135.9,201.7,136,201.8z"/>
					<path class="st0" d="M85.8,187.5L85.8,187.5L85.8,187.5L85.8,187.5z"/>
					<path class="st0" d="M108.2,168.8c0,0.1,0.1,0.2,0.1,0.2S108.3,169,108.2,168.8z"/>
					<path class="st0" d="M115.8,170.5l-0.1-0.1C115.7,170.5,115.8,170.5,115.8,170.5z"/>
					<path class="st0" d="M104.2,170.1c-0.1,0-0.1-0.1-0.3,0c0,0,0,0,0,0.1C104,170.1,104.1,170,104.2,170.1z"/>
					<path class="st0" d="M100.1,171C100.2,171.1,100.2,171.1,100.1,171c0.1,0.1,0.2,0,0.2,0H100.1z"/>
					<path class="st0" d="M122.5,214.2c0.1,0.1,0.2,0.3,0.3,0.5C122.6,214.3,123.1,214,122.5,214.2z"/>
					<path class="st0" d="M136.3,201.9c-0.1,0-0.2-0.1-0.2-0.1v0.1C136.1,201.9,136.1,201.9,136.3,201.9z"/>
					<path class="st0" d="M104.9,175.1h-0.6C104.4,175.1,104.7,175.1,104.9,175.1z"/>
					<path class="st0" d="M98.5,208.7h0.1C98.6,208.6,98.5,208.6,98.5,208.7z"/>
					<path class="st0" d="M102.7,175.5c-0.1-0.2-0.3-0.3-0.5-0.3c0,0,0,0.1,0,0.2L102.7,175.5z"/>
					<path class="st0" d="M122.7,214.6L122.7,214.6L122.7,214.6z"/>
					<path class="st0" d="M125.6,212c-0.5,0.2,0.1,0.9,0.2,1.4c-0.5,0.5-0.6-0.5-0.9-0.8c-0.2,0.3-0.2,1.1-0.6,1.3
						c-0.1-0.1-0.1-0.1-0.1-0.3c-0.1,0.8-1.1,0.5-1.4,1.4c0-0.1-0.1-0.1-0.1-0.2c0.2,0.3,0.3,0.8,0.3,1.1c-0.2,0.1-0.3,0.7-0.6,0.1
						c0.1,0,0.1-0.2,0.1-0.5l-0.2,0.3c-0.5-0.7,0.2-0.3,0.1-0.9c-0.5,0.3-0.8,1.1-1.3,1c-0.2-0.8,0.8-0.5,0.2-1
						c0.2,0.1,0.5,0.1,0.7,0.1c-0.7-1,0.3,0-0.3-1.1c-0.8,0-0.7,0.6-1.5,0.5c-0.1,0.5,0.1,0.6,0.1,1c-1,1-1.1-1.8-1.8-0.7
						c-0.1,0.6-0.1,1.5-0.8,1l0.1-0.9c-0.7,0-0.3,1.4-1.1,0.7c0.1-0.3,0.6-0.3,0.5-0.3c-0.6-0.7-0.3,0.5-0.8,0.5l-0.1-0.8
						c-0.3,0.1-0.8,0.2-1.3,0.5c-0.5,0.1-0.9,0.2-1.4,0.3c0.1-0.2,0.2-0.5,0-0.7c-1.1,0.3-2.4-0.5-3.3-1l-0.6,0.6
						c-0.1,0-0.1-0.3,0-0.5c-0.3-0.3-0.1,0.5-0.3,0.6c-0.2,0-0.2-0.5,0-0.6c-0.5,0.2-1,0.3-1.6,0.3c-0.6,0-1-0.2-1.4-0.7l0.2-0.1
						c-0.5-0.5-1.1,1-1.5,0.2l0.1-0.1c-1.1-0.8-2.7-0.9-3.2-2.3c-0.7,0.7-0.9-1-1.7,0.1c-0.3-1,0-1-0.6-2c-0.2-0.2-0.8,0.5-1.3,0.3
						l0.5-0.6l-0.8,0.3l0.3-0.8l-0.3-0.1c0.1,0.1,0,0.5-0.1,0.6c-0.6-0.1-0.7-1.1-0.5-1.5c-0.5-0.1-0.8-0.2-1.3-0.3
						c0.2-0.2,0.5-0.1,0.7-0.1c-0.9,0.1,0.5-0.6-0.5-0.6c0,0.1-0.3,0.2-0.5,0.3c0.1-0.6-0.5-0.9-0.8-1.3l0.5-0.2
						c-0.5-0.7-1.5-1.3-1.9-2c0,0.5-0.7,0.9-0.9,0.7l0.6-0.6c-0.5,0.1,0,0.5-0.7,0.5c-0.1-0.3,0.6-0.7,0.8-0.7l-0.5-0.2
						c0.1-0.1,0.3-0.1,0.6-0.2c-0.5,0.1,0.1-1-0.7-0.8l0.2-0.1c-0.5-0.8-1-1-1.4-1.7c-0.6,0.2-0.6-0.1-1.1,0c0-0.3,0-0.7,0-1
						c0-0.3,0-0.7-0.1-1c-0.5-0.3-0.6,0.1-1,0c0.6-0.2,0.2-0.9,0.8-0.7c-0.3-0.8-0.5-1-1.1-1.9c-0.2,0.1-0.2,0.3-0.5,0.3
						c-0.1-0.2,0.1-0.5,0.3-0.6h0.1c-0.6-0.5-0.2-1.4,0-2c0.3-0.7,0.7-1.3,0-1.7h0.1c-0.2-0.3-0.5-0.7-0.7-1c0.1-0.5,0.5,0.2,0.8,0
						c-0.5-0.6-0.5-0.9-0.3-1.4c0.1-0.3,0.3-0.7,0.1-1.1c0.5-0.1,0.7-0.2,0.8-0.5c0.1-0.2,0.2-0.5,0.2-0.8c0-0.6,0-1.3,0.8-1.5
						l-0.3-0.1c-0.2-0.3,0.3-0.1,0.5-0.2c-0.3-0.1-0.5,0.1-0.6-0.1c0.1-1,0.8-1.8,1.5-2.5c0.8-0.7,1.7-1.3,2.5-1.7
						c0.6-0.3-1.3-1.8,0.2-1.7l0.3,0.7c0.2-0.8,0.8-1.4,1.5-1.7c0.3-0.2,0.7-0.3,0.9-0.6c0.3-0.2,0.6-0.5,0.8-0.8
						c0,0.2,0.1,0.3,0,0.5c0.6,0.3,1-0.5,0.8-0.9c0.2-0.1,0.2,0.3,0.5,0.5c0.5,0.2,0.5-0.9,0.8-0.5c0.1,0.1,0,0.2,0,0.2
						c0.1-0.3,0.9-0.2,0.5-0.8c0.6,0.1,0.9-0.6,1.5-0.3c0.1-0.8,1,0,0.9-0.9c0.2,1,1.1,0.7,1.4,0.1c-0.1,0.3,0.3,0.2,0.3,0.7
						c0.3-0.1,0.7-0.3,0.6-0.8c0.9,1.1,1.5-1.1,1.9,0.5c1.1-0.6,2.4-1,3.5-1c-0.1,1-1.3,0-1.3,1c1-0.3,1.8-1.3,2.8-0.8
						c0.2,0.2-0.2,0.5-0.3,0.6c1.1-0.2,2,0.3,3.1,0.1c0,0.1-0.1,0.1-0.2,0.2c0.2,0,0.3,0.2,0.5-0.2l-0.2,0.1
						c-0.1-0.7,1.1-1.1,1.3-1.5c-0.7,1.3,0.9,0.6-0.1,2c0.1,0,0.3-0.2,0.5-0.6c0.1,0.1,0.1,0.3-0.1,0.6c0.7,0,0.7-0.6,1.3-0.3
						c-0.1,0.2-0.2,0.2-0.3,0.5c0.5-0.3,0.9-0.6,1.4-0.2c-0.1,0.1-0.1,0.3-0.2,0.2c0.9,0.2,1.8-0.5,2.6,0.3
						c-0.7,0.8,0.2,0.5-0.1,1.3c0.2,0,0.3,0,0.6,0v-0.5c0.3,0.2,1-0.1,1.3,0.3l-0.5,0.1l0.8,0.2l-0.2-0.6c0.7-0.1,0.5-0.9,0.9-0.5
						c-0.1,0,0.5,0.2,0.3,0.8l0,0c0.3-0.1,0.7-0.2,0.9,0.2c-0.1,0.2-0.6,0.8-0.6,0.9c0.6-0.5,1,0.5,1.7,0c-0.2,0.1-0.5,0.5-0.5,0.6
						l0.5-0.3c0.1,0.2,0,0.3-0.2,0.7c0.5,0.5,0.5-1,0.8-0.1c-0.1,0-0.1,0.1-0.2,0.1c0.5,0.7,1.5,0.7,1.8,1.4
						c-0.5,0.8-0.6-0.2-0.9,0.5c0.8,0.6,2.3,0.7,2.8,1.6v-0.2c1-0.7,0.1,1,0.8,0.9c-0.1,0-0.6,0.3-0.5,0.2c0.3,0.6,1.1,0.9,2,1.5
						l-0.3,0.1c0,0.5,0.6,0.9,0.6,1.4c0.3-0.1,0.5,0.2,0.7-0.2c-0.5,1,0.1,1.5,0.7,1.8c0.6,0.5,1,0.9,0.7,1.7
						c-0.1-0.1-0.3-0.2-0.3-0.1c0.2,0.2,0.5,0.6,0.7,0.8c0.5-0.2,0.2-0.2,0.6-0.6c0.3,0,0.7,0.2,0.8,0.5c-0.5-0.3-0.8,0.3-1,0.6
						c0.1-0.1,0.3-0.1,0.5-0.1c-0.7,0.8,1-0.2,0.7,0.7h-0.2c0.2,0.2,0.7,0.3,0.7,0.7c-0.6,0.3-0.3-0.2-0.8-0.1
						c0.1,0.3,1.4,0.5,0.8,1c-0.2-0.1-0.2-0.3-0.5-0.5c-0.6,0.6-0.3,0.6-0.5,0.9l0,0c0,0.2-0.1,0.5-0.1,0.7l0.1-0.2
						c1.6,0.2,0.5,0.9,1.6,1.5c-1.1-0.6-0.6,0-1.3,0c-0.1,0.2-0.3,0.5-0.6,0.5c0.6,0.2-0.3,0.6,0.5,0.9c-0.2,0,0,0.3-0.6,0.3
						c0.2,0.3,0.3-0.1,0.7-0.1c0.3,0.3,0.2,0.7,0,1.1c-0.2,0.5-0.3,0.8,0.1,1.4c0.5,0.8,1.1,1,1.4,1.9c-0.3,0.2-0.8-0.3-0.8-0.3
						c-0.3,0.3-0.3,0.7-0.2,1.1c-0.2-0.1-0.3-0.1-0.6,0c0,0.3,0.7,0.3,0.3,0.7c-0.2-0.1-0.6-0.3-0.8-0.5c0.1,0.3,0.5,0.8,0.5,1.3
						c-0.3,0-0.5-0.3-0.7-0.6c0,0.5,0,1.1,0.6,1.5c0.1-0.1,0.2-0.1,0.3-0.2c0,0.1-0.6-0.1-0.6-0.2c-0.3-0.5,0.3-0.5,0.6-0.3l0.1,0.3
						c1.4,0.1,0.1-1.1,0.3-1.6l0.9,0.5c-0.2-0.2-0.5-0.5-0.7-0.7c0.2-0.1,0.8,0,0.9,0.2c0.6-0.3-0.2-0.5,0.3-0.7c0.1,0,0.1,0,0.1,0
						l-1-1c0.2,0.1,0.7,0,0.5,0.2c0.7-0.7-0.6-1.3,0.2-1.5v0.1c-0.2-1-0.7-0.1-1.5-0.9c0.6-0.1,1.1-0.3,1.7-0.5l-0.7-0.1
						c0-0.1,0.1-0.3,0.3-0.2c-0.5-0.3-0.3,0.1-0.8-0.1c0.6-0.6-0.3-1.4,0.7-1.6c-0.6-0.1-0.3,0.6-0.8,0c1.1-0.2-0.2-0.6,0.2-1.1
						c0.7,0,0.3,0.6,0.8,0c-1-0.1,0.1-0.9-0.2-1.4c-0.8,0.1-0.5-0.8-0.9-1.4c0.2,0,0.1-1.4,0.2-2h0.1c-0.8,0.1-0.9-0.5-1.3-0.9
						c0.5-0.1,0.7-0.1,1,0l-0.1-0.5c-0.3,0-0.5-0.1-0.7-0.3l0.6-0.1c-0.2-0.6-1.1-0.8-1.1-1.6c-0.6,0.2-1.3,1.3-1.8,0.8
						c0.2-0.1,0.7-0.5,0.9-0.3c-0.1,0-0.3-0.1-0.2-0.2h0.6c0-0.5-0.5,0-0.6-0.2c0.5-0.2,0.2-0.3,0.6-0.5c0.1,0-0.1,0.3,0.1,0.3
						c-0.1-0.3,0-0.8,0.2-1c-0.2,0.1-0.6,0.3-0.7,0.1c-0.3-0.5,0.3-0.5,0.3-0.9c-0.3,0-0.2-0.5-0.8-0.1c-0.1-0.1,0.1-0.3,0.2-0.5
						c-0.2,0-0.5-0.3-0.6-0.6c-0.2-0.2-0.5-0.2-0.7,0.1v0.1l0,0l0,0l0,0c-1.1-0.3-0.9-1.9-1.8-2.4l0.2-0.1c-0.6-0.2-1-0.9-1.6-0.8
						c-0.1-0.1,0-0.6,0.2-0.7c-0.5-0.2-0.7,0-0.9-0.8c0.6,0,0.1-0.3,0.6,0.1c-0.3-0.6-0.1-0.9-1-0.9c0.6-0.2,0.1-0.9-0.2-0.9
						c0,0.2,0,0.3,0,0.6c-0.2-0.1-0.5-0.3-0.7-0.6l0.6-0.5c-0.5-1.5-2.6-0.1-2.5-1.9c-0.6,0.2,0.3,0.7-0.2,1
						c-0.3-0.3-0.2-1.6-0.5-1.7c-0.5-0.8-1.1,0.5-1.7-0.1c0,0.2-0.3,0.9-0.9,0.9c-0.5-0.3,0-1.4,0.3-1.4c0.1,0,0.1,0.1,0.1,0.2
						c0.2,0,0.5,0,0.5-0.3l-0.2,0.2c-0.1-0.3-0.8-0.7-0.5-1c-0.5,0-0.3,0.3-0.1,0.6c-0.5-0.7-0.9-0.6-1.5-1.1c0,0.2,0,0.6-0.1,0.5
						c-0.8-0.8-0.7,0.2-1.4,0.1c-0.2-0.6,0.6-0.8-0.2-0.8c-0.3-0.5,0.2-0.7,0.5-0.8c-0.8,0.2-1-0.8-1.4-1l0.5-0.1
						c-0.2,0-0.5,0-0.6-0.1v0.6c-0.1-0.1-0.3-0.2-0.2-0.5c-0.3,0.2-0.1,0.9-0.7,1.3c-0.2-0.3-0.9,0-0.8-0.7c0.8,0.6,0.1-0.7,0.9-0.6
						c-0.1,0-0.3,0-0.5-0.2c0-0.1,0.1-0.1,0.1-0.1c-0.7-0.9-0.6,0.7-1.5,0.5c0.2-0.3,0-0.8-0.1-0.8c0.3,0.1,0,0.7-0.5,0.9
						c-0.5-0.5-0.7,0.1-0.9,0l0.2,0.2c-0.2,0.3-0.5,0.2-0.8,0.2c0-0.3,0.3-0.1,0.2-0.3c-0.6,0.6-0.8-0.9-1.5-0.6
						c-0.2-0.3,0.1-0.8-0.1-1c-0.8,0.5-0.7-0.7-1.5-0.3c0.1,0.6,0.2,0.5-0.3,0.9c0.5-0.1,0.8-0.1,1.3-0.2l-0.8,0.7
						c0.3,0.1,0.8-0.2,0.9-0.1c-0.5,0.3-0.3,0.2-0.2,0.7c-0.3-0.9-1,0.3-1.5-0.2l0.1-1.4c-0.8-0.7-1.6,0.6-2.6,0.2l0.3,0.2
						c-0.1,0.6-0.7,0.1-1,0.3c0-0.5-0.2-0.6-0.3-0.9c0,0.3-0.8,0-0.9,0.9c-0.1-0.2-0.3-0.3-0.6-0.6c-0.9-0.1-0.9,1.4-1.7,1.3
						c0.2-0.5-0.2-0.8,0.3-1.1c-0.2,0-0.6,0-0.6,0.2c-0.2-0.2-0.7,0.7-1,0.3c-0.1,0.2,0,0.7-0.3,0.7c0-0.1,0-0.2,0-0.2
						c0,0.2-0.5,0.3-0.1,0.8c-0.6-0.6-1.1-0.5-1.7-0.2s-1,0.5-1.6,0c-0.6,0.3-1.1,0.8-1.7,0.9c0-0.1-0.1-0.2,0-0.2
						c-0.9-0.1,0.1,1.4-0.9,1.3c-0.7-0.5,0.2-0.6-0.1-0.7c-0.7-1.3-0.8,0.7-1.8,0.1l0.1-0.1c-0.3-0.1-0.6,0.1-0.7,0.5
						c-0.2,0.3-0.3,0.7-0.7,0.9c0,0,0-0.1-0.1-0.2c0,0.9-0.7,1.6-1,2.3c-0.2-0.6,0-0.5-0.5-0.8c-0.2,0.2,0.7,0.7,0.2,1.3
						c-0.3-0.1-0.9,0-1.4-0.5l0.5-0.5c-0.8-0.5-0.6,0.6-0.9,0.6l-0.2-0.3c-0.6,0.8,0,1.4-0.7,2l0.2,0.1c0.3,1-0.7,0-0.6,0.8
						l-0.8-0.5c0,0.5-0.1,1.5-0.3,2.2c-0.3-0.7-0.2-1.5-0.2-2c-0.2,0.3-0.7,1-0.5,1.5c0-0.1,0-0.5,0.1-0.5c0.1,0.3,0.2,0.7,0.2,1
						s-0.1,0.7-0.2,0.9c-1.5-1-1.3,1.4-2.7,1.3c0,0.7-0.3,1.3-0.6,1.9c-0.3,0.6-0.7,1.3-0.9,2c1.5-0.2-0.1,0.5,1.4,0.7
						c0,0.3,0,0.5-0.1,0.5c-0.3,0.2-0.7,0.6-1,0.9c-0.5,0.2-0.2-0.3-0.6-0.3c-0.2,0.8-0.7,0.2-1.1,0.7c0.5,0,0.7,0.3,0.5,0.8
						l0.7-0.6c0.7,1.1-1.3,0.9-0.6,2l-0.5-0.3c0.2,0.6,0,2.2,1.1,2.6c-0.1,0.1-0.6,0.2-0.7,0c-0.1,0.7,0.3,1.4,0.7,2
						c0.3,0.7,0.6,1.3,0.5,1.8h-0.3c0.1,0.2,0.7,0.2,0.5,0.7c-0.1,0-0.3,0-0.3,0.1c0.1,0.1,0.8,0.5,0.7,0.8l-0.5-0.1
						c0,1.4,1.6,1.6,2.2,2.4c-0.9,0.3-0.8,1.5-0.7,1.9h-0.1c0.1,0.3,0.3,0.7,0.6,0.9c0.2,0.2,0.5,0.5,0.8,0.7
						c0.6,0.3,1.1,0.7,1.7,1.1c-0.3,1.3,1.4,2.6,1.8,4c0-0.2,0.6-0.5,0.8-0.3c0.1,0.3,1,0.1,0.3,0.8c0,0,0-0.1-0.1-0.1
						c-0.5,0.8,0.2,1.1,0.6,1.5l0.9-0.8c-0.1,1.1,0.7,1.6,1.4,1.9c0.8,0.3,1.4,0.7,1.3,1.5c0.5-0.1,0.8,0.1,1.3,0.1l-0.3,0.6
						c0.7,0.6,0.9,1,2,1.4l-0.5,0.3c0.6,0.3,1.6-1.3,2.2-1l-0.3,0.9c0.9,0.6,1.6,1.7,3,1.4c-0.1,0.1-0.2,0.3-0.3,0.3
						c0.5,0.2,1.6,1.4,1.9,0c-0.3,0.8,1,0.5,1.7,0.2l-0.2,0.6c0.7-0.6,0.8-0.8,1.5-0.9c0.1,0.1,0,0.6-0.1,0.3c0.5,0.5,0.6-0.5,1.1,0
						l-0.3,0.3c0.6,0.2,0.6,0,0.9-0.5c0.3-0.1,0.9,0.3,0.9,0.9c0.1-0.3,0.6-0.8,0.8-0.6c0,0.2-0.1,0.3-0.2,0.3
						c0.8,0.6,1.5-0.5,1.9,0.2c0,0.2,0,0.3,0.1,0.3c-0.7,0-1.3-0.2-1.3-0.2c-0.1,0.6,0.5,0.8-0.1,1.5c0.6-0.3,1.5-1.3,2-0.9
						c0,0.1,0,0.1,0.1,0.2l-0.1,0.1c0.1,0.1,0.2,0,0.3-0.1c0.2,0.1,0.3,0.2,0.5,0.2c0,0.5,0.7,0.3,1,0.3c0-0.7,0.3-0.6,0-1
						c0,0-0.1,0.1-0.2,0.1c0,0-0.1,0-0.1,0.1l0,0c-0.2,0-0.5,0-0.7,0c0.2-0.3,0.5-0.6,0.8-0.2c0.1-0.5,0.3-0.8,0.5-1
						c0.3,0.9,1.1,1.4,1.3,1.9c0.9-0.3,2.2-0.5,2.6-1.6c0.2-0.2,0.3,0.3,0.5,0.5c-0.1,0.1-0.3,0.1-0.3,0.3c0.5-0.3,1.5-0.3,1.5-1.1
						c0.7,0.2-0.2,0.8,0.6,0.6l-0.1,0.2c0.5,0.2,0.9,0.2,1.3,0c0.3-0.2,0.7-0.6,0.9-0.9c0.6-0.7,1.1-1.3,2.3-0.8
						c-0.1,0-0.2-0.1-0.3-0.2c0.6,0,1.1-0.1,1.6-0.5c0.5-0.2,0.9-0.6,1.5-0.9c0.5-0.3,0.9-0.7,1.4-0.9c0.5-0.3,1-0.5,1.6-0.6
						c0.7-0.2,0.3-0.7,0.3-1.3l0.6,0.5v-1c0.1-0.6,0.7-0.5,1.3-0.6s1.1-0.2,1-1l-0.5-0.2c0.3-0.2,0.6-1.3,0.9-0.8
						c0-0.1-0.3-0.3,0-0.3l0.3,0.2c0-0.3,0.1-0.8,0.1-1.1c0.6-0.6,1.1,0.9,1.8-0.1c0.1-0.5-0.3-1.6-0.6-1.6
						c-0.1,0.1-0.5,0.2-0.8,0.1v-0.5c-0.9-0.6-1.8-1.3-2.8-0.9l0.3,0.8l-0.6-0.1l0.2-0.5c-0.6,0-0.2,0.3-0.1,0.7
						c-0.2-0.1-0.5-0.1-0.6-0.1c0.2,0.3,0.3,0.7,0.6,1c-0.3-0.2-0.6-0.7-0.9-0.5c0.2,0.5,0.9,0.3,0.9,0.8c-0.6-0.1-0.8-0.3-0.7,0.1
						c-0.2-0.1-0.3-0.3-0.3-0.5c0.1,0.5-0.3,0.7,0,1.1c-0.6-0.1-0.6,0.8-1.3,0.1c0.1,0.2,0.2,0.9,0.1,1.1c-0.6-1.1-0.7,0.7-1.5-0.5
						c0.5,1-0.6,1.1-0.7,1.9c0-0.1-0.1-0.2,0-0.2c-0.3,0.1-0.6-0.1-0.9-0.1c0.5,0.8,0.1,1.3,0.1,1.8c-0.8-0.5-0.3-1-0.9-1.7
						c0.5,0.6-0.2,1,0.2,1.5c-0.6-0.3-0.3-0.1-0.9-0.7c0.5,1-0.2,0.3-0.1,1c-0.7-0.2-0.6-0.9-0.9-0.3
						C125.4,212.6,125.6,212,125.6,212z M113.9,215.9L113.9,215.9c0.1,0,0.2,0,0.2,0S114,215.9,113.9,215.9z M112.7,215.8
						c0.1,0,0.3,0,0.5,0.1c0,0.2,0,0.5-0.1,0.5C113.2,216.1,113,216,112.7,215.8z M114.9,220.4c-0.2,0.1-0.2,0-0.3-0.2
						c0.1,0,0.2,0,0.3,0c0,0,0,0,0-0.1C115,220.2,114.9,220.3,114.9,220.4z"/>
					<path class="st0" d="M115.2,219.5C115.3,219.5,115.3,219.5,115.2,219.5c0-0.1,0-0.1,0-0.2C115.2,219.4,115.2,219.5,115.2,219.5
						L115.2,219.5z"/>
					<path class="st0" d="M134.6,184.1L134.6,184.1C134.6,184.1,134.6,184.2,134.6,184.1C134.6,184.2,134.6,184.1,134.6,184.1z"/>
					<polygon class="st0" points="99.5,209.2 99.5,209.3 99.7,209.2 					"/>
					<path class="st0" d="M135.6,190.8l-0.1,0.1C135.5,190.9,135.6,190.8,135.6,190.8z"/>
					<path class="st0" d="M136.3,193.3l-0.1,0.5C136.1,193.5,136.3,193.4,136.3,193.3z"/>
					<path class="st0" d="M136.3,195.2c0.1,0,0.2,0,0.2,0l0,0H136.3z"/>
					<path class="st0" d="M115,174.8C114.9,174.8,114.9,174.8,115,174.8C114.7,174.9,114.8,174.9,115,174.8z"/>
					<path class="st0" d="M124.3,177c-0.1,0-0.3,0.1-0.5,0.1C124,177.3,124.1,177.4,124.3,177z"/>
					<path class="st0" d="M104.9,175.1L104.9,175.1L104.9,175.1L104.9,175.1z"/>
					<path class="st0" d="M123.4,176.9c0.1,0.2,0.2,0.2,0.3,0.2C123.8,177,123.6,176.9,123.4,176.9z"/>
					<path class="st0" d="M135.4,203.4L135.4,203.4c0,0.1,0,0.1,0,0.1V203.4z"/>
					<path class="st0" d="M135.4,203.6v0.1C135.5,203.6,135.5,203.6,135.4,203.6z"/>
					<path class="st0" d="M135.6,204c0-0.1,0-0.1-0.1-0.2C135.5,203.7,135.4,203.8,135.6,204z"/>
					<path class="st0" d="M136.3,201.1L136,201C136,201,136.1,201,136.3,201.1z"/>
					<path class="st0" d="M136.3,200.3c-0.1,0.2-0.6,0.3-0.5,0.7h0.2C135.7,200.8,136.7,200.6,136.3,200.3z"/>
					<path class="st0" d="M139.3,196.9l-0.1,0.8c0.2-0.1,0.6-0.3,0.7,0C140.5,196.7,139.2,197.9,139.3,196.9z"/>
					<path class="st0" d="M139.4,194.5c0.2,0.3,0.3-0.1,0.5-0.1C139.7,194.2,139.6,194.2,139.4,194.5z"/>
					<path class="st0" d="M131.6,179.8l0.5-0.3C131.8,179.2,131.9,179.5,131.6,179.8z"/>
					<polygon class="st0" points="127.4,180 127.3,180.4 127.7,180.1 					"/>
					<path class="st0" d="M128.4,175.5h0.1c-0.2-0.1-0.3-0.1-0.6-0.1L128.4,175.5z"/>
					<path class="st0" d="M100.7,170.3l0.3,0.7C101.1,170.8,101,170,100.7,170.3z"/>
					<path class="st0" d="M90.3,177.4c-0.3-0.1-0.8,0-0.7,0.3C89.9,177.6,90.3,177.6,90.3,177.4z"/>
					<polygon class="st0" points="93.6,211.7 93.3,211.7 93.8,211.8 					"/>
				</g>
			</g>
		</g>
	</g>
</g>
<g>
	<g>
		<g>
			<g>
				<g>
					<path class="st0" d="M438,278.2c0.6,0.6,1.4,0,0.6-1.9l-1.8-0.9L438,278.2z"/>
					<path class="st0" d="M436.8,264.5c-1.5-2-3.5-4.1-4.3-2.3c2.2,1.7,1.7,2.4,4.2,4.3c0.8,1.8,0.6,3.5-0.1,3.3
						c0.6,0.6,0.6,3.1,1.8,3.9c0.3-2.8-0.5-6-2.5-9C435.9,263.9,436.4,264.4,436.8,264.5z"/>
					<path class="st0" d="M313.1,118.6c0.3,0.2,0.7,0.5,1.1,0.7C313.9,119.1,313.6,118.8,313.1,118.6z"/>
					<path class="st0" d="M193.4,98c0.9-0.1,1.3-0.3,1.4-0.5C193.9,97.8,193.2,97.9,193.4,98z"/>
					<path class="st0" d="M172.3,99.5c0.5,0,0.8-0.1,1.3-0.1C173,99.4,172.5,99.4,172.3,99.5z"/>
					<path class="st0" d="M313.1,118.6l-2.8-1.7C309.9,117.2,311.8,117.8,313.1,118.6z"/>
					<path class="st0" d="M423.8,240.8c0.3,0.6,0.7,1,1,1.5c-0.2-0.5-0.6-0.9-0.8-1.5C423.9,240.8,423.9,240.8,423.8,240.8z"/>
					<path class="st0" d="M359.9,145.7l0.8,0.6c0.3,0,0.7,0.1,1,0L359.9,145.7z"/>
					<path class="st0" d="M390.4,174.2c-0.6-0.8-1.7-0.1-2.4,0c0.8,0,1.4,0.5,2,0.9C390.2,175,390.3,174.6,390.4,174.2z"/>
					<path class="st0" d="M424.6,230.2l0.7,0.9C425.2,231,424.8,230.6,424.6,230.2z"/>
					<path class="st0" d="M335.5,128.6c0-0.2,0-0.5-0.1-0.6C335.3,128.2,335.4,128.4,335.5,128.6z"/>
					<path class="st0" d="M416.8,306.4c0,0.1,0,0.1,0,0.2C416.9,306.5,417,306.4,416.8,306.4z"/>
					<path class="st0" d="M441.2,277.4l-0.1,0.7c0.2,0.1,0.5,0.2,0.7,0.2L441.2,277.4z"/>
					<path class="st0" d="M134.4,108.9c0.1,0,0.1,0,0.1,0C135.6,108.4,135,108.6,134.4,108.9z"/>
					<path class="st0" d="M94.1,402.2c-2.3-3.4,5.9,3.1,2.2-1.8C96.4,401.2,90.7,398.4,94.1,402.2z"/>
					<path class="st0" d="M423.5,239.8c-0.2-0.5-0.5-1-0.7-1.5C423.1,238.9,423.4,239.4,423.5,239.8z"/>
					<path class="st0" d="M96.3,400.5L96.3,400.5l-0.3-0.5C96,400.1,96.1,400.3,96.3,400.5z"/>
					<path class="st0" d="M62.2,161.7c0.3,0,0.7-0.1,1-0.3C63.1,161.2,62.8,161.3,62.2,161.7z"/>
					<path class="st0" d="M114.8,121c-0.5,0.2-1,0.5-1.6,0.6C113.9,121.3,114.4,121.2,114.8,121z"/>
					<path class="st0" d="M44.7,191.8c-0.5,0.8-0.8,0.9-1.3,2.2c0.1-0.1,0.2-0.1,0.3-0.2C43.9,193.2,44,192.6,44.7,191.8z"/>
					<path class="st0" d="M32.1,225.6c0.1-0.1,0.2-0.3,0.5-0.6c0.1-0.3,0.1-0.8,0.2-1.1L32.1,225.6z"/>
					<path class="st0" d="M322,325.8c0.3-1,0.7-1.6,1-2c-0.5,0.3-0.7-1.1-0.9-1.7c-0.1-0.3-0.1-0.3-0.2,0.1
						C322,322.7,321.9,323.9,322,325.8z"/>
					<path class="st0" d="M424.4,240.4c-0.3,0-0.7-0.2-0.9-0.7c0.2,0.3,0.3,0.7,0.6,1C424.3,240.8,424.4,240.7,424.4,240.4z"/>
					<path class="st0" d="M53.1,197.6c-0.9,1.6-1.6,3.2-2.4,4.8c0.3-0.7,0.8-1.5,1.1-2.3c0.2-0.5,0.5-0.8,0.6-1.3
						C52.6,198.4,52.8,197.9,53.1,197.6z"/>
					<path class="st0" d="M316.9,455l1.3-0.5C317.5,454.7,317.2,454.8,316.9,455z"/>
					<path class="st0" d="M45,217.3c-0.7,0.8-1.3,1.7-1.8,2.6c0,0.2,0,0.5,0.1,0.7L45,217.3z"/>
					<path class="st0" d="M323.1,323.8L323.1,323.8L323.1,323.8z"/>
					<path class="st0" d="M348.2,290.9c-3.1,1-3.6,1.8-3.5,2.4s0.8,0.9,0.5,1.7c-1.6,0.8-2.6,1.4-3.2,1.6c-0.7,0.2-1,0.2-1.3,0.1
						c-0.5-0.2-0.5-1-1.8-0.7c-1.9,1.5-3.1,3-4.2,4.4c-0.6,0.7-1.1,1.5-1.7,2c-0.6,0.7-1.1,1.3-1.7,1.9c-0.3,0-0.9,0.3-0.6-0.5
						c-1.3,2.2-3.6,4.9-5.5,8.4c-1.8,3.4-2.6,7.7-1.8,10.7c-0.1,0.5-0.3,0.7-0.5,0.8c0.9-0.9,1.7-1,2.4-0.8c0,0.3,0,0.7,0,0.9
						c0,0.3,0.1,0.6,0.1,0.9c0.1,0.6,0.2,1.1,0.3,1.6c0.2,0.9,0.3,1.7-0.1,2.3c-0.2-1.6-0.7-1.6-1.1-2.4c0.3,0.9,0.6,1.8,0.9,2.6
						c-0.5,1.4-0.9,0.5-1.1-0.7c-0.1-0.7-0.2-1.4-0.5-1.9c-0.1-0.6-0.3-0.9-0.6-0.9c0.1,0.7,0.2,1.5,0.5,2.2c0.2,0.7,0.3,1.4,0.7,2
						c0.5,1.4,1,2.6,1.6,3.9c1.1,2.5,2.3,4.7,3.1,6.6c-0.5,0.8-1.7-1.4-2.5-3c-0.5-0.8-0.7-1.5-0.9-1.7c-0.1-0.1-0.2,0.2-0.1,1.7
						c-0.3-1-0.6-2-0.8-3.2c-0.2-1-0.5-2-0.6-3.2c-0.6,2.6-0.8,1.7-1,0.7c-0.2-1-0.5-2-1.3,0.5c0.9,4.3,2.2,6.6,3.4,8.8
						c1.4,2.2,2.6,4.3,5.5,8c2,0.9,0.5-1.4,2.5-0.5c2.4,1.9,4.1,3.2,5.2,4.3c1.1,1.1,1.9,2,2.6,3c1.4,1.7,2.7,3.4,7.4,3.6
						c1.3-0.1,2.2-0.7,3.5-0.9c1.4-0.2,3-0.1,6,0.8c-0.8,0.5-1.5,1-2.3,1.5c2,0.3,3.4,0.3,4.3,0.1c1-0.1,1.6-0.5,2.2-0.7
						c1.3-0.6,2.4-0.8,6.7-0.7c-0.7,0.5-2.3,0.8-3.6,0.9c-1.3,0.1-2.2,0.2-1.6,0.2c2.8,0.6,3.9,0.1,4.7-0.3c0.8-0.6,1.4-1.1,3.4-1.6
						c0.5,0.5,0.8,0.9,1.3,1.3c0.3-0.1,0.8-0.2,1.3-0.3c0.5-0.1,0.8-0.2,1.3-0.3c0.9-0.2,1.9-0.5,3-0.6c1-0.2,2.2-0.5,3.4-0.8
						c0.6-0.2,0.8-0.2,1.3-0.3l1.1-0.3c3.2-0.6,7-0.1,10.6,1.5c-0.6,0.2-1.9,0.1-0.6,1.3c2.2,0.7,4.2,2,6,3.6
						c0.9,0.8,1.8,1.6,2.5,2.6c0.3,0.5,0.8,0.9,1.1,1.5l0.9,1.6c0.3,0.5,0.6,1,0.8,1.6s0.5,1,0.7,1.6c0.1,0.6,0.2,1.1,0.5,1.7
						c0.1,0.6,0.3,1.1,0.3,1.7c0.1,1.1,0.3,2.2,0.2,3.3c0,0.6,0,1.1-0.1,1.6c0,0.6-0.1,1-0.2,1.6c0.3,1.1,0.8,2.3,0.9,3.5
						c-0.1,0.9-0.9,1.5-1,0.6c-1.1,3.6,0.8,0.3,1,2.3c-0.2,2.2-1.3,2.6-1.4,1.3c-0.1,1.7-0.5,3.8-0.7,5.9c-0.2,1.1-0.6,2.2-0.9,3.4
						c-0.3,1.1-0.6,2.4-1.1,3.5c-0.9,2.3-1.9,4.5-3.3,6.5c-0.7,1-1.3,1.9-1.9,2.7c-0.7,0.8-1.4,1.5-2,2.2l0.5-1.4
						c-0.9,1-1.5,1.9-1.8,2.8c-0.3,0.9-0.7,1.6-0.9,2.4c-0.2,0.8-0.6,1.6-1,2.3c-0.2,0.3-0.6,0.8-0.9,1.1c-0.5,0.3-0.9,0.7-1.5,1
						l0.6-0.9c-4.4,4.3-9.4,8.5-14.5,12c-1.3,0.8-2.6,1.7-3.9,2.5c-1.4,0.7-2.6,1.4-3.9,2c-0.7,0.3-1.3,0.7-1.9,0.9
						c-0.7,0.2-1.3,0.5-1.9,0.7c-1.3,0.5-2.5,0.9-3.6,1.1c-0.3,1.3-3.3,2.4-6.1,3.5c-2.8,1-5.5,2-5.3,3.5c-7.3,1.3-5.5,0.2-15.3,2.3
						c-2.6,0.6-3.4,2.7-6.6,3.9l-0.5-1.4l-4.1,2.5c-0.9-0.3-1.8-0.7-2.7-1.1l-3.1,1c1.3-0.2,2.7,0.1,2.6,0.5
						c-4.8,1.7-12,1.3-12.3,0.6l-5.7,1.5c-1.9,0.5-3.9,0.9-5.7,1.4c0.2-0.6,2.2-1,3.6-1.6c-6,2.2-1.3-1.3-6.8,0.7
						c0.8,0.2-0.3,0.9-0.5,1.1c-1.5-0.3-3.9-0.2-6.4-0.1c-2.6,0.1-5.3,0.5-7.7,0.7l0.9-1c-8.6,0.2-18.2,1-28,0.6
						c3.4,0.7,2.6,2.3-0.2,2.3l-1-1.6c-1.9,0.8,3,0.7-0.9,1.6c-3.6-0.3-2.4-1.8-0.2-2.2c-1.5,0.1-3,0.1-4.4,0.2
						c-0.2-0.5,0.8-0.6,1.1-1.1c-0.9,0.3-2.8-0.1-4.8-0.6c-1.9-0.5-4-0.9-5.3-0.2l-0.2-0.5c-2.4-0.3-4.3-0.7-6.3-0.9
						c-0.9-0.1-1.8-0.2-2.6-0.3c-0.8-0.1-1.7-0.3-2.5-0.5c-1.6-0.3-3.2-0.6-4.8-0.9c-1.6-0.3-3.3-0.6-5.2-1.1
						c-0.5,1.3-3.4,0.1-5.9,0.5c-2.7-0.9-5.6-2.3-8.5-3.5c-1.5-0.7-3.1-1.3-4.5-1.9c-1.6-0.7-3.2-1.4-4.8-1.9
						c-4.9-1.1-1.7,0.5-4.1,0.5c0-1.1-6.5-3.8-2.8-3.2c-4-1.6-6.5-2.5-9.2-3.5c-2.7-1.1-5.8-2.3-10.9-4.1c0.8,0.9,1.9,1.7,1.1,1.7
						c-1.8-0.6-3.8-2.4-3.3-2.7l0.5,0.1c-2.8-1-5.8-2.5-8.6-4.1c-2.8-1.7-5.6-3.8-8.3-5.7c-1.4-0.9-2.7-1.9-4-3
						c-1.3-0.9-2.6-1.8-3.9-2.7c-1.3-0.8-2.5-1.6-3.8-2.2c-1.1-0.7-2.4-1.3-3.5-1.6l0.6,0.2l-4.5-2.2c-1.5-0.7-3.1-1.5-4.4-2.3
						c-3.6-2.8,2.7,0.9,0.3-1.7c-2.5-1.1-4.5-2.4-6.4-3.5c-1.8-1.3-3.4-2.5-5-3.9c-1.5-1.3-3-2.5-4.5-3.8c-1.5-1.3-3.1-2.5-5-3.6
						c-0.8-1.7-2.3-3.5-4.1-5.6c-0.9-1-1.9-1.9-3.1-3c-0.6-0.5-1.1-1-1.7-1.5c-0.6-0.6-1-1-1.6-1.6c-1.1-1-2.2-2.2-3.3-3.2
						c-0.6-0.6-1.1-1-1.6-1.6c-0.5-0.6-0.9-1.1-1.4-1.7c-1.8-2.3-3.4-4.7-4.3-6.8l-0.3,0.9c-2-1.4-1.4-2.6-2.3-4.1
						c-0.3,0.6,0.9,2.5-0.3,1.6c-6.4-7.7-11.9-16.6-16.7-25.9c-4.8-9.3-8.9-18.9-12.3-28.3c-1.3-3.5-2.6-4-3.8-5
						c-1.3-1-2.3-2.2-2.7-7l2.3,2.2c-3.2-6.9-5-14.4-6.5-21.9c-0.3-1.9-0.7-3.8-1-5.7c0,0.1,0-1.3,0-2.2c0-0.9,0-1.9-0.1-2.8
						c0-1.9-0.2-3.8-0.2-5.7c0-1.8-0.1-3.8-0.2-5.6c0.3,0.9,0.8,0.9,0.7,2.4c0.3-0.8,0.5-1.8,0.6-3.1c0.1-1.3,0.1-2.5,0.1-3.8
						c0-2.5-0.3-4.7-0.8-4.7c0.3-2.3,0.8-0.5,1.5-1.8c0.5-1.5,0.5-3.4,0.3-5.2c0-1.8,0-3.4,0.6-4.1c0.2-0.2,0.2,0.9,0.2,1.5
						c-0.1-0.6,0-1.4,0.1-2.3s0.3-1.9,0.5-2.8c0.3-1.8,0.5-3.2-0.3-2.4c0.5-1.4,0.7-2.6,1-4c0.3-1.3,0.6-2.5,0.8-3.8
						c0.6-2.4,0.9-4.8,2-6.7c-0.2-1.6,0.7-3.8,1.4-5.8c0.8-1.9,1.5-3.6,0.8-4.4c0.9,0.6,2-1.6,3.2-4.2c1.3-2.6,2.3-5.8,2.6-7.6
						c0,1.3,1.9-2.4,2.2-0.8c0.9-1.7,1.7-3.5,2-4.8s0.5-2-0.1-2c3-2.5,4.2-6,5.8-8.9c0.7-1.5,1.5-2.8,2.3-4c0.8-1.1,1.8-1.9,3.1-2.3
						c6-10.1,13.2-18.6,20.9-26c0.2,0.5-0.1,1.1-0.9,2c-0.8,0.8-1.8,1.8-2.8,2.8c-2,2-3.9,4-3,4.5c1.6-1.9,3.1-3.6,4.4-5.3
						c1.4-1.6,2.7-3.1,4.1-4.7c1.4-1.5,2.7-2.8,4.3-4.3c1.6-1.4,3.3-2.8,5.5-4.2c2.3-1.3-0.7,1.6-1.1,2.4c1.9-1.6,3.9-3.2,5.9-4.7
						c2-1.4,4.1-2.6,6-4c4.1-2.5,8.1-4.8,11.8-7.4c0.1,0.2-0.7,0.8-1.5,1.4c1.6-0.9,3.8-1.6,3.2-2.4l-1.5,1c-1.6,0.1-0.3-1.4,1.4-3
						c1.7-1.6,3.9-3.1,3.9-3.5c-0.8,1.8,1.3,1,3.3,0.5c1.9-0.7,3.8-0.9,2.2,1.5c1-0.6,2.2-1.6,1.7-2c1.7-0.5,2.4-0.3,1,0.9
						c5.7-2.8,3.2-3.1,8.6-5c0.1,0.5-0.9,1-1.3,1.7c2.4-1.8,4.9-3.8,9.8-4.8c-0.2,0.3,0.5,0.6-0.9,0.9c8-2.7,13.3-6.3,22.6-7.4
						c-2.3,2.4,3.2,0,4,1.6c1.6-0.5,3.2-0.9,4.8-1.4l-2.2-0.6c4.3-0.6,8-2.5,11.8-2.3l-3.2,1l8.1-1.1l-4.7-0.1
						c4.3-1.4-0.7-2,5.2-2.2c-1.1,0.2,4.4-0.2,6.8,0.6l0,0c2.2-0.7,4.4-1.3,7.6-0.9c0.9,0.6-0.7,1.9-0.1,2.3c1-0.8,3.6-0.9,6.3-0.9
						s5.3-0.2,6.7-0.9c-0.9,0.3-1,1.3-0.7,1.4l1.8-1c2,0.5,2.3,0.7,1.9,1.4c6.1,0.6-1.8-2.3,5.3-0.9c-0.6,0-0.3,0.2-1.5,0.3
						c3.6,0.6,7.2,0.7,10.6,0.8c1.7,0.1,3.4,0.2,5.1,0.5c1.7,0.2,3.4,0.5,5,0.9c0.8,1-0.6,0.9-2,0.7c-1.5-0.1-2.8-0.2-1.8,0.6
						c9.5,1,20,1.5,29,4.4c-0.6-0.2-1.1-0.5-1.6-0.7c0.9-1,2.6-0.2,4.5,0.8c1.9,1.1,4.3,2.4,6.7,2.6c-1.1-0.2-1.8,0.8-1.5,0.7
						c3,1.3,6.1,2,9.7,3.1c3.5,1.1,7.5,2,12.2,3.8l-1.4,0.1c1.6,1,3.9,2,6.1,3.2c2.3,1.1,4.5,2.3,6.3,3.3c1.4,0,3.4,1.1,2.5-0.3
						c2.4,2.3,4.9,4,7.5,5.5c2.6,1.6,5.2,2.8,7.8,4.1c2.6,1.4,5.1,2.7,7.5,4.2c2.4,1.6,4.5,3.4,6.4,5.7c-1.1-0.8-2.8-1.4-2-0.8
						c1.4,0.9,2.7,1.7,4,2.5l3.9,2.7c0.1-1.3-0.6-1.3-1.7-3.2c1.4,0.2,3.8,1.6,5.7,3.1c-3.9-2.2-1,1.4,0,3c0-0.5,0.7-0.3,0.8-0.7
						c2.6,4.7,2-1,6.4,4.3l-0.7,0.2c2.2,1.5,4.3,2.6,6.3,4.5c0,1.7-2.4-1.5-3.2-0.8c1.5,1.3,3.2,2.2,4.9,3.2c1.7,1,3.1,2.2,3.9,3.9
						c-1.4-0.9-3-2.6-4.4-3.5c1.7,3.6,2.3,3.8,4.1,5.9l-0.1-0.2c1.4,1.7,2.7,3.4,4,5.1l-0.8-1.5c2.7,0.7,4.5,2.5,6.3,4.4
						c0.5,0.5,0.9,1,1.4,1.5c0.5,0.6,0.9,1,1.4,1.6c1,1,2.2,2.2,3.5,3.1c-5.6-3.6-1.6-0.1-3,0.3c0.8,1.5,1.9,3.8,1.3,3.4
						c1.4,0.8,1.9,2,2.7,3.2c0.7,1.3,1.6,2.6,3.5,3.9c-0.2,0.5,1.9,2.6,0.6,2.7c2.5,3.1,0.1-1.3,0.7-1.3c2.4,2,4,5.3,5.9,8.9
						c0.9,1.8,1.8,3.6,2.8,5.5c0.6,0.9,1.1,1.8,1.8,2.6c0.3,0.5,0.7,0.9,1,1.3c0.3,0.5,0.7,0.9,1,1.3c2.2,3.1,3.9,4.8,5.3,6.5
						c1.6,1.7,3,3.3,4.9,6.4c0.5,2.5-2.3-1-2.3-1c0.6,1.9,1.3,3.4,1.9,4.9c0.8,1.5,1.5,3,2.5,4.4c-0.7-0.6-0.7,0.3-0.7,1.5
						c1.3,2.6,2.3,1.1,3.2,4.9c-0.7-0.5-1.8-0.9-2.8-1.9c1.8,3,3.8,5.8,5.5,9c-0.3,1.1-1.9-1.6-2.8-2.5c0.9,1.8,2,4.1,3.1,6.1
						c1,2,2,3.6,2.8,4.1l-0.5-2.6c0.6,1.4-0.8,1-1.3,0.1c-2-2.8-1.4-4.8-1-5.1l1.3,2.3c1.5-3.3-4-9.4-6-14.1l2.6,1.3l-3.5-4.2
						c0-1.3,0.7-2.4,1.9-0.1c-0.7-3.8-1.9-2.7-2.4-6c0-0.3,0.1-0.2,0.3,0l-2.2-3c0.7,0.5,0.9-1.1,1.7,1c-1-3.2-2.4-5.3-3.8-7
						c-1.3-1.7-2.3-3-2.3-4.4l0.3,0.5c-2.5-3.8-2.8-3.9-3.3-3.5c-0.3,0.3-0.7,0.9-3.2-1.6l0.6-5.7h-1.6c-0.5-0.8-1.4-2.4-0.7-2.5
						c-2.7-2.4-0.1,0.8-2-0.3c-0.7-2.2-2.6-4.7-4.1-6.8c-0.7-1.1-1.5-2-1.9-3c-0.5-0.8-0.6-1.6-0.3-2.2c-1.8-0.7,1.9,3.9-1.6,0.6
						c0.6-1.3-0.3-2.3-1.6-3.5c-0.6-0.6-1.4-1.3-1.9-2c-0.7-0.7-1.3-1.5-1.7-2.5c1.7,0.2,3.8,3.6,1.9-0.2c-1.6-0.3-2.7-1.9-3.9-3.8
						c-0.6-0.9-1-1.9-1.6-2.8c-0.6-0.9-1.1-1.7-1.8-2.3c-1.4,1-5.5-5.2-10-9c0.1,0-0.2-0.6-0.9-1.5c-0.7-0.9-1.7-2-2.8-3.3
						c-1.1-1.3-2.5-2.6-3.8-4c-0.6-0.7-1.3-1.4-1.8-1.9c-0.6-0.6-1.1-1.1-1.6-1.6l0.3-0.1c-0.9,0.2-2.4-0.6-4.1-1.7
						c-0.8-0.6-1.7-1.3-2.6-1.9c-0.9-0.7-1.8-1.3-2.6-1.8c0.8-0.7,1.6-0.6,3.6,0.5l-3.1-2.4c-1-0.1-2.2-0.7-4.2-2l1.5-0.3
						c-2-1.6-4.3-2.7-6.7-4.2c-1.1-0.7-2.4-1.5-3.6-2.3s-2.5-1.7-3.8-2.7c-0.9,0.8,2.5,5.6-3.6,2.4c0.1-0.7,0.5-1.7,2.2-0.9
						c-0.6-0.2-2-0.7-2.8-1.6l2.8,0.6c-2.3-2-1.8-0.1-3.8-1.5c0.6-0.8-1.1-1.5-0.5-1.9c0.6,0.2,1.6,1.4,2.5,1.6
						c-1-0.8-2.3-1.7-3.2-2.6c-1-0.9-1.7-1.7-2-2.3c-0.1,0.6-0.6,1-2.4,0.1c-2.2-1.3-2.5-1.7-2.4-2c0-0.3,0.3-0.7-0.9-1.6
						c-1.4,0-4-2.2-4.7-1c-1.4-0.7-1.3-1.4-1.6-2c-2.6-0.7-11.1-5.2-9.1-2.6l0.6,0.3c-0.1,0-0.2-0.1-0.5-0.1l0,0l0,0
						c-2-0.6-4.2-1.4-6.1-2.3c-1-0.5-2-0.9-3.1-1.4l-3.1-1.4c-2-0.9-4.1-1.9-6-2.7c-2-0.8-4.1-1.5-6.1-2l0.1-0.5
						c-2.5-0.6-5.2-1.3-7.8-1.9c-1.3-0.3-2.5-0.6-3.8-0.8c-1.1-0.2-2.3-0.2-3.2-0.2c-1.5-0.3-3.3-1.7-2.5-2
						c-3.9-0.7-4.4-0.2-9.8-2.2c4,0-1.1-0.9,4.1,0.2c-4.9-1.5-5.9-2.4-11.5-2.2c1-0.5,0.1-0.9-1.4-1.4c-0.7-0.2-1.6-0.5-2.4-0.6
						c-0.8-0.1-1.7-0.2-2.3-0.1c1.1,0.5,2.3,0.8,3.4,1.4c-2.7-0.3-5.1-0.7-7.4-1l1.5-1.4c-1.3-0.5-2.5-0.7-3.8-0.9
						c-1.3-0.2-2.5-0.2-3.6-0.3c-2.4,0-4.7,0-6.9,0.2c-4.4,0.5-8.5,0.6-12.5-0.9c-2.7,1,5.7,0.8,3.2,2c-2.4-0.1-4.8-0.8-6.8-1.4
						c-2-0.7-3.6-1-4.4-1c-3.3-0.3-4.9,0.2-6.4,0.9c-1.6,0.7-3.1,1.4-6.6,1.4c0.9,0.5,1.8,1.8-3.2,2.7c-4.8,0.3-6-1.6-3.1-2.4
						c1.1-0.1,1.7,0,1.7,0.1c1.5-0.3,3.5-0.8,1.6-1.1l-0.6,0.6c-2.4-0.3-9,0.5-7.6-0.6c-3.5,1-1.5,1,1.3,1c-6.3,0-9.5,1.3-15.9,1.9
						c1,0.1,2,0.6,1.1,0.7c-4.7,0.5-5.6,1-6.1,1.5c-0.6,0.5-0.7,1-3.8,1.8c-1.8,0-1.6-0.6-1.7-0.8c-0.1-0.2-0.5-0.3-3.5,0.8
						c-3.9,0.5-1.1-1.1,0.2-2c-2.7,1.3-5.3,1.8-7.7,2.2c-2.4,0.5-4.5,0.6-6.1,1l2.8-1.4c-1.7,0.8-3.2,1.3-4.5,1.7
						c0.7,0.1,1.4,0.3,2,0.5c-1.8,0.3-3.2,0.9-3.3,0.5c-1.5,1.3,1.9,1.3-1.3,3.4c-1.3,0.1-2.8,0.9-4.4,1.5c-1.5,0.7-2.8,1.1-3.5,0.7
						c3.5-1.3,3.3-1.5,2.7-1.7c-0.5-0.2-1.1-0.7,1.8-1.8c-0.6,0.3-1.1,0.6-1.9,0.8c-0.7,0.3-1.5,0.6-2.4,0.8c-0.3,0,0.1-0.3,0.6-0.7
						c-3.6,0.8-4.2,1.5-4.8,2.4c-0.3,0.5-0.6,0.9-1.3,1.4c-0.7,0.6-1.6,1.3-3.3,2c0.6-1.1-2.3-0.7-3.3,0c2.7-1.3,1.9,0.6-0.3,2.3
						c-4.5,1.6-4.4,2.8-6.7,3.9l2.7-1c-0.2,0.6-0.9,1.1-1.8,1.7c-0.5,0.3-1,0.7-1.6,1c-0.6,0.3-1.3,0.8-1.9,1.3
						c-0.6-0.5,2.4-1.9,1.3-1.6c-1.3,1.6-3.2,2.3-5.5,3.1c-0.6,0.2-1.1,0.5-1.7,0.6c-0.6,0.2-1.1,0.5-1.6,0.8
						c-1.1,0.6-2.2,1.3-3.1,2.2c-2.3,0.8-1-1.1-3.1-0.3c-2.2,2-3.5,2.8-5,3.5c-1.5,0.7-3.1,1.4-5.2,3.6c2-0.2,2.2-0.7-0.6,2.8
						l3.8-3.4c1.3-1.1,2.6-2.2,3.9-3.3c-1.5,1.7-3,3.3-4.2,5.1c1.1-0.9,2.4-2,3.4-3c1.1-0.9,2-1.8,2.8-2.3c-1.9,2.5-1.8,2-0.2,2
						c-2.2,0.6-3.8,1.8-5.1,3.4c-1.5,1.6-3,3.2-5.1,4.2l-1.6-2.2c-1.6,0.9-3,2-4.1,3.2c-1.3,1.1-2.4,2.4-3.5,3.8
						c-2.2,2.7-4.7,5.6-8.1,8.9l2.4-1.9c0,0.8-1,1.9-2.2,3.1c-1.1,1.3-2.6,2.5-3.3,3.8c-0.5-0.8-1.9,0.5-3.2,1.1
						c0.3,0.1-0.8,1.5-1.9,3c-1,1.5-2,3.3-1.6,4.2l-3.4,2.6c-2.4,3-3,5.2-3.6,7.3c-0.7,2.2-1,4.3-3,7.3c0.2-2.4-1.9,0.2-0.1-4.4
						c-1.3,2-2.5,3.9-1.9,4.2c-0.7,0.5-1.1,2.2-1.7,3.9c-0.6,1.7-1.3,3.5-2.2,4.3c-0.1,1,0.6,1.8-0.6,4.2c-0.3,0.2-0.5-0.2-0.5-0.2
						c0.3,0.2-1.1,4.1,0.7,2.4c-1.4,1.4-2.6,3.3-3.6,5.5c-0.9,2.2-1.9,4.5-2.6,7c-0.7,2.4-1.4,4.8-2.2,6.9c-0.7,2.2-1.5,4.1-2.5,5.5
						c-0.2,1.3-0.6,2.6-0.8,4.1c-0.2,1.4-0.5,2.8-0.7,4.2c-0.2,1.4-0.5,2.8-0.7,4.1c-0.2,1.4-0.3,2.6-0.5,3.8
						c-0.2-0.3-0.5-0.1-0.2-0.9c-0.9,3.2-0.3,4.3,0.1,5.5c0.2,0.6,0.5,1.3,0.6,2.2s0,2.2-0.3,4c-1.8,3.6-0.5-4-1.1-1.7
						c-1.5,0.3-1.6,2.6-1.6,5.5c0,1.4,0.1,3,0.1,4.4c0,1.5-0.2,3-0.7,4.2l-0.1-1.3c-0.6,1.9-0.5,4.3,0,6.9c0.2,1.4,0.5,2.7,0.6,4.2
						c0.1,0.7,0.1,1.5,0.2,2.3c0,0.3,0,0.7,0,1.3c0,0.2,0.1,0.6,0.1,0.8l0.1,0.6c0,0-0.3-0.2-0.5,0c2.2,4,4.2,11.8,6.3,17.5
						c-1.6-1.5-1.3-2.5-2.2-1.1c0.8,2.6,1.6-1.3,3.3,3.9c-0.1,1.8,0.5,5.7-0.6,6.6c-0.6-1.6-1-3.3-1.5-4.9c-0.8,3,1.9,6.4,2.5,9
						l-0.8-0.1c1.4,3.8,2.6,5.5,3.8,7.2c1.3,1.7,2.4,3.5,4,7.4l0.1-1c3.5,3.4,0.7,4,3.9,7.5l-1,2c1.7,2.5,6.4,8.6,9.4,13.1
						c-2.7-1.9-6.4-7.2-8.9-10.3c1.4,2.7,5,9,6.5,9.9c-0.8-0.9-1.9-2-2.3-3.3c3.1,2.5,6,6.4,9.1,11.4c-1.7,0.5,0.1,3.9,2.5,7.7
						c2.4,3.9,5.5,8.2,5.6,10.7c1.8,1.9,3.5,4,5.1,6.1s3.2,4.2,4.9,6.6c3.5,4.3,7.4,8.9,12,13c-1.4-5,2.7,2.4,4-0.2
						c2.3,1.7,3.1,2.5,3.2,2.7l2.8,3.4c0.9,1.1,1.8,2.3,2.8,3.4c1.1,1.9-2.6-1.1-2.7-0.6c4.9,4.1,1.4,2.6,4.2,5.7
						c-0.1-1.4,2.6,0.2,5.2,2.7c-1.1-1.4-2.2-2.7-3.3-4.1c4,2.2,5.1,3.6,6.4,5.2s2.5,3.2,6.6,5.1c-0.9-0.2-1.8-0.6-2.8-0.9
						c4,2.3,14.1,9.3,19.1,9.7c0.6,0.7,1,1.9-0.8,1c1.1,0.8,2.4,1.5,3.6,2.2c1.3,0.7,2.6,1.4,3.9,1.9c2.6,1.3,5.3,2.5,8,3.6
						s5.2,2.2,7.6,3.3c1.1,0.6,2.3,1.1,3.3,1.7c1,0.6,2,1.1,3,1.7l-1,0.2c1.9,0.7,3.8,0.3,5.8,2c-0.2,0.2-1,0.2-0.2,0.7
						c0.6,0.1,1.8,0.5,3.4,0.9c1.5,0.5,3.2,0.9,4.3,1.7l-2.4-0.2c4.8,2.5,8.6,3.6,12.5,4.4c3.9,0.8,7.5,1.4,11.8,2.5
						c-0.3,0.9,1.5,2.3,3.8,3.5c2.4,1.4,5.3,2.3,7.4,3.1l-0.2,0.2c5.9,1.9,11.4,2.5,16.6,3.1c5.2,0.2,10.5,0.5,16.1,0.6
						c1.7,0.7,4.1,1.3,6.8,1.6c2.7,0.3,5.9,0.7,9.2,0.8c3.3,0.2,6.7,0.2,10,0.3c3.3,0,6.6,0.1,9.4,0.3c-1.8-0.2,0.2-1.6,2.3-1.8
						c2.7,0.3,7.3-1.8,7,0h-0.9c1,0.8,3,1,5.1,0.9c2.2-0.1,4.7-0.5,6.8-0.7l0.5-2.5c5.8,1.1,13.1-0.2,19.7-1.9
						c3.3-0.8,6.4-1.7,9.1-2.3s5-0.8,6.7-0.5c2.5-1.4,5.8-2.2,8.2-3.5l0.2,1.3c1.8-0.5,3.4-0.9,5-1.4c1.5-0.5,3-0.9,4.4-1.5
						c1.5-0.5,3-1,4.7-1.7c1.7-0.7,3.5-1.5,5.7-2.5c-0.5,0.6-0.9,1.1-1.4,1.6c2.5-1,3.6-2.6,4.8-4.1c1.1-1.5,2-3.1,4.2-4.2l2.2,1
						c4.1-2.2,8.4-4.3,12.4-6.8c2-1.3,4-2.7,5.8-4.2c1.8-1.6,3.4-3.3,4.9-5.1c0.1,0.3,0.2,0.9-0.9,1.9c0.5-0.3,1-0.8,1.6-1.3
						c0.6-0.5,1.3-1.1,1.9-1.7c0.7-0.6,1.4-1.3,2-1.9c0.3-0.3,0.7-0.7,1-1c0.3-0.3,0.7-0.7,0.9-1c1.1-1.4,2.2-2.7,2.7-3.6
						s0.5-1.7-0.3-1.7c0.7,0.5,2.3-1.5,3.9-4.2c0.8-1.4,1.5-3,2.2-4.5c0.3-0.8,0.7-1.5,0.9-2.3c0.2-0.7,0.5-1.5,0.7-2l0.8,1.3
						c0.2-2.4,0.2-3.5,0.6-4.9c0.1-1.4,0.5-3,1.4-5.8c0.3-0.7,0.7-0.9,0.8-0.7c0.2,0.1,0.1,0.7-0.3,1.5c0.2-0.6,0.6-1,0.7-1.4
						c0.1-0.5,0.2-0.8,0.2-1.1c0.1-0.7,0.1-1.1,0.1-1.7s0-1.1,0.1-1.9c0.1-0.8,0.5-1.7,0.8-3.1c0.1,0.8,0.3,1.5,0.3,2.3
						c1-4.8,0.5-4.5,0-7.3c0-0.8,0-1.8,0.1-2.8c0-0.6,0.1-1,0.2-1.6c0.1-0.6,0-1,0.1-1.6c0.1-1,0.2-2,0.3-2.8
						c0.1-0.8,0.2-1.4,0.5-1.6c-0.5-0.3-1-1.1-1.5-2.2c-0.6-1-1.3-2.4-1.6-3.9c0.2-0.6,0.9,0.3,1.1,0.9c-1.1-4.3-3.3-6.9-5.5-8.9
						c-0.6-0.5-1-1-1.5-1.5c-0.6-0.5-1-0.9-1.6-1.4c-0.9-0.9-2-1.8-3-3c0.1-0.5,0-0.8-0.3-1.3c2.8,2,5.1,4.2,6.5,5.9
						c0.7,0.9,1.3,1.5,1.6,2c0.3,0.5,0.5,0.7,0.3,0.6c0.2-0.1,0.2-0.6,0.1-1.1c-0.1-0.5-0.3-1-0.5-1.5c-0.2-0.9-0.1-1.5,2-0.1
						c-1-0.8-2-1.8-3.4-2.7c-0.7-0.5-1.4-0.9-2-1.4c-0.3-0.2-0.7-0.5-1-0.7s-0.7-0.3-1.1-0.6c-0.7-0.5-1.5-0.8-2.2-1.3
						c-0.8-0.3-1.5-0.7-2.2-1c-0.3-0.2-0.7-0.3-1-0.6c-0.3-0.1-0.7-0.3-1-0.5c-0.7-0.3-1.4-0.7-1.9-1c-0.2-0.2-0.5-0.5-0.6-0.7
						l0.6,0.1c-1.3-0.6-2.4-0.8-3.4-1c-0.9-0.3-1.6-0.6-2.3-0.8c-0.3-0.1-0.7-0.2-1.1-0.3c-0.3-0.1-0.8-0.1-1.3-0.2
						c-0.3-0.5-2-0.9-4.2-0.9c-0.6,0-1,0-1.7,0.1c-0.6,0.1-1.1,0.2-1.7,0.2c-0.6,0.1-1.1,0.2-1.6,0.3s-0.6,0.1-0.8,0.2
						c0.5,1.3-2.4,1.5,0.5,2c-0.2,0-0.1-0.1,0.2-0.1c0.1,0,0.3-0.1,0.7-0.2c0.3-0.1,0.8-0.1,1.3-0.2c0.5-0.1,1-0.2,1.3-0.3
						c0,0-0.1,0.1-0.2,0.1c1.9-0.3,4.5-0.2,7.3,0.1c-2.4,0.3-4.5,0.6-8,0.3c-1.5,1-2.4,2.2-3.1,2.6c-1.7-0.6-4.2-1-6.8-1.1
						c-0.3,0-0.7,0-0.9,0c-0.2,0-0.5,0-0.7,0c-0.5,0-0.9-0.1-1.3-0.1c-0.7-0.1-1.3-0.3-1.5-0.6c-3.2,0.9-7.2,0.9-10.9,0.7
						c-1.9-0.1-3.8-0.3-5.3-0.5c-0.8-0.1-1.6-0.1-2.3-0.1c-0.7,0-1.4,0-2,0.1c-1.9-0.6-1.8-1.6-2.3-2.3c0.6,0.2,1.1,0.3,1.6,0.6
						c0.6,0.1,1,0.3,1.4,0.2c-1.9-0.5-4.4-1.7-6.5-3.1c-1-0.7-1.9-1.4-2.7-1.8c-0.8-0.5-1.5-0.8-1.9-0.7c-1.3-2.2-0.6-1.8,0-1.7
						c0.2,0.1,0.5,0.1,0.2-0.1c-0.1-0.1-0.2-0.3-0.5-0.7c-0.2-0.3-0.6-0.8-1.1-1.5c0.3,0.1,0.7,0.3,0.9,0.5
						c-1.3-3.1-2.3-5.7-3.4-8.3c-0.2-0.7-0.6-1.4-0.8-2s-0.5-1.4-0.8-2c-0.2-0.6-0.5-1.3-0.6-1.9c-0.1-0.7-0.3-1.3-0.5-1.9
						c-0.5-2.6-0.2-5.6,1.1-8.3s3.9-5.3,7.3-7.2c-0.9,0.5-1.4,0.8-1.7,0.8c1.7-1.4,3.5-2.6,5.5-3.9c1.8-1.1,3.8-2.3,5.7-3.2
						c1-0.5,2-0.8,3.1-1.3c1-0.3,2-0.7,3.2-0.8c2.2-0.5,4.3-0.7,6.6-0.7c4.4,0,9,0.9,13.3,2.5c4.2,1.6,8.4,3.8,12.5,6
						c4.7,2.5,5.7,1.7,9,2l0.6,1.7c1.9,0.1,3.9,0.2,5.8,0.2c4,0.6,7,2.2,10.7,3.3c0.9,0.3,1.8,0.6,2.8,0.8c1,0.2,2.3,0.3,3.4,0.3
						c2.4,0,5-0.8,7.4-2.4c-0.6-0.1-1.1-0.2-1.7-0.3c1.9-0.6,4.5-2.2,6.4-4c1.8-1.7,3.1-3.3,3.3-2.6c0.1-0.5,0-1.6,1.1-2.6l0.7,0.2
						c0.7-1.5,1-3.2,1.4-4.7l0.6-4.3c1.1-3.2,1.7-2.7,2.4-2.7c0.7,0,1.5-0.3,2.6-5.1c0.6-3.6,0.2-10.7-0.6-9.4
						c-0.3,1.5-1.3,3.6-1.9,3.5l0.3-3.3c-1.9-1-3.5-3.9-6.7,3.6c0,1.9,0,3.9,0,5.7l-1.5,1.5l1-4.5c-1.6,2.4-1.1,4.2-1,6.1
						c-0.7,0.3-1.3,0.9-1.7,1.9l0.5,5.7c-0.5,0.1-0.7-0.5-1-0.7c-0.3-0.3-0.7-0.2-1.3,0.9c0.1,1,0.7,0.8,1.1,0.7
						c0.5-0.1,1-0.1,0.5,1.6c-0.9,0.8-1.5,0.8-1.9,1c-0.5,0.2-0.7,0.6-1.1,1.7c-0.7-0.1-0.5-0.7-0.1-1.6c-0.3,1-1.3,2-2.2,2.8
						c-0.9,0.9-1.8,1.5-2.2,2.3c-1.3-0.1-2.8,0.6-4.4,0.7c-1.5,0.1-2.7-0.1-2.5-1.1c-0.3,0.2-1.6,0.5-3,0.7c-1.4,0.1-3,0.1-4.2,0
						c2.4-0.8,0.2-1.1-2.4-1.9c-2.6-0.7-5.6-1.8-4.5-2.8c-1.9,0.6-4.9-0.2-8.1-1.4c-3.2-1.1-6.7-2.6-9.9-3.3c0.3,0,1.1-0.1,1.6,0.2
						c-1.6-0.8-2.5-1.4-3.4-2c-0.5-0.3-0.8-0.6-1.1-0.9c-0.5-0.3-0.9-0.6-1.4-0.9c-0.6,0.7-2.3,0.7-4.2,0.5c-1-0.1-2-0.2-3.1-0.2
						c-1,0-2-0.1-2.8,0c-2-1.4-1.4-1.7-0.1-1.9c1.3-0.2,2.8-0.3,2.3-1.4c0,0.3-0.6,0.5-1.4,0.6c-0.8,0-1.8,0-2.7,0
						c-1.9,0-3.8,0.1-3,0.8c-3.5-1.5-3.1-0.8-5-2.3c-0.3,1.1-1.3,1.3-2.4,1.3c-0.6,0-1.3,0-1.9,0.2c-0.7,0.1-1.5,0.3-2.2,0.8
						c-2.7-0.1-3.3-0.3-3.8-0.6c-0.5-0.1-1-0.2-3.9,1.3c-1.5,0.2-1-0.3-0.2-1C347,291.6,348.2,290.9,348.2,290.9z M395.3,358
						L395.3,358c-0.5-0.1-0.8-0.3-1.3-0.5c-0.3-0.1-0.7-0.2-0.9-0.3c0.2,0.1,0.5,0.1,0.8,0.2C394.4,357.6,394.8,357.7,395.3,358z
						 M402.9,363.3c-0.5-0.5-0.8-0.8-1.4-1.4c-0.5-0.5-1.1-0.9-1.7-1.4c0-0.6,0.6-0.7,1.4-0.1c-0.3,0,0,0.3,0.5,0.8
						C402,361.9,402.6,362.6,402.9,363.3z M385.4,346.8c2.2-0.2,2.7,0.2,3,0.5c-0.5,0-1-0.1-1.6-0.1s-1.3,0.1-2,0.1
						c-0.1,0-0.2,0.1-0.2,0.1C384.8,347.2,385.1,346.9,385.4,346.8z"/>
					<path class="st0" d="M381.9,348.8c-0.2,0.1-0.5,0.1-0.8,0.2c0.5,0,0.8,0.1,1.3,0.1c0.2-0.2,0.5-0.3,0.7-0.5
						C382.7,348.6,382.2,348.8,381.9,348.8z"/>
					<path class="st0" d="M314.4,119.4l-0.2-0.1c0.1,0.1,0.2,0.2,0.3,0.3C314.5,119.5,314.5,119.5,314.4,119.4z"/>
					<polygon class="st0" points="327.9,452 327.9,452.3 328.7,451.7 					"/>
					<path class="st0" d="M360.6,153.7c0,0.1,0.1,0.3,0.3,0.8C361.1,154.3,360.9,154.1,360.6,153.7z"/>
					<path class="st0" d="M378.5,170.7l2,2.8C379.7,172.1,379,171.3,378.5,170.7z"/>
					<path class="st0" d="M390.5,185.2c0.3,0,0.5,0,0.7-0.1l0,0L390.5,185.2z"/>
					<path class="st0" d="M120,127.9c-0.2,0.1-0.5,0.2-0.6,0.3C118.1,129.3,119,128.6,120,127.9z"/>
					<path class="st0" d="M204.7,102c-0.9,0.3-1.8,0.6-2.8,0.8C203.4,102.8,204.6,102.8,204.7,102z"/>
					<path class="st0" d="M53.3,197L53.3,197c-0.1,0.1-0.2,0.3-0.3,0.6L53.3,197z"/>
					<path class="st0" d="M197.6,103.1c1.6,0.1,3,0,4.2-0.2C200.5,102.8,198.9,102.8,197.6,103.1z"/>
					<path class="st0" d="M430,256.4l0.2,0.9c0.1,0,0.1,0,0.2,0L430,256.4z"/>
					<path class="st0" d="M430.4,257.3l0.5,0.9C430.8,257.7,430.6,257.4,430.4,257.3z"/>
					<path class="st0" d="M431.9,260.1l-1-1.9C431.2,258.9,431.4,259.8,431.9,260.1z"/>
					<path class="st0" d="M420.9,233.1h-0.6C420.4,233.2,420.6,233.2,420.9,233.1z"/>
					<path class="st0" d="M417.3,226.4c0.7,1.7,1.1,4.5,2.5,6.6h0.5C419.2,232.3,418.8,227.6,417.3,226.4z"/>
					<path class="st0" d="M405.7,195.9l3.3,5.6c-0.2-1.3-0.6-2.8,1.3-0.5C406.9,193.5,410.4,203.2,405.7,195.9z"/>
					<path class="st0" d="M394,179.4c2.4,2.6,0.6-0.5,0.9-0.6C393.1,177.5,392.7,177.1,394,179.4z"/>
					<path class="st0" d="M271.7,103.5l0.6-1C269.6,101.9,272.2,102.8,271.7,103.5z"/>
					<polygon class="st0" points="243.4,104.5 245.9,105.5 247.2,104.6 					"/>
					<polygon class="st0" points="227.8,94.8 229,94.8 224.3,95 					"/>
					<path class="st0" d="M32.7,219l1.6-0.3C34.7,216.8,33.3,215.9,32.7,219z"/>
					<path class="st0" d="M40.8,324c-0.2,1.4,0.7,4.3,2,5.7C41.9,327.4,41.5,325,40.8,324z"/>
					<path class="st0" d="M302.7,468.4l-2,0.7c1.4-0.3,2.6-0.6,4-0.9C304,468.3,303.3,468.3,302.7,468.4z"/>
				</g>
			</g>
		</g>
	</g>
</g>
<g>
	<path class="st1" d="M473.7,33.9c0,0-217.7,131.5-218.6,170.6c-0.9,39.1,3.8,52.7-8.2,57.4c-33,12.7-51.9,25.8-51.9,25.8
		s13.1-67.1,34.8-67.3S368.4,147.1,473.7,33.9z"/>
	<g>
		<g>
			<g>
				<g>
					<path class="st0" d="M475.3,35.4c0.1-0.5-0.6-0.8-1.3,0.1l0.2,1.4L475.3,35.4z"/>
					<path class="st0" d="M468.5,39.6c-0.6,1.4-0.9,3.2,0.5,3.2c0.1-1.7,0.7-1.6,0.7-3.5c0.7-0.9,1.6-1.3,1.8-0.8
						c0.1-0.5,1.4-1.1,1.4-2c-1.7,0.5-3,1.8-3.8,3.8C468.6,40.3,468.6,39.8,468.5,39.6z"/>
					<path class="st0" d="M386.5,115.3l0.7-0.3C387,115,386.8,115.2,386.5,115.3z"/>
					<path class="st0" d="M332.3,158c0.5-0.3,0.6-0.6,0.5-0.7C332.4,157.8,332.1,158,332.3,158z"/>
					<path class="st0" d="M322.1,164.1c0.2-0.1,0.5-0.2,0.6-0.3C322.4,163.8,322.2,164,322.1,164.1z"/>
					<path class="st0" d="M386.5,115.3l-1.6,0.9C385.1,116.6,385.7,115.9,386.5,115.3z"/>
					<path class="st0" d="M459.8,52.7c0.2-0.3,0.3-0.6,0.5-0.9c-0.2,0.2-0.3,0.6-0.6,0.8C459.7,52.6,459.8,52.6,459.8,52.7z"/>
					<path class="st0" d="M408.7,94.5l0.5-0.3c0-0.2,0-0.5,0-0.7L408.7,94.5z"/>
					<path class="st0" d="M425.8,78.5c-0.5,0.3,0.1,1.1,0.2,1.6c0-0.5,0.1-0.9,0.3-1.3C426.3,78.6,426.1,78.5,425.8,78.5z"/>
					<path class="st0" d="M453.4,53.7l0.3-0.6C453.7,53.2,453.5,53.5,453.4,53.7z"/>
					<path class="st0" d="M396.2,105.4c-0.1-0.1-0.2-0.1-0.3-0.1C395.9,105.4,396,105.4,396.2,105.4z"/>
					<path class="st0" d="M448.3,44.4c0,0.1,0.1,0.1,0.1,0.1C448.4,44.4,448.4,44.3,448.3,44.4z"/>
					<path class="st0" d="M473.8,34.2l-0.3,0.2c0.1,0.2,0.1,0.3,0.2,0.5L473.8,34.2z"/>
					<path class="st0" d="M303.8,175.5C303.9,175.5,303.9,175.5,303.8,175.5C304.4,175.1,304,175.3,303.8,175.5z"/>
					<path class="st0" d="M224.7,275.8c-2.4,0.2,2.8-2.6-0.7-1.9C224.6,274.1,222,276.5,224.7,275.8z"/>
					<path class="st0" d="M459.3,53c-0.2,0.2-0.5,0.5-0.7,0.7C458.9,53.4,459.2,53.1,459.3,53z"/>
					<path class="st0" d="M224.1,273.9L224.1,273.9l-0.3,0.1C223.9,273.9,224,273.9,224.1,273.9z"/>
					<path class="st0" d="M262.3,202.4c0.1,0.1,0.5,0.1,0.7,0.1C262.9,202.5,262.8,202.4,262.3,202.4z"/>
					<path class="st0" d="M294.5,184.2l-0.8,0.3C293.9,184.5,294.2,184.3,294.5,184.2z"/>
					<path class="st0" d="M246.1,212.4c-0.5,0.1-0.7,0.1-1.3,0.5c0.1,0,0.1,0,0.2,0C245.3,212.6,245.5,212.5,246.1,212.4z"/>
					<path class="st0" d="M227.6,217.8c0.1,0,0.3,0.1,0.5,0.1c0.2,0,0.6-0.1,0.8-0.1C228.6,217.8,228.1,217.8,227.6,217.8z"/>
					<path class="st0" d="M397.1,77.8c0.6,0,0.9,0.1,1.3,0.2C397.7,77.6,400.1,75.8,397.1,77.8z"/>
					<path class="st0" d="M459.4,52.2c0.1,0.2,0.1,0.5-0.1,0.7c0.1-0.2,0.3-0.3,0.5-0.6C459.6,52.3,459.6,52.2,459.4,52.2z"/>
					<path class="st0" d="M248.4,219.5l-3.1,1.1C246.3,220.4,247.4,220,248.4,219.5z"/>
					<path class="st0" d="M281.1,163.7l0.5-0.6C281.3,163.4,281.2,163.6,281.1,163.7z"/>
					<path class="st0" d="M235.8,224.3c-0.7-0.2-1.5-0.2-2.2-0.2c-0.1,0.1-0.3,0.2-0.3,0.3L235.8,224.3z"/>
					<path class="st0" d="M398.4,78L398.4,78L398.4,78z"/>
					<path class="st0" d="M414.7,64.6c-2.6,1.6-0.6,1.8-0.7,2.7c-2.8,2.3-1.9,0.1-3.3,0.2c-1.7,1.5-2.5,3.4-4,4.3
						c-0.2-0.1-0.6,0-0.3-0.5c-1.5,2.2-5.9,4-7.6,6.5c-0.2,0-0.3,0-0.5-0.1c0.7,0.2,1.1,0.8,1.4,1.3c-1.1,0.8-1.7,2-2.5,1.7
						c0.7-0.5,0.6-0.8,0.8-1.1l-1,1.1c-1.7-0.2,1.4-1.4,0.9-2.2c-2.2,1.8-4.3,4.4-6.3,5.3c-1-0.7,4-3.1,1-2.4l3-1.5
						c-3.1-0.1,1.7-1-1.3-1.4c-3.9,2.2-3.8,3.2-7.5,5.3c-0.5,1,0.8,0.6,0.3,1.7c-4.4,4.4-5.7,0.3-8.5,4.1c-0.6,1.3-0.1,2.7-3.2,4
						l0.2-1.7c-3.5,2.3-0.9,3-5.1,4.7c0.3-0.9,2.5-2.3,1.8-2c-3,0.8-1.3,1.7-3.1,3l-1-0.7c-3.6,2.7-7.2,6.1-11.1,9.2
						c0-0.5,0.6-1.3-0.7-0.8c-4.8,4.1-11,7.6-16.4,10.6l-1.3,2.2c-0.5,0.3-1,0.2-0.7-0.2c-2.2,1,0.2,0.6-0.5,1.6
						c-1,0.8-1.8,0.6-1.3-0.1c-2.8,3.2-8.5,8.4-12.6,10.2l0.5-0.8c-3,1.7-1.8,4-4.9,5.1l0.3-0.5c-6.1,4.1-12,9.9-17.4,12.3
						c0.1,1.8-6.1,4.1-5.2,6c-3.9,1.9-3.2,0.9-8.2,4.2c-1.3,1-1,2.5-2.4,4l-0.7-0.8l-1.3,2.6h-1.9l-1.3,1.5c0.6-0.5,1.5-0.7,1.6-0.5
						c-1.8,2.3-5.7,4.2-6.1,3.9c-1.5,1.8-3,3.6-4.3,5.5c-0.2-0.5,0.6-1.4,1-2.2c-1.9,3.3-1.3-0.3-3,2.7c0.5-0.1,0.2,0.6,0.3,0.8
						c-1.7,0.7-4.3,3.5-6,5.9l-0.1-0.9c-0.9,0.9-1.8,1.9-2.6,3.1c-0.9,1-1.7,2.2-2.6,3.4c-0.9,1.1-1.7,2.4-2.5,3.6
						c-0.5,0.7-0.8,1.3-1.3,1.9c-0.5,0.7-0.8,1.3-1.1,1.9c0.7-0.9,1.3-1,1.6-0.8c0.2,0.2,0.2,0.9-0.1,1.7l-1.4,0.1
						c0,1.4,1.3-1.4,0.9,1c-1.1,1.9-1.8,0.8-1.6-0.6c-0.3,0.9-0.6,1.8-0.9,2.7c-0.3,0-0.2-0.7-0.6-1c0,0.7-0.7,1.8-1.4,3.1
						c-0.3,0.7-0.6,1.4-0.8,2c-0.1,0.3-0.1,0.7-0.1,1c0,0.3,0.1,0.7,0.2,0.9l-0.3,0.1c0,0.5-0.1,1-0.1,1.5c0,0.3,0,0.7,0,1
						c0,0.7,0,1.3,0,1.8c0,1.1,0,2.2,0.1,3.1c0.1,1.9,0.2,3.8,0.2,6c0.9,0.1,0.8,1.9,1.6,3.3c-0.2,3.4-1,7.2-0.8,11.3
						c0.6,2.8,0.8,0.8,1.4,2c-0.9,0.2-0.7,4.3-1.4,2.2c0.1,2.4,0.1,4,0.2,5.7c0.1,1.7,0.3,3.5,0.5,6.5c0.3-0.6,0.6-1.4,0.9-0.9
						c0.1,1.1-0.6,2.4-0.9,2.2l-0.1-0.3c0.2,1.6-0.1,3.4-0.7,4.9c-0.6,1.5-1.5,2.6-2.5,3.3c-1,0.7-2,0.9-3.5,1.4
						c-1.7,0.6-3.2,1.3-4.3,2.2l0.2-0.2c-1.7,1-3.3,2-5,3.1c-2.5,0.9,1.3-1.3-0.8-0.9c-5.2,3.8-9.2,3.8-13.4,6.8
						c-2.4-0.3-5.6,1.3-8.8,3.2c-3.3,1.8-6.6,4-9.3,4.5l0.6,0.3c-0.1,0.1-0.2,0.2-0.3,0.3s0,0.1-0.1,0.1c0,0-0.1,0-0.2-0.1
						c-0.1-0.1-0.2-0.3-0.2-0.5c0,0.5,0.3,0.5,0.2,0.8c-0.7,0.7-1.8,1.4-2.5,1.7l-0.1,0.1c0-0.1,0-0.2,0.1-0.2l0.2-0.6
						c0.1-0.3,0.2-0.7,0.5-1c0.2-0.6,0.6-1.1,0.8-1.4l0.1-0.1c0-0.1,0,0,0.1-0.3l0.5-1.5l1-3c0.7-1.9,1.4-4,2-5.9
						c1.5-4-2.3-3.3,0.8-8l0.6,1.8c0.7-4.3,2.3-8.4,4-12.4c1.7-4,3.6-7.7,5.3-11.5c0,0.6,0.2,0.7-0.1,1.4c0.8-0.6,1.6-1.8,2.2-3.1
						c0.6-1.1,1-2.3,0.7-2.5c0.8-0.9,0.7,0.1,1.4-0.2c0.7-0.5,1.1-1.4,1.6-2.2s0.9-1.5,1.5-1.4c0.2,0-0.1,0.5-0.3,0.7
						c0.2-0.5,1.1-1.1,1.7-1.6c0.7-0.5,1.1-0.8,0.6-1c1.1-0.3,2-0.8,3-0.9c0.2,0,0.5-0.1,0.7-0.1c0.5,0,0.9-0.1,1.4-0.1
						c0.9-0.1,1.8-0.1,2.5-0.1c1.7-1.4,6-1.1,6.1-2.7c0.1,0.8,1.6,0.6,3.3-0.1c1.7-0.6,3.4-1.7,4.3-2.5c-0.5,0.7,1.9-0.3,1.4,0.6
						c2.2-1,4-2.3,3.3-2.7c2.4-0.1,4.2-1.5,5.8-2.6c1.6-1.1,3-2.2,4.7-1.7c5.8-4.1,11.1-7.8,16.3-11.5c0.6,1.5-5.9,3.8-4.9,5
						c2.4-1.8,4.2-3.4,6-5c1.8-1.5,3.6-3,6.3-4.4c1.4-0.7-0.3,1-0.7,1.5c4.7-3.8,9.8-6.1,13.8-9.8c0.1,0.1-0.3,0.6-0.7,1
						c0.8-0.6,2.2-1.1,1.7-1.7l-0.7,0.7c-1.9,0.1,2.3-4.1,2.2-4.7c-0.3,2.6,4.7-2.5,3.8,1.1c0.5-0.5,1-1.3,0.7-1.6
						c0.9-0.5,1.4-0.5,0.8,0.6c2.8-2.4,1.4-2.3,4.1-4.2c0.2,0.3-0.3,0.8-0.3,1.4c1-1.5,2-3.1,4.5-4.4c0,0.2,0.5,0.3-0.3,0.8
						c4-3,5.8-6.3,10.6-9c-0.5,2.2,1.8-0.7,2.7,0.2l2.2-2l-1.3,0.2c2-1.5,3.3-3.5,5.3-4.5l-1.3,1.6l3.6-3.1l-2.4,1.3
						c1.7-2-1.1-1.1,1.7-2.8c-0.5,0.5,2-1.5,3.5-1.7l0,0c0.8-1.1,1.5-2.2,3.2-3.1c0.7,0,0.6,1.4,0.9,1.4c0.3-1.6,4.5-3.9,5.1-5.7
						c-0.2,0.6,0.1,1,0.3,1l0.3-1.4c1.1-0.5,1.4-0.5,1.5,0c2.8-2-1.9-0.6,1.8-2.6c-0.2,0.2,0,0.2-0.5,0.8c3.5-2.3,6-5.5,9.3-7.5
						c1.7,0.3-2.4,2.4-0.8,2.4c2-1.8,4.1-4,6.1-6c2-2,4.1-4.1,6.3-5.7l-0.9,0.6c-0.6-1.9,3.6-1.8,5.2-4.3c-0.5,0.6,0,1.4,0,1
						c3-2.2,5.5-5.2,9.4-9.2l-0.2,0.8c1.9-1.1,4.5-3.5,6.4-4.9c0.2-0.8,1.3-1.6,0.2-1.6c3.6-1.4,5.9-4,8.2-6.5
						c2.3-2.5,4.3-5,7.5-6.4c-0.6,0.6-1.1,1.5-0.7,1.1l3.8-4c-0.8-0.3-0.9,0.1-2.2,0.5c0.2-0.8,1.1-2.2,2.2-3.1
						c-1.5,2,0.9,0.9,1.9,0.6c-0.3-0.1-0.2-0.5-0.5-0.6c3.1-0.9-0.7-1.5,2.8-3.4l0.1,0.5c0.9-1.1,1.6-2.5,2.7-3.4
						c1.1,0.2-0.8,1.4-0.5,1.9c1.6-1.6,2-4.2,4.1-4.9c-0.6,0.8-1.5,1.7-2,2.6c2.3-0.7,2.4-1,3.6-2l-0.1,0.1l3.1-2.3l-0.9,0.5
						c0.3-3.6,3.8-4.2,5.5-8c-1.6,3.5,0.1,1,0.7,1.9c0.9-0.5,2.2-1.3,2-0.7c0.7-1.8,2.6-1.6,3.5-4.2c0.3,0.1,1.4-1.3,1.7-0.5
						c1.5-1.8-0.8,0-0.9-0.5c1.7-3.3,6.9-4.8,9.4-9.5c2.6-3.5,2.4-4.9,4.9-8.2c1.4-0.6,0.1,1.6,0.1,1.6c1.9-1.3,3-2.5,4.2-4.2
						c-0.1,0.5,0.3,0.3,1.1,0.1c1.1-1.3-0.1-1.7,1.8-2.8c0,0.6,0.1,1.3-0.2,2.2c1.1-1.6,2-3.4,3.3-5.1c0.8,0-0.2,1.5-0.5,2.3
						c1.5-1.8,3.8-4.7,3.5-5.8l-1.3,0.8c0.6-0.7,0.9,0.2,0.6,0.8c-0.8,1.9-2.2,1.8-2.5,1.7l0.9-1.1c-2.5-0.2-3.9,4.4-6,6.5l-0.1-1.8
						l-1.3,3c-0.7,0.2-1.6,0-0.7-1.3c-1.9,1-0.9,1.7-2.7,2.4c-0.2,0.1-0.2,0-0.1-0.2l-1.1,1.7c0.1-0.5-0.9-0.5,0.1-1.3
						c-3.2,2-3.4,5-5.1,5.1l0.1-0.2c-3.3,4,0.3,1.1-1.5,4.7h-3.6l0.3,1.1c-0.5,0.3-1.3,1-1.4,0.6c-0.9,1.9,0.6,0.1,0.2,1.4
						c-2.5,1.1-4.7,5.2-6.3,4.4c-0.1,1.3,2.2-1.3,0.6,1c-1.8-0.8-2,2.4-4.3,3.4c-0.1-1.1,1.8-2.3-0.5-1.4c0.1,2-3.5,2.8-4.7,4.4
						c0.8,0.9-2.7,3.3-4.8,5.8c-0.1-0.5-5,3.6-7.5,5.5l-0.1-0.2c0.5,1.4-2,3.3-3.6,5c-0.5-0.6-0.3-1.1,0.3-2.2l-1.6,1.5
						c-0.1,0.7-0.5,1.3-1.4,2.3l-0.2-1c-2,1.9-3.5,4.7-6.7,6.7c0.5,0.8,3.9-0.1,1.3,2.8c-0.5-0.2-1-0.8-0.5-1.6
						c-0.2,0.2-0.7,1.1-1.3,1.4l0.7-1.6c-1.5,0.8-0.2,1-1.3,1.9c-0.5-0.6-1,0.3-1.3-0.2c0.2-0.2,1-0.6,1.3-1.1
						c-1.3,0.9-2.8,1.8-3.6,1.8c0.3,0.2,0.6,0.7-0.2,1.5c-2.2,1.9-1.3,0-2.7,0.9c-0.2,0.8-1.9,1.6-1.3,2.4c-0.7,0.6-1,0.3-1.5,0.3
						c-0.8,1.3-5.1,4.7-3.2,4.3l0.3-0.2c0,0.1-0.1,0.1-0.1,0.2l0,0l0,0c-3,4-8.1,6.1-11.5,9.5l-0.2-0.2c-1.9,2.2-4.8,4.2-5.9,6.1
						c-0.7,0.6-1.9,0.8-1.9,0.2c-1.6,1.6-1.5,2-4.3,3.6c1.4-1.8-0.9,0.1,1.5-1.8c-2.4,1.6-3.3,1.6-5,4.2c0.2-1.4-2.4,0.5-3.3,1.6
						l1.9-0.8c-1.1,1-2.2,1.8-3.3,2.6l-0.1-1.4c-5.5,2.5-6.8,8.4-11.7,9.3c-0.7,1.6,2.8-1.5,2.3,0.1c-2.3,1.5-5.5,1.9-6.1,2.4
						c-3.3,1.7-1.7,3.4-5,5.3c0.7,0,1.7,0.6-0.5,2.6c-2.3,1.5-3.6,0.6-2.5-0.7c0.5-0.5,0.8-0.5,0.9-0.3c0.6-0.7,1.4-1.5,0.3-1.1v0.6
						c-1.4,0.5-4.2,2.7-4,1.7c-1.4,1.5-0.3,1,1,0.3c-3.1,1.6-4.3,3.2-7.4,5c0.6-0.1,1.3-0.1,0.8,0.2c-4.5,2.6-1.4,1.9-4.1,4.2
						c-2,0.7-0.2-1.6-2.8,0.9c-2,0.9-1-0.6-0.5-1.4c-2.2,2.5-5.2,3.1-6.8,4l1.3-1.3c-0.7,0.8-1.4,1.3-2,1.7l1.3,0.1
						c-0.9,0.5-1.6,0.9-1.8,0.7c-0.6,1,1.4,0.7,0.1,2.4c-1.4,0.5-3.1,2.7-4.1,2c3.6-2-1-0.7,1.8-2.7c-0.5,0.5-1.1,0.9-2,1.4
						c-0.2,0,0-0.2,0.2-0.5c-3.9,1.5-0.8,2-4.3,4.3c0.1-0.8-1.5-0.5-1.9,0.1c1.4-0.9,1.3,0.3,0.2,1.6c-2.5,1.1-2.2,1.9-3.4,2.6
						l1.5-0.7c-0.1,0.8-1.3,1.5-2.7,2.6c-0.3-0.3,1.3-1.3,0.6-1c-1.1,2-4.5,1.6-6.5,3.8c-1.4,0.3-0.7-0.9-1.8-0.5
						c-2.3,2.4-3.4,1.1-5.9,3.5c1.3,0.1,1.3-0.1-0.3,1.8c1.5-1.1,3-2.3,4.4-3.4l-2.4,3c1.5-0.9,2.7-2.4,3.6-2.7
						c-1.1,1.5-1,1.3,0,1.4c-2.6,0.2-3.4,3.1-6.1,3.8l-1-1.7c-1.9,0.7-3.3,1.8-4.8,3.1c-1.5,1.3-3.1,2.6-5.5,3.6l1.6-0.6
						c-0.2,1-2.7,1.7-4,2.8c-0.2-0.7-1.3-0.3-2-0.3c0.3,0.3-3.3,1.8-3.1,3.2l-2.5,0.3c-1.9,0.8-2.7,1.8-3.5,2.7
						c-0.8,0.9-1.6,1.9-3.4,2.7c0.8-1.1-1-0.8,1-2.5c-1.1,0.6-2.3,1-2.2,1.5c-0.9-0.1-3,2.4-4.3,2.3c-0.3,0.5-0.2,1.3-1.7,1.7
						c-0.2-0.1-0.1-0.3-0.1-0.3c0.1,0.3-1.9,1.4-0.5,1.5c-2.3-0.2-4.9,0.9-7.5,1.7c-0.7,0.2-1.3,0.3-1.9,0.6
						c-0.6,0.1-1.3,0.3-1.8,0.3s-1.1,0-1.6-0.1c-0.6-0.1-1.3-0.2-1.8-0.3c-1.8,0.3-3.6,1.1-5.1,2.2c-1.6,1-2.8,2.2-3.9,3.1
						c0-0.2-0.2-0.2,0.2-0.6c-1.7,1.1-1.7,1.9-1.8,2.7c-0.1,0.8-0.2,1.6-1.8,3.1c-2.2,1.1,0.9-2.2-0.2-1.4c-1-0.5-1.8,0.7-2.6,2.2
						c-0.8,1.5-1.5,3.2-2.7,4.2l0.2-0.7c-1.8,1.6-1.9,5.2-3.5,8.4c0,0-0.1-0.2-0.3-0.1c0,2.7-1.5,7-2.3,10.5
						c-0.5-1.3,0.1-1.6-0.9-1.4c-0.5,1.5,1.5,0.1,0.7,3.1c-0.8,0.8-1.9,2.7-2.8,2.7l0.9-2.7c-1.7,1-1.3,3.5-1.8,5l-0.5-0.3
						c-1.3,4.3,0.1,4.8-1.4,9.3l0.6-0.3c0.6,2.8-1.4,1.9-1,4.7l-1.5,0.5c-0.1,0.9-0.1,2.2-0.3,4.5c-0.2,2.2-0.3,4.1-0.6,5.8
						c-0.3-0.6-0.5-2-0.3-3.8c0-0.9,0.1-1.9,0.2-2.8c0-0.5,0.1-0.9,0.1-1.4c0-0.3,0-0.7,0-0.9c-0.1,0.6-0.8,3-1.1,4.9
						c-0.3,1.9-0.6,3.6-0.2,4c0-0.8,0-1.9,0.5-3c0.5,2.6,0.5,5-0.3,8.9c-0.6,0.7-1.1,1.5-1.5,2.4c-0.2,0.5-0.5,1-0.6,1.6
						c0,0.1-0.1,0.3-0.1,0.5c0,0.1,0,0.1,0,0.2c0,0.1,0,0.3,0.1,0.5c1.6-0.9,4-2.5,6.1-3.8c1-0.7,2-1.1,3-1.5
						c0.9-0.3,1.6-0.6,2.2-0.6c1.1-0.8,2.2-1.5,3.2-2.2c0.6-0.3,1-0.7,1.6-1l0.9-0.6c1.3-0.7,2.6-1.4,4-2c2.7-1.3,5.7-2.4,8.8-4
						c-3.1-0.7,1.7-0.9,0.5-2.6c1.4-0.8,1.9-1,2.2-1c1.6-0.3,3.3-0.7,4.9-0.9c1.3,0.1-1.1,1-0.9,1.4c3.2-1.4,1.7,0.2,4-0.2
						c-0.8-0.5,0.7-1.5,2.6-2l-3,0.2c4-3,4.5-0.1,8.6-3l-1.1,1.3c1.1-0.7,3.2-1.6,5.3-2.6c2.2-1,4-2,5.2-3.5c0.6,0,1.6,0.1,0.3,0.9
						c1.8-0.8,3.8-2.3,5.1-4.2c1.4-1.9,2-4.1,2.4-5.9c0.7-3.9,0.6-6.9,1.3-9.4l0.5,0.5c-0.1-1.3-0.9-2-0.3-3.5
						c0.2,0.1,0.5,0.5,0.6-0.1c-0.1-0.7-0.9-3.1-0.6-4.7l0.6,1.3c0.6-6-1.6-9.2-1.9-14.1c1.5,0,1.9-4.7,2.2-7l0.2,0.1
						c0.1-3.4-0.2-6.4-0.6-9.2c-0.2-1.5-0.3-2.8-0.6-4.3c0-0.6-0.1-1-0.1-1.7c0.1-0.6,0.1-1.3,0.2-1.9c1.3-1.4,2.7-3.9,4.7-6.7
						c1.9-2.8,4.3-5.8,6.7-7.8c-0.8,0.6-0.8-0.9-0.1-1.8c1.3-0.9,1.9-3.8,2.8-2.6l-0.3,0.3c1.7,0.1,3.5-2.3,5.2-4l-1-1.6
						c3.1-1.3,5.9-4.2,8.4-6.9c2.6-2.7,4.9-5.2,6.9-5.5c0.8-1.4,2.3-2.5,3.1-3.9l0.6,0.8c3.3-2.5,5-3.8,8.9-7.2l-0.3,1.3
						c2.3-1.8,1.1-4.4,3.2-6.3l1.6,0.6c4-3.2,8.9-5.3,12-9.4c0.1,0.2,0.2,0.7-0.5,1.1c1.9-1.5,8-4.9,6.1-5.9c0.8,1,4.3-3.1,6.1-5.1
						l0.2,1c1.1-2.4,1-2.7,3.4-4.9c0.7-0.3,1,0.2,0,0.6c2.4-1.1,1.1-1.9,3.9-3.3l-0.6,1.1c2.2-1.5,1.8-1.6,2.6-3.1
						c1.1-1.3,4.2-2.7,5-2.3c0-0.7,0.8-2,2.2-2.7c0.3,0.1,0,0.7-0.1,0.9c4-2,4.8-4.7,7.7-5.7c0.2,0.2,0.5,0.2,0.8,0.1
						c-2.8,2-5.2,3.6-5,3.4c0.5,0.7,3-0.8,1.8,1.5c1.5-1.8,3.9-5.2,6.4-6.5c0.1,0,0.3,0,0.5,0l-0.2,0.2c0.6-0.3,1-0.7,1.4-1.1
						c0.8-0.3,1.4-0.6,2-1.1c0.7,0.5,2.8-1.6,4.1-2.3c-0.7-0.7,1-1.7-0.9-1.4c0.2-0.1-0.1,0.2-0.9,0.8c-0.1,0.1-0.3,0.3-0.5,0.5
						v-0.1c-0.8,0.6-1.7,1.3-2.8,2c0.7-1,1.4-2,3-2.5c0.2-0.9,0.6-1.9,0.8-2.4c2.4,0,5.8-1.5,6.7-1.1c3.3-2.8,8.2-6,9.4-9.1
						c0.9-0.9,1.5-0.3,2-0.3c-0.5,0.6-1.3,1-1.4,1.5c1.8-1.8,5.9-4.2,5.7-5.6c2.8-1.3-0.8,1.9,2.6-0.6l-0.2,0.7
						c8.1-3,9.5-10.2,18.8-13.2c-0.7,0.2-0.9,0.3-1.1,0.2C420.8,71,429,63,438.8,59c2.7-1.3,2.5-2.2,3.8-3.6l1.1,0.6l1.9-2.6
						c3.3-3.1,7.8-1.9,11.6-6.3l-1-0.2c1.8-0.9,5.1-3.8,5.3-2.8c0.1-0.2,0.2-0.9,1-1l0.3,0.5l3.6-3.4c3.4-1.7,0.6,2.2,5.5-0.7
						c1.7-1.3,4.2-4.4,3.3-4.3c-0.7,0.5-2,0.8-2.3,0.3l1.5-1.3c-0.6-1.5-0.1-3.6-4.7-2.2l-2.3,2.5l-1.3-0.1l2.3-1.5
						c-1.7,0.2-2.2,1.3-3,2.2c-0.5-0.2-1-0.2-1.6,0l-1.9,3c-0.7-0.3,0.6-1.8-1.5-1c-0.9,1.4,1.9,0.5,0.1,2.2
						c-1.7,0.2-1.6-0.6-2.8,0.9c-0.5-0.2-0.2-0.7,0.2-1.1c-1.1,1.3-3.5,2.4-3.8,3.6c-1.8,0.1-4.5,3.1-5.2,1.7
						c-0.2,0.6-1.8,2.5-3.1,3.4c1.4-3-4.8,2.8-5.2,0.9c-0.8,2.4-5.8,4.5-8.3,7.2c0.1-0.2,0.3-0.7,0.6-0.8c-1.8,0.9-2.5,0.9-3.8,1.3
						c0.5,1.3-1.9,3.2-3,4.8c-2.7,0.2,0.5-2.2-0.9-2.7c0.7,0.8-3,3.2-1.8,3.5c-2,0.3-1.6,0.6-3,0.1c0.7,1.6-1.4,1.1-2,2.8
						c-2.7,0.8-1.5-0.9-3.6,1.1C412.8,66.5,414.7,64.6,414.7,64.6z M357.3,106.6L357.3,106.6c0.5-0.3,0.9-0.7,1.1-0.9
						C358.2,105.9,357.9,106.1,357.3,106.6z M352.4,110.1c0.6-0.3,1.4-0.9,2.2-1.5c0.3,0.1,0.3,0.6-0.1,0.9
						C354.6,109.1,353.4,109.7,352.4,110.1z M366.5,108.3c-0.7,0.7-1,0.7-1.3,0.6c0.3-0.2,0.8-0.6,1.3-1v-0.1
						C366.6,107.8,366.6,108,366.5,108.3z"/>
					<path class="st0" d="M367.2,106.2c0.1-0.1,0.1-0.1,0.2-0.2c-0.2,0-0.5,0.1-0.6,0.1c0,0.1-0.1,0.3-0.1,0.5
						C367,106.4,367.1,106.3,367.2,106.2z"/>
					<path class="st0" d="M387.2,114.9L387.2,114.9c0,0,0.1,0,0.2,0C387.3,114.9,387.3,114.9,387.2,114.9z"/>
					<polygon class="st0" points="285.7,159 286,159.2 286.2,158.6 					"/>
					<path class="st0" d="M414,95.5c0.1,0,0.2,0,0.5-0.1C414.5,95.4,414.3,95.5,414,95.5z"/>
					<path class="st0" d="M424.6,86.1l1.7-1.1C425.5,85.4,425.1,85.8,424.6,86.1z"/>
					<path class="st0" d="M432.9,78.9c0-0.2-0.1-0.3-0.1-0.5l0,0L432.9,78.9z"/>
					<path class="st0" d="M298.6,189.2c-0.1,0.1-0.2,0.2-0.3,0.2C297.5,190.1,298.1,189.6,298.6,189.2z"/>
					<path class="st0" d="M339.5,157.2c-0.3,0.5-0.7,0.9-1,1.4C339.1,158.2,339.7,157.7,339.5,157.2z"/>
					<path class="st0" d="M248.8,219.4L248.8,219.4c-0.1,0-0.2,0.1-0.3,0.1L248.8,219.4z"/>
					<path class="st0" d="M336.4,160.1c0.8-0.5,1.5-0.9,1.9-1.5C337.8,159.1,337,159.5,336.4,160.1z"/>
					<path class="st0" d="M466.7,45.7l0.3-0.3l-0.1-0.1L466.7,45.7z"/>
					<path class="st0" d="M467,45.2l0.3-0.5C467.1,44.8,467,45.1,467,45.2z"/>
					<path class="st0" d="M468,43.6l-0.7,1C467.6,44.4,468,44,468,43.6z"/>
					<path class="st0" d="M456.3,55.7l0.1,0.3C456.4,56,456.4,55.9,456.3,55.7z"/>
					<path class="st0" d="M453.3,58.9c0.8-0.7,2.4-1.4,3.3-2.5l-0.1-0.3C456.3,57,453.5,57.8,453.3,58.9z"/>
					<path class="st0" d="M437.2,68.8l2.8-2.4c-0.7,0.2-1.7,0.5-0.6-0.8C435.4,68.1,440.8,65.5,437.2,68.8z"/>
					<path class="st0" d="M428.7,76.3c1.4-1.5-0.3-0.3-0.5-0.6C427.6,76.9,427.3,77.1,428.7,76.3z"/>
					<path class="st0" d="M367.1,130.8l-0.5-0.8C365.6,131.1,366.9,130.3,367.1,130.8z"/>
					<polygon class="st0" points="357.7,144.2 359.1,143.7 359.3,142.6 					"/>
					<polygon class="st0" points="346.5,145.1 347,144.5 345.2,146.3 					"/>
					<path class="st0" d="M231.3,216.7c0.1,0.3,0.3,0.7,0.6,1c0.5-0.2,0.7-0.6,0.6-0.9c0-0.1-0.1-0.2-0.3-0.2c-0.1,0-0.2,0-0.3,0
						C231.5,216.6,231.4,216.6,231.3,216.7z"/>
					<path class="st0" d="M197.9,266.2c-0.7,0.5-1.5,2-1.3,3.2C197,268.2,197.8,267,197.9,266.2z"/>
					<polygon class="st0" points="279.9,176 279.4,177 280.7,175.3 					"/>
				</g>
			</g>
		</g>
	</g>
</g>
</svg>
