<?xml version="1.0" encoding="utf-8"?>
<!-- Generator: Adobe Illustrator 25.2.1, SVG Export Plug-In . SVG Version: 6.00 Build 0)  -->
<svg version="1.1" id="Layer_1" xmlns="http://www.w3.org/2000/svg" xmlns:xlink="http://www.w3.org/1999/xlink" x="0px" y="0px"
	 viewBox="0 0 500 500" style="enable-background:new 0 0 500 500;" xml:space="preserve">
<style type="text/css">
	.st0{display:none; fill:white;}
	.st1{display:inline; fill:white;}
	.st2{fill:white;}
	.st3{opacity:0.75; fill:white;}
</style>
<g id="BG" class="st0">
	<g class="st1">
		<rect x="-13.5" y="-21.5" class="st2" width="535" height="535"/>
		<path d="M521-21v534H-13V-21H521 M522-22H-14v536h536V-22L522-22z"/>
	</g>
</g>

<g id="circles" class="st0">
	<g class="st1">
		<g class="st3">
			<path class="st2" d="M56.2-2.1c0,2.4-1.9,4.3-4.3,4.3s-4.3-1.9-4.3-4.3s1.9-4.3,4.3-4.3S56.2-4.4,56.2-2.1z"/>
		</g>
		<g class="st3">
			<path class="st2" d="M43.5-3.1c0,2.4-1.9,4.3-4.3,4.3s-4.3-1.9-4.3-4.3s1.9-4.3,4.3-4.3S43.5-5.5,43.5-3.1z"/>
		</g>
		<g class="st3">
			<path class="st2" d="M13.4,7.8c0,2.4-1.9,4.3-4.3,4.3s-4.3-1.9-4.3-4.3s1.9-4.3,4.3-4.3S13.4,5.4,13.4,7.8z"/>
		</g>
		<g class="st3">
			<path class="st2" d="M55.8,4.6c0,2.4-1.9,4.3-4.3,4.3S47.2,7,47.2,4.6s1.9-4.3,4.3-4.3S55.8,2.2,55.8,4.6z"/>
		</g>
		<g class="st3">
			<path class="st2" d="M39.6,0.4c0,2.4-1.9,4.3-4.3,4.3S31,2.8,31,0.4s1.9-4.3,4.3-4.3S39.6-2,39.6,0.4z"/>
		</g>
		<g class="st3">
			<path class="st2" d="M28.6,11.8c0,2.4-1.9,4.3-4.3,4.3S20,14.2,20,11.8s1.9-4.3,4.3-4.3S28.6,9.4,28.6,11.8z"/>
		</g>
		<g class="st3">
			<path class="st2" d="M55.4,11.6c0,2.4-1.9,4.3-4.3,4.3s-4.3-1.9-4.3-4.3s1.9-4.3,4.3-4.3S55.4,9.2,55.4,11.6z"/>
		</g>
		<g class="st3">
			<path class="st2" d="M47.8,37.2c0,2.4-1.9,4.3-4.3,4.3s-4.3-1.9-4.3-4.3s1.9-4.3,4.3-4.3S47.8,34.9,47.8,37.2z"/>
		</g>
		<g class="st3">
			<path class="st2" d="M40,23.5c0,2.4-1.9,4.3-4.3,4.3s-4.3-1.9-4.3-4.3s1.9-4.3,4.3-4.3C38,19.3,40,21.2,40,23.5z"/>
		</g>
		<g class="st3">
			<path class="st2" d="M28.6,38.8c0,2.4-1.9,4.3-4.3,4.3S20,41.2,20,38.8s1.9-4.3,4.3-4.3C26.7,34.6,28.6,36.5,28.6,38.8z"/>
		</g>
		<g class="st3">
			<path class="st2" d="M16.8,23c0,2.4-1.9,4.3-4.3,4.3S8.2,25.4,8.2,23s1.9-4.3,4.3-4.3C14.9,18.8,16.8,20.7,16.8,23z"/>
		</g>
		<g class="st3">
			<path class="st2" d="M8.4,42.5c0,2.4-1.9,4.3-4.3,4.3s-4.3-1.9-4.3-4.3s1.9-4.3,4.3-4.3S8.4,40.2,8.4,42.5z"/>
		</g>
		<g class="st3">
			<path class="st2" d="M1.8,46.4c0,2.4-1.9,4.3-4.3,4.3s-4.3-1.9-4.3-4.3s1.9-4.3,4.3-4.3C-0.1,42.2,1.8,44.1,1.8,46.4z"/>
		</g>
		<g class="st3">
			<path class="st2" d="M8.7,15.7C8.7,18,6.8,20,4.4,20s-4.3-2-4.3-4.3s1.9-4.3,4.3-4.3S8.7,13.3,8.7,15.7z"/>
		</g>
		<g class="st3">
			<path class="st2" d="M19.9,25c0,2.4-1.9,4.3-4.3,4.3s-4.3-1.9-4.3-4.3s1.9-4.3,4.3-4.3S19.9,22.7,19.9,25z"/>
		</g>
		<g class="st3">
			<path class="st2" d="M30.6,35.9c0,2.4-1.9,4.3-4.3,4.3S22,38.3,22,35.9s1.9-4.3,4.3-4.3S30.6,33.5,30.6,35.9z"/>
		</g>
		<g class="st3">
			<path class="st2" d="M41.2,52.1c0,2.4-1.9,4.3-4.3,4.3s-4.3-1.9-4.3-4.3s1.9-4.3,4.3-4.3S41.2,49.7,41.2,52.1z"/>
		</g>
		<g class="st3">
			<path class="st2" d="M48.9,39.4c0,2.4-1.9,4.3-4.3,4.3s-4.3-1.9-4.3-4.3s1.9-4.3,4.3-4.3S48.9,37.1,48.9,39.4z"/>
		</g>
		<g class="st3">
			<path class="st2" d="M54.3,55.8c0,2.4-1.9,4.3-4.3,4.3s-4.3-1.9-4.3-4.3s1.9-4.3,4.3-4.3S54.3,53.5,54.3,55.8z"/>
		</g>
		<g class="st3">
			<path class="st2" d="M44.2,38c0,2.4-1.9,4.3-4.3,4.3s-4.3-1.9-4.3-4.3s1.9-4.3,4.3-4.3S44.2,35.6,44.2,38z"/>
		</g>
		<g class="st3">
			<path class="st2" d="M30.2,51.5c0,2.4-1.9,4.3-4.3,4.3s-4.3-1.9-4.3-4.3s1.9-4.3,4.3-4.3S30.2,49.1,30.2,51.5z"/>
		</g>
		<g class="st3">
			<path class="st2" d="M23.3,45c0,2.4-1.9,4.3-4.3,4.3s-4.3-1.9-4.3-4.3s1.9-4.3,4.3-4.3S23.3,42.6,23.3,45z"/>
		</g>
		<g class="st3">
			<path class="st2" d="M11.8,46.1c0,2.4-1.9,4.3-4.3,4.3s-4.3-1.9-4.3-4.3s1.9-4.3,4.3-4.3S11.8,43.7,11.8,46.1z"/>
		</g>
		<g class="st3">
			<path class="st2" d="M3.3,19.2c0,2.4-1.9,4.3-4.3,4.3s-4.3-1.9-4.3-4.3S-3.4,15-1,15S3.3,16.9,3.3,19.2z"/>
		</g>
		<g class="st3">
			<path class="st2" d="M34.9,1.8c0,2.4-1.9,4.3-4.3,4.3s-4.3-1.9-4.3-4.3s1.9-4.3,4.3-4.3S34.9-0.6,34.9,1.8z"/>
		</g>
		<g class="st3">
			<path class="st2" d="M45.8,3.4c0,2.4-1.9,4.3-4.3,4.3s-4.3-1.9-4.3-4.3s1.9-4.3,4.3-4.3C43.9-0.9,45.8,1,45.8,3.4z"/>
		</g>
		<g class="st3">
			<path class="st2" d="M24.6,1.5c0,2.4-1.9,4.3-4.3,4.3S16,3.9,16,1.5s1.9-4.3,4.3-4.3S24.6-0.9,24.6,1.5z"/>
		</g>
		<g class="st3">
			<path class="st2" d="M56-3.1c0,2.4-1.9,4.3-4.3,4.3s-4.3-1.9-4.3-4.3s1.9-4.3,4.3-4.3S56-5.5,56-3.1z"/>
		</g>
		<g class="st3">
			<path class="st2" d="M46.3,24.8c0,2.4-1.9,4.3-4.3,4.3s-4.3-1.9-4.3-4.3s1.9-4.3,4.3-4.3S46.3,22.4,46.3,24.8z"/>
		</g>
		<g class="st3">
			<path class="st2" d="M34.9,4.7C34.9,7.1,33,9,30.6,9s-4.3-1.9-4.3-4.3s1.9-4.3,4.3-4.3C33,0.4,34.9,2.3,34.9,4.7z"/>
		</g>
		<g class="st3">
			<path class="st2" d="M23.1,12.6c0,2.4-1.9,4.3-4.3,4.3s-4.3-1.9-4.3-4.3s1.9-4.3,4.3-4.3C21.2,8.3,23.1,10.2,23.1,12.6z"/>
		</g>
		<g class="st3">
			<path class="st2" d="M11.3,13.8c0,2.4-1.9,4.3-4.3,4.3s-4.3-1.9-4.3-4.3s2-4.3,4.3-4.3C9.4,9.6,11.3,11.5,11.3,13.8z"/>
		</g>
		<g class="st3">
			<path class="st2" d="M1.8,13.1c0,2.4-1.9,4.3-4.3,4.3s-4.3-1.9-4.3-4.3s1.9-4.3,4.3-4.3C-0.2,8.9,1.8,10.8,1.8,13.1z"/>
		</g>
		<g class="st3">
			<path class="st2" d="M1.7,0.8c0,2.4-1.9,4.3-4.3,4.3s-4.3-1.9-4.3-4.3S-5-3.5-2.6-3.5C-0.2-3.4,1.7-1.5,1.7,0.8z"/>
		</g>
		<g class="st3">
			<path class="st2" d="M11.1,14.1c0,2.4-1.9,4.3-4.3,4.3s-4.3-1.9-4.3-4.3s1.9-4.3,4.3-4.3C9.2,9.8,11.1,11.7,11.1,14.1z"/>
		</g>
		<g class="st3">
			<path class="st2" d="M23,0.5c0,2.4-1.9,4.3-4.3,4.3s-4.3-1.9-4.3-4.3s1.9-4.3,4.3-4.3C21.1-3.8,23-1.9,23,0.5z"/>
		</g>
		<g class="st3">
			<path class="st2" d="M30.5,6c0,2.4-1.9,4.3-4.3,4.3s-4.3-2-4.3-4.3s1.9-4.3,4.3-4.3S30.5,3.6,30.5,6z"/>
		</g>
		<g class="st3">
			<path class="st2" d="M39.9,22.6c0,2.4-1.9,4.3-4.3,4.3s-4.3-1.9-4.3-4.3s1.9-4.3,4.3-4.3C38,18.4,39.9,20.2,39.9,22.6z"/>
		</g>
		<g class="st3">
			<path class="st2" d="M46.8-4.2c0,2.4-1.9,4.3-4.3,4.3s-4.3-1.9-4.3-4.3s1.9-4.3,4.3-4.3C44.9-8.4,46.8-6.5,46.8-4.2z"/>
		</g>
		<g class="st3">
			<path class="st2" d="M56.6-4.2c0,2.4-1.9,4.3-4.3,4.3S48-1.8,48-4.2s1.9-4.3,4.3-4.3S56.6-6.5,56.6-4.2z"/>
		</g>
		<g class="st3">
			<path class="st2" d="M56.5,35.1c0,2.4-1.9,4.3-4.3,4.3s-4.3-1.9-4.3-4.3s1.9-4.3,4.3-4.3S56.5,32.7,56.5,35.1z"/>
		</g>
		<g class="st3">
			<path class="st2" d="M44.2,29.6c0,2.4-1.9,4.3-4.3,4.3s-4.3-1.9-4.3-4.3s1.9-4.3,4.3-4.3C42.2,25.3,44.2,27.2,44.2,29.6z"/>
		</g>
		<g class="st3">
			<path class="st2" d="M34.9,45.8c0,2.4-1.9,4.3-4.3,4.3s-4.3-1.9-4.3-4.3s1.9-4.3,4.3-4.3C33,41.6,34.9,43.5,34.9,45.8z"/>
		</g>
		<g class="st3">
			<path class="st2" d="M29,53.1c0,2.4-1.9,4.3-4.3,4.3s-4.3-1.9-4.3-4.3s1.9-4.3,4.3-4.3S29,50.8,29,53.1z"/>
		</g>
		<g class="st3">
			<path class="st2" d="M19.9,37.7c0,2.4-1.9,4.3-4.3,4.3s-4.3-1.9-4.3-4.3s1.9-4.3,4.3-4.3S19.9,35.3,19.9,37.7z"/>
		</g>
		<g class="st3">
			<path class="st2" d="M12.9,49.8c0,2.4-1.9,4.3-4.3,4.3s-4.3-1.9-4.3-4.3s1.9-4.3,4.3-4.3S12.9,47.4,12.9,49.8z"/>
		</g>
		<g class="st3">
			<path class="st2" d="M1.8,35.5c0,2.4-1.9,4.3-4.3,4.3s-4.3-1.9-4.3-4.3s1.9-4.3,4.3-4.3S1.8,33.1,1.8,35.5z"/>
		</g>
		<g class="st3">
			<path class="st2" d="M4.7,57.5c0,2.4-1.9,4.3-4.3,4.3s-4.3-1.9-4.3-4.3s1.9-4.3,4.3-4.3S4.7,55.1,4.7,57.5z"/>
		</g>
		<g class="st3">
			<path class="st2" d="M11.5,58c0,2.4-1.9,4.3-4.3,4.3S3,60.3,3,58s1.9-4.3,4.3-4.3S11.5,55.6,11.5,58z"/>
		</g>
		<g class="st3">
			<path class="st2" d="M19.3,48.7c0,2.4-1.9,4.3-4.3,4.3s-4.3-1.9-4.3-4.3s1.9-4.3,4.3-4.3S19.3,46.3,19.3,48.7z"/>
		</g>
		<g>
			<path class="st2" d="M30.2,75.4c0,2.4-1.9,4.3-4.3,4.3s-4.3-1.9-4.3-4.3s1.9-4.3,4.3-4.3S30.2,73.1,30.2,75.4z"/>
		</g>
		<g>
			<path class="st2" d="M40.8,80.7c0,2.4-1.9,4.3-4.3,4.3s-4.3-1.9-4.3-4.3s1.9-4.3,4.3-4.3S40.8,78.4,40.8,80.7z"/>
		</g>
		<g class="st3">
			<path class="st2" d="M50.2,67.3c0,2.4-1.9,4.3-4.3,4.3s-4.3-1.9-4.3-4.3s1.9-4.3,4.3-4.3C48.3,63,50.2,64.9,50.2,67.3z"/>
		</g>
		<g>
			<path class="st2" d="M56.1,80.6c0,2.4-1.9,4.3-4.3,4.3s-4.3-1.9-4.3-4.3s1.9-4.3,4.3-4.3S56.1,78.2,56.1,80.6z"/>
		</g>
		<g class="st3">
			<path class="st2" d="M44.8,67.3c0,2.4-1.9,4.3-4.3,4.3s-4.3-1.9-4.3-4.3s1.9-4.3,4.3-4.3C42.9,63.1,44.8,65,44.8,67.3z"/>
		</g>
		<g>
			<path class="st2" d="M37.9,77.3c0,2.4-1.9,4.3-4.3,4.3s-4.3-1.9-4.3-4.3s1.9-4.3,4.3-4.3S37.9,74.9,37.9,77.3z"/>
		</g>
		<g>
			<path class="st2" d="M29.2,77.9c0,2.4-1.9,4.3-4.3,4.3s-4.3-1.9-4.3-4.3s1.9-4.3,4.3-4.3S29.2,75.5,29.2,77.9z"/>
		</g>
		<g>
			<path class="st2" d="M19.3,85.1c0,2.4-1.9,4.3-4.3,4.3s-4.3-1.9-4.3-4.3s1.9-4.3,4.3-4.3S19.3,82.7,19.3,85.1z"/>
		</g>
		<g class="st3">
			<path class="st2" d="M7,51.2c0,2.4-1.9,4.3-4.3,4.3s-4.3-1.9-4.3-4.3s2-4.2,4.3-4.2S7,48.9,7,51.2z"/>
		</g>
		<g class="st3">
			<path class="st2" d="M3.7,60.1c0,2.4-1.9,4.3-4.3,4.3s-4.3-1.9-4.3-4.3s1.9-4.3,4.3-4.3S3.7,57.7,3.7,60.1z"/>
		</g>
		<g class="st3">
			<path class="st2" d="M13.7,54.5c0,2.4-1.9,4.3-4.3,4.3s-4.3-1.9-4.3-4.3s1.9-4.3,4.3-4.3S13.7,52.1,13.7,54.5z"/>
		</g>
		<g>
			<path class="st2" d="M22,78.1c0,2.4-1.9,4.3-4.3,4.3s-4.3-1.9-4.3-4.3s1.9-4.3,4.3-4.3C20.1,73.9,22,75.8,22,78.1z"/>
		</g>
		<g class="st3">
			<path class="st2" d="M30.3,61.4c0,2.4-1.9,4.3-4.3,4.3s-4.3-1.9-4.3-4.3s1.9-4.3,4.3-4.3S30.3,59,30.3,61.4z"/>
		</g>
		<g class="st3">
			<path class="st2" d="M42.8,62.7c0,2.4-1.9,4.3-4.3,4.3s-4.3-1.9-4.3-4.3c0-2.4,1.9-4.3,4.3-4.3S42.8,60.4,42.8,62.7z"/>
		</g>
		<g class="st3">
			<path class="st2" d="M54.3,66.8c0,2.4-1.9,4.3-4.3,4.3s-4.3-1.9-4.3-4.3s1.9-4.3,4.3-4.3C52.4,62.6,54.3,64.5,54.3,66.8z"/>
		</g>
		<g>
			<path class="st2" d="M49.2,96.5c0,2.4-1.9,4.3-4.3,4.3s-4.3-1.9-4.3-4.3s1.9-4.3,4.3-4.3C47.2,92.2,49.2,94.1,49.2,96.5z"/>
		</g>
		<g>
			<path class="st2" d="M38.5,100.7c0,2.4-1.9,4.3-4.3,4.3s-4.3-1.9-4.3-4.3s1.9-4.3,4.3-4.3C36.6,96.5,38.5,98.4,38.5,100.7z"/>
		</g>
		<g>
			<path class="st2" d="M27,117.8c0,2.4-1.9,4.3-4.3,4.3s-4.3-1.9-4.3-4.3s1.9-4.3,4.3-4.3C25.1,113.6,27,115.5,27,117.8z"/>
		</g>
		<g>
			<path class="st2" d="M16,86.7c0,2.4-1.9,4.3-4.3,4.3s-4.2-2-4.2-4.3s1.9-4.3,4.3-4.3C14.1,82.4,16,84.3,16,86.7z"/>
		</g>
		<g>
			<path class="st2" d="M10.4,84.8c0,2.4-1.9,4.3-4.3,4.3s-4.3-1.9-4.3-4.3s1.9-4.3,4.3-4.3C8.5,80.6,10.4,82.5,10.4,84.8z"/>
		</g>
		<g>
			<path class="st2" d="M17,86.7c0,2.4-1.9,4.3-4.3,4.3s-4.3-1.9-4.3-4.3s1.9-4.3,4.3-4.3C15.1,82.5,17,84.4,17,86.7z"/>
		</g>
		<g>
			<path class="st2" d="M28,90.3c0,2.4-1.9,4.3-4.3,4.3s-4.3-1.9-4.3-4.3s1.9-4.3,4.3-4.3C26.1,86.1,28,88,28,90.3z"/>
		</g>
		<g>
			<path class="st2" d="M37.2,86.9c0,2.4-1.9,4.3-4.3,4.3s-4.3-1.9-4.3-4.3s1.9-4.3,4.3-4.3S37.2,84.6,37.2,86.9z"/>
		</g>
		<g>
			<path class="st2" d="M47.8,113.7c0,2.4-1.9,4.3-4.3,4.3s-4.3-1.9-4.3-4.3s1.9-4.3,4.3-4.3C45.9,109.4,47.8,111.3,47.8,113.7z"/>
		</g>
		<g>
			<path class="st2" d="M48.4,97.6c0,2.4-1.9,4.3-4.3,4.3s-4.3-1.9-4.3-4.3s1.9-4.3,4.3-4.3C46.5,93.3,48.4,95.3,48.4,97.6z"/>
		</g>
		<g>
			<path class="st2" d="M38,100.5c0,2.4-1.9,4.3-4.3,4.3s-4.3-1.9-4.3-4.3s1.9-4.3,4.3-4.3S38,98.2,38,100.5z"/>
		</g>
		<g>
			<path class="st2" d="M25.5,119.7c0,2.4-1.9,4.3-4.3,4.3s-4.3-1.9-4.3-4.3s1.9-4.3,4.3-4.3C23.6,115.5,25.5,117.4,25.5,119.7z"/>
		</g>
		<g>
			<path class="st2" d="M13.5,122.4c0,2.4-1.9,4.3-4.3,4.3s-4.2-2-4.2-4.3s1.9-4.3,4.3-4.3C11.6,118.1,13.5,120,13.5,122.4z"/>
		</g>
		<g>
			<path class="st2" d="M6.2,124.8c0,2.4-1.9,4.3-4.3,4.3s-4.3-1.9-4.3-4.3s1.9-4.3,4.3-4.3C4.3,120.6,6.2,122.5,6.2,124.8z"/>
		</g>
		<g>
			<path class="st2" d="M2.1,117.1c0,2.4-1.9,4.3-4.3,4.3s-4.3-1.9-4.3-4.3s1.9-4.3,4.3-4.3C0.2,112.8,2.1,114.7,2.1,117.1z"/>
		</g>
		<g>
			<path class="st2" d="M8.9,113.1c0,2.4-1.9,4.3-4.3,4.3s-4.3-1.9-4.3-4.3s1.9-4.3,4.3-4.3C7,108.8,8.9,110.7,8.9,113.1z"/>
		</g>
		<g>
			<path class="st2" d="M19.5,111.1c0,2.4-1.9,4.3-4.3,4.3s-4.3-1.9-4.3-4.3s1.9-4.3,4.3-4.3C17.6,106.8,19.5,108.7,19.5,111.1z"/>
		</g>
		<g>
			<path class="st2" d="M31.2,123.2c0,2.4-1.9,4.3-4.3,4.3s-4.3-1.9-4.3-4.3s1.9-4.3,4.3-4.3C29.3,118.9,31.2,120.9,31.2,123.2z"/>
		</g>
		<g>
			<path class="st2" d="M41.8,104.8c0,2.4-1.9,4.3-4.3,4.3s-4.3-1.9-4.3-4.3s1.9-4.3,4.3-4.3C39.9,100.5,41.8,102.4,41.8,104.8z"/>
		</g>
		<g>
			<path class="st2" d="M49.4,118.9c0,2.4-1.9,4.3-4.3,4.3s-4.3-1.9-4.3-4.3s1.9-4.3,4.3-4.3C47.5,114.7,49.4,116.6,49.4,118.9z"/>
		</g>
		<g>
			<path class="st2" d="M23.9,174.2c0,2.4-1.9,4.3-4.3,4.3s-4.3-1.9-4.3-4.3s1.9-4.3,4.3-4.3S23.9,171.9,23.9,174.2z"/>
		</g>
		<g>
			<path class="st2" d="M14.6,167.5c0,2.4-1.9,4.3-4.3,4.3S6,169.9,6,167.5s1.9-4.3,4.3-4.3C12.7,163.3,14.6,165.2,14.6,167.5z"/>
		</g>
		<g>
			<path class="st2" d="M25.1,173.1c0,2.4-1.9,4.3-4.3,4.3s-4.3-1.9-4.3-4.3s1.9-4.3,4.3-4.3C23.2,168.9,25.1,170.8,25.1,173.1z"/>
		</g>
		<g>
			<path class="st2" d="M37,192.1c0,2.4-1.9,4.3-4.3,4.3s-4.3-1.9-4.3-4.3s1.9-4.3,4.3-4.3S37,189.7,37,192.1z"/>
		</g>
		<g>
			<path class="st2" d="M43.8,184.1c0,2.4-1.9,4.3-4.3,4.3s-4.3-1.9-4.3-4.3s1.9-4.3,4.3-4.3S43.8,181.7,43.8,184.1z"/>
		</g>
		<g>
			<path class="st2" d="M55.5,165.3c0,2.4-1.9,4.3-4.3,4.3s-4.3-1.9-4.3-4.3s1.9-4.3,4.3-4.3C53.5,161.1,55.5,163,55.5,165.3z"/>
		</g>
		<g>
			<path class="st2" d="M52.1,187.7c0,2.4-1.9,4.3-4.3,4.3s-4.3-1.9-4.3-4.3s1.9-4.3,4.3-4.3C50.2,183.5,52.1,185.4,52.1,187.7z"/>
		</g>
		<g>
			<path class="st2" d="M44.8,190c0,2.4-1.9,4.3-4.3,4.3s-4.3-1.9-4.3-4.3s1.9-4.3,4.3-4.3C42.9,185.8,44.8,187.7,44.8,190z"/>
		</g>
		<g>
			<path class="st2" d="M38.3,187.1c0,2.4-1.9,4.3-4.3,4.3s-4.3-1.9-4.3-4.3s1.9-4.3,4.3-4.3S38.3,184.8,38.3,187.1z"/>
		</g>
		<g>
			<path class="st2" d="M26.4,186.8c0,2.4-1.9,4.3-4.3,4.3s-4.3-1.9-4.3-4.3s1.9-4.3,4.3-4.3S26.4,184.4,26.4,186.8z"/>
		</g>
		<g>
			<path class="st2" d="M4.6,176.4c0,2.4-1.9,4.3-4.3,4.3s-4.3-1.9-4.3-4.3s1.9-4.3,4.3-4.3S4.6,174,4.6,176.4z"/>
		</g>
		<g>
			<path class="st2" d="M17.5,177.4c0,2.4-1.9,4.3-4.3,4.3s-4.3-1.9-4.3-4.3s1.9-4.3,4.3-4.3C15.6,173.2,17.5,175.1,17.5,177.4z"/>
		</g>
		<g>
			<path class="st2" d="M26.3,175.1c0,2.4-1.9,4.3-4.3,4.3s-4.3-1.9-4.3-4.3s1.9-4.3,4.3-4.3S26.3,172.7,26.3,175.1z"/>
		</g>
		<g>
			<path class="st2" d="M37.1,189.7c0,2.4-1.9,4.3-4.3,4.3s-4.3-1.9-4.3-4.3s1.9-4.3,4.3-4.3S37.1,187.3,37.1,189.7z"/>
		</g>
		<g>
			<path class="st2" d="M46.9,186.8c0,2.4-1.9,4.3-4.3,4.3s-4.3-1.9-4.3-4.3s1.9-4.3,4.3-4.3S46.9,184.5,46.9,186.8z"/>
		</g>
		<g>
			<path class="st2" d="M4.7,113.8c0,2.4-1.9,4.3-4.3,4.3s-4.3-1.9-4.3-4.3s1.9-4.3,4.3-4.3S4.7,111.4,4.7,113.8z"/>
		</g>
		<g>
			<path class="st2" d="M9.9,95.1c0,2.4-1.9,4.3-4.3,4.3s-4.3-1.9-4.3-4.3s1.9-4.3,4.3-4.3C7.9,90.8,9.9,92.7,9.9,95.1z"/>
		</g>
		<g>
			<path class="st2" d="M20.9,107.4c0,2.4-1.9,4.3-4.3,4.3s-4.3-1.9-4.3-4.3s1.9-4.3,4.3-4.3S20.9,105,20.9,107.4z"/>
		</g>
		<g>
			<path class="st2" d="M27.9,77.3c0,2.4-1.9,4.3-4.3,4.3s-4.3-1.9-4.3-4.3s1.9-4.3,4.3-4.3S27.9,75,27.9,77.3z"/>
		</g>
		<g>
			<path class="st2" d="M37.1,95.6c0,2.4-1.9,4.3-4.3,4.3s-4.3-1.9-4.3-4.3s1.9-4.3,4.3-4.3S37.1,93.2,37.1,95.6z"/>
		</g>
		<g>
			<path class="st2" d="M46,75.3c0,2.4-1.9,4.3-4.3,4.3s-4.3-1.9-4.3-4.3s1.9-4.3,4.3-4.3S46,72.9,46,75.3z"/>
		</g>
		<g>
			<path class="st2" d="M46.2,94.3c0,2.4-1.9,4.3-4.3,4.3s-4.3-1.9-4.3-4.3s2-4.3,4.4-4.3S46.2,91.9,46.2,94.3z"/>
		</g>
		<g>
			<path class="st2" d="M34.7,110.2c0,2.4-1.9,4.3-4.3,4.3s-4.3-1.9-4.3-4.3s1.9-4.3,4.3-4.3C32.8,105.9,34.7,107.8,34.7,110.2z"/>
		</g>
		<g>
			<path class="st2" d="M23.5,110.2c0,2.4-1.9,4.3-4.3,4.3s-4.3-1.9-4.3-4.3s1.9-4.3,4.3-4.3C21.6,105.9,23.5,107.9,23.5,110.2z"/>
		</g>
		<g>
			<path class="st2" d="M13.1,87.3c0,2.4-1.9,4.3-4.3,4.3s-4.3-1.9-4.3-4.3S6.4,83,8.8,83C11.2,83.1,13.1,85,13.1,87.3z"/>
		</g>
		<g>
			<path class="st2" d="M6.9,117.4c0,2.4-1.9,4.3-4.3,4.3s-4.3-1.9-4.3-4.3s1.9-4.3,4.3-4.3C5,113.2,6.9,115.1,6.9,117.4z"/>
		</g>
		<g>
			<path class="st2" d="M30.2,185.5c0,2.4-1.9,4.3-4.3,4.3s-4.3-1.9-4.3-4.3s1.9-4.3,4.3-4.3S30.2,183.1,30.2,185.5z"/>
		</g>
		<g>
			<path class="st2" d="M46.6,189c0,2.4-1.9,4.3-4.3,4.3S38,191.4,38,189s1.9-4.3,4.3-4.3S46.6,186.6,46.6,189z"/>
		</g>
		<g>
			<path class="st2" d="M4.8,179.8c0,2.4-1.9,4.3-4.3,4.3s-4.3-1.9-4.3-4.3s1.9-4.3,4.3-4.3S4.8,177.4,4.8,179.8z"/>
		</g>
		<g>
			<path class="st2" d="M37.5,182.7c0,2.4-1.9,4.3-4.3,4.3s-4.3-1.9-4.3-4.3s1.9-4.3,4.3-4.3S37.5,180.4,37.5,182.7z"/>
		</g>
		<g>
			<path class="st2" d="M56.5,170c0,2.4-1.9,4.3-4.3,4.3S48,172.4,48,170s1.9-4.3,4.3-4.3S56.5,167.7,56.5,170z"/>
		</g>
		<g>
			<path class="st2" d="M27,85.8c0,2.4-1.9,4.3-4.3,4.3s-4.3-1.9-4.3-4.3s1.9-4.3,4.3-4.3C25.1,81.6,27,83.5,27,85.8z"/>
		</g>
		<g>
			<path class="st2" d="M25.5,87.7c0,2.4-1.9,4.3-4.3,4.3s-4.3-1.9-4.3-4.3s1.9-4.3,4.3-4.3C23.6,83.5,25.5,85.4,25.5,87.7z"/>
		</g>
		<g>
			<path class="st2" d="M13.5,90.4c0,2.4-1.9,4.3-4.3,4.3S5,92.7,5,90.4s1.9-4.3,4.3-4.3C11.6,86.1,13.5,88,13.5,90.4z"/>
		</g>
		<g>
			<path class="st2" d="M6.2,92.8c0,2.4-1.9,4.3-4.3,4.3s-4.3-1.9-4.3-4.3s1.9-4.3,4.3-4.3C4.3,88.6,6.2,90.5,6.2,92.8z"/>
		</g>
		<g>
			<path class="st2" d="M2.1,85.1c0,2.4-1.9,4.3-4.3,4.3s-4.3-1.9-4.3-4.3s1.9-4.3,4.3-4.3C0.2,80.8,2.1,82.7,2.1,85.1z"/>
		</g>
		<g>
			<path class="st2" d="M31.2,91.2c0,2.4-1.9,4.3-4.3,4.3s-4.3-1.9-4.3-4.3s1.9-4.3,4.3-4.3C29.3,86.9,31.2,88.9,31.2,91.2z"/>
		</g>
		<g>
			<path class="st2" d="M49.4,86.9c0,2.4-1.9,4.3-4.3,4.3s-4.3-1.9-4.3-4.3s1.9-4.3,4.3-4.3C47.5,82.7,49.4,84.6,49.4,86.9z"/>
		</g>
		<g>
			<path class="st2" d="M23.9,142.2c0,2.4-1.9,4.3-4.3,4.3s-4.3-1.9-4.3-4.3s1.9-4.3,4.3-4.3S23.9,139.9,23.9,142.2z"/>
		</g>
		<g>
			<path class="st2" d="M14.6,135.5c0,2.4-1.9,4.3-4.3,4.3S6,137.9,6,135.5s1.9-4.3,4.3-4.3C12.7,131.3,14.6,133.2,14.6,135.5z"/>
		</g>
		<g>
			<path class="st2" d="M25.1,141.1c0,2.4-1.9,4.3-4.3,4.3s-4.3-1.9-4.3-4.3s1.9-4.3,4.3-4.3C23.2,136.9,25.1,138.8,25.1,141.1z"/>
		</g>
		<g>
			<path class="st2" d="M43.8,152.1c0,2.4-1.9,4.3-4.3,4.3s-4.3-1.9-4.3-4.3s1.9-4.3,4.3-4.3S43.8,149.7,43.8,152.1z"/>
		</g>
		<g>
			<path class="st2" d="M55.5,133.3c0,2.4-1.9,4.3-4.3,4.3s-4.3-1.9-4.3-4.3s1.9-4.3,4.3-4.3C53.5,129.1,55.5,131,55.5,133.3z"/>
		</g>
		<g>
			<path class="st2" d="M52.1,155.7c0,2.4-1.9,4.3-4.3,4.3s-4.3-1.9-4.3-4.3s1.9-4.3,4.3-4.3C50.2,151.5,52.1,153.4,52.1,155.7z"/>
		</g>
		<g>
			<path class="st2" d="M44.8,158c0,2.4-1.9,4.3-4.3,4.3s-4.3-1.9-4.3-4.3s1.9-4.3,4.3-4.3C42.9,153.8,44.8,155.7,44.8,158z"/>
		</g>
		<g>
			<path class="st2" d="M38.3,155.1c0,2.4-1.9,4.3-4.3,4.3s-4.3-1.9-4.3-4.3s1.9-4.3,4.3-4.3S38.3,152.8,38.3,155.1z"/>
		</g>
		<g>
			<path class="st2" d="M26.4,154.8c0,2.4-1.9,4.3-4.3,4.3s-4.3-1.9-4.3-4.3s1.9-4.3,4.3-4.3S26.4,152.4,26.4,154.8z"/>
		</g>
		<g>
			<path class="st2" d="M4.6,144.4c0,2.4-1.9,4.3-4.3,4.3s-4.3-1.9-4.3-4.3s1.9-4.3,4.3-4.3S4.6,142,4.6,144.4z"/>
		</g>
		<g>
			<path class="st2" d="M17.5,145.4c0,2.4-1.9,4.3-4.3,4.3s-4.3-1.9-4.3-4.3s1.9-4.3,4.3-4.3C15.6,141.2,17.5,143.1,17.5,145.4z"/>
		</g>
		<g>
			<path class="st2" d="M26.3,143.1c0,2.4-1.9,4.3-4.3,4.3s-4.3-1.9-4.3-4.3s1.9-4.3,4.3-4.3S26.3,140.7,26.3,143.1z"/>
		</g>
		<g>
			<path class="st2" d="M37.1,157.7c0,2.4-1.9,4.3-4.3,4.3s-4.3-1.9-4.3-4.3s1.9-4.3,4.3-4.3S37.1,155.3,37.1,157.7z"/>
		</g>
		<g>
			<path class="st2" d="M46.9,154.8c0,2.4-1.9,4.3-4.3,4.3s-4.3-1.9-4.3-4.3s1.9-4.3,4.3-4.3S46.9,152.5,46.9,154.8z"/>
		</g>
		<g>
			<path class="st2" d="M4.8,147.8c0,2.4-1.9,4.3-4.3,4.3s-4.3-1.9-4.3-4.3s1.9-4.3,4.3-4.3S4.8,145.4,4.8,147.8z"/>
		</g>
		<g>
			<path class="st2" d="M37.5,150.7c0,2.4-1.9,4.3-4.3,4.3s-4.3-1.9-4.3-4.3s1.9-4.3,4.3-4.3S37.5,148.4,37.5,150.7z"/>
		</g>
		<g>
			<path class="st2" d="M56.5,138c0,2.4-1.9,4.3-4.3,4.3S48,140.4,48,138s1.9-4.3,4.3-4.3S56.5,135.7,56.5,138z"/>
		</g>
	</g>
</g>

<g class="st1">
	<path d="M444.8,426.2c-0.5-0.1-1.1-0.3-1.6-0.3C442.9,425.1,443.5,425.3,444.8,426.2z"/>
	<path d="M444.7,426.1c5.7,0.7,13.3,4.5,18.1,7C459,437.2,448.8,428.8,444.7,426.1z"/>
	<path d="M445.1,434.8l-6.7-1.5C441.8,434.4,442.2,431.8,445.1,434.8z"/>
	<polygon points="439.3,428.1 443.4,427.9 442.8,429.9 	"/>
	<path d="M151.2,258.6c-0.7,1-1.4,1.7-2.3,2.2C149.7,260.1,150.4,259.4,151.2,258.6z"/>
	<path d="M129.3,261.7c0.7,0.2,1.6,0.5,2.9,0.8C130.6,262.3,129.8,262.1,129.3,261.7z"/>
	<path d="M155.3,264.6l2.3,1.5C156.8,265.9,156,265.3,155.3,264.6z"/>
	<path d="M315.9,349.7c-2,0-4.8,0.1-7.7,0.2C310.4,348.8,312.2,346.1,315.9,349.7z"/>
	<path d="M99.9,223l-2.9-0.3C99.9,221.5,100.1,222.1,99.9,223z"/>
	<path d="M97,272.7c0.5,0.1,1,0.3,1.6,0.4c-0.2,0.5-0.8,0.9-2.1,1.3C96.6,273.8,96.8,273.2,97,272.7z"/>
	<path d="M168.5,274.2l-2.4-0.1c-0.1-0.1-0.1-0.1-0.1-0.2C166.7,273.4,167.5,273.4,168.5,274.2z"/>
	<path d="M129.5,201.9c0.2-0.4,0.6-0.9,1.1-1.5c0.3-0.3,0.6-0.6,0.9-0.9c0.1-0.2,0.3-0.3,0.5-0.5c0.2-0.1,0.5-0.3,0.5-0.4
		c0,0.1,0,0.2,0,0.3l-0.1,0.4c-0.1,0.2-0.2,0.5-0.3,0.7c-0.2,0.5-0.5,1-0.7,1.4c-0.5,0.9-1,1.7-1.6,2.5
		C129.2,203.5,129.1,202.8,129.5,201.9z"/>
	<path d="M129.4,261.7c-0.1,0-0.3-0.1-0.4-0.1c0,0,0,0,0.1,0C129.1,261.6,129.3,261.7,129.4,261.7z"/>
	<path d="M125.2,287.7c2.1,0.6,3.8,1.3,5.7,1.9C129.3,289.7,127.2,289.1,125.2,287.7z"/>
	<path d="M305.7,350c0.9,0,1.7-0.1,2.5-0.1C307.5,350.3,306.7,350.5,305.7,350z"/>
	<path d="M424.9,415.2c0.9-0.8,1.9-1.6,3.8-0.6C427.4,415.2,426.2,415.3,424.9,415.2z"/>
	<path d="M462.6,76.2l-0.8,0.4C461.9,76.4,462.2,76.3,462.6,76.2z"/>
	<path d="M389.1,119.1c0-0.6,0.2-1.1,0.4-1.6C389.9,118.4,389.9,119.2,389.1,119.1z"/>
	<path d="M304.9,110.4l-9.8,10.1c-1.2-1.6-7.1,0.6-4.2-3.3l-3.5,5.5l-0.6-2.2c-21.8,6.2-31.7,29.5-55.9,30.6v-0.9l-9.3,10.5
		c-2.4,0.5-4.8-2.7-8.9-2.3c3.6,2.9-6.4,3.7-7,8.1c-3.5-0.1-1.2-2.5-1.2-4.4c-13.1,2-18.8,12.6-32.4,16.1
		c14.8-0.9,14.2-2.2,23.6-4.3c-8.8,7.1-12.4,4.2-22.4,10.6l4.1-4.2c-8.3-2.9-14.7,11.2-19.5,5.7c-5.9,4.1-8.1,13-16.4,15.8l0.5-7.2
		l-7.1,3.4l1.8,3.8c-0.3,0.1-0.5,0.3-0.8,0.4c-0.2,0.1-0.3,0.1-0.4,0.2c-0.1,0.1-0.3,0.1-0.4,0.2c-0.8,0.3-1.5,0.6-2.1,0.7
		c-1.2,0.3-2.1,0.2-2.6-0.1c-3.1,4.2-7.6,7.1-12.6,10s-10.5,6-13.8,9.7l-3.7-0.5c-0.2,0.7-0.7,1.6-0.5,1.9
		c-3.3-0.4-6.9,0.7-10.3,1.8s-6.6,2.1-9.3,1.6c1.3-1.2,3.7-3.1,6-4.6c2.3-1.5,4.6-2.6,5.6-1.8c1.2-1.8,1-2.4-0.3-2.2
		s-3.7,1.2-6.4,2.5c-5.5,2.7-12.4,6.6-15.8,8.3c5.2-1.4,5.5-0.9,4.4,0.2c-1.1,1.1-3.8,2.8-5.1,3.9c-1.6,0.1-0.8-0.6-1.5-1.2
		c-4.1,1.3-6.3,2.7-7.6,4c-1.2,1.3-1.5,2.4-1.9,3.4c-0.3,1-0.8,1.9-2.6,2.7c-1.9,0.9-5,1.6-10.9,2.5c2,0.5,4.1,0.9,6.3,1.3l-9.1,2.6
		c0.4,0.6,0.8,1.2,1.2,1.9c9,0,12.4,1.5,15.8,3.1c3.4,1.6,6.7,3.2,14.3,2.9c4.8,2.3,2.5,2.4-0.5,2.1s-6.7-1.1-4.2-0.3
		c1.6,1.2,4.7,2.6,8.2,3.9c3.5,1.3,7.5,2.6,11,3.7c7.1,2.3,12.5,4,11.7,5.7c5.5,1.2,9.6,3,13.4,4.8c3.8,1.8,7.4,3.6,11.1,4.6
		l-2.2,2.7c2,0.6,4.3,1,6.4,1.6c2.1,0.6,4,1.2,5.5,2.3c-0.3,0.4-1,0.6-1.9,0.6c1.7,0.5,3.4,1.1,5,1.7c0.4,0.1,0.8,0.3,1.2,0.4
		c0.3,0.2,0.5,0.2,0.8,0.3c0.5,0.2,1,0.3,1.5,0.5c2,0.7,3.8,1.4,5.6,2.1c3.5,1.5,6.9,3.1,10.3,4.7c-1.4,1.9-2.1,3.1-6.3,1.9
		c4.8,6,18.5,4.4,27.4,10.3l-1.5,1.2l6.5,0.2c-1.5,0.5-1.3,1.9-2,3.1c8.8,5.2,20.1,10.7,27.8,7c-3.3,0.3,2.4,5.7-4.2,5.5
		c11.3,0.5,22.6,7.3,33.3,11.3v-0.3l5,0.6l0.1,0.7l-3.5-0.4c4.4,1.5,8.7,2.5,12.8,2.3c0.2,1.4-0.2,4.6,1.7,6.9
		c2-3.8,10.2,9.3,17.3,7.6c0.2,1.3-2.5-0.4-1.4,1.8c13,5.7,34,10.4,47.6,20.9c4.9-6.7,16.6,1.5,26.4,2.1c-0.1,5.3-5.7-0.1-9.5,2.1
		c5.1,1.3-1.7,5.8,8.2,6.4c-0.7,0.6-0.7,1.3-2.4,0.4c4.3,2.5,1.7-5.8,8-1l-1.3,3.2l6.3-1.8c13.3,9.1,26.9,12.8,37.9,22.3
		c1.1-0.3,1.5-2,0.3-3.6c5.6,3,14.8,1.3,19.8,7.6l-2.4,0.4c9.1,7.8,12.4,1.6,25.3,6.6c-2.7-1.7-10.2-2.6-9-6.5
		c2.1-1.7,8.3,1.7,9.5,4.6l1-4.6c-3.1,1.6-7.5-1-11.6-1.5c1.1,0.2,1.8-0.5,2.5-1.2c-3.7-0.2-7.9-2.3-12.9-3.5l6.2,3.5
		c-4.6,2.8-10.5-5.4-13.7-5.1c2-3.8,5.6-1.3,3.3-6.3c-9.8-6.7-8.1,0.9-19.7-0.6l1.1,2.1c-3.4-1.1-7.9,1.7-11-3.4
		c1.3-2.5,4.8-0.7,7.2-1.1c-0.2-2.1-7.9,1.6-10.1-2.7c4.7-2,13.2,0.4,18.4,3.1c-0.1-1.3,0.5-2.6,2-3.7c-16.9-5-36.2-8.8-50.5-18.7
		c10.5-0.6-3.5-1.8,0.9-5.9c-2.9,2.9-6.1-2.8-11.1-3.5c0.2-4.7,10,1.3,7.8-3c-8.6-3.1-23.1-1.7-32.9-8.3c1.5-1.1,4.1-0.1,4.8-0.7
		c-7.7-2.3-21,2-22.9-6.3c4.4-0.5,9.4-0.9,14.1-1.2c-0.9-0.4-1.9-1.4-3.2-3.4l3.9-1.5c-8-5.1-9.5,2.7-15.9,3.9l-3.3-6.4
		c-8.3-7.1-18.3-9.1-27-6.9c-1.7-0.9-8.7-4.5-4.1-6.6c7-2.4,10.8-4.6,20.4,0c-0.3,4-9,0.2-6.3,1.9c4.2,1.2,9.9,7.3,14.6,5.9
		l-10.4-4.7c2.7-5,4.3,1.9,7.4,0.3c-0.7-5.4-8.7-3.8-11.7-8.2l0.8,0.1c-8.6-3.1-7-3.5-16.2-5.4c-2.8,4.3,1.3,4.2,4.2,7.9
		c-13.1-6.4-35.1-6.6-44.3-21.2l9.8-0.1c-4.5-3.3-15.1-3.3-11.7-8.9c4.7,4.6,4.1-0.1,7.4,0.3l0.1,0.7c0.8,0.1,3.3,0.4,2.3-1
		c-5.8,1.1-13.2-1.3-18.8-1.8c2.7-0.2-0.8-4.2-0.9-5.4c-5.1-1.4-1.3,2.5-1.9,4.4c-2.6-1-8.2,0.3-8.7-3.8c-2.1-4.3,5.6-0.6,7.9-2.3
		l-15.8-2.7l0.7-0.6c-1.6,0.5-4.1,0.2-5.1-1.3c-0.3-2.7,3.1-1.6,4.9,0c-5.7-6.7-16.1,0.4-19.1-9l-4.9-0.2c-0.1-0.6-0.2-2,0.6-1.9
		h-4.9c-8.4-1.8,0.2-5.3-1.8-7.6l0.4,0.2c-1.9-1.9-2.7-4.5-0.8-4.3l-1.1-0.1h-0.3h-0.1l-0.3,0.1c-0.4,0.1-0.8,0.2-1.2,0.3
		c-0.8,0.2-1.7,0.3-2.6,0.4l0.1-0.1c-2.1,1.3-5,1.2-8.7,1.3c-1.8,0.1-3.9,0.1-6,0.4c-2.2,0.3-4.5,0.8-6.6,1.8
		c-1.2-1.3-0.8-2.6,1.3-2.8c-2.6-1-0.4-1.5,1.4-2.2c0.9-0.3,1.7-0.7,1.8-1.1s-0.4-0.9-2.3-1.5c2.1-0.5,2.3-0.1,3.9,0.1
		c-1.2-0.7-2.5-0.8-4-0.7c1.3-0.3,2.6-0.7,4.2-1.2c-4.4,0.9-5.9-0.5-6-1.2c3.5,0,6.8-0.2,9.9-0.4c-4.7,0.2-6.6-0.2-7.3-1.2
		c2.4,0,4.7,0,6.9,0c-2.2-0.5-5.5-0.3-7.9-0.2c-1.2,0-2.3,0-2.9-0.1s-0.9-0.5-0.5-1c-0.9,0.7-1.5,1.4-1.9,2.3
		c-3.4-1.2-7.9-1.4-12.6-1.6c-4.7-0.2-9.5-0.1-14.2-0.9c-1.1-0.2-2.1-0.4-3-0.7c0.3-1,2.2-2.1,4.5-3.1s5-2,7.3-3s4.1-2,4.9-3.1
		c0.8-1.1,0.7-2.4-0.8-4.2c2.8,0.3,4.2,0.8,5.8,1.1c1.6,0.4,3.3,0.6,6.1,0.6c-1.4,1.5-2.3,2.6-2.1,3.6c0.2,1,1.4,2,4.4,3
		c0.3,1.2-0.8,1.5-2.8,1.7c-2,0.1-4.9,0-7.7,0s-5.5,0-7.3,0.4c-1.7,0.4-2.7,1.3-1.1,2.5c4.6-0.1,7.5-0.4,9-0.9
		c1.5-0.4,1.7-1.1,1-1.8c3.4,0.2,5.5,0.7,7.1,1.2c1.7,0.6,2.8,1.1,4,1.4c-0.3-0.9,3.2-1.9,6.3-2.6c3.1-0.7,6-1.1,6.5-1.6
		c-0.9-0.5-1.6-1.4-1.6-2.2s0.6-1.6,1.8-1.6c-1.6-0.7-1.5-2-1.5-3.6c0-0.8-0.1-1.7-0.6-2.5s-1.5-1.6-3.4-2.1c1.2-1,2.5-1.3,3.7-1.3
		s2.2,0.3,3.1,0.6c0.9,0.3,1.6,0.5,2.2,0.1c0.5-0.3,0.9-1.2,1.5-3.2c0.2,2.5,1.6,2.6,2.7,2.9s2,0.5,2.1,2.7c-1.7-1.4-3.2,0-3.7,1.9
		c-0.2,1-0.3,2-0.1,3c0.2,1,0.5,1.9,0.8,2.5c2.2-0.2,4.1-0.3,5.7-0.2c-0.8-0.3-1.4-1.1-1.6-2c-0.2-0.9-0.1-1.9,0.1-2.3
		c0.9,0.9,1.7,1.9,2.4,2.9c-0.2-0.5-0.4-0.9-0.5-1.3c-0.1-0.2-0.1-0.3-0.1-0.5c0-0.2,0.1-0.4,0.2-0.6c0.4-0.7,1.1-1.3,2-1.7
		c1.9-0.9,4.5-1.4,7.3-2c5.6-1.1,11.5-2.7,11.7-8.6c-2.9,2.1-7.1,0.7-6.5,5.7c-7.1,0.6-1.8-6.7-6-8.1c7.6-7.8,24.1-9.6,31.1-20.5
		c-0.6,3.4-5.3,5.4-4.1,8.9c8.3-1.9,13.5-13.8,20.5-21l0.6,5c5.3-7.3,3.6,0.1,10.6-5.2c-0.6-0.3-2.4-1.3-0.6-2.2
		c6.5-2.8,2.4,3.2,7.1,2.2c4.6-10.4,5.9,2.5,14.1-5.9v1.9c6.5-6.6,19.5-5.7,28.3-9c-1.2-0.7-7.1,3.4-8.3-1l10-6.4
		c1.1,0.7,5.8-1.3,4.1,2.4c-1.2,1.2-2.9,1.2-4.1,1.4l2.4,1.4c8.8-7.1-3.6-5.8-5.4-9.6c5.9-1.3,5.9-6,9.4-7.7c3.6,3-4.6,7.6,1.9,9.5
		c4.1,0.5,12.9-7.6,14.6-13.1c9.5,6.4,21.2-8.4,24.8-1.7c-0.6-0.3-0.1-3.7,2.9-3.9l-0.6,2.5c8.9-0.5,4.1-9.8,9.4-10.5
		c0.5,1.3-0.6,2.5-0.6,4.4c10.6-3.3,11.1-16.1,22.9-16.8c0,0.9,0.1,1.8-1.1,2.1c0,0.9,1.7,0,4.1-3.3l-4.8-0.8
		c1.1-10.6,15.4-3.4,22.4-9.6c0,1.8-5.9,5-1.7,5.5c5.3-2.6,0.5-10.9,8.8-9.9c-2.4,2.4,0.5,5.9-1.8,8.1c4.3-1.5,8.4-0.5,8.3-4.4
		c1.2-0.3,2.3,0.7,2.8,1.6c1.4-3.7,6.4-4.1,9.5-4.8v1.9c1.1-10.6,8.2-4.6,14.7-8.4v2.8c2.3-2.3,5.2-7.2,11.7-6.3l-1.1,4
		c2.9-3.9,12.4-3.2,13.5-9.1c1.8,0.1-1.1,6.8,5.4,4c0.6-2.5,4.6-6.7,7.6-5c0.6,1.3,0.7,3.1-1.7,2.7c-1.2,0.2-0.6-0.3-0.6-1.3
		l-1.2,3.1c5.9-0.4,2.9-3.9,8.8-5.2c1.8,1-0.5,3.4-0.5,5.3l17-14.6c-0.7-2.2-3.6-2-3.1-5.4l-7,2.5c-4.8-1.7,1.7-5.5,4-7.9l-4.7,2
		c-0.4-0.2-0.5-0.7-0.2-1.1l-3.4,1.9c7-9.1-12.5-1.5-4.3-9.9c-2.3,1.5-4,5.1-4.6,7.6c-4.1,3.2-4.1,0.4-6.5,0l5.3-6.4
		c-10,6.5-0.7-4.1-9.5-2.6c-7.6,6.9-17.8-0.8-22.5,1.2c-8.8,5.2,5.4,2.1,0.7,6.9c-4.7,2.9-3.6-1.1-7.1-0.3l0.1,5.6
		c-5.3,3.6-2.4-4.1-4.7-0.8c-5.9-0.6,0.5-2.5-0.1-6.6c-0.5,1.6-4.6,5.7-7.6,5c-0.6-1.3,5.3-4.5,1.2-3.1c-12.9,9.4-18.9,6.1-31.2,13
		v-2.8c-1.2,1.3-1.7,2.8-3.5,2.7v-1.9c-1.8,0.8-13,10.4-21.8,13.7l2.9-4.9l-5.9,6.9l-1.2-4.5c-0.5,5.4-10.6,7.1-17,11.8l-1.2-2.6
		l-3.5,3.6l0.6-2.5c-4.1,2.3-7,9.1-12.9,9.4C307.4,116.4,306.1,112,304.9,110.4z M136.3,204.6c-0.1,0-0.3,0-0.5,0s-0.3-0.1-0.7,0
		c-0.6,0.1-1.4,0.2-2.1,0.4l-3.2,1.8c0.9-1,2-1.5,3.2-1.8l1.3-0.7c0.4-0.2,0.9-0.5,1.1-0.6l1.4-0.9
		C137.2,204.1,136.9,204.5,136.3,204.6z M311.6,373.9l-5.1-2c0.9,0.7,5,1.3,2.7,2.3C310.1,374.4,311.8,375.3,311.6,373.9z
		 M153.1,226.1l-1.2,3.1l-3-1.7L153.1,226.1z M192.4,206.6l-3.5,3.6l-0.6-0.3l3.5-3.6L192.4,206.6z M235.6,156.7
		c-0.4,5.7-4,1.8-6.4,5.3c-0.2,0.3-0.4,0.7-0.6,0.9c0.2-0.4,0.4-0.6,0.6-0.9C230.3,159.5,230.4,154.5,235.6,156.7z M146.3,204.6
		c-1.2-2.5,3.5-5.4,4.1-7.9c2.3-0.6,0.6,3.1,0.6,5c1.1-0.3,1.7-0.9,2.9-2.1C155.7,205.3,149.1,199.7,146.3,204.6z M111.7,274.4
		c-2.7-0.5-5.5-1.1-8.4-1.7l1.3,1C107,274,109.4,274.2,111.7,274.4z M134.4,287.1c-0.3,0.5-0.4,1.2,0.2,1.8c0.3,0.3,0.7,0.6,1.4,0.9
		c0.3,0.2,0.7,0.3,1.2,0.4c0.2,0,0.5,0.1,0.7,0.1s0.4,0,0.6,0c4.5,2.6,10,1.3,10.4-2c-2.1-0.6-4.5-1.8-6.8-2.5
		c-0.5-0.1-1.1-0.3-1.7-0.4c-0.7-0.1-1.5-0.3-2.2-0.4c-1.4-0.2-2.8-0.2-4.1,0.2C136.3,285.1,135.1,286,134.4,287.1z M197.4,184.4
		c-2.3,2.4-3.4,10.1-10.5,9.8l3.5-3.6l-1.2,0.2V188C191.1,194.7,195.1,185.8,197.4,184.4z M178.9,305c1.8,0.9,8.4,1.7,10.3-2.7
		c-0.5,2.6-8.8,1.6-13.7,1.6C177.1,304.1,178,304.3,178.9,305z M179,299.6c-1.9-1.5,0.3-3.9-4.6-3.9c-0.5,2.7-4.8,7.4-9.5,2.8
		c6.4-1.8,7.8-3.7,14.4-2.8L179,299.6z M165.4,303.2l-6.2-5.4C165.4,294.9,163.6,300,165.4,303.2l2,1.7
		C166.4,304.5,165.8,303.9,165.4,303.2z M217.7,328.2l-2.6,0.3c-0.1,0.8-0.7,1.3-3.1,0.3l3.1-0.3
		C215.3,326.9,213.4,324.1,217.7,328.2z M172.5,306.2l6.9,2.9C177.5,307.5,173.9,304.4,172.5,306.2z M206.7,318.7
		c-0.9-0.8,6.1,3.5,8.8,5.2C213.1,324.2,206.2,321.3,206.7,318.7z M362.4,393.9l-0.5-4.1l4.3,1.9L362.4,393.9z M320.7,367.7l-2.6-1
		l-0.3-2L320.7,367.7z M271.4,339.9c0.8,0.5,1,1.1,0.9,1.8c2.7,3.7,11.2,9.3,16.3,11.2c1.2,2.8-6.2,2.5-8.6,2.9
		c7.8-9-6.9-2.9-9.3-8.6c1.5-0.5,4.2,1.2,5.7,0.1c-0.8-1.5-3.3-3.3-5.5-3.5c-0.7,0.6-1.6,0.8-2.2,0.5c0.6-0.5,1.4-0.6,2.2-0.5
		c0.8-0.6,1.3-1.3,1.4-2.1C271.9,341,271.5,340.4,271.4,339.9z M208.7,308.2c-1.3,0.5,0.4,2.9-3.8,2.3
		C205.1,308.8,206.8,308.2,208.7,308.2c0.5-0.2,1.4-0.1,3.3,0.5C211,308.3,209.9,308.2,208.7,308.2z M214.6,304.3H204l4-0.8
		l-6.6-0.9C203.6,300.2,210.9,299.9,214.6,304.3z M190.7,296l10.2,3.3l-0.5,0.4l0.6,0.3l-3,1.6l2.4-1.9L190.7,296z M100.9,258.2
		c-0.1,1.3,1,2.7,7,2.4l-4.3-2.5c0.6,0.2,3.2,0.7,5.9,1.4c2.7,0.7,5.4,1.5,6.9,2.6c1.7-1.4,2.4-2.1,2.4-2.4c0-0.4-0.8-0.4-1.9-0.4
		s-2.5-0.1-3.9-0.4c-1.3-0.3-2.6-1-3.1-2.1c4.3,2.3,7.5,2.5,10.1,2s5-1.6,7.4-2.2c-4.2,0.4-7.6-0.7-11.7-1.6
		c-2.1-0.4-4.4-0.8-7.2-0.9c-2.8-0.1-6.1,0.1-9.7,0.9C102.3,255.7,101,256.9,100.9,258.2z M132,230.7l5-3.4l-5.8,3.1L132,230.7z
		 M289.5,156.5c0.1,4.7-9.4,4.9-10,2.7C281.2,160.3,285.3,158,289.5,156.5z M346,128.1c-3.5,0.8-5.8,7.9-9.4,4l5.8-5
		C344.2,128.1,345.9,125.3,346,128.1z M387.8,109.1v-5.6l-1.8,1.8L387.8,109.1z M383.1,117.7c1.2-0.3,5.3-3.5,2.9-4.9L383.1,117.7z
		 M424.9,92.9l-0.5,5.3l2.9-1.1L424.9,92.9z M420.7,91.5c-0.6,0.9-0.5,2-0.2,3.1c-1,1.8-3.3,3.4-6.2,3.6c-0.6-2.2,1.7-1.8,2.9-3
		c-1.2,0.2-3.6-0.2-5.3,1.6c4.2,2.3,2.4,3.2,4.2,6.1c7.4-1.3,5.2-5.1,4.4-8.3C421,93.6,421.1,92.4,420.7,91.5z M397.2,101.4
		c1.1,0.3,1.7,0.7,2.1,1.2c4.7-0.9,9.4-1.9,6.8,3.9l-4.1,1.4c1.7-0.8,1.1-1.2,1.1-2.1c-3.5-0.2-4.1,3.2-5.8,5c0.5-2,4-6,2-8.2
		c-1.3,0.2-2.6,0.4-3.7,0.5c-0.5,0.8-1.1,1.5-2.6,0.7v-1c0.6,0.3,1.6,0.4,2.6,0.3C396,102.3,396.3,101.3,397.2,101.4z M422.4,86.9
		c0-1-1.2-1.7-0.6-3.2l1.7-1.8C427.1,82.1,424.8,85.4,422.4,86.9z M303,146.6c-0.6,0.6-7.1,3.4-5.9,6l-3.6-3
		c3.6-0.8,5.3-5.4,3.5-5.5C300.6,145.2,302.3,142.5,303,146.6z M141.2,225.8c1-2.1,10.6-3.2,9.3-8.6
		C155.9,221.2,145.8,224.9,141.2,225.8z M136.7,221.5c-0.9,0.6-1.6,1-2.3,1.4c-1.1,1.1-0.7,2.5-0.9,3.5c-0.1,1.1-0.7,2-4,2.3
		c0.1-0.6,1-1,1.8-1.3s1.6-0.6,1.8-1.3c-2.4-1.9-1.2-1.9,1.3-3.2C134.9,222.4,135.5,221.9,136.7,221.5z M227,172.1l-4.7,2l-1.2,5
		L227,172.1z M268.7,146.5l-3.5,2.7l1.8,0.1c0.4,1,1.8,2,1.1,3.1c-0.7,0.4-1.2,0.8-1.7,1.3c0.9-0.5,1.5-0.9,1.7-1.3
		c2.6-1.7,6.3-3.1,5.3-5.9c-0.6,1.5-5.9,4.1-6.5,1.9L268.7,146.5z M357.5,100.3c-1.7,1.8-1.7,2.7-5.9,2.2
		C353.3,100.7,356.3,99.5,357.5,100.3z M245,154.5c0.7,2.2-4.6,3.9-1.7,5.6l2.4-0.5c-3.5,0.8,0.7,6-5.2,5.4l2.9-1.1
		c-4.1,0.4,2.3-6.2-3.6-4.9C237.4,159.5,242.1,154.8,245,154.5z M361.5,91.4c-2.9,2,0.7,6.9-5.8,6.9
		C359.2,95.6,356.2,91.1,361.5,91.4z M272.6,131.1l-0.6-0.3l-3.5,3.6l0.6,0.3L272.6,131.1z"/>
	<path d="M378.4,120.3c-0.6,0.6-1.4,1.1-2.9,1.4C376.4,121.1,377.4,120.6,378.4,120.3z"/>
	<path d="M139.6,241.3c0.6,0,1.3,0.1,2.2,0.5C140.9,241.7,140.2,241.5,139.6,241.3z"/>
	<path d="M139.7,245.3c-0.1-0.1-0.2-0.1-0.3-0.2l0.1-0.1L139.7,245.3z"/>
	<path d="M423.6,407.3c1.8,0.9,7.4,0.3,3.6,2.5C424.9,410.8,425.4,408.2,423.6,407.3z"/>
	<path d="M416,408.6c-2-0.7-3.8-0.7-5.3-0.3C413.5,407.6,414.9,407.9,416,408.6z"/>
	<path d="M416,408.5c2.1,0.7,4.3,2,6.7,4C418.6,411.6,417.7,409.6,416,408.5z"/>
	<path d="M386,386.9c-1.5,1.1-13.4-2.4-5.2,4c0,0-3.6-3.1-6.8-2.2C378.7,387.4,380,384.8,386,386.9z"/>
	<path d="M363.7,385.4c-0.5-0.7-1.4-1.2-2.3-1.7C362.3,384,363.1,384.4,363.7,385.4z"/>
	<path d="M361.5,383.7c-3.2-0.9-7.4,1.5-10.4-2c2.3-1,4.5-2.7,7.9-1.6C356.9,381.7,359.2,382.6,361.5,383.7z"/>
	<path d="M265.5,317.7l5.2,2.7c-0.7,1.2-2.5,0.3-3.3,0.2C266.5,319.8,262.9,317.4,265.5,317.7z"/>
	<path d="M240,317l1.9-4.4c2.5,0.3-1.3,2.5,3,4.4H240z"/>
	<path d="M236.3,339.6c0.5,0.2,1,0.4,1.5,0.6l-1.5-0.2V339.6z"/>
	<path d="M232,299.3l-5.3,3.3C225.9,302.5,227.9,298.7,232,299.3z"/>
	<polygon points="207,288.7 215.5,291.1 212.3,291.3 	"/>
	<polygon points="185.7,281.2 191.6,282.6 191.7,284 	"/>
	<path d="M201.8,201.7c3-0.1,10.6-6,11.8-1.6C207.7,196.7,206,206,201.8,201.7z"/>
	<path d="M359.6,128.5l7.6-5C361.3,127.6,366.6,126.9,359.6,128.5z"/>
</g>
</svg>
