<?xml version="1.0" encoding="utf-8"?>
<!-- Generator: Adobe Illustrator 25.2.1, SVG Export Plug-In . SVG Version: 6.00 Build 0)  -->
<svg version="1.1" id="Layer_1" xmlns="http://www.w3.org/2000/svg" xmlns:xlink="http://www.w3.org/1999/xlink" x="0px" y="0px"
	 viewBox="0 0 1920 154.9" style="enable-background:new 0 0 1920 154.9;" xml:space="preserve">
<style type="text/css">
	.st0{fill:#202020;}
</style>
<g>
	<g>
		<path class="st0" d="M45.5,74.7c-0.1-2-1-0.8-0.3,4.4c0.4,1.2,1.1,2.3,1.6,3.4C46,80,45.6,77.4,45.5,74.7z"/>
		<path class="st0" d="M64.1,102.1c3.1,0.8,6.5,0.7,8.6,0.4c2.1-0.3,2.9-0.7,0.9-1.1c-1.6,0.2-2.7,0.2-3.8,0.3c-1.1-0.1-2-0.1-3-0.3
			c-1.9-0.4-3.9-0.6-7.1-1.7c-4.8-2.4-7.2-5.8-6.4-5.3c-0.7-0.6-2.1-2.1-3.3-3.8c-0.6-0.9-1.2-1.8-1.7-2.7c-0.5-0.9-0.9-1.7-1.4-2.3
			c1,3.3,3.1,6.8,6.2,9.7c3.1,2.9,7.1,5.3,11.6,6.3C66.5,102.3,64.6,102.1,64.1,102.1z"/>
		<path class="st0" d="M595.6,104.8l-3.4-0.1C593.1,104.7,594.3,104.7,595.6,104.8z"/>
		<path class="st0" d="M925,105.2c-2.5,0-3.6,0.1-3.7,0.2C923.7,105.4,925.6,105.3,925,105.2z"/>
		<path class="st0" d="M981.3,106.2c-1.2,0-2.2,0-3.3-0.1C979.2,106.2,980.5,106.2,981.3,106.2z"/>
		<path class="st0" d="M595.6,104.8l8.8,0.3C605,104.7,599.9,104.8,595.6,104.8z"/>
		<path class="st0" d="M137.2,101.3c-1.8,0-3.4,0.1-4.8,0.2c1.5,0,3-0.1,4.5-0.1C137,101.4,137.1,101.4,137.2,101.3z"/>
		<path class="st0" d="M450.4,105.5l-2.7,0c-0.8,0.1-1.5,0.2-2.2,0.4L450.4,105.5z"/>
		<path class="st0" d="M338.9,105.6c2.5,0,3.4-0.7,4.4-1c-1.4,0.3-3.3,0.4-5.5,0.5C337.8,105.2,338.1,105.4,338.9,105.6z"/>
		<path class="st0" d="M162.2,104.3l-3.1,0.1C159.9,104.4,161.3,104.3,162.2,104.3z"/>
		<path class="st0" d="M530.1,105.6c0.2,0.1,0.6,0.2,1,0.3C531.2,105.8,530.8,105.7,530.1,105.6z"/>
		<path class="st0" d="M156.5,49.4c0.1-0.1,0-0.1,0-0.1C155.9,49.3,155.7,49.4,156.5,49.4z"/>
		<path class="st0" d="M43.7,74.7l-0.2,0v0v0v0l0,0l0,0l0,0l0,0l0-0.1l0-0.1l0-0.2l0-0.5l0-0.9c-0.1-0.2-0.3-0.4-0.4-0.4l0.2,1.1
			l0.1,0.6l0,0.3l0,0.1l0,0.1l0,0l0,0l0,0l0,0l0,0l0,0l0,0L43.7,74.7z"/>
		<path class="st0" d="M1084.2,107.1c-0.2,0-0.3,0-0.5,0C1081,107.2,1082.6,107.2,1084.2,107.1z"/>
		<path class="st0" d="M1774.7,42.9c10.7,0.7-17.4,0.8-1.3,1.6C1771.9,44.2,1788,43.3,1774.7,42.9z"/>
		<path class="st0" d="M140.1,101.4c1.5,0,3,0,4.6,0C142.6,101.4,141.2,101.4,140.1,101.4z"/>
		<path class="st0" d="M1773.4,44.5L1773.4,44.5l1.7,0.1C1774.3,44.5,1774,44.5,1773.4,44.5z"/>
		<path class="st0" d="M1321.4,106.7c-0.5-0.1-1.4-0.2-2.4-0.3C1319,106.4,1319.6,106.5,1321.4,106.7z"/>
		<path class="st0" d="M1144.7,105.6l4.4,0.1C1147.3,105.7,1145.9,105.6,1144.7,105.6z"/>
		<path class="st0" d="M1413.1,105.6c2.4,0.1,3.2,0.2,6.4,0.1c-0.3,0-0.6-0.1-1-0.1C1417.4,105.7,1415.8,105.8,1413.1,105.6z"/>
		<path class="st0" d="M1508.6,105.6c-0.5,0-1.2-0.1-1.8-0.1c-0.9,0-2.1,0-3,0L1508.6,105.6z"/>
		<path class="st0" d="M446.7,49c-2.1-0.2-3.4-0.4-4.4-0.7C443.8,48.9,429.7,49.1,446.7,49z"/>
		<path class="st0" d="M137.3,101.7c0.6-0.2,1.4-0.3,2.8-0.3c-1.1,0-2.1,0-3.2,0C136.7,101.6,136.6,101.7,137.3,101.7z"/>
		<path class="st0" d="M1417,99.8l15.2,0.1C1427.9,99.9,1422.4,99.9,1417,99.8z"/>
		<path class="st0" d="M1131.7,48.9l-3.5,0.1C1129.6,49,1130.8,49,1131.7,48.9z"/>
		<path class="st0" d="M1477.2,99.8c2.7,0.3,5.6,0.4,8.5,0.5c0.6-0.1,1.3-0.1,1.8-0.2L1477.2,99.8z"/>
		<path class="st0" d="M442.3,48.4C442.3,48.4,442.3,48.4,442.3,48.4C442.3,48.4,442.3,48.4,442.3,48.4z"/>
		<path class="st0" d="M342.3,50.1c14.5,0,6.8-0.9,9.9-1.5c17.3-0.3,8,0.7,13.9,1.2c10.8-0.3,19-1.1,27.1-1.1
			c0.6,0.2,2.2,0.2,0.3,0.4c11.4-0.8,33.8,0,47.1-1c1,0.1,1.5,0.2,1.7,0.2c-2.1-0.5-2.5-1-2-1.3c6.5,0,12-0.6,14.5,0
			c-4,0-4.3,0.2-6.2,0.4l6.8-0.3c6.1,0.9-9.3,0.3-9.3,1c13.2-0.3,28.7-1,38.8-0.8c2.1,0.9-23.7,0.3-10.2,1.1L459,48.2
			c12,1.4-9.5-0.1,1.5,1.4c20.7,0.3,23.1-0.5,43.7-0.2c4.6-0.5-1.5-0.7,3.1-1.2c29.3-0.9,23.1,2.2,44.6,1.1
			c5.6-0.6,7.7-1.7,23.1-1.1l-5.2,1c20,0.1,11.4-1.4,32.4-0.8c-3.7,0.4-15.7,0.3-12.7,0.5c13.6,0.8,9.6-0.6,20-0.6l2.2,0.9
			c21.3-0.3,44.8-0.6,68.3-0.9c-1.3,0.3-5.3,0.5,0.2,0.8c29.7-0.4,63.5,0.1,92.2,0.6l11-0.8c2.5,0,4.7,0.3,2,0.5
			c11.2,0.3,0.6-0.5,6-0.8c6.4-0.1,8.4,0.4,4.4,0.7c19.7-0.7,56.2-1.4,77-0.6l-4.1,0.2c16.2,0.3,18.3-1.6,33.3-0.9l-2.9,0.1
			c35.1,0.3,74-0.4,100.8,0.8c5.1-1.1,34.8,0.5,37-1c20.1,0.8,14.3,1,42.6,1.6c7.5,0.1,11.2-1,20.6-1.1l0.2,0.8l12.7-0.8l6.7,1
			l8.8-0.2c-3.5,0-7.4-0.4-6.9-0.6c6.8-0.2,15.2,0,21.8,0.2c6.7,0.2,11.7,0.6,11.8,0.8l32.3-0.7c-0.7,0.3-6.1,0.4-10.4,0.6
			c17.3-0.8,3.1,0.8,19,0.1c-2.1-0.2,1.1-0.5,1.5-0.6c7.9,0.5,25.8,0.5,39.1,0.3l-2.5,0.6c24,0.1,50.6-0.3,77.5-0.3
			c-9.7-0.3-7.4-1.2,0.5-1.3l3.2,0.9c5.1-0.5-8.2-0.3,2.2-1c10.1,0.1,6.8,1,1,1.2l12.2-0.3c0.7,0.3-2.1,0.4-2.9,0.7
			c5-0.5,21.1,0.9,28.3-0.1l0.7,0.3c26.9-0.1,39.1-0.2,61-0.3c0.4-0.7,9-0.6,15.5-1.2c16.1,0.2,34,0.8,53.4,0.8
			c13.6-0.4,4-0.6,10.1-1.1c1,0.7,20.4,0.6,10.3,1.1c23.3-0.1,29.8-0.1,59.2-0.7c-3.2-0.3-6.8-0.4-4.9-0.6
			c5.3-0.1,12.2,0.3,11.4,0.6l-1.4,0.1c33.1-1,76.3,2,102.7,0.6l-1.5,0.1l27.3-0.7c12.6,0.1-7.5,0.5,1.8,0.9
			c29.5-1.1,46.5,0.2,70.8-0.6c9.4,1,26,1,43.5,0.8c8.7,0,17.7-0.1,26-0.1c4.2,0,8.2,0.1,12,0.1c0.9,0,1.9,0,2.8,0.1
			c0.8,0.1,1.6,0.1,2.3,0.2c1.5,0.2,2.9,0.5,4.2,1l-1.1-0.8c1.4,0.2,2.6,0.5,3.5,0.9c0.9,0.3,1.7,0.8,2.3,1.2
			c0.7,0.4,1.3,0.8,1.9,1.3c0.7,0.4,1.3,1,2.1,1.7c-0.2-0.8-5-3.7-1.8-2.1c5.3,3.2,9.4,8.4,11.3,14.5c1.9,6,1.3,12.8-1.5,18.5
			c-2.8,5.7-7.8,10.4-13.8,12.7c-3,1.2-6.2,1.8-9.4,1.7l-10.8-0.1c-28.8-0.3-57.8-0.6-86.2-0.9c-20.8-0.1-11.8,2.4-38,1.3l7.4-0.9
			c-42,1-85.9,0-127,0.8c2.5-0.2,2.5-0.5,6.5-0.5c-4.3-0.3-12.4-0.3-19.3-0.2c-7,0.1-12.9,0.4-12.9,0.7c-6.4-0.1-1.5-0.5-5.4-0.7
			c-8.7-0.4-21.9,0.8-26.5,0.2c-0.8-0.1,2.4-0.2,4-0.3c-5.7,0.3-26.4-0.1-21,0.6c-15.4-0.3-29.5,0.3-41.8-0.1
			c-8,0.8-26.4-0.4-29,0.8c1.1-1.2-27-1-36.8-0.4c3.3-0.4-8.5-0.4-4.7-0.9c-11.1,0-21.3,0.2-19.4,0.8c-20.5-1.4-41.2,1.1-52.8-0.7
			c-33.1,0.6-63.7,1.1-93.4,1.3c1.1-1.2,32.9-0.1,31.6-1.4c-28.2,0.5-44.5,1.5-72.5,1.2c-7.2-0.2,4.1-0.5,6.6-0.7
			c-28.2,0.5-54.5-0.1-79.6,0.5c0.1-0.1,2.8-0.2,5.3-0.3c-4.9,0-11.5-0.2-10.9,0.4l4.8-0.1c7.9,0.8-19.6,1.6-20.5,2
			c8.4-1.5-24.8-0.4-11.5-2.3c-3.3,0.1-7.3,0.4-6.6,0.7c-4.8-0.1-6.4-0.3-1.5-0.7c-17.7,0.3-11.4,0.9-27.5,0.9
			c0.1-0.3,3.3-0.4,5-0.7c-8.1,0.5-16.3,1-29.8,0.8c0.8-0.2-0.8-0.4,3.3-0.4c-23.3,0.1-39.7,1.3-65.2,0.9c7.5-1.1-8.7-0.4-10-1.3
			l-13.7,0.3l5.5,0.5c-12,0-22.7,0.7-33,0.4l8.9-0.4l-22.6,0.2l12.8,0.4c-12.2,0.5,1.3,1.2-14.7,1c3.3-0.1-12,0-18.3-0.6l0,0
			c-6,0.3-12.1,0.6-21,0.4c-2.3-0.3,1.9-1.1,0.4-1.3c-5.9,0.8-28.2,0.2-35.6,1.1c2.5-0.2,2.6-0.7,1.8-0.8l-4.9,0.7
			c-5.6-0.2-6.4-0.3-5.5-0.7c-16.8-0.1,5.3,1.2-14.6,0.7c1.6-0.1,0.8-0.2,4.1-0.3c-20-0.3-38.6,0.4-57,0.1c-5.4-1,16-0.2,9.8-1.1
			c-26.5,0.2-54.8,1.2-80.5,0.9l4.8,0.1c-3.6,1.4-19.1-0.7-32,0c3.2-0.1,4.2-0.8,3.3-0.6c-17.6-0.2-35.9,0.3-62.5,0.8l3.3-0.4
			c-10.3-0.3-27.2-0.2-38.4-0.3c-3.3,0.4-9.7,0.3-5.8,0.8c-34.4-2-65.7,1.1-96.3-0.6c3.7,0,8.7-0.3,5.8-0.3l-26,0.3
			c2.1,0.6,3.4,0.4,8.9,0.8c-3.3,0.4-10.6,0.6-17.1,0.6c11.7-0.4-0.1-1-5.2-1.3c0.8,0.2-0.9,0.4-0.5,0.6c-13.6-1.1-2.3,1.2-20.8,0.5
			l1-0.3c-6.9,0.2-13.4,0.6-20.8,0.5c-3.1-0.7,7.4-0.3,7.9-0.9c-10.5,0-20.8,1.3-30.3,0.6c4.5-0.1,10.9-0.3,15.4-0.4
			c-10.4-0.8-11.6-0.6-19.3-0.7l0.8,0l-17.8-0.4l4.5,0.2c-13.2,1.8-26.8,0.3-44.6,1.5c17.2-1.1,2.9-0.7,4.2-1.4
			c-4.5-0.2-11.4-0.5-9.5-0.7c-8.4,0.6-14-0.5-25.8,0.4c-0.5-0.3-9,0-7.1-0.7c-10.9,0.2,2.6,0.4,1.7,0.8
			c-16.8,0.9-39.5-1.1-63.7,0.1c-20.8,0.5-24.7,1.4-44,1.8c-6.5-0.4,5.3-0.9,5.3-0.9c-10.5-0.4-18.5-0.3-28.4,0
			c2-0.2-0.1-0.4-3.1-0.7c-8,0.1-5.3,0.9-15.8,0.6c1.8-0.3,4.1-0.7,8-1c-9.4,0.3-18.7,0.6-28.4,0.9c-2.6-0.4,5.9-0.7,9.3-1
			c-10.9,0.2-28.3,0.4-31.7,1.1l7,0.3c-4,0-2-0.6,0.9-0.7c9.4-0.6,13.5,0.2,14,0.5l-6.9,0.2c7.1,1.5,27.8-0.2,41.7-0.2l-5.8,1.1
			l14.3-0.9c3,0.3,5.1,0.9-1.8,1.1c10,0.5,8.8-0.4,17.4,0.2c0.9,0.1,0.5,0.1-0.4,0.2l9.8-0.3c-1.9,0.2,1.6,0.8-4.4,0.6
			c17.5,0.6,28.2-0.8,34.8,0l-1.5,0.1c24.3-0.4,2.3-0.8,20.6-1.7l12.3,2l2.4-0.8c2.5,0,7.5,0.1,6.5,0.4c9.3-0.5-1.6-0.3,3.8-0.9
			c12.1,0.7,33.3-0.3,36,0.9c4.3-0.6-11.5-0.5,1.3-0.9c3.7,1.4,14.9-0.2,25.9,0.4c-3.4,0.7-13.8,0.3-2.8,1c6.7-1.2,21.5,0.3,30.8,0
			c0.4-1,20.2-0.4,35.8-0.7c-1,0.3,29.4,0.5,43.9,0.9l-0.4,0.2c2.8-1,17.8-0.8,28.7-1c-0.4,0.6-2.4,0.8-8.3,1.1l10.2,0
			c2.4-0.3,5.6-0.5,12.3-0.6l-2.6,0.7c13.6,0,27.5-0.8,45-0.4c1-0.7-14-1.9,4.6-2.3c0.7,0.4,1.4,1-3.5,1.1c1.6,0,5.7-0.3,8.9-0.1
			l-7.4,0.6c8,0.3,4.2-0.5,10.6-0.5c-0.1,0.5,4.7,0.4,3.8,0.8c-1.6,0-5.6-0.2-8,0c7.2,0.1,15.9,0.4,18.8,0.8c-0.6-0.3,0-0.7,5.3-0.8
			c13.6,0,4.7,0.6,12.6,0.9c3.3-0.4,12,0,12.2-0.8c4,0,4.7,0.4,6.3,0.6c7.1-0.3,33-0.1,25-0.9l-1.8-0.1c0.3,0,0.7,0,1.2,0
			c-0.1,0,0,0-0.1,0h0.1c23.1-0.8,48.1,0.4,71,0.1l0,0.3c13.7-0.3,30.5-0.2,40.3-0.7c4.1,0,9.6,0.5,7.8,0.8
			c10.5-0.2,11.7-0.5,26.8-0.1c-10.5,0.5,3.6,0.4-10.8,0.3c13.6,0.2,16.7,0.6,31.3-0.1c-5,0.7,10.2,0.8,16.7,0.6l-9.5-0.5
			c7.3-0.1,13.6,0,20.1,0l-3.5,0.9c27.9,1.1,50.2-1.8,71.4,0c7.4-0.6-15.1-0.4-8.5-1.1c12.8,0.1,26.2,1.4,30.2,1.4
			c17.6,0.5,16.4-1.3,34.7-0.9c-2.3-0.3-4.6-1.1,9.2-1.4c12.8,0.1,15.8,1.3,7.7,1.6c-3.1,0-4.6-0.1-4.4-0.2
			c-4.1,0.1-9.6,0.2-4.5,0.6l1.7-0.3c6.4,0.3,24,0.3,19.9,0.8c9.7-0.3,4.1-0.5-3-0.7c16.4,0.4,25.7,0,42.6,0.3
			c-2.7-0.2-5.2-0.5-2.5-0.5c24.8,0.4,10.9-0.6,27.8-0.7c9.6,0.5-3.4,1.1,13.5,0.7c10.3,0.3,2.2,0.8-1.9,1.1
			c15.4-0.6,28.8,0.4,37.6,0.5l-8.1,0.3c4.9-0.1,8.8-0.1,12.9-0.1l-4.6-0.6c4.8,0.1,8.8,0.1,8.7,0.4c4.9-0.4-3.8-1,6-1.6
			c6.4,0.3,19.4-0.3,21.6,0.5c-20-0.3,2.2,0.8-14.7,1c3.3-0.1,7.3-0.1,12,0c0.7,0.1-0.7,0.2-2,0.2c19.1,0.7,8.8-0.9,28.6-0.9
			c-2.5,0.5,4.6,0.9,7.8,0.8c-8,0-3.8-0.8,3.5-1.1c12.7,0.4,13.8-0.3,20.5-0.2l-7.6-0.2c2.6-0.5,8.9-0.4,17.8-0.5
			c0.8,0.4-8.1,0.2-4.9,0.4c9.8-0.8,22.3,0.8,36,0.3c6.4,0.3,0.6,0.9,6.2,1.1c15.4-0.6,16.7,0.6,32.8,0.1c-4.7-0.6-5.5-0.5,5.9-1.1
			l-26.6,0.4l17.1-0.9c-8,0-16.9,0.4-21.7,0.3c8.1-0.5,7.3-0.4,3.5-0.9c11,0.9,21.8-0.5,34.5,0.1l-0.4,1.5
			c19.1,0.7,33.9-0.8,58.7-0.4l-8-0.3c3.3-0.6,15.3-0.1,23.3-0.3c-0.7,0.5,4.3,0.7,7.7,1c-0.4-0.4,18.1,0,20.4-1l11.1,0.7
			c20,0.3,22.8-1.5,42.1-1.3c-5.8,0.6,2.9,0.9-9.9,1.3c6.4,0,12.2,0.1,12.3-0.3c3.8,0.3,17.8-0.7,23.7-0.2c2.7-0.2,3.6-0.8,10.8-0.7
			c0.8,0.1,0,0.3,0,0.3c0-0.3,11.3-0.3,5-0.9c19.8,1.6,55.3-0.1,72.5,1.3c14-0.1,30.9-0.3,43.6-0.4c-0.8,0.2,0,0.3-2.4,0.2
			c17.6,0.5,10.8-1.5,30.8-0.9c10.2,0.8-10.6,0.5-4.2,0.8c2.8,1.7,24.1-0.2,37.5,0.8l-3.3,0.1c10.3,0.6,25.1-0.6,41.9-0.5
			c0,0-0.8,0.2-0.1,0.3c11.5-0.9,33.2-1.2,49.4-1.4c-5,0.7-7.3,0.4-4.3,1c7.2-0.1-2.1-1.1,12.3-1.3c4.7,0.4,15.1,0.7,16.5,1.4
			l-13.6,0c7,0.9,17.6,0,24.8,0.1l-0.9,0.4c20.9-0.1,21.2-1.2,43.6-1.1l-2.3-0.3c12.3-1,10.3,0.6,22.5-0.2l3.7,1
			c8.1-0.2,28.4-1,42.9-1.2c-8.2,0.8-25.2,1.2-35.7,1.6c8,0,27.3-0.1,31.4-0.6c-3.2,0.1-7.3,0.4-10.5,0.2c4.9-0.4,10.6-0.7,17.1-0.9
			c3.2-0.1,6.7-0.2,10.3-0.3c3.7-0.2,7.6-1.1,11.3-2.8c-0.5,0.7,1.9,0.2,5.4-2.1c1.8-1.1,3.7-2.8,5.6-5c1.8-2.2,3.6-4.8,4.9-7.8
			c2.6-6,3.2-13.3,1.7-19.4c-1.3-6.1-4.4-10.7-6.2-13.3c-5.2-5.7-12.4-9.6-20.2-10.5c-4-0.4-7.4-0.2-11-0.3c-3.6,0-7.2-0.1-10.9-0.1
			c-14.6-0.2-29.8-0.4-46.3-0.3c11.7,1.6-9.6,0-7.6,1.6c-7.7,0.1-10.6,0.1-11.3,0l-23.3-1c-5.5-0.5,7.3-0.4,6.6-0.7
			c-16.8-0.1-7.1-0.7-18.2-1.1c2.3,0.6-5.8,0.8-15.4,0.6l13.5,0.7c-23.5,0.9-20.3-1.3-44-0.5l7.5-0.5c-12.1,0.3-44.8,0-56.7,1.3
			c-2.1-0.2-5-0.6,0.4-0.7c-29-0.2-64.6,1.4-87.2,0.6l2.2-0.4c-5.4,0.1-9.4,0.7-16.2,0.3c0.4-0.2,2.2-0.4-0.3-0.4
			c-2.9,0.1-14.4,0.7-21.6,0.5l6.1-0.4c-28.3-0.5-43.5,1.1-67.2,1.3c0.1-1.2-22.2-1.5-33.3-1.7l0.4-0.2c-33-0.1-56,1-86.5,1.4
			c-19-1.2-64.2-0.5-94.7-1.2c4.7,0.2-0.8,0.9-6.2,1c-7.1-0.2-19.8,0.8-18.6-0.3l2.5,0c-5.4-1-20.1-0.8-31.6-0.8l-1.9,1.4
			c-30-2-78.6,0.7-95-1.1c-7.2,0.3-16.2,0.3-23.4,0.7l0.4-0.7c-20.1-0.2-30.1-0.3-54.9-0.1l5.1-0.5c-14,0-17.7,2.1-30.6,2.2
			l-3.9-1.1c-24.4,0-49.1-1-73.2,0c0.4-0.2,1.1-0.5,5.1-0.5c-11.5,0-44.4-0.7-40.3,0.8c-0.3-1-25.2-0.1-38.4,0.3l2.1-0.7
			c-11.1,0.9-11.5,1.2-27,1.4c-3.7-0.1-3.2-0.6,1.7-0.4c-12.3-0.4-9.6,0.7-24.4,0.3l5.5-0.5c-12.6-0.1-11.6,0.2-18.6,0.7
			c-7.9,0.3-23.9-0.2-25.8-0.8c-1.7,0.4-8.6,0.9-16.1,0.7c-1-0.2,1.7-0.4,3.1-0.5c-21.1-0.5-31.4,0.8-45.9,0.1
			c-0.3-0.2-1.2-0.4-2.5-0.4c16.8,0,30.3,0.1,29,0.1c0-0.7-13.5-0.8-2.8-1.7c-10.9,0.5-29.5,1.6-42.7,1.3c-0.6-0.1-1.3-0.1-1.7-0.2
			l1.4-0.1c-3-0.1-5.8,0-8.3,0.1c-4.2-0.1-6.9-0.2-10.9-0.2c-1.6-0.6-15.5-0.3-22.3-0.3c0.6,0.7-8.3,0.6,0,1.2
			c-1.1-0.1,1.3-0.1,5.8-0.1c1,0,2.2,0,2.9-0.1c-0.1,0-0.3,0-0.5,0.1c4.4,0,10.2,0,16.8,0c-5.3,0.4-10.9,0.7-18.4,0.3
			c-3.5,0.5-7.3,1-9.4,1.2c-9.2-1-27.1-1.6-29.5-2.2c-20.6,0.4-48.6,0.3-61.5,1.7c-5.9,0.2-6.7-0.4-8.9-0.6c3.4-0.1,7.4-0.1,9.2-0.3
			c-11.7,0.4-34.7,0.1-37.5,1.1c-14.8-0.4,8.3-0.9-12-0.7l2.7-0.3c-39.9-1.5-64.9,2.5-109.2,0.5c3.1,0.1,4.6,0.2,5.2,0.3
			c-50.5-0.9-104,0.8-153.8-0.6c-14.2-0.3-15.7,0.3-24.3,0.8l-3.1-0.8l-14.8,0.9c-20.9,0.7-36.3-1.9-62.8-0.7l3.4,0.5
			c-9.5-0.1-30.2,0.3-28.6-0.3c-1,0.1-3.1,0.6-6.8,0.3L99,44.4l-23.4,0.7c-4.5-0.2-6.8,0-7.8,0c-1.1,0-1-0.2-1.2-0.4
			c-0.2-0.2-0.7-0.2-2.9,0.2c-2.1,0.6-6.2,1.5-11.7,6.2c-2,1.7-4.1,4.3-5.8,7.1c-1.7,2.8-2.8,6-3.4,8.8c-0.6,2.8-0.6,5.2-0.5,6.6
			c0,0.4,0,0.6,0.1,0.9c0,0.1,0,0.2,0,0.3l0,0.1c0.5,0,0.9,0,1.3,0l-1.2,0l0,0l0-0.1c0-0.1,0-0.2,0-0.3c0.1-2.1,0.4-4.7,1.1-6.7
			c0.6-2.1,1.4-3.5,1.7-3.6c-1.1,2.8-1.6,5.9-1.8,8.9c0.3,0.4,0.6,1.2,0.8,1.7c-0.3,0.1-0.4,0.1-0.7,0.1c0.4,0,1-0.1,1.8-0.1
			c0.1-0.2,0.2-0.4,0.2-0.7c0.2-0.6,0.3-1.4,0.6-2.5c0.1-0.5,0.3-1.2,0.5-1.8c0.2-0.7,0.5-1.4,0.8-2.2c0.3-0.8,0.7-1.7,1.1-2.6
			c0.5-0.9,1-2,1.7-3c2.1-4.1,5.4-7.6,9.4-10.1c1.4-0.5,2.9-1,4.4-1.3c-3.7,1.3-7,3.4-9.8,6.1c2.5-2.1,4.8-3.5,7-4.7
			c2.1-1.2,4.2-2,6.5-2.7c0.6,0.1,1.4,0.1,2.3,0.1c1,0.1,2,0,3.6,0.1l15.1-1.2c1.8,0.5-6.8,0.9,3.4,1.2c7.1-0.5-6.8-1.1,4.9-1.4
			c7.4,0.6,5.2,1,13.9,0.5c1.2,0.3-0.6,0.5-4,0.7c7.7-0.4,20.4-0.2,24.3-0.8c7.7,0.7,26-0.2,25.2,1c2.4-0.3,13.6-0.9,20.6-1
			c-12.9,1.4,26.5,0.1,23,1.6c9.6-1.2,34.5-0.6,51.4-1.2c-0.9,0.1-2.8,0.3-4.3,0.2c9.5,0.1,12.3,0.5,18.4,0.7
			c1.2-1,16.1-1.3,24.1-1.9c11.7,1-7.1,1.2-3.4,2.2c-0.6-0.8,20.3-0.8,16.3-1.5c8.9,0.6,7.7,0.3,12.3,1.1c1.6-1.3,8.3-0.2,15.7-1
			c12.9,0.6,3.3,1.2,17.5,0.8C355,49.7,342.3,50.1,342.3,50.1z M680,47.9L680,47.9c-2.9,0-5.4,0-7,0.1
			C674.4,47.9,676.5,47.9,680,47.9z M708.3,47.9c-3.5,0-7.8,0-12.3,0c-1-0.3,0.1-0.5,2.9-0.5C697.4,47.5,704.1,47.7,708.3,47.9z
			 M648.3,42.8c4.5-0.1,6,0,6.6,0.2c-2.1,0-4.6,0.1-7.9,0.1c-0.1,0-0.4,0.1-0.5,0.1C647,43,647.5,42.9,648.3,42.8z"/>
		<path class="st0" d="M640.2,43.8c-0.6,0-1,0-1.9,0.1c0.9,0.1,1.8,0.1,2.7,0.2c0.5-0.1,1.1-0.2,1.6-0.2
			C641.8,43.8,641,43.8,640.2,43.8z"/>
		<path class="st0" d="M591.6,104.6l0.6,0c-0.5,0-1-0.1-1.3-0.1C591.3,104.6,591.3,104.6,591.6,104.6z"/>
		<polygon class="st0" points="1100.1,49.3 1100.1,49.1 1097.6,49.3 		"/>
		<path class="st0" d="M435.3,102.1c-0.3-0.1-0.9-0.1-2.1-0.2C433.3,102,434.2,102,435.3,102.1z"/>
		<path class="st0" d="M367.8,101.9l-9.5-0.3C362.4,101.8,365.4,101.9,367.8,101.9z"/>
		<path class="st0" d="M315.9,101.6c-0.7,0.1-0.8,0.2-1,0.3c0,0,0.1,0,0.1,0L315.9,101.6z"/>
		<path class="st0" d="M1141.1,100.7c0.7,0,1.4,0,2,0C1147.8,100.5,1144.6,100.6,1141.1,100.7z"/>
		<path class="st0" d="M895.5,102.4c2.6-0.1,5.2-0.2,7.9-0.3C899.1,102,895.7,102,895.5,102.4z"/>
		<path class="st0" d="M1415.3,99.8C1415.3,99.8,1415.3,99.8,1415.3,99.8c0.6,0,1.1,0,1.7,0L1415.3,99.8z"/>
		<path class="st0" d="M914.8,102.1c-4.4-0.1-8-0.1-11.4,0C907,102.1,911.2,102.2,914.8,102.1z"/>
		<path class="st0" d="M91,101.2l-2.5,0c0,0-0.1,0.1-0.3,0.1L91,101.2z"/>
		<path class="st0" d="M88.2,101.3l-2.8,0.1C86.7,101.4,87.8,101.4,88.2,101.3z"/>
		<path class="st0" d="M79.5,101.6l5.8-0.2C83.4,101.4,80.9,101.4,79.5,101.6z"/>
		<path class="st0" d="M159.7,101.6l0.8-0.3C160,101.4,159.7,101.5,159.7,101.6z"/>
		<path class="st0" d="M180.5,101.5c-5-0.1-12.5-0.6-19.4-0.4l-0.6,0.2C163.7,100.9,175.8,102,180.5,101.5z"/>
		<path class="st0" d="M267.7,104.8l-17.5-0.2c3.1,0.3,7.1,0.7-0.9,0.7C271.4,106.2,244.8,104.7,267.7,104.8z"/>
		<path class="st0" d="M321.9,105.2c-9.4,0.1,0.1,0.4-0.4,0.6C327.5,105.5,329,105.5,321.9,105.2z"/>
		<path class="st0" d="M714,105.2l-0.9,0.7C720.3,105.8,713.1,105.6,714,105.2z"/>
		<polygon class="st0" points="788.9,101.8 781.9,101.3 778.5,102 		"/>
		<polygon class="st0" points="833.2,106.5 830,106.6 842.1,106.4 		"/>
		<path class="st0" d="M1491.6,106.3l-2.2-0.8C1484.5,105.6,1483.5,106.5,1491.6,106.3z"/>
		<path class="st0" d="M1775.8,105.5c3.1,0.4,11.1,0.7,16,0.3C1785.5,105.7,1779.1,105.3,1775.8,105.5z"/>
		<polygon class="st0" points="1175.5,42.7 1181.2,42.4 1170.4,42.6 		"/>
	</g>
	<g>
		<path class="st0" d="M1121.9,58.5l-0.7-5c-0.7-1.2-2.2-0.5-1.9,2.7L1121.9,58.5z"/>
		<path class="st0" d="M1116.4,75.1c1.3,3.8,3.5,8.1,5.9,5.7c-2.5-3.7-1.5-4.6-4.4-8.6c-0.3-3.2,0.8-5.6,1.8-5.1
			c-0.7-1.1,0.6-5-1.1-6.7c-2,4.2-2.1,9.5-0.4,15C1117.6,76.5,1116.9,75.4,1116.4,75.1z"/>
		<path class="st0" d="M1098.8,107.8c1.1-0.1,2-0.4,2.8-0.7c-0.9,0.1-1.8,0.2-2.6,0.3C1099,107.6,1098.9,107.7,1098.8,107.8z"/>
		<path class="st0" d="M1039.9,43.2c-0.1,0.2,0,0.3,0,0.4C1040.3,43.4,1040.4,43.2,1039.9,43.2z"/>
		<path class="st0" d="M1097.1,107.5c-0.9,0-1.8,0-2.7,0C1095.7,107.6,1096.5,107.6,1097.1,107.5z"/>
		<path class="st0" d="M871.6,46.3c-0.9-1.6,7.4-2.1-2.6-2C870.3,44.9,871,45.6,871.6,46.3z"/>
		<path class="st0" d="M1098.8,106.6c-0.3,0.6-0.8,0.8-1.7,1c0.6,0,1.3-0.1,1.9-0.1C1099.2,107.1,1099.2,106.8,1098.8,106.6z"/>
		<path class="st0" d="M345.2,112.2l-8.9-0.3C338.8,112.1,342.1,112.2,345.2,112.2z"/>
		<path class="st0" d="M467.7,44.3c-0.8-0.1-1.5,0-2.1,0.3L467.7,44.3z"/>
		<path class="st0" d="M309.8,112.2c-1.6-0.8-3.3-1.2-5-1.5c-0.4,0.2-0.8,0.3-1,0.6L309.8,112.2z"/>
		<path class="st0" d="M1120.3,90c-0.1-0.9-0.3-1.7-0.5-2.2c-0.3-1.1-0.7-1.8-1.2-2.3c-0.2,1.1-0.4,2-0.6,3.1c0.5-0.9,1.7,0.2,2,2.1
			c0.8,3.8,0.6,6.7,0.2,8.2c-0.5,1.5-1.3,1.7-1.7,1.6l-0.5-5.2c-1.5,1-1.9,3-1.8,6.1c-2.6,0.1-5.4,0.7-8.8,1.3
			c-0.9,0.1-1.7,0.3-2.6,0.4c-0.9,0.1-1.7,0.2-2.5,0.3c-1.5,0.2-3,0.3-4.3,0.2l2.8-2.7h15.1V57.4c0.1-0.1,0.1-0.2,0-0.3v-3.5h-0.8
			c1.2-3.4,4-6.9-8.2-9.3l-9.1,2.2l-2.9-1.8l7.6-0.1c-4.3-1.7-7.1-0.2-10.1,0.8c-0.7-0.9-2-1.6-3.8-2l-8.9,3.5c-1.1-1.4,4-2.8-2-3.6
			c-4.2,1.6,4,3.2-2.9,4.3c-4.3-1.7-3.1-3-8.2-1.6c-0.7-0.9,0.4-1.5,2.4-2c-4.5,1.1-12,0.5-14.3,2.4c-4.5-2-15.3,0.5-14.8-2.9
			c-1.4,0.8-8,2.7-12.1,2.9c7.6-4.1-15.6-0.2-13.6-4.7c-5.6,3.7-20.3,1.7-30.3,3.7c0.6-0.3,1.7-0.9,2.5-0.7
			c-5.6-0.3-7.2-1.4-10.8-2.1c-0.7,3.1-9.5,3.8-14.2,5.7c-6.9-3,4.2-3.6,2-6.5c0.3,2.5-11.9,2.5-9.6,4.6c-5.3-1.8-4.5-0.9-7.2-3.4
			c-0.9,3.8-4.9,0.7-9.3,3c-7.6-1.9-2-3.6-10.3-2.4c-4-1.2,3.5-2.5,3.5-2.5c-8.5-0.1-4,2.8-5.8,4.5c-10.2,0.8-4.7-2.1-8.2-3.6
			c-6.3,0.8-11.2,3.4-15.9,3.3c-0.4-0.5-1.3-0.7-0.2-1.2c-6.7,2.3-19.9,0.1-27.7,3c-0.6-0.3-0.9-0.5-1-0.7c1.3,1.5,1.5,2.9,1.2,4
			c-3.8,0-7.1,1.8-8.5-0.1c2.3,0.1,2.5-0.7,3.6-1.3l-4,0.8c-3.6-2.7,5.5-0.9,5.5-3c-7.8,0.9-16.9,3.1-22.9,2.4
			c-1.2-2.7,14-0.9,6-3.3l9.2,1c-7.1-4.2,5.6,0.3-0.9-4.2c-12.2-0.8-13.6,1.4-25.7,0.6c-2.7,1.5,0.9,2.2-1.8,3.7
			c-17.2,2.7-13.6-6.7-26.3-3.2c-3.3,1.8-4.6,5.1-13.6,3.4l3.1-3c-11.8-0.3-6.7,4.3-19.1,2.3c2.2-1.2,9.3-1,7.5-1.4
			c-8-2.4-5.7,1.7-11.8,1.7l-1.3-2.7c-12.5,0.4-26.4,2.3-40.2,2.8c0.8-0.8,3.1-1.6-0.1-2.4c-17.5,1.3-37.4-0.3-54.3-1.9l-6.5,2.3
			c-1.5,0-2.8-1-1.2-1.5c-6.6-0.9-0.3,1.5-3.5,2.4c-3.7,0.2-4.9-1.3-2.6-2c-11.6,2-33.1,4.2-45.3,1.7l2.4-0.7
			c-9.5-0.9-10.8,4.7-19.6,2.6l1.7-0.4c-20.7-1-43.6,1.1-59.3-2.4c-3,3.3-20.5-1.5-21.8,3.1c-11.8-2.3-8.4-3.1-25.1-4.7
			c-4.4-0.2-6.6,2.9-12.1,3.4l-0.1-2.4l-7.5,2.5l-4-2.9l-5.2,0.6c2.1,0.1,4.4,1.1,4.1,1.8c-8,1.1-19.6-1.7-19.8-2.9l-19,2
			c0.3-0.7,2.2-1.1,4.2-1.5c-7.1,1.4-0.6-2.8-9.3-0.7c1.2,0.5-0.7,1.4-0.9,1.9c-4.6-1.5-15.2-1.5-23-0.9l1.5-1.7
			c-14.1-0.4-29.8,0.8-45.6,0.8c5.7,0.8,4.4,3.7-0.3,3.9l-1.9-2.6c-3,1.6,4.9,1-1.3,2.9c-5.9-0.3-4-2.9-0.6-3.7l-7.2,0.9
			c-0.4-0.8,1.3-1.2,1.7-2.1c-3,1.6-12.4-2.6-16.7,0.2l-0.4-0.8c-15.8,0-23,0.9-35.9,1c-0.3,2.2-5.3,1.7-9.1,3.5
			c-9.5-0.7-20-2.4-31.4-2.3c-8,1.1-2.3,1.9-6,3.2c-0.6-2-12-1.8-6.1-3.3c-13.7,0.3-17.5,0.4-34.9,2c1.9,0.8,4,1.2,2.9,1.9
			c-3.1,0.3-7.2-0.8-6.7-1.8l0.8-0.2c-19.5,3-44.9-5.9-60.5-1.7l0.9-0.2l-16.1,2.2c-7.4-0.3,4.4-1.5-1-2.8
			c-4.3,0.8-8.2,1.2-11.8,1.4c-3.7,0.2-7.2,0.1-10.5,0.1c-6.7,0-13.1,0.2-20.4,2.3C81.2,45.2,70.8,46.9,60,51
			c-2.7,1-5.4,2.2-8.2,3.6c-1.4,0.7-2.7,1.5-4.1,2.3c-0.8,0.5-1.6,1-2.3,1.5c-0.9,0.7-1.8,1.3-2.7,2c-3.5,2.7-6.3,6-7.9,9.5
			c-1.7,3.5-2.4,7.1-2.3,10.5c0.4-0.6,0.8-1.1,1.2-1.6c1,3.2,1.6,4.9,1.9,6.7c0.4,1.7,0.6,3.4,2.2,5.5c0.2-0.6-0.7-2.2-1.1-3.3
			c-0.4-1.2-0.4-1.7,1-0.2c2,2.8,4.6,5.2,7.6,7.1c0.7,0.5,1.5,1,2.1,1.4c0.6,0.3,1.1,0.7,1.7,0.9c1.1,0.6,2.2,1.1,3.3,1.7
			c4.4,2,8.7,3.6,13.1,4.9c8.7,2.7,17.4,4.6,26.2,6.1c8.8,1.5,17.7,2.5,26.6,3c8.5,0.5,16.9,1,25.3,1.3c12.3,0.4,7-7.2,22.4-3.9
			l-4.4,2.6c24.7-3.1,50.6,0.1,74.8-2.5c-1.4,0.6-1.5,1.4-3.8,1.4c5.1,1.9,18.9,0.1,19-1.4c3.8,0.2,0.9,1.4,3.2,2.2
			c5.1,1.1,12.9-2.4,15.6-0.5c0.3,0.2-0.4,0.4-1.2,0.6c4.4-0.5,14.1,0.2,11.2-1.7c9.1,1,17.4-1,24.6,0.3c4.7-2.4,15.6,1.2,17.1-2.3
			c-0.7,3.6,15.9,2.9,21.7,1.2c-1.9,1.1,5,1.1,2.7,2.6c6.6,0,12.6-0.7,11.4-2.5c12.1,4.2,24.3-3.4,31.1,2c19.5-1.9,37.5-3.2,55-4
			c-0.6,3.5-19.4,0.4-18.6,4.1c16.6-1.5,26.2-4.5,42.7-3.6c4.3,0.5-2.4,1.5-3.9,2.1c16.6-1.5,32.1,0.3,46.9-1.6c0,0.3-1.6,0.7-3.1,1
			c2.9-0.1,6.8,0.5,6.4-1.1l-2.8,0.4c-4.6-2.3,11.6-4.9,12.1-6.1c-4.9,4.6,14.6,1.2,6.7,7c1.9-0.3,4.3-1.1,3.9-2.1
			c2.8,0.3,3.7,0.9,0.9,2.2c10.4-0.9,6.7-2.6,16.2-2.6c0,0.8-1.9,1.1-2.9,2c4.8-1.5,9.6-3,17.6-2.4c-0.4,0.4,0.2,0.9-1.1,1
			c13.2-0.4,22.8-4,37.5-2.5c-4.4,3.4,5.1,1.1,5.9,4l8.1-0.9l-3.2-1.4c7.1,0.1,13.3-2.1,19.4-1.1l-5.3,1.2l13.3-0.6l-7.5-1.1
			c7.2-1.5-0.8-3.7,8.7-2.9c-1.9,0.3,7.1,0,10.8,1.8l0,0c3.5-0.9,7.1-1.9,12.4-1.2c1.4,0.9-1.1,3.2-0.2,3.9c3.5-2.4,16.6-0.7,21-3.3
			c-1.5,0.6-1.5,2.2-1.1,2.5l2.9-2c3.3,0.6,3.8,0.9,3.2,2.2c9.9,0.4-3.1-3.7,8.6-2.1c-0.9,0.2-0.5,0.5-2.4,0.8
			c11.8,0.8,22.7-1.3,33.6-0.3c3.2,2.9-9.4,0.7-5.8,3.2c15.6-0.5,32.3-3.5,47.4-2.8l-2.8-0.3c2.1-4.2,11.2,2.1,18.9,0.1
			c-1.9,0.3-2.4,2.3-1.9,1.8c10.3,0.7,21.1-1,36.8-2.3l-1.9,1.1c6.1,1,16,0.6,22.6,1c2-1.1,5.7-0.9,3.4-2.4
			c20.3,6.1,38.7-3.3,56.7,1.8c-2.2,0-5.1,0.9-3.4,0.9l15.3-1c-1.2-1.8-2-1.1-5.2-2.5c1.9-1.1,6.3-1.9,10.1-1.9
			c-6.9,1.2,0.1,2.9,3,3.9c-0.5-0.6,0.5-1.2,0.3-1.7c8,3.2,1.3-3.6,12.3-1.5l-0.6,1c4.1-0.5,7.9-1.7,12.3-1.5c1.8,2.1-4.4,1-4.6,2.7
			c6.2-0.1,12.2-4,17.8-1.9c-2.6,0.6-6.4,0.6-9.1,1.2c6.1,2.5,6.8,1.8,11.4,2.2l-0.4-0.1l10.5,1.1l-2.7-0.7c7.8-5.5,15.8-1,26.2-4.6
			c-10.2,3.4-1.7,2-2.5,4.3c2.7,0.7,6.7,1.4,5.6,2.1c4.9-1.9,8.2,1.5,15.2-1.3c0.3,0.8,5.3,0.1,4.2,2c6.4-0.6-1.5-1.3-1-2.3
			c9.9-2.6,23.3,3.2,37.5-0.4c11.3-1.4,14.1-3.6,23.3-5h3.4c1.8,1.2-3.9,2.4-3.9,2.4c6.2,1.1,10.9,0.9,16.7,0
			c-1.2,0.7,0,1.2,1.8,2.1c2.3-0.1,3.1-0.8,4.1-1.3c0.5-0.3,1-0.5,1.8-0.6c0.8-0.1,2.2,0,4.1,0.2c-0.5,0.4-1.2,1-2.2,1.5
			c-0.5,0.3-1.1,0.6-1.7,0.8c-0.5,0.3-1,0.5-1.5,0.7l1.8-0.3l2.5-0.3c1.6-0.2,3.2-0.4,4.8-0.7c2.9-0.4,5.7-0.9,8.7-1.3
			c-0.1-1.1-0.2-2.2-0.3-3.3c0.8-0.5,1.4,1.8,1.9,4.9c-1.2,0.3-2.7,0.6-3.6,1c1.3-0.1,2.8-0.2,4.3-0.3c-0.3-4.8-0.6-9.9-1.1-14
			C1120.6,91.9,1120.5,90.9,1120.3,90z M731.7,47.7c1.7-0.1,3.2-0.1,4.1-0.1C734.9,47.6,733.7,47.6,731.7,47.7
			C731.7,47.7,731.7,47.7,731.7,47.7z M722.2,47.8c0.6,0.8,0,1.5-1.7,1.5c0.9-0.5-3-0.9-5.5-1.6C717,47.8,719.5,47.8,722.2,47.8z
			 M881.1,103c-0.2-0.5-0.4-1.2-0.2-1.9h5.6C886.1,101.9,884.6,102.6,881.1,103z M1049.2,103l-2.3-1.9h6.7
			C1053.1,101.7,1051.9,102.3,1049.2,103z M1093.1,103.2c-1.1-0.5-1.9-1.4-1.6-2.1h8.1L1093.1,103.2z"/>
		<path class="st0" d="M1118.2,88.7c-0.1,0.2-0.2,0.6-0.2,1.2C1118,89.5,1118.1,89.1,1118.2,88.7z"/>
		<path class="st0" d="M564.6,108c-0.3,0-0.6,0-0.9,0C564.1,108,564.4,108,564.6,108z"/>
		<path class="st0" d="M437.1,43.7c0.2,0,0.4-0.1,0.7-0.1C437.6,43.6,437.3,43.7,437.1,43.7z"/>
		<path class="st0" d="M437.8,43.6c0.4-0.1,0.8-0.2,1.3-0.3C438.6,43.4,438.2,43.5,437.8,43.6z"/>
		<path class="st0" d="M269,112.1c-0.5,0.1-0.9,0.1-1.2,0.2C268.1,112.3,268.5,112.2,269,112.1z"/>
		<polygon class="st0" points="484.3,43.5 484.3,44.1 485.7,43.6 		"/>
		<path class="st0" d="M923.3,105.4c0.2,0.2,0.5,0.4,1.2,0.6C924.5,105.9,923.9,105.7,923.3,105.4z"/>
		<path class="st0" d="M963.1,105.9l5.6,0.8C966.3,106.3,964.5,106.1,963.1,105.9z"/>
		<path class="st0" d="M993.6,107c0.4-0.4,0.5-0.7,0.6-0.9l-0.1,0L993.6,107z"/>
		<path class="st0" d="M507.7,109.6c-0.4,0-0.8,0-1.2,0.1C503.8,110.1,505.6,110,507.7,109.6z"/>
		<path class="st0" d="M652.3,104.5c-1.5,0.4-3,0.8-4.6,1C650.2,105.7,652.2,105.7,652.3,104.5z"/>
		<path class="st0" d="M346.2,112.3C346.2,112.3,346.2,112.2,346.2,112.3c-0.3,0-0.6,0-1,0L346.2,112.3z"/>
		<path class="st0" d="M640.9,105.5c2.6,0.4,4.7,0.3,6.7,0C645.5,105.4,643.1,105.1,640.9,105.5z"/>
		<path class="st0" d="M1122.6,89.9l0.3,2.6l0.1-2.3C1122.8,90.2,1122.7,90.1,1122.6,89.9z"/>
		<path class="st0" d="M1122.3,87.8c0,0.6,0,1.8,0.3,2.1l-0.1-1.2C1122.4,88.2,1122.4,88.1,1122.3,87.8z"/>
		<path class="st0" d="M1121.8,84.3l0.6,3.4C1122.3,86.6,1122.4,85.1,1121.8,84.3z"/>
		<path class="st0" d="M1085.6,107l-0.5,0.8C1085.4,107.6,1085.6,107.4,1085.6,107z"/>
		<path class="st0" d="M1073.3,107.2c2.9,0.2,7.4,1.7,11.4,1.2l0.4-0.6C1083.2,109,1076.1,105.9,1073.3,107.2z"/>
		<polygon class="st0" points="719.2,107.7 721.2,105.9 715.1,106.5 		"/>
	</g>
</g>
</svg>
