<?xml version="1.0" encoding="utf-8"?>
<!-- Generator: Adobe Illustrator 25.2.1, SVG Export Plug-In . SVG Version: 6.00 Build 0)  -->
<svg version="1.1" id="Layer_1" xmlns="http://www.w3.org/2000/svg" xmlns:xlink="http://www.w3.org/1999/xlink" x="0px" y="0px"
	 viewBox="0 0 2396.6 154.9" style="enable-background:new 0 0 2396.6 154.9;" xml:space="preserve">
<style type="text/css">
	.st0{fill:#202020;}
</style>
<g>
	<g>
		<path class="st0" d="M48.7,76.9c-0.1-2-1.3-0.8-0.4,4.4c0.5,1.2,1.4,2.3,2,3.4C49.3,82.2,48.8,79.6,48.7,76.9z"/>
		<path class="st0" d="M71.9,104.3c3.9,0.8,8.1,0.7,10.8,0.4s3.6-0.7,1.1-1.1c-2,0.2-3.4,0.2-4.8,0.3c-1.4-0.1-2.5-0.1-3.8-0.3
			c-2.4-0.4-4.9-0.6-8.9-1.7c-6-2.4-9-5.8-8-5.3c-0.9-0.6-2.6-2.1-4.1-3.8c-0.8-0.9-1.5-1.8-2.1-2.7c-0.6-0.9-1.1-1.7-1.8-2.3
			c1.3,3.3,3.9,6.8,7.8,9.7c3.9,2.9,8.9,5.3,14.5,6.3C74.9,104.5,72.6,104.3,71.9,104.3z"/>
		<path class="st0" d="M736.4,107l-4.3-0.1C733.2,106.9,734.7,106.9,736.4,107z"/>
		<path class="st0" d="M1148.1,107.4c-3.1,0-4.5,0.1-4.6,0.2C1146.5,107.6,1148.9,107.5,1148.1,107.4z"/>
		<path class="st0" d="M1218.5,108.4c-1.5,0-2.8,0-4.1-0.1C1215.9,108.4,1217.5,108.4,1218.5,108.4z"/>
		<path class="st0" d="M736.4,107l11,0.3C748.1,106.9,741.7,107,736.4,107z"/>
		<path class="st0" d="M163.3,103.5c-2.3,0-4.3,0.1-6,0.2c1.9,0,3.8-0.1,5.6-0.1C163.1,103.6,163.2,103.6,163.3,103.5z"/>
		<path class="st0" d="M554.8,107.7h-3.4c-1,0.1-1.9,0.2-2.8,0.4L554.8,107.7z"/>
		<path class="st0" d="M415.5,107.8c3.1,0,4.3-0.7,5.5-1c-1.8,0.3-4.1,0.4-6.9,0.5C414.1,107.4,414.5,107.6,415.5,107.8z"/>
		<path class="st0" d="M194.6,106.5l-3.9,0.1C191.7,106.6,193.4,106.5,194.6,106.5z"/>
		<path class="st0" d="M654.5,107.8c0.2,0.1,0.8,0.2,1.3,0.3C655.8,108,655.3,107.9,654.5,107.8z"/>
		<path class="st0" d="M187.4,51.6C187.6,51.5,187.4,51.5,187.4,51.6C186.7,51.5,186.4,51.6,187.4,51.6z"/>
		<path class="st0" d="M46.4,76.9h-0.3l0,0l0,0l0,0l0,0l0,0l0,0l0,0v-0.1v-0.1v-0.2V76v-0.9c-0.1-0.2-0.4-0.4-0.5-0.4l0.3,1.1
			l0.1,0.6v0.3v0.1v0.1l0,0l0,0l0,0l0,0l0,0l0,0l0,0H46.4z"/>
		<path class="st0" d="M1347.1,109.3c-0.2,0-0.4,0-0.6,0C1343.1,109.4,1345.1,109.4,1347.1,109.3z"/>
		<path class="st0" d="M2210.3,45.1c13.4,0.7-21.8,0.8-1.6,1.6C2206.8,46.4,2227,45.5,2210.3,45.1z"/>
		<path class="st0" d="M166.9,103.6c1.9,0,3.8,0,5.8,0C170.1,103.6,168.3,103.6,166.9,103.6z"/>
		<path class="st0" d="M2208.7,46.7L2208.7,46.7l2.1,0.1C2209.8,46.7,2209.5,46.7,2208.7,46.7z"/>
		<path class="st0" d="M1643.7,108.9c-0.6-0.1-1.8-0.2-3-0.3C1640.7,108.6,1641.4,108.7,1643.7,108.9z"/>
		<path class="st0" d="M1422.8,107.8l5.5,0.1C1426,107.9,1424.3,107.8,1422.8,107.8z"/>
		<path class="st0" d="M1758.3,107.8c3,0.1,4,0.2,8,0.1c-0.4,0-0.8-0.1-1.3-0.1C1763.7,107.9,1761.7,108,1758.3,107.8z"/>
		<path class="st0" d="M1877.7,107.8c-0.6,0-1.5-0.1-2.3-0.1c-1.1,0-2.6,0-3.8,0L1877.7,107.8z"/>
		<path class="st0" d="M550.2,51.2c-2.6-0.2-4.3-0.4-5.5-0.7C546.6,51.1,529,51.3,550.2,51.2z"/>
		<path class="st0" d="M163.4,103.9c0.8-0.2,1.8-0.3,3.5-0.3c-1.4,0-2.6,0-4,0C162.7,103.8,162.6,103.9,163.4,103.9z"/>
		<path class="st0" d="M1763.2,102l19,0.1C1776.8,102.1,1769.9,102.1,1763.2,102z"/>
		<path class="st0" d="M1406.5,51.1l-4.4,0.1C1403.9,51.2,1405.4,51.2,1406.5,51.1z"/>
		<path class="st0" d="M1838.4,102c3.4,0.3,7,0.4,10.6,0.5c0.8-0.1,1.6-0.1,2.3-0.2L1838.4,102z"/>
		<path class="st0" d="M544.7,50.6L544.7,50.6L544.7,50.6z"/>
		<path class="st0" d="M419.7,52.3c18.1,0,8.5-0.9,12.4-1.5c21.6-0.3,10,0.7,17.4,1.2c13.5-0.3,23.8-1.1,33.9-1.1
			c0.8,0.2,2.8,0.2,0.4,0.4c14.3-0.8,42.3,0,58.9-1c1.3,0.1,1.9,0.2,2.1,0.2c-2.6-0.5-3.1-1-2.5-1.3c8.1,0,15-0.6,18.1,0
			c-5,0-5.4,0.2-7.8,0.4l8.5-0.3c7.6,0.9-11.6,0.3-11.6,1c16.5-0.3,35.9-1,48.5-0.8c2.6,0.9-29.6,0.3-12.8,1.1l-19.6-0.2
			c15,1.4-11.9-0.1,1.9,1.4c25.9,0.3,28.9-0.5,54.6-0.2c5.8-0.5-1.9-0.7,3.9-1.2c36.6-0.9,28.9,2.2,55.8,1.1c7-0.6,9.6-1.7,28.9-1.1
			l-6.5,1c25,0.1,14.3-1.4,40.5-0.8c-4.6,0.4-19.6,0.3-15.9,0.5c17,0.8,12-0.6,25-0.6l2.8,0.9c26.6-0.3,56-0.6,85.4-0.9
			c-1.6,0.3-6.6,0.5,0.2,0.8c37.1-0.4,79.4,0.1,115.3,0.6l13.8-0.8c3.1,0,5.9,0.3,2.5,0.5c14,0.3,0.8-0.5,7.5-0.8
			c8-0.1,10.5,0.4,5.5,0.7c24.6-0.7,70.3-1.4,96.3-0.6l-5.1,0.2c20.3,0.3,22.9-1.6,41.6-0.9l-3.6,0.1c43.9,0.3,92.5-0.4,126,0.8
			c6.4-1.1,43.5,0.5,46.3-1c25.1,0.8,17.9,1,53.3,1.6c9.4,0.1,14-1,25.8-1.1l0.2,0.8l15.9-0.8l8.4,1l11-0.2c-4.4,0-9.3-0.4-8.6-0.6
			c8.5-0.2,19,0,27.3,0.2c8.4,0.2,14.6,0.6,14.8,0.8l40.4-0.7c-0.9,0.3-7.6,0.4-13,0.6c21.6-0.8,3.9,0.8,23.8,0.1
			c-2.6-0.2,1.4-0.5,1.9-0.6c9.9,0.5,32.3,0.5,48.9,0.3l-3.1,0.6c30,0.1,63.3-0.3,96.9-0.3c-12.1-0.3-9.3-1.2,0.6-1.3l4,0.9
			c6.4-0.5-10.3-0.3,2.8-1c12.6,0.1,8.5,1,1.3,1.2l15.3-0.3c0.9,0.3-2.6,0.4-3.6,0.7c6.3-0.5,26.4,0.9,35.4-0.1l0.9,0.3
			c33.6-0.1,48.9-0.2,76.3-0.3c0.5-0.7,11.3-0.6,19.4-1.2c20.1,0.2,42.5,0.8,66.8,0.8c17-0.4,5-0.6,12.6-1.1
			c1.3,0.7,25.5,0.6,12.9,1.1c29.1-0.1,37.3-0.1,74-0.7c-4-0.3-8.5-0.4-6.1-0.6c6.6-0.1,15.3,0.3,14.3,0.6l-1.8,0.1
			c41.4-1,95.4,2,128.4,0.6l-1.9,0.1l34.1-0.7c15.8,0.1-9.4,0.5,2.3,0.9c36.9-1.1,58.1,0.2,88.5-0.6c11.8,1,32.5,1,54.4,0.8
			c10.9,0,22.1-0.1,32.5-0.1c5.3,0,10.3,0.1,15,0.1c1.1,0,2.4,0,3.5,0.1c1,0.1,2,0.1,2.9,0.2c1.9,0.2,3.6,0.5,5.3,1l-1.4-0.8
			c1.8,0.2,3.3,0.5,4.4,0.9c1.1,0.3,2.1,0.8,2.9,1.2c0.9,0.4,1.6,0.8,2.4,1.3c0.9,0.4,1.6,1,2.6,1.7c-0.2-0.8-6.3-3.7-2.3-2.1
			c6.6,3.2,11.8,8.4,14.1,14.5c2.4,6,1.6,12.8-1.9,18.5s-9.8,10.4-17.3,12.7c-3.8,1.2-7.8,1.8-11.8,1.7l-13.5-0.1
			c-36-0.3-72.3-0.6-107.8-0.9c-26-0.1-14.8,2.4-47.5,1.3l9.3-0.9c-52.5,1-107.4,0-158.8,0.8c3.1-0.2,3.1-0.5,8.1-0.5
			c-5.4-0.3-15.5-0.3-24.1-0.2c-8.8,0.1-16.1,0.4-16.1,0.7c-8-0.1-1.9-0.5-6.8-0.7c-10.9-0.4-27.4,0.8-33.1,0.2c-1-0.1,3-0.2,5-0.3
			c-7.1,0.3-33-0.1-26.3,0.6c-19.3-0.3-36.9,0.3-52.3-0.1c-10,0.8-33-0.4-36.3,0.8c1.4-1.2-33.8-1-46-0.4c4.1-0.4-10.6-0.4-5.9-0.9
			c-13.9,0-26.6,0.2-24.3,0.8c-25.6-1.4-51.5,1.1-66-0.7c-41.4,0.6-79.6,1.1-116.8,1.3c1.4-1.2,41.1-0.1,39.5-1.4
			c-35.3,0.5-55.6,1.5-90.6,1.2c-9-0.2,5.1-0.5,8.3-0.7c-35.3,0.5-68.1-0.1-99.5,0.5c0.1-0.1,3.5-0.2,6.6-0.3
			c-6.1,0-14.4-0.2-13.6,0.4l6-0.1c9.9,0.8-24.5,1.6-25.6,2c10.5-1.5-31-0.4-14.4-2.3c-4.1,0.1-9.1,0.4-8.3,0.7
			c-6-0.1-8-0.3-1.9-0.7c-22.1,0.3-14.3,0.9-34.4,0.9c0.1-0.3,4.1-0.4,6.3-0.7c-10.1,0.5-20.4,1-37.3,0.8c1-0.2-1-0.4,4.1-0.4
			c-29.1,0.1-49.6,1.3-81.5,0.9c9.4-1.1-10.9-0.4-12.5-1.3l-17.1,0.3l6.9,0.5c-15,0-28.4,0.7-41.3,0.4l11.1-0.4l-28.3,0.2l16,0.4
			c-15.3,0.5,1.6,1.2-18.4,1c4.1-0.1-15,0-22.9-0.6l0,0c-7.5,0.3-15.1,0.6-26.3,0.4c-2.9-0.3,2.4-1.1,0.5-1.3
			c-7.4,0.8-35.3,0.2-44.5,1.1c3.1-0.2,3.3-0.7,2.3-0.8l-6.1,0.7c-7-0.2-8-0.3-6.9-0.7c-21-0.1,6.6,1.2-18.3,0.7
			c2-0.1,1-0.2,5.1-0.3c-25-0.3-48.3,0.4-71.3,0.1c-6.8-1,20-0.2,12.3-1.1c-33.1,0.2-68.5,1.2-100.6,0.9l6,0.1
			c-4.5,1.4-23.9-0.7-40,0c4-0.1,5.3-0.8,4.1-0.6c-22-0.2-44.9,0.3-78.1,0.8l4.1-0.4c-12.9-0.3-34-0.2-48-0.3
			c-4.1,0.4-12.1,0.3-7.3,0.8c-43-2-82.1,1.1-120.4-0.6c4.6,0,10.9-0.3,7.3-0.3l-32.5,0.3c2.6,0.6,4.3,0.4,11.1,0.8
			c-4.1,0.4-13.3,0.6-21.4,0.6c14.6-0.4-0.1-1-6.5-1.3c1,0.2-1.1,0.4-0.6,0.6c-17-1.1-2.9,1.2-26,0.5l1.3-0.3
			c-8.6,0.2-16.8,0.6-26,0.5c-3.9-0.7,9.3-0.3,9.9-0.9c-13.1,0-26,1.3-37.9,0.6c5.6-0.1,13.6-0.3,19.3-0.4
			c-13-0.8-14.5-0.6-24.1-0.7h1l-22.3-0.4l5.6,0.2c-16.5,1.8-33.5,0.3-55.8,1.5c21.5-1.1,3.6-0.7,5.3-1.4
			c-5.6-0.2-14.3-0.5-11.9-0.7c-10.5,0.6-17.5-0.5-32.3,0.4c-0.6-0.3-11.3,0-8.9-0.7c-13.6,0.2,3.3,0.4,2.1,0.8
			c-21,0.9-49.4-1.1-79.6,0.1c-26,0.5-30.9,1.4-55,1.8c-8.1-0.4,6.6-0.9,6.6-0.9c-13.1-0.4-23.1-0.3-35.5,0c2.5-0.2-0.1-0.4-3.9-0.7
			c-10,0.1-6.6,0.9-19.8,0.6c2.3-0.3,5.1-0.7,10-1c-11.8,0.3-23.4,0.6-35.5,0.9c-3.3-0.4,7.4-0.7,11.6-1
			c-13.6,0.2-35.4,0.4-39.6,1.1l8.8,0.3c-5,0-2.5-0.6,1.1-0.7c11.8-0.6,16.9,0.2,17.5,0.5l-8.6,0.2c8.9,1.5,34.8-0.2,52.1-0.2
			l-7.3,1.1l17.9-0.9c3.8,0.3,6.4,0.9-2.3,1.1c12.5,0.5,11-0.4,21.8,0.2c1.1,0.1,0.6,0.1-0.5,0.2l12.3-0.3c-2.4,0.2,2,0.8-5.5,0.6
			c21.9,0.6,35.3-0.8,43.5,0l-1.9,0.1c30.4-0.4,2.9-0.8,25.8-1.7l15.4,2l3-0.8c3.1,0,9.4,0.1,8.1,0.4c11.6-0.5-2-0.3,4.8-0.9
			c15.1,0.7,41.6-0.3,45,0.9c5.4-0.6-14.4-0.5,1.6-0.9c4.6,1.4,18.6-0.2,32.4,0.4c-4.3,0.7-17.3,0.3-3.5,1c8.4-1.2,26.9,0.3,38.5,0
			c0.5-1,25.3-0.4,44.8-0.7c-1.3,0.3,36.8,0.5,54.9,0.9l-0.5,0.2c3.5-1,22.3-0.8,35.9-1c-0.5,0.6-3,0.8-10.4,1.1h12.8
			c3-0.3,7-0.5,15.4-0.6l-3.3,0.7c17,0,34.4-0.8,56.3-0.4c1.3-0.7-17.5-1.9,5.8-2.3c0.9,0.4,1.8,1-4.4,1.1c2,0,7.1-0.3,11.1-0.1
			l-9.3,0.6c10,0.3,5.3-0.5,13.3-0.5c-0.1,0.5,5.9,0.4,4.8,0.8c-2,0-7-0.2-10,0c9,0.1,19.9,0.4,23.5,0.8c-0.8-0.3,0-0.7,6.6-0.8
			c17,0,5.9,0.6,15.8,0.9c4.1-0.4,15,0,15.3-0.8c5,0,5.9,0.4,7.9,0.6c8.9-0.3,41.3-0.1,31.3-0.9l-2.3-0.1c0.4,0,0.9,0,1.5,0
			c-0.1,0,0,0-0.1,0h0.1c28.9-0.8,60.1,0.4,88.8,0.1v0.3c17.1-0.3,38.1-0.2,50.4-0.7c5.1,0,12,0.5,9.8,0.8
			c13.1-0.2,14.6-0.5,33.5-0.1c-13.1,0.5,4.5,0.4-13.5,0.3c17,0.2,20.9,0.6,39.1-0.1c-6.3,0.7,12.8,0.8,20.9,0.6l-11.9-0.5
			c9.1-0.1,17,0,25.1,0l-4.4,0.9c34.9,1.1,62.8-1.8,89.3,0c9.3-0.6-18.9-0.4-10.6-1.1c16,0.1,32.8,1.4,37.8,1.4
			c22,0.5,20.5-1.3,43.4-0.9c-2.9-0.3-5.8-1.1,11.5-1.4c16,0.1,19.8,1.3,9.6,1.6c-3.9,0-5.8-0.1-5.5-0.2c-5.1,0.1-12,0.2-5.6,0.6
			l2.1-0.3c8,0.3,30,0.3,24.9,0.8c12.1-0.3,5.1-0.5-3.8-0.7c20.5,0.4,32.1,0,53.3,0.3c-3.4-0.2-6.5-0.5-3.1-0.5
			c31,0.4,13.6-0.6,34.8-0.7c12,0.5-4.3,1.1,16.9,0.7c12.9,0.3,2.8,0.8-2.4,1.1c19.3-0.6,36,0.4,47,0.5l-10.1,0.3
			c6.1-0.1,11-0.1,16.1-0.1l-5.8-0.6c6,0.1,11,0.1,10.9,0.4c6.1-0.4-4.8-1,7.5-1.6c8,0.3,24.3-0.3,27,0.5c-25-0.3,2.8,0.8-18.4,1
			c4.1-0.1,9.1-0.1,15,0c0.9,0.1-0.9,0.2-2.5,0.2c23.9,0.7,11-0.9,35.8-0.9c-3.1,0.5,5.8,0.9,9.8,0.8c-10,0-4.8-0.8,4.4-1.1
			c15.9,0.4,17.3-0.3,25.6-0.2l-9.5-0.2c3.3-0.5,11.1-0.4,22.3-0.5c1,0.4-10.1,0.2-6.1,0.4c12.3-0.8,27.9,0.8,45,0.3
			c8,0.3,0.8,0.9,7.8,1.1c19.3-0.6,20.9,0.6,41,0.1c-5.9-0.6-6.9-0.5,7.4-1.1l-33.3,0.4l21.4-0.9c-10,0-21.1,0.4-27.1,0.3
			c10.1-0.5,9.1-0.4,4.4-0.9c13.8,0.9,27.3-0.5,43.1,0.1l-0.5,1.5c23.9,0.7,42.4-0.8,73.4-0.4l-10-0.3c4.1-0.6,19.1-0.1,29.1-0.3
			c-0.9,0.5,5.4,0.7,9.6,1c-0.5-0.4,22.6,0,25.5-1l13.9,0.7c25,0.3,28.5-1.5,52.6-1.3c-7.3,0.6,3.6,0.9-12.4,1.3
			c8,0,15.3,0.1,15.4-0.3c4.8,0.3,22.3-0.7,29.6-0.2c3.4-0.2,4.5-0.8,13.5-0.7c1,0.1,0,0.3,0,0.3c0-0.3,14.1-0.3,6.3-0.9
			c24.8,1.6,69.1-0.1,90.6,1.3c17.5-0.1,38.6-0.3,54.5-0.4c-1,0.2,0,0.3-3,0.2c22,0.5,13.5-1.5,38.5-0.9c12.8,0.8-13.3,0.5-5.3,0.8
			c3.5,1.7,30.1-0.2,46.9,0.8l-4.1,0.1c12.9,0.6,31.4-0.6,52.4-0.5c0,0-1,0.2-0.1,0.3c14.4-0.9,41.5-1.2,61.8-1.4
			c-6.3,0.7-9.1,0.4-5.4,1c9-0.1-2.6-1.1,15.4-1.3c5.9,0.4,18.9,0.7,20.6,1.4h-17c8.8,0.9,22,0,31,0.1l-1.1,0.4
			c26.1-0.1,26.5-1.2,54.5-1.1l-2.9-0.3c15.4-1,12.9,0.6,28.1-0.2l4.6,1c10.1-0.2,35.5-1,53.6-1.2c-10.3,0.8-31.5,1.2-44.6,1.6
			c10,0,34.1-0.1,39.3-0.6c-4,0.1-9.1,0.4-13.1,0.2c6.1-0.4,13.3-0.7,21.4-0.9c4-0.1,8.4-0.2,12.9-0.3c4.6-0.2,9.5-1.1,14.1-2.8
			c-0.6,0.7,2.4,0.2,6.8-2.1c2.3-1.1,4.6-2.8,7-5c2.3-2.2,4.5-4.8,6.1-7.8c3.3-6,4-13.3,2.1-19.4c-1.6-6.1-5.5-10.7-7.8-13.3
			c-6.5-5.7-15.5-9.6-25.3-10.5c-5-0.4-9.3-0.2-13.8-0.3c-4.5,0-9-0.1-13.6-0.1c-18.3-0.2-37.3-0.4-57.9-0.3c14.6,1.6-12,0-9.5,1.6
			c-9.6,0.1-13.3,0.1-14.1,0l-29.1-1c-6.9-0.5,9.1-0.4,8.3-0.7c-21-0.1-8.9-0.7-22.8-1.1c2.9,0.6-7.3,0.8-19.3,0.6l16.9,0.7
			c-29.4,0.9-25.4-1.3-55-0.5l9.4-0.5c-15.1,0.3-56,0-70.9,1.3c-2.6-0.2-6.3-0.6,0.5-0.7c-36.3-0.2-80.8,1.4-109,0.6l2.8-0.4
			c-6.8,0.1-11.8,0.7-20.3,0.3c0.5-0.2,2.8-0.4-0.4-0.4c-3.6,0.1-18,0.7-27,0.5l7.6-0.4c-35.4-0.5-54.4,1.1-84,1.3
			c0.1-1.2-27.8-1.5-41.6-1.7l0.5-0.2c-41.3-0.1-70,1-108.1,1.4c-23.8-1.2-80.3-0.5-118.4-1.2c5.9,0.2-1,0.9-7.8,1
			c-8.9-0.2-24.8,0.8-23.3-0.3h3.1c-6.8-1-25.1-0.8-39.5-0.8l-2.4,1.4c-37.5-2-98.3,0.7-118.8-1.1c-9,0.3-20.3,0.3-29.3,0.7l0.5-0.7
			c-25.1-0.2-37.6-0.3-68.6-0.1l6.4-0.5c-17.5,0-22.1,2.1-38.3,2.2l-4.9-1.1c-30.5,0-61.4-1-91.5,0c0.5-0.2,1.4-0.5,6.4-0.5
			c-14.4,0-55.5-0.7-50.4,0.8c-0.4-1-31.5-0.1-48,0.3l2.6-0.7c-13.9,0.9-14.4,1.2-33.8,1.4c-4.6-0.1-4-0.6,2.1-0.4
			c-15.4-0.4-12,0.7-30.5,0.3l6.9-0.5c-15.8-0.1-14.5,0.2-23.3,0.7c-9.9,0.3-29.9-0.2-32.3-0.8c-2.1,0.4-10.8,0.9-20.1,0.7
			c-1.3-0.2,2.1-0.4,3.9-0.5c-26.4-0.5-39.3,0.8-57.4,0.1c-0.4-0.2-1.5-0.4-3.1-0.4c21,0,37.9,0.1,36.3,0.1c0-0.7-16.9-0.8-3.5-1.7
			c-13.6,0.5-36.9,1.6-53.4,1.3c-0.8-0.1-1.6-0.1-2.1-0.2l1.8-0.1c-3.8-0.1-7.3,0-10.4,0.1c-5.3-0.1-8.6-0.2-13.6-0.2
			c-2-0.6-19.4-0.3-27.9-0.3c0.8,0.7-10.4,0.6,0,1.2c-1.4-0.1,1.6-0.1,7.3-0.1c1.3,0,2.8,0,3.6-0.1c-0.1,0-0.4,0-0.6,0.1
			c5.5,0,12.8,0,21,0c-6.6,0.4-13.6,0.7-23,0.3c-4.4,0.5-9.1,1-11.8,1.2c-11.5-1-33.9-1.6-36.9-2.2c-25.8,0.4-60.8,0.3-76.9,1.7
			c-7.4,0.2-8.4-0.4-11.1-0.6c4.3-0.1,9.3-0.1,11.5-0.3c-14.6,0.4-43.4,0.1-46.9,1.1c-18.5-0.4,10.4-0.9-15-0.7l3.4-0.3
			c-49.9-1.5-81.1,2.5-136.5,0.5c3.9,0.1,5.8,0.2,6.5,0.3c-63.1-0.9-130,0.8-192.3-0.6c-17.8-0.3-19.6,0.3-30.4,0.8l-3.9-0.8
			l-18.5,0.9c-26.1,0.7-45.4-1.9-78.5-0.7l4.3,0.5c-11.9-0.1-37.8,0.3-35.8-0.3c-1.3,0.1-3.9,0.6-8.5,0.3l-0.7-1l-29.3,0.7
			c-5.6-0.2-8.5,0-9.8,0c-1.4,0-1.3-0.2-1.5-0.4s-0.9-0.2-3.6,0.2c-2.6,0.6-7.8,1.5-14.6,6.2c-2.5,1.7-5.1,4.3-7.3,7.1
			c-2.1,2.8-3.5,6-4.3,8.8c-0.8,2.8-0.8,5.2-0.6,6.6c0,0.4,0,0.6,0.1,0.9c0,0.1,0,0.2,0,0.3v0.1c0.6,0,1.1,0,1.6,0h-1.5l0,0V77
			c0-0.1,0-0.2,0-0.3c0.1-2.1,0.5-4.7,1.4-6.7c0.8-2.1,1.8-3.5,2.1-3.6c-1.4,2.8-2,5.9-2.3,8.9c0.4,0.4,0.8,1.2,1,1.7
			c-0.4,0.1-0.5,0.1-0.9,0.1c0.5,0,1.3-0.1,2.3-0.1c0.1-0.2,0.3-0.4,0.3-0.7c0.3-0.6,0.4-1.4,0.8-2.5c0.1-0.5,0.4-1.2,0.6-1.8
			c0.3-0.7,0.6-1.4,1-2.2s0.9-1.7,1.4-2.6c0.6-0.9,1.3-2,2.1-3c2.6-4.1,6.8-7.6,11.8-10.1c1.8-0.5,3.6-1,5.5-1.3
			c-4.6,1.3-8.8,3.4-12.3,6.1c3.1-2.1,6-3.5,8.8-4.7c2.6-1.2,5.3-2,8.1-2.7c0.8,0.1,1.8,0.1,2.9,0.1c1.3,0.1,2.5,0,4.5,0.1l18.9-1.2
			c2.3,0.5-8.5,0.9,4.3,1.2c8.9-0.5-8.5-1.1,6.1-1.4c9.3,0.6,6.5,1,17.4,0.5c1.5,0.3-0.8,0.5-5,0.7c9.6-0.4,25.5-0.2,30.4-0.8
			c9.6,0.7,32.5-0.2,31.5,1c3-0.3,17-0.9,25.8-1c-16.1,1.4,33.1,0.1,28.8,1.6c12-1.2,43.1-0.6,64.3-1.2c-1.1,0.1-3.5,0.3-5.4,0.2
			c11.9,0.1,15.4,0.5,23,0.7c1.5-1,20.1-1.3,30.1-1.9c14.6,1-8.9,1.2-4.3,2.2c-0.8-0.8,25.4-0.8,20.4-1.5c11.1,0.6,9.6,0.3,15.4,1.1
			c2-1.3,10.4-0.2,19.6-1c16.1,0.6,4.1,1.2,21.9,0.8C435.6,51.9,419.7,52.3,419.7,52.3z M841.9,50.1L841.9,50.1
			c-3.6,0-6.8,0-8.8,0.1C834.9,50.1,837.5,50.1,841.9,50.1z M877.2,50.1c-4.4,0-9.8,0-15.4,0c-1.3-0.3,0.1-0.5,3.6-0.5
			C863.6,49.7,872,49.9,877.2,50.1z M802.2,45c5.6-0.1,7.5,0,8.3,0.2c-2.6,0-5.8,0.1-9.9,0.1c-0.1,0-0.5,0.1-0.6,0.1
			C800.6,45.2,801.2,45.1,802.2,45z"/>
		<path class="st0" d="M792.1,46c-0.8,0-1.3,0-2.4,0.1c1.1,0.1,2.3,0.1,3.4,0.2c0.6-0.1,1.4-0.2,2-0.2C794.1,46,793.1,46,792.1,46z"
			/>
		<path class="st0" d="M731.4,106.8h0.8c-0.6,0-1.3-0.1-1.6-0.1C731,106.8,731,106.8,731.4,106.8z"/>
		<polygon class="st0" points="1367,51.5 1367,51.3 1363.9,51.5 		"/>
		<path class="st0" d="M536,104.3c-0.4-0.1-1.1-0.1-2.6-0.2C533.5,104.2,534.6,104.2,536,104.3z"/>
		<path class="st0" d="M451.6,104.1l-11.9-0.3C444.8,104,448.6,104.1,451.6,104.1z"/>
		<path class="st0" d="M386.7,103.8c-0.9,0.1-1,0.2-1.3,0.3h0.1L386.7,103.8z"/>
		<path class="st0" d="M1418.3,102.9c0.9,0,1.8,0,2.5,0C1426.7,102.7,1422.7,102.8,1418.3,102.9z"/>
		<path class="st0" d="M1111.3,104.6c3.3-0.1,6.5-0.2,9.9-0.3C1115.8,104.2,1111.5,104.2,1111.3,104.6z"/>
		<path class="st0" d="M1761.1,102L1761.1,102c0.8,0,1.4,0,2.1,0H1761.1z"/>
		<path class="st0" d="M1135.4,104.3c-5.5-0.1-10-0.1-14.3,0C1125.6,104.3,1130.9,104.4,1135.4,104.3z"/>
		<path class="st0" d="M105.6,103.4h-3.1c0,0-0.1,0.1-0.4,0.1L105.6,103.4z"/>
		<path class="st0" d="M102.1,103.5l-3.5,0.1C100.2,103.6,101.6,103.6,102.1,103.5z"/>
		<path class="st0" d="M91.2,103.8l7.3-0.2C96.1,103.6,92.9,103.6,91.2,103.8z"/>
		<path class="st0" d="M191.4,103.8l1-0.3C191.8,103.6,191.4,103.7,191.4,103.8z"/>
		<path class="st0" d="M217.4,103.7c-6.3-0.1-15.6-0.6-24.3-0.4l-0.8,0.2C196.4,103.1,211.6,104.2,217.4,103.7z"/>
		<path class="st0" d="M326.4,107l-21.9-0.2c3.9,0.3,8.9,0.7-1.1,0.7C331.1,108.4,297.8,106.9,326.4,107z"/>
		<path class="st0" d="M394.2,107.4c-11.8,0.1,0.1,0.4-0.5,0.6C401.2,107.7,403.1,107.7,394.2,107.4z"/>
		<path class="st0" d="M884.4,107.4l-1.1,0.7C892.2,108,883.2,107.8,884.4,107.4z"/>
		<polygon class="st0" points="978,104 969.2,103.5 965,104.2 		"/>
		<polygon class="st0" points="1033.4,108.7 1029.4,108.8 1044.5,108.6 		"/>
		<path class="st0" d="M1856.4,108.5l-2.8-0.8C1847.6,107.8,1846.3,108.7,1856.4,108.5z"/>
		<path class="st0" d="M2211.7,107.7c3.9,0.4,13.9,0.7,20,0.3C2223.8,107.9,2215.8,107.5,2211.7,107.7z"/>
		<polygon class="st0" points="1461.3,44.9 1468.4,44.6 1454.9,44.8 		"/>
	</g>
	<g>
		<path class="st0" d="M1359.3,58.5l-0.9-5c-0.9-1.2-2.7-0.5-2.3,2.7L1359.3,58.5z"/>
		<path class="st0" d="M1352.6,75.1c1.6,3.8,4.3,8.1,7.2,5.7c-3-3.7-1.8-4.6-5.4-8.6c-0.4-3.2,1-5.6,2.2-5.1c-0.9-1.1,0.7-5-1.3-6.7
			c-2.4,4.2-2.6,9.5-0.5,15C1354.1,76.5,1353.2,75.4,1352.6,75.1z"/>
		<path class="st0" d="M1331.2,107.8c1.3-0.1,2.4-0.4,3.4-0.7c-1.1,0.1-2.2,0.2-3.2,0.3C1331.4,107.6,1331.3,107.7,1331.2,107.8z"/>
		<path class="st0" d="M1259.4,43.2c-0.1,0.2,0,0.3,0,0.4C1259.9,43.4,1260,43.2,1259.4,43.2z"/>
		<path class="st0" d="M1329.1,107.5c-1.1,0-2.2,0-3.3,0C1327.4,107.6,1328.4,107.6,1329.1,107.5z"/>
		<path class="st0" d="M1054.5,46.3c-1.1-1.6,9-2.1-3.2-2C1052.9,44.9,1053.7,45.6,1054.5,46.3z"/>
		<path class="st0" d="M1331.2,106.6c-0.4,0.6-1,0.8-2.1,1c0.7,0,1.6-0.1,2.3-0.1C1331.7,107.1,1331.7,106.8,1331.2,106.6z"/>
		<path class="st0" d="M413.3,112.2l-10.8-0.3C405.6,112.1,409.6,112.2,413.3,112.2z"/>
		<path class="st0" d="M562.5,44.3c-1-0.1-1.8,0-2.6,0.3L562.5,44.3z"/>
		<path class="st0" d="M370.2,112.2c-1.9-0.8-4-1.2-6.1-1.5c-0.5,0.2-1,0.3-1.2,0.6L370.2,112.2z"/>
		<path class="st0" d="M1357.4,90c-0.1-0.9-0.4-1.7-0.6-2.2c-0.4-1.1-0.9-1.8-1.5-2.3c-0.2,1.1-0.5,2-0.7,3.1
			c0.6-0.9,2.1,0.2,2.4,2.1c1,3.8,0.7,6.7,0.2,8.2c-0.6,1.5-1.6,1.7-2.1,1.6l-0.6-5.2c-1.8,1-2.3,3-2.2,6.1
			c-3.2,0.1-6.6,0.7-10.7,1.3c-1.1,0.1-2.1,0.3-3.2,0.4c-1.1,0.1-2.1,0.2-3,0.3c-1.8,0.2-3.7,0.3-5.2,0.2l3.4-2.7h18.4V57.4
			c0.1-0.1,0.1-0.2,0-0.3v-3.5h-1c1.5-3.4,4.9-6.9-10-9.3l-11.1,2.2l-3.5-1.8l9.3-0.1c-5.2-1.7-8.6-0.2-12.3,0.8
			c-0.9-0.9-2.4-1.6-4.6-2l-10.8,3.5c-1.3-1.4,4.9-2.8-2.4-3.6c-5.1,1.6,4.9,3.2-3.5,4.3c-5.2-1.7-3.8-3-10-1.6
			c-0.9-0.9,0.5-1.5,2.9-2c-5.5,1.1-14.6,0.5-17.4,2.4c-5.5-2-18.6,0.5-18-2.9c-1.7,0.8-9.7,2.7-14.7,2.9c9.3-4.1-19-0.2-16.6-4.7
			c-6.8,3.7-24.7,1.7-36.9,3.7c0.7-0.3,2.1-0.9,3-0.7c-6.8-0.3-8.8-1.4-13.2-2.1c-0.9,3.1-11.6,3.8-17.3,5.7c-8.4-3,5.1-3.6,2.4-6.5
			c0.4,2.5-14.5,2.5-11.7,4.6c-6.5-1.8-5.5-0.9-8.8-3.4c-1.1,3.8-6,0.7-11.3,3c-9.3-1.9-2.4-3.6-12.5-2.4c-4.9-1.2,4.3-2.5,4.3-2.5
			c-10.4-0.1-4.9,2.8-7.1,4.5c-12.4,0.8-5.7-2.1-10-3.6c-7.7,0.8-13.6,3.4-19.4,3.3c-0.5-0.5-1.6-0.7-0.2-1.2
			c-8.2,2.3-24.2,0.1-33.7,3c-0.7-0.3-1.1-0.5-1.2-0.7c1.6,1.5,1.8,2.9,1.5,4c-4.6,0-8.6,1.8-10.4-0.1c2.8,0.1,3-0.7,4.4-1.3
			l-4.9,0.8c-4.4-2.7,6.7-0.9,6.7-3c-9.5,0.9-20.6,3.1-27.9,2.4c-1.5-2.7,17.1-0.9,7.3-3.3l11.2,1c-8.6-4.2,6.8,0.3-1.1-4.2
			c-14.9-0.8-16.6,1.4-31.3,0.6c-3.3,1.5,1.1,2.2-2.2,3.7c-20.9,2.7-16.6-6.7-32-3.2c-4,1.8-5.6,5.1-16.6,3.4l3.8-3
			c-14.4-0.3-8.2,4.3-23.3,2.3c2.7-1.2,11.3-1,9.1-1.4c-9.7-2.4-6.9,1.7-14.4,1.7l-1.6-2.7c-15.2,0.4-32.2,2.3-49,2.8
			c1-0.8,3.8-1.6-0.1-2.4c-21.3,1.3-45.6-0.3-66.1-1.9l-7.9,2.3c-1.8,0-3.4-1-1.5-1.5c-8-0.9-0.4,1.5-4.3,2.4c-4.5,0.2-6-1.3-3.2-2
			c-14.1,2-40.3,4.2-55.2,1.7l2.9-0.7c-11.6-0.9-13.2,4.7-23.9,2.6L727,47c-25.2-1-53.1,1.1-72.2-2.4c-3.7,3.3-25-1.5-26.6,3.1
			c-14.4-2.3-10.2-3.1-30.6-4.7c-5.4-0.2-8,2.9-14.7,3.4l-0.1-2.4l-9.1,2.5l-4.9-2.9l-6.3,0.6c2.6,0.1,5.4,1.1,5,1.8
			c-9.7,1.1-23.9-1.7-24.1-2.9l-23.1,2c0.4-0.7,2.7-1.1,5.1-1.5c-8.6,1.4-0.7-2.8-11.3-0.7c1.5,0.5-0.9,1.4-1.1,1.9
			c-5.6-1.5-18.5-1.5-28-0.9l1.8-1.7c-17.2-0.4-36.3,0.8-55.5,0.8c6.9,0.8,5.4,3.7-0.4,3.9l-2.3-2.6c-3.7,1.6,6,1-1.6,2.9
			c-7.2-0.3-4.9-2.9-0.7-3.7l-8.8,0.9c-0.5-0.8,1.6-1.2,2.1-2.1c-3.7,1.6-15.1-2.6-20.3,0.2l-0.5-0.8c-19.2,0-28,0.9-43.7,1
			c-0.4,2.2-6.5,1.7-11.1,3.5c-11.6-0.7-24.4-2.4-38.2-2.3c-9.7,1.1-2.8,1.9-7.3,3.2c-0.7-2-14.6-1.8-7.4-3.3
			c-16.7,0.3-21.3,0.4-42.5,2c2.3,0.8,4.9,1.2,3.5,1.9c-3.8,0.3-8.8-0.8-8.2-1.8l1-0.2c-23.7,3-54.7-5.9-73.7-1.7l1.1-0.2L152.5,46
			c-9-0.3,5.4-1.5-1.2-2.8c-5.2,0.8-10,1.2-14.4,1.4c-4.5,0.2-8.8,0.1-12.8,0.1c-8.2,0-16,0.2-24.8,2.3c-7.4-1.8-20.1-0.1-33.2,4
			c-3.3,1-6.6,2.2-10,3.6c-1.7,0.7-3.3,1.5-5,2.3c-1,0.5-1.9,1-2.8,1.5c-1.1,0.7-2.2,1.3-3.3,2c-4.3,2.7-7.7,6-9.6,9.5
			c-2.1,3.5-2.9,7.1-2.8,10.5c0.5-0.6,1-1.1,1.5-1.6c1.2,3.2,1.9,4.9,2.3,6.7c0.5,1.7,0.7,3.4,2.7,5.5c0.2-0.6-0.9-2.2-1.3-3.3
			c-0.5-1.2-0.5-1.7,1.2-0.2c2.4,2.8,5.6,5.2,9.3,7.1c0.9,0.5,1.8,1,2.6,1.4c0.7,0.3,1.3,0.7,2.1,0.9c1.3,0.6,2.7,1.1,4,1.7
			c5.4,2,10.6,3.6,16,4.9c10.6,2.7,21.2,4.6,31.9,6.1s21.6,2.5,32.4,3c10.4,0.5,20.6,1,30.8,1.3c15,0.4,8.5-7.2,27.3-3.9l-5.4,2.6
			c30.1-3.1,61.6,0.1,91.1-2.5c-1.7,0.6-1.8,1.4-4.6,1.4c6.2,1.9,23,0.1,23.1-1.4c4.6,0.2,1.1,1.4,3.9,2.2c6.2,1.1,15.7-2.4,19-0.5
			c0.4,0.2-0.5,0.4-1.5,0.6c5.4-0.5,17.2,0.2,13.6-1.7c11.1,1,21.2-1,30,0.3c5.7-2.4,19,1.2,20.8-2.3c-0.9,3.6,19.4,2.9,26.4,1.2
			c-2.3,1.1,6.1,1.1,3.3,2.6c8,0,15.3-0.7,13.9-2.5c14.7,4.2,29.6-3.4,37.9,2c23.7-1.9,45.7-3.2,67-4c-0.7,3.5-23.6,0.4-22.7,4.1
			c20.2-1.5,31.9-4.5,52-3.6c5.2,0.5-2.9,1.5-4.7,2.1c20.2-1.5,39.1,0.3,57.1-1.6c0,0.3-1.9,0.7-3.8,1c3.5-0.1,8.3,0.5,7.8-1.1
			l-3.4,0.4c-5.6-2.3,14.1-4.9,14.7-6.1c-6,4.6,17.8,1.2,8.2,7c2.3-0.3,5.2-1.1,4.7-2.1c3.4,0.3,4.5,0.9,1.1,2.2
			c12.7-0.9,8.2-2.6,19.7-2.6c0,0.8-2.3,1.1-3.5,2c5.8-1.5,11.7-3,21.4-2.4c-0.5,0.4,0.2,0.9-1.3,1c16.1-0.4,27.8-4,45.7-2.5
			c-5.4,3.4,6.2,1.1,7.2,4l9.9-0.9l-3.9-1.4c8.6,0.1,16.2-2.1,23.6-1.1l-6.5,1.2l16.2-0.6l-9.1-1.1c8.8-1.5-1-3.7,10.6-2.9
			c-2.3,0.3,8.6,0,13.2,1.8l0,0c4.3-0.9,8.6-1.9,15.1-1.2c1.7,0.9-1.3,3.2-0.2,3.9c4.3-2.4,20.2-0.7,25.6-3.3
			c-1.8,0.6-1.8,2.2-1.3,2.5l3.5-2c4,0.6,4.6,0.9,3.9,2.2c12.1,0.4-3.8-3.7,10.5-2.1c-1.1,0.2-0.6,0.5-2.9,0.8
			c14.4,0.8,27.6-1.3,40.9-0.3c3.9,2.9-11.4,0.7-7.1,3.2c19-0.5,39.3-3.5,57.7-2.8l-3.4-0.3c2.6-4.2,13.6,2.1,23,0.1
			c-2.3,0.3-2.9,2.3-2.3,1.8c12.5,0.7,25.7-1,44.8-2.3l-2.3,1.1c7.4,1,19.5,0.6,27.5,1c2.4-1.1,6.9-0.9,4.1-2.4
			c24.7,6.1,47.1-3.3,69.1,1.8c-2.7,0-6.2,0.9-4.1,0.9l18.6-1c-1.5-1.8-2.4-1.1-6.3-2.5c2.3-1.1,7.7-1.9,12.3-1.9
			c-8.4,1.2,0.1,2.9,3.7,3.9c-0.6-0.6,0.6-1.2,0.4-1.7c9.7,3.2,1.6-3.6,15-1.5l-0.7,1c5-0.5,9.6-1.7,15-1.5c2.2,2.1-5.4,1-5.6,2.7
			c7.6-0.1,14.9-4,21.7-1.9c-3.2,0.6-7.8,0.6-11.1,1.2c7.4,2.5,8.3,1.8,13.9,2.2l-0.5-0.1l12.8,1.1l-3.3-0.7
			c9.5-5.5,19.2-1,31.9-4.6c-12.4,3.4-2.1,2-3,4.3c3.3,0.7,8.2,1.4,6.8,2.1c6-1.9,10,1.5,18.5-1.3c0.4,0.8,6.5,0.1,5.1,2
			c7.8-0.6-1.8-1.3-1.2-2.3c12.1-2.6,28.4,3.2,45.7-0.4c13.8-1.4,17.2-3.6,28.4-5h4.1c2.2,1.2-4.7,2.4-4.7,2.4
			c7.6,1.1,13.3,0.9,20.3,0c-1.5,0.7,0,1.2,2.2,2.1c2.8-0.1,3.8-0.8,5-1.3c0.6-0.3,1.2-0.5,2.2-0.6c1-0.1,2.7,0,5,0.2
			c-0.6,0.4-1.5,1-2.7,1.5c-0.6,0.3-1.3,0.6-2.1,0.8c-0.6,0.3-1.2,0.5-1.8,0.7l2.2-0.3l3-0.3c1.9-0.2,3.9-0.4,5.8-0.7
			c3.5-0.4,6.9-0.9,10.6-1.3c-0.1-1.1-0.2-2.2-0.4-3.3c1-0.5,1.7,1.8,2.3,4.9c-1.5,0.3-3.3,0.6-4.4,1c1.6-0.1,3.4-0.2,5.2-0.3
			c-0.4-4.8-0.7-9.9-1.3-14C1357.7,91.9,1357.6,90.9,1357.4,90z M884.1,47.7c2.1-0.1,3.9-0.1,5-0.1C888,47.6,886.5,47.6,884.1,47.7
			L884.1,47.7z M872.5,47.8c0.7,0.8,0,1.5-2.1,1.5c1.1-0.5-3.7-0.9-6.7-1.6C866.2,47.8,869.2,47.8,872.5,47.8z M1066,103
			c-0.2-0.5-0.5-1.2-0.2-1.9h6.8C1072.1,101.9,1070.3,102.6,1066,103z M1270.8,103l-2.8-1.9h8.2
			C1275.5,101.7,1274.1,102.3,1270.8,103z M1324.2,103.2c-1.3-0.5-2.3-1.4-1.9-2.1h9.9L1324.2,103.2z"/>
		<path class="st0" d="M1354.8,88.7c-0.1,0.2-0.2,0.6-0.2,1.2C1354.6,89.5,1354.7,89.1,1354.8,88.7z"/>
		<path class="st0" d="M680.6,108c-0.4,0-0.7,0-1.1,0C680,108,680.3,108,680.6,108z"/>
		<path class="st0" d="M525.3,43.7c0.2,0,0.5-0.1,0.9-0.1C525.9,43.6,525.5,43.7,525.3,43.7z"/>
		<path class="st0" d="M526.1,43.6c0.5-0.1,1-0.2,1.6-0.3C527.1,43.4,526.6,43.5,526.1,43.6z"/>
		<path class="st0" d="M320.5,112.1c-0.6,0.1-1.1,0.1-1.5,0.2C319.4,112.3,319.9,112.2,320.5,112.1z"/>
		<polygon class="st0" points="582.8,43.5 582.8,44.1 584.5,43.6 		"/>
		<path class="st0" d="M1117.4,105.4c0.2,0.2,0.6,0.4,1.5,0.6C1118.9,105.9,1118.2,105.7,1117.4,105.4z"/>
		<path class="st0" d="M1165.9,105.9l6.8,0.8C1169.8,106.3,1167.6,106.1,1165.9,105.9z"/>
		<path class="st0" d="M1203,107c0.5-0.4,0.6-0.7,0.7-0.9h-0.1L1203,107z"/>
		<path class="st0" d="M611.3,109.6c-0.5,0-1,0-1.5,0.1C606.5,110.1,608.7,110,611.3,109.6z"/>
		<path class="st0" d="M787.4,104.5c-1.8,0.4-3.7,0.8-5.6,1C784.8,105.7,787.2,105.7,787.4,104.5z"/>
		<path class="st0" d="M414.6,112.3C414.6,112.3,414.6,112.2,414.6,112.3c-0.4,0-0.7,0-1.2,0H414.6z"/>
		<path class="st0" d="M773.5,105.5c3.2,0.4,5.7,0.3,8.2,0C779.1,105.4,776.2,105.1,773.5,105.5z"/>
		<path class="st0" d="M1360.2,89.9l0.4,2.6l0.1-2.3C1360.4,90.2,1360.3,90.1,1360.2,89.9z"/>
		<path class="st0" d="M1359.8,87.8c0,0.6,0,1.8,0.4,2.1l-0.1-1.2C1359.9,88.2,1359.9,88.1,1359.8,87.8z"/>
		<path class="st0" d="M1359.2,84.3l0.7,3.4C1359.8,86.6,1359.9,85.1,1359.2,84.3z"/>
		<path class="st0" d="M1315.1,107l-0.6,0.8C1314.9,107.6,1315.1,107.4,1315.1,107z"/>
		<path class="st0" d="M1300.1,107.2c3.5,0.2,9,1.7,13.9,1.2l0.5-0.6C1312.2,109,1303.5,105.9,1300.1,107.2z"/>
		<polygon class="st0" points="868.9,107.7 871.3,105.9 863.9,106.5 		"/>
	</g>
</g>
</svg>
