<?xml version="1.0" encoding="utf-8"?>
<!-- Generator: Adobe Illustrator 25.2.1, SVG Export Plug-In . SVG Version: 6.00 Build 0)  -->
<svg version="1.1" id="Layer_1" xmlns="http://www.w3.org/2000/svg" xmlns:xlink="http://www.w3.org/1999/xlink" x="0px" y="0px"
	 viewBox="0 0 154.9 1920" style="enable-background:new 0 0 154.9 1920;" xml:space="preserve">
<style type="text/css">
	.st0{fill:white;}
</style>
<g>
	<g>
		<path class="st0" d="M74.7,1874.5c-2,0.1-0.8,1,4.4,0.2c1.2-0.4,2.3-1.1,3.4-1.6C80,1874,77.4,1874.4,74.7,1874.5z"/>
		<path class="st0" d="M102.1,1855.9c0.8-3.1,0.7-6.5,0.4-8.6c-0.3-2.1-0.7-2.9-1.1-0.9c0.2,1.6,0.2,2.7,0.3,3.8
			c-0.1,1.1-0.1,2-0.3,3c-0.4,1.9-0.6,3.9-1.7,7.1c-2.4,4.8-5.8,7.2-5.3,6.4c-0.6,0.7-2.1,2.1-3.8,3.3c-0.9,0.6-1.8,1.2-2.7,1.7
			c-0.9,0.5-1.7,0.9-2.3,1.4c3.3-1,6.8-3.1,9.7-6.2c2.9-3.1,5.3-7.1,6.3-11.6C102.3,1853.5,102.1,1855.4,102.1,1855.9z"/>
		<path class="st0" d="M104.8,1324.4l-0.1,3.4C104.7,1326.9,104.7,1325.7,104.8,1324.4z"/>
		<path class="st0" d="M105.2,995c0,2.5,0.1,3.6,0.2,3.7C105.4,996.3,105.3,994.4,105.2,995z"/>
		<path class="st0" d="M106.2,938.7c0,1.2,0,2.2-0.1,3.3C106.2,940.8,106.2,939.5,106.2,938.7z"/>
		<path class="st0" d="M104.8,1324.4l0.3-8.8C104.7,1315,104.8,1320.1,104.8,1324.4z"/>
		<path class="st0" d="M101.3,1782.8c0,1.8,0.1,3.4,0.2,4.8c0-1.5-0.1-3-0.1-4.5C101.4,1783,101.4,1782.9,101.3,1782.8z"/>
		<path class="st0" d="M105.5,1469.6v2.7c0.1,0.8,0.2,1.5,0.4,2.2L105.5,1469.6z"/>
		<path class="st0" d="M105.6,1581.1c0-2.5-0.7-3.4-1-4.4c0.3,1.4,0.4,3.3,0.5,5.5C105.2,1582.2,105.4,1581.9,105.6,1581.1z"/>
		<path class="st0" d="M104.3,1757.8l0.1,3.1C104.4,1760.1,104.3,1758.7,104.3,1757.8z"/>
		<path class="st0" d="M105.6,1389.9c0.1-0.2,0.2-0.6,0.3-1C105.8,1388.8,105.7,1389.2,105.6,1389.9z"/>
		<path class="st0" d="M49.4,1763.5C49.3,1763.4,49.3,1763.5,49.4,1763.5C49.3,1764.1,49.4,1764.3,49.4,1763.5z"/>
		<path class="st0" d="M74.7,1876.3v0.2l0,0l0,0l0,0l0,0l0,0l0,0l0,0h-0.1h-0.1h-0.2h-0.5h-0.9c-0.2,0.1-0.4,0.3-0.4,0.4l1.1-0.2
			l0.6-0.1h0.3h0.1h0.1l0,0l0,0l0,0l0,0l0,0l0,0l0,0V1876.3z"/>
		<path class="st0" d="M107.1,835.8c0,0.2,0,0.3,0,0.5C107.2,839,107.2,837.4,107.1,835.8z"/>
		<path class="st0" d="M42.9,145.3c0.7-10.7,0.8,17.4,1.6,1.3C44.2,148.1,43.3,132,42.9,145.3z"/>
		<path class="st0" d="M101.4,1779.9c0-1.5,0-3,0-4.6C101.4,1777.4,101.4,1778.8,101.4,1779.9z"/>
		<path class="st0" d="M44.5,146.6L44.5,146.6l0.1-1.7C44.5,145.7,44.5,146,44.5,146.6z"/>
		<path class="st0" d="M106.7,598.6c-0.1,0.5-0.2,1.4-0.3,2.4C106.4,601,106.5,600.4,106.7,598.6z"/>
		<path class="st0" d="M105.6,775.3l0.1-4.4C105.7,772.7,105.6,774.1,105.6,775.3z"/>
		<path class="st0" d="M105.6,506.9c0.1-2.4,0.2-3.2,0.1-6.4c0,0.3-0.1,0.6-0.1,1C105.7,502.6,105.8,504.2,105.6,506.9z"/>
		<path class="st0" d="M105.6,411.4c0,0.5-0.1,1.2-0.1,1.8c0,0.9,0,2.1,0,3L105.6,411.4z"/>
		<path class="st0" d="M49,1473.3c-0.2,2.1-0.4,3.4-0.7,4.4C48.9,1476.2,49.1,1490.3,49,1473.3z"/>
		<path class="st0" d="M101.7,1782.7c-0.2-0.6-0.3-1.4-0.3-2.8c0,1.1,0,2.1,0,3.2C101.6,1783.3,101.7,1783.4,101.7,1782.7z"/>
		<path class="st0" d="M99.8,503l0.1-15.2C99.9,492.1,99.9,497.6,99.8,503z"/>
		<path class="st0" d="M48.9,788.3l0.1,3.5C49,790.4,49,789.2,48.9,788.3z"/>
		<path class="st0" d="M99.8,442.8c0.3-2.7,0.4-5.6,0.5-8.5c-0.1-0.6-0.1-1.3-0.2-1.8L99.8,442.8z"/>
		<path class="st0" d="M48.4,1477.7L48.4,1477.7L48.4,1477.7z"/>
		<path class="st0" d="M50.1,1577.7c0-14.5-0.9-6.8-1.5-9.9c-0.3-17.3,0.7-8,1.2-13.9c-0.3-10.8-1.1-19-1.1-27.1
			c0.2-0.6,0.2-2.2,0.4-0.3c-0.8-11.4,0-33.8-1-47.1c0.1-1,0.2-1.5,0.2-1.7c-0.5,2.1-1,2.5-1.3,2c0-6.5-0.6-12,0-14.5
			c0,4,0.2,4.3,0.4,6.2l-0.3-6.8c0.9-6.1,0.3,9.3,1,9.3c-0.3-13.2-1-28.7-0.8-38.8c0.9-2.1,0.3,23.7,1.1,10.2l-0.3,15.7
			c1.4-12-0.1,9.5,1.4-1.5c0.3-20.7-0.5-23.1-0.2-43.7c-0.5-4.6-0.7,1.5-1.2-3.1c-0.9-29.3,2.2-23.1,1.1-44.6
			c-0.6-5.6-1.7-7.7-1.1-23.1l1,5.2c0.1-20-1.4-11.4-0.8-32.4c0.4,3.7,0.3,15.7,0.5,12.7c0.8-13.6-0.6-9.6-0.6-20l0.9-2.2
			c-0.3-21.3-0.6-44.8-0.9-68.3c0.3,1.3,0.5,5.3,0.8-0.2c-0.4-29.7,0.1-63.5,0.6-92.2l-0.8-11c0-2.5,0.3-4.7,0.5-2
			c0.3-11.2-0.5-0.6-0.8-6c-0.1-6.4,0.4-8.4,0.7-4.4c-0.7-19.7-1.4-56.2-0.6-77l0.2,4.1c0.3-16.2-1.6-18.3-0.9-33.3l0.1,2.9
			c0.3-35.1-0.4-74,0.8-100.8c-1.1-5.1,0.5-34.8-1-37c0.8-20.1,1-14.3,1.6-42.6c0.1-7.5-1-11.2-1.1-20.6l0.8-0.2L48.3,807l1-6.7
			l-0.2-8.8c0,3.5-0.4,7.4-0.6,6.9c-0.2-6.8,0-15.2,0.2-21.8c0.2-6.7,0.6-11.7,0.8-11.8l-0.7-32.3c0.3,0.7,0.4,6.1,0.6,10.4
			c-0.8-17.3,0.8-3.1,0.1-19c-0.2,2.1-0.5-1.1-0.6-1.5c0.5-7.9,0.5-25.8,0.3-39.1l0.6,2.5c0.1-24-0.3-50.6-0.3-77.5
			c-0.3,9.7-1.2,7.4-1.3-0.5l0.9-3.2c-0.5-5.1-0.3,8.2-1-2.2c0.1-10.1,1-6.8,1.2-1L49,589.2c0.3-0.7,0.4,2.1,0.7,2.9
			c-0.5-5,0.9-21.1-0.1-28.3l0.3-0.7c-0.1-26.9-0.2-39.1-0.3-61c-0.7-0.4-0.6-9-1.2-15.5c0.2-16.1,0.8-34,0.8-53.4
			c-0.4-13.6-0.6-4-1.1-10.1c0.7-1,0.6-20.4,1.1-10.3c-0.1-23.3-0.1-29.8-0.7-59.2c-0.3,3.2-0.4,6.8-0.6,4.9
			c-0.1-5.3,0.3-12.2,0.6-11.4l0.1,1.4c-1-33.1,2-76.3,0.6-102.7l0.1,1.5L48.6,220c0.1-12.6,0.5,7.5,0.9-1.8
			c-1.1-29.5,0.2-46.5-0.6-70.8c1-9.4,1-26,0.8-43.5c0-8.7-0.1-17.7-0.1-26c0-4.2,0.1-8.2,0.1-12c0-0.9,0-1.9,0.1-2.8
			c0.1-0.8,0.1-1.6,0.2-2.3c0.2-1.5,0.5-2.9,1-4.2l-1,1.3c0.2-1.4,0.5-2.6,0.9-3.5c0.3-0.9,0.8-1.7,1.2-2.3c0.4-0.7,0.8-1.3,1.3-1.9
			c0.4-0.7,1-1.3,1.7-2.1c-0.8,0.2-3.7,5-2.1,1.8c3.2-5.3,8.4-9.4,14.5-11.3c6-1.9,12.8-1.3,18.5,1.5s10.4,7.8,12.7,13.8
			c1.2,3,1.8,6.2,1.7,9.4L100.2,74c-0.3,28.8-0.6,57.8-0.9,86.2c-0.1,20.8,2.4,11.8,1.3,38l-0.9-7.4c1,42,0,85.9,0.8,127
			c-0.2-2.5-0.5-2.5-0.5-6.5c-0.3,4.3-0.3,12.4-0.2,19.3c0.1,7,0.4,12.9,0.7,12.9c-0.1,6.4-0.5,1.5-0.7,5.4
			c-0.4,8.7,0.8,21.9,0.2,26.5c-0.1,0.8-0.2-2.4-0.3-4c0.3,5.7-0.1,26.4,0.6,21c-0.3,15.4,0.3,29.5-0.1,41.8c0.8,8-0.4,26.4,0.8,29
			c-1.2-1.1-1,27-0.4,36.8c-0.4-3.3-0.4,8.5-0.9,4.7c0,11.1,0.2,21.3,0.8,19.4c-1.4,20.5,1.1,41.2-0.7,52.8
			c0.6,33.1,1.1,63.7,1.3,93.4c-1.2-1.1-0.1-32.9-1.4-31.6c0.5,28.2,1.5,44.5,1.2,72.5c-0.2,7.2-0.5-4.1-0.7-6.6
			c0.5,28.2-0.1,54.5,0.5,79.6c-0.1-0.1-0.2-2.8-0.3-5.3c0,4.9-0.2,11.5,0.4,10.9l-0.1-4.8c0.8-7.9,1.6,19.6,2,20.5
			c-1.5-8.4-0.4,24.8-2.3,11.5c0.1,3.3,0.4,7.3,0.7,6.6c-0.1,4.8-0.3,6.4-0.7,1.5c0.3,17.7,0.9,11.4,0.9,27.5
			c-0.3-0.1-0.4-3.3-0.7-5c0.5,8.1,1,16.3,0.8,29.8c-0.2-0.8-0.4,0.8-0.4-3.3c0.1,23.3,1.3,39.7,0.9,65.2c-1.1-7.5-0.4,8.7-1.3,10
			l0.3,13.7l0.5-5.5c0,12,0.7,22.7,0.4,33l-0.4-8.9l0.2,22.6l0.4-12.8c0.5,12.2,1.2-1.3,1,14.7c-0.1-3.3,0,12-0.6,18.3l0,0
			c0.3,6,0.6,12.1,0.4,21c-0.3,2.3-1.1-1.9-1.3-0.4c0.8,5.9,0.2,28.2,1.1,35.6c-0.2-2.5-0.7-2.6-0.8-1.8l0.7,4.9
			c-0.2,5.6-0.3,6.4-0.7,5.5c-0.1,16.8,1.2-5.3,0.7,14.6c-0.1-1.6-0.2-0.8-0.3-4.1c-0.3,20,0.4,38.6,0.1,57c-1,5.4-0.2-16-1.1-9.8
			c0.2,26.5,1.2,54.8,0.9,80.5l0.1-4.8c1.4,3.6-0.7,19.1,0,32c-0.1-3.2-0.8-4.2-0.6-3.3c-0.2,17.6,0.3,35.9,0.8,62.5l-0.4-3.3
			c-0.3,10.3-0.2,27.2-0.3,38.4c0.4,3.3,0.3,9.7,0.8,5.8c-2,34.4,1.1,65.7-0.6,96.3c0-3.7-0.3-8.7-0.3-5.8l0.3,26
			c0.6-2.1,0.4-3.4,0.8-8.9c0.4,3.3,0.6,10.6,0.6,17.1c-0.4-11.7-1,0.1-1.3,5.2c0.2-0.8,0.4,0.9,0.6,0.5c-1.1,13.6,1.2,2.3,0.5,20.8
			l-0.3-1c0.2,6.9,0.6,13.4,0.5,20.8c-0.7,3.1-0.3-7.4-0.9-7.9c0,10.5,1.3,20.8,0.6,30.3c-0.1-4.5-0.3-10.9-0.4-15.4
			c-0.8,10.4-0.6,11.6-0.7,19.3v-0.8l-0.4,17.8l0.2-4.5c1.8,13.2,0.3,26.8,1.5,44.6c-1.1-17.2-0.7-2.9-1.4-4.2
			c-0.2,4.5-0.5,11.4-0.7,9.5c0.6,8.4-0.5,14,0.4,25.8c-0.3,0.5,0,9-0.7,7.1c0.2,10.9,0.4-2.6,0.8-1.7c0.9,16.8-1.1,39.5,0.1,63.7
			c0.5,20.8,1.4,24.7,1.8,44c-0.4,6.5-0.9-5.3-0.9-5.3c-0.4,10.5-0.3,18.5,0,28.4c-0.2-2-0.4,0.1-0.7,3.1c0.1,8,0.9,5.3,0.6,15.8
			c-0.3-1.8-0.7-4.1-1-8c0.3,9.4,0.6,18.7,0.9,28.4c-0.4,2.6-0.7-5.9-1-9.3c0.2,10.9,0.4,28.3,1.1,31.7l0.3-7c0,4-0.6,2-0.7-0.9
			c-0.6-9.4,0.2-13.5,0.5-14l0.2,6.9c1.5-7.1-0.2-27.8-0.2-41.7l1.1,5.8l-0.9-14.3c0.3-3,0.9-5.1,1.1,1.8c0.5-10-0.4-8.8,0.2-17.4
			c0.1-0.9,0.1-0.5,0.2,0.4l-0.3-9.8c0.2,1.9,0.8-1.6,0.6,4.4c0.6-17.5-0.8-28.2,0-34.8l0.1,1.5c-0.4-24.3-0.8-2.3-1.7-20.6l2-12.3
			l-0.8-2.4c0-2.5,0.1-7.5,0.4-6.5c-0.5-9.3-0.3,1.6-0.9-3.8c0.7-12.1-0.3-33.3,0.9-36c-0.6-4.3-0.5,11.5-0.9-1.3
			c1.4-3.7-0.2-14.9,0.4-25.9c0.7,3.4,0.3,13.8,1,2.8c-1.2-6.7,0.3-21.5,0-30.8c-1-0.4-0.4-20.2-0.7-35.8c0.3,1,0.5-29.4,0.9-43.9
			l0.2,0.4c-1-2.8-0.8-17.8-1-28.7c0.6,0.4,0.8,2.4,1.1,8.3v-10.2c-0.3-2.4-0.5-5.6-0.6-12.3l0.7,2.6c0-13.6-0.8-27.5-0.4-45
			c-0.7-1-1.9,14-2.3-4.6c0.4-0.7,1-1.4,1.1,3.5c0-1.6-0.3-5.7-0.1-8.9l0.6,7.4c0.3-8-0.5-4.2-0.5-10.6c0.5,0.1,0.4-4.7,0.8-3.8
			c0,1.6-0.2,5.6,0,8c0.1-7.2,0.4-15.9,0.8-18.8c-0.3,0.6-0.7,0-0.8-5.3c0-13.6,0.6-4.7,0.9-12.6c-0.4-3.3,0-12-0.8-12.2
			c0-4,0.4-4.7,0.6-6.3c-0.3-7.1-0.1-33-0.9-25l-0.1,1.8c0-0.3,0-0.7,0-1.2c0,0.1,0,0,0,0.1v-0.1c-0.8-23.1,0.4-48.1,0.1-71h0.3
			c-0.3-13.7-0.2-30.5-0.7-40.3c0-4.1,0.5-9.6,0.8-7.8c-0.2-10.5-0.5-11.7-0.1-26.8c0.5,10.5,0.4-3.6,0.3,10.8
			c0.2-13.6,0.6-16.7-0.1-31.3c0.7,5,0.8-10.2,0.6-16.7l-0.5,9.5c-0.1-7.3,0-13.6,0-20.1l0.9,3.5c1.1-27.9-1.8-50.2,0-71.4
			c-0.6-7.4-0.4,15.1-1.1,8.5c0.1-12.8,1.4-26.2,1.4-30.2c0.5-17.6-1.3-16.4-0.9-34.7c-0.3,2.3-1.1,4.6-1.4-9.2
			c0.1-12.8,1.3-15.8,1.6-7.7c0,3.1-0.1,4.6-0.2,4.4c0.1,4.1,0.2,9.6,0.6,4.5l-0.3-1.7c0.3-6.4,0.3-24,0.8-19.9
			c-0.3-9.7-0.5-4.1-0.7,3c0.4-16.4,0-25.7,0.3-42.6c-0.2,2.7-0.5,5.2-0.5,2.5c0.4-24.8-0.6-10.9-0.7-27.8c0.5-9.6,1.1,3.4,0.7-13.5
			c0.3-10.3,0.8-2.2,1.1,1.9c-0.6-15.4,0.4-28.8,0.5-37.6l0.3,8.1c-0.1-4.9-0.1-8.8-0.1-12.9l-0.6,4.6c0.1-4.8,0.1-8.8,0.4-8.7
			c-0.4-4.9-1,3.8-1.6-6c0.3-6.4-0.3-19.4,0.5-21.6c-0.3,20,0.8-2.2,1,14.7c-0.1-3.3-0.1-7.3,0-12c0.1-0.7,0.2,0.7,0.2,2
			c0.7-19.1-0.9-8.8-0.9-28.6c0.5,2.5,0.9-4.6,0.8-7.8c0,8-0.8,3.8-1.1-3.5c0.4-12.7-0.3-13.8-0.2-20.5l-0.2,7.6
			c-0.5-2.6-0.4-8.9-0.5-17.8c0.4-0.8,0.2,8.1,0.4,4.9c-0.8-9.8,0.8-22.3,0.3-36c0.3-6.4,0.9-0.6,1.1-6.2
			c-0.6-15.4,0.6-16.7,0.1-32.8c-0.6,4.7-0.5,5.5-1.1-5.9l0.4,26.6l-0.9-17.1c0,8,0.4,16.9,0.3,21.7c-0.5-8.1-0.4-7.3-0.9-3.5
			c0.9-11-0.5-21.8,0.1-34.5l1.5,0.4c0.7-19.1-0.8-33.9-0.4-58.7l-0.3,8c-0.6-3.3-0.1-15.3-0.3-23.3c0.5,0.7,0.7-4.3,1-7.7
			c-0.4,0.4,0-18.1-1-20.4l0.7-11.1c0.3-20-1.5-22.8-1.3-42.1c0.6,5.8,0.9-2.9,1.3,9.9c0-6.4,0.1-12.2-0.3-12.3
			c0.3-3.8-0.7-17.8-0.2-23.7c-0.2-2.7-0.8-3.6-0.7-10.8c0.1-0.8,0.3,0,0.3,0c-0.3,0-0.3-11.3-0.9-5c1.6-19.8-0.1-55.3,1.3-72.5
			c-0.1-14-0.3-30.9-0.4-43.6c0.2,0.8,0.3,0,0.2,2.4c0.5-17.6-1.5-10.8-0.9-30.8c0.8-10.2,0.5,10.6,0.8,4.2
			c1.7-2.8-0.2-24.1,0.8-37.5l0.1,3.3c0.6-10.3-0.6-25.1-0.5-41.9c0,0,0.2,0.8,0.3,0.1c-0.9-11.5-1.2-33.2-1.4-49.4
			c0.7,5,0.4,7.3,1,4.3c-0.1-7.2-1.1,2.1-1.3-12.3c0.4-4.7,0.7-15.1,1.4-16.5v13.6c0.9-7,0-17.6,0.1-24.8l0.4,0.9
			c-0.1-20.9-1.2-21.2-1.1-43.6l-0.3,2.3c-1-12.3,0.6-10.3-0.2-22.5l1-3.7c-0.2-8.1-1-28.4-1.2-42.9c0.8,8.2,1.2,25.2,1.6,35.7
			c0-8-0.1-27.3-0.6-31.4c0.1,3.2,0.4,7.3,0.2,10.5c-0.4-4.9-0.7-10.6-0.9-17.1c-0.1-3.2-0.2-6.7-0.3-10.3
			c-0.2-3.7-1.1-7.6-2.8-11.3c0.7,0.5,0.2-1.9-2.1-5.4c-1.1-1.8-2.8-3.7-5-5.6c-2.2-1.8-4.8-3.6-7.8-4.9c-6-2.6-13.3-3.2-19.4-1.7
			c-6.1,1.3-10.7,4.4-13.3,6.2c-5.7,5.2-9.6,12.4-10.5,20.2c-0.4,4-0.2,7.4-0.3,11c0,3.6-0.1,7.2-0.1,10.9
			c-0.2,14.6-0.4,29.8-0.3,46.3c1.6-11.7,0,9.6,1.6,7.6c0.1,7.7,0.1,10.6,0,11.3l-1,23.3c-0.5,5.5-0.4-7.3-0.7-6.6
			c-0.1,16.8-0.7,7.1-1.1,18.2c0.6-2.3,0.8,5.8,0.6,15.4l0.7-13.5c0.9,23.5-1.3,20.3-0.5,44l-0.5-7.5c0.3,12.1,0,44.8,1.3,56.7
			c-0.2,2.1-0.6,5-0.7-0.4c-0.2,29,1.4,64.6,0.6,87.2L43,361c0.1,5.4,0.7,9.4,0.3,16.2c-0.2-0.4-0.4-2.2-0.4,0.3
			c0.1,2.9,0.7,14.4,0.5,21.6L43,393c-0.5,28.3,1.1,43.5,1.3,67.2c-1.2-0.1-1.5,22.2-1.7,33.3l-0.2-0.4c-0.1,33,1,56,1.4,86.5
			c-1.2,19-0.5,64.2-1.2,94.7c0.2-4.7,0.9,0.8,1,6.2c-0.2,7.1,0.8,19.8-0.3,18.6v-2.5c-1,5.4-0.8,20.1-0.8,31.6l1.4,1.9
			c-2,30,0.7,78.6-1.1,95c0.3,7.2,0.3,16.2,0.7,23.4l-0.7-0.4c-0.2,20.1-0.3,30.1-0.1,54.9l-0.5-5.1c0,14,2.1,17.7,2.2,30.6
			l-1.1,3.9c0,24.4-1,49.1,0,73.2c-0.2-0.4-0.5-1.1-0.5-5.1c0,11.5-0.7,44.4,0.8,40.3c-1,0.3-0.1,25.2,0.3,38.4l-0.7-2.1
			c0.9,11.1,1.2,11.5,1.4,27c-0.1,3.7-0.6,3.2-0.4-1.7c-0.4,12.3,0.7,9.6,0.3,24.4l-0.5-5.5c-0.1,12.6,0.2,11.6,0.7,18.6
			c0.3,7.9-0.2,23.9-0.8,25.8c0.4,1.7,0.9,8.6,0.7,16.1c-0.2,1-0.4-1.7-0.5-3.1c-0.5,21.1,0.8,31.4,0.1,45.9
			c-0.2,0.3-0.4,1.2-0.4,2.5c0-16.8,0.1-30.3,0.1-29c-0.7,0-0.8,13.5-1.7,2.8c0.5,10.9,1.6,29.5,1.3,42.7c-0.1,0.6-0.1,1.3-0.2,1.7
			l-0.1-1.4c-0.1,3,0,5.8,0.1,8.3c-0.1,4.2-0.2,6.9-0.2,10.9c-0.6,1.6-0.3,15.5-0.3,22.3c0.7-0.6,0.6,8.3,1.2,0
			c-0.1,1.1-0.1-1.3-0.1-5.8c0-1,0-2.2-0.1-2.9c0,0.1,0,0.3,0.1,0.5c0-4.4,0-10.2,0-16.8c0.4,5.3,0.7,10.9,0.3,18.4
			c0.5,3.5,1,7.3,1.2,9.4c-1,9.2-1.6,27.1-2.2,29.5c0.4,20.6,0.3,48.6,1.7,61.5c0.2,5.9-0.4,6.7-0.6,8.9c-0.1-3.4-0.1-7.4-0.3-9.2
			c0.4,11.7,0.1,34.7,1.1,37.5c-0.4,14.8-0.9-8.3-0.7,12l-0.3-2.7c-1.5,39.9,2.5,64.9,0.5,109.2c0.1-3.1,0.2-4.6,0.3-5.2
			c-0.9,50.5,0.8,104-0.6,153.8c-0.3,14.2,0.3,15.7,0.8,24.3l-0.8,3.1l0.9,14.8c0.7,20.9-1.9,36.3-0.7,62.8l0.5-3.4
			c-0.1,9.5,0.3,30.2-0.3,28.6c0.1,1,0.6,3.1,0.3,6.8l-0.4,0.3l0.7,23.4c-0.2,4.5,0,6.8,0,7.8c0,1.1-0.2,1-0.4,1.2s-0.2,0.7,0.2,2.9
			c0.6,2.1,1.5,6.2,6.2,11.7c1.7,2,4.3,4.1,7.1,5.8c2.8,1.7,6,2.8,8.8,3.4s5.2,0.6,6.6,0.5c0.4,0,0.6,0,0.9-0.1c0.1,0,0.2,0,0.3,0
			h0.1c0-0.5,0-0.9,0-1.3v1.2l0,0H75c-0.1,0-0.2,0-0.3,0c-2.1-0.1-4.7-0.4-6.7-1.1c-2.1-0.6-3.5-1.4-3.6-1.7
			c2.8,1.1,5.9,1.6,8.9,1.8c0.4-0.3,1.2-0.6,1.7-0.8c0.1,0.3,0.1,0.4,0.1,0.7c0-0.4-0.1-1-0.1-1.8c-0.2-0.1-0.4-0.2-0.7-0.2
			c-0.6-0.2-1.4-0.3-2.5-0.6c-0.5-0.1-1.2-0.3-1.8-0.5c-0.7-0.2-1.4-0.5-2.2-0.8c-0.8-0.3-1.7-0.7-2.6-1.1c-0.9-0.5-2-1-3-1.7
			c-4.1-2.1-7.6-5.4-10.1-9.4c-0.5-1.4-1-2.9-1.3-4.4c1.3,3.7,3.4,7,6.1,9.8c-2.1-2.5-3.5-4.8-4.7-7c-1.2-2.1-2-4.2-2.7-6.5
			c0.1-0.6,0.1-1.4,0.1-2.3c0.1-1,0-2,0.1-3.6l-1.2-15.1c0.5-1.8,0.9,6.8,1.2-3.4c-0.5-7.1-1.1,6.8-1.4-4.9c0.6-7.4,1-5.2,0.5-13.9
			c0.3-1.2,0.5,0.6,0.7,4c-0.4-7.7-0.2-20.4-0.8-24.3c0.7-7.7-0.2-26,1-25.2c-0.3-2.4-0.9-13.6-1-20.6c1.4,12.9,0.1-26.5,1.6-23
			c-1.2-9.6-0.6-34.5-1.2-51.4c0.1,0.9,0.3,2.8,0.2,4.3c0.1-9.5,0.5-12.3,0.7-18.4c-1-1.2-1.3-16.1-1.9-24.1c1-11.7,1.2,7.1,2.2,3.4
			c-0.8,0.6-0.8-20.3-1.5-16.3c0.6-8.9,0.3-7.7,1.1-12.3c-1.3-1.6-0.2-8.3-1-15.7c0.6-12.9,1.2-3.3,0.8-17.5
			C49.7,1565,50.1,1577.7,50.1,1577.7z M47.9,1240L47.9,1240c0,2.9,0,5.4,0.1,7C47.9,1245.6,47.9,1243.5,47.9,1240z M47.9,1211.7
			c0,3.5,0,7.8,0,12.3c-0.3,1-0.5-0.1-0.5-2.9C47.5,1222.6,47.7,1215.9,47.9,1211.7z M42.8,1271.7c-0.1-4.5,0-6,0.2-6.6
			c0,2.1,0.1,4.6,0.1,7.9c0,0.1,0.1,0.4,0.1,0.5C43,1273,42.9,1272.5,42.8,1271.7z"/>
		<path class="st0" d="M43.8,1279.8c0,0.6,0,1,0.1,1.9c0.1-0.9,0.1-1.8,0.2-2.7c-0.1-0.5-0.2-1.1-0.2-1.6
			C43.8,1278.2,43.8,1279,43.8,1279.8z"/>
		<path class="st0" d="M104.6,1328.4v-0.6c0,0.5-0.1,1-0.1,1.3C104.6,1328.7,104.6,1328.7,104.6,1328.4z"/>
		<polygon class="st0" points="49.3,819.9 49.1,819.9 49.3,822.4 		"/>
		<path class="st0" d="M102.1,1484.7c-0.1,0.3-0.1,0.9-0.2,2.1C102,1486.7,102,1485.8,102.1,1484.7z"/>
		<path class="st0" d="M101.9,1552.2l-0.3,9.5C101.8,1557.6,101.9,1554.6,101.9,1552.2z"/>
		<path class="st0" d="M101.6,1604.1c0.1,0.7,0.2,0.8,0.3,1v-0.1L101.6,1604.1z"/>
		<path class="st0" d="M100.7,778.9c0-0.7,0-1.4,0-2C100.5,772.2,100.6,775.4,100.7,778.9z"/>
		<path class="st0" d="M102.4,1024.5c-0.1-2.6-0.2-5.2-0.3-7.9C102,1020.9,102,1024.3,102.4,1024.5z"/>
		<path class="st0" d="M99.8,504.7L99.8,504.7c0-0.6,0-1.1,0-1.7V504.7z"/>
		<path class="st0" d="M102.1,1005.2c-0.1,4.4-0.1,8,0,11.4C102.1,1013,102.2,1008.8,102.1,1005.2z"/>
		<path class="st0" d="M101.2,1829v2.5c0,0,0.1,0.1,0.1,0.3L101.2,1829z"/>
		<path class="st0" d="M101.3,1831.8l0.1,2.8C101.4,1833.3,101.4,1832.2,101.3,1831.8z"/>
		<path class="st0" d="M101.6,1840.5l-0.2-5.8C101.4,1836.6,101.4,1839.1,101.6,1840.5z"/>
		<path class="st0" d="M101.6,1760.3l-0.3-0.8C101.4,1760,101.5,1760.3,101.6,1760.3z"/>
		<path class="st0" d="M101.5,1739.5c-0.1,5-0.6,12.5-0.4,19.4l0.2,0.6C100.9,1756.3,102,1744.2,101.5,1739.5z"/>
		<path class="st0" d="M104.8,1652.3l-0.2,17.5c0.3-3.1,0.7-7.1,0.7,0.9C106.2,1648.6,104.7,1675.2,104.8,1652.3z"/>
		<path class="st0" d="M105.2,1598.1c0.1,9.4,0.4-0.1,0.6,0.4C105.5,1592.5,105.5,1591,105.2,1598.1z"/>
		<path class="st0" d="M105.2,1206l0.7,0.9C105.8,1199.7,105.6,1206.9,105.2,1206z"/>
		<polygon class="st0" points="101.8,1131.1 101.3,1138.1 102,1141.5 		"/>
		<polygon class="st0" points="106.5,1086.8 106.6,1090 106.4,1077.9 		"/>
		<path class="st0" d="M106.3,428.4l-0.8,2.2C105.6,435.5,106.5,436.5,106.3,428.4z"/>
		<path class="st0" d="M105.5,144.2c0.4-3.1,0.7-11.1,0.3-16C105.7,134.5,105.3,140.9,105.5,144.2z"/>
		<polygon class="st0" points="42.7,744.5 42.4,738.8 42.6,749.6 		"/>
	</g>
	<g>
		<path class="st0" d="M58.5,287.1l-5,0.7c-1.2,0.7-0.5,2.2,2.7,1.9L58.5,287.1z"/>
		<path class="st0" d="M75.1,292.6c3.8-1.3,8.1-3.5,5.7-5.9c-3.7,2.5-4.6,1.5-8.6,4.4c-3.2,0.3-5.6-0.8-5.1-1.8
			c-1.1,0.7-5-0.6-6.7,1.1c4.2,2,9.5,2.1,15,0.4C76.5,291.4,75.4,292.1,75.1,292.6z"/>
		<path class="st0" d="M107.8,310.2c-0.1-1.1-0.4-2-0.7-2.8c0.1,0.9,0.2,1.8,0.3,2.6C107.6,310,107.7,310.1,107.8,310.2z"/>
		<path class="st0" d="M43.2,788.6c0.2,0.1,0.3,0,0.4,0C43.4,788.2,43.2,788.1,43.2,788.6z"/>
		<path class="st0" d="M107.5,311.9c0,0.9,0,1.8,0,2.7C107.6,313.3,107.6,312.5,107.5,311.9z"/>
		<path class="st0" d="M46.3,1048.4c-1.6,0.9-2.1-7.4-2,2.6C44.9,1049.7,45.6,1049,46.3,1048.4z"/>
		<path class="st0" d="M106.6,310.2c0.6,0.3,0.8,0.8,1,1.7c0-0.6-0.1-1.3-0.1-1.9C107.1,309.8,106.8,309.8,106.6,310.2z"/>
		<path class="st0" d="M112.2,1574.8l-0.3,8.9C112.1,1581.2,112.2,1577.9,112.2,1574.8z"/>
		<path class="st0" d="M44.3,1452.3c-0.1,0.8,0,1.5,0.3,2.1L44.3,1452.3z"/>
		<path class="st0" d="M112.2,1610.2c-0.8,1.6-1.2,3.3-1.5,5c0.2,0.4,0.3,0.8,0.6,1L112.2,1610.2z"/>
		<path class="st0" d="M90,288.7c-0.9,0.1-1.7,0.3-2.2,0.5c-1.1,0.3-1.8,0.7-2.3,1.2c1.1,0.2,2,0.4,3.1,0.6c-0.9-0.5,0.2-1.7,2.1-2
			c3.8-0.8,6.7-0.6,8.2-0.2c1.5,0.5,1.7,1.3,1.6,1.7l-5.2,0.5c1,1.5,3,1.9,6.1,1.8c0.1,2.6,0.7,5.4,1.3,8.8c0.1,0.9,0.3,1.7,0.4,2.6
			c0.1,0.9,0.2,1.7,0.3,2.5c0.2,1.5,0.3,3,0.2,4.3l-2.7-2.8V293H57.4c-0.1-0.1-0.2-0.1-0.3,0h-3.5v0.8c-3.4-1.2-6.9-4-9.3,8.2
			l2.2,9.1l-1.8,2.9l-0.1-7.6c-1.7,4.3-0.2,7.1,0.8,10.1c-0.9,0.7-1.6,2-2,3.8l3.5,8.9c-1.4,1.1-2.8-4-3.6,2c1.6,4.2,3.2-4,4.3,2.9
			c-1.7,4.3-3,3.1-1.6,8.2c-0.9,0.7-1.5-0.4-2-2.4c1.1,4.5,0.5,12,2.4,14.3c-2,4.5,0.5,434.8-2.9,434.4c0.8,1.4,2.7,8,2.9,12.1
			c-4.1-7.6-0.2,15.6-4.7,13.6c3.7,5.6,1.7,20.3,3.7,30.3c-0.3-0.6-0.9-1.7-0.7-2.5c-0.3,5.6-1.4,7.2-2.1,10.8
			c3.1,0.7,3.8,9.5,5.7,14.2c-3,6.9-3.6-4.2-6.5-2c2.5-0.3,2.5,11.9,4.6,9.6c-1.8,5.3-0.9,4.5-3.4,7.2c3.8,0.9,0.7,4.9,3,9.3
			c-1.9,7.6-3.6,2-2.4,10.3c-1.2,4-2.5-3.5-2.5-3.5c-0.1,8.5,2.8,4,4.5,5.8c0.8,10.2-2.1,4.7-3.6,8.2c0.8,6.3,3.4,11.2,3.3,15.9
			c-0.5,0.4-0.7,1.3-1.2,0.2c2.3,6.7,0.1,111.4,3,119.2c-0.3,0.6-0.5,0.9-0.7,1c1.5-1.3,2.9-1.5,4-1.2c0,3.8,1.8,7.1-0.1,8.5
			c0.1-2.3-0.7-2.5-1.3-3.6l0.8,4c-2.7,3.6-0.9-5.5-3-5.5c0.9,7.8,3.1,16.9,2.4,22.9c-2.7,1.2-0.9-14-3.3-6l1-9.2
			c-4.2,7.1,0.3-5.6-4.2,0.9c-0.8,12.2,1.4,13.6,0.6,25.7c1.5,2.7,2.2-0.9,3.7,1.8c2.7,17.2-6.7,13.6-3.2,26.3
			c1.8,3.3,5.1,4.6,3.4,13.6l-3-3.1c-0.3,11.8,4.3,6.7,2.3,19.1c-1.2-2.2-1-9.3-1.4-7.5c-2.4,8,1.7,5.7,1.7,11.8l-2.7,1.3
			c0.4,12.5,2.3,26.4,2.8,40.2c-0.8-0.8-1.6-3.1-2.4,0.1c1.3,17.5-0.3,37.4-1.9,54.3l2.3,6.5c0,1.5-1,2.8-1.5,1.2
			c-0.9,6.6,1.5,0.3,2.4,3.5c0.2,3.7-1.3,4.9-2,2.6c2,11.6,4.2,33.1,1.7,45.3l-0.7-2.4c-0.9,9.5,4.7,10.8,2.6,19.6l-0.4-1.7
			c-1,20.7,1.1,43.6-2.4,59.3c3.3,3-1.5,20.5,3.1,21.8c-2.3,11.8-3.1,8.4-4.7,25.1c-0.2,4.4,2.9,6.6,3.4,12.1l-2.4,0.1l2.5,7.5
			l-2.9,4l0.6,5.2c0.1-2.1,1.1-4.4,1.8-4.1c1.1,8-1.7,19.6-2.9,19.8l2,19c-0.7-0.3-1.1-2.2-1.5-4.2c1.4,7.1-2.8,0.6-0.7,9.3
			c0.5-1.2,1.4,0.7,1.9,0.9c-1.5,4.6-1.5,15.2-0.9,23l-1.7-1.5c-0.4,14.1,0.8,29.8,0.8,45.6c0.8-5.7,3.7-4.4,3.9,0.3l-2.6,1.9
			c1.6,3,1-4.9,2.9,1.3c-0.3,5.9-2.9,4-3.7,0.6l0.9,7.2c-0.8,0.4-1.2-1.3-2.1-1.7c1.6,3-2.6,12.4,0.2,16.7l-0.8,0.4
			c0,15.8,0.9,23,1,35.9c2.2,0.3,1.7,5.3,3.5,9.1c-0.7,9.5-2.4,20-2.3,31.4c1.1,8,1.9,2.3,3.2,6c-2,0.6-1.8,12-3.3,6.1
			c0.3,13.7,0.4,17.5,2,34.9c0.8-1.9,1.2-4,1.9-2.9c0.3,3.1-0.8,7.2-1.8,6.7l-0.2-0.8c3,19.5-5.9,44.9-1.7,60.5l-0.2-0.9L46,1789
			c-0.3,7.4-1.5-4.4-2.8,1c0.8,4.3,1.2,8.2,1.4,11.8c0.2,3.7,0.1,7.2,0.1,10.5c0,6.7,0.2,13.1,2.3,20.4c-2.1,6.1-0.4,16.6,3.7,27.3
			c1,2.7,2.2,5.4,3.6,8.2c0.7,1.4,1.5,2.7,2.3,4.1c0.5,0.8,1,1.6,1.5,2.3c0.7,0.9,1.3,1.8,2,2.7c2.7,3.5,6,6.3,9.5,7.9
			c3.5,1.7,7.1,2.4,10.5,2.3c-0.6-0.4-1.1-0.8-1.6-1.2c3.2-1,4.9-1.6,6.7-1.9c1.7-0.4,3.4-0.6,5.5-2.2c-0.6-0.2-2.2,0.7-3.3,1.1
			c-1.2,0.4-1.7,0.4-0.2-1c2.8-2,5.2-4.6,7.1-7.6c0.5-0.7,1-1.5,1.4-2.1c0.3-0.6,0.7-1.1,0.9-1.7c0.6-1.1,1.1-2.2,1.7-3.3
			c2-4.4,3.6-8.7,4.9-13.1c2.7-8.7,4.6-17.4,6.1-26.2c1.5-8.8,2.5-17.7,3-26.6c0.5-8.5,1-16.9,1.3-25.3c0.4-12.3-7.2-7-3.9-22.4
			l2.6,4.4c-3.1-24.7,0.1-50.6-2.5-74.8c0.6,1.4,1.4,1.5,1.4,3.8c1.9-5.1,0.1-18.9-1.4-19c0.2-3.8,1.4-0.9,2.2-3.2
			c1.1-5.1-2.4-12.9-0.5-15.6c0.2-0.3,0.4,0.4,0.6,1.2c-0.5-4.4,0.2-14.1-1.7-11.2c1-9.1-1-17.4,0.3-24.6
			c-2.4-4.7,1.2-15.6-2.3-17.1c3.6,0.7,2.9-15.9,1.2-21.7c1.1,1.9,1.1-5,2.6-2.7c0-6.6-0.7-12.6-2.5-11.4c4.2-12.1-3.4-24.3,2-31.1
			c-1.9-19.5-3.2-37.5-4-55c3.5,0.6,0.4,19.4,4.1,18.6c-1.5-16.6-4.5-26.2-3.6-42.7c0.5-4.3,1.5,2.4,2.1,3.9
			c-1.5-16.6,0.3-32.1-1.6-46.9c0.3,0,0.7,1.6,1,3.1c-0.1-2.9,0.5-6.8-1.1-6.4l0.4,2.8c-2.3,4.6-4.9-11.6-6.1-12.1
			c4.6,4.9,1.2-14.6,7-6.7c-0.3-1.9-1.1-4.3-2.1-3.9c0.3-2.8,0.9-3.7,2.2-0.9c-0.9-10.4-2.6-6.7-2.6-16.2c0.8,0,1.1,1.9,2,2.9
			c-1.5-4.8-3-9.6-2.4-17.6c0.4,0.4,0.9-0.2,1,1.1c-0.4-13.2-4-22.8-2.5-37.5c3.4,4.4,1.1-5.1,4-5.9l-0.9-8.1l-1.4,3.2
			c0.1-7.1-2.1-13.3-1.1-19.4l1.2,5.3l-0.6-13.3l-1.1,7.5c-1.5-7.2-3.7,0.8-2.9-8.7c0.3,1.9,0-7.1,1.8-10.8l0,0
			c-0.9-3.5-1.9-7.1-1.2-12.4c0.9-1.4,3.2,1.1,3.9,0.2c-2.4-3.5-0.7-16.6-3.3-21c0.6,1.5,2.2,1.5,2.5,1.1l-2-2.9
			c0.6-3.3,0.9-3.8,2.2-3.2c0.4-9.9-3.7,3.1-2.1-8.6c0.2,0.9,0.5,0.5,0.8,2.4c0.8-11.8-1.3-22.7-0.3-33.6c2.9-3.2,0.7,9.4,3.2,5.8
			c-0.5-15.6-3.5-32.3-2.8-47.4l-0.3,2.8c-4.2-2.1,2.1-11.2,0.1-18.9c0.3,1.9,2.3,2.4,1.8,1.9c0.7-10.3-1-21.1-2.3-36.8l1.1,1.9
			c1-6.1,0.6-16,1-22.6c-1.1-2-0.9-5.7-2.4-3.4c6.1-20.3-3.3-130.2,1.8-148.2c0,2.2,0.9,5.1,0.9,3.4l-1-15.3c-1.8,1.2-1.1,2-2.5,5.2
			c-1.1-1.9-1.9-6.3-1.9-10.1c1.2,6.9,2.9-0.1,3.9-3c-0.6,0.5-1.2-0.5-1.7-0.3c3.2-8-3.6-1.3-1.5-12.3l1,0.6
			c-0.5-4.1-1.7-7.9-1.5-12.3c2.1-1.8,1,4.4,2.7,4.6c-0.1-6.2-4-12.2-1.9-17.8c0.6,2.6,0.6,6.4,1.2,9.1c2.5-6.1,1.8-6.8,2.2-11.4
			l-0.1,0.4l1.1-10.5l-0.7,2.7c-5.5-7.8-1-15.8-4.6-26.2c3.4,10.2,2,1.7,4.3,2.5c0.7-2.7,1.4-6.7,2.1-5.6c-1.9-4.9,1.5-8.2-1.3-15.2
			c0.8-0.3,0.1-5.3,2-4.2c-0.6-6.4-1.3,1.5-2.3,1c-2.6-9.9,3.2-442.8-0.4-457c-1.4-11.3-3.6-14.1-5-23.3V326
			c1.2-1.8,2.4,3.9,2.4,3.9c1.1-6.2,0.9-10.9,0-16.7c0.7,1.2,1.2,0,2.1-1.8c-0.1-2.3-0.8-3.1-1.3-4.1c-0.3-0.5-0.5-1-0.6-1.8
			s0-2.2,0.2-4.1c0.4,0.5,1,1.2,1.5,2.2c0.3,0.5,0.6,1.1,0.8,1.7c0.3,0.5,0.5,1,0.7,1.5l-0.3-1.8l-0.3-2.5c-0.2-1.6-0.4-3.2-0.7-4.8
			c-0.4-2.9-0.9-5.7-1.3-8.7c-1.1,0.1-2.2,0.2-3.3,0.3c-0.5-0.8,1.8-1.4,4.9-1.9c0.3,1.2,0.6,2.7,1,3.6c-0.1-1.3-0.2-2.8-0.3-4.3
			c-4.8,0.3-9.9,0.6-14,1.1C91.9,288.4,90.9,288.5,90,288.7z M47.7,1188.3c-0.1-1.7-0.1-3.2-0.1-4.1
			C47.6,1185.1,47.6,1186.3,47.7,1188.3L47.7,1188.3z M47.8,1197.8c0.8-0.6,1.5,0,1.5,1.7c-0.5-0.9-0.9,3-1.6,5.5
			C47.8,1203,47.8,1200.5,47.8,1197.8z M103,947.4c-0.5,0.2-1.2,0.4-1.9,0.2V942C101.9,942.4,102.6,943.9,103,947.4z M103,359.8
			l-1.9,2.3v-6.7C101.7,355.9,102.3,357.1,103,359.8z M103.2,315.9c-0.5,1.1-1.4,1.9-2.1,1.6v-8.1L103.2,315.9z"/>
		<path class="st0" d="M88.7,290.8c0.2,0.1,0.6,0.2,1.2,0.2C89.5,291,89.1,290.9,88.7,290.8z"/>
		<path class="st0" d="M108,1355.4c0,0.3,0,0.6,0,0.9C108,1355.9,108,1355.6,108,1355.4z"/>
		<path class="st0" d="M43.7,1482.9c0-0.2-0.1-0.4-0.1-0.7C43.6,1482.4,43.7,1482.7,43.7,1482.9z"/>
		<path class="st0" d="M43.6,1482.2c-0.1-0.4-0.2-0.8-0.3-1.3C43.4,1481.4,43.5,1481.8,43.6,1482.2z"/>
		<path class="st0" d="M112.1,1651c0.1,0.5,0.1,0.9,0.2,1.2C112.3,1651.9,112.2,1651.5,112.1,1651z"/>
		<polygon class="st0" points="43.5,1435.7 44.1,1435.7 43.6,1434.3 		"/>
		<path class="st0" d="M105.4,905.2c0.2-0.2,0.4-0.5,0.6-1.2C105.9,904,105.7,904.6,105.4,905.2z"/>
		<path class="st0" d="M105.9,865.4l0.8-5.6C106.3,862.2,106.1,864,105.9,865.4z"/>
		<path class="st0" d="M107,834.9c-0.4-0.4-0.7-0.5-0.9-0.6v0.1L107,834.9z"/>
		<path class="st0" d="M109.6,1412.3c0,0.4,0,0.8,0.1,1.2C110.1,1416.2,110,1414.4,109.6,1412.3z"/>
		<path class="st0" d="M104.5,1267.7c0.4,1.5,0.8,3,1,4.6C105.7,1269.8,105.7,1267.8,104.5,1267.7z"/>
		<path class="st0" d="M112.3,1573.8C112.3,1573.8,112.2,1573.8,112.3,1573.8c0,0.3,0,0.6,0,1V1573.8z"/>
		<path class="st0" d="M105.5,1279.1c0.4-2.6,0.3-4.7,0-6.7C105.4,1274.5,105.1,1276.9,105.5,1279.1z"/>
		<path class="st0" d="M89.9,286.4l2.6-0.3l-2.3-0.1C90.2,286.2,90.1,286.3,89.9,286.4z"/>
		<path class="st0" d="M87.8,286.7c0.6,0,1.8,0,2.1-0.3l-1.2,0.1C88.2,286.6,88.1,286.6,87.8,286.7z"/>
		<path class="st0" d="M84.3,287.2l3.4-0.6C86.6,286.7,85.1,286.6,84.3,287.2z"/>
		<path class="st0" d="M107,323.4l0.8,0.5C107.6,323.6,107.4,323.4,107,323.4z"/>
		<path class="st0" d="M107.2,335.7c0.2-2.9,1.7-7.4,1.2-11.4l-0.6-0.4C109,325.8,105.9,332.9,107.2,335.7z"/>
		<polygon class="st0" points="107.7,1200.8 105.9,1198.8 106.5,1204.9 		"/>
	</g>
</g>
</svg>
