<?xml version="1.0" encoding="utf-8"?>
<!-- Generator: Adobe Illustrator 25.2.1, SVG Export Plug-In . SVG Version: 6.00 Build 0)  -->
<svg version="1.1" id="Layer_1" xmlns="http://www.w3.org/2000/svg" xmlns:xlink="http://www.w3.org/1999/xlink" x="0px" y="0px"
	 viewBox="0 0 500 500" style="enable-background:new 0 0 500 500;" xml:space="preserve">
<style type="text/css">
	.st0{fill:#202020;}
	.st1{fill:none;stroke:#000000;stroke-width:8;stroke-miterlimit:10;}
	.st2{fill:#202020;stroke:#000000;stroke-width:3;stroke-linejoin:round;stroke-miterlimit:10;}
	.st3{fill:#1D1D1D;stroke:#000000;stroke-width:3;stroke-linejoin:round;stroke-miterlimit:10;}
	.st4{fill:#FFFFFF;stroke:#000000;stroke-width:4;stroke-linejoin:round;stroke-miterlimit:10;}
	.st5{fill:#1D1D1D;stroke:#000000;stroke-width:4;stroke-linejoin:round;stroke-miterlimit:10;}
</style>
<g>
	<g>
		<g>
			<g>
				<g>
					<path class="st0" d="M277.5,304.7c0.1-0.2,0.2-0.5,0.1-0.5l-0.3,0.6L277.5,304.7z"/>
					<path class="st0" d="M277.5,303.3c-0.2,0.3-0.4,0.9-0.5,1.5c0.2-0.6,0.2-0.3,0.5-1.1c0.1-0.1,0,0.2-0.1,0.5
						c0.1-0.2,0,0.2,0.2-0.2c0.1-0.5,0-0.6-0.2-0.2C277.4,303.7,277.5,303.4,277.5,303.3z"/>
					<path class="st0" d="M270.3,304.1L270.3,304.1L270.3,304.1z"/>
					<path class="st0" d="M267,307.8l-0.1-0.1C267,307.7,267,307.8,267,307.8z"/>
					<path class="st0" d="M266.1,308.4C266.1,308.4,266.1,308.3,266.1,308.4C265.9,308.3,265.9,308.3,266.1,308.4z"/>
					<path class="st0" d="M270.3,304.1l-0.2-0.1C270.2,304.2,270.2,304.1,270.3,304.1z"/>
					<path class="st0" d="M276.3,304.8c0,0,0-0.1,0.1-0.2c0,0,0,0,0,0.1C276.4,304.7,276.4,304.7,276.3,304.8z"/>
					<path class="st0" d="M271.8,302.4L271.8,302.4c0-0.1,0-0.2-0.1-0.3L271.8,302.4z"/>
					<path class="st0" d="M273.4,301.6c0,0,0.1,0.5,0.2,0.9c0-0.2-0.1-0.3,0-0.4C273.5,302,273.5,301.7,273.4,301.6z"/>
					<path class="st0" d="M276.3,302.4L276.3,302.4C276.3,302.3,276.3,302.4,276.3,302.4z"/>
					<path class="st0" d="M270.6,302.9c0-0.1-0.1-0.1-0.1-0.2C270.5,302.8,270.6,302.9,270.6,302.9z"/>
					<path class="st0" d="M277.8,306.4L277.8,306.4L277.8,306.4z"/>
					<polygon class="st0" points="278.1,303.2 278.1,303.2 278.2,302.9 					"/>
					<path class="st0" d="M264.8,309.8L264.8,309.8C264.8,309.6,264.8,309.8,264.8,309.8z"/>
					<path class="st0" d="M273.1,322.5c-0.1-0.5,0.3-0.6,0.1-1.3C273.2,321.4,272.9,322.1,273.1,322.5z"/>
					<path class="st0" d="M276.3,304.7L276.3,304.7L276.3,304.7z"/>
					<path class="st0" d="M273.2,321.2L273.2,321.2L273.2,321.2L273.2,321.2z"/>
					<path class="st0" d="M264.9,313.8c0.1,0,0.2,0,0.2-0.1C265.1,313.8,265,313.8,264.9,313.8z"/>
					<path class="st0" d="M265.8,310.9L265.8,310.9C265.7,311,265.8,310.9,265.8,310.9z"/>
					<path class="st0" d="M265.9,315.2c0,0-0.1,0.1,0,0.1C266.1,315.3,266.1,315.3,265.9,315.2C265.9,315.3,265.9,315.2,265.9,315.2
						z"/>
					<path class="st0" d="M266.5,316.6C266.5,316.6,266.6,316.6,266.5,316.6L266.5,316.6L266.5,316.6z"/>
					<path class="st0" d="M279.4,308.3c0.1-0.1,0.3-0.1,0.5-0.2C279.5,308.1,279.3,308.1,279.4,308.3z"/>
					<path class="st0" d="M276.4,304.5c0,0.1,0,0.2-0.1,0.2l0,0C276.4,304.6,276.4,304.5,276.4,304.5z"/>
					<path class="st0" d="M270.6,314v0.1C270.6,314.1,270.6,314.1,270.6,314z"/>
					<path class="st0" d="M278.6,314.8L278.6,314.8C278.4,314.7,278.4,314.7,278.6,314.8z"/>
					<path class="st0" d="M270.8,314.6c-0.2,0.1-0.3,0.1-0.3,0.2h0.1L270.8,314.6z"/>
					<path class="st0" d="M279.8,308L279.8,308L279.8,308z"/>
					<path class="st0" d="M278.2,307.8c0,0.1,0.7-0.3,1.1-0.5c0.3,0-0.4,0.3-0.9,0.5c0.2,0,0.9-0.3,0.9-0.2
						c-0.1,0.1-0.1,0.1-0.3,0.1c0.6-0.2,0.1,0.2,1,0.1c-0.1,0-0.1,0.1-0.2,0.1c0.3-0.2,0.7-0.3,1-0.4c0,0.1,0.5,0,0,0.2
						c0,0-0.2,0-0.3,0.1h0.2c-0.6,0.3-0.3,0-0.7,0.2c0.3,0,1,0,0.7,0.2c-0.6,0.2-0.3-0.2-0.9,0.1c0.1-0.1,0.1-0.1,0.2-0.2
						c-1.1,0.5,0-0.1-1.1,0.4c-0.1,0.2,0.4,0.1,0.2,0.3c0.4-0.1,0.5-0.2,1-0.2c0.7,0.1-1.7,0.6-0.7,0.6c0.5,0,1.4-0.2,1,0.1
						l-0.9,0.1c0,0.2,1.2-0.1,0.6,0.2c-0.3,0-0.3-0.1-0.4-0.1c-0.6,0.2,0.4,0,0.4,0.1l-0.7,0.1c0.1,0.2,0.6,0.4,0.9,0.6
						c-0.2,0-0.4,0-0.6,0c0.4,0.3-0.1,0.6-0.5,0.9l0.6,0.2c0,0-0.3,0-0.4,0c-0.2,0.1,0.4,0.1,0.6,0.1c0,0.1-0.3,0-0.5,0
						c0.5,0.2,1.1,0.9,0.3,0.9l-0.2-0.1c-0.3,0.1,1.2,0.5,0.5,0.5l-0.1-0.1c-0.4,0.3,0,0.9-1,0.7c0.7,0.4-0.5,0.1,0.6,0.7
						c-0.6-0.1-0.9-0.2-1.3-0.2c-0.1,0,0.6,0.5,0.6,0.6l-0.5-0.3l0.5,0.4l-0.7-0.3l0.1,0.2c0,0,0.3,0.1,0.4,0.2
						c0.2,0.3-0.5,0-0.9-0.1c0.1,0.2,0.2,0.4,0.2,0.5c-0.2-0.2-0.2-0.2-0.3-0.4c0.4,0.5-0.5-0.4-0.2,0.1c0.1,0.1,0.3,0.2,0.4,0.3
						c-0.3-0.2-0.4,0-0.4,0.1l-0.3-0.3c-0.2,0.1-0.1,0.5-0.3,0.6c0.2,0.1,0.7,0.6,0.7,0.7l-0.5-0.5c0.2,0.3,0.2,0.1,0.5,0.6
						c-0.1,0-0.5-0.5-0.6-0.7l0.1,0.2c-0.1-0.1-0.2-0.2-0.3-0.4c0.2,0.3-0.5-0.4-0.2,0.2l-0.1-0.1c-0.2,0.1-0.1,0.4-0.3,0.5
						c0.3,0.5,0.2,0.4,0.4,0.9c-0.2-0.1-0.6-0.4-0.7-0.3c0,0.3,0.2,0.4,0.3,0.9c-0.2-0.5-0.4-0.3-0.4-0.7c-0.1,0.2-0.2,0.2-0.3,0.7
						c0.1,0.2,0.2,0.3,0.2,0.4c0,0.1-0.2-0.2-0.2-0.4v-0.1c0,0.4-0.3,0.1-0.5-0.2c-0.2-0.3-0.4-0.6-0.4,0v-0.1
						c0,0.2-0.1,0.4-0.2,0.6c-0.1-0.1,0-0.4-0.1-0.7c-0.1,0.4-0.2,0.4-0.3,0.3c-0.1-0.1-0.1-0.2-0.3,0.1c0-0.9-0.1-0.7-0.2-0.7
						c-0.1,0.1-0.3,0.2-0.2-0.3l-0.1,0.3c-0.1,0.3,0-0.2,0-0.3c-0.1,0.3-0.1,0.3-0.1,0.5c-0.3,0.2-0.4-0.1-0.5-0.4
						c-0.1-0.3,0-0.7-0.1-1c0-0.1-1.4,1.5-0.9,0.6l0.5-0.4c-0.4,0.2-0.5,0.1-0.6-0.1c-0.1-0.1-0.2-0.3-0.5-0.2
						c0.1-0.1,0.3-0.2,0.3-0.1c0.4-0.3-0.1-0.2-0.5,0c0-0.1,0.3-0.2,0.5-0.3c0.2-0.2-0.6,0.1-0.2-0.1c0.1,0,0.1-0.1,0.2-0.1
						c-0.2,0.1,0-0.2-0.5,0.1c0.2-0.2-0.3-0.1-0.1-0.4c-0.6,0.1,0.2-0.3-0.6-0.1c1-0.3,0.6-0.4,0.2-0.4c0.3,0,0.3-0.1,0.6-0.2
						c0-0.1-0.2-0.1-0.7,0c1.1-0.4-1-0.2,0.4-0.6c-0.5-0.2-1-0.5-1.2-0.9c1,0,0.1,0.3,1.1,0.3c-0.4-0.2-1.3-0.4-1-0.7
						c0.1-0.1,0.4,0.1,0.5,0.1c-0.3-0.3,0.1-0.5-0.3-0.9c0.1,0,0.2,0.1,0.2,0.1c0-0.1,0.1-0.1-0.3-0.1l0.1,0.1
						c-0.6,0-1.3-0.4-1.6-0.5c1.2,0.3,0.3-0.2,1.9,0.2c-0.1,0-0.3-0.1-0.5-0.2c0.1,0,0.3,0,0.5,0.1c-0.2-0.2-0.6-0.3-0.6-0.4
						c0.2,0,0.3,0.1,0.5,0.2c-0.4-0.2-0.7-0.4-0.5-0.4c0.1,0,0.3,0.1,0.3,0.1c0-0.2-1-0.7-0.4-1c0.9,0.4,0.3,0,1.1,0.3l-0.2-0.2
						l-0.4-0.1c0.1-0.1-0.4-0.4-0.1-0.4l0.2,0.2v-0.3h-0.3c-0.3-0.3-1-0.4-0.6-0.5c0.1,0.1,0.1-0.1,0.5,0l0,0
						c-0.2-0.2-0.4-0.3-0.2-0.4c0.2,0.1,0.7,0.4,1,0.5c-0.5-0.4,0-0.3-0.5-0.9c0.1,0.1,0.5,0.3,0.5,0.3l-0.4-0.3
						c0.2,0,0.2,0.1,0.5,0.2c0.2-0.1-0.9-0.4-0.4-0.4l0.1,0.1c0.3-0.1,0-0.5,0.3-0.6c0.6,0.4,0,0.2,0.6,0.6c0-0.3-0.4-1.1,0-1.2
						h-0.1c-0.9-0.7,0.5,0.2,0.3-0.2c0,0.1,0.4,0.4,0.3,0.4c0.2,0,0.1-0.4,0.1-1l0.2,0.2c0.2,0.1,0.3-0.1,0.5-0.1
						c-0.1-0.2-0.1-0.2-0.3-0.5c0.6,0.5,0.6,0.2,0.6-0.1s0-0.6,0.5-0.1c0,0,0,0.3,0.1,0.2c0-0.1,0.1-0.2,0.1-0.3
						c-0.2-0.4-0.2-0.2-0.4-0.5c-0.1-0.3-0.1-0.5,0-0.5c0,0.3,0.3,0.7,0.5,1c-0.1-0.1-0.1-0.3-0.2-0.4c0.5,0.7-0.4-1,0.1-0.5
						l0.1,0.2c0-0.1,0-0.5,0.1-0.4c0.2,0.5,0,0.3,0.2,0.7c0.1-0.1-0.1-1.1,0.2-0.6c0,0.2-0.1,0.2-0.1,0.3c0.3,0.5,0.3,0.4,0.4,0.5
						l0,0c0.1,0.1,0.2,0.1,0.3,0.2l-0.1-0.2c-0.3-1.5,0.2-0.3,0.2-1.4c0,1,0.1,0.5,0.2,1.2c0.1,0.2,0.2,0.3,0.2,0.5
						c0-0.5,0.2,0.4,0.2-0.4c0,0.2,0.1,0,0.1,0.5c0.1-0.2-0.1-0.3-0.1-0.6s0.2-0.2,0.3,0c0.1,0.2,0.2,0.3,0.3-0.2
						c0.2-0.4,0.3-1.1,0.5-1.4c0.1,0.3-0.1,0.7-0.1,0.7c0.1,0.3,0.2,0.2,0.3,0c0,0.2,0,0.3,0,0.5c0.1,0,0.2-0.7,0.2-0.4
						c-0.1,0.2-0.1,0.6-0.2,0.9c0.1-0.2,0.3-0.5,0.4-0.7c0,0.3-0.2,0.5-0.2,0.7c0.1-0.1,0.3-0.3,0.5-0.9v-0.2c0.1,0-0.1,0.5-0.1,0.5
						c-0.2,0.4-0.1-0.2-0.1-0.4l0.1-0.1c0.2-1.2-0.4,0.1-0.5,0l0.2-0.9c-0.1,0.2-0.2,0.4-0.3,0.7c0-0.2,0-0.7,0.1-0.9
						c-0.1-0.4-0.1,0.3-0.2-0.2c0-0.1,0-0.1,0-0.1l-0.1,0.2c0-0.2,0-0.6,0.1-0.5c-0.2-0.5-0.4,0.6-0.5,0v-0.1
						c-0.3,0.3,0,0.6-0.2,1.4c-0.1-0.5-0.2-1.1-0.3-1.6v0.6c0,0-0.1-0.1-0.1-0.3c-0.1,0.4,0,0.3,0,0.7c-0.2-0.5-0.4,0.3-0.6-0.6
						c0,0.5,0.2,0.3,0.1,0.7c-0.2-1.1-0.2,0.2-0.4-0.2c-0.1-0.5,0.1-0.3-0.1-0.7c0.1,1-0.3-0.1-0.4,0.1c0.2,0.7-0.2,0.4-0.3,0.7
						c-0.1-0.2-0.5-0.2-0.9-0.4V302c0.3,0.7,0,0.7,0,1c-0.2-0.4-0.2-0.6-0.3-0.9l-0.1,0.1c0.1,0.2,0.1,0.4,0,0.5l-0.2-0.5
						c-0.2,0.1,0,0.9-0.4,0.6c0.3,0.4,1,1.2,1,1.6c-0.2-0.2-0.4-0.6-0.4-0.9c0,0,0.1,0.2,0,0.2l-0.2-0.4c-0.2-0.1,0.2,0.4,0.1,0.4
						c-0.2-0.3-0.2-0.2-0.4-0.5c0,0,0.2,0.1,0.1-0.1c-0.1,0-0.4-0.1-0.6-0.4c0.1,0.2,0.3,0.4,0.3,0.5c-0.1,0.1-0.3-0.3-0.5-0.4
						c0.1,0.3-0.2,0.1,0.2,0.6c0,0-0.2-0.2-0.3-0.3c0.1,0.3-0.3,0.4,0.2,0.9l0,0l0,0l0,0l0,0c0.2,0.7-0.7,0.2-0.9,0.6l-0.1-0.1
						c0,0.3-0.2,0.4,0,0.9c0,0-0.4-0.1-0.5-0.3c0,0.2,0.2,0.4-0.2,0.3c-0.2-0.3-0.3-0.1-0.1-0.3c-0.3,0-0.5-0.1-0.2,0.4
						c-0.4-0.4-0.6-0.3-0.5-0.1l0.4,0.1c0,0.1-0.1,0.2-0.2,0.2l-0.5-0.4c-1-0.1,0.7,1.4-0.6,1c0.4,0.3,0.4,0,0.9,0.3
						c-0.2,0.1-1.2-0.2-1.2-0.1c-0.5,0.1,0.7,0.7,0.4,0.9c0.2,0.1,0.9,0.3,1,0.6c-0.1,0.1-1.1-0.2-1.2-0.4h0.1
						c-0.1-0.1-0.1-0.2-0.4-0.2l0.2,0.1c-0.3,0-0.3,0.2-0.7,0c0.1,0.2,0.3,0.2,0.5,0.2c-0.4,0.1-0.2,0.3-0.5,0.5
						c0.1,0,0.4,0.1,0.4,0.1c-0.4,0.2,0.4,0.3,0.4,0.6c-0.4,0-0.9-0.3-0.6,0c-0.3,0.1-0.6-0.2-0.9-0.3c0.4,0.4-0.4,0.3-0.5,0.5
						l-0.2-0.2c0.1,0.1,0.1,0.2,0.1,0.2h0.5c-0.1,0.1-0.1,0.1-0.3,0.1c0.3,0.1,0.9,0.1,1.3,0.4c-0.3,0,0.2,0.3-0.4,0.2
						c0.3-0.2-0.6-0.1-0.7-0.4c0.1,0.1,0,0.1-0.1,0.2c-0.1,0-0.1,0-0.2-0.1c-0.6,0.2,0.7,0.3,0.6,0.6c-0.3-0.1-0.7,0-0.6,0
						c0-0.1,0.6,0,0.9,0.2c-0.3,0.1,0.2,0.2,0.1,0.3l0.1-0.1c0.3,0.1,0.3,0.2,0.4,0.3c-0.3,0-0.2-0.1-0.3-0.1
						c0.6,0.2-0.7,0.2-0.3,0.5c-0.2,0.1-0.7,0-0.9,0c0.4,0.3-0.5,0.2-0.1,0.5c0.5-0.1,0.4-0.1,0.9,0.1c-0.1-0.1-0.2-0.3-0.3-0.4
						l0.7,0.3c0-0.1-0.3-0.3-0.2-0.3c0.4,0.1,0.3,0.1,0.7,0.1c-0.7,0.1,0.4,0.3-0.1,0.5h-1.3c-0.5,0.3,0.6,0.5,0.3,1l0.2-0.1
						c0.5,0,0.1,0.2,0.3,0.3c-0.4,0-0.5,0.1-0.9,0.2c0.3,0,0,0.3,0.9,0.2l-0.5,0.2c-0.2,0.3,1.3,0.1,1.2,0.4c-0.4,0-0.7,0.2-1.1,0.1
						c0,0.1,0,0.2,0.2,0.1c-0.2,0.1,0.6,0.1,0.2,0.3c0.2,0,0.6-0.1,0.6,0c-0.1,0-0.2,0.1-0.2,0.1c0.2,0,0.3,0.1,0.7-0.1
						c-1.2,0.6,0.3,0.7-0.6,1.4c0.2,0.1,0.4,0.3,0.5,0.5c-0.1,0-0.2,0.1-0.2,0c-0.2,0.4,1.2-0.4,0.9,0c-0.5,0.4-0.4,0-0.5,0.2
						c-1.2,0.7,0.3,0.2-0.2,0.9H267c-0.3,0.4,0.6,0.1,0.7,0.3c0,0-0.1,0.1-0.2,0.1c0.6-0.3,1.1-0.2,1.4-0.1
						c-0.4,0.3-0.3,0.1-0.6,0.5c0.1,0,0.6-0.6,0.9-0.5c-0.2,0.2-0.2,0.5-0.6,1l-0.2-0.1c-0.4,0.6,0.2,0.2,0.2,0.3l-0.2,0.2
						c0.3,0.2,0.9-0.5,1.2-0.2l0.1-0.2c0.6-0.5-0.1,0.5,0.3,0.1l-0.4,0.7c0.2-0.1,0.9-0.4,1.1-0.4c-0.4,0.5-0.9,0.6-1.2,0.9
						c0.1,0.1,0.4,0.2,0.7-0.1c-0.1,0-0.2,0.2-0.2,0c0.4-0.4,0.7-0.6,1-0.5c-0.7,1.5,0.4,0.6,0.2,1.9c0.6-0.4,1,0.5,1.6,0.5
						c0-1.3,0.2,0,0.3-1.3c0.1-0.1,0.2,0,0.2,0c0.1,0.3,0.2,0.5,0.3,0.9c0.1,0.4-0.1,0.3-0.1,0.5c0.3,0.1,0.1,0.5,0.3,1
						c0-0.4,0.1-0.6,0.3-0.5l-0.2-0.6c0.4-0.7,0.4,1.1,0.9,0.4l-0.1,0.4c0.2-0.2,0.9-0.1,1-1.2c0.1,0.1,0.2,0.5,0.1,0.6
						c0.6,0,0.9-1.4,1.4-0.9l0.1,0.3c0.1-0.1,0-0.6,0.2-0.3c0,0.1,0.1,0.3,0.1,0.3c0-0.1,0-0.6,0.2-0.5v0.3c0.6,0.2,0.3-1.2,0.5-1.5
						c0.4,0.9,1,0.9,1.2,1l0.1,0.1c0.6-0.2,0.4-1.2,0.5-1.8c0.9,0.5,1.1-0.4,1.8-0.4c-0.2-0.1-0.5-0.5-0.5-0.6
						c0.2,0-0.3-0.6,0.3-0.1l0,0c0.7,0.5,0.6,0.1,0.9,0l-0.9-0.7c0.7,0.3,0.9,0,0.9-0.4c0-0.3,0-0.6,0.7-0.4
						c-0.2-0.2-0.1-0.4-0.3-0.6l0.5,0.3c0.3-0.2,0.4-0.3,0.5-0.7l0.3,0.2c0.1-0.2-1.5-1-1.4-1.2l0.9,0.3c0.1-0.3,1.1-0.5,0.4-1.2
						c0.1,0,0.3,0.1,0.4,0.2c0.1-0.2,0.9-0.5-0.4-0.9c0.7,0.2,0.2-0.4-0.1-0.6l0.5,0.1c-0.7-0.3-0.9-0.4-1.1-0.6
						c0.1,0,0.4,0,0.3,0.1c0.3-0.1-0.5-0.2-0.2-0.4l0.3,0.1c0.1-0.2-0.1-0.2-0.5-0.3c-0.2-0.1,0.2-0.3,0.7-0.3
						c-0.3-0.1-0.7-0.2-0.6-0.3c0.2,0,0.3,0,0.4,0.1c0.4-0.3-0.6-0.5-0.1-0.7c0.2,0,0.3,0,0.3,0c0,0.3-0.1,0.4-0.1,0.4
						c0.5,0,0.6-0.2,1.4,0c-0.4-0.2-1.3-0.5-1.1-0.7c0,0,0.1,0,0.2,0h0.1c0.1,0,0-0.1-0.1-0.1c0.1-0.1,0.1-0.1,0.2-0.2
						c0.4,0,0.2-0.3,0.2-0.4c-0.6,0-0.5-0.1-1,0.1c0,0,0.1,0,0.1,0.1c0,0,0,0,0.1,0l0,0c0,0.1,0,0.2,0,0.2c-0.3-0.1-0.5-0.1-0.2-0.3
						c-0.4,0-0.7-0.1-1-0.1c0.9-0.2,1.3-0.5,1.7-0.6c-0.3-0.3-0.3-0.7-1.5-0.7c-0.1-0.1,0.3-0.2,0.4-0.2c0.1,0,0.1,0.1,0.3,0.1
						c-0.3-0.1-0.2-0.5-1-0.3c0.3-0.3,0.7-0.1,0.5-0.3h0.2c0.5-0.5-0.1-0.6-0.5-0.7c-0.5-0.1-1-0.1-0.4-0.7
						c-0.1,0.1-0.1,0.1-0.2,0.2c0.1-0.5-0.2-0.9-0.5-1.1c-0.3-0.3-0.6-0.5-0.4-1.2c0-0.3-0.4,0-0.7,0.2l0.4-0.5
						c-0.2,0.1-0.4,0.2-0.6,0.4c-0.3,0.1-0.1-0.3-0.1-0.6c0.1-0.3,0.1-0.7-0.4-0.4L280,303c-0.1-0.1-0.5,0-0.2-0.4
						c-0.1,0.1-0.3,0.3-0.2,0.1l0.2-0.3c-0.2,0.1-0.4,0.2-0.6,0.3c-0.1-0.3,0.6-1.2,0.2-1.4c-0.2,0-0.9,0.7-0.9,1
						c0,0,0.1,0.2-0.1,0.5l-0.2,0.1c-0.4,1-0.7,1.8-0.9,2.6c0.1-0.2,0.2-0.3,0.3-0.5l-0.2,0.4h-0.1c-0.1,0.4,0.1,0.1,0.2-0.1
						c-0.1,0.2-0.2,0.4-0.2,0.5c0.2-0.3,0.3-0.5,0.5-0.7c-0.2,0.3-0.4,0.6-0.4,0.9c0.3-0.3,0.4-0.7,0.6-1c-0.2,0.4-0.4,0.7-0.1,0.4
						c-0.1,0.2-0.2,0.3-0.3,0.4c0.2-0.2,0.2,0,0.5-0.4c-0.2,0.5,0.3,0-0.3,0.7c0.1-0.2,0.5-0.5,0.6-0.5c-0.9,0.7,0.1,0.2-0.7,1.1
						c0.7-0.6,0.5-0.1,1-0.4c-0.1,0-0.2,0.1-0.2,0.1c0,0.1-0.2,0.3-0.3,0.5c0.6-0.5,0.9-0.5,1.4-0.7c-0.5,0.5-0.9,0.5-1.4,1.1
						c0.5-0.4,0.6-0.3,1.1-0.6c-0.3,0.3-0.1,0.2-0.7,0.6c0.9-0.5,0.2,0,0.7-0.3c-0.3,0.4-0.9,0.5-0.5,0.4
						C278.6,307.7,278.2,307.8,278.2,307.8z M280.7,310.4L280.7,310.4L280.7,310.4L280.7,310.4z M280.7,310.7v-0.1
						c0.2,0,0.4,0,0.4,0C281,310.6,280.9,310.7,280.7,310.7z M284.9,309.9c0.1,0.1,0,0.1-0.1,0.1c0,0,0-0.1-0.1-0.1c0,0,0,0-0.1,0
						C284.6,309.9,284.8,309.9,284.9,309.9z"/>
					<path class="st0" d="M284.1,309.8C284,309.8,284,309.8,284.1,309.8c-0.1,0-0.1,0-0.2,0H284.1L284.1,309.8z"/>
					<path class="st0" d="M270.4,304.1L270.4,304.1C270.4,304.2,270.4,304.2,270.4,304.1C270.4,304.2,270.4,304.2,270.4,304.1z"/>
					<path class="st0" d="M278.4,314.3l0.1,0.1L278.4,314.3z"/>
					<path class="st0" d="M273.2,304.7l0.1,0.1C273.3,304.8,273.2,304.8,273.2,304.7z"/>
					<path class="st0" d="M274,304.6l0.2,0.2C274.1,304.6,274.1,304.6,274,304.6z"/>
					<path class="st0" d="M274.6,304.7c0-0.1,0-0.2,0-0.2l0,0V304.7z"/>
					<path class="st0" d="M269.8,311.5L269.8,311.5C269.9,311.6,269.9,311.6,269.8,311.5z"/>
					<path class="st0" d="M269.3,308.4c0.1,0.1,0.2,0.1,0.2,0.2C269.6,308.6,269.6,308.6,269.3,308.4z"/>
					<path class="st0" d="M270.6,314L270.6,314L270.6,314L270.6,314z"/>
					<path class="st0" d="M269.5,308.8c0.1,0,0.1,0,0.1-0.1C269.5,308.7,269.4,308.7,269.5,308.8z"/>
					<path class="st0" d="M276.7,304.9L276.7,304.9C276.8,304.9,276.8,304.9,276.7,304.9L276.7,304.9z"/>
					<path class="st0" d="M276.8,304.8L276.8,304.8L276.8,304.8z"/>
					<path class="st0" d="M277,304.7l-0.1,0.1C276.8,304.8,276.8,304.8,277,304.7z"/>
					<path class="st0" d="M276.2,304.6v0.2C276.1,304.7,276.2,304.7,276.2,304.6z"/>
					<path class="st0" d="M276,304.6c0,0.1,0.1,0.4,0.2,0.3v-0.2C276.1,305.2,276,304.3,276,304.6z"/>
					<path class="st0" d="M274.7,302.1l0.3,0.1c-0.1-0.2-0.2-0.5,0-0.6C274.5,300.9,275,302.1,274.7,302.1z"/>
					<path class="st0" d="M273.9,301.8c0.1-0.1-0.1-0.3-0.1-0.4C273.6,301.6,273.6,301.6,273.9,301.8z"/>
					<path class="st0" d="M268.7,305.1l-0.4-0.3C268.3,304.8,268.5,304.8,268.7,305.1z"/>
					<polygon class="st0" points="270.4,307.6 270.8,307.7 270.3,307.4 					"/>
					<polygon class="st0" points="266.8,306 266.7,305.9 266.8,306.2 					"/>
					<path class="st0" d="M265.8,316.6l0.6-0.3C266.4,316.3,265.6,316.5,265.8,316.6z"/>
					<path class="st0" d="M269.3,320c-0.2,0.3-0.2,0.5,0.1,0.3C269.3,320.2,269.4,320,269.3,320z"/>
					<polygon class="st0" points="282.3,318.2 282.5,318.4 282.4,318.2 					"/>
				</g>
			</g>
		</g>
	</g>
</g>
<path class="st1" d="M279.1,304.1"/>
<g>
	<g>
		<g>
			<g>
				<g>
					<path class="st2" d="M252.2,197.6c-0.3-0.5-0.9-0.2-0.7,1.3l1.1,1.1L252.2,197.6z"/>
					<path class="st2" d="M250.2,208.1c0.5,1.8,1.4,4,2.4,2.8c-1.1-1.8-0.6-2.2-1.8-4.3c-0.1-1.6,0.3-2.8,0.7-2.5
						c-0.3-0.5,0.2-2.5-0.4-3.3c-0.9,2-0.9,4.6-0.2,7.3C250.7,208.8,250.3,208.2,250.2,208.1z"/>
					<path class="st2" d="M272.6,284.5c-0.2-0.1-0.5-0.1-0.7-0.2C272,284.4,272.4,284.5,272.6,284.5z"/>
					<path class="st2" d="M261,358.2c0.6-0.3,0.9-0.5,0.7-0.6C261.4,357.8,260.9,358.2,261,358.2z"/>
					<path class="st2" d="M246.8,367c0-0.5,0-1.1,0.1-1.5C246.8,366.1,246.7,366.7,246.8,367z"/>
					<path class="st2" d="M272.6,284.5l1.1,0.3l1.1,0.4C275,285.1,273.7,284.7,272.6,284.5z"/>
					<path class="st2" d="M252.8,229.2c0-0.5-0.1-1-0.3-1.4c0,0.4,0.1,0.9,0.1,1.3C252.7,229.1,252.7,229.2,252.8,229.2z"/>
					<path class="st2" d="M253.3,288.1l0.3-0.7c0-0.2-0.1-0.5-0.2-0.7C253.4,287.1,253.3,287.6,253.3,288.1z"/>
					<path class="st2" d="M247.6,262.1c0,0.7,0.9,1,1.3,1.3c-0.3-0.4-0.5-1-0.6-1.6C248,261.8,247.8,261.9,247.6,262.1z"/>
					<path class="st2" d="M249.1,236.3l-0.1-0.9C249.1,235.7,249.1,236.1,249.1,236.3z"/>
					<path class="st2" d="M268.2,298.3c0.1,0,0.3-0.1,0.4-0.2C268.5,298.1,268.3,298.2,268.2,298.3z"/>
					<path class="st2" d="M292.6,432.2c-0.1,0-0.1,0-0.1,0C292.4,432.4,292.6,432.5,292.6,432.2z"/>
					<path class="st2" d="M288.2,468.5c0.1,0,0.2-0.1,0.2-0.1c0-0.1-0.1-0.1-0.2-0.2c0,0-0.1,0-0.1-0.1l0,0l0,0l0.1,0.1
						C288.3,468.3,288.3,468.4,288.2,468.5z"/>
					<path class="st2" d="M245.6,397c0-0.1,0-0.1,0-0.1C245.5,396.1,245.5,396.6,245.6,397z"/>
					<path class="st2" d="M187.9,309.6c0.2,3.2-2.6-4.5-1.9,0.2C186.1,309.4,188.7,313.5,187.9,309.6z"/>
					<path class="st2" d="M252.6,230c0,0.4,0,0.9,0,1.3C252.7,230.7,252.7,230.4,252.6,230z"/>
					<path class="st2" d="M186,310L186,310l0.1,0.5C186,310.2,186,310.1,186,310z"/>
					<path class="st2" d="M246.2,464c0.1,0,0.3,0,0.4-0.1C246.5,463.8,246.4,463.9,246.2,464z"/>
					<path class="st2" d="M247.5,414.5l-0.1,1.3C247.5,415.2,247.5,414.8,247.5,414.5z"/>
					<path class="st2" d="M227.3,466.2c-0.6-0.1-1-0.2-1.8-0.1c0.1,0,0.2,0.1,0.3,0.1C226,466.1,226.4,466.1,227.3,466.2z"/>
					<path class="st2" d="M214.4,457.2c-0.1,0.1-0.1,0.3-0.2,0.5c0,0.3,0,0.6,0,0.9L214.4,457.2z"/>
					<path class="st2" d="M307.5,351.3c-0.4,0.5-0.7,0.7-1.1,1C307.1,352.1,306.2,356,307.5,351.3z"/>
					<path class="st2" d="M252.3,229.2c0.2,0.2,0.3,0.4,0.4,0.9c0-0.3,0-0.6,0-1C252.5,229,252.4,229,252.3,229.2z"/>
					<path class="st2" d="M226.1,473.3l-4.4-0.1C223,473.2,224.6,473.3,226.1,473.3z"/>
					<path class="st2" d="M256.6,171.1l0.5,1.4C257.1,171.9,256.9,171.4,256.6,171.1z"/>
					<path class="st2" d="M206.8,468.2c0-0.3,0.1-0.5,0.2-0.9c0.3-1.3,0.5-2.5,0.7-3.6c0-0.3-0.1-0.7-0.2-0.9l-0.6,4.5
						C206.8,467.7,206.8,468,206.8,468.2z"/>
					<path class="st2" d="M306.3,352.3L306.3,352.3L306.3,352.3z"/>
					<path class="st2" d="M301,380.5c1-4-0.6-2.1-1.1-3.2c1-4.8,1.4-1.9,2.5-3.4c0.5-3.1,0.1-5.7,0.7-7.9c0.2-0.1,0.4-0.5,0.5,0
						c0-3.4,2.6-9.4,2.4-13.4c0.2-0.2,0.3-0.3,0.4-0.4c-0.7,0.4-1.4,0.3-1.7,0.1c0.4-1.8,0.2-3.5,1.2-4c-0.3,1.1,0,1.3,0,1.8
						l0.2-1.9c1.5-1.4-0.3,2.7,0.4,2.9c0.6-3.7,1-8.2,2-11c1.2-0.3-1.5,6.6,0.5,3.2l-1.6,4.3c2.6-2.9-0.9,2.6,1.8,0
						c1.9-5.7,1.3-6.5,3.2-12.1c-0.2-1.5-1,0.2-1.2-1.3c1.4-8.3,4.5-5.6,4.9-11.9c-0.2-1.7-1.4-2.8,0.7-6.7l0.7,1.8
						c1.9-5.3-0.6-3.6,2-9.1c0.1,1.2-1.1,4.4-0.6,3.6c2.1-3.3,0.2-2.8,1.2-5.7l1.3-0.2c0.4-1.2,0.7-2.4,1.1-3.6
						c0.2-0.6,0.4-1.3,0.5-1.9l0.3-1c0.2-0.5,0.3-1.1,0.5-1.6c0.2-0.7,0.3-1.5,0.3-2.2c-0.1-0.7-0.3-1.5-0.6-2.1
						c-0.3-0.6-0.9-1.3-1.4-1.8l-0.9-0.7l-0.4-0.3l-0.3-0.2c-1.5-1.3-3-2.6-4.4-4c0.5,0,1.5,0.6,0.6-0.7c-6.3-5.6-11.9-13.5-16-20.3
						c-0.9-0.6-1.7-1.3-2.6-1.9c-0.4-0.6-0.4-1.4,0.2-0.7c-1.5-2.8-0.5,0.2-1.7-0.9c-1.1-1.5-0.9-2.2,0-1.5
						c-3.7-4.2-9.9-12.6-11.9-18.3l0.7,0.9c-1-2.1-2-3-3-4s-1.8-1.8-2.5-4l0.5,0.6c-4.3-9.1-9.5-18.8-11.1-26.5
						c-0.9-0.4-1.7-2.8-2.5-5c-0.7-2.2-1.5-4.4-2.6-4.4c-0.5-2.9-0.5-4-0.7-5.2c-0.1-1.3-0.5-2.9-1.4-6.8c-0.6-2-2.1-2.7-3.1-5.1
						l1-0.3l-2-3.1c0.1-1,0.2-2,0.3-3.3l-1.3-3.6c0.4,1.6,0.5,3.4,0.2,3.4c-1-2.6-1.7-5.9-2.5-9.2c-0.6-3.2-1.2-6.4-1.2-6.9
						l-0.3-0.9l-0.1-0.4l-0.1-0.2c0,0,0,0-0.1,0c-0.2,0-0.3,0-0.5,0c-0.3,0-0.7-0.1-1.1-0.2c-0.3-0.1-0.6-0.2-1.1-0.3l-0.2-0.1
						c-0.1,0-0.4,0-0.6,0c-0.2,0.1-0.3,0.3-0.4,0.5c0-0.3,0.2-0.5,0.4-0.9c0.7-0.2,0.9,0,1.2-0.1c-0.1,0-0.3,0-0.4,0
						c-0.1,0-0.1-0.1-0.4,0c-0.1,0-0.2,0-0.3,0s-0.1,0-0.1,0.1c-0.1,0-0.1,0.1-0.1,0.1c-0.2,0.1-0.2-0.1-0.3-0.2
						c0-0.1-0.1-0.3-0.2-0.3c-0.1,0-0.4,0.1-1,0.6c0.3,0.2,0,1.1,0,1.5c-0.3-0.1-0.6-0.1-1.1-0.1H247c-0.1,0.1-0.1,0.3-0.2,0.4
						c-0.1,0.3-0.2,0.6-0.3,1.1c-0.2,0.7-0.5,1.5-0.7,2.2c-1.1,3.2-2.1,6.9-2.8,9.8l-0.4-1.7c-0.4,1.4-0.9,2.8-1.2,4.2
						c-0.4,1.4-0.7,2.8-1.2,4.2c-0.5,1.7-1,3.4-1.5,5.2c-1.1,3.5-2.1,7.2-3.4,10.8c1.2-2.5,2.1-1.5,1.5,0.6l-1.3,0.5
						c0.1,1.6,1.2-2.1,0.9,1c-1.1,2.7-1.8,1.4-1.5-0.2l-0.9,3.4c-0.3,0.1-0.2-0.7-0.5-1.1c0.1,0.7-0.7,2.1-1.5,3.5
						c-0.7,1.4-1.5,2.9-1.4,4.1l-0.3,0.1c-2.8,7.1-3.8,10.4-6.4,16c0.7,0.5-0.4,2.6-0.5,4.6c-1.2,2-2.5,4.1-3.7,6.2
						c-1.4,2.1-2.7,4.5-4,6.8c-1.5,3.6,0.1,1.4-0.2,3.1c-0.9-0.1-3.5,4.7-2.6,1.9c-1.6,2.9-2.7,4.7-3.7,6.7c-1.2,2-2.2,4.3-4.3,8
						c0.7-0.5,1.5-1.4,1.4-0.7c-0.7,1.4-2.2,2.7-2.5,2.2l0.1-0.4c-2.1,4.3-5.8,8.2-9.4,12c-3.6,3.6-7.2,6.9-9.1,10.3l0.2-0.3
						c-1.5,2-3.1,4.1-4.8,6.1c-2.7,2.4,1.1-1.9-1.2-0.4c-0.2,0.3-0.5,0.6-0.7,1l-0.2,0.2l-0.3,0.4c-0.2,0.2-0.4,0.5-0.6,0.7
						c-0.5,0.5-1,1.2-1.2,1.7c-0.3,0.6-0.5,1.3-0.6,1.9c-0.2,1.3,0.1,2.5,0.5,3.7c0.5,1.4,0.6,1.8,1,2.6c0.2,0.6,0.4,1.4,0.6,2
						c0.9,2.7,1.7,5.2,3.1,8c-0.5,5.8,6,18.1,6.5,25.4l0.4-0.5c1.1,1.6,0.3,2.2,0.5,3.6c0.3-0.3-0.1-2.1,0.5-1.1
						c2.6,7.6,4.5,15.5,6.3,23.6c0.9,4.1,1.8,8.1,2.7,12.2c0.9,4,1.6,8,2.4,11.9c0.5,2.9,1.5,3.5,2.2,4.5c0.7,0.9,1.5,2,1.5,5.8
						l-1.4-1.9c3.4,11.4,3.6,24,5.3,35.6c-0.3-0.6-0.6-0.6-0.6-1.8c-0.3,1.3-0.2,3.5,0.1,5.4c0.2,1.9,0.6,3.6,1,3.6
						c0,1.8-0.5,0.4-0.9,1.6c-0.4,2.5,1.1,6.2,0.3,7.5c-0.1,0.2-0.2-0.6-0.3-1.2c0.2,0.9,0.2,2.7,0.2,4.2s0.1,2.6,0.5,1.8
						c-0.2,2.1-0.2,4.3-0.2,6.3c0,1,0,1.9,0,2.9c0,0.4-0.1,1-0.1,1.4c-0.1,0.5-0.2,1.1-0.2,1.6c0.2,1,0.2,2,0.1,3.3
						c0,1.1,0.1,2,0.4,2.8c0.1,0.4,0.2,0.7,0.5,1.2c0.3,0.4,0.6,0.5,1,0.7c0.6,0.3,1.4,0.5,2.1,0.5c0.7,0,1.3-0.2,1.6-0.4
						c-0.3,0.3,0.3,0.6,1.6,0.7c0.3,0,0.6,0.1,1.1,0.1c0.3,0,0.6,0,1,0.1c0.5,0,1.1,0.1,1.6,0.1c2.4,0,5-0.2,6.4-0.5
						c-1,0.4,2.5,0.4,1.4,1.1c3.2,0,6.1-0.3,5.6-1.1c3,0.9,5.9,0.5,8.5,0.2c1.3-0.1,2.6-0.3,3.6-0.2c0.3,0,0.7,0,1.1,0.1
						c0.4,0,0.9,0.1,1.3,0.1c0.9,0.1,1.7,0.3,2.7,0.6c1.7-0.1,3.3-0.2,4.7-0.2c-0.1-1.9-0.1-3.8-0.2-5.8c0-1-0.1-1.8-0.1-2.8v-0.6
						v-0.4v-0.7c-0.1-2-0.2-4.1-0.4-6.1c-0.2-4-0.4-7.9-0.5-11.8c1.5,0.3,0.1,9.4,1.7,9.1c-0.6-8.1-1.8-12.8-1.5-20.8
						c0.2-2,0.6,1.2,0.9,1.9c-0.6-8.1,0.1-15.7-0.6-22.9c0.1,0,0.3,0.7,0.4,1.5c0-1.4,0.2-3.3-0.4-3.1l0.2,1.4c-1,2.2-2-5.7-2.5-5.9
						c1.9,2.5,0.4-7.2,2.9-3.3c-0.1-1-0.4-2.1-0.9-1.9c0.1-1.4,0.4-1.8,0.9-0.4c-0.3-5.1-1.1-3.3-1.1-7.9c0.3,0,0.4,1,0.9,1.4
						c-0.6-2.4-1.3-4.7-1-8.5c0.2,0.2,0.4-0.2,0.4,1c0-3.3-0.4-6.2-0.7-9.1c-0.2-1.5-0.3-3-0.3-4.5c0-0.7,0-1.6,0-2.5
						c0-0.7,0.1-1.9,0.1-2.4c1.4,1.4,0.4-1.4,1.6-0.7c0-0.1-0.1-0.2,0-0.2l1.1-0.5c-0.3-0.1-0.6-0.2-1-0.3c0.2,0,0.4-0.1,0.6-0.2
						c0.3-0.1,0.5-0.2,0.9-0.3c0.9-0.3,1.6-0.6,2.4-1c1.6-0.7,2.9-1.4,4.4-1.9c-0.7,0.5-1.5,1.1-2.2,1.6c2.1-1,4.1-2,6-3.2
						c-1.2,0.5-2.4,1-3.5,1.4c1.5-1.1,1.2-1.4,1.2-1.6c-0.1-0.2,0-0.4,2.1-1.5c-0.7,0.6,3-1.8,4.9-2.4l0,0c1.2-1.4,2.5-2.7,4.5-4.4
						c0.7-0.2,0.5,1.3,1.1,1.2c0.1-0.5,0.5-1.2,1.1-1.9c0.5-0.7,1.2-1.6,1.8-2.5c1.3-1.7,2.5-3.6,2.6-4.8c-0.2,0.7,0.3,1.2,0.5,1
						l0.1-1.7c1.1-1.3,1.3-1.4,1.6-1c1.4-2.1,0.7-1.9,0.4-1.8c-0.4,0.1-0.6,0.1,1-2.2c-0.1,0.4,0.1,0.3-0.3,1.2
						c3.1-5,4.4-10.5,6-15.7c0.7-0.6,0.6,0.5,0.3,1.7c-0.2,1.2-0.5,2.2,0.2,1.5c0.5-1.9,0.9-4,1-6.1c0.1-2,0.1-4.2,0-6.2
						c-0.2-4.1-0.9-8-1.4-11.8l0.1,1.4c-1-0.4-1-1.8-1.1-3.5c-0.1-1.8-0.3-4-1.4-5.7c0.4,0.9,1.3,0.9,1.1,0.6
						c-0.7-2.6-2-5.1-4.1-7.6c-2-2.5-4.9-4.9-9-6.1h1.2c-0.3-0.2-0.7-0.4-1.2-0.6s-1-0.3-1.4-0.5c-0.5-0.1-1.1-0.2-1.6-0.3
						c-0.6-0.1-1.3-0.1-1.9-0.1c-1.3,0.1-2.7,0.5-3.7,1.3s-1.9,1.6-2.6,2.6c-0.2,0.6-0.4,1.5-0.5,2.1c0,0.6,0.1,0.9,0.5,0.2
						c-0.5,1-0.7,2-0.6,3.1c0,0.4,0,1,0.1,1.7v0.3v0.1v0.3c0,0.2,0,0.4,0,0.6c0,0.9-0.1,1.7-0.3,2.6c-0.3,1.5-1.2,2.7-2.7,3.4
						c-0.7,0.3-1.4,0.5-2.1,0.4c-0.7-0.1-1.4-0.5-1.9-1.1c-1.3-1.3-1.8-3-1.3-4.5c0,0.9,0.6,1.6,0.5,1.1c-0.2-0.7-0.2-1.7-0.1-2.7
						c0.1-0.5,0.2-1,0.4-1.5l0.6-1.7c-0.9,0.2-0.9,0.7-1.9,1.9c-0.1-1,0.4-3.1,1.1-4.8c-0.7,3.3,1.2,0.5,2-1
						c-0.3,0.2-0.4-0.4-0.6-0.3c0.3-0.4,0.5-0.9,0.6-1.3c0.1-0.3,0.1-0.6,0.1-0.9c-0.1-0.5-0.4-0.6-0.7-1c-0.2-0.2-0.3-0.5-0.4-1
						c-0.2-0.4-0.4-1.2-1.1-2c0.2,0,0.3,0,0.5,0c-0.9-0.7-2-1.1-3.1-1.2c-0.5-0.1-1-0.1-1.5-0.2c-0.5-0.1-1-0.2-1.5-0.3
						c0-0.9,2.1,0.1,2.5-0.5c-0.5-0.1-1.1-0.1-1.7-0.1h-0.5c-0.1,0-0.2,0-0.2,0l-0.1-0.2c-0.1-0.2-0.1-0.5-0.2-0.7
						c-0.3-1.2-0.4-2.6,0-4c0.1,0.3,0.1,0.6,0.1,1.1c0,0.3,0.1,0.7,0.1,1.1c0.1,0.6,0.1,1.3,0.2,1.7c0.5-1.5,0.6-1.8,0.7-2.5
						c0.1-0.7,0.1-1.4,0.1-2.5v0.2l0.4-5.1l-0.9,0.9c-2.2-3.7-0.4-7.7-1.9-12.8c1.4,4.9,0.9,0.9,1.8,1.2c0.3-1.3,0.5-3.3,0.9-2.7
						c-0.7-2.5,0.6-4.1-0.5-7.4c0.1-0.1,0.2-0.6,0.2-1.4c0-0.3,0.1-0.6,0.2-0.9c0.1-0.2,0.2-0.3,0.4-0.1c-0.1-2.5-0.2-2.1-0.4-1.2
						c-0.1,0.4-0.1,1-0.2,1.4c-0.1,0.4-0.2,0.5-0.3,0.5c-0.5-3.2-0.2-6.9,0.1-12c0.1-1.2,0.1-2.5,0.2-3.7v-1c0-0.3,0-0.6-0.1-0.6
						h-0.1c0,0,0,0-0.1,0.1c-0.1,0.2-0.2,0.2-0.5,1.1l-0.6,1.4c0,0.1-0.2,0.5-0.1,0.2l0.2-0.5l0.3-0.7l0.2-0.5l0.2-0.4
						c0.1-0.3,0.2-0.3,0.2-0.4c0-0.1,0.1-0.2,0.1-0.2h0.1h0.1c0,0.1,0,0.2,0.1,0.3c0,2.4-0.1,5.3-0.4,8.2c-0.3,4.6-0.7,7.1-1.2,9.1
						c0,0.1,0,0,0,0v-0.2l-0.1-0.3c0-0.2-0.1-0.4-0.1-0.6c-0.1-0.4-0.2-0.9-0.3-1.4c-0.2-1-0.3-2.1-0.4-3.5c0.5-1.9,1.2,1.5,1.2,1.5
						c0.4-3,0.4-5.3,0-8.1c0.3,0.5,0.5,0,0.9-0.9c-0.1-2.2-1.2-1.5-0.6-4.6c0.3,0.5,0.9,1.2,1.3,2.2c-0.3-2.7-0.9-5.3-1.2-8.1
						c0.5-0.7,0.9,1.7,1.2,2.7c-0.2-3.1-0.5-8.1-1.4-9.1l-0.3,2c0-1.2,0.7-0.6,0.9,0.2c0.6,2.7-0.3,3.8-0.6,4.1l-0.2-2
						c-1.8,2,0.3,8,0.2,12l-1.3-1.7l1.1,4.1c-0.3,0.9-1.1,1.5-1.3-0.5c-0.6,2.9,0.4,2.6-0.2,5c-0.1,0.3-0.2,0.1-0.2-0.1l0.4,2.8
						c-0.3-0.5-1,0.4-0.7-1.3c-0.2,1.3-0.2,2.4-0.2,3.4c0,0.5,0.1,1,0.1,1.5c0,0.3,0.1,1.3,0.2,0.5c0.2-1.3,0.4-2.6-0.1-2.9
						l-0.1,0.4c0.2-2.8,0.4-3.4,0.9-3.8c0.2-0.2,0.3-0.4,0.5-1c0.2-0.5,0.4-1.5,0.7-3.5c-0.4,0.1-0.9,0.3-1.2,0.6
						c-0.2,0.2-0.4,0.4-0.6,0.6l-0.1,0.1c0,0,0,0.1-0.1,0.2l-0.1,0.5l-0.3,1c0.3-0.5,0.6-1.2,1-1.6c0,0.7-0.1,2-0.5,2.6
						c0.3,0.4,0.4,0.3,0.5-0.1c0.1-0.3,0.2-1,0.5-0.6c-0.4,2.4-0.3,4.3-0.3,6.2c0,1.8,0,3.6-0.9,4c0.7,1.3,0.5-3.3,1.1,0.4
						c-1.7,1.1,0.3,4.3-0.5,7.5c-0.9-1-0.4-4-1.2-0.9c1.5,1.9-0.3,6.2,0,8.9c1.2,0.1,0.5,5.8,0.9,10.3c-0.1,0-0.2,0.3-0.3,1.3
						c-0.1,1.1-0.2,2.6-0.2,4.4c0,0.2,0,0.4,0,0.6c0.2,0.1,0.4,0.1,0.6,0.2c0.4,0.1,0.9,0.2,1.4,0.4l1.4,0.4
						c0.4,0.1,1.1,0.3,1.2,0.3c1,0.2,1.6,0.9,1.8,1.4l-0.2,0.1c0.6-0.2,1.4,0.5,1.4,1.7c0,0.3,0,0.6-0.1,1c-0.1,0.3-0.1,0.7-0.2,1.2
						c-0.2,0.7-0.4,1.6-0.7,2.4c-0.6-0.3-0.6-1-0.4-2.6c-0.2,0.9-0.5,1.7-1,2.6c0,0.4,0,0.9-0.1,1.4s-0.3,1.3-0.6,2.4
						c-0.2-0.3-0.4-0.7-0.5-1.1c-0.4,1.1-0.6,2.2-0.6,3.6c0,1.3,0.3,2.7,0.9,4c0.3,0.6,0.6,1.2,1.1,1.7c0.4,0.5,0.7,1,1.3,1.5
						c1.1,1.2,2.5,2.1,4.2,2.5c0.1-0.2-0.1-0.4-0.4-0.7c-0.3-0.3-0.6-0.7-0.6-1.1c-0.1-0.3,0-0.5,0.4-0.6c0.4-0.1,1.1,0,2.2-0.4
						c0.1,0.2,0.2,0.5,0.2,0.7c-0.1,0.3-0.3,0.6-1.2,0.6c0.5,0,1.7-0.5,2.7-0.7c-0.6,0.5-1.4,1-2.2,1.3c1.4,0,1.8-0.3,1.9-0.5
						c0.2-0.3,0.3-0.5,1.2-1c0.1,0.3,0.5,0.2,0.9,0.1c0.3-0.1,0.6-0.3,0.7,0c-0.2,0.2-0.6,0.4-1.2,0.6s-1,0.4-1.4,0.6
						c1.2-0.3,2.6-1,3.5-1.8c1.1-0.9,1.7-1.7,2.1-2.1c-0.4,0.1-0.6-0.4-0.3-2.1c0.4-2.1,0.4-2.7,0.7-2.8c0.2-0.2,0.5-0.1,0.5-1.6
						c-0.1-0.2-0.2-0.4-0.3-0.6c-0.1-0.2-0.1-0.1-0.1-0.2c0-0.1,0-0.1-0.1-0.2c-0.1-0.3-0.2-0.9-0.3-1.4c-0.1-0.3-0.3-0.5-0.6-0.5
						c0-0.4,0.2-0.5,0.3-0.7c0.2-0.1,0.4-0.1,0.5-0.2c0-0.3,0.2-0.9,0.5-1.4c0.3-0.5,0.9-1,1.4-1.2c1-0.5,2.1-0.5,1.2-1.1H271
						c0.1,0,0.2,0,0.2-0.1l0,0l0,0c0.3-0.1,0.6-0.1,1.1-0.1s0.7,0.1,1.2,0.1c0.7,0.1,1.6,0.3,2.2,0.6c1.5,0.6,2.8,1.6,4,2.8
						c2.2,2.4,3.6,5.3,5.1,8.1l-0.3,0.1c1.8,3.3,2.7,8,3.6,10.7c0.1,1.2-0.3,2.8-0.6,2.4c0.2,1.4,0.4,2.2,0.5,3.2
						c0.1,1,0.1,2.1-0.2,4.3c-0.5-3-0.4,1-0.4-3c-0.1,1.9-0.3,3-0.4,4.2c-0.1,1.2-0.1,2.4,0,4.4c-0.3-0.7-0.6-0.1-1,1
						c-0.3,1.1-0.7,2.5-0.9,3.3c0.4-0.7,0.9-1.6,1.2-2.4c-0.1,1-0.4,1.9-0.6,2.8c-0.3,0.9-0.6,1.7-1,2.6c-0.2-0.4-0.4-0.9-0.7-1.3
						c-1.8,3.3-2.8,6.6-3.8,9.7c-1.2,3-2.6,5.9-5.1,7.5c-0.5,2.1,2.9-3.1,2.5-1.1c-1.1,1.4-2.5,2.7-3.7,3.5
						c-1.3,0.9-2.4,1.4-2.7,1.8c-0.4,0.3-0.7,0.6-1.1,1c-0.3,0.3-0.5,0.5-0.7,0.7c-0.5,0.5-0.9,1.1-1.2,1.5c-0.6,1-1.4,2.1-3.6,3.3
						c0.7,0,1.9,0.5-1.3,2.8c-1.6,0.9-2.8,1-3.3,0.7c-0.5-0.2-0.3-0.7,0.5-1.4c0.7-0.4,1.2-0.5,1.2-0.3c1-0.6,2.1-1.6,0.7-1.2
						L262,357c-0.9,0.2-2.4,1-3.5,1.4c-1.2,0.4-2,0.6-1.7,0.1c-0.5,0.3-0.9,0.5-1,0.6c-0.1,0.1-0.1,0.2,0,0.2c0.3,0,1.1-0.1,2-0.4
						c-1.7,0.5-3,0.9-4.4,1.3c-0.5,0.1-1.8,0.5-3,0.7c-1.2,0.2-2.5,0.4-3.8,0.6c-0.1,1.2-0.1,2.6-0.2,4.2c0.2-1.2,0.6-2,0.6-0.9
						c-0.1,1.3-0.1,2.4-0.1,3.2c0,0.3,0,0.6,0,0.9c0,0.2,0,0.4,0,0.6c0,0.7,0.1,1.1,0.3,1.3c0.2,0.5,0.6,0.7,0.6,3.1
						c-0.5,2.8-1.4-1-0.9,3.8c-0.4,3-1,0.6-1.3-0.5c0.7,4.5-0.5,8.3-0.6,10.8l-0.3-2.4c0.2,1.4,0.2,2.6,0.2,3.7l0.7-1.3
						c-0.1,1.4-0.1,2.6-0.4,2.5c0.5,1.4,1.3-1.1,1.9,1.7c-0.4,1.8,0.4,5.6-0.6,6.2c0.3-5.8-1,0.6-1.2-4.3c0.1,1,0.1,2.1,0,3.4
						c-0.1,0.2-0.2-0.2-0.2-0.5c-0.9,5.6,1.2,2.6,1.1,8.2c-0.5-0.7-1.1,1.3-1,2.2c0-2.4,1-1.1,1.4,1c-0.4,3.6,0.3,4,0.3,5.9l0.2-2.1
						c0.5,0.7,0.5,2.6,0.6,5.1c-0.4,0.2-0.3-2.4-0.5-1.4c1,2.8-1.1,6.4-0.3,10.4c-0.4,1.8-1.1,0.2-1.3,1.8c0.7,4.4-0.7,4.8-0.2,9.4
						c0.7-1.4,0.5-1.6,1.3,1.7l-0.5-7.7l1.1,4.9c0-2.4-0.4-4.9-0.3-6.2c0.6,2.4,0.4,2.1,1.1,1c-1.2,3.2,0.6,6.3-0.1,9.9l-1.9-0.1
						c-0.9,5.4,1,9.7,0.5,16.9l0.3-2.2c0.7,1,0.1,4.4,0.4,6.7c-0.3-0.1-0.5,0.2-0.7,0.6c0,0.1-0.1,0.2-0.1,0.3
						c0,0.1-0.1,0.3-0.1,0.3c-0.1,0.1-0.2,0.2-0.3,0.2c0.3,0,0.2,0.9,0.5,1.9c-0.2,0.1-0.3,0.3-0.2,0.7c-0.7-0.3-1.4-0.5-1.9-0.9
						h-0.1h-0.1h-0.1c-0.2,0-0.3,0-0.5,0c-0.3,0-0.6,0-1,0c-0.5,0-1.1,0.1-1.6,0.1c-1,0.1-1.8,0.4-2.6,0.6c-1.6,0.4-3.2,1-6,0.9
						c1.7-0.6-0.9-1.2,2.9-1.6c-1.8,0-3.5-0.1-3.5,0.3c-1.1-0.4-5.1,0.9-6.8,0.2c-0.7,0.3-1.1,1-3.1,0.9c-0.2-0.1,0-0.3,0-0.3
						c0,0.3-3.2,0.4-1.4,1.2c-0.9-0.3-1.8-0.5-2.8-0.6c-0.5-0.1-1.1-0.1-1.6-0.2c-0.4,0-0.7-0.1-1.1-0.1c-0.7,0-1.5,0-2.2,0
						c-0.2,0-0.3-0.2-0.4-0.3c0-0.2,0-0.3,0-0.5c0-0.4,0-0.7,0-1.2c0-0.5,0.1-1.1,0.1-1.6c0.1-0.6,0.1-1.5,0.2-2.1
						c0.2-1.4,0.4-2.6,0.7-3.6c-0.1-4.1-0.2-9-0.2-12.6c0.2,0.2,0.3,0,0.2,0.7c0.5-5.1-1.8-3.1-1.3-8.9c1-3,0.6,3.1,1,1.2
						c1.1-0.4,0.9-2.1,0.6-4.3c-0.2-2.1-0.7-4.6-0.2-6.6l0.2,1c0.5-3-1.3-7.2-1.6-12.1c0,0,0.2,0.2,0.3,0c-1.4-3.2-2.5-9.4-3.5-13.9
						c1.1,1.3,0.7,2,1.4,1.1c-0.4-2-1.2,0.9-2.1-3.3c0.2-1.4,0.1-4.5,0.9-5l0.7,3.8c0.7-2.1-0.9-5-1.2-7.2l0.5,0.2
						c-0.6-3-1.3-4.4-2-5.9c-0.6-1.5-1.3-3-2-6.2l-0.2,0.7c-2-3.1,0-3.1-1.8-6.3l1-1.4c-0.9-2.2-3.3-7.6-4.6-11.5
						c1.5,2,3.3,6.6,4.6,9.4c-0.6-2.2-2.1-7.5-3.1-8.5c0.3,0.9,1,1.9,1.1,2.9c-1.7-2.5-3.2-6-4.4-10.4c2.6,0.1-2.6-11.8-1.7-15.5
						c-3.1-7.6-4.2-15.7-7.3-24.7c-0.7,3.8-1-2.7-2.6-1.5c-0.9-2-1.1-2.9-1-3.1c-0.3-2.2-0.7-4.5-1.1-6.7c0-1.7,1.2,1.8,1.5,1.5
						c-1.5-4.6,0.1-2.2-0.5-5.4c-0.2,0.4-0.6,0.1-1.1-0.6c-0.2-0.4-0.4-0.9-0.6-1.4c-0.1-0.2,0-0.2,0-0.3c-0.1,0.1-0.2,0.2-0.3,0.4
						l0.2,2c-1.2-2.4-1.2-2.2-1.1-2.7c0.2-0.3,0.7-0.4,1.1-0.4c0.1,0,0.2,0,0.2,0c0.3-0.2,0.5-0.4,0.9-0.7c0.6-0.5,1.3-1.3,2-2.4
						l-1.2,2c1.2-1.4,3.5-3.7,5.7-6.2s4.1-5.2,4.6-7.1c0.5-0.3,1.5-0.6,0.6,0.6c2.9-3.2,5.4-7.2,7.9-11c2.4-3.8,4.6-7.5,6.7-9.9v0.7
						c0.7-1.4,0.7-2.8,2.1-4.3c0.1,0.2,0.1,0.7,0.4,0.2c0.3-0.9,1.5-4,2.8-5.7c-0.1,0.6-0.3,1.2-0.4,1.8c2.4-3.4,3.6-6.3,4.7-9.2
						c1.1-2.8,1.8-5.6,3.3-8.8c0.6,0.3,1.8-0.9,3-2.6c1.2-1.7,2.5-3.7,3.2-5.2l0.1,0.2c4.3-8.7,5.6-15.4,8.2-23.8
						c0.9-1.2,1.7-2.8,2.6-4.8c0.9-1.9,1.7-4.3,2.6-6.6c0.9-2.4,1.7-4.9,2.5-7.4c0.4-1.2,0.9-2.5,1.3-3.5c0.2-0.5,0.4-1.2,0.6-1.6
						c0.1-0.2,0.2-0.4,0.3-0.5c-0.2,0.2-0.4,0-0.6-0.2c-0.2-0.3-0.3-0.9-0.2-1.3c0.5-0.7,0.2-4.2,0.9-1.9l-0.1,0.2
						c0.4,0.6,0.6,0.9,0.7,0.9c0.1-0.1,0.1-0.5,0.2-0.7c-0.1-1.8-0.1-3.7-0.2-5.7c0.1,0.2,0.1,0.4,0.2,0.6v0.1l0.1,0.1
						c0.1,0.1,0.1,0.2,0.1,0.3c0,0.2,0,0.5,0.1,0.7c0.1,1,0.2,1.5,0.2,2c0.2,0.9,0.4,1.4,0.7,2c0,0.1,0.1,0.2,0.1,0.3l0.2,0.4
						c0.1,0.3,0.2,0.5,0.3,0.9c0.1,0.3,0.2,0.5,0.3,0.9c0,0.1,0.1,0.3,0.1,0.4c0,0.2,0.1,0.3,0.1,0.5c0.6,2,1,3.7,0.7,5.1
						c1.1,1.9,1.8,4.4,2.9,6.2l-0.9,0.2c1.6,5.6,2.5,8.4,5.2,15.1l-1.2-1.2c1.5,3.8,4.3,3.8,5.8,7.3l-0.9,1.6
						c2.8,6.5,4.6,13.6,8.9,19.3c-0.2,0-0.6,0-1.2-1.1c1.4,3.1,5.1,12,6.2,9.9c-0.5,0.3,0.3,1.9,1.6,3.8c1.3,1.9,3.1,4.1,4.3,5.7
						l-1.1-0.1c2.7,2.2,3,2.1,5.6,5.8c0.4,1-0.1,1.2-0.6-0.1c1.5,3.3,2.1,1.9,4.2,5.8l-1.4-1.1c2,3.1,2.1,2.7,3.7,4
						c1.6,1.7,3.8,5.8,3.6,6.6c0.7,0.1,2.5,1.3,3.6,3.1c-0.1,0.4-0.7-0.1-1.1-0.3c3.4,5.2,6.6,6.3,8.9,10c-0.1,0.2-0.1,0.5,0.1,0.9
						c-3.3-3.6-5.8-6.6-5.6-6.4c-0.6,0.5,1.8,3.6-1.1,2c2.6,2,7.2,5.1,9.6,8.1c0.1,0.2,0.1,0.4,0.1,0.5l-0.3-0.2
						c0.5,0.7,1.2,1.2,1.8,1.6c0.4,0.4,0.7,0.9,1.1,1.3c0.2,0.2,0.3,0.3,0.5,0.5c0.1,0.1,0.3,0.3,0.4,0.4c-0.1,0.2-0.1,0.4,0,0.6
						c0,0.1,0.1,0.2,0.1,0.3s0,0.2-0.1,0.3v0.1c0,0.1-0.1,0.1-0.1,0.2c0.9,0.2-0.1,2.6,1.4,0.5c-0.1,0.1-0.1,0.1,0-0.1
						c0-0.1,0.1-0.3,0.1-0.5c0,0,0-0.1,0.1-0.2c0-0.1,0.1-0.3,0-0.3c0,0,0,0,0.1,0.1c0.1-0.3-0.1-0.6-0.3-1
						c-0.3-0.3-0.7-0.6-1.2-1.1c0.2,0.1,0.4,0.2,0.5,0.2c0.1,0,0.2,0.1,0.3,0.1c0.2,0.1,0.4,0.2,0.6,0.3c0.4,0.3,0.6,1,0.1,1.5
						c0.1,0.1,0.2,0.3,0.3,0.4c0.1,0.3,0.2,0.5,0.3,0.9c0,0.4,0.1,0.7,0.1,1c-2.1,2-4.5,6.7-5.4,7.2c-1.5,5.8-4.2,13.5-3.6,17.5
						c-0.3,1.7-1.1,1.7-1.5,2.2c0.1-1,0.4-2.1,0.4-2.7c-0.5,3.3-2.7,9.6-1.8,10.8c-1.7,4-0.4-2.6-1.8,3.1l-0.1-0.9
						c-5,10.6-2.1,18.8-7.8,30.5c0.4-0.9,0.5-1.2,0.7-1.4c-2.5,6.8-4.2,14.2-5.6,21.6c-1.4,7.4-2.6,14.7-4.3,21.8
						c-0.9,4.1-0.1,4.6,0.1,7.2l-1.1,0.7l0.7,4.4c0.3,6.1-3.2,10.4-1.8,18.1l0.6-1c-0.1,1.4,0,3.5,0,5.3c0,1.8,0,3.2-0.4,2.9
						c0.1,0.3,0.6,0.9,0.3,2l-0.5,0.1c0.3,2.2,0.6,4.5,1,6.7c-0.1,5.2-2-0.7-1.8,6.9c0.2,1.4,0.6,3.4,1.2,4.9
						c0.1,0.4,0.2,0.7,0.3,1.1c0.5,0,1,0,1.4-0.1l0,0l0,0l0,0c0-0.4,0-0.7,0-0.9v0.1l0,0l0,0l0,0l0,0l0,0c0,0.3,0-0.7,0,0.7l0,0l0,0
						l0,0l0,0l0,0l0,0H286l0,0l0,0l0,0v-0.1V468v-0.2c0-0.2,0-0.3,0.1-0.4c0.1-0.6,0.3-1.1,0.5-1.2l0.2,1.3l0.1,0.6
						c0,0.2,0,0.2,0,0.4c0.2,0.3,0.2,0.9-0.2,1.2c-0.2,0.4-0.3,0.7-0.2,1.1c0,0,0,0.1,0.1,0.1c0,0,0,0.1,0.2,0.1
						c0.2,0.1,0.6,0.1,1.1,0s1-0.3,1.4-0.9c0.4-0.4,0.9-1.3,0.9-2.2c0.2-0.7,0.5-1.8,0.6-3.4c-0.4-1.4-0.9-2.9-1.2-4.3l0.6-1.4
						c0.1,1.2,0.1,2.5,0.2,3.6c0.5-2.1-0.1-3.4-0.5-4.9c0.3-0.3,0.6-1,0.7-1.8l-1.5-4.3c0.5-0.5,1.2,1.9,1.5-1
						c-0.7-2-1.3,1.9-1.8-1.4c0.6-2.1,1.2-1.5,0.6-4c0.4-0.3,0.6,0.2,0.7,1.2c-0.5-2.1-0.1-5.8-1-6.9c0.9-2.1,0-7.4,1.5-7.2
						c-0.3-0.7-1-4-0.9-5.9c1.4,3.7,0.6-7.5,2.5-6.3c-1.3-2.9,0.3-9.8,0.2-14.6c0.1,0.3,0.2,0.9,0.1,1.3c0.5-2.7,1.1-3.3,1.6-5
						c-1.2-0.5-0.7-4.7-1.1-7.2c1.8-3,1.1,2.2,2.5,1.4c-1.1,0,0.1-5.9-1-4.9c1.2-2.4,0.7-2,2.1-3.1c-1.4-0.7,0.2-2.4-0.2-4.6
						c1.6-3.4,1.6-0.5,2.1-4.6c0.4-0.9,0.6-0.4,0.6,0.3C301,379.5,301,380.5,301,380.5z M315.8,286.9L315.8,286.9
						c0.6,0.5,1.1,1.1,1.4,1.4C316.9,288,316.6,287.6,315.8,286.9z M310.3,281c0.6,0.7,1.4,1.7,2.4,2.6c0,0.4-0.4,0.4-1.1-0.2
						C312.1,283.7,310.9,282.1,310.3,281z M316.5,296.4c-0.3-0.2-0.2-0.3-0.1-0.5c0.1,0.1,0.3,0.2,0.5,0.5h0.1
						C316.8,296.4,316.7,296.4,316.5,296.4z"/>
					<path class="st2" d="M317.8,297c0,0.1,0,0.1,0,0.2l0,0l0,0l0.3-0.3c-0.1-0.1-0.1-0.1-0.2-0.2
						C317.8,296.8,317.8,296.9,317.8,297z"/>
					<path class="st2" d="M271.7,284.3h0.1c-0.1,0-0.2-0.1-0.3-0.1C271.6,284.3,271.6,284.3,271.7,284.3z"/>
					<polygon class="st2" points="260.5,182.4 260.3,182.5 260.7,183.1 					"/>
					<path class="st2" d="M258.7,285.4c0.1-0.1,0.2-0.2,0.4-0.5C259,284.9,258.9,285.1,258.7,285.4z"/>
					<path class="st2" d="M251.9,270.4l0.3-2.8C252.2,268.9,252.1,269.8,251.9,270.4z"/>
					<path class="st2" d="M252.5,255.5c-0.1-0.2-0.3-0.2-0.4-0.3l0,0L252.5,255.5z"/>
					<path class="st2" d="M253.6,413.4c0,0.2,0,0.4,0,0.5C253.8,415.3,253.7,414.4,253.6,413.4z"/>
					<path class="st2" d="M270,356.7c-0.5,0.5-1.1,1.2-1.7,1.7C269.5,357.7,270.3,357.1,270,356.7z"/>
					<path class="st2" d="M226.6,473.3L226.6,473.3c-0.2,0-0.3,0-0.4,0H226.6z"/>
					<path class="st2" d="M265.5,360.2c1.2-0.5,2.1-1.1,2.9-1.8C267.4,358.9,266.4,359.4,265.5,360.2z"/>
					<path class="st2" d="M252.8,215.9v-0.7c-0.1,0-0.1,0-0.1-0.1L252.8,215.9z"/>
					<path class="st2" d="M252.7,215.1l-0.1-0.7C252.6,214.7,252.6,215,252.7,215.1z"/>
					<path class="st2" d="M252.4,212.6l0.2,1.7C252.6,213.7,252.7,212.9,252.4,212.6z"/>
					<path class="st2" d="M252.4,235.6l0.3,0.2C252.7,235.7,252.6,235.7,252.4,235.6z"/>
					<path class="st2" d="M252.5,241.6c0.1-1.4,0.7-3.6,0.5-5.6l-0.2-0.2C253.2,236.8,251.9,240.3,252.5,241.6z"/>
					<path class="st2" d="M248.5,242.2l0.2-3.8c-0.3,1.2-0.9,2.2-0.9,1.1c-0.2,1.3-0.3,1.6-0.3,1.8c0,0.1,0.1-0.1,0.3-0.3
						C248.1,240.5,248.5,239.9,248.5,242.2z"/>
					<path class="st2" d="M248,257.3c-0.2-2.7-0.5,0-0.7-0.1C247.6,258.9,247.7,259.3,248,257.3z"/>
					<path class="st2" d="M287.5,310l-0.9-0.2C287,311.7,287,309.8,287.5,310z"/>
					<path class="st2" d="M288.7,331.7c0.4-0.6,0.9-1.2,1.2-1.8l-0.4-1.2C289.2,329.7,289,330.7,288.7,331.7z"/>
					<path class="st2" d="M277.9,340.3l0.3-0.7c-0.4,1-1,1.9-1.5,3C277.2,341.8,277.6,341.1,277.9,340.3z"/>
					<path class="st2" d="M215,462.1l-1.1,0.5c0,0.2,0,0.3,0.1,0.5c0,0.1,0,0.1,0.1,0.2l0.1,0.1c0.1,0.1,0.3,0.1,0.4,0.1
						c0.1,0,0.2-0.1,0.3-0.2C215,463.1,215.1,462.7,215,462.1z"/>
					<path class="st2" d="M206.8,380.3c0.3-1,0.1-3.3-0.7-4.6C206.3,377.5,206.3,379.4,206.8,380.3z"/>
					<path class="st2" d="M250.1,176.1c0,0.2-0.1,0.5-0.1,0.9c0-0.2,0.1-0.3,0.2-0.3L250.1,176.1z"/>
				</g>
			</g>
		</g>
	</g>
</g>
<g>
	<g>
		<g>
			<g>
				<g>
					<path class="st3" d="M66.2,44.9c-1.3-0.7,0.3,1-1-0.4C65.7,44.4,66,44.4,66.2,44.9z"/>
					<path class="st3" d="M430.8,47.5c-1.4,2.1-3.6,3.7-5.9,5.4c-2.2,1.7-4.8,3.2-6.6,5.1c-0.4,0.4-0.4-0.9-1.4,0.2
						c-3.3,4.1-10.6,7.9-16.2,10.5l0.2-0.4c-1.1,0.5-1.8,1.9-3,2.6c-0.1-0.1,0.2-0.4-0.1-0.4c0,0.6-1.8,1.4-2,2
						c-0.5,0.1-0.6-0.3-1.4-0.1l-0.3,0.9c-1,2.2-4.2,2.5-6.1,4.5c0-0.2,0.2-0.4,0-0.4c-1.7,1.4-3.7,2.8-5.9,4.2
						c-2.1,1.3-4.4,2.7-6.5,4c0.1-0.3,0.1-0.6-0.3-0.7c0.1,0.6-1.2,1.5-2.4,2.1c-0.9-0.3-1.7,1.5-3.2,1.9v-0.2
						c-0.7,1.1-1.7,0.4-2.1,1.6l-0.9-0.1c0,1.1-1.7,0.3-2.4,1.1l0.1,0.1c-0.7,0.5-1.3,0.3-2,0.9l-0.1-0.1c-1.6,1.1-2.9,1.1-2.6,1.7
						c-0.9-0.2,1.6-1.1,0.3-1.3c-5.3,3.4-11.5,5.7-17.3,8.2c-0.7,0-1.3,0.1-1.5-0.1c-0.5,0.3-2.2,1-2.6,1.5c0.2-0.1-0.5-0.2-0.9-0.1
						c-1.2,0.1-1,1.2-2.2,1.3c0.4-0.3,0.5-0.6,0.2-0.7c-0.9,0.9-2.2,1.3-3.3,1.9c0.1-0.2,0.4-0.3,0.3-0.5c-0.5,0.5-1.2,0.7-1.8,0.9
						s-1.2,0.2-1.7,0.6l0.3-0.5c-2,0.1-0.3,1-2,1.2c0.3-0.2,0.2-0.3,0.2-0.5c-1.3,1.2-3.8,1.7-5.2,2.5c0.1-0.1,0-0.2,0-0.2
						c-1.6,0.6-3.4,1-5.1,1.7c-0.7,0,0-1-1.8-0.3c0.3,0.7-2.9,1.2-1.6,1.7c-1.6,0.3-4.1,0.6-4.9,1.2c0.6-0.4-1-0.7,0.2-1.2l-1.1-0.2
						c0.1-0.3,1-0.1,0.6-0.4c-0.6,0.2-2.4,1-3,1c-1.1,0.7-1.9,1.8-3.8,2.4c0.9-0.5-0.7-0.7-0.1-1l-2.4,2c-0.6,0.2-0.2-0.5-1.2-0.2
						c0.1,0.2-0.3,0.4-0.5,0.6c-0.1,0-0.7,0.2-1.5,0.3c-0.6,0.1-1.4,0.1-1.6-0.3c-0.3-0.2,1.1-0.3,0.2-0.5c-1.2,0.2-1.2,0.5-2.4,0.7
						v-0.1c-0.9,0-2.2,0.7-1.3,1c0.5-0.1-0.3-0.4,0.5-0.3c-0.4,0.5-1.8,0.9-3,1.1c0.4-0.2,0.3-0.4,0.4-0.6c-1.5,0.9-3.2,1.4-4.9,1.9
						c0,0.3,0.5-0.7,0.9-0.6c-2.4-0.2-4.7,1.3-6.7,0.9c0.3-0.1,0.2,0.5,0.2,0.4c-1.1,0.1-1.2-0.4-1.8-0.2c-0.1-0.3-0.9,0.2-1.6,0.4
						c-0.3,0.3-0.2-0.1,0.4-0.2c-0.5,0.2-1.8,0.6-3.2,0.7c-1.5,0.2-3.1,0.3-4.4,0.2c0.1,0.2-1.4,0.9-2,0.9l0.2-0.5
						c-0.5-0.2-1.8,0.2-2-0.2c-1.2,0.6,4.5-0.9,3-0.2c-0.4-0.4-2.1,1-1.9,0.2c-1.1,0.1-2.1,0.7-3.3,0.3c0.3,0.1,0.9-0.7,0-0.6
						c-1.6,0.2-0.4,0.2-1.7,0.4l-0.7,0.2c0,0.4-1.4,0-0.9,0.5c-0.2-0.4-2.4,0.3-2.1-0.5l0.2-0.6c-0.6,0.1-1.1,0.6-1.6,1
						c-0.1-0.1-0.3-0.2-0.2-0.3c-0.1,1-1.6,0-2.5,0.7c-0.7-0.1-1.6-0.1-2.5-0.1c-0.9-0.1-1.6-0.1-1.9-0.4c-1.1,0.2-2.1,0.5-3.4,0.3
						c0.2-0.1,0.6-0.1,0.6-0.3c-0.7-0.3-1-0.1-1.7,0.1c0.2-0.1-1.6-0.6-2.5-1c-1.1,0.2-0.7,0.7-0.9,1.1c-0.5-0.5-1.3-0.3-2.1-0.2
						c-0.9,0.1-1.7,0.2-2.2-0.2c0.4-0.1,1.6-0.3,0.7-0.6c-1-1-2,0.5-3.6,0l0.3,0.9c-0.6-0.5-2.5,0.3-2.2-0.5
						c-0.5,0.2-1.9-0.4-1.8,0.3c-2.6-0.7-6.5-0.3-8-1.8c-0.4,0.1-1.3-0.2-1.2,0.2c0.5,0.5,1-0.2,1.1,0.1c-0.3,0-0.4,0.2-0.5,0.3
						c-0.9-0.3-1.5-0.4-0.5-1c-1.8-0.6-2,1.1-4.4,0.4c0.1-0.3,0-0.4-0.7-0.4c-0.4,0.1-1,0.2-1.4,0.3c-1.5-0.4-0.7-0.9-0.7-1.4
						c-0.9,0-1.8-0.2-2.2,0.1l-0.9-0.9c0.6,0.6-0.7,0.2-1.1,0.3l0.4-0.1c-0.1-0.2-1.1-0.3-1.5-0.3c0,0.3,1,0.6,1.5,0.9
						c-0.4,0.1-1.1,0-1.7,0.2c0.3-0.5-1.3-0.6-1.8-0.7c-0.7-0.2-1,0.3-1.1,0.2c0-0.3-1.2-0.2-0.5-0.5c0.2,0,0.5,0.3,1,0.2
						c-0.4-0.3-0.3-0.7-1.4-0.5c-0.7,0.1,0,1.1-1.4,0.4c0.4,0,0.5-0.2,0.9-0.3l-1.3-0.5l-0.1,0.4c-0.1-0.1,0-0.2-0.1-0.2
						c-0.5,0.4-2-0.3-2.5,0.2c-0.6-0.1-1.4-0.6-1.9-0.9h0.1c-0.7-0.4-1.8-0.5-2.6-0.3l0.1-0.1c-0.4-0.1-1.4-0.3-2-0.1
						c-1-0.6,0.1-1.8-1.3-1.5c-1.1-0.3-1.9,0.4-1.5,0.7c-1.8-0.9-4.3-0.6-5.9-1.9c-0.3,0.1-0.2,0.3-0.7,0.2c-1.4-0.5-3-0.7-4.4-1.2
						c-1.4-0.4-2.8-0.9-3.7-1.7c0.9,0.1,0.2-0.4,0.2-0.7c-0.7,0.2-0.6-0.6-1.2-0.1c-0.1,0.4-0.2,0.6,0.5,1.1
						c-1.7-0.3-4.3-1.2-5.1-1.8c0.4,0.3,0,0.3-0.4,0.3c0.3-0.6-0.9-1.1-1.8-1.2l-0.3,0.3l-0.4-0.6c-0.4,0-0.6,0.6-1.5,0
						c0-0.2,0-0.3-0.1-0.5c-1.1,0-2.6,0-3.5-0.7l-0.6-0.9c-0.4-0.1-1.4,0-0.6,0.4c-1.6-1-2.8-1.5-3.1-2.1c-3.5,0-7.8-1.8-11.3-3.3
						l0.2-0.2c-0.9-0.6-0.7,0.3-1.3-0.2c0.4-0.1-0.4-0.9,0.4-1c-1.2-0.9-1.9-0.3-2.9-0.5c-0.3,0.3,0.7,0.1,0.4,0.4
						c-0.2,0.1-1.7-1.2-2.1-0.6c-0.2-0.4,0.2-0.6,0.5-0.9l-1-0.1c-0.6-1.1,2.8-0.1,2.1-1.4l-0.7-0.2c-0.4-1,2.2,0.2,0.5-0.9
						c-1-0.1-2,0.4-1.4,1c-1.7-0.6-1.4,1-3.2,0.1c-0.3-0.5,1.5,0.6,1.4,0c-0.6-0.9-1.8-0.5-2.5-1.1c0.7,0.6-0.2,0.9-0.9,0.6
						c-0.7-0.6,0.9-0.2-0.4-1c-0.3,0.2-1.7-0.1-0.7,0.6c-0.9,0.5-1.3-0.9-2.2-0.6c-0.2-0.7,1.9-0.5,0.6-1.5c0,0.6-2-0.2-1.7,0.9
						c-0.4-0.4-0.3-0.9,0.2-1c-0.6-0.7-2.4-0.1-2.1-1.2l-0.5,0.3c-0.2-0.3-0.4-0.6-0.7-1.1c-0.6-0.3-2.6-0.4-2.1-1.2
						c-0.2,0-1.8-0.9-1.5,0c0.9,0.9,1.3,0.2,1.5,1.2c-0.4-1-1.5-0.6-2.1-0.7l0.1-0.3c-0.4-0.1-1.2-0.5-1.5-0.3
						c0.3,0,0.3-0.3,0.1-0.5l-0.6,0.2c-1.5-0.5,0.1-1-1.3-1.5c0.4,0.1,0.7,0.1,1.2,0.2c-0.2,0-0.5-0.6-1.2-0.9
						c-0.4,0.2-1.2,0.5-1.6,0.6c-0.9-0.2-0.1-0.6-1.1-0.6l1.2,0.1c0.2,0-0.3-1.1-1.3-1.6c-0.7-0.2-2-0.2-1.2,0.5
						c-0.5-0.3-1.1-1-0.5-1c-1.2-0.5-0.1,0.5-1.2,0.2c-0.2-0.5-1.3-1.6-1.8-2.4l1.4-0.1l-0.6-0.4c1.2,0-0.2-0.6,0.6-1
						c-0.4-0.3-1.1-0.4-1.6-0.5c0.9,1.6-2.2,0.4-2.2,1.4c-1.9-0.9,0-2.6-2.6-2.5c0.2,0.4-1.1,0.4,0.2,1c-1.1-0.7-1.3,0.3-2.4-0.7
						c1.2,0.3-0.5-1.5,1.2-1.1c-0.2,0.2,0.6,0.6,1,0.7c-0.3-0.6,0.5-0.7-0.5-1.5c-0.7-0.3-1.7-1-1.8-0.4c-0.2,0.4,1.1,0.6,0.3,0.7
						c-1.5-0.6-1.3-1.5-2.4-1.1c1,0.4,0.9,1.1,0.6,1.4l-1.2-0.4l0.4-0.2c-1.5-1.2-0.9,0.2-2.4-0.9l-0.3-1.1c0.7-0.3,2.1,1.6,2.4,0.6
						c-1-0.6-1.6-0.4-2.5-1.3c0.2,0.1,0.5,0.2,0.9,0.3c-0.3-0.2,0-1.6-1.9-1.8c-1-0.2-0.4,0.2-0.6,0.4c-1.7-1-2.4-1-3.4-1.6
						c0.6-0.4-1.8-1.3-0.2-1.2c0.3,0.7,2.7,2.2,3.6,2c-0.1-1.1,1.2,0.9,2,0.4c-1.3-0.9-0.7-1.5-0.7-2.1c-0.3-0.2-0.9-0.3-1.1-0.3
						c-0.4,0.3,0,0.6-0.2,1.1c-1.4-1.1-2.9-1.7-4-1.8c-0.3-0.5,0.1-0.9,0.6-0.5c-1.8-1-3.6-2.2-5.1-3.5c0.5,1.4-1.9-1.1-1.6,0
						c0.7,0.7,1.2,1.7,0.4,1.7c-0.5-0.4,0.2-0.3,0.1-0.6c-1-0.1-0.6-1.4-1.7-1.2c1.7,0.9,0.9-0.6,1.6-1.1c-1.4-0.4,0.3-0.3-0.7-1.1
						c-1.4-0.4-2.9-1.2-4.2-1.9c-1.2-1.6-3.8-2.8-5.2-3.7c-0.5-0.7,0.4-1.1-0.3-1.7c-1-0.6,0.2,1.2-1-0.1h0.2
						C77.7,56,76.1,54,75,54.5l0.9-0.3c-0.2-0.2-0.5-0.3-0.7-0.3c0.1-0.2,0-0.6,0.5-0.4c-0.4-1.1-1.7-1.2-2.7-1.9l0.3,0.9
						c-1.7-0.9-2.5-2-4.1-3l0.3-0.3l-1.1-0.4c0.5-0.2-0.1-1.1-0.9-1.1l3,0.9c0.4,0.7-1.1-0.1-1,0.6c0.1,0.5,1.5,1.5,2,1.3
						c-0.5-0.4-0.5-0.3-1.1-0.5c0.2-0.6,1,0,1.6-0.1c-0.3-0.2-0.5-0.6-0.7-0.5c0.7,0.1,1.3,0.5,2.1,1.2c-0.7-0.2,0.1,0.5-0.2,0.5
						c0.4-0.4,1.4,0.1,2.4,1.1c0.3,1.2,2.4,1.2,3.5,2.2c-0.9,0.1-1.8,0-2.8-0.3c0.6,0.9,1,0.6,1.6,1.5c0.6-0.1,1.3-0.4,2.6,0.1
						l-0.2,0.4c1.1,0.5,1.5,0,2.6,1c1.9,1.7,4.2,3.2,5.7,4.4l-0.2,0.4c1.4-0.1,3.2,1.7,4.7,2.2c1.8,1.7,4.7,2.7,5.4,4
						c3.8,2.1,7.4,3.8,11.1,6.4l-1,0.1c1,0,0.2,0.6,1,1c-0.5-1,1.3,0,1.9,0c1.5,1.4,4.1,2.2,5.9,2.8l-0.1,0.4c2,0.2,3.5,1.9,5.4,3.1
						c0.1,0.3,0.3,0.9,1,1.1c1.4,0,1.9,0.3,3.7,0.7c1.2,0.6,3,1.7,4.1,2.6c1.2,0.3,2.4,0.7,3.5,1.3c1.2,0.4,2.4,1,3.4,1.5
						c2.4,1.1,4.6,2.1,7.1,3l0.1,0.6c2.5,0.5,5,1.5,7.5,2.7c2.5,1.1,4.8,2.2,6.9,2.7l-0.7,0.6c1.2,0.7,2.9,0.9,2.8,0.1
						c1.2,0.7,3.3,0.7,3.8,1.7c1.2,0.6,1.7,0.2,2.8,0.5c2.5,1.2,3.5,1.4,6,2l-0.6-0.2c-0.3,0.1-0.4,0.4,0.1,0.6c1,0.1,3.3,1.3,2.7,0
						c1.2,0.7,2.8,1.1,4.3,1.5c1.6,0.3,3.1,0.6,4.3,1.4c-0.1-0.3,0.5-0.2,0.9-0.3c2.4,0.6,4.6,1.8,6.6,1.8c0.3,0.2-0.7,0.3,0.2,0.5
						c0.6,0,0.1-0.3,0.9-0.3c4,0.3,7.6,2.4,11.1,2.8c3.2,0.2,6.3,0.7,9.5,1.3c3.1,0.4,6.3,0.9,9.3,1.2l-0.1,0.2
						c1.1-0.3,2.2,0.1,3.3,0.3c1.1,0.2,2.1,0.4,3-0.1c0.4,0.2,1.8,0.2,1.4,0.6c1.6-0.4,4.5,0.9,6.8,0.3c-0.2,0-0.3,0-0.5,0.1
						c2.4,0.5,4.4,0,6.8,0.4c-0.2,0.1-0.7,0.1-0.7,0.3c1,0.4,2.2-0.9,2.8,0.2c0.5,0,0.4-0.5,0.1-0.4c2.7,0.3,5.6,0.1,8.3-0.1
						c2.8-0.2,5.7-0.4,8.4-0.9c4.1,0.3,0.3,1.7,3.5,0.6c0.3,0.2,0.1-0.4,0.2-0.2c1.2-0.3,2,1,2.8,0.4c-0.4-0.6,0.5-0.4,0.5-0.7
						c2.5,0.2,3.1,0.6,4.9,0l-0.1,0.3c2.1-1.2,4.9-1.1,6.6-2.4c12.5-2,24.1-5.2,35.9-8.8c11.6-3.3,22.7-7.9,34.2-12.4
						c3-0.4,3.2-0.5,5.9-2.2c-0.1,0.2-0.2,0.3,0,0.3c-0.1-0.7,2-1,2-1.7c1.1-0.4,2-1,3.1-1.4c1-0.4,1.9-1.1,3-1.5
						c1.9-1.1,4-2.1,6-3.2c-0.6,0.4-0.6,1.1,0.1,0.6l0.6-0.9l0.2,0.1c0.5-0.3,1-1,0.2-0.9c10-6.2,20.8-10.9,30.3-17.5
						c2.5-1.3,5.7-3.6,7.9-5.6c3.8-2.2,7.6-4.3,11.1-6.6c3.5-2.4,6.9-5,10.4-8C433.4,42.8,433.6,45,430.8,47.5z"/>
					<path class="st3" d="M67.7,45.9c0,0.4,0.7,1.3-0.2,1.1C67.6,46.7,67.4,46.2,67.7,45.9z"/>
					<path class="st3" d="M88,65.3c0.1-0.1,0.2,0.3,0.3,0.4c-0.3-0.2-0.7-0.1-0.9-0.4C87.8,65.5,87.8,65.3,88,65.3z"/>
					<path class="st3" d="M93.9,69.4c-0.2,0.2-1.7-0.4-2.5-1L93.9,69.4z"/>
					<path class="st3" d="M98.8,74.1c0.3,0.5,0.1,0.5-0.5,0.1C98.3,74.1,98.6,74.3,98.8,74.1z"/>
					<path class="st3" d="M99.6,73.8c0.4,0.3,0.6,0.5,0.7,0.9C100.4,74.5,99.2,74.1,99.6,73.8z"/>
					<path class="st3" d="M111.5,82.2c0.3,0.1,1.1,0.3,1.2,0.7C112.6,82.5,111.1,82.4,111.5,82.2z"/>
					<path class="st3" d="M117.6,85c0.2,0.1,0.2,0.2,0.5,0.3c0.3,0.3-0.2,0.3-0.5,0.2V85z"/>
					<polygon class="st3" points="234.5,120.1 233.9,120.2 234,119.9 					"/>
					<path class="st3" d="M288.3,117.5c0.6-0.3,0.5,0.2,0.6,0.2C288.3,117.8,289.1,117.3,288.3,117.5z"/>
					<polygon class="st3" points="316.2,109.7 316,109.8 315.8,109.2 					"/>
				</g>
			</g>
		</g>
	</g>
</g>
<g>
	<rect x="223.5" y="89.5" class="st4" width="52.9" height="52.9"/>
	<g>
		<g>
			<g>
				<g>
					<path class="st5" d="M276,143.6c0.7-0.1-0.4-0.5,0.5-0.2C276.4,143.6,276.2,143.8,276,143.6z"/>
					<path class="st5" d="M277.3,139.9c-1.6-2.5,0-5.8-1.1-8.5c-0.1-0.3,0.9,0.1,0.6-0.6c-1.3-2.7-0.5-6.8,0.4-10l0.2,0.2
						c0.2-0.6-0.6-1.4-0.5-2c0.2,0,0.2,0.2,0.4,0.1c-0.5-0.2-0.2-1.2-0.6-1.5c0.2-0.2,0.6-0.2,0.9-0.5l-0.5-0.4
						c-1.4-1.1,0.1-2.6-0.6-4c0.1,0.1,0.2,0.2,0.3,0.1c-0.9-2.2-0.6-5.1-1-7.7c0.2,0.1,0.5,0.2,0.9,0c-0.6-0.1-0.7-1-0.9-1.6
						c0.6-0.3-0.5-1.2-0.2-1.9l0.1,0.1c-0.6-0.6,0.4-0.9-0.4-1.4l0.5-0.4c-0.9-0.2,0.4-0.9,0-1.4h-0.2c-0.2-0.4,0.2-0.7,0.1-1.2h0.1
						c-0.2-1,0.2-1.6-0.4-1.6c0.5-0.3,0.2,1,1.1,0.4c-0.4-2.2-0.5-4.2-0.5-6.1c-1,0-2,0-3,0c-0.2-0.3-0.5-0.3-0.5-0.6
						c-0.3,0.1-1.3,0.1-1.6,0.4c0.1,0-0.2-0.3-0.4-0.4c-0.6-0.2-0.6,0.7-1.3,0.4c0.2-0.2,0.3-0.4,0.2-0.6c-0.5,0.5-1.3,0.4-2,0.6
						c0.1-0.1,0.2-0.2,0.2-0.4c-0.7,0.6-1.3-0.1-1.9,0.2l0.2-0.4c-1.1-0.4-0.3,0.9-1.2,0.5c0.2-0.1,0.1-0.3,0.2-0.4
						c-0.9,0.7-2.1,0.5-3,0.7c0-0.1,0-0.2,0-0.2c-0.9,0.1-1.8-0.1-2.9,0.2c-0.3-0.2,0.1-1-0.9-0.9c0,0.7-1.6,0.3-1.1,1.2
						c-0.9-0.1-2.1-0.4-2.7-0.1c0.3-0.3-0.4-1,0.3-1.1l-0.5-0.4c0.1-0.3,0.5,0.1,0.3-0.3c-0.3,0-1.3,0.3-1.6,0.2
						c-0.6,0.5-1.2,1.4-2.2,1.5c0.4-0.3-0.3-0.9,0.1-1l-1.4,1.5c-0.3,0-0.1-0.6-0.5-0.4c0,0.2-0.2,0.3-0.3,0.5
						c-0.1-0.1-1.4,0.2-1.6-0.5c-0.1-0.3,0.5-0.2,0.2-0.4c-0.6,0-0.6,0.3-1.3,0.3v-0.1c-0.4-0.1-1.2,0.3-0.7,0.7
						c0.3,0-0.1-0.4,0.3-0.2c-0.3,0.4-1.1,0.5-1.6,0.6c0.2-0.1,0.2-0.3,0.3-0.5c-0.9,0.6-1.7,0.9-2.7,1.1c0,0.3,0.3-0.6,0.5-0.4
						c-1.2-0.5-2.5,0.7-3.5,0c0.2-0.1,0.1,0.5,0.1,0.4c-0.5,0-0.5-0.5-1-0.4c0-0.3-0.4,0.1-0.9,0.2c-0.2,0.2-0.1-0.1,0.2-0.2
						c-0.5,0.3-2.7,0.7-4,0.3c0,0.2-0.7,0.7-1.1,0.7l0.1-0.5c-0.2-0.3-1,0-1-0.4c-0.6,0.6,2.4-0.5,1.5,0c-0.2-0.4-1.2,0.7-1,0.1
						c-0.5,0-1.2,0.5-1.7,0.1c0.2,0.1,0.4-0.6,0-0.6c-0.9,0.1-0.2,0.2-0.9,0.4l-0.4,0.2c0,0.2-0.2,0.2-0.3,0.2c-0.1,0-0.1,0,0,0.2
						c-0.1-0.4-0.5,0.2-0.6-0.5l-0.1-0.6c-0.2,0-0.2,0.6-0.2,1c0-0.1-0.1-0.2-0.2-0.3c0.2,0.4,0.1,0.4,0,0.4s-0.3-0.1-0.2,0.2
						c-0.3-0.2-0.5-0.2-0.7-0.2c0,0.2-0.1,0.3-0.4,0.1c0.3,0.5,0.6,1,0.4,1.2c-0.1-0.1-0.1-0.2-0.3-0.3c-0.3,0.1,0,0.3,0.1,0.5
						c-0.1-0.1-0.5,0.3-0.9,0.6c0.3,0.5,0.7,0.3,1.1,0.4c-1,0.5,0.6,1.6-0.2,2.2c-0.1-0.2-0.4-0.9-0.7-0.3c-1,0.5,0.6,1.1,0.2,1.9
						l0.7-0.2c-0.5,0.4,0.4,1.3-0.3,1.2c0.3,0.3-0.2,1,0.5,0.9c-0.6,1.4,0.4,3.3-1,4.2c0.1,0.2,0,0.6,0.4,0.6c0.4-0.3-0.3-0.4,0-0.5
						c0,0.2,0.2,0.2,0.3,0.2c-0.2,0.4-0.2,0.7-0.9,0.3c-0.4,1,1.3,1,1,2.2c-0.3-0.1-0.4,0-0.4,0.4l0.5,0.6c-0.1,0.7-0.7,0.4-1.3,0.4
						c0.1,0.4,0.1,1,0.4,1.2l-0.6,0.5c0.5-0.3,0.3,0.3,0.4,0.5l-0.1-0.2c-0.2,0.1-0.1,0.5,0,0.9c0.3-0.1,0.4-0.5,0.5-0.9
						c0.2,0.2,0.2,0.5,0.4,0.9c-0.5-0.1-0.3,0.6-0.4,1.1c-0.1,0.4,0.4,0.4,0.4,0.5c-0.3,0,0,0.6-0.4,0.3c-0.1-0.1,0.2-0.3,0-0.5
						c-0.2,0.2-0.6,0.2-0.3,0.7c0.2,0.4,1.1-0.1,0.7,0.6c-0.1-0.2-0.3-0.2-0.5-0.4l-0.3,0.7h0.4c-0.1,0.1-0.2,0-0.2,0.1
						c0.5,0.2,0.1,1.1,0.7,1.2c0,0.3-0.3,0.7-0.4,1.1v-0.1c-0.3,0.4-0.1,1,0.2,1.3h-0.1c0,0.2,0,0.7,0.3,1.1
						c-0.3,0.5-1.8,0.2-1.2,0.9c0,0.5,0.9,0.9,1.2,0.6c-0.3,1.1,0.4,2.2-0.3,3.2c0.2,0.1,0.3,0.1,0.4,0.3c-0.2,1.5,0.5,3.2-0.3,4.4
						c-0.2-0.4-0.4,0-0.7,0c0.4,0.3-0.4,0.4,0.3,0.5c0.4,0,0.6,0,0.9-0.4c0.2,1,0.2,2.2-0.2,2.8c0.2-0.2,0.3-0.1,0.4,0.1
						c-0.6-0.1-0.7,0.6-0.5,1.1l0.4,0.1l-0.4,0.3c0.1,0.2,0.9,0.2,0.4,0.7c-0.2,0-0.3,0.1-0.4,0.1c0.3,0.5,1,1.3,0.5,1.8l-0.6,0.4
						c0.1,0.2,0.4,0.6,0.6,0.2c-0.1,0.2-0.2,0.4-0.2,0.6c0,0.1-0.1,0.2-0.1,0.3s-0.1,0.2-0.1,0.2c-0.1,0.1-0.2,0.2-0.5,0.3
						c0.9,0.4,1.2,0.4,1.3,0.7c0.2-0.1,0.4,0,0.5,0l-0.2,0.3c0,0.3,0.3-0.5,0.3-0.3c-0.2,0.3-0.1,0.6-0.4,1c0.2,0.3,0.5-0.5,0.7-0.6
						c0.1-0.4-0.1,0.2,0-0.2c0-0.1,0.1,0,0.1,0s0.2,0,0.3,0s0.2-0.1,0.2-0.3c0.2,0.2,0,0.7-0.1,1l0.4-0.3c0.5,0.7-1.3,1.3-0.6,2.2
						l0.4-0.1c0.4,0.6-1.1,0.7-0.1,1c0.4-0.3,0.9-1.2,0.4-1.5c1-0.2,0.4-1.5,1.5-1.4c0.3,0.3-0.9,0.1-0.6,0.6c0.5,0.5,1-0.3,1.4-0.1
						c-0.4-0.2-0.1-0.9,0.2-1c0.5,0.3-0.3,0.6,0.4,0.6c0.1-0.3,0.9-0.6,0.2-0.9c0.3-0.9,0.7,0.2,1.2-0.4c0.2,0.5-0.7,1.3,0,1.6
						c-0.1-0.5,1-0.7,0.5-1.6c0.3,0.1,0.3,0.6,0.1,1c0.4,0.3,1.1-1,1.3,0.1l0.1-0.5c0.1,0.2,0.3,0.3,0.5,0.6c0.4,0,1.3-0.7,1.3,0.1
						c0.1-0.1,1.1,0,0.6-0.6c-0.5-0.3-0.6,0.4-1-0.3c0.4,0.6,0.9-0.1,1.2-0.3l0.1,0.3c0.2-0.1,0.6-0.1,0.7-0.4
						c-0.1,0.2-0.1,0.4,0.1,0.5l0.2-0.5c0.7-0.2,0.2,0.9,1,0.7l-0.6,0.4c0.1-0.1,0.4,0.4,0.7,0.2c0.1-0.4,0.4-1,0.5-1.4
						c0.4-0.2,0.2,0.5,0.6,0l-0.5,0.5c-0.1,0.1,0.4,0.7,1,0.7c0.3-0.1,1-0.9,0.3-1.1c0.3,0,0.7,0.3,0.4,0.6c0.6-0.1-0.1-0.5,0.5-0.7
						c0.2,0.3,1,0.7,1.4,1.2l-0.6,0.7h0.4c-0.5,0.6,0.2,0.4,0,1.1c0.3,0.1,0.6-0.1,0.9-0.3c-0.7-1.1,0.9-1.4,0.6-2.4
						c1.1-0.2,0.6,2.2,1.8,0.9c-0.2-0.2,0.3-1-0.3-0.6c0.6,0.1,0.4-1,1.3-0.5c-0.6,0.4,0.6,1-0.2,1.5c0.1-0.3-0.4-0.2-0.6-0.1
						c0.3,0.3-0.1,1,0.6,1c0.4-0.1,1-0.1,1-0.6c0-0.5-0.6,0.1-0.4-0.5c0.9-0.2,1,0.6,1.3-0.3c-0.5,0.1-0.6-0.5-0.6-0.9l0.6-0.2
						l-0.1,0.3c1,0.2,0.3-0.6,1.3-0.5l0.4,0.7c-0.2,0.6-1.4-0.3-1.2,0.7c0.6,0,0.9-0.4,1.4-0.2c-0.1,0.1-0.3,0.1-0.4,0.2
						c0.2,0,0.4,1.4,1.4,0.5c0.4-0.3,0.1-0.3,0.1-0.7c1-0.1,1.3-0.5,1.9-0.5c-0.1,0.7,1.2,0.1,0.4,0.9c-0.3-0.4-1.8-0.4-2.1,0.3
						c0.3,0.9-0.7-0.1-1,0.7c0.9,0,0.7,0.9,0.9,1.4c0.2,0,0.4-0.2,0.5-0.3c0.1-0.5-0.2-0.5-0.2-1.1c0.9,0.1,1.7-0.1,2.2-0.6
						c0.3,0.2,0.2,0.7-0.1,0.9c1.1-0.1,2.2-0.1,3.2,0.1c-0.6-0.9,1.2-0.2,0.6-1c-0.5-0.2-1-0.7-0.7-1.2c0.3,0.1,0,0.3,0.1,0.5
						c0.4-0.4,0.6,0.7,1.1,0c-1,0.3-0.2,1.1-0.3,1.7c0.7-0.4,0,0.4,0.6,0.4c0.7-0.3,1.6-0.6,2.4-0.9c1,0.6,2.5,0,3.3,0
						c0.4,0.3,0.1,1.1,0.6,1.2c0.5,0-0.4-0.9,0.4-0.4l-0.1,0.1c0.2-0.2,1.6,0.5,1.8-0.5l-0.2,0.9c0.2,0.1,0.3-0.1,0.4-0.2
						c0,0.2,0.2,0.5-0.1,0.6c0.5,0.5,1.1-0.1,1.7-0.1l-0.3-0.5c1-0.4,1.6,0.1,2.6-0.1v0.4l0.5-0.3c-0.1,0.4,0.4,0.7,0.6,0.3
						l-1.5,1.2c-0.4-0.3,0.4-0.5,0.2-1.1c-0.2-0.4-1.1-0.3-1.3,0.2c0.3,0,0.3,0,0.6-0.2c0.1,0.6-0.4,0.6-0.6,1.1
						c0.2,0,0.4,0.2,0.4,0c-0.3,0.3-0.7,0.3-1.3,0.4c0.4-0.2-0.2-0.4-0.1-0.6c0,0.5-0.6,0.7-1.3,0.6c-0.5-0.6-1.4,0.4-2.1,0.2
						c0.3-0.6,0.7-1.1,1.3-1.3c-0.5-0.3-0.5,0-1.1-0.3c-0.2,0.4-0.4,1.1-1.1,1.4v-0.4c-0.6,0.2-0.6,0.9-1.4,0.7
						c-1.4-0.2-2.8-0.2-3.7-0.3v-0.4c-0.5,1-1.9,0.3-2.7,0.7c-1.3-0.4-2.9,0.4-3.5-0.3c-2.4,0.3-4.4,0.6-6.7,0.5l0.4-0.6
						c-0.4,0.4-0.3-0.3-0.7-0.3c0.5,0.5-0.5,0.6-0.9,1.1c-1.1-0.5-2.5,0-3.4,0.5V144c-1,0.9-2.1,0.1-3.3,0c-0.1-0.2-0.3-0.5-0.7-0.5
						c-0.6,0.7-1,0.6-1.9,1.1c-0.6,0-1.8-0.2-2.6-0.4c-1.3,0.5-2.6,0.5-4,0.6c-0.6,0-1.3,0-2,0.1c-0.3,0-0.6,0-1,0.1
						c-0.5,0.1-1.1,0.1-1.6,0.2c-0.1-0.2-0.1-0.3-0.2-0.5c-1.8,0.4-4.1,0.5-6.1,0.5c0-2.8,0.2-5.3-0.1-7.4c0.3,0.1,0.5,0.2,0.9,0.3
						c0.1-0.6,0.1-1-0.1-1.2c-0.2-0.3-0.4-0.4-0.7-0.4c0.2-0.7-0.4-1.7,0.3-2.2c0.2-0.7-0.4-0.9-0.5-1.5c0.3-1.4,0.2-1.9,0.1-3.3
						l-0.1,0.3c0.2,0.1,0.5,0.2,0.6-0.2c-0.2-0.5,0.2-1.8-0.9-1.4c0.6-1.5-0.5-3.4,0.3-4.8c-0.3,0.1-0.3-0.2-0.5-0.4
						c0-1.3,0.5-2.6,0.1-3.6c0.1-0.2,0.5,0.3,0.5-0.2c-0.1-0.3-0.3,0-0.5-0.4c-0.5-2,0.5-4.2,0.4-6.1c-0.5-3.3-0.3-6.8-0.3-9.9h0.2
						c-0.7-1.1,0.9-2.5-0.4-3.3c0.2-0.2,0.1-1,0.5-0.7c-0.5-0.9,0.5-2.4-0.2-3.6c0,0.1,0,0.2,0.1,0.3c0.1-0.3,0.2-0.6,0.2-1
						c0-0.1,0-0.3,0-0.4v-0.5c0-1-0.1-2,0.1-3.1c0.1,0.2,0.1,0.6,0.3,0.9c0.2-0.3,0-0.9-0.2-1.4c-0.1-0.5-0.2-1,0.3-0.9
						c0-0.4-0.5-0.6-0.4-0.3c0.1-0.7,0.1-1.6,0.1-2.5c2,0,4-0.1,6-0.2l1.6-0.1l1-0.1c0.6-0.1,1.3-0.1,1.8-0.2c2.1,0.6,0.1,1.7,1.8,1
						c0.1,0.2,0.1-0.4,0.1-0.2c0.6-0.3,1.1,1.2,1.5,0.6c-0.2-0.6,0.3-0.3,0.3-0.7c1.3,0.4,1.6,1,2.6,0.5l-0.1,0.3
						c1.2-1,2.6-0.4,3.6-1.5c6.6-0.2,13-0.7,19.6-0.9c2.7,0.1,5.3,0,8,0c1.5,0,3.1,0,4.6,0c2.7,0,5.3,0,7.9,0.1c0,2-0.1,4.2-0.2,6.3
						c-0.2,0.7-0.3,1.4-0.5,1.8c-0.1,0.2-0.1,0.4-0.1,0.6c0,0.1,0,0.3-0.1,0.4c-0.1,0.4,0,0.9,0.2,1.7c-0.1-0.1-0.2-0.2-0.3-0.1
						c0.7,0.1,0.1,1.2,0.7,1.4c-0.1,2.5,0.1,4.6,0.1,7.2c-0.1-0.4-0.6-0.6-0.6-0.1l0.4,0.5l-0.2,0.1c0.1,0.3,0.4,0.6,0.6,0.3
						c0.6,6.2-0.7,12.4-0.6,18.5c-0.3,1.5,0,3.5,0.1,5.1c-1,4.7-1.7,8.9-1.1,13.7C279.5,142.5,277.7,141.9,277.3,139.9z"/>
					<path class="st5" d="M275,143.7c-0.2-0.3-0.7-0.5-0.3-1C274.8,143.1,275.1,143.4,275,143.7z"/>
					<path class="st5" d="M260.5,140.1c0,0.1-0.2-0.1-0.2-0.2c0.2,0,0.3-0.3,0.5-0.1C260.6,139.8,260.6,140,260.5,140.1z"/>
					<path class="st5" d="M256.9,139.9c0.1-0.3,0.9-0.5,1.3-0.6L256.9,139.9z"/>
					<path class="st5" d="M253.3,138.6c-0.3-0.2-0.2-0.4,0.2-0.4C253.6,138.4,253.4,138.5,253.3,138.6z"/>
					<path class="st5" d="M253.1,139.3c-0.3,0-0.4-0.2-0.5-0.3C252.6,139.2,253.2,138.8,253.1,139.3z"/>
					<path class="st5" d="M245.6,138.4c-0.2,0-0.5,0.3-0.7-0.1C245.1,138.6,245.8,137.9,245.6,138.4z"/>
					<path class="st5" d="M242.1,138.9c-0.1,0-0.1-0.1-0.3,0c-0.2-0.1,0-0.3,0.2-0.4L242.1,138.9z"/>
					<polygon class="st5" points="225.9,97.5 226.1,98 225.8,97.9 					"/>
					<path class="st5" d="M243.4,91.9c0.4-0.2,0.2,0.3,0.3,0.3C243.4,92.3,243.8,91.9,243.4,91.9z"/>
					<polygon class="st5" points="258.4,90.4 258.3,90.4 258.4,89.7 					"/>
				</g>
			</g>
		</g>
	</g>
</g>
<g>
	<circle class="st4" cx="64.7" cy="45.7" r="15.8"/>
	<g>
		<g>
			<g>
				<g>
					<path class="st5" d="M81.7,46c-0.1-0.4-0.5,0.2-0.2-0.2C81.7,45.8,82,45.8,81.7,46z"/>
					<path class="st5" d="M81.3,44.4c-0.9-0.5-1-1.2-1-1.9c-0.1-0.6-0.1-1.5-0.9-1.9c-0.1-0.1,0.9-0.2,0.5-0.5
						c-0.7-0.4-1.3-1.1-1.5-1.8c-0.3-0.7-0.3-1.8-0.4-2.7l0.2-0.1c0-0.3-1-0.1-1.1-0.4c0.1-0.1,0.2-0.1,0.4-0.3
						c-0.4,0.2-0.5-0.3-1-0.1c0.1-0.2,0.3-0.5,0.4-0.7l-0.5,0.2c-1.3,0.6-0.9-1-1.8-0.9c0.1-0.1,0.2-0.1,0.3-0.2
						c-1.4,0-2.4-0.9-3.5-1.1c0.1-0.2,0.3-0.4,0.4-0.7c-0.3,0.5-0.7,0.5-1.1,0.4c0.1-0.6-0.7,0.3-1-0.1l0.1-0.1
						c-0.4,0.5-0.2-0.5-0.7,0.2v-0.5c-0.3,0.9-0.2-0.5-0.5-0.2v0.2c-0.2,0.1-0.2-0.3-0.4-0.2v-0.1c-0.5,0.1-0.6-0.4-0.7,0.3
						c-0.1-0.5,0.4-0.2,0.4-1c-1.6,0.4-3.1,0.2-4.6,0.3c-0.2-0.2-0.3-0.3-0.4-0.5c-0.1,0.1-0.5,0.2-0.6,0.5c0,0-0.1-0.3-0.2-0.3
						c-0.3-0.2-0.2,0.7-0.5,0.5c0.1-0.2,0.1-0.4,0-0.6c-0.3,0.6-0.7,0.6-1,0.9c0-0.1,0.1-0.2,0-0.4c-0.2,0.6-0.6,0-0.9,0.5v-0.4
						c-0.6-0.3,0.1,0.9-0.3,0.7c0-0.1,0-0.3-0.1-0.4c-0.1,0.9-0.7,0.7-1,1.2c0-0.1,0-0.1,0-0.1c-0.3,0.3-0.9,0.2-1.1,0.7
						c-0.2-0.1-0.4-0.9-0.7-0.5c0.4,0.6-0.4,0.6,0.2,1.3c-0.4,0-1,0.2-1.1,0.5c0-0.3-0.7-0.6-0.5-0.9l-0.4-0.3
						c-0.2-0.3,0.3-0.1,0-0.3c-0.1,0.1-0.3,0.6-0.5,0.6c0.1,0.5,0.5,1.4,0.2,1.8c0-0.3-0.7-0.5-0.6-0.7c0.2,0.5,0.4,1.1,0.6,1.5
						c-0.1,0.1-0.4-0.4-0.4-0.1c0.2,0.1,0.2,0.3,0.3,0.4c-0.1,0-0.2,0.5-0.9,0.1c-0.3-0.1,0-0.3-0.3-0.3c-0.2,0.2,0,0.4-0.1,0.6
						L53,36.3c-0.2,0.1-0.1,0.6,0.4,0.7c0.1-0.1-0.4-0.2-0.1-0.2c0.3,0.4,0.2,0.6,0.1,0.9c0-0.1-0.2-0.2-0.4-0.4
						c0.3,0.6,0.3,1.1,0.3,1.5c0.3,0.2-0.5-0.4-0.3-0.4c-0.7,0.2,0.1,1.3-0.7,1.3c0-0.1,0.5,0.2,0.4,0.1c-0.1,0.2-0.6,0-0.5,0.2
						c-0.3-0.1,0,0.2,0,0.4c0.2,0.2-0.1,0-0.1-0.2c0.2,0.3,0.3,1.3-0.2,1.6c0.2,0,0.6,0.5,0.6,0.6h-0.7c-0.3,0-0.1,0.4-0.4,0.3
						c0.5,0.4-0.2-1.1,0.1-0.6c-0.4,0,0.6,0.6,0,0.4c0,0.2,0.4,0.5,0,0.7c0.1,0-0.6-0.3-0.6-0.1c0,0.3,0.2,0.1,0.3,0.4l0.2,0.2
						c0.4,0.1-0.1,0.3,0.4,0.2c-0.4,0,0.2,0.5-0.6,0.4l-0.6-0.1c0,0.1,0.6,0.3,0.9,0.4c-0.1,0-0.2,0-0.3,0c1,0.1-0.1,0.3,0.6,0.5
						c-0.3,0.3-0.1,0.7-0.6,0.9c0.3,0.2,0.6,0.4,0.4,0.6c-0.1,0-0.1-0.1-0.3-0.1c-0.3,0.2,0,0.2,0.1,0.3c-0.1,0-0.5,0.4-0.9,0.6
						c0.3,0.2,0.9,0,1.2,0c-0.9,0.3,0.6,0.5-0.1,1c-0.1,0-0.5-0.2-0.7,0c-0.9,0.4,0.7,0.3,0.4,0.7l0.7-0.3c-0.4,0.3,0.5,0.3-0.2,0.5
						c0.3,0-0.1,0.4,0.5,0.2c-0.4,0.7,0.7,1.1-0.3,1.9c0.1,0,0.1,0.2,0.4,0c0.3-0.3-0.3,0-0.1-0.2c0,0.1,0.2,0,0.3-0.1
						c-0.1,0.2-0.1,0.4-0.7,0.5c-0.2,0.5,1.3-0.2,1.3,0.3c-0.3,0.1-0.3,0.2-0.2,0.3h0.6c0,0.3-0.5,0.5-1,0.9
						c0.2,0.1,0.2,0.3,0.6,0.1L53,54.2c0.3-0.4,0.3-0.1,0.5-0.1h-0.1c-0.2,0.1,0.1,0.2,0.2,0.3c0.2-0.2,0.2-0.4,0.2-0.6
						c0.2-0.1,0.3,0.1,0.5,0c-0.4,0.3-0.1,0.4-0.1,0.6s0.4-0.2,0.5-0.1c-0.2,0.2,0.1,0.2-0.2,0.3c-0.1,0,0.1-0.2-0.1-0.2
						c-0.1,0.2-0.4,0.5,0,0.4c0.3,0,0.7-0.7,0.7-0.3c-0.1,0-0.3,0.1-0.5,0.2v0.4l0.3-0.3c-0.1,0.1-0.1,0.1-0.1,0.2
						c0.4-0.3,0.4,0.2,0.9-0.1c0.1,0.1,0,0.4,0,0.5l0,0c-0.1,0.3,0.2,0.3,0.5,0.2l-0.1,0.1c0,0.1,0.2,0.2,0.5,0
						c0,0.4-1.1,1.4-0.5,1.2c0.2,0.1,0.9-0.4,1-0.7c0.1,0.2,0.3,0.3,0.5,0.3c0.2,0.1,0.4,0.1,0.3,0.5c0.1-0.1,0.2-0.2,0.3-0.3
						c0.4,0.5,1.3,0,1.4,1.2c-0.2,0.1-0.2,0.4-0.3,0.6c0.3-0.3,0,0.4,0.3-0.2c0.1-0.4,0.2-0.5,0.1-0.9c0.4-0.1,0.9,0.1,1,0.5
						c0-0.2,0.1-0.3,0.2-0.4c-0.2,0.6,0,0.9,0.2,0.6l0.1-0.4v0.4c0.1-0.1,0.3-0.9,0.4-0.4c0,0.1-0.1,0.3-0.1,0.4
						c0.3-0.3,0.6-0.7,0.9-0.4l0.1,0.6c0.1,0,0.3-0.4,0.2-0.6c0.3,0.4,0.5,0.5,0.6,1.1c0.9-1.2,1.6-1.2,2.4-1.2V58
						c0.2,0.3,0.1-0.5,0.2-0.3c0,0.3,0.2,0.6,0.1,1c0.3,0.3,0.3-0.5,0.5-0.7c0-0.4-0.1,0.3-0.1-0.2c0-0.1,0.4,0.2,0.3-0.3
						c0.1,0.2,0.1,0.6,0.1,1l0.1-0.3c0.3,0.6-0.3,1.4,0,2.2l0.2-0.1c0.3,0.6-0.4,0.9,0.1,1c0.2-0.3,0.2-1.3,0-1.5
						c0.3-0.2-0.1-1.5,0.3-1.5c0.2,0.3-0.3,0.1-0.1,0.6c0.3,0.4,0.3-0.3,0.5-0.2c-0.2-0.2-0.2-0.9-0.1-1c0.2,0.2,0,0.6,0.3,0.6
						c0-0.3,0.1-0.6-0.1-0.9c-0.1-0.9,0.3,0.1,0.3-0.5c0.2,0.5,0.1,1.4,0.5,1.5c-0.2-0.5,0.1-0.9-0.2-1.6c0.1,0.1,0.3,0.5,0.3,0.9
						c0.3,0.2,0-1.1,0.4-0.1l-0.1-0.5c0.1,0.1,0.2,0.3,0.4,0.5c0.1,0,0.1-0.9,0.4-0.1c0-0.1,0.3-0.2,0-0.7c-0.3-0.2,0,0.5-0.4-0.2
						c0.4,0.5,0.2-0.2,0.2-0.4l0.1,0.3c0-0.1,0.2-0.1,0.1-0.5c0,0.2,0.2,0.4,0.2,0.4l-0.2-0.4c0.1-0.3,0.4,0.7,0.6,0.5v0.4
						c0-0.1,0.3,0.3,0.3,0.1c-0.2-0.4-0.3-1-0.5-1.3c0-0.2,0.3,0.4,0.2-0.1l0.1,0.5c0,0.1,0.5,0.5,0.6,0.4c0-0.2-0.1-0.9-0.4-1
						c0.1-0.1,0.3,0.1,0.4,0.4c0.1-0.2-0.3-0.4-0.3-0.7c0.2,0.2,0.6,0.4,1.1,0.6l0.2,0.7l0.1-0.1c0.2,0.6,0.3,0.3,0.6,1
						c0.1,0,0.1-0.2,0.1-0.4c-0.9-0.6-0.5-1.4-1.3-2c0.1-0.4,1.7,1.6,1.1,0.2c-0.2-0.1-0.5-0.9-0.5-0.4c0.2-0.1-0.5-0.9,0-0.7
						c0.1,0.4,0.9,0.5,1,1.2c-0.2-0.2-0.3,0-0.3,0c0.3,0.2,0.6,0.7,0.9,0.5c0.1-0.2,0.2-0.3-0.1-0.6c-0.4-0.4-0.1,0.2-0.4-0.2
						c0.1-0.3,0.7,0.2,0.1-0.5c-0.1,0.2-0.5-0.2-0.7-0.4c0-0.1,0-0.2,0-0.3l0.2,0.3c0.4-0.1-0.4-0.5-0.1-0.7l0.6,0.3
						c0.4,0.4-0.5,0.2,0.2,0.9c0.2-0.1-0.1-0.5,0.2-0.5c0,0.1,0,0.1,0,0.2c0.1,0,1.2,0.7,0.7,0c-0.1-0.3-0.2-0.2-0.5-0.5
						c0.1-0.3-0.1-0.6,0-0.9c0.5,0.4,0.3-0.3,0.7,0.3c-0.4-0.1-0.7,0.3-0.2,0.9c0.7,0.4-0.3,0.2,0.3,0.7c0.2-0.2,0.9,0.3,1.4,0.6
						c0.1-0.1,0-0.3-0.1-0.4c-0.4-0.3-0.4-0.2-0.9-0.5c0.3-0.2,0.3-0.6,0-1.2c0.3,0,0.6,0.4,0.6,0.5c0.1-0.4,0.4-0.9,0.7-1.1
						c-0.9-0.2,0.1-0.5-0.6-0.6c-0.3,0.1-0.9-0.1-1.2-0.3c0.1-0.1,0.3,0.2,0.5,0.2c-0.3-0.3,0.7,0.1,0.2-0.3c0.1,0.4,0.9,0.5,1.5,1
						c-0.2-0.4,0.4,0.2,0.5,0c-0.2-0.4-0.3-0.9-0.3-1.3c0.7-0.1,0.3-1,0.4-1.3c0.3-0.1,1.1,0.2,1.3,0.1c0-0.2-0.9,0-0.4-0.3l0.1,0.1
						c-0.1-0.1,0.6-0.5-0.3-1l0.7,0.3c0.1-0.1-0.1-0.1-0.1-0.2c0.2,0.1,0.5,0,0.6,0.2c0.6-0.1,0-0.5,0-0.7l-0.5,0.1
						c-0.3-0.5,0.2-0.7,0.1-1.2l0.4,0.1L79.9,47c0.4,0.1,0.7-0.1,0.4-0.3c0.3,0.2,0.7,0.5,1.1,0.9c-0.3,0.2-0.5-0.3-1.1-0.2
						c-0.4,0.1-0.3,0.4,0.1,0.6c0.1-0.1,0-0.2-0.2-0.3c0.6,0,0.6,0.2,1.1,0.4c0-0.1,0.2-0.2,0-0.2c0.3,0.2,0.3,0.4,0.3,0.6
						c-0.2-0.2-0.4,0-0.6-0.1c0.5,0.1,0.7,0.4,0.5,0.7c-0.7,0.1,0.2,0.7,0,1.2c-0.5-0.3-1-0.6-1.1-1c-0.3,0.2,0,0.3-0.4,0.4
						c0.4,0.2,1.1,0.5,1.2,0.9l-0.4-0.1c0.1,0.3,0.7,0.5,0.4,0.9c-0.2,0.3-0.4,0.6-0.5,0.9c-0.2,0.3-0.3,0.5-0.4,0.7l-0.4,0.1
						c0.7,0.6-0.1,1.1,0,1.6c-0.3,0.2-0.4,0.5-0.5,0.9c-0.1,0.3-0.3,0.5-0.7,0.4c-0.2,0.5-0.4,1.1-0.7,1.6c-0.1,0.2-0.3,0.5-0.5,0.7
						c-0.2,0.2-0.4,0.4-0.6,0.6l-0.3-0.6c0.1,0.5-0.3-0.2-0.4,0c0.5,0.2,0.2,0.6,0.3,1.1c-0.7,0-1,0.9-1.2,1.5l-0.2-0.4
						c0,1-0.9,0.6-1.5,0.9c-0.1-0.1-0.4-0.4-0.5-0.3c0,0.7-0.2,0.9-0.4,1.4c-0.3,0.2-1,0.2-1.4,0.1c-0.4,0.7-1.2,1-1.8,1.2
						c-0.7,0.2-1.4,0.3-2.1,0.7l-0.2-0.5c-0.6,0.5-1.5,0.6-2.2,0.6c-0.7-0.1-1.5-0.2-2.1,0l0.2-0.9c-0.3-0.3-0.9,0.1-0.9,0.7
						c-0.3-0.3-1.1,0.2-1.2-0.5c-0.3-0.2-0.5,0.3-1,0.3c-0.7-0.5-1-0.6-1.7-0.6l0.1,0.1c0.1-0.1,0.3-0.5,0.1-0.6
						c-0.3,0.1-0.9-0.6-1.1,0.4c-0.2-0.4-0.7-0.5-1.2-0.6c-0.4-0.1-1-0.3-1.1-0.9c-0.1,0.3-0.3,0.2-0.4,0.3C53.7,62,53.5,61,52.7,61
						c0-0.2,0.4-0.3,0.2-0.4c-0.2,0-0.2,0.3-0.5,0.3c-0.6-0.2-1-0.7-1.3-1.3s-0.4-1.2-0.9-1.5c-1.6-1.1-2.5-3-3.3-4.6l0.2-0.1
						c-1-0.3,0.3-1.6-1.1-1.7c0.1-0.2-0.1-0.5,0.3-0.5c-0.6-0.3,0.1-1.4-0.6-1.9c0,0.1,0,0.1,0.1,0.1c0.3-0.7-0.4-1.3,0-2
						c0.1,0.1,0.2,0.2,0.4,0.2c0.4-0.3-1-0.6,0.1-0.9c0-0.1-0.5-0.1-0.4,0c0.3-1.6-0.2-3.3,0-5c0.9-1.1,1.7,0.3,1.2-0.7
						c0.2,0-0.3-0.1-0.1-0.1c-0.2-0.4,1.2-0.2,0.9-0.6c-0.6-0.1-0.3-0.2-0.6-0.4c0.6-0.5,1.2-0.4,1-1.2l0.3,0.2
						c-0.5-1,0.2-1.5-0.4-2.5c1.7-3.4,4.2-6.6,7.6-8.5c1.7-0.9,3.5-1.5,5.4-1.9c1.9-0.4,3.8-0.4,5.8,0c0.9,1,0.9,1,1.8,0.7
						c-0.1,0.1-0.1,0.1-0.1,0.3c0.2-0.6,0.6,0.1,1-0.5c0.6,0.2,1.4,0.4,2,0.6c0.6,0.2,1.4,0.4,2,0.7c-0.2,0-0.5,0.4-0.3,0.5l0.4-0.3
						v0.2c0.2,0,0.5-0.2,0.5-0.5c1.8,0.5,3.3,1.8,4.5,3.3c0.6,0.6,1.1,1.5,1.6,2.2c0.4,0.7,1,1.5,1.5,2.2c0.2,0.9,1,1.8,1.5,2.6
						c0.2,3-0.1,5.2,0.5,7.8C83.7,45.7,81.8,45.4,81.3,44.4z"/>
					<path class="st5" d="M81.8,46.5c-0.3,0.1-0.5,0.3-1.1,0.1C81.1,46.6,81.5,46.5,81.8,46.5z"/>
					<path class="st5" d="M76.7,51.9c0.1,0.1-0.2,0-0.2,0c0-0.1-0.2-0.3,0-0.2C76.5,51.7,76.6,51.8,76.7,51.9z"/>
					<path class="st5" d="M75.9,53c-0.2-0.2-0.3-0.5-0.2-0.7L75.9,53z"/>
					<path class="st5" d="M74,53.3c-0.3-0.1-0.3-0.2-0.3-0.3C73.9,53.1,73.9,53.2,74,53.3z"/>
					<path class="st5" d="M74.5,53.8c-0.1,0.1-0.2,0-0.4-0.1C74.4,54,74.2,53.5,74.5,53.8z"/>
					<path class="st5" d="M71.9,55c0,0.1,0,0.3-0.2,0.1C71.9,55.3,71.7,54.7,71.9,55z"/>
					<path class="st5" d="M71.2,56.2C71.2,56.2,71.1,56.1,71.2,56.2c-0.2,0-0.3-0.2-0.2-0.3L71.2,56.2z"/>
					<polygon class="st5" points="51.7,48.9 51.9,49 51.6,49 					"/>
					<path class="st5" d="M53.5,38.2c-0.1-0.2,0.3,0.1,0.3,0.1C53.8,38.5,53.6,38.1,53.5,38.2z"/>
					<polygon class="st5" points="57.1,32.8 57.1,32.9 56.7,32.3 					"/>
				</g>
			</g>
		</g>
	</g>
</g>
<g>
	<circle class="st4" cx="435.3" cy="45.7" r="15.8"/>
	<g>
		<g>
			<g>
				<g>
					<path class="st5" d="M420.6,45.9c-0.2-0.3-0.5,0.2-0.2-0.2C420.6,45.8,420.8,45.8,420.6,45.9z"/>
					<path class="st5" d="M420.3,44.7c-0.9-0.6-0.6-1.3-0.4-2c0.2-0.6,0.5-1.3,0.3-2c0-0.2,0.9,0.3,0.7-0.1
						c-0.4-0.7-0.1-1.6,0.3-2.4c0.5-0.6,1.4-1.2,2.2-1.4l0.1,0.2c0.3-0.1-0.2-0.9,0.1-1.1c0.1,0.1,0.1,0.2,0.3,0.3
						c-0.3-0.4,0.2-0.5,0-0.9c0.2,0,0.5,0.3,0.7,0.3l-0.3-0.5c-0.6-1.3,0.9-0.7,1-1.7c0.1,0.1,0.1,0.2,0.2,0.3
						c0.3-1.3,1.5-1.9,2.5-2.8c0,0.2,0.2,0.5,0.3,0.7c-0.2-0.5,0.1-0.9,0.3-1.1c0.3,0.5,0.3-0.7,0.9-0.5v0.1
						c0.1-0.7,0.5,0.2,0.5-0.6l0.3,0.4c-0.1-0.9,0.5,0.3,0.6-0.1l-0.1-0.2c0.2-0.2,0.4,0.1,0.5-0.1v0.1c0.4-0.3,0.7,0.1,0.6-0.5
						c0.2,0.5-0.4,0.3,0,1.1c1.4-1,3.1-1,4.7-0.7c0.1,0.3,0.2,0.4,0.2,0.6c0.2-0.1,0.6,0,0.7-0.3c-0.1,0,0,0.3,0.1,0.4
						c0.2,0.3,0.4-0.7,0.7-0.3c-0.2,0.1-0.2,0.3-0.2,0.6c0.3-0.4,0.7-0.3,1.1-0.3c-0.1,0.1-0.2,0.1-0.2,0.3c0.5-0.5,0.5,0.2,1,0
						l-0.2,0.3c0.3,0.6,0.4-0.7,0.7-0.3c-0.1,0.1-0.1,0.2-0.2,0.4c0.6-0.5,1.2-0.1,1.6-0.1l-0.1,0.1c0.4,0.1,0.7,0.4,1.3,0.4
						c0.1,0.2-0.5,0.9-0.1,1c0.4-0.6,0.9,0.1,1.1-0.7c0.3,0.3,0.6,1,1,0.9c-0.3,0.1-0.4,0.9-0.7,0.7l-0.1,0.5
						c-0.2,0.2-0.1-0.2-0.3,0.1c0.1,0.1,0.7,0.1,0.7,0.3c0.5-0.2,1.3-0.6,1.8-0.4c-0.4,0.1-0.5,0.7-0.7,0.7c0.5-0.2,1.1-0.4,1.6-0.6
						c0.1,0.1-0.4,0.4-0.1,0.5c0.1-0.1,0.3-0.2,0.5-0.2c0,0.1,0.6,0.4,0.1,1c-0.2,0.2-0.3-0.1-0.4,0.2c0.2,0.2,0.4,0.1,0.6,0.3
						l-0.1,0.1c0,0.2,0.6,0.3,0.9-0.1c-0.1-0.1-0.3,0.3-0.3,0c0.4-0.1,0.7,0.1,1,0.3c-0.2,0-0.3,0.1-0.5,0.2c0.7,0,1.2,0.3,1.6,0.6
						c0.3-0.2-0.6,0.2-0.5,0c-0.1,0.7,1.3,0.7,0.9,1.6c-0.1,0,0.4-0.3,0.3-0.2c0.1,0.3-0.4,0.5-0.1,0.6c-0.3,0.1,0.2,0.2,0.3,0.3
						c0.2,0-0.1,0.1-0.2,0c0.3,0.1,1.3,1.1,1,1.9c0.2-0.1,0.9,0.2,0.9,0.3l-0.5,0.1c-0.2,0.2,0.2,0.5-0.2,0.6
						c0.6,0.2-0.7-1.1-0.2-0.7c-0.3,0.2,0.9,0.4,0.2,0.4c0.1,0.3,0.7,0.4,0.3,0.9c0.1-0.1-0.7-0.1-0.6,0.1c0.1,0.4,0.2,0.1,0.4,0.4
						l0.2,0.2c0.4,0,0,0.4,0.5,0.2c-0.4,0.1,0.3,0.6-0.4,0.6h-0.6c0.1,0.2,0.6,0.2,1,0.3c-0.1,0-0.2,0.1-0.3,0.1
						c1,0-0.1,0.4,0.6,0.6c-0.3,0.4,0,1.1-0.6,1.2c0.3,0.3,0.6,0.6,0.4,1c-0.1-0.1-0.1-0.2-0.3-0.2c-0.3,0.2,0,0.3,0.1,0.5
						c-0.1-0.1-0.6,0.4-1,0.5c0.2,0.3,0.7,0.3,1.1,0.4c-1,0.1,0.5,1-0.4,1.2c-0.1-0.1-0.3-0.5-0.6-0.3c-1,0.1,0.5,0.6,0,1l0.7,0.1
						c-0.5,0.1,0.2,0.7-0.5,0.5c0.2,0.2-0.4,0.4,0.3,0.6c-0.9,0.5-0.3,1.9-1.7,1.7c0.1,0.1-0.1,0.3,0.2,0.4c0.4,0-0.2-0.3,0.1-0.3
						c0,0.1,0.1,0.2,0.2,0.2c-0.2,0.1-0.4,0.3-0.9-0.2c-0.6,0.2,1,1.1,0.3,1.5c-0.2-0.2-0.4-0.2-0.4,0l0.3,0.6
						c-0.3,0.3-0.7-0.2-1.2-0.4c0,0.2-0.2,0.4,0.1,0.7l-0.7-0.2c0.5,0.1,0.1,0.3,0.2,0.5v-0.1c-0.2-0.1-0.2,0.2-0.2,0.3
						c0.3,0.2,0.5,0,0.7,0c0.1,0.2,0,0.3,0.1,0.6c-0.4-0.3-0.5,0.1-0.6,0.2c-0.2,0.1,0.2,0.4,0.1,0.5c-0.2-0.2-0.2,0.2-0.4-0.1
						c0-0.1,0.3,0,0.2-0.2c-0.2,0-0.6-0.3-0.5,0.1c0.1,0.3,0.9,0.6,0.3,0.7c0-0.2-0.2-0.3-0.2-0.5l-0.4,0.1l0.3,0.3
						c-0.1,0-0.1-0.1-0.2-0.1c0.3,0.4-0.3,0.5,0.1,1c-0.1,0.2-0.5,0-0.7,0.1v-0.1c-0.3-0.1-0.4,0.3-0.3,0.6l-0.1-0.1
						c-0.1,0-0.3,0.3-0.2,0.6c-0.4-0.1-1.2-1.3-1.1-0.6c-0.2,0.2,0.1,1,0.4,1.2c-0.3,0-0.5,0.3-0.7,0.5s-0.4,0.4-0.9,0.2
						c0,0.2,0.1,0.3,0,0.4c-0.7,0.3-1.4,1.4-2.4,0.7c0.1-0.3-0.2-0.4-0.3-0.6c0,0.4-0.4-0.3-0.2,0.4c0.2,0.4,0.2,0.6,0.5,0.6
						c-0.4,0.4-1.2,0.6-1.5,0.4c0.2,0.1,0.1,0.3,0.1,0.4c-0.2-0.6-0.5-0.6-0.7-0.3l0.1,0.4l-0.3-0.3c-0.1,0.1,0.1,0.9-0.2,0.5
						c-0.1-0.1-0.1-0.3-0.2-0.4c-0.2,0.4-0.5,1.1-0.9,0.7l-0.3-0.5c-0.1,0.1-0.3,0.5,0,0.6c-0.6-0.3-1-0.3-1.2-0.7
						c-0.7,1.4-2.2,1.5-3.3,1.3v-0.3c-0.3-0.3-0.2,0.5-0.4,0.3c0.1-0.3-0.2-0.6,0.1-1c-0.3-0.3-0.5,0.5-0.9,0.6
						c-0.1,0.4,0.2-0.2,0.1,0.3c-0.1,0.1-0.5-0.4-0.7,0.2c-0.1-0.2,0.1-0.7,0.2-1l-0.3,0.2c-0.2-0.7,0.9-1.2,0.6-2.1l-0.2,0.1
						c-0.1-0.6,0.6-0.6,0.2-1c-0.2,0.3-0.6,1.2-0.4,1.4c-0.5,0.1-0.5,1.4-1.1,1.3c-0.1-0.4,0.4,0,0.4-0.5c-0.1-0.5-0.5,0.1-0.7-0.1
						c0.2,0.3-0.1,0.9-0.3,1c-0.2-0.3,0.3-0.5-0.1-0.6c-0.1,0.3-0.6,0.5-0.3,0.9c-0.3,0.7-0.3-0.3-0.7,0.2c0-0.5,0.7-1.2,0.4-1.5
						c-0.1,0.5-0.7,0.5-0.7,1.4c-0.1-0.2,0-0.6,0.2-1c-0.1-0.4-1,0.7-0.6-0.3l-0.3,0.5c0-0.2-0.1-0.3-0.1-0.7
						c-0.2-0.1-1,0.4-0.6-0.3c-0.1,0-0.5-0.2-0.6,0.4c0.1,0.4,0.5-0.2,0.3,0.5c0-0.7-0.4-0.1-0.7,0l0.1-0.3
						c-0.1,0.1-0.3-0.1-0.6,0.2c0.2-0.1,0.2-0.3,0.2-0.4l-0.3,0.4c-0.5,0,0.3-0.9-0.2-0.9l0.5-0.2c-0.1,0,0-0.4-0.3-0.4
						c-0.3,0.3-0.6,0.7-1,1.1c-0.3,0,0.2-0.5-0.3-0.2l0.5-0.3c0.1-0.1,0.2-0.7-0.1-1c-0.2,0-0.9,0.4-0.7,0.7
						c-0.1-0.1-0.2-0.4,0.1-0.6c-0.4-0.1-0.2,0.4-0.6,0.5c0-0.3,0-1,0-1.5l0.7-0.4l-0.2-0.1c0.5-0.3,0.2-0.4,0.6-0.9
						c0-0.2-0.3-0.1-0.5,0c-0.3,1.1-1.3,0.9-1.7,1.6c-0.6-0.2,1.2-2-0.2-1.3c-0.1,0.2-0.7,0.6-0.3,0.6c-0.2-0.3-0.9,0.5-1-0.1
						c0.5-0.1,0.4-1,1.2-1.1c-0.2,0.2,0,0.3,0.1,0.3c0.1-0.3,0.6-0.6,0.4-1c-0.2-0.1-0.4-0.3-0.7,0.1c-0.3,0.4,0.3,0.2-0.2,0.5
						c-0.5-0.2,0.1-0.9-0.7-0.3c0.2,0.2-0.1,0.6-0.3,0.9c-0.1,0-0.3-0.1-0.4-0.1l0.3-0.2c-0.2-0.6-0.5,0.3-1-0.2l0.3-0.6
						c0.5-0.3,0.3,0.7,1,0c-0.2-0.3-0.6,0-0.6-0.4c0.1,0,0.2,0.1,0.3,0c-0.1-0.1,0.9-1.1-0.1-1c-0.4,0-0.3,0.2-0.6,0.4
						c-0.4-0.4-0.9-0.3-1.1-0.5c0.6-0.3-0.3-0.5,0.5-0.6c-0.2,0.4,0.3,1.1,1,0.7c0.5-0.7,0.2,0.4,1-0.1c-0.3-0.3,0.4-0.9,0.7-1.3
						c0-0.1-0.3,0-0.4,0c-0.4,0.3-0.3,0.4-0.7,0.7c-0.2-0.4-0.6-0.6-1.3-0.5c0.1-0.3,0.5-0.5,0.7-0.4c-0.4-0.3-0.6-1-0.9-1.5
						c-0.5,0.7-0.4-0.4-1,0.1c0,0.3-0.4,0.9-0.9,1c0-0.2,0.3-0.2,0.4-0.3c-0.5,0,0.4-0.6-0.3-0.5c0.5,0.3,1-0.4,1.6-0.6
						c-0.5-0.1,0.4-0.2,0.3-0.5c-0.5-0.1-1-0.4-1.3-0.7c0.4-0.7-0.4-1.2-0.6-1.6c0.2-0.3,1.1-0.4,1.1-0.6c-0.1-0.3-0.7,0.4-0.5-0.1
						h0.1c-0.2-0.1,0.3-0.9-0.7-0.7h0.9c0-0.1-0.1-0.1-0.2-0.2c0.2-0.1,0.4-0.2,0.6-0.1c0.4-0.3-0.2-0.5-0.2-0.7l-0.4,0.2
						c-0.4-0.4,0-0.9-0.2-1.3h0.4l-0.3-0.2c0.4,0,0.7-0.2,0.3-0.3c0.4,0.2,0.7,0.4,1.2,0.5c-0.2,0.2-0.6-0.1-1.1,0
						c-0.4,0.1-0.2,0.5,0.2,0.5c0-0.2-0.1-0.1-0.2-0.2c0.6-0.1,0.6,0.1,1.1,0.2c0-0.1,0.1-0.2-0.1-0.2c0.3,0.1,0.4,0.2,0.4,0.5
						c-0.3-0.1-0.4,0.1-0.5,0.1c0.5-0.1,0.7,0.1,0.6,0.4c-0.6,0.3,0.5,0.4,0.4,0.9c-0.6,0-1.1-0.1-1.4-0.2c-0.2,0.3,0.1,0.2-0.1,0.5
						c0.4,0,1.2-0.1,1.5,0.1l-0.4,0.1c0.3,0.2,1,0,1,0.3s0,0.6,0.1,0.9c0.1,0.2,0.2,0.5,0.2,0.7l-0.4,0.2c1-0.2,0.6,0.6,1.2,0.6
						c0,0.3,0.2,0.5,0.4,0.7s0.3,0.3,0.1,0.6c0.4,0.3,0.9,0.5,1.3,0.9c0.2,0.1,0.3,0.3,0.5,0.4s0.3,0.3,0.5,0.5l-0.5,0.3
						c0.4-0.2-0.1,0.3,0,0.4c0.2-0.5,0.6-0.3,1-0.5c0,0.6,0.9,0.5,1.4,0.4l-0.2,0.3c0.7-0.4,0.7,0.3,1.2,0.7c0,0.2-0.1,0.5,0,0.6
						c0.5-0.5,0.6-0.4,1.2-0.6c0.2,0.1,0.6,0.4,0.7,0.7c1.3-0.5,2.1,0.2,3.2-0.2v0.5c0.5-0.5,1.1-0.5,1.6-0.4c0.5,0,1.1,0.1,1.5-0.2
						v0.9c0.3,0.2,0.6-0.3,0.4-1c0.3,0.2,0.5-0.5,0.9,0.1c0.3,0.1,0.2-0.4,0.4-0.6c0.6,0.2,0.7,0,1.2-0.3H439c0,0.2,0.1,0.5,0.3,0.5
						c0.1-0.3,0.7-0.1,0.2-1c0.3,0.1,0.6-0.1,0.9-0.3c0.2-0.2,0.4-0.4,0.9-0.2c-0.2-0.2-0.1-0.3-0.2-0.5c0.4-0.2,1.1-0.1,1.1-0.6
						c0.1,0.1,0.2,0.4,0.4,0.3c0-0.1-0.2-0.3-0.2-0.5c0.1-0.4,0.4-0.6,0.9-0.7c0.4-0.1,0.9-0.2,1-0.5c0.3-1.3,1.3-2.1,1.6-3.3
						l0.2,0.1c-0.6-0.6,1.1-0.6,0.1-1.3c0.2,0,0.2-0.3,0.5-0.1c-0.5-0.4,0.7-0.7,0.1-1.4c0,0,0,0.1,0.1,0.1c0.5-0.4,0-0.9,0.4-1.3
						c0.1,0.1,0.1,0.1,0.3,0.2c0.4-0.2-0.9-0.5,0.1-0.5c0-0.1-0.5-0.1-0.4,0c0.4-1.1-0.3-2.2-0.7-3.2c0.4-0.9,1.6-0.4,0.7-0.9
						c0.2-0.1-0.4,0.1-0.2,0c-0.3-0.1,1-0.7,0.4-0.7c-0.5,0.2-0.3,0-0.7,0.1c0.2-0.6,0.6-1,0.1-1.2l0.3-0.1c-1.1,0-0.9-0.7-1.9-0.5
						c-1.4-2-3.5-3.2-5.4-4.1c-0.9-0.6-1.9-0.9-3-1.1c-1.1-0.2-2.1-0.2-3.3-0.4c-0.6-0.7-0.7-0.7-1.2-0.3c0-0.1,0-0.2,0-0.3
						c0.1,0.6-0.4,0.1-0.3,0.9c-0.4,0-0.9,0.1-1.2,0.3c-0.3,0.2-0.7,0.3-1.1,0.5c0.1-0.1-0.1-0.6-0.2-0.5v0.4l-0.1-0.2
						c-0.1,0.1,0,0.5,0.2,0.6c-0.7,0.7-1.7,1.1-2.7,1.6c-0.5,0.2-1,0.5-1.4,0.9c-0.4,0.4-0.9,0.7-1.1,1.3c-0.5,0.3-0.6,1.1-0.7,1.6
						c-1.5,1.1-2.7,2.8-2,4.6C422.5,45.7,420.7,45.5,420.3,44.7z"/>
					<path class="st5" d="M420.7,46.4c-0.3,0.1-0.5,0.3-1,0.2C420,46.5,420.3,46.4,420.7,46.4z"/>
					<path class="st5" d="M419.1,54.1c0.1,0-0.1,0.2-0.1,0.2c-0.1-0.1-0.3,0-0.2-0.2C418.7,54.2,419,54.1,419.1,54.1z"/>
					<path class="st5" d="M419.9,55.9c-0.3,0.1-0.7-0.1-0.9-0.3L419.9,55.9z"/>
					<path class="st5" d="M420,58.2c-0.1,0.3-0.2,0.3-0.4,0.2C419.8,58.3,419.9,58.3,420,58.2z"/>
					<path class="st5" d="M420.7,57.9c0.1,0.1,0,0.3-0.1,0.4C420.8,58.2,420.2,58.2,420.7,57.9z"/>
					<path class="st5" d="M423.1,61.5c0.1,0,0.4,0,0.3,0.3C423.5,61.5,422.8,61.9,423.1,61.5z"/>
					<path class="st5" d="M425.2,62.3c0,0,0,0.1,0.1,0.1c0,0.2-0.2,0.3-0.3,0.3L425.2,62.3z"/>
					<polygon class="st5" points="452.9,50 453,50.2 452.7,50.1 					"/>
					<path class="st5" d="M450.4,35.7c-0.3-0.1,0.2-0.3,0.2-0.3C450.7,35.5,450.2,35.5,450.4,35.7z"/>
					<polygon class="st5" points="443.7,31.5 443.7,31.5 443.4,32 					"/>
				</g>
			</g>
		</g>
	</g>
</g>
</svg>
