<?xml version="1.0" encoding="utf-8"?>
<!-- Generator: Adobe Illustrator 25.2.1, SVG Export Plug-In . SVG Version: 6.00 Build 0)  -->
<svg version="1.1" id="Layer_1" xmlns="http://www.w3.org/2000/svg" xmlns:xlink="http://www.w3.org/1999/xlink" x="0px" y="0px"
	 viewBox="0 0 500 500" style="enable-background:new 0 0 500 500;" xml:space="preserve">
<style type="text/css">
	.st0{fill:#202020;stroke:#000000;stroke-linejoin:round;stroke-miterlimit:10;}
	.st1{fill:#202020;stroke:#000000;stroke-width:3;stroke-linejoin:round;stroke-miterlimit:10;}
</style>
<g>
	<g>
		<g>
			<g>
				<g>
					<path class="st0" d="M273.8,256.9c0.1,0.1,0.6,0.3,0.6,0.1l-0.7-0.4L273.8,256.9z"/>
					<path class="st0" d="M275.2,256.8c-0.3-0.3-0.9-0.5-1.6-0.7c0.7,0.4,0.3,0.3,1.1,0.7c0,0.1-0.2,0.1-0.6,0
						c0.2,0.1-0.2,0.1,0.2,0.3c0.6,0.1,0.7-0.1,0.2-0.4C274.9,256.6,275.1,256.6,275.2,256.8z"/>
					<path class="st0" d="M273.9,244.7L273.9,244.7C273.9,244.9,273.9,244.9,273.9,244.7z"/>
					<path class="st0" d="M268.9,239.5c0,0,0.1,0,0.1-0.1C268.9,239.5,268.9,239.5,268.9,239.5z"/>
					<path class="st0" d="M268.1,238.2L268.1,238.2C268.1,238.2,268.1,238,268.1,238.2z"/>
					<path class="st0" d="M273.9,244.7l0.1-0.4C273.8,244.6,273.9,244.7,273.9,244.7z"/>
					<path class="st0" d="M273.8,254.8c0,0,0.1,0.1,0.2,0.1c0,0,0,0-0.1-0.1C273.8,254.8,273.8,254.8,273.8,254.8z"/>
					<path class="st0" d="M276,247.5L276,247.5c0.1,0,0.2,0,0.3,0H276z"/>
					<path class="st0" d="M277,250.1c0-0.1-0.6,0.1-0.9,0.1c0.2,0,0.3,0,0.4,0C276.6,250.2,276.7,250.2,277,250.1z"/>
					<path class="st0" d="M276.3,254.7L276.3,254.7L276.3,254.7z"/>
					<path class="st0" d="M275.2,245.6c0.1-0.1,0.1-0.1,0.2-0.1C275.3,245.4,275.3,245.4,275.2,245.6z"/>
					<path class="st0" d="M271.6,257.8C271.6,257.8,271.6,258,271.6,257.8L271.6,257.8z"/>
					<polygon class="st0" points="275.2,257.6 275.3,257.7 275.5,257.8 					"/>
					<path class="st0" d="M266.1,236.4L266.1,236.4C266.2,236.4,266.2,236.4,266.1,236.4z"/>
					<path class="st0" d="M249.8,249.4c0.6-0.3,0.7,0.5,1.3,0.1C250.9,249.5,250.1,249,249.8,249.4z"/>
					<path class="st0" d="M273.8,254.8C273.8,254.8,273.8,254.7,273.8,254.8C273.8,254.7,273.8,254.8,273.8,254.8z"/>
					<path class="st0" d="M251.1,249.5L251.1,249.5L251.1,249.5L251.1,249.5z"/>
					<path class="st0" d="M260.9,236.5c0,0.1,0,0.3,0.1,0.3C261,236.7,260.9,236.7,260.9,236.5z"/>
					<path class="st0" d="M264.7,237.6L264.7,237.6C264.6,237.6,264.7,237.6,264.7,237.6z"/>
					<path class="st0" d="M259.1,238c-0.1,0-0.1-0.1-0.1,0C259,238,259,238,259.1,238C259,237.9,259,237.9,259.1,238z"/>
					<path class="st0" d="M257.1,238.7C257.2,238.9,257.2,238.9,257.1,238.7h0.1H257.1z"/>
					<path class="st0" d="M268.8,260.9c0.1,0.1,0.2,0.4,0.2,0.7C268.9,261,269,260.7,268.8,260.9z"/>
					<path class="st0" d="M274.1,254.8c-0.1,0-0.2,0-0.2-0.1l0,0C274,254.8,274,255,274.1,254.8z"/>
					<path class="st0" d="M260.2,243.9H260C260.1,243.9,260.1,243.9,260.2,243.9z"/>
					<path class="st0" d="M259.1,259.2L259.1,259.2L259.1,259.2z"/>
					<path class="st0" d="M259.5,244.2c-0.1-0.3-0.2-0.4-0.2-0.4v0.1L259.5,244.2z"/>
					<path class="st0" d="M269,261.4L269,261.4L269,261.4z"/>
					<path class="st0" d="M269.5,259.1c-0.1,0.1,0.3,1,0.6,1.5c-0.1,0.4-0.4-0.5-0.7-1c0,0.3,0.2,1.2,0.1,1.2
						c-0.1-0.1-0.1-0.1-0.1-0.4c0.1,0.8-0.4,0.3-0.3,1.2c0-0.1-0.1-0.1-0.1-0.3c0.2,0.4,0.3,1,0.4,1.2c-0.1,0,0,0.7-0.2,0.1
						c0.1,0,0-0.3,0-0.4v0.3c-0.3-0.8,0-0.4-0.1-1.1c-0.1,0.4-0.1,1.2-0.3,1c-0.2-0.8,0.3-0.4-0.1-1.1c0.1,0.1,0.2,0.1,0.3,0.3
						c-0.6-1.4,0.1,0-0.4-1.4c-0.3-0.1-0.2,0.5-0.6,0.4c0,0.5,0.2,0.7,0.2,1.2c-0.2,1.1-0.8-2.2-0.9-1c0,0.7,0.1,1.8-0.2,1.2
						l-0.1-1.1c-0.3,0,0,1.5-0.3,0.8c0-0.4,0.2-0.4,0.1-0.5c-0.3-0.8-0.1,0.5-0.2,0.7l-0.1-1c-0.3,0.1-0.6,1-1,1.1
						c0-0.3,0.1-0.5,0-0.8c-0.4,0.5-1-0.1-1.3-0.7l-0.2,0.8c0,0,0-0.4,0-0.5c-0.1-0.3-0.1,0.5-0.2,0.8c-0.1,0-0.1-0.5,0-0.7
						c-0.2,0.3-0.4,0.7-0.7,0.8c-0.2,0.1-0.4,0-0.6-0.4l0.1-0.3c-0.1-0.4-0.7,1.5-0.7,0.7l0.1-0.1c-0.4-0.5-1.2-0.1-1.2-1.5
						c-0.4,1-0.3-0.7-0.9,0.7c0-1,0.2-1.1,0-1.8c-0.1-0.1-0.6,0.8-0.8,0.8l0.3-0.7l-0.6,0.7l0.3-1l-0.2,0.1c0,0.1-0.1,0.4-0.2,0.5
						c-0.3,0.1-0.1-0.8,0-1.2c-0.2,0.1-0.4,0.1-0.8,0.3c0.2-0.3,0.3-0.3,0.4-0.4c-0.7,0.5,0.4-0.7-0.1-0.3c-0.1,0.1-0.2,0.4-0.3,0.5
						c0.2-0.5,0-0.7-0.3-0.7l0.3-0.4c-0.1-0.4-0.7-0.4-0.9-0.8c-0.1,0.3-0.7,1-0.9,1l0.6-0.7c-0.3,0.3-0.1,0.3-0.7,0.7
						c0-0.3,0.6-0.8,0.8-0.8h-0.3c0.1-0.1,0.2-0.3,0.4-0.4c-0.4,0.3,0.3-0.8-0.3-0.3l0.1-0.1c-0.2-0.4-0.6-0.3-0.7-0.7
						c-0.6,0.4-0.4,0.1-1,0.4c0-0.4,0.3-1,0.2-1.2c-0.3,0-0.6,0.3-0.9,0.3c0.6-0.3,0.3-0.5,0.8-0.7c-0.2-0.3-0.2-0.4-0.9-0.7
						c-0.2,0.1-0.3,0.3-0.4,0.3c-0.1,0,0.1-0.3,0.4-0.4h0.1c-0.4-0.1-0.1-0.7,0.1-1c0.3-0.4,0.7-0.7,0-0.8h0.1
						c-0.2-0.1-0.4-0.3-0.7-0.4c0.1-0.3,0.4,0.1,0.8-0.1c-0.4-0.1-0.4-0.4-0.3-0.5c0.1-0.1,0.2-0.3-0.1-0.5c0.9,0,0.8-0.3,0.8-0.5
						c-0.1-0.3-0.2-0.5,0.3-0.5l-0.3-0.1c-0.3-0.3,0.2,0,0.3,0c-0.3-0.1-0.3,0-0.6-0.1c-0.1-0.5,0.2-0.8,0.6-1.1
						c0.4-0.3,0.9-0.3,1.2-0.4c0.2-0.1-1.4-1.8-0.6-1.4l0.4,0.7c-0.1-0.5,0-0.8,0.3-1c0.2-0.1,0.4-0.4,0.4-1
						c0.1,0.1,0.2,0.4,0.1,0.4c0.3,0.5,0.3-0.3,0.1-0.7c0.1,0,0.2,0.4,0.3,0.5c0.2,0.3-0.1-1,0.2-0.4c0,0.1,0,0.3,0,0.3
						c0-0.3,0.3-0.1,0-0.8c0.3,0.1,0.3-0.5,0.6-0.1c-0.1-0.8,0.4,0.3,0.2-1c0.3,1.2,0.6,0.8,0.7,0.3c0,0.4,0.2,0.3,0.2,0.8
						c0.1-0.1,0.2-0.3,0.1-1c0.6,1.4,0.4-1.4,0.9,0.5c0.3-0.7,0.9-1.2,1.3-1.5c0,1.2-0.6,0.1-0.4,1.4c0.3-0.5,0.7-1.6,1.1-1.2
						c0.1,0.1-0.1,0.5-0.1,0.7c0.4-0.4,0.8,0.1,1.2-0.4c0,0.1-0.1,0.3-0.1,0.3c0.1,0,0.1,0.3,0.2-0.3l-0.1,0.1c0-0.8,0.6-1.6,0.7-2
						c-0.3,1.5,0.3,0.4-0.2,2.5c0.1-0.1,0.2-0.4,0.2-0.7c0.1,0.1,0,0.4-0.1,0.7c0.3-0.3,0.3-0.8,0.6-0.7c0,0.3-0.1,0.4-0.2,0.7
						c0.2-0.4,0.4-1,0.7-0.7c0,0.1-0.1,0.4-0.1,0.4c0.3,0,1-1.1,1.2-0.4c-0.4,1.1,0,0.4-0.2,1.4c0.1-0.1,0.2-0.1,0.3-0.1l0.1-0.5
						c0.2,0.1,0.6-0.5,0.7-0.1l-0.2,0.3h0.4l-0.1-0.4c0.3-0.4,0.4-1.2,0.6-0.8c-0.1,0,0.2,0.1,0.1,0.7l0,0c0.2-0.3,0.4-0.4,0.4-0.1
						c-0.1,0.3-0.4,1-0.6,1.2c0.4-0.7,0.4,0,1-0.7c-0.1,0.1-0.3,0.7-0.3,0.7l0.3-0.5c0,0.3,0,0.4-0.2,0.7c0.2,0.3,0.4-1.2,0.6-0.4
						c0,0-0.1,0.1-0.2,0.1c0.1,0.4,0.8,0.1,0.9,0.5c-0.4,1-0.3,0-0.7,0.8c0.4,0.1,1.3-0.3,1.6,0.3v-0.1c0.8-1.1-0.1,0.8,0.3,0.5
						c-0.1,0-0.6,0.5-0.4,0.4c0.1,0.4,0.6,0.3,1.2,0.4l-0.2,0.1c-0.1,0.4,0.2,0.5,0.2,0.8c0.2-0.1,0.3,0,0.6-0.4
						c-0.6,1-0.2,1,0.2,1.1c0.3,0.1,0.8,0.1,0.2,1h-0.3c0.1,0.1,0.3,0.1,0.4,0.3c0.4-0.3,0.2-0.3,0.6-0.5c0.3-0.1,0.6-0.1,0.7,0
						c-0.4,0-0.8,0.4-1,0.7c0.1-0.1,0.3-0.1,0.4-0.3c-0.8,0.7,1-0.5,0.6,0.1l-0.2,0.1c0.2,0,0.6,0,0.6,0.3c-0.6,0.3-0.3,0-0.8,0.1
						c0.1,0.1,1.2-0.1,0.7,0.4c-0.2,0-0.2-0.1-0.4-0.1c-0.6,0.5-0.4,0.4-0.4,0.7l0,0c-0.1,0.1-0.1,0.3-0.2,0.4l0.1-0.1
						c1.6-0.3,0.3,0.4,1.4,0.4c-1-0.1-0.6,0.1-1.2,0.3c-0.1,0.1-0.3,0.3-0.6,0.3c0.6,0-0.3,0.3,0.4,0.4c-0.2,0,0,0.1-0.6,0.3
						c0.2,0.1,0.3-0.1,0.7-0.1c0.3,0.1,0.2,0.3,0,0.5c-0.2,0.3-0.3,0.4,0.2,0.7c0.4,0.4,1.1,0.5,1.4,1c-0.3,0.1-0.8-0.1-0.8-0.1
						c-0.3,0.1-0.3,0.4,0,0.5c-0.2-0.1-0.3,0-0.6,0c0,0.1,0.8,0.3,0.4,0.4c-0.2-0.1-0.6-0.1-0.9-0.3c0.2,0.1,0.6,0.4,0.7,0.7
						c-0.3,0-0.6-0.3-0.8-0.4c0.1,0.3,0.2,0.5,0.8,0.8l0.2-0.1c0,0.1-0.6-0.1-0.6-0.1c-0.4-0.3,0.2-0.1,0.4-0.1l0.1,0.1
						c1.2,0.1-0.1-0.7,0-0.8l0.9,0.3c-0.2-0.1-0.4-0.3-0.8-0.4c0.2,0,0.8,0,0.9,0.1c0.4-0.1-0.3-0.3,0.2-0.4c0.1,0,0.1,0,0.1,0
						l-0.2-0.3c0.2,0,0.7,0,0.6,0.1c0.6-0.4-0.7-0.7,0-0.8h0.1c-0.3-0.5-0.7,0-1.4-0.4c0.6-0.1,1.1-0.3,1.7-0.4H276
						c0,0,0.1-0.1,0.3-0.1c-0.4-0.1-0.3,0.1-0.8,0c0.6-0.4-0.3-0.7,0.7-1c-0.6,0-0.3,0.4-0.8,0.1c1.1-0.4-0.2-0.3,0.2-0.7
						c0.6-0.1,0.3,0.3,0.8-0.1c-1,0.1,0.1-0.5-0.1-0.8c-0.8,0.3-0.4-0.4-0.8-0.7c0.2-0.1,0.2-0.8,0.3-1.4h0.1c-0.8,0.4-0.8,0-1-0.1
						c0.4-0.3,0.7-0.3,0.9-0.3l-0.1-0.3c-0.2,0.1-0.4,0.1-0.6,0l0.6-0.3c-0.1-0.3-0.9-0.1-0.8-0.8c-0.4,0.4-1.2,1.2-1.7,1.2
						c0.2-0.3,0.7-0.5,0.9-0.5c0,0-0.2,0-0.2-0.1l0.6-0.1c0.1-0.3-0.4,0.1-0.4,0c0.3-0.3,0.2-0.3,0.6-0.5c0,0-0.1,0.3,0.1,0.1
						c0-0.1,0.1-0.5,0.3-0.8c-0.2,0.1-0.4,0.4-0.6,0.4c-0.2-0.3,0.3-0.4,0.4-0.8c-0.3,0.1-0.1-0.3-0.7,0.3c0-0.1,0.2-0.3,0.3-0.5
						c-0.3,0-0.4-0.5-0.9,0.1v0.1l0,0l0,0l0,0c-0.8,0.1-0.3-1.2-0.9-1.4l0.1-0.1c-0.3,0-0.6-0.4-1-0.1c0,0,0.1-0.5,0.3-0.7
						c-0.2,0-0.4,0.3-0.4-0.4c0.4-0.3,0.1-0.4,0.3-0.1c-0.1-0.4,0.1-0.8-0.6-0.4c0.4-0.4,0.2-0.8,0-0.8l-0.1,0.5
						c-0.1,0-0.2-0.1-0.3-0.3l0.4-0.7c0-1.4-1.7,0.8-1.3-1c-0.3,0.4,0.1,0.5-0.3,1.1c-0.2-0.3,0.1-1.5,0-1.6c-0.1-0.7-0.8,1-1,0.4
						c-0.1,0.3-0.3,1.1-0.7,1.2c-0.2-0.3,0.2-1.4,0.4-1.5c0.1,0,0.1,0.1,0,0.3c0.1,0,0.2-0.1,0.3-0.5l-0.1,0.3c0-0.4-0.3-0.5-0.1-1
						c-0.3,0.1-0.2,0.4-0.2,0.7c-0.2-0.5-0.4-0.3-0.8-0.7c0,0.1-0.1,0.5-0.1,0.5c-0.3-0.5-0.3,0.5-0.8,0.5c0-0.5,0.3-1.1-0.1-0.8
						c-0.1-0.4,0.1-0.8,0.3-1.1c-0.4,0.4-0.6-0.7-0.7-0.8l0.2-0.1c-0.1,0.1-0.2,0.1-0.3,0v0.7c-0.1-0.1-0.1-0.1-0.1-0.4
						c-0.2,0.4-0.1,1.1-0.4,1.6c-0.1-0.4-0.4,0.3-0.3-0.7c0.3,0.4,0.1-0.8,0.4-0.8c-0.1,0.1-0.2,0-0.2-0.1s0-0.1,0.1-0.3
						c-0.3-0.8-0.3,1-0.8,0.8c0.1-0.4,0-1,0-0.8c0.2,0,0,0.8-0.2,1.1c-0.2-0.4-0.3,0.3-0.4,0.1l0.1,0.3c-0.1,0.4-0.2,0.4-0.4,0.5
						c0-0.4,0.2-0.3,0.1-0.4c-0.2,0.8-0.3-1-0.7-0.4c-0.1-0.3,0-1-0.1-1.1c-0.3,0.5-0.3-0.7-0.7-0.3c0.1,0.7,0.1,0.5-0.1,1.1
						c0.2-0.1,0.3-0.3,0.6-0.4l-0.4,1c0.1,0,0.3-0.4,0.4-0.3c-0.2,0.5-0.1,0.4-0.1,1c-0.2-1-0.4,0.5-0.7-0.1v-1.6
						c-0.4-0.7-0.8,0.8-1.2,0.4l0.2,0.3c0,0.7-0.3,0.1-0.4,0.4c0-0.5-0.1-0.7-0.2-1.1c0,0.4-0.4,0-0.3,1.1l-0.3-0.7
						c-0.4-0.1-0.2,1.6-0.7,1.5c0-0.5-0.2-1,0-1.4c-0.1,0-0.2,0-0.2,0.3c-0.1-0.3-0.2,0.8-0.4,0.4c0,0.3,0.1,0.8,0,0.8
						c0-0.1-0.1-0.3-0.1-0.3c0,0.3-0.1,0.4,0.1,1c-0.8-1.5-1,0.5-1.8-0.7c-0.2,0.3-0.4,0.7-0.7,0.8c0-0.1-0.1-0.3,0-0.3
						c-0.6-0.3,0.3,1.5-0.2,1.2c-0.6-0.7,0-0.5-0.2-0.8c-0.8-1.5-0.3,0.5-1-0.1v-0.1c-0.4-0.4-0.1,1-0.4,1.1c0,0-0.1-0.1-0.1-0.3
						c0.2,1,0.1,1.5,0,1.9c-0.3-0.5-0.1-0.4-0.6-0.8c0,0.1,0.7,0.8,0.6,1.2c-0.3-0.1-0.7-0.3-1.1-0.7l0.2-0.3
						c-0.7-0.5-0.2,0.4-0.4,0.4l-0.2-0.3c-0.2,0.5,0.4,1.2,0.1,1.6l0.2,0.1c0.6,0.8-0.6-0.1-0.1,0.5l-0.8-0.5
						c0.1,0.3,0.4,1.2,0.4,1.6c-0.4-0.5-0.6-1.1-0.8-1.6c-0.1,0.1-0.2,0.7,0.1,1.1c0-0.1-0.2-0.4,0-0.4c0.4,0.7,0.7,1.1,0.6,1.5
						c-1.6-1-0.8,0.7-2,0.5c0.3,1-0.7,1.5-0.7,2.5c1.3-0.1,0,0.3,1.3,0.4c0.1,0.3,0,0.3,0,0.3c-0.3,0.1-0.6,0.4-0.9,0.5
						c-0.4,0.1-0.3-0.3-0.6-0.3c-0.1,0.5-0.6,0.1-1,0.5c0.4,0,0.7,0.1,0.6,0.5l0.7-0.4c0.8,0.7-1.1,0.7-0.3,1.4l-0.4-0.1
						c0.2,0.4,0.1,1.4,1.2,1.5c-0.1,0.1-0.6,0.3-0.7,0.1c0,0.4,0.3,0.8,0.7,1.2c0.3,0.4,0.6,0.7,0.3,1.1l-0.3,0.1
						c0.1,0.1,0.7,0,0.4,0.3c-0.1,0-0.3,0.1-0.3,0.1c0.1,0,0.7,0.1,0.6,0.4h-0.4c-0.1,1,1.2,0.7,1.7,1.1c-0.9,0.5-0.9,1.4-0.9,1.6
						l-0.1,0.1c0.3,1,1.4,0.7,2.1,1.1c-0.6,1.2,0.6,1.6,0.7,2.7c0-0.3,0.6-0.7,0.7-0.7c0,0.3,0.8-0.3,0.1,0.5l0,0
						c-0.4,1-0.1,1,0.1,1.2l0.8-1.1c-0.3,1.1,0.2,1.2,0.6,1.4c0.4,0.1,0.8,0.1,0.6,1c0.3-0.3,0.4-0.1,0.8-0.3l-0.3,0.7
						c0.3,0.4,0.4,0.7,1,0.8l-0.3,0.4c0.3,0.3,1.1-1.8,1.3-1.8l-0.3,1.1c0.4,0.3,0.8,1.4,1.4,0.7c0,0.1-0.1,0.4-0.2,0.5
						c0.2,0.1,0.8,1.1,1-0.4c-0.2,1,0.6,0.3,0.9-0.1l-0.2,0.7c0.4-0.8,0.4-1.1,0.8-1.4c0.1,0.1,0,0.5-0.1,0.4
						c0.2,0.4,0.3-0.7,0.6-0.3l-0.2,0.4c0.2,0.1,0.2-0.1,0.4-0.7c0.2-0.3,0.4,0.3,0.4,1c0.1-0.4,0.2-1,0.3-0.7
						c0,0.3-0.1,0.4-0.1,0.5c0.4,0.5,0.7-0.8,1-0.1c0,0.3,0,0.4,0,0.4c-0.3,0-0.7-0.1-0.6-0.1c0,0.7,0.2,0.8,0,1.8
						c0.2-0.5,0.7-1.6,1-1.4c0,0,0,0.1,0,0.3v0.1c0.1,0.1,0.1,0,0.2-0.1c0.1,0.1,0.1,0.1,0.2,0.3c0,0.5,0.3,0.3,0.6,0.3
						c0-0.8,0.1-0.7-0.1-1.2c0,0,0,0.1-0.1,0.1c0,0,0,0-0.1,0.1v-0.1c-0.1,0-0.2,0-0.3,0c0.1-0.4,0.2-0.7,0.3-0.3
						c0-0.5,0.1-1,0.1-1.2c0.2,1.1,0.7,1.6,0.8,2.2c0.4-0.4,1-0.5,1.1-1.9c0.1-0.3,0.2,0.4,0.3,0.5c0,0.1-0.1,0.1-0.1,0.4
						c0.2-0.4,0.7-0.4,0.6-1.4c0.3,0.3,0,1,0.4,0.7v0.3c0.6,0.7,0.8-0.1,1-0.8c0.2-0.7,0.2-1.4,1-0.7c-0.1-0.1-0.1-0.1-0.2-0.3
						c0.7,0.1,1-0.4,1.4-1c0.3-0.5,0.8-1,1.6-0.8c0.3,0,0-0.5-0.1-1.1l0.6,0.5c-0.1-0.3-0.2-0.7-0.3-1c-0.1-0.4,0.3-0.3,0.8-0.1
						c0.4,0,0.8,0,0.6-0.7l-0.4-0.3c0.2-0.1,0.1-0.8,0.6-0.4c-0.1-0.1-0.3-0.4-0.1-0.3l0.3,0.3c-0.1-0.3-0.2-0.5-0.3-0.8
						c0.3-0.3,1.2,0.8,1.6,0.3c0-0.3-0.7-1.2-0.9-1.2c0,0.1-0.3,0.1-0.7,0l-0.1-0.3c-0.9-0.5-1.9-1.1-2.7-1.1
						c0.1,0.1,0.3,0.4,0.4,0.5l-0.4-0.1v-0.1c-0.4-0.1-0.1,0.1,0.1,0.4c-0.2-0.1-0.4-0.1-0.6-0.3c0.2,0.3,0.6,0.5,0.8,0.8
						c-0.3-0.3-0.7-0.5-0.9-0.5c0.3,0.4,0.9,0.4,1,0.8c-0.4-0.1-0.8-0.4-0.4-0.1c-0.2-0.1-0.3-0.3-0.4-0.4c0.2,0.3,0,0.4,0.4,0.8
						c-0.6-0.3-0.1,0.4-0.9-0.3c0.2,0.1,0.4,0.8,0.4,0.8c-0.8-1.1-0.2,0.3-1.2-0.8c0.7,1,0,0.8,0.2,1.5c0-0.1-0.1-0.3-0.1-0.3
						c-0.1,0-0.4-0.3-0.6-0.4c0.6,0.8,0.6,1.2,0.8,1.8c-0.7-0.7-0.6-1.1-1.1-1.8c0.4,0.7,0.2,1,0.6,1.5c-0.4-0.4-0.2-0.1-0.7-0.8
						c0.6,1.1,0,0.3,0.3,1c-0.4-0.4-0.6-1.1-0.6-0.5C269.6,259.6,269.5,259.1,269.5,259.1z M265.4,262.8L265.4,262.8
						C265.5,262.6,265.5,262.6,265.4,262.8C265.5,262.6,265.5,262.6,265.4,262.8z M265,262.8c0,0,0.1,0,0.2,0c0,0.3,0,0.5-0.1,0.5
						C265.2,263,265.1,262.9,265,262.8z M266.2,268.1c-0.1,0.1-0.1,0-0.1-0.1c0,0,0.1,0,0.2-0.1c0,0,0,0,0-0.1
						C266.2,267.8,266.2,268,266.2,268.1z"/>
					<path class="st0" d="M266.3,267L266.3,267c0-0.1,0-0.1,0-0.3V267L266.3,267z"/>
					<path class="st0" d="M273.9,245L273.9,245C273.8,245,273.8,245,273.9,245C273.8,245,273.8,245,273.9,245z"/>
					<path class="st0" d="M259.7,259.2l-0.1,0.1L259.7,259.2z"/>
					<path class="st0" d="M273.5,249.2l-0.1,0.1C273.4,249.4,273.5,249.4,273.5,249.2z"/>
					<path class="st0" d="M273.9,250.6l-0.1,0.3C273.8,250.7,273.9,250.6,273.9,250.6z"/>
					<path class="st0" d="M273.8,251.7c0.1,0,0.2,0,0.2,0l0,0H273.8z"/>
					<path class="st0" d="M264.1,242.8L264.1,242.8C264,243,264.1,242.8,264.1,242.8z"/>
					<path class="st0" d="M268.3,242.5c-0.1,0.1-0.2,0.1-0.2,0.3C268.1,242.8,268.2,243,268.3,242.5z"/>
					<path class="st0" d="M260.2,243.9L260.2,243.9L260.2,243.9L260.2,243.9z"/>
					<path class="st0" d="M267.9,242.7c0,0.1,0.1,0.1,0.2,0.1C268,242.7,268,242.5,267.9,242.7z"/>
					<path class="st0" d="M273.5,255.7L273.5,255.7L273.5,255.7L273.5,255.7z"/>
					<path class="st0" d="M273.6,255.7L273.6,255.7C273.6,255.8,273.6,255.7,273.6,255.7z"/>
					<path class="st0" d="M273.8,255.9l-0.1-0.1C273.6,255.8,273.6,255.8,273.8,255.9z"/>
					<path class="st0" d="M274,254.4h-0.2C273.8,254.4,273.9,254.4,274,254.4z"/>
					<path class="st0" d="M274,254.2c-0.1,0.1-0.4,0.1-0.3,0.3h0.2C273.4,254.4,274.3,254.2,274,254.2z"/>
					<path class="st0" d="M276.6,252l-0.1,0.4c0.2-0.1,0.6-0.3,0.7,0C277.7,251.7,276.6,252.7,276.6,252z"/>
					<path class="st0" d="M276.7,250.6c0.1,0.1,0.3-0.1,0.4-0.1C277,250.3,276.9,250.3,276.7,250.6z"/>
					<path class="st0" d="M272.4,242.4l0.3-0.5C272.6,241.9,272.6,242,272.4,242.4z"/>
					<polygon class="st0" points="269.5,244.2 269.4,244.7 269.8,244.2 					"/>
					<path class="st0" d="M271.1,239.5L271.1,239.5c0,0-0.1,0-0.2,0H271.1z"/>
					<path class="st0" d="M257.3,238l0.3,0.8C257.7,238.6,257.3,237.6,257.3,238z"/>
					<path class="st0" d="M252.7,243.2c-0.3-0.1-0.7-0.1-0.4,0.1C252.5,243.2,252.8,243.4,252.7,243.2z"/>
					<polygon class="st0" points="255.3,264 255.1,264.1 255.5,264.1 					"/>
				</g>
			</g>
		</g>
	</g>
</g>
<g>
	<g>
		<g>
			<g>
				<g>
					<path class="st1" d="M381.3,296.4c-0.3-1.6-1.2-0.7-1.1,3.7l1.4,3.1L381.3,296.4z"/>
					<path class="st1" d="M378.6,325.5c0.7,5.1,2,10.9,3.3,7.7c-1.4-5.1-0.8-6.3-2.5-11.7c-0.2-4.4,0.4-7.5,1-6.8
						c-0.3-1.5,0.3-6.7-0.6-9c-1.1,5.6-1.2,12.8-0.2,20.2C379.3,327.5,378.8,325.9,378.6,325.5z"/>
					<path class="st1" d="M143.1,318.9l-0.1,2.7C142.9,321,143.1,320,143.1,318.9z"/>
					<path class="st1" d="M92.5,252.7c-1.4-0.8-2.2-1-2.3-0.8C91.6,252.5,92.8,252.9,92.5,252.7z"/>
					<path class="st1" d="M125.1,273c-0.7-0.4-1.3-0.8-1.9-1.2C123.9,272.3,124.5,272.9,125.1,273z"/>
					<path class="st1" d="M143.1,318.9l0.4-7C142.9,311.4,143.2,315.5,143.1,318.9z"/>
					<path class="st1" d="M375.3,384.5c0.9-1,1.7-1.8,2.3-2.7c-0.8,0.8-1.6,1.5-2.2,2.3C375.3,384.2,375.3,384.3,375.3,384.5z"/>
					<path class="st1" d="M184,402.5l1.6,1c0.6,0.1,1,0.1,1.6,0.1L184,402.5z"/>
					<path class="st1" d="M251.9,425.5c-1.6-0.3-2.2,1.2-2.9,1.9c1-0.5,2.1-0.7,3.5-0.7C252.6,426.4,252.4,426,251.9,425.5z"/>
					<path class="st1" d="M359.1,390.9l1.6-1.5C360.3,389.7,359.6,390.4,359.1,390.9z"/>
					<path class="st1" d="M144.9,371.1c0.2-0.1,0.3-0.4,0.4-0.8C145.3,370.3,145,370.7,144.9,371.1z"/>
					<path class="st1" d="M327.6,125.2c0.1,0,0-0.1,0.1-0.3C327.3,124.8,327.2,124.8,327.6,125.2z"/>
					<path class="st1" d="M256.7,70l1.1,0.5c0.2-0.1,0.4-0.4,0.6-0.5H256.7z"/>
					<path class="st1" d="M185.2,308.7c-0.1-0.1-0.1-0.1-0.2-0.1C183.2,307.7,184.2,308.3,185.2,308.7z"/>
					<path class="st1" d="M258.1,275.1c3.2,0.8,0.6,1.2-1.7,1.5c-1.1,0.1-2.2,0.3-2.3,0.5c-0.1,0.3,0.6,0.7,3.1,1.2
						c-0.4-0.3,1.9-0.8,3.2-1.5C261.8,276.2,262.1,275.5,258.1,275.1z"/>
					<path class="st1" d="M373.7,385.7c-0.8,0.7-1.7,1.5-2.4,2.2C372.4,386.9,373.2,386.4,373.7,385.7z"/>
					<path class="st1" d="M257.2,278.2L257.2,278.2l1,0.1C257.8,278.3,257.6,278.3,257.2,278.2z"/>
					<path class="st1" d="M328.2,316.2c-0.3,0-1,0.1-1.7,0.3C326.6,316.6,327,316.6,328.2,316.2z"/>
					<path class="st1" d="M221.9,325.7l2.5,1.6C223.4,326.7,222.5,326.2,221.9,325.7z"/>
					<path class="st1" d="M379.6,279.6c1.4-0.8,2-1,3.7-2.3c-0.2,0-0.4,0.1-0.7,0.3C382.1,278.1,381.2,278.7,379.6,279.6z"/>
					<path class="st1" d="M434,243.4c-0.3,0.1-0.8,0.3-1.1,0.4c-0.6,0.4-1.1,0.8-1.7,1.2L434,243.4z"/>
					<path class="st1" d="M441,264.7c0.3-1.6,0.8-2.7,1.1-3.6C441.3,262.2,440.9,251,441,264.7z"/>
					<path class="st1" d="M374.8,383.8c-0.1,0.5-0.4,1.1-1.2,1.9c0.6-0.5,1.1-1.1,1.7-1.6C375.4,383.8,375.3,383.7,374.8,383.8z"/>
					<path class="st1" d="M377.1,267.4l8.8-5.6C383.4,263.3,380.2,265.4,377.1,267.4z"/>
					<path class="st1" d="M194.6,105.1l1.9-1.5C195.7,104,195,104.6,194.6,105.1z"/>
					<path class="st1" d="M411.4,244.6c1.8-0.5,3.5-1.4,5.3-2.3c0.3-0.4,0.7-0.7,0.9-1L411.4,244.6z"/>
					<path class="st1" d="M442.1,261.1L442.1,261.1L442.1,261.1z"/>
					<path class="st1" d="M433.3,196.2c8.2,5.5,4.7,0.8,6.9,1c0.3,0.1,0.3,0.1,0.4,0.3c0.1,0,0.2,0.1,0.2,0.1
						c0.1,0.1,0.3,0.1,0.4,0.3c0.2,0.1,0.4,0.3,0.6,0.4c-0.1,1.2-0.4,1.4-0.9,1.5c-0.4,0.1-0.9,0.3-1.2,0.5
						c0.4,8.6,1.9,15.2,1.9,21.6c-0.2,0.5-0.3,1.8-0.7,0.3c1.3,9.2,0.1,27,1.7,37.6c-0.1,0.8-0.3,1.2-0.4,1.4
						c0.8-1.8,1.7-1.9,2.2-1.6c0,5.2,1,9.6,0,11.6c0-3.1-0.4-3.4-0.8-4.9l0.4,5.5c-1.6,4.9-0.6-7.4-1.7-7.4
						c0.6,10.5,1.8,22.8,1.3,31c-1.6,1.6-0.6-19-1.9-8.2l0.6-12.6c-2.3,9.6,0.1-7.7-2.3,1.2c-0.4,16.5,0.8,18.4,0.3,34.8
						c0.9,3.7,1.2-1.2,2.1,2.5c0.6,7.8,0.2,12.4-0.2,15.8h8c1-6.7,2.9-8.3,1.6-19.8c-1-4.5-2.9-6.1-1.9-18.4l1.7,4.2
						c0.2-16-2.4-9.2-1.3-25.8c0.7,3,0.6,12.6,0.8,10.1c1.3-10.8-1-7.7-1-16l1.6-1.8c-0.2-16.9-1.3-35.7-1.6-54.5
						c0.4,1.1,0.9,4.2,1.3-0.1c0-1.9-0.1-3.8-0.1-5.9c0-3.1-0.1-6.4-0.1-9.6c-2.7-1.8-5.4-3.6-8.2-5.3c-1.9-1.2-3.8-2.5-5.5-3.7
						c-3.8-2.6-7.4-5.1-11.2-7.8c-7.4-5.2-14.6-10.5-21.3-15.4l-6.9-2.7c-1.4-1-2.4-2.5-0.8-1.6c-6.2-4.8-0.7,0.7-4-0.8
						c-3.7-2.3-4.4-4-2-2.9c-11.8-6.1-33.3-18.4-44.5-27.9l2.5,1.1c-9-6.7-11.8-4-19.7-10.9l1.8,0.8c-19.8-13.8-42.6-27-57-39.2
						c-1.2,0-3.8-1.5-6.8-3.4c-1.4-1-3-2-4.5-3.1c-1-0.7-2.1-1.4-3.1-2c-1.2-0.8-2.4-1.6-3.5-2.3c-1.2,0.8-2.3,1.6-3.3,2.3
						c-0.4,0.4-1,0.7-1.4,1.1c-0.2,0.1-0.4,0.3-0.7,0.5c-0.2,0.1-0.2,0.3-0.3,0.4c-0.9,0.8-1.4,1.6-1.4,2.2c-12,6.3-9,3.6-25.5,13.5
						c-4.3,2.7-5.7,6.1-10.8,10l-0.8-1.4l-6.5,6.4l-4.7,0.8l-4.8,3.7c2-1.2,4.5-2.2,4.4-1.5c-7.4,5.9-19.4,11.7-20,11.1l-17.8,13.7
						c0.1-0.8,3.1-3.1,5.4-5.2c-9.1,8.2-2.4-0.4-10.9,7.1c1.3-0.5-0.2,1.4-0.3,1.8c-4.9,2.2-15.1,9-22.4,14.5l1-2
						c-13.7,8.9-28.5,19.9-43.8,30.2c5.7-3.3,5.2-0.7,0.8,2.6l-2.4-0.4c-2.4,2.9,5-2.6-0.4,2.6c-5.8,3.7-4.7,0.8-1.6-1.9l-6.7,5.2
						c-0.7-0.1,0.9-1.5,1.1-2.5c-2.4,2.9-12.6,6.6-16.1,10.9l-0.6-0.1c-4.9,3.3-9.2,6.3-13.3,9c-4.4,3-8.4,5.7-12.3,8.5
						c-7.4,5.2-14.1,9.8-21.5,14.9c5.1,0,11.3-0.1,18.4-0.1c1.9-0.8,5-1.1,8.8-1.4c3.8-0.3,8.1-0.5,12.1-1.1
						c4.1,0.1,8.3,0.3,12.5,0.4c2.8,0.1,5.7,0.4,8.5,0.5c5.8,0.4,11.9,0.7,18.1,0.5c8.9-0.8,2.5-1.4,6.5-2.2
						c0.7,1.4,13.2,1.2,6.7,2.3c15.1-0.3,19.3-0.3,38.4-1.4c-2.1-0.5-4.4-0.8-3.2-1.4c3.4-0.3,7.9,0.5,7.4,1.2l-0.9,0.1
						c6.2-0.5,13-0.5,19.8-0.1c3.4,0.1,6.9,0.4,10.3,0.7c0.9,0,1.8,0.1,2.5,0.1s2,0.1,2,0.1c0.4,0.1,0.9,0.3,1.2,0.4
						c0,0.4,0,0.8,0,1.2c0,0.3,0,0.3,0,0.5c0.1,0.8,0.3,1.5,0.4,2.3c0.1,0.8,0.3,1.5,0.6,2.3c0.2,0.8,0.3,1.5,0.6,2.3
						c0.4,1.5,0.9,2.9,1.3,4.2c2,5.5,4.4,10,6.9,13.5l-0.7-1c1,1.5,1.9,3,2.9,4.5l1.6,2.2l1.7,2.2c2.4,3,5,5.3,7.5,7.7
						c3.3,3.3,2.2,2.6,0.8,1.6c-1.4-1-3.1-2-0.8,0.8c4.3,3.4,8.2,6.1,12,8.6c3.7,2.5,7.1,4.5,10.5,6.4c3.4,1.9,6.9,3.6,10.6,4.6
						c3.7,1.2,7.9,1.9,12,1.6c6.4,2.5,18.2,2.2,30-3.3c5.9-2.7,12-6.8,16.5-13.3c2.2-3.1,4.1-6.8,5.2-10.5c0.6-1.9,1-3.7,1.3-5.5
						c0.2-0.8,0.3-2,0.4-3.1c0-1.2,0.1-2.3-0.1-3.4c-0.1,0.8-0.3,1.5-0.6,2.2c-0.7-4.4-1.8-6.8-2.7-8.9c-1-2-2-4-4.3-5.7
						c0.1,0.3,0.6,0.8,1.1,1.4c0.6,0.5,1.1,1.2,1.6,1.9c0.4,0.5,0.7,1.1,0.7,1.2c0,0.1-0.3-0.1-1.2-1c-1.4-1.5-3.1-2.6-4.9-3.4
						c-1.9-0.8-4-1-6-0.5l-0.6,0.1h-0.2l-0.9,0.1c-0.3,0.1-0.8,0.1-1.3,0.3c-0.2,0.1-0.3,0.1-0.4,0.1c-0.6,0.1-1.2,0.1-2,0
						c-1.8-0.3-2.5-0.8-3.2-1.6c-0.3-0.4-0.6-1-0.8-1.8c0-0.1-0.1-0.4-0.1-0.4v-0.3c0-0.3,0-0.4,0-0.7c0-0.4,0.2-0.8,0.4-1.1
						c0.1-0.1,0.1-0.1,0.2-0.3l0.2-0.3c0.2-0.3,0.7-0.7,1-0.8c1.1-0.8,1.9-1,3.2-0.7c0.7,0.1,1.4,0.4,2.3,1l3.2,1.8
						c1.2,0.7,2.4,1.2,3.9,1.9c0.7,0.3,1.4,0.5,2.1,0.8c1,0.3,2.1,0.5,3.2,0.7c3.9,0.5,7.9-1.6,10.2-5.5c0.6-1,1.1-2,1.4-3.1
						s0.6-2.3,0.8-3.4c0,0,0,0,0.1,0.1c-0.1,0.1,0.2,0.1,0.3,0.1l0.4,0.1l6.7,0.3c9,0.3,17.8,0.7,26.6,0.8
						c13.5,0.3,7.6-5.1,24.6-2.7l-4.9,1.8c6.8-0.5,13.6-0.8,20.6-1c6.9-0.1,13.9-0.1,20.7-0.1c6.9,0,13.9,0,20.6,0
						c1.7,0,3.4,0,5.1-0.1h2.5h1.2h0.7c0.1,0,0.1,0,0.1,0h0.1c0.8-0.1,1.8-0.3,3.1-0.5c-1,0.4-1.4,1-2,1c0.1,0.7,0.3,0.7,1.6,0.4
						c1-0.3,1.9-0.4,2.5-0.5c1-0.3,2.1-0.5,3-0.8c0.1,0,0.2,0,0.1,0.1c-0.2,0.1-0.4,0.1-0.6,0.3c-0.4,0.1-0.9,0.3-1.3,0.4
						c-0.9,0.3-2,0.5-3,1c-0.8,0.3-0.9,0.4-0.8,0.4c0.1,0,0.3,0.1,0.4,0.3c0.2,0.3-0.1,0.8-1.2,0.8c-0.3,0-0.3-0.3-0.4-0.3
						c0.3,0.1-0.3,0.5-0.8,1l-0.1,0.1l-0.1,0.1c0,0,0,0-0.1,0l-0.2,0.1c-0.6,0.4-1.1,0.8-1.4,1.1c-0.7,0.5-0.8,1,0.2,0.7
						c-9.1,5.2-16.5,11.7-23.9,15.7c-3.9,4.5-15.4,9.3-15.9,12.3c-0.3-2.6-16.2,8.5-21.3,13.3c1.6-1.9-5.1,2.6-3.3,0.1
						c-6.3,4.2-12,8.5-10.4,8.9c-12.9,5.2-22.6,17.8-30.6,18.7c-18.3,13.7-35.5,26.1-52.2,37.8c-0.3-2.6,18.6-12.7,17-14.5
						c-6.3,4.6-11.5,8.9-16.5,12.7c-2.5,1.9-5,3.8-7.5,5.7c-2,1.5-4.1,3-6.3,4.6c-0.3-0.1-0.6-0.3-0.9-0.4c-0.4-0.3-0.9-0.5-1.4-0.8
						c-1.4-0.8-2.9-1.6-4.4-2.6c-4.2-2.7,2.8,0.4,4.3,0.8c-17-8.3-32-18.2-47.3-25.1c0.1-0.1,1.8,0.4,3.3,1.1
						c-3-1.5-6.7-4.1-6.8-2.9l3,1.4c4.1,4.1-12.7-3.4-13.5-2.9c6-0.1-14.3-8.9-5.1-8.2c-2-0.8-4.5-1.8-4.4-0.8
						c-2.8-1.8-3.5-2.7-0.3-1.9c-10.6-5.3-7.3-2-16.8-7.4c0.2-0.4,2.2,0.4,3.4,0.4c-5.1-1.8-10.3-3.4-18.2-8.3c0.6,0-0.2-1,2.2,0.4
						c-13.7-7.5-24.4-10.5-39.1-19.8c5.2,0.3-4.9-3.6-5-5.9l-8.3-4l2.9,2.7c-7.1-4-13.9-6.1-19.7-10.1l5.5,2.2l-13.4-7.1l7.3,4.9
						c-7.5-3-0.1,2.7-9.3-3c2,0.8-7.1-4-10.4-7.1l0,0c-3.8-1.4-7.5-2.7-12.6-6.1c-1.1-1.4,1.9-1.5,1.1-2.3c-4-0.4-16.7-8.9-21.7-9.7
						c1.6,0.4,2-0.5,1.7-1l-3.3-0.4c-3.1-2.2-3.5-2.7-2.8-3.1c-0.9-0.5-1.7-1-2-1.1l-2.4,6.8c5.8,2.9-3.2-4.5,7.1,2.3
						c-1-0.4-0.6,0-2.5-0.8c11.6,7.1,23.1,11.9,33.7,18.6c2.5,3.7-9.6-4.8-6.5-1.2c15.7,8.3,33.1,15.8,48.1,24.7l-2.8-1.8
						c3.1-1.5,10.8,7.7,18.8,10.7c-2-0.8-3,0.1-2.3,0.1c1.8,1.1,3.5,2,5.3,3.1c0.4,0.3,0.9,0.5,1.3,0.8c0.2,0.1,0.6,0.3,0.8,0.4
						c0.6,0.3,1.1,0.5,1.7,0.8c0,0.7,0.1,1.4,0.1,2c0,0.4,0,0.7,0.1,1.1c0,0.7,0.1,1.4,0.1,1.9c0.1,2.6,0.2,5.3,0.4,8.3
						c0.2,5.7,0.6,12,0.9,19l-0.7-2.6c-0.4,8.2-0.1,21.7-0.3,30.6c0.7,2.6,0.6,7.8,1.4,4.6c-0.8,6.8-1.1,13.7-1,20.2
						c0,1.6,0,3.3,0.1,4.9c0,1.9,0.1,3.7,0.1,5.6c0,1.1,0.1,2.2,0.1,3.3c0,0.1,0,0.3,0.1,0.4l0.3,0.3l0.6,0.4l1.1,1l2.2,1.8l1.7,1.2
						c8.9,6.7,17.7,12.6,25.8,20.1c-2.1-1.4-5.2-2.9-3.5-1.8c1.2,0.8,2.5,1.6,3.8,2.5l3.9,2.3c1.3,0.7,2.5,1.5,3.9,2.3l3.9,2.2
						c-0.8-1.9-1.8-1.9-4.5-4.6c1.1,0.3,2.8,0.8,4.7,1.8c1.9,0.8,3.9,1.9,5.9,3c-7.2-3.1-0.7,1.9,2.2,4.1c-0.3-0.7,0.8-0.4,0.7-1
						c1.9,1.6,2.9,2.3,3.7,2.5c0.8,0.3,1.1,0,1.6-0.1c0.4-0.1,1-0.3,2.2,0c1.1,0.3,2.8,1.2,5.5,2.7l-0.8,0.4c2.2,0.7,4.3,1.4,6.4,2
						c2.2,0.5,4.3,1.2,6.7,2.2c1.7,2.2-4.8-1.1-5.3,0c1.7,0.5,3.3,1.1,5,1.4c1.7,0.3,3.3,0.5,5,0.8c3.3,0.5,6.4,1,9.4,2.6
						c-2.9-0.4-7-1.4-9.9-1.9c3.1,1.9,4.9,2.7,6.5,3.3c1.7,0.5,3,1,5.5,1.6l-0.4-0.1l5.8,1.6c1.9,0.5,3.9,0.8,5.8,1.4l-2.9-1
						c2.2-0.7,4.4-0.7,6.7-0.8c2.2-0.1,4.5,0.1,6.9,0.3c2.3,0.1,4.9,0.3,7.4,0.1c2.5-0.1,5.3-0.4,8.2-1.2c-5.5,1.4-6.1,1.6-5.2,1.9
						c0.9,0.3,3,0.4,2.5,1.2c1.6,0.3,3.4,0.3,4.8,0.4c1.3,0.1,2.2,0.3,1.6,0.5c2.8-0.8,5.1-1,7.6-1.1c2.7-0.1,5.5-0.7,9.2-2.3
						c0.4,0.5,5.9-1.4,4.8,0.3c7-2.2-1.9-0.5-1.3-1.2c1.3-0.5,2.7-1.1,4.2-1.5c1.4-0.4,3-1,4.5-1.4c3.1-0.8,6.4-1.8,9.9-2.9
						c6.9-2.3,14.3-5.2,21.1-10.5c0.8-0.5,1.4-1,2.1-1.4c0.7-0.4,1.3-1,1.9-1.4c1.2-1,2.3-1.8,3.3-2.6c2-1.5,3.5-3.1,5.2-4.5
						c3.2-2.9,6.1-5.9,11.3-10.2c2-1.1,1.4-0.1,0.4,1.2c-0.4,0.7-1.1,1.4-1.7,1.8c-0.6,0.5-0.9,0.8-0.9,0.8
						c6.2-3.7,10.4-7.5,15.4-12.6c-0.9,1.4,0.4,0.7,2.3-0.3c2-2,2.5-3,3.2-4.1c0.3-0.5,0.9-1.2,1.7-2c0.4-0.4,0.9-0.8,1.6-1.4
						c0.1-0.1,0.3-0.3,0.4-0.4c0.1,0,0.1-0.1,0.1-0.3c0-0.1,0-0.3,0-0.4c0-0.5,0.1-1.1,0.1-1.8c0.1,0.5,0.2,1.1,0.4,1.6
						c0.1,0.3,0.1,0.7,0.2,1c0,0.1,0.1,0.1,0,0.3l-0.1,0.1c-0.1,0.1-0.1,0.3-0.2,0.4c-0.6,1.1-1.4,2.3-2.8,4l2.5-2.6l1.2-1.2
						l0.1-0.1v-0.3v-0.5v-1l-0.2-4v-0.5v-0.4l-0.1-0.7l-0.1-1.4c-0.3-3.7-0.6-7.5-0.8-11.5c0.8-2,1.1,4.6,1.7,7.4
						c-0.3-8.7-0.7-22.5-1.9-25.3l-0.4,5.6c-0.1-3.1,1-1.6,1.2,0.7c0.9,7.5-0.4,10.8-0.9,11.2l-0.2-5.5c-1.2,2.9-1.2,8.3-0.8,14.6
						c0.1,1.5,0.2,3.1,0.3,4.8c0.1,1.6,0.2,3.7,0.3,5.6c-1.1,1.2-2.3,2.5-3.3,3.6c-1,1-1.9,1.9-2.8,2.7l1.9-4.6l-3.2,4.2
						c-1.1,1.4-2.2,2.7-3.3,4.1c-1.9,1-3.5,0.8-0.1-2.6c-2.9,1.8-4,3-5,4.1c-1,1.1-2,2-4.5,3.3c-0.6,0.3-0.4,0,0-0.5
						c-1.7,1.6-3.3,3.3-5,4.6c0.9-1.2-1.6-0.7,1.9-2.9c-2.5,1.5-4.8,3-6.7,4.6c-2,1.5-3.7,2.9-5.2,4.1c-3,2.6-5.4,4.2-7.6,4.6
						l0.8-0.7c-3.4,2.3-5.2,3.6-6.1,4.2s-0.9,1-0.8,1.2c0.1,0.3,0.4,0.4,0,1.1c-0.2,0.3-0.6,0.7-1.2,1.4c-0.7,0.5-1.6,1.4-2.9,2.2
						l-4.3-0.1c-1.4,0-2.9-0.1-4.3-0.3l-1,2.2c-1.6,0.5-4.5,1.8-4.2,1c-5.4,3.3,1.2,0.3-1.9,2.6c-2,0.3-4.2,1.1-6.5,1.8
						c-2.3,0.7-4.8,1.5-7,2.2c-2.2,0.5-4.3,1.1-6,1.4c-1.7,0.1-2.9,0-3.4-0.5c-2.5,1.8,7.4-0.4-0.7,2c-1.3-1.2-3.7-0.5-6.7,0.1
						c-1.4,0.4-3.1,0.8-4.8,1.1c-1.7,0.3-3.5,0.3-5.3,0.1c2.1-1.6,8.8-1.4,1.7-2.2c-1,0.7-2.4,1.1-4,1.2s-3.3,0-5.2-0.1
						c-1.8-0.1-3.7-0.5-5.4-0.7c-1.8-0.3-3.4-0.4-5-0.4c-0.1,0.5-1,0.7-2.3,0.8c-1.4,0-3.3,0-5.5-0.4c-4.4-0.5-10-1.8-15-2.7
						c0.2-0.1-0.9-0.5-2.7-1.2c-1.8-0.5-4.3-1.5-7.2-2.6c-2.9-1-6-2.5-8.9-3.7c-2.9-1.4-5.7-2.7-7.8-3.8l0.3-0.1
						c-1.1,0.5-3.9-0.4-7.2-1.8c-1.7-0.7-3.4-1.6-5.2-2.5c-1.8-1-3.5-1.8-5.2-2.6c0.7-1,2-0.7,5.5,0.7l-3-1.6c-1-0.5-2-1.1-3-1.8
						c-0.8-0.1-1.7-0.4-2.9-0.8c-1.2-0.4-2.7-1.2-4.5-2.3l2-0.4c-7.8-4.8-16.2-8.7-25.3-17.1c-1.2,0.7,5.9,9.3-4.7,2
						c0-1,0.2-2.3,3-0.4c-0.9-0.7-3.3-1.9-4.9-3.7c1.4,0.8,3,1.5,4.5,2.2c-4.1-4-2.8-1-6.1-4c0.3-0.4-0.2-1.1-0.8-1.8
						c-0.1-0.1-0.2-0.3-0.3-0.4c-0.1-0.1-0.1-0.3-0.2-0.3c-0.1-0.1,0-0.4,0.1-0.4s0.2,0.1,0.2,0.3c0.1,0.1,0.3,0.3,0.4,0.4
						c0.3,0.3,0.7,0.7,1.1,1.1c0.8,0.7,1.6,1.5,2.3,1.9c-0.9-0.8-1.9-1.8-2.9-2.7l-0.7-0.7c-0.2-0.3-0.3-0.4-0.4-0.5
						c-0.3-0.3-0.6-0.7-0.8-1c-0.1-0.1-0.2-0.3-0.3-0.4l-0.1-0.1c0-0.1,0-0.3,0-0.3c0.1-0.4,0.1-0.8,0.2-1.1
						c0.1-0.7,0.3-1.1,0.4-1.5c-0.2,0.1-0.6,0.3-0.8-0.3c-0.2-0.5-0.4-1.8-0.6-3.8c-0.1-10.9,1-3.7,1.4-10.1
						c-0.7-2.6-0.1-9.6-1.3-9.7c0-3.1,0.6-3.8,0.9-5.1c-0.7-5.6-0.3-26.4-1.8-19.9l-0.1,1.5c0-0.3,0-0.5-0.1-1l0,0l0,0
						c-0.6-7.7-0.7-15.6-0.6-23.5c0.1-4,0.1-7.9,0.2-11.9c0-1.9,0.1-4,0.1-5.9c0-2.5,0-4.9,0-7.4c-1.6-0.8-3-1.6-4.5-2.6
						c-0.7-0.4-1.3-0.7-2-1.1c-0.6-0.3-1.2-0.5-1.8-1l0.2-0.5c-8.3-4-18.1-9.7-24.3-11.9c-2.4-1.4-5.3-4.1-4.1-4.1
						c-6.3-3.1-7.2-2.9-15.9-8.7c6.5,2.6-1.9-1.9,6.7,2.9c-7.9-4.9-9.4-6.7-18.5-10.1c3.4,0.4-5.4-4.9-9.4-6.7l5.3,4.1
						c-4.3-2.2-8.1-4.4-11.9-6.7l2.7-0.5c-9.6-6.8-19.1-10.2-27.6-14.2l-3,8.2c5.3,2.5,10.3,5.2,14.6,9.3c4.8,1.2-8.6-5.7-4.2-4.9
						c7.4,4.5,14.5,11.2,16.8,12.6c10,6.7,10.5,3,21.2,9.7c-1.2-1.4-1.9-3.7,6.4,0.3c7.5,4.4,8.4,7.7,3.4,5.5
						c-1.9-1-2.7-1.6-2.4-1.8c-2.5-1.1-5.9-2.7-3.1-0.4h1.2c3.5,2.7,14,8.5,11.2,8.1c5.9,2.6,2.8,0.4-1.3-2.3
						c9.4,6.3,15.2,8.5,24.9,14.6c-1.4-1.2-2.7-2.7-1.1-1.8c14.4,8.9,6.9,2.5,16.8,7.8c5.3,4.1-2.8,1,7.4,5.9c5.9,4,0.7,2.3-1.9,1.4
						c9.5,4,16.7,10.2,21.8,13.4l-5-2.2c3,1.4,5.3,2.6,7.8,4l-2.3-2.7c2.8,1.8,5.1,3.1,4.9,3.6c3.2,0.8-1.6-3.1,4.7-1.1
						c3.5,2.7,11.6,5.7,12.4,8.1c-11.6-7.1,0.8,2.3-9.3-3c2,0.8,4.3,2.2,7.1,4c0.3,0.4-0.6,0.1-1.3-0.3c10.8,7.7,5.9,1.1,17.5,7.7
						c-1.8,0,2.1,3.1,4.1,4.1c-4.8-2.6-1.7-2.7,2.9-1c7.2,4.9,8.3,4.1,12.2,6.3l-4.3-2.9c1.9,0,5.5,2.2,10.9,4.8
						c0.2,1-4.9-2.2-3.2-0.8c6.4,1.6,12.5,8.9,21.1,12.4c3.5,2.7-0.2,1.9,2.9,4.1c4.5,1.9,6.9,3.6,9.2,5.2c1.1,0.8,2.3,1.6,3.7,2.6
						c0.3,0.3,0.8,0.4,1.1,0.7c0.4,0.3,1,0.5,1.6,0.8c1.6,0.8,3.3,1.8,5.2,2.7c0.4-0.4,1.1-0.8,1.8-1.2c-0.8,0.3-1.4,0.5-1.8,0.5
						c-1.7-1.4-2-1.8,0-1c0.4-0.4,1.2-1.1,2.3-1.9c0.6-0.4,1.2-1,1.9-1.5c0.2-0.1,0.3-0.3,0.6-0.4c0.1-0.1,0.2-0.3,0.3-0.3
						c0.2-0.3,0.6-0.4,0.8-0.7l-1.1,0.8l-1.6,1.1l-3.3,2.3l-4.4-2.3l-3.1-1.5l-5.7-2.9l5.3,1.9l2.7,1c0.3,0.1,1.1,0.4,1.8,0.7
						l1.9,0.8c-0.9-0.4-1.7-1-2.5-1.4l-1.1-0.5l-0.9-0.4c-1.2-0.5-2.4-1.2-3.7-1.8c-2.3-1.1-4.4-2-5.8-3c5.1,1.6,4.5,1.8,2.7-0.5
						c1.8,1.6,3.7,2.9,5.7,3.8c0.6,0.3,1,0.5,1.6,0.7c0.6,0.3,1.1,0.5,1.6,0.7c1.3,0.7,2.7,1.2,4,1.9c0.8-0.5,1.7-1.2,2.4-1.9
						c0.4-0.3,0.8-0.5,1.2-1c0.3-0.3,0.7-0.5,1-0.7c1.3-1,2.8-1.8,4.3-2.5l1,3c11.4-6,18.7-14.3,33.1-23l-4.8,2.5
						c1.4-2.3,8.6-6,13.1-9.4c0,1.2,3-0.3,5.2-1.1c-0.6-0.5,10.4-6.8,10.9-9.6l6.9-3c11.6-7.1,11.9-11.3,22.9-18.3
						c-2.9,3.3,2.4,0.5-4.5,6.1c3.7-2.5,7-4.4,6.8-5.2c2.4-0.8,9.6-8.1,13.3-9.4c1.3-1.5,1.4-2.7,5.5-5.5c0.6-0.1,0.2,0.5,0.2,0.5
						c-0.2-0.5,6.2-4.9,2.1-3.6c12.5-4.5,31.4-21.2,42.3-25.1c3.9-2.7,8.3-5.9,12.5-8.9c2.9-1.9,5.7-3.8,8.3-5.7
						c2.8-1.9,5.4-3.7,7.9-5.3c-0.1,0.4,0.9,0-1.3,1.4c4-2.3,6.3-4,7.5-5.1c1.2-1.1,1.6-1.6,1.7-2.2c0.2-0.5,0.3-1.1,1.4-2
						c0.6-0.5,1.3-1.1,2.4-1.9c0.3-0.1,0.7-0.4,1-0.7c0.2-0.1,0.3-0.3,0.6-0.4h0.1l0,0h-0.1h-0.2c-0.7,0-1.4-0.1-2.2-0.1
						c-0.8-0.4-0.6-0.7,0.3-1c0.9-0.1,2.3-0.3,3.8-0.3c0.8,0,1.6,0,2.2,0c0.3,0,0.7,0,1,0c0.1,0,0,0,0,0l-0.1,0.1
						c-0.1,0-0.1,0.1-0.2,0.1c-0.6,0.4-0.4,0.4,1.3-0.5c0.2-0.1,0.4-0.1,0.7-0.3c0.1,0,0.2-0.1,0.3-0.1c0.2-0.1,0.3-0.1,0.4-0.3
						c0.2-0.1,0.3-0.3,0.2-0.4c-0.1-0.3-0.8-0.4-1.9-0.4c-2.2-0.1-5.9,0-9.9,0.1c-4,0.1-8.2,0.4-12,0.4c-3.9,0-7.3-0.1-10.4-0.7
						l3.4-0.3c-2.4-0.3-5.4-0.4-8.6-0.3c-0.4,0-0.8,0-1.2,0c-0.2,0-0.6,0-0.8,0c-0.6,0-1,0.1-1.6,0.1c-1.1,0.1-2.2,0.1-3.3,0.3
						c-4.5,0.4-9.6,1.1-15.2,1c0,0,0.6-0.3,0.1-0.5c-7.4,1.8-21.5,2.5-31.9,2.9c3.2-1.4,4.8-0.7,2.8-2.2c-4.7,0.3,1.3,2.3-8,2.7
						c-3-0.8-9.8-1.4-10.6-2.9l8.9-0.1c-4.5-1.9-11.4,0.1-16.1-0.3l0.6-0.8c-13.5,0.3-13.7,2.5-28.3,2.3l1.6,0.7
						c-8,2.2-6.7-1.2-14.6,0.4l-2.4-2.2c-1.2,0.1-2.9,0.3-4.9,0.5c-0.2,0-0.4,0-0.8,0.1c-0.3,0-0.7,0-1,0.1c-0.7,0-1.4,0.1-2.2,0.1
						c-0.8,0-1.4,0.1-2.2,0.1c-0.3,0-0.8,0-1.1,0.1h-0.6h-0.3h-0.1c0,0,0,0-0.1,0v0.1c-0.3,2-0.7,4.1-0.9,6.3l-0.2,1.5l-0.1,0.8
						c-0.1,0.5-0.1,1.1-0.3,1.6c-0.3,1.1-1,2-1.8,2.6c-0.8,0.5-1.8,0.7-2.7,0.5c-0.6-0.1-1-0.1-1.4-0.3c0.4,0,0.9,0,1.4-0.1
						c1-0.1,2.2-0.5,3-1.8c0.4-0.5,0.7-1.2,0.8-2c0.1-0.4,0.1-0.7,0.1-1.1V220v-0.3l0.1-0.7c0.2-1.8,0.6-3.7,0.8-5.5l0.2-1.4
						l0.1-0.7v-0.4c0-0.1,0.1,0,0.2-0.1c0.7,0,1.3-0.1,2-0.1c1.3-0.1,2.7-0.3,4-0.3c0.7,0,1.3-0.1,1.9-0.1c0.6,0,0.9-0.1,1.2-0.1
						c-1.9,0-4.4,0-7.2,0c-0.8,0-1.6,0-2.3,0h-0.3c-0.1,0-0.1,0.3-0.1,0.3l-0.1,0.8c-0.1,0.5-0.2,1.1-0.3,1.5
						c-0.3,2-0.8,4.2-1.1,6.3c-0.1,0.3,0,0.3-0.1,0.4v0.3l-0.1,0.4c0,0.3-0.1,0.5-0.1,0.8c-0.1,0.5-0.4,1-0.7,1.4
						c-0.6,0.7-1.2,1-1.7,1.2c0.6,0,1.2-0.4,1.7-1c0.4-0.5,0.8-1.1,1.1-1.6c0,0.8-0.2,1.8-0.8,2.6c-0.6,0.8-1.4,1.2-2.4,1.2
						c-0.4,0-0.9,0-1.3,0c-0.6-0.1-1.2-0.3-1.8-0.4c-1.2-0.4-2.5-0.8-3.9-1.5c-2.5-1.1-5.9-3.1-9.8-2.5c0.2-0.5-0.1-1-0.9-1.1
						s-2.2,0.1-3.7,1c-0.4,0.1-0.8,0.4-1.1,0.7c-0.3,0.3-0.7,0.5-1.1,0.8c-0.7,0.5-1.7,1.6-2.4,2.9c-0.8,1.2-1.4,2.6-1.8,4.2
						c-0.3,1.6-0.4,3.4-0.1,5.2c0.3,1.9,0.7,3.3,1.3,4.8c0.7,1.5,1.6,3,2.5,4.2c2.1,2.5,5,3.6,7.1,4.1c1.1,0.3,2.3,0.4,3.5,0.4
						c0.6,0,1.1,0,1.7-0.1c0.6,0,1.2-0.3,1.2-0.1c0.3,0,1.2,0.1,2.1,0c0.2,0.1,0.4,0.3,0.6,0.4c0.3-0.1,0.7,0,1.2,0.1
						c0.6,0.3,1,0.7,1.3,1.1c0.3,0.4,0.7,1,0.8,1.5c0.1,0.5,0.2,1.2,0.1,2c-0.4,4.4-2.2,8.3-5.2,11.5c-2.9,3.1-6.8,5.5-11,7.2
						c-4.2,1.8-9,2.9-13.9,3.7c3.7,1.1,2.2,1.4,0,1.6c-2.2,0.4-5.2,0.5-4.5,2.2c-4.8,0.5-6.7,0.1-7.1,0c-4.9-1-9.3-2.5-13.6-4.9
						c-1.4-1.1-0.3-0.8,1.1-0.4c1.4,0.3,3.2,0.8,3.1,0.3c-1.2-0.4-2.1-0.8-2.9-1.1c-0.8-0.4-1.3-0.7-1.8-1c-0.9-0.5-1.2-0.8-1.4-1.2
						c-0.4-0.7-0.6-1.2-3.4-3.1c0.9,1.8-3.9,0-8.8-3.8c2.2,2,4.4,4,6.9,5.9c-3.4-1.4-5.8-2.9-7.5-4.2c-1.8-1.4-3-2.7-4.1-4
						c-1.1-1.4-2.3-2.6-3.9-4.2c-1.6-1.6-3.7-3.4-6.4-6c1.2,1,2.5,1.9,3.9,2.7c-0.8-0.7-1.6-1.5-2.5-2.3c-0.9-1-1.9-2-2.8-3.1
						c-0.2-0.3-0.4-0.5-0.7-0.8c-0.2-0.3-0.4-0.7-0.7-1c-0.6-0.7-1-1.5-1.4-2.3c-1-1.6-2-3.3-2.9-4.9c-1.9-3.4-3.7-7-5.1-10
						c-0.7-1.5-1.3-3-1.9-4.2c-0.6-1.2-1.1-2.5-1.6-3.4c0-0.1,0-0.4,0-0.7c0-0.1,0-0.3,0-0.3v-0.1c0-0.1,0-0.1,0-0.3
						c0-0.7,0-1.2,0.1-1.5s0.2-0.3,0.4,0.4c0.1,0.3,0.2,0.8,0.3,1.2c0.1,0.3,0.2,0.7,0.3,1.1c-0.1-0.7-0.3-1.5-0.4-2.2
						c-0.2-1.1-0.4-2.3-0.6-3.6c-0.3-2.5-0.7-4.9-1-7.4c-1.9,0-3.9,0-5.9,0c-1,0-2,0-3,0c-0.8,0-1.7,0-2.4,0
						c-2.2,0.1-4.4,0.3-6.8,0.3c-4.4,0.3-9,0.5-13.3,0.7c-8.6,0.4-16.8,0.7-23.3,0l1.4-0.8c-3.5,0.3-6.1,1.5-10.5,0.7
						c0.2-0.3,1.4-0.8-0.2-0.8c-1.9,0.3-9.3,1.4-14,1l4-1c-18.3-1.1-28.2,2.2-43.6,2.7c0-1.2-3.5-2-8.1-2.6c-0.2,0-0.6,0-0.8-0.1
						l-0.2-0.1l-0.3-0.1c-0.2-0.1-0.4-0.1-0.6-0.3c-0.3-0.1-0.6-0.3-0.7-0.4l0.6-0.3c-0.4-0.1-1.1,0-2.4,0.3c-0.1-0.3-0.2-0.8,0.8-2
						c0.2-0.3,0.6-0.7,1-1.1l0.7-0.7c0.1,0,0.1-0.1,0.2-0.1l0.6-0.4l1.1-0.8c2.9-2.2,5.9-4.5,9-6.8c11.8-4.9,36.9-23.6,54.8-34
						c-2.8,1.4-0.3-1.9,2.7-4.2c4.2-2.3,10.5-9,10.8-6.7l-2.2,0.3c3.9-0.1,12-6.3,18.5-10.7v-3.3c18.6-7.8,44-31.6,54.8-34.6
						c3.9-3.4,9-6.8,12.7-10.2l0.3,1.5c4.8-3,8.5-5.5,12.5-8.1c2-1.2,3.9-2.6,6.1-4.1c1.1-0.7,2.2-1.5,3.3-2.3
						c0.1-0.1,0.3-0.1,0.4-0.3l0.1-0.1c0.1-0.1,0.2-0.1,0.3-0.3c0.1,0,0.2,0.1,0.4,0.3l0.1,0.1l0,0l0.1,0.1c0.1,0.1,0.3,0.1,0.4,0.3
						c0.6,0.4,1.1,0.7,1.8,1.1l-1.7-0.4l-0.8-0.3c-0.2-0.1-0.1,0-0.2,0l-0.1,0.1l0,0l0.1,0.1c0.2,0.1,0.4,0.3,0.7,0.4
						c0.4,0.3,0.9,0.5,1.3,0.7c0.9,0.4,1.7,0.8,2.5,1.1c1.6,0.5,3.1,1,4.5,1.2c2.9,0.5,5.7,1.1,9.4,3.6l1.3,3.6
						c14,9.2,27.3,20.2,41.9,27.3c-0.3,0.1-1,0.4-3.3-1c6.5,4.4,24.8,18,23.6,13.7c-0.7,1.9,14.3,9.6,22.2,13.8l-1.8,0.5
						c7.1,2.5,7.5,2.2,16.6,7.5c2,1.5,1.3,2.3-1.2,0.1c6.8,5.3,6,2.3,14.2,8.6l-3.5-1.2c7.2,4.8,6.8,4,11.2,5.6
						c4.8,2.5,13.5,9.3,14.1,11.2c1.3-0.1,5.7,1.5,9.8,4.6c0.3,0.8-1.3,0.1-2.1-0.3c5.9,4.4,10.5,7,14.6,9.3c2.1,1.1,4,2.2,6,3.4
						c0.4,0.3,1,0.7,1.4,1l0.7,0.5c0.2,0.1,0.3,0.3,0.4,0.4c0.6,0.4,1.1,1,1.6,1.5c-0.1,0.1-0.1,0.1-0.1,0.3
						c-0.2,0.3-0.4,0.7-0.6,1.1c0-0.3,0-0.5,0-0.8c-3.7-2.5-7-4.6-9.3-6.1c-2.8-1.9-4.3-3-4-2.7c-0.6,1.2,7.1,6.6,0.2,4.2
						c1.9,1,4.2,2,6.8,3.1c1.2,0.5,2.5,1.2,3.9,1.9c0.4,0.1,1,0.1,1.6,0.4c0.1,0.4,0.2,0.8,0.2,1.2v0.4v0.1v0.4c0,0.7,0,1.2,0.1,1.9
						c0.1,2.5,0.1,4.9,0,7.1c-0.1,0.5-0.2,1-0.4,1.4l-0.1-1.1c-0.1,2.5,0,4.6,0.2,6.7c-0.2,3.4-0.3,5.5-0.3,8.7
						c-1,1.2-0.6,12.4-0.6,17.8c1.2-0.4,1,6.6,2.1,0c-0.1,0.8-0.1-1-0.2-4.6c0-0.8,0-1.8-0.1-2.3c0,0.1,0.1,0.3,0.1,0.4
						c0-3.6,0-8.2-0.1-13.4c0.7,4.2,1.2,8.7,0.4,14.6c0.8,2.7,1.7,5.9,2,7.5c-1.8,7.4-2.7,21.6-3.8,23.6c0.7,16.4,0.4,38.8,2.8,49
						c0.3,4.6-0.7,5.3-1,7.1c-0.2-2.7-0.2-5.9-0.6-7.4c0.2,3,0.3,7,0.3,11.1h6.9c-0.2-8.5-0.3-17.5-1.4-19c0.8-11.7,1.6,6.7,1.2-9.6
						l0.6,2.2c2.7-31.8-4.2-51.8-0.8-87.2c-0.2,2.5-0.3,3.7-0.6,4.2c0.1-4.1,0.2-8.2,0.3-12.3c0-2,0-4.1,0.1-6.1c0-2.7,0-5.5,0-8.2
						c-3.4-2.2-6.9-4.5-10.3-6.7c-3-1.9-6-3.8-8.9-5.7c-6-3.8-12-7.5-17.8-11.3c-11.9-7.7-23.5-15.4-34.5-23.9
						c-7.9-5.9-9.2-5.3-14.5-7.7l-1.1-2.6l-9.2-3.8c-12.5-6.7-19.2-17.2-35.4-24.9l1.6,2.3c-5.3-3.8-17.5-10.8-16.1-11.3
						c-0.7-0.1-2.2-0.1-4.1-2l0.1-0.8l-14-7.5c-10.1-7.4,2.9-1.9-12.1-12c-5.8-3.4-17-8.3-15.1-6.4c2.2,1.5,5.5,4.2,5.4,5.2l-5.3-3
						c-1.9,1.6-6.9,1.4,5.1,11.2l9.4,4.4l2.3,3l-7.4-4.8c3.8,3.8,6.8,4.6,10.1,6c0.4,1.1,1.6,2.3,3.2,3.6l9.5,3.6
						c0.7,1.5-4.7-0.8,1,3.6c4.4,1.6-3-4.5,4-0.8c3.8,3.8,2.2,3.8,7.5,6.1c0.4,1.1-0.8,0.7-2.9-0.3c4.7,2.2,11.8,7.4,14.5,7.7
						c3.9,4.1,15,9.4,13.6,11.2c1.6,0.4,8.4,3.4,12.5,6c-8.4-2.3,15.1,10.1,12,11.5c6.4,1.2,20.2,11.9,30.4,17.1
						c-0.7-0.1-1.9-0.5-2.7-1.2c5.3,3.8,6.7,5.5,10,8.2c1.6-1.4,10.2,3.7,15.3,5.6c5.9,6.1-5-0.4-3.7,2.7c0.3-1.8,12.3,6.1,10.5,3.3
						c4.7,4.5,4.2,3.4,6.1,6.7c1.9-1.8,4.9,2.7,9.8,4.1c6.9,6,1,3.4,9.4,8.1C440.9,200.1,433.3,196.2,433.3,196.2z M449.7,206.8
						L449.7,206.8c0,2.3,0.1,4.2,0.1,5.6C449.7,211.1,449.7,209.6,449.7,206.8z M440.1,186.3c1,0.7,2.1,1.4,3.2,2.2
						c1.7,1.1,3.4,2.2,5.2,3.4c0.4,0.8-0.9,0.7-3-0.8c0.7,0.3-0.2-0.5-1.8-1.8C442.8,188.4,441.4,187.2,440.1,186.3z M440.9,232
						c-0.2-3.6,0.1-4.8,0.3-5.3c0,1.6,0.1,3.7,0.1,6.3c0,0.1,0.1,0.3,0.1,0.4C441.4,233.1,441.1,232.7,440.9,232z"/>
					<path class="st1" d="M442.6,238.4c0,0.5,0.1,0.8,0.1,1.5c0.1-0.7,0.2-1.4,0.3-2.2c-0.1-0.4-0.2-0.8-0.4-1.2
						C442.6,237.2,442.6,237.9,442.6,238.4z"/>
					<path class="st1" d="M142.8,322.2v-0.5c0,0.4-0.1,0.8-0.2,1C142.8,322.3,142.8,322.3,142.8,322.2z"/>
					<polygon class="st1" points="212.2,92.3 212.4,92.6 213.7,91.3 					"/>
					<path class="st1" d="M190.5,413.9c0.1,0.3,0.4,0.5,1.1,1C191.5,414.7,191.1,414.3,190.5,413.9z"/>
					<path class="st1" d="M232.6,430.1l6.1,1.8C236.1,431.2,234.2,430.5,232.6,430.1z"/>
					<path class="st1" d="M266.7,434.2c0.4-0.3,0.6-0.5,0.7-0.7c0,0,0,0-0.1,0L266.7,434.2z"/>
					<path class="st1" d="M223.2,315.2c0.4,0.3,0.8,0.4,1.2,0.5C227.3,317,225.3,316.2,223.2,315.2z"/>
					<path class="st1" d="M77.1,237.6c1.7,0.5,3.2,1.2,4.9,1.9C79.4,238,77.4,236.9,77.1,237.6z"/>
					<path class="st1" d="M376.2,268.1L376.2,268.1c0.3-0.1,0.7-0.4,1-0.5L376.2,268.1z"/>
					<path class="st1" d="M88.7,243.4c-2.4-1.8-4.7-2.9-6.8-3.8C84.1,240.9,86.5,242.4,88.7,243.4z"/>
					<path class="st1" d="M382.3,347.1v-2c-0.1,0-0.1-0.1-0.2-0.3L382.3,347.1z"/>
					<path class="st1" d="M382.2,344.9l-0.1-2.2C381.9,343.6,381.9,344.6,382.2,344.9z"/>
					<path class="st1" d="M381.6,338l0.3,4.6C381.9,341,382.1,339,381.6,338z"/>
					<path class="st1" d="M363,394.5l-0.2,0.8C363,395,363.1,394.7,363,394.5z"/>
					<path class="st1" d="M351.5,403.5c2.9-2,7.6-4.1,11.2-7.5l0.1-0.7c-0.8,1.1-3,2.6-5.3,4C355,400.6,352.6,402.1,351.5,403.5z"/>
					<path class="st1" d="M297,422.9c1.9-0.4,3.7-1,5.4-1.5l2.8-0.7l2.7-1c-2,0.1-4.7,0.3,0.2-1.6c-1.8,0.4-3,0.7-3.9,1
						c-0.9,0.1-1.4,0.3-1.8,0.4c-0.6,0.3-0.2,0.3,0.1,0.5C303.5,420.3,304.1,420.8,297,422.9z"/>
					<path class="st1" d="M262.7,426.7c6-0.4-0.1-0.8,0.2-1.2c-1.9,0.3-3.1,0.4-3.2,0.5C259.6,426.3,260.3,426.6,262.7,426.7z"/>
					<path class="st1" d="M104,251.3l1-1C100.7,248.1,104.8,250.9,104,251.3z"/>
					<polygon class="st1" points="57.4,233.3 61.2,236.4 63.7,236.3 					"/>
					<polygon class="st1" points="37.4,224.9 35.5,224.1 42.8,227.5 					"/>
					<path class="st1" d="M424.8,251l-1.9-0.7C420.3,252.4,420.4,254.6,424.8,251z"/>
					<path class="st1" d="M339.7,210.6c-2-0.8-7.2-1.4-10.4-0.5C333.4,210,337.6,210.7,339.7,210.6z"/>
					<polygon class="st1" points="174.9,133.3 171.8,136 177.8,131.5 					"/>
				</g>
			</g>
		</g>
	</g>
</g>
</svg>
