<?xml version="1.0" encoding="utf-8"?>
<!-- Generator: Adobe Illustrator 25.2.1, SVG Export Plug-In . SVG Version: 6.00 Build 0)  -->
<svg version="1.1" id="Layer_1" xmlns="http://www.w3.org/2000/svg" xmlns:xlink="http://www.w3.org/1999/xlink" x="0px" y="0px"
	 viewBox="0 0 500 500" style="enable-background:new 0 0 500 500;" xml:space="preserve">
<style type="text/css">
	.st0{fill:black;}
	.st1{fill:white;}
</style>
<g id="fb" onclick="life.html">
	<circle class="st0" cx="238.9" cy="244.4" r="205.2"/>
	<g>
		<g>
			<g>
				<path class="st1" d="M466.9,250.9c1.5,0.5,4.5,0.5,3.5-1.5l-4.9-1.5L466.9,250.9z"/>
				<path class="st1" d="M475.3,238c-2.5-2-6.9-4.5-11.4-2.5c4.9,2,3,2.5,8.4,4.5c0.5,2-1.5,3.5-3.5,3c1.5,0.5-1,3,2,4
					c3.5-2.5,3.5-5.9,0.5-8.9C472.8,237,474.3,237.5,475.3,238z"/>
				<path class="st1" d="M390.7,71.4l0.5,1C391.2,71.9,390.7,71.4,390.7,71.4z"/>
				<path class="st1" d="M277.5,28.3c1,0,1.5-0.5,1.5-1C278,27.3,277,27.8,277.5,28.3z"/>
				<path class="st1" d="M256.2,22.4c0.5,0,1,0,1.5,0.5C257.2,21.9,256.7,21.9,256.2,22.4z"/>
				<path class="st1" d="M390.7,71.4l-2-3.5C387.7,68.9,389.2,69.9,390.7,71.4z"/>
				<path class="st1" d="M460.4,214.3c0.5,0.5,1,1,1.5,1.5c-0.5-0.5-0.5-1-0.5-1.5C460.9,213.8,460.4,213.8,460.4,214.3z"/>
				<path class="st1" d="M433.2,104.5l0.5,1c0.5,0,1.5-0.5,2-0.5L433.2,104.5z"/>
				<path class="st1" d="M458,138.6c-0.5-1-4,1-5.9,1.5c2-0.5,3,0,3.5,0.5C456.5,140.1,457,139.6,458,138.6z"/>
				<path class="st1" d="M475.3,201.9l1,1C475.8,202.9,475.3,202.4,475.3,201.9z"/>
				<path class="st1" d="M412.5,82.7c0.5-0.5,0.5-1,0.5-1.5C413,81.7,413,82.2,412.5,82.7z"/>
				<path class="st1" d="M452.5,292.9C453,292.9,453,292.9,452.5,292.9C452.5,292.4,452.5,292.4,452.5,292.9z"/>
				<path class="st1" d="M477.7,250.9L477.7,250.9c1,0.5,1.5,0.5,2.5,0.5L477.7,250.9z"/>
				<path class="st1" d="M216.1,21.4L216.1,21.4C217.1,20.9,216.6,20.9,216.1,21.4z"/>
				<path class="st1" d="M36.6,299.8c2.5-4.9,6.4,5.4,8.9-1.5C44.1,299.3,37.6,294.4,36.6,299.8z"/>
				<path class="st1" d="M460.9,212.8c0-0.5,0-1-0.5-1.5C460.4,212.3,460.4,212.8,460.9,212.8z"/>
				<path class="st1" d="M45.5,298.3L45.5,298.3L45.5,298.3C45.5,297.8,45.5,298.3,45.5,298.3z"/>
				<path class="st1" d="M132.1,59.5c0.5,0.5,1,0.5,2,1C133.6,60,133.1,59.5,132.1,59.5z"/>
				<path class="st1" d="M195.4,35.3h-1.5C194.4,35.3,194.9,35.3,195.4,35.3z"/>
				<path class="st1" d="M108.3,86.2c-1,0.5-1.5,0-2,1.5h0.5C106.9,86.7,107.4,86.2,108.3,86.2z"/>
				<path class="st1" d="M84.1,112.9c0.5,0,0.5,0,1,0c0-0.5,0.5-0.5,0.5-1L84.1,112.9z"/>
				<path class="st1" d="M412.5,378c1.5,0.5,2.5,1,4,1.5C413.5,377.5,415.9,373.5,412.5,378z"/>
				<path class="st1" d="M462.4,213.8c-1,0-1.5,0-2-0.5c0,0.5,0,0.5,0.5,1C461.9,213.8,462.4,213.8,462.4,213.8z"/>
				<path class="st1" d="M130.1,110.9l-4,3C127.1,112.9,128.6,111.9,130.1,110.9z"/>
				<path class="st1" d="M208.2,440.3h1.5C209.2,439.8,208.7,439.8,208.2,440.3z"/>
				<path class="st1" d="M116.8,124.8c-1.5-0.5-3,0-4,0c0,0.5,0,0.5,0.5,1L116.8,124.8z"/>
				<path class="st1" d="M416.4,378.9L416.4,378.9L416.4,378.9z"/>
				<path class="st1" d="M426.8,346.8c-2.5,4,3.5,4.5,5.4,6.9c-1.5,5.9-4.9,0-7.9,0.5c-0.5,2,0.5,4,0.5,5.9c0.5,2,0.5,4-0.5,4.9
					c-1-0.5-1.5,0-2-1.5c1.5,5.4-6.4,8.9-4.9,15.8c-0.5,0-1,0-1.5-0.5c2.5,1,4.9,3,6.4,4.5c-1.5,1.5,0,5.4-3.5,3.5c1-1,0-2-0.5-3
					l-0.5,3c-5.4-2,1-3.5-2-5.9c-1.5,4.5-2,11.4-5.4,12.9c-4-3,4-6.9-2-6.9l4.9-2.5c-8.4-2.5,2.5-2-6.4-4.9c-5.4,4-3,7.4-8.9,10.9
					c1,3,3.5,2.5,4,5.4c-4,10.4-14.3-4.5-14.8,5.4c1,4,4,8.9-2,9.4l-2-5.4c-5.4,3.5,2,8.9-5.9,9.9c-0.5-2.5,3-4.5,2-4.5
					c-6.4-1-0.5,4.5-3.5,6.4l-3.5-4c-3,2-5.4,4.9-7.9,7.9s-5.4,5.9-8.9,7.9c-0.5-1.5,0-3.5-2-4c-4,3.5-8.9,5.4-13.8,6.9
					c-5.4,1-10.4,1.5-15.3,1.5l-2,5.4c-1,0-2-1.5-1.5-2.5c-4-0.5,0.5,2.5-0.5,4.9c-2,1-3.5-1.5-2.5-3.5c-2.5,2.5-6.4,5.4-10.9,7.9
					c-1,0.5-2,1-3.5,1.5c-1,0.5-2.5,0.5-3.5,0.5c-2.5,0-4.5,0-6.4-1l1-1.5c-5.4-1-4.9,9.9-10.4,6.4l1-1c-5.9-0.5-12.4,0.5-17.8,0.5
					c-1.5,0-3,0-4.5,0c-1.5,0-3-0.5-4-1c-2.5-0.5-4.9-2-7.4-3.5c-1,3-4,2.5-6.4,1.5c-3-0.5-5.4-1-6.4,3c-5.9-5.4-4-6.4-12.9-10.9
					c-2.5-0.5-4.5,4.5-7.9,4.9l1-4.5l-5.4,3.5l-1-5.9l-3,0.5c1,0.5,2,2.5,1.5,4c-2.5,0.5-4.9-1-6.9-3c-1.5-2-2.5-4.5-2.5-5.4h-11.4
					c1-1.5,3-1.5,4.5-2.5c-6.9,2.5,1-4.9-5.4-2.5c0.5,1-1.5,2.5-2,3c-1.5-3.5-6.4-5.9-10.9-6.9l2-2.5c-6.9-4-14.8-6.4-22.7-10.9
					c2,3-1.5,6.9-4.5,5.9l2-4.5c-3,1.5,1.5,3-3.5,4c-2.5-2.5,1.5-5.9,3.5-5.9l-4-1c0.5-1.5,2-1.5,3-3c-3,1.5-2.5-7.9-7.4-5.4
					l0.5-1.5c-1.5-1.5-3.5-2.5-4.9-3.5c-1.5-1-2.5-2-4-2.5c-2.5-1.5-4.9-3-7.4-5.4c-3,3-4.5,0.5-8.4,1.5c-2.5-4.9-4.5-11.4-8.9-15.8
					c-4.5-2-3.5,1.5-6.9,1c3-2.5-1.5-7.4,3-6.4c-2.5-3-4-4.9-5.9-6.4c-1-1-2-2-3.5-3c-1.5-1-3-2.5-4.5-4.5c-1,2-0.5,3-2,3.5
					c-1.5-1-1-4.5,1-4.9h0.5c-5.4-3.5-6.4-9.9-6.4-16.8c0-3.5-0.5-6.4-1-8.9c-0.5-1.5-1-2.5-2-3.5c-0.5-1-1.5-2-3-2.5l0.5,0.5
					l-6.9-6.9c-1-4,3.5,1.5,4.9-2.5c-2.5-2-4-3.5-4.9-5.4c-1-2-1-4-1.5-5.4c-0.5-3.5-0.5-6.9-3.5-10.4c4.5-4,4-9.4,2-14.8
					c-1-3-2-5.4-2-8.4c0-3,0.5-5.4,2-7.4l-2.5,0.5c-2.5-2,1.5-2.5,2-4.5c-2,0.5-2.5,2.5-4,1c-2.5-8.9-0.5-18.8,1.5-27.7
					c1-4.5,3-8.9,4.9-13.4l2.5-6.4c1-2,2-4.5,3-6.4c2.5-5.9-12.4-7.4-4-13.8l4,4c-1-7.4,2-13.8,4.5-20.3c3-6.4,6.4-12.4,7.4-19.8
					c0.5,1.5,2,2,1.5,3c4.5-1,5.4-8.9,3-10.4c1.5-1.5,2.5,1,4.5,0.5c3.5-1,0-8.4,3.5-7.9c0.5,0,0.5,1.5,0.5,2
					c-0.5-2.5,5.4-6.4,1-7.4c4.5-3,4.5-8.9,8.9-10.4c-1.5-4.9,7.4-4.9,3.5-9.9c4.9,4.9,9.9-3,10.4-7.4c0.5,2,3.5-0.5,4.5,2.5
					c2.5-2.5,4.5-5.4,1.5-7.9c4.9,1,6.4-3,7.9-5.4c1.5-3,3-5.4,7.9-2.5c1.5-2.5,3.5-4.5,4.9-6.9c2-2,3.5-4,5.4-5.9
					c2-2,4-3.5,5.4-5.4l3-2.5l3-2c1.5,3-1,4.5-3,5.9c-2,1.5-4,3-2,5.9c1.5-2,3-3.5,4-5.4c1.5-1.5,2.5-3.5,4-4.9
					c2.5-3,5.4-5.4,9.9-6.9c2.5,0,0,3.5-0.5,4.5c3.5-3.5,7.9-4.5,11.9-5.9c2-0.5,4-1.5,5.9-2.5c2-1,4-2,5.4-3.5c0,0.5-0.5,1.5-1,2
					c1.5-0.5,4,0,3-3l-1.5,1c-4-3.5,4-10.4,4-12.9c-0.5,9.4,8.9,0,6.9,11.9c1-1,2-2.5,1-4.5c1.5,0,2.5,1,1.5,4c2.5-1.5,3.5-3,4-4
					c0.5-1,1.5-2,4-2.5c0,1.5-1,2-1,4c2-3.5,4.5-6.4,9.4-5.9c0,1,0.5,2-1,2c7.4-2,12.9-8.9,21.8-6.4c-2.5,6.4,3,2,3.5,7.4
					c1.5-0.5,3-1,4.5-1.5l-2-3c4,0.5,7.9-3.5,11.4-1.5l-3,2l7.9-0.5l-4.5-2.5c4.5-2.5,0-6.9,5.4-5.4c-1,0.5,4.5,0,5.9,4l0,0
					c2.5-1.5,4.5-3,7.4-1c0.5,2-1.5,5.9-1,7.4c2.5-4,9.9,0,13.4-4c-1,1-1.5,4-1.5,4.5l2.5-3.5c1.5,1.5,2,2.5,1,4.5
					c5.4,2,0-7.4,5.9-2.5c-0.5,0-0.5,1-1.5,1c3,1.5,6.4,2,9.9,2c3.5,0,6.4,1,9.4,3c0,5.9-5.4-0.5-4.9,4.5c4.5,1,9.4,1,14.3,1.5
					s9.4,1.5,13.4,4l-1-1.5c4.5-6.4,4.5,6.4,9.9,4.9c-1,0-3.5,3-2.5,2.5c4.5,4.5,11.4,4.5,20.8,7.4l-2,1c2,3.5,6.9,6.4,9.4,9.4
					c2-1,4,0.5,4.5-2.5c0.5,2,1,3.5,1.5,4.9c0.5,1.5,1.5,2.5,2.5,3.5c2,2,4.5,3.5,7.4,4.5c2.5,1.5,5.4,2.5,7.4,4
					c2,2,3.5,4.5,3.5,7.9c-1-1-3.5-1-2.5-0.5l7.4,5.4c2-3,1-2,1.5-5.4c2.5-0.5,5.4,0.5,6.9,2c-4.5-1.5-4,3.5-4.5,5.9
					c0.5-1,2-1,2.5-2c-2,7.4,5.9-3.5,6.4,4l-1.5,1c2,1.5,5.4,2,6.4,4.5c-2.5,3-3-1-5.9,1c2.5,3,10.9,1.5,8.9,6.9c-2-1-3-2.5-4.9-3.5
					c-1.5,5.4-0.5,5.4,0,7.9v-0.5l1.5,6.4l0.5-2c5.4-1,7.4,1,8.4,3c0.5,1,1.5,2.5,2.5,3.5c1,1,2,2,4.5,3c-8.4-2.5-4,1-7.9,2.5
					c-0.5,2-0.5,4.9-2,4.5c4.5,1-0.5,5.4,5.9,6.9c-1.5,1,1,3-2.5,3.5c2.5,3,2-2,4-2.5c3.5,1.5,3.5,5.4,3.5,9.4c0,4,0.5,7.9,4.9,10.9
					c4.5,5.9,9.4,5.9,13.8,12.4c-1.5,3-5.4-0.5-5.4-0.5c-1,4,0,6.4,2.5,9.9c-1.5-0.5-2.5,0.5-4,2c1,2.5,5.4,1,4,4.9
					c-1.5-0.5-4.5-0.5-5.9-2c2,3,4.9,5.4,6.9,8.9c-2.5,1-4-1.5-5.9-2.5c1.5,3.5,4,9.4,7.4,9.9l1.5-2.5c0.5,1.5-3.5,1-4,0
					c-3.5-3,0.5-4.9,2-4.9l1.5,2.5c7.9-3.5-3-9.4-3-14.3l6.4,1l-5.9-4c1.5-1.5,4.5-3,5.9-0.5c2.5-4-3-2.5-0.5-6.4c0.5-0.5,1-0.5,1,0
					l-2.5-3c1.5,0.5,4-1.5,4,0.5c2-7.4-6.9-8.9-3-12.4l0.5,0.5c-4.5-7.9-4.5,0.5-11.9-4c3-2.5,5.9-4.9,8.9-7.9l-4.5,0.5
					c0-1-0.5-3,1.5-3c-4-2-1.5,1.5-4.9,0.5c1-3,0-5.4-1.5-7.9c-1-2.5-2-4.5,1-6.4c-4,0-0.5,4.9-4.9,1.5c6.4-4.5-3.5-4.5-2-9.4
					c4-0.5,4,4,5.4-1.5c-3.5,0.5-4-1.5-4-4c0-2.5,0-4.9-1-6.4c-4.9,2.5-5.9-5.4-10.4-9.4c2-1-4-10.4-5.4-15.8l1-0.5
					c-4.9,2.5-7.4-2.5-10.9-4.9c2.5-2,4-2.5,6.4-1.5c-1-1-1.5-2-2.5-3c-2,0.5-3.5,0-5.4-1.5l3.5-2c-4-3.5-10.4-4.5-12.9-10.9
					c-3,2.5-4,10.9-10.4,8.4c1.5-1.5,3.5-4.5,5.4-4c-0.5,0-2.5,0-3-1.5l4.5-0.5c-1-3-3,1-4.5-1c2-2,0-2.5,2-4c0.5,0,0.5,2.5,2,2
					c-1.5-2-3-5.4-2-7.9c-1,1.5-2.5,3-4.5,2c-4-3.5,1-4,0-6.9c-2,0.5-3.5-3-6.4,0.5c-1-1,0-2.5,0-4c-3.5,0-10.4-6.9-10.4-1.5
					l0.5,0.5h-0.5l0,0l0,0c-2.5-0.5-4.5-1.5-5.9-2.5c-2-1.5-3.5-2.5-4.9-4c-3.5-3-6.4-6.4-10.4-7.9l0.5-1.5c-4.9-1-10.4-4-15.3-3
					c-1.5-0.5-2-4-1-5.4c-4-0.5-4.9,0.5-9.4-3.5c4.5-1-0.5-2.5,4.5-0.5c-4.5-3-4.5-5.4-11.4-3.5c3-3-2-5.9-4.9-5.4l2.5,4
					c-3-0.5-4.9-1.5-6.9-2.5l3-4.5c-4.5-4.5-9.9-3-14.3-2.5c-4.9,1-8.9,1-11.9-4.5c-3.5,3,5.4,3.5,2,6.9c-4.5-1.5-8.4-8.9-9.9-9.4
					c-6.4-3.5-6.9,5.9-13.8,3.5c0.5,2,1,6.4-4,7.9c-4.5-1-5.4-7.9-2-8.9c1,0,1.5,0.5,1.5,1c1.5-0.5,4-1,2-3l-1,1.5
					c-2.5-2-8.9-2-7.4-4.9c-4,1.5-1.5,3,1,4c-5.9-3-9.9-1-16.3-2c1,1,2,3,1,3c-9.4-1.5-4,3.5-10.4,4.5c-4-2.5,1-6.4-5.4-4
					c-4-1.5-1.5-4.5,0-5.9c-1.5,1-3,1.5-4.5,1.5c-1.5,0-2.5,0-4-0.5c-2.5-0.5-4.9-2-6.9-2l3-2c-2,1-3.5,1.5-4.9,1.5l2.5,3
					c-2-0.5-3.5,0-3.5-1.5c-1.5,2.5,2.5,5.4-1,9.4c-2.5-1.5-6.9,3-8.4-1.5c7.9,0-2-4.5,4.5-6.4c-1,1-2.5,1-4.5,0.5
					c-0.5-0.5,0-1,0.5-1.5c-8.4-2.5-2.5,5.9-9.9,7.9c0.5-3-3-4.5-4-3.5c3-0.5,2.5,4,0.5,6.4c-5.4-1-4.5,3-6.9,3h3c0,3-2.5,3-5.4,4.9
					c-1-2,2.5-2.5,1-3c-2,5.4-9.4-1.5-13.4,3c-3-1-2-4.5-4.5-4.9c-4.5,4.9-7.4-1-11.9,4.5c3,2.5,3,1.5,0.5,6.4l7.9-6.4l-4,7.4
					c3-1,4.9-4.9,6.9-4.9c-2,4-1.5,3,0.5,4.9c-5.9-3-5.9,6.4-11.9,4.9l-4-7.9c-4,0-6.9,2-8.9,4.9c-2.5,3-4.9,6.4-9.4,7.9l3.5-0.5
					c0.5,3.5-4.5,3.5-6.4,5.9C142,56,140,56,137.5,55c1.5,1.5-5.9,4-3,9.4l-5.4-0.5c-6.9,3.5-2,11.4-7.4,15.8c-0.5-4-4.5-3-2-8.4
					c-2,1.5-4,2.5-2.5,4.5c-2.5-0.5-2.5,7.4-5.9,6.9c0,1.5,2,4,0,5.4c-0.5,0-1-1-1-1c1,1-1.5,4.5,2.5,4.9c-5.4-0.5-8.9,3.5-12.4,7.4
					c-1.5,2-3,4-4.9,5.4c-1.5,1.5-3.5,2.5-5.9,3c-2.5,4.9-5.4,10.4-7.9,14.3c-0.5-1-1-1-0.5-1.5c-5.9,4,4.9,7.9-1.5,12.9
					c-5.9,1,0-4.5-3-3.5c-4.5-2-5.4,0-5.9,3c-0.5,3-1.5,5.9-4.9,7.4v-1.5c-4.5,2-1,10.4-4.5,15.8c0,0-0.5-0.5-1.5-0.5
					c2.5,5.9,1.5,13.8,0.5,19.8c-3-3-1-3.5-4.9-3.5c-0.5,2.5,5.9,1.5,5.4,6.4c-2.5,1-5.4,4-9.4,3.5c0.5-1.5,1-3.5,1.5-4.9
					c-3,0.5-3.5,2-3.5,4c0,2,1,4,0,4.9l-2-1c-1.5,7.9,4.5,9.4,2,17.3l2-0.5c4.5,5.4-4,3-0.5,8.4l-5.9,0.5c1,3.5,4,11.4,4.5,16.8
					c-4-3.5-5.4-9.9-7.4-14.3c-0.5,3-1,10.4,1.5,12.4c-0.5-1.5-1.5-3-0.5-4c4,4.5,5.9,8.9,5.4,14.8c-5.4-1-6.4,3-7.4,7.4
					c-1,4.5-0.5,9.9-4.9,12.4c2.5,5.4,2,10.9,1.5,16.3c0,5.4-0.5,11.9,1,17.8c7.9-5.9,1,3.5,9.4,1c1,2.5,1.5,4,1,4l-3,9.9
					c-2,2.5-2.5-2-4.5-1.5c1,6.4-3,3.5-4.5,8.4c3-2,4.9,1,4.9,4.9l2.5-6.4c3.5,4,2,5.9,1,8.4s-2.5,4.9,1.5,8.4l-3.5-2
					c1.5,2,3,5.9,5.4,9.9c2,4,5.4,6.9,9.9,7.9c-0.5,1-2.5,3.5-4,1.5c2,5.4,6.4,10.4,10.4,14.8c4.5,4.5,8.4,8.4,8.4,13.4l-2.5,0.5
					c1.5,1.5,5.4,1,4.9,4c-1,0.5-2.5,0.5-2,1.5c1.5,0.5,6.4,2,6.9,4.9l-3.5-0.5c2,5.4,5.9,7.9,9.9,9.4c4.5,1.5,8.9,2.5,12.4,5.4
					c-4.9,4.5-0.5,12.4,2,15.8l-1,0.5c4.5,4.5,9.4,7.4,14.8,9.4c4.9,2,10.9,3.5,16.3,5.9c0.5,2.5,2,4.9,3.5,6.9c2,2,4.5,4,7.4,5.9
					c5.4,4,11.9,7.9,16.3,11.9c-1-2,2.5-4.5,4.9-4c2,2.5,8.9-1,5.9,4.5l-4,5.9c-0.5,5.9,5.4,7.4,9.4,8.9l3.5-6.9
					c3.5,6.9,10.9,9.4,17.8,9.9c6.9,0.5,13.4,1,15.3,6.4c3-1,6.4-0.5,9.4-2l-1,4c4,1,6.4,2,9.9,2.5c3,0.5,6.4,1.5,11.4,1l-2.5,3
					c5.4,0.5,7.9-11.9,12.9-11.9l1,6.4c9.4,1,19.3,5.4,28.2-1c0,1,0,3-1.5,3c4.5,0.5,17.8,2,14.8-5.9c1,5.4,9.9-1,14.3-4.5v4.5
					c3-6.4,3-7.4,7.9-10.4c1.5,0,2,3,0,2.5c4.9,1,2.5-4.5,8.4-4l-1.5,3c4.9-1,4-2,5.4-5.9c2.5-2.5,8.9-2,10.9,1c0-2.5,1-5.9,4-5.9
					c1,1,0.5,2.5,0,3c2,0,4-0.5,4.9-1.5c1.5-1,2.5-2,3.5-3c2-2,3.5-4,6.9-3.5c0.5,1,1.5,1.5,2,2c-5.9,2.5-10.4,4.5-10.4,4
					c1.5,3.5,6.4,2,4.9,8.4c3-4.5,6.4-13.4,11.9-13.8c0.5,0,1,0.5,1,1l-0.5,0.5c1,0,2-1,2.5-2c1.5-0.5,3-0.5,4-1
					c2,2.5,5.9-1.5,8.4-3c-2.5-3.5,1-4.5-3.5-5.9c0.5,0,0,0.5-1.5,1.5c-0.5,0.5-0.5,0.5-0.5,1v-0.5c-1.5,1-3,2-5.4,3.5
					c0.5-3,1.5-5.4,4.9-4.9c-0.5-3-0.5-5.9-0.5-7.4c5.9,3.5,13.4,2.5,16.3,4.5c2.5-3.5,5.9-6.4,8.9-9.9c1.5-1.5,2.5-3.5,3.5-5.4
					c0.5-2,1-4,0.5-6.4c1-2,3.5,0,4.9,0.5c-0.5,1.5-1.5,2.5-1.5,3.5c2-4.5,9.4-9.4,5.9-13.8c5.9-2,1.5,5.9,5.9,0l0.5,2
					c8.4-2.5,9.9-9.9,11.9-16.3c1.5-6.9,3-13.8,12.4-17.3c-1.5,0.5-2,1-3,0.5c2-1.5,3.5-3.5,4.9-5.4c1.5-2,3-4,4-5.9
					c2.5-4.5,4.9-8.4,6.4-12.9c2-4.5,3.5-8.9,5.9-13.4c2.5-4,4.5-8.4,7.9-11.9c3.5-4.5,0-6.4-1-9.9l4.5,0.5c-1-2.5-2.5-4.5-3.5-6.9
					c-1-4.5,2.5-6.9,5.9-9.9c1.5-1.5,3-3,4-4.9c0.5-2,0.5-4.5-1-6.9l-3,0.5c1-3.5,0-11.4,3.5-10.4c-0.5-0.5-3-1.5-1-2.5h2.5
					c-0.5-1.5-1-3-1.5-4.5l-2-4.5c2-6.4,9.4,2,10.4-8.4c-0.5-4-6.4-10.9-7.9-9.4c0,1.5-1.5,4-4,4l-1-3.5c-6.9-0.5-13.8-3-19.3,4.5
					l4,5.4l-3.5,1.5v-4.5c-3.5,2.5-0.5,4,1.5,5.9c-2,0.5-3,1-4,2c2,2,4.5,3.5,6.4,5.4c-3,0.5-4.9-3-6.9,0.5c2.5,2.5,6.4-1.5,7.9,2.5
					c-3.5,2-5.9,1-3.5,4.5c-2,0-3-0.5-3.5-2c1.5,3,0,6.9,3.5,8.9c-2,1-2,3-2.5,4.9c-0.5,2-1.5,3-4.5,2.5c1.5,1,4,5.4,3.5,7.9
					c-6.4-5.9-2.5,8.4-10.4,4.9c5.9,4.9-1,11.4,1,18.3c-0.5-0.5-1.5-1.5-1-2c-1.5,3-4,3-5.9,4c5.4,2.5,4.5,7.4,6.4,11.4
					c-6.9,1-4.9-4.9-10.4-6.4c4.5,2,1.5,7.9,5.4,8.4c-4.5,1-2.5,1.5-7.4,0.5c5.9,4,0,3,2.5,7.4c-5.4,2-6.4-2.5-6.9,2.5
					C426.8,351.2,426.8,346.8,426.8,346.8z M355.6,430.9L355.6,430.9c1-0.5,1.5-1,2-1.5C357.1,429.9,356.6,430.4,355.6,430.9z
					 M347.2,435.3c1-0.5,2.5-1,4-1.5c1,1,1.5,2.5,0.5,3C351.1,435.3,348.7,435.8,347.2,435.3z M379.8,450.6c-1,1.5-2,1-3,0.5
					c0.5-0.5,1.5-1,2.5-2v-0.5C379.3,449.2,379.8,450.1,379.8,450.6z"/>
				<path class="st1" d="M379.3,444.2C379.3,444.2,379.3,443.7,379.3,444.2c0-0.5-0.5-0.5-1-1c0,0.5,0,1,0,1.5
					C378.8,444.7,379.3,444.7,379.3,444.2z"/>
				<path class="st1" d="M391.2,72.3L391.2,72.3L391.2,72.3C391.2,72.8,391.2,72.8,391.2,72.3z"/>
				<polygon class="st1" points="218.6,440.8 218.6,441.7 219.6,440.8 				"/>
				<path class="st1" d="M421.9,120.8c0,0.5-0.5,0.5-0.5,1.5C421.9,121.8,421.9,121.3,421.9,120.8z"/>
				<path class="st1" d="M434.7,140.1l0.5,3.5C435.2,142.1,435.2,141.1,434.7,140.1z"/>
				<path class="st1" d="M442.1,156.4c1,0,1.5-0.5,2-0.5l0,0L442.1,156.4z"/>
				<path class="st1" d="M204.8,61.5C204.8,61.5,204.3,61.5,204.8,61.5C202.8,63,203.8,62.5,204.8,61.5z"/>
				<path class="st1" d="M286.4,44.7c-1,0.5-2,1-3,1.5C284.9,46.6,286.4,47.1,286.4,44.7z"/>
				<path class="st1" d="M130.6,110.4L130.6,110.4L130.6,110.4L130.6,110.4z"/>
				<path class="st1" d="M279.9,46.1c1.5,1,2.5,1,4,0.5C282.4,46.1,280.9,45.6,279.9,46.1z"/>
				<path class="st1" d="M462.4,229.6v1c0.5,0,0.5,0,0.5,0L462.4,229.6z"/>
				<path class="st1" d="M462.9,230.6l0.5,1C463.4,231.1,463.4,230.6,462.9,230.6z"/>
				<path class="st1" d="M464.4,233.1l-1-2C463.4,232.1,463.4,233.1,464.4,233.1z"/>
				<path class="st1" d="M460.4,206.4h-1.5C458.9,206.4,459.4,206.4,460.4,206.4z"/>
				<path class="st1" d="M458,199.4c0,2-2,4.9-0.5,6.9h1C456.5,205.9,460.9,200.4,458,199.4z"/>
				<path class="st1" d="M465.9,164.3c0.5,2,1,4.5,1,6.4c1-1.5,2.5-4,4-1C472.8,159.9,468.3,172.2,465.9,164.3z"/>
				<path class="st1" d="M459.4,145c2,3,2-1,3-1.5C459.9,142.1,459.4,142.1,459.4,145z"/>
				<path class="st1" d="M353.6,47.1l2-3.5C352.6,43.2,355.1,45.2,353.6,47.1z"/>
				<path class="st1" d="M321.5,56c0.5,1,1,2,1.5,3l2-3C324.4,56,323,55.5,321.5,56z"/>
				<polygon class="st1" points="313.1,25.9 314.1,25.4 309.6,25.9 				"/>
				<path class="st1" d="M85.1,105l4,2.5C90,105.5,86.1,102,85.1,105z"/>
				<path class="st1" d="M42.6,203.9c-2.5,0.5-4.5,3.5-2.5,5.4C41.1,206.9,43.1,204.9,42.6,203.9z"/>
				<polygon class="st1" points="182,468.9 179.6,469.4 184,469.4 				"/>
			</g>
			<g>
				<path class="st1" d="M18.8,250.9c1.5,0.5,4,0.5,3.5-1.5l-4.9-1.5L18.8,250.9z"/>
				<path class="st1" d="M28.7,238c-2.5-2.5-6.4-5.4-10.9-4.5c4.5,2.5,2.5,3,7.9,5.9c0.5,2-2,3.5-3.5,3c1,1-1,3,2,4.5
					c4-2.5,4.5-5.4,1.5-9.4C26.8,236.5,27.7,237.5,28.7,238z"/>
				<path class="st1" d="M122.7,82.2h-1.5C122.2,82.7,122.2,82.7,122.7,82.2z"/>
				<path class="st1" d="M229,47.1c-1,0-1,0.5-1,1C229,48.1,229.5,47.6,229,47.1z"/>
				<path class="st1" d="M248.3,52.1c-0.5,0-0.5-0.5-1-0.5C247.8,52.6,248.3,52.6,248.3,52.1z"/>
				<path class="st1" d="M122.7,82.2l3.5-0.5C125.7,80.3,124.2,81.7,122.7,82.2z"/>
				<path class="st1" d="M20.3,209.3c0,0.5,0.5,1.5,1,2c0-0.5,0-1-0.5-2C20.8,209.8,20.3,209.3,20.3,209.3z"/>
				<path class="st1" d="M88.6,118.8L88.6,118.8c-0.5,1,0,1.5,0.5,2.5L88.6,118.8z"/>
				<path class="st1" d="M67.8,150c0.5-0.5-3-3-4.5-4c1,1.5,1.5,2.5,1.5,3C65.3,149.5,66.3,149.5,67.8,150z"/>
				<path class="st1" d="M38.6,203.9l0.5,1C38.6,204.9,38.6,204.4,38.6,203.9z"/>
				<path class="st1" d="M108.3,100c0.5,0.5,1,0.5,1.5,1C109.3,100.5,108.8,100.5,108.3,100z"/>
				<path class="st1" d="M14.9,300.8C15.4,300.8,15.4,300.8,14.9,300.8L14.9,300.8z"/>
				<path class="st1" d="M29.7,250.9L29.7,250.9c1.5,0.5,2,0.5,3,0.5L29.7,250.9z"/>
				<path class="st1" d="M281.4,61L281.4,61C280.4,61.5,280.9,61.5,281.4,61z"/>
				<path class="st1" d="M434.7,292.4c4.5-2.5,3,6.9,8.4,2.5C441.6,294.9,438.7,288.9,434.7,292.4z"/>
				<path class="st1" d="M20.8,208.3c0-0.5,0-1,0-1.5C20.8,207.3,20.8,207.8,20.8,208.3z"/>
				<path class="st1" d="M443.6,294.9L443.6,294.9L443.6,294.9C444.1,294.4,443.6,294.9,443.6,294.9z"/>
				<path class="st1" d="M353.1,88.7c0.5-0.5,0.5-1.5,0.5-2C353.1,87.2,353.1,87.7,353.1,88.7z"/>
				<path class="st1" d="M302.7,58l1,1C303.7,58.5,303.2,58,302.7,58z"/>
				<path class="st1" d="M380.3,103.5c0.5,1,0,1.5,1.5,1.5v-0.5C381.3,105,380.8,104.5,380.3,103.5z"/>
				<path class="st1" d="M402.1,127.2c0-0.5,0-0.5,0.5-1c-0.5,0-0.5-0.5-1-0.5L402.1,127.2z"/>
				<path class="st1" d="M66.3,400.7c0.5-1.5,1-2.5,2-3.5C66.3,399.2,61.4,395.8,66.3,400.7z"/>
				<path class="st1" d="M22.3,209.8c-1-0.5-1.5-1-1.5-1.5c0,0.5,0,1,0,1C21.3,209.8,22.3,209.8,22.3,209.8z"/>
				<path class="st1" d="M404.1,80.3l4,4.5C407,83.7,405.5,81.7,404.1,80.3z"/>
				<path class="st1" d="M306.6,472.9l-1,1C306.1,473.4,306.1,473.4,306.6,472.9z"/>
				<path class="st1" d="M420.4,97.6c-0.5,2-0.5,3,0,4.5c0.5,0,1,0,1.5,0L420.4,97.6z"/>
				<path class="st1" d="M67.8,396.7L67.8,396.7L67.8,396.7z"/>
				<path class="st1" d="M37.6,370.5c3,4.9,5.9-0.5,9.4-1c4.9,4.9-2,4.9-3,8.4c1.5,1.5,4,2,5.9,3c2,0.5,4,1,4.9,2.5
					c-0.5,0.5-0.5,1.5-2,1.5c5.9,1,7.9,10.4,15.3,10.9c0,0.5-0.5,1-0.5,1.5c1.5-2.5,3.5-4.5,5.4-5.4c1.5,1.5,5.4,1,3.5,4
					c-1-1-2-0.5-3.5,0l3,1c-2.5,4.9-3.5-1.5-6.4,1c4.5,2.5,11.9,4,13.4,7.9c-3,4-7.4-5.4-6.9,1.5l-2.5-5.9c-3,8.9-2-3-5.4,5.9
					c4.5,6.9,7.9,4.9,12.4,11.9c3.5-1,2.5-3.5,5.9-4c11.4,3.5-2,15.3,8.9,15.8c4-1,8.4-5.9,10.9,0.5l-4.9,3.5c5.9,4.9,8.4-4,12.4,4
					c-2.5,1-5.9-2-5.4-1c1.5,6.9,4.9-0.5,7.9,2l-2,4.5c4,2,7.9,3,12.4,4.5c4.5,1.5,8.4,3,12.9,4c-1,1-3.5,2-2,4
					c5.9,1.5,11.4,4,16.3,7.4c5.4,3,10.4,6.4,15.3,9.9l5.4-2.5c1,0.5,1,2.5,0,3c4,2.5,1-2.5,3.5-3.5c2.5,0.5,2.5,3.5,0.5,4
					c4.5-1,9.9-1.5,15.3-1c1.5,0,2.5,0.5,4,0.5s2.5,0.5,4,0.5c2.5,0.5,4.5,1.5,6.4,3l-2,1c5.9,2.5,7.9-7.9,13.4-3l-1,0.5
					c6.4,1.5,13.8,1,20.3,1.5c1.5,0,3.5,0.5,4.9,0.5s3,0,4.5,0.5c3,0.5,5.9,1.5,8.4,3c1-3,4-2.5,7.4-2.5c3.5,0.5,6.4-0.5,5.9-4.5
					c7.9,3,5.9,4.9,17.3,6.4c3,0,3-6.4,6.4-7.9l1,4.5l3.5-5.9l4,4.5l3-2c-1.5,0-3.5-1.5-3.5-2.5c2.5-1.5,5.4-1.5,8.4-1
					c3,0.5,5.4,1.5,5.4,2.5l10.4-7.9c0.5,2-1.5,3-2.5,4.9c4.5-6.9,3,4,6.9-2c-1-0.5-0.5-2.5-1-3.5c4,1.5,10.4-1.5,14.3-4.9l0.5,3.5
					c8.9-3,16.8-10.9,25.7-16.3c-4,1-6.4-4.5-4-6.4l3.5,3.5c0-3.5-3.5,0-2.5-4.9c3.5-1.5,5.4,3,4.5,5.4l3-4c1,1,0.5,2.5,1.5,4
					c0-3.5,9.4-1,8.9-6.9l1,1c2-1.5,4-3,5.4-4.5c1.5-1.5,2.5-3,4-4.5c2.5-3,4.5-5.4,7.4-8.4c-3-3,0.5-4.9,0-8.9
					c4.9-3.5,12.4-6.4,16.8-12.4c2-5.4-2-3.5-2-6.9c3,2,7.4-4,7.4,0.5c2.5-4,4-6.4,5.4-8.9c1-1.5,1.5-3,2.5-4.9c0.5-2,1.5-4,2-6.9
					c-2,0-3.5,1-4-0.5c0.5-2,4-3,4.9-2v0.5c1-6.9,6.9-11.4,12.4-16.8c2.5-2.5,5.4-5.4,6.9-7.9c1-1.5,1.5-3,2-4.5c0-1.5,0-3-0.5-4.5
					v0.5v-11.4c2.5-4.5,1.5,3.5,4.9,1c-0.5-3.5-0.5-5.9,0-7.9c0.5-2.5,1-4.5,2-6.4c1.5-4,3.5-7.9,2.5-12.9c6.4-2.5,6.9-8.9,7.4-15.8
					c0-3.5,0.5-6.9,0.5-10.4c0-3.5,1-6.4,3-8.4l-2.5,0.5c-2.5-2.5,1.5-3,2.5-4.9c-2,0-2.5,2.5-4,1c-0.5-10.9-0.5-21.8,0.5-33.1
					c0.5-5.4,0.5-11.4,0.5-17.3c0-3,0-5.9,0-8.9c-0.5-3-0.5-5.4-1-8.4c-1.5-8.4-14.3-1-10.9-12.4l5.4,1.5
					c-4.9-6.9-8.4-14.8-10.9-22.7c-3.5-7.4-6.9-15.3-12.4-21.3c1.5,0.5,3-0.5,3.5,1c1.5-4.9-6.4-10.9-8.9-9.4c-1-2.5,2-2,2.5-4
					c0-4-8.4-4.9-6.4-8.4c0.5-0.5,1.5,0,2,0.5c-2.5-1-5.9-8.4-7.9-4.5c-2-5.9-7.9-7.9-9.4-13.4c-5.4,0.5-5.4-8.9-10.9-5.4
					c5.4-4-3-11.9-8.4-11.9c2.5-0.5-1-4,2-4.9c-3.5-3-6.9-4.5-8.9-1.5c-0.5-5.4-4.5-7.4-7.9-8.4c-3.5-1-6.9-2-5.4-7.4
					c-3-1-5.9-2.5-8.9-3.5c-3-1-5.9-2-8.9-3c-3-1-5.4-2-8.4-3l-4-1.5l-4-1.5c1.5-3,4.9-2,7.4-0.5c2.5,1.5,5.4,2.5,6.9-0.5
					c-2.5-1-5.4-1.5-7.4-2c-2.5,0-4.9-0.5-6.9-0.5c-4.5-0.5-8.9-1.5-13.4-4.5c-2-2,2.5-2,4-2.5c-5.4-1.5-10.4-3-15.3-4.9
					c-2.5-1-4.9-2-6.9-2.5c-2.5-0.5-4.9-1-7.4-0.5c0-0.5,1.5-1,2.5-1c-2-0.5-4-2-4.5,1l2-0.5c1.5,4.9-9.9,6.9-10.4,9.4
					c5.4-7.9-8.4-4.5-1-13.8c-1.5,0.5-3,1.5-3.5,3.5c-1.5-1-2-2.5,0.5-4c-3.5,0-4.9,1-5.9,2c-1,1-2.5,1.5-5.4,1
					c0.5-1.5,1.5-2,2.5-3.5c-3.5,2.5-6.9,4.9-11.9,3c0.5-1,0-2,1.5-2c-8.9-1-15.3,6.4-24.7,3c3-6.4-3-2.5-3.5-7.9
					c-2,0.5-3.5,1-5.4,1.5l2,2.5c-4.5,0-8.4,4.5-12.4,3l3.5-2.5l-8.4,1.5l4.9,2c-4.5,3,1,6.9-4.9,5.9c1-0.5-4.5,0-6.9-2.5l0,0
					c-2,2-4,4.5-7.4,3.5c-1-1.5,0-5.9-1-7.4c-1.5,4.9-10.4,3-11.9,8.4c0.5-1.5,0-4.5-0.5-4.9l-1,4c-2.5-0.5-2.5-1-3-3.5
					c-6.4,1,3.5,6.4-4.5,5.4c0.5-0.5,0-1,1-2c-4,0-6.9,1.5-10.4,3c-3.5,1.5-6.4,3.5-9.9,3.5c-4-4.5,5.4-3.5,1.5-6.9
					c-4.5,2-8.9,5.4-13.4,8.4c-4.5,3-7.9,6.4-12.9,7.9h2c2.5,7.4-7.9-0.5-10.9,4.9c0.5-1-0.5-4.5-0.5-3.5
					c-6.4,2.5-10.9,8.4-17.3,15.8v-2.5c-4,1-8.9,5.4-12.9,6.9c0,2.5-2,3.5,1,4.9c-2,0-4,0-5.9,0.5c-1.5,0.5-3,1.5-4,2.5
					c-2.5,2-4,4.5-5.4,7.4c-1.5,2.5-3,4.9-4.9,7.4c-2,2-4.5,4-7.9,4.5c1-1,1-3.5,0-3l-4.9,8.4c3,1.5,2.5,0.5,5.9,0.5
					c0.5,2.5,0,5.4-1.5,6.9c1-4.5-4.5-3.5-6.9-3.5c1,0.5,1.5,1.5,2.5,2c-7.9,0,4.9,4.9-2.5,7.9l-1-1.5c-1,2.5-0.5,5.9-2.5,7.9
					c-4-1.5,0-3.5-2.5-5.4c-2,3.5,1.5,10.4-3.5,10.9c0-2,1-4,1-5.9c-5.9,0.5-5.4,1.5-7.4,3.5l0,0l-5.4,4.5l2-1c3,4.9,2.5,6.9,1,9.4
					c-0.5,1-1.5,2.5-2,3.5c-0.5,1.5-0.5,3,0.5,5.4c-3-8.4-3-2.5-6.4-4.9c-2,1-4.5,2.5-4.9,1.5c2,4.5-4.9,3.5-2,9.9
					c-1.5-0.5-1.5,3-4.5,1c-1,4.5,3,0,4.5,1c1,4-1.5,6.9-4.5,9.9c-2.5,3.5-4.9,7.4-3.5,12.4c0.5,8.4,4.9,10.9,5.4,18.3
					c-3,2-4.5-3-4.5-3c-3,3.5-3.5,5.9-2.5,9.9c-1-1-2.5-0.5-4,0.5c0,3,4.9,3,2,6.4c-1.5-1-4-2-5.4-4c1,4,3,7.4,3.5,11.4
					c-2.5,0.5-3.5-2.5-4.9-4c0.5,4.5,0.5,10.9,4.9,12.4l1.5-2.5c0,1.5-3.5,0.5-4-1c-2.5-4,2-4.9,3.5-4.9l0.5,2.5
					c8.9-1.5,0-9.9,1.5-15.3l5.9,3l-4.5-5.9c2-1,5.4-1,5.9,2c3.5-3-1.5-3.5,2.5-5.9c0.5,0,1,0,1,0.5l-1-4c1,1,4.5,0.5,3,2.5
					c4.9-4.9-2-10.9,3-11.9v0.5c0.5-8.9-4-2-6.9-9.9c4,0,7.9-0.5,11.9-0.5l-4-2.5c0.5-1,1.5-2.5,3-1.5c-2-4-2,0-4-3
					c2.5-1.5,3-4.5,4-6.4c1-2.5,2-4,5.9-3c-2.5-3-4,2.5-4.5-2.5c7.4,2,1-5.4,5.9-7.4c3,3-0.5,4.9,4.5,3.5c-2.5-2.5-1.5-4,0.5-5.4
					c2-1.5,4.5-2,4.9-4c-4.5-3,1.5-6.9,3-12.9c1,1,8.4-6.9,12.9-9.4l0.5,0.5c-3.5-4,0-7.9,2-11.4c2.5,2.5,3,3.5,2.5,5.9
					c0.5-1,1.5-2,2.5-2.5c-1-2-0.5-3,0.5-5.4l2.5,3.5c3-3.5,2.5-10.4,8.9-12.9c-2.5-3-11.4-4-7.9-10.4c1.5,1.5,4.5,3.5,3.5,5.4
					c0-0.5,0.5-2.5,2-2.5l0.5,4.5c3-1-1-3,1-4.5c2,2,2.5,0.5,4,2.5c0,0.5-2.5,0.5-2,2c2-1.5,5.4-2,7.9-1c-1.5-1-2.5-3-1.5-4.5
					c3.5-3.5,3.5,1.5,6.4,1c-0.5-2.5,3-2.5,0.5-5.9c1-1,2.5,0.5,4,1.5c0.5-3,8.9-6.9,4-9.4h-0.5c0,0,0,0,0-0.5l0,0l0,0
					c1-2,2.5-3.5,4-4.9c1.5-1,4-2,5.9-2.5c4-1.5,8.4-2.5,11.4-5.4l0.5,1.5c3.5-4,8.9-5.4,10.9-9.9c1.5-0.5,4,1,4.5,3
					c3-2.5,2.5-4.5,8.4-4c-2.5,3.5,2,1.5-3,3c4.9-0.5,6.4,1.5,9.9-4c-0.5,4,4.9,3.5,6.4,1.5l-4-1.5c2-1.5,4.5-2,6.4-2.5L182,60
					c5.4,1.5,8.4-2,11.9-4.9c3.5-3,6.4-5.4,10.9-1c2-4-5.4-1.5-4-5.9c4.5,0,10.4,6.4,11.4,5.9c5.9,2,4.5-8.4,10.9-6.9
					c-1-1.5-2.5-6.4,2.5-8.4c4.5,0.5,5.9,6.9,3.5,8.4c-1,0-1.5-0.5-1.5-1c-1.5,0.5-3,1.5-1.5,3.5l0.5-2c2.5,1.5,8.4,1,6.9,4
					c3-2,1.5-3-1-4c5.4,2.5,8.4-0.5,14.3,1.5c-1-1-1.5-3-1-3c8.4,2.5,4-3,9.9-3.5c3,3-1.5,6.4,4.5,4.5c3.5,2,0.5,4.5-1,5.9
					c1.5-1,2.5-1,4-1c1,0,2,1,3,1.5c2,1.5,3.5,3,4.9,4l-3,1c1.5-0.5,3-0.5,4.5,0l-1-4c1.5,1,3,1,2.5,2.5c2-2-0.5-5.9,3.5-8.4
					c2,2,6.9-1,6.4,4c-6.4-3,0,4.5-5.9,4.5c1-0.5,2.5,0,4,0.5c0,0.5-0.5,1-1,1c4.9,5.4,4-4.5,10.4-3c-1.5,2.5,0,5.4,1.5,4.9
					c-2.5-0.5,0-4.5,3-5.9c3.5,3,4.9-0.5,6.9,0.5l-2-1.5c1.5-2.5,3.5-1.5,6.9-1c-0.5,2-3,0.5-2.5,1.5c4.5-3,5.4,6.9,10.9,5.9
					c1.5,2.5-1.5,4.5-0.5,6.4c5.9-1.5,3.5,5.4,9.4,4.9c0-4-0.5-3.5,4.5-4.5l-8.9-1.5l7.4-2c-2.5-1-5.9-0.5-7.4-1.5c3.5-1.5,3-1,3-4
					c1.5,6.4,7.9,0.5,10.4,5.4l-4,7.9c2,3,4.9,3,8.4,3.5c3.5,0.5,6.9,1,9.9,4l-1.5-2.5c3-2.5,4.5,2.5,7.9,2.5c-2,2.5-1,4-1,6.4
					c1-2,4.5,4,8.9-0.5l0.5,5.4c4.5,5.4,11.4-2,15.8,3.5c-3.5,1-3,4.5-7.4,3.5c1.5,1.5,2.5,3,4,1.5c-0.5,2,6.9,1,6.9,4.5
					c1.5-0.5,4-2.5,5.4-0.5c0,0.5-1,1-1,1c1-1,4,1.5,4.9-2.5c-1,5.9,2.5,8.9,5.9,12.4c1.5,1.5,3.5,3,4.5,4.9c1,2,1.5,4,1,6.4
					c3.5,3.5,7.9,7.4,10.4,10.9c-1,0.5-1,1-1.5,0c1,6.4,8.9-1.5,9.9,6.4c-2,5.4-4-2-4.5,1c-4,3-2.5,4.5-0.5,5.9s4.9,3.5,3.5,6.9
					l-1-0.5c-1.5,4.5,6.9,5.9,8.9,11.4c0,0-1,0-1.5,0.5c6.4,1.5,10.4,7.9,13.4,12.9c-4-0.5-3-1.5-5.9,0.5c1.5,2,5.4-3,8.4,1.5
					c-1.5,2.5-2,5.9-5.9,7.9c-0.5-1.5-1-3-1.5-4.5c-2,2-1.5,3.5-0.5,4.5c1,1.5,2.5,2.5,2.5,4l-2.5,0.5c2.5,6.4,7.9,5.4,9.9,12.9
					l1.5-1c6.4,3-2.5,4,2.5,7.4l-5.4,2.5c1.5,2.5,7.4,8.9,8.9,13.8c-4.5-2.5-7.9-7.9-10.9-10.9c0.5,2.5,2,8.9,4.9,9.9
					c-0.5-1-2.5-2.5-1.5-3.5c5.4,3,7.4,6.9,7.9,12.9c-5.9,0-6.4,3.5-6.4,7.4s-0.5,8.9-4.9,10.9c2,4.9,1.5,9.4,0,14.3
					c-1.5,4.9-4,9.4-4,14.8c9.4-2.5,0,3,8.9,4.5c0,3-0.5,3.5-1,4l-7.4,6.4c-3,1-1.5-3-3.5-3c-2,4.9-4.5,1.5-7.4,4c3.5,0,4,3,2,5.9
					l4.9-3c1.5,4.5-1,5.4-3.5,6.4c-2.5,1-4.9,2-4,6.4l-2-3.5c0,2-1,5.4-1.5,9.4c-0.5,4-1,7.4,1.5,10.9c-1.5,0-4,0-4-2
					c-2.5,4-3,9.9-4,14.8c-1.5,4.9-3,9.9-6.9,11.9l-1.5-2c-0.5,2,2,4.9-1.5,5.4c-0.5-0.5-1.5-2-2-1.5c0,1,0.5,5.9-2,7.4l-1-3
					c-4,3-4.9,6.4-5.4,10.9c-0.5,4-1,7.9-3,11.4c-4.9-4.5-10.9-0.5-14.3,1.5l-0.5-1c-4.5,3.5-6.4,7.4-8.9,11.9
					c-2,4.5-4.5,8.4-7.9,12.9c-2.5-0.5-4.5,0-6.9,1c-2.5,1-4.9,2-7.4,3.5c-4.9,2.5-10.4,6.4-15.8,6.4c2,0.5,2,4.5,1,5.9
					c-2.5,0-4,6.9-6.4,1.5l1-0.5c-4-4.5-7.4-1-11.4,0l2.5,7.4c-6.9-3.5-12.4,0-17.8,2.5s-10.4,5.4-14.3,1c-2,2.5-4.9,3-6.9,5.4
					l-0.5-4c-3.5,0-5.9,0-8.4,0s-5.4,1-9.4,1.5l1.5-3c-4.5,0-4.9,12.4-9.4,12.9l-1.5-6.4c-8.4,1-15.8-5.4-24.2,0c0-1,0.5-2.5,2-3
					c-4,0-13.8-5.9-13.8,3c0.5-5.4-7.9-1.5-12.9,0l1.5-4c-4.5,4.5-4.9,5.4-10.9,5.9c-1-1,0-3.5,1-2c-3.5-3-4,3-8.4-0.5l2.5-2
					c-4-1.5-4,0-7.4,2.5c-3,0.5-7.4-4-6.9-7.4c-1.5,2-4.5,4-6.4,2c0-1.5,1.5-2,2-2c-1.5-1.5-3-2-4.5-2c-1.5-0.5-3-0.5-4-0.5
					c-2.5,0-4.9,0-6.4-3c0.5-1.5,0.5-2,0.5-2.5c4.9,2.5,8.9,4.9,8.4,4.9c1.5-3.5-2-5.9,3-9.4c-4.5,1-12.4,4-15.8,0.5
					c0-0.5,0-1,0-1.5h0.5c-0.5-1-1.5-1-3-0.5c-1-1.5-1.5-2-2.5-3c1-3-3.5-4-5.4-5.4c-2,3.5-4.5,1.5-3.5,5.9c0-0.5,0.5,0,2,0.5
					c0.5,0,0.5,0,1,0c0,0,0,0-0.5,0c1.5,0.5,3,1.5,4.9,2.5c-2.5,1-4.9,1.5-5.9-2c-2.5,1.5-4.9,3.5-6.4,4c0.5-6.4-3-12.4-1.5-15.8
					c-3.5-1-6.9-3-10.4-4.5c-2-0.5-4-1-5.4-1.5c-2-0.5-4,0-5.9,0.5c-2-0.5,0-3.5,0-4.5c1.5,0,2.5,1,3.5,1c-4.5-1-9.4-7.4-13.8-4
					c-2-5.4,5.4-1.5,0-5.9l2-0.5c-1.5-7.9-7.4-9.4-13.8-11.9c-5.9-2.5-11.9-5.9-11.9-14.8c0,1,0,2-0.5,2.5c-1-2-1.5-4-2.5-5.9
					s-2-4-3.5-5.9c-2.5-4-5.4-6.9-7.4-10.9c-2.5-4-4.5-7.9-5.9-11.9c-2-4-2-8.9-2-13.4c0-4.9-3.5-4.5-7.4-6.4l4-2.5
					c-2-1-4-2.5-6.4-3.5c-3-3-1-6.9,0.5-10.4c0.5-2,1.5-4,1-5.4c0-2-0.5-4-3-5.9l-3,1.5c0-3.5-3.5-9.9,0-9.9c-0.5-0.5-3.5-0.5-2-2
					l2.5-0.5c-1-1.5-2-2.5-2.5-4l-2-4c1.5-6.4,9.4,0,9.4-8.9c-1-3-7.4-9.4-8.9-7.9c0,1.5-1.5,3.5-3.5,3.5l-1.5-3
					c-6.9-0.5-14.3-3.5-18.8,5.4l4.5,5.9l-3.5,2l-0.5-4.9c-3,3,0,4.5,2,6.4c-2,0.5-3,1.5-3.5,3c2.5,2,4.5,3.5,6.9,5.4
					c-2.5,1-5.4-2-6.4,2c3.5,2.5,5.4-3,8.4,1c-2.5,3-5.4,2.5-2,5.4c-1.5,0.5-3,0-4-1c2.5,2.5,2,7.9,5.9,8.4c-1.5,2-1,4.5-1,6.4
					c0.5,2,0.5,4-3,4.5c2,0.5,6.4,4,7.4,6.4c-8.9-3,2,9.9-6.4,10.9c7.4,1.5,7.4,11.9,13.4,16.8c-0.5,0-2-0.5-2-1
					c0.5,3.5-1,5.4-1.5,8.4c5.4-2,9.4,3,13.8,4c-3,6.4-7.4,0.5-11.9,4c4-2,7.9,4.9,10.4,2c-1.5,4.5,0,3.5-4,7.4
					c6.9-3,2.5,2.5,7.9,2.5c-0.5,5.9-5.4,4.5-0.5,7.9C42.6,373.5,37.6,370.5,37.6,370.5z M139.5,450.6L139.5,450.6
					c-1-0.5-2-0.5-2.5-1C137.5,450.1,138,450.1,139.5,450.6z M149.4,455.1c-1-0.5-2.5-1.5-4-2c0.5-1.5,1.5-2.5,2-2
					C146.4,451.6,148.4,453.6,149.4,455.1z M143.9,420c1.5,0.5,1.5,1,1.5,2c-0.5-0.5-1.5-0.5-2.5-1c0,0-0.5,0-0.5,0.5
					C143,421,143.5,420.5,143.9,420z"/>
				<path class="st1" d="M138.5,423.4L138.5,423.4c-0.5,0.5-0.5,1,0,1.5c0.5-0.5,1-0.5,1-1C139,423.4,139,423.4,138.5,423.4z"/>
				<path class="st1" d="M121.2,82.7L121.2,82.7L121.2,82.7C121.2,82.2,121.2,82.7,121.2,82.7z"/>
				<polygon class="st1" points="295.3,477.8 294.8,476.9 294.3,477.8 				"/>
				<path class="st1" d="M70.8,110.9c-0.5,0-1,0-1.5,0C69.8,110.9,70.3,110.9,70.8,110.9z"/>
				<path class="st1" d="M55.4,130.7l-3,2.5C53.5,131.7,54.4,131.2,55.4,130.7z"/>
				<path class="st1" d="M43.6,146.5c0.5,0.5,1,1,1.5,1l0,0L43.6,146.5z"/>
				<path class="st1" d="M309.6,30.8c0.5,0,0.5,0,1,0C312.6,30.8,311.1,30.8,309.6,30.8z"/>
				<path class="st1" d="M217.1,32.3c1-1,1.5-2,2.5-2.5C218.6,29.8,217.1,29.8,217.1,32.3z"/>
				<path class="st1" d="M403.6,79.8C403.6,80.3,403.6,80.3,403.6,79.8L403.6,79.8L403.6,79.8z"/>
				<path class="st1" d="M224.1,29.8c-1.5-0.5-3-0.5-4.5,0C221.6,30.3,223.1,30.3,224.1,29.8z"/>
				<path class="st1" d="M17.4,226.6l-0.5,1c0.5,0,0.5,0,0.5,0V226.6z"/>
				<path class="st1" d="M17.4,228.1l0.5,1C17.9,228.6,17.9,228.1,17.4,228.1z"/>
				<path class="st1" d="M18.8,231.1l-1-2.5C17.9,229.6,17.9,230.6,18.8,231.1z"/>
				<path class="st1" d="M23.3,201.4l-1.5-0.5C22.3,200.9,22.8,201.4,23.3,201.4z"/>
				<path class="st1" d="M24.8,193.5c-1,1.5-4.5,4-4,6.4l1,0.5C20.3,198.9,26.8,196,24.8,193.5z"/>
				<path class="st1" d="M52.5,169.8c-1,1.5-2,3.5-3.5,5.4c2-0.5,4.5-1,4,2C59.9,171.7,49,177.2,52.5,169.8z"/>
				<path class="st1" d="M62.8,153.9c-0.5,3.5,2,1,3,1.5C65.3,153.4,65.3,152.5,62.8,153.9z"/>
				<path class="st1" d="M159.3,64.4l1.5,3.5C162.7,66.4,160.3,66.4,159.3,64.4z"/>
				<path class="st1" d="M177.6,36.7c-1-0.5-2-1-3.5-1.5v4C175.6,38.2,176.6,37.2,177.6,36.7z"/>
				<polygon class="st1" points="199.8,59 198.8,59.5 202.3,57 				"/>
				<path class="st1" d="M396.1,125.3l3-3.5C397.6,120.8,393.2,123.8,396.1,125.3z"/>
				<path class="st1" d="M441.1,208.3c-2,1.5-3,4.5-0.5,5.4C440.6,211.8,442.1,209.3,441.1,208.3z"/>
				<polygon class="st1" points="310.6,434.3 311.6,431.9 308.6,434.3 				"/>
			</g>
			<g>
				<path class="st1" d="M325.4,152.5c0.5,4,2-2,1,2.5C325.4,154.4,324.4,153.9,325.4,152.5z"/>
				<path class="st1" d="M317,152c-5.9,2.5-12.9,2.5-20.3,2c-3.5,0-7.4,0-10.9,2s-4.9,5.4-4,8.9c0,1.5-3-1.5-2.5,2.5
					c0.5,0.5,0.5,1.5,1,2c1.5,6.4,2,12.9,1.5,20.8c4,0.5,7.9,1,12.4,1.5c4.5,0.5,8.4,1.5,12.4,2.5l-1,1c1.5,0.5,3-0.5,4.9-1
					c1-0.5,1.5-0.5,2.5-1c0.5,0,1.5-0.5,2,0c0,0.5-1,1-0.5,1.5c1-2,4.9-1,6.4-2c0.5,0.5-0.5,2,0.5,3c1-0.5,2-1.5,3-2
					c1-0.5,2.5-1,3.5-1.5c1,1.5,0.5,4.5,0,7.4c-0.5,3-0.5,5.4,0.5,8.4c-0.5-0.5-1-1-1.5-0.5c1.5,5.4,2,11.9,2.5,17.8
					c0.5,6.4,0.5,12.4,1,19.8c-0.5-1-2-1.5-3-1c2,1,2.5,5.4,3,9.9c-1,0-0.5,1-0.5,3c-1.5,0.5-3.5,2-6.4,1v-0.5c-1,1-2.5,1-4,0.5
					c-1.5-0.5-2.5-0.5-3.5,1c-1-0.5-1.5-1-2.5-1.5c-1.5,3-4.5-1.5-6.4,0v0.5c-2,1-3.5-1-5.4-0.5v-0.5c-4.9,1-7.4-1-7.4,1.5
					c-1-1,0-1,1-1.5c1-0.5,2-1,0.5-2c-5.9,1-10.9,1.5-15.8,1.5c0.5,4.9,0.5,9.4,0.5,14.3s0,10.4,0,15.3c-1,2-1.5,3-2,3.5
					c0.5,1.5,0.5,5.9,1.5,7.4c0-0.5-1,1-1.5,2c-1,3,2.5,3,1.5,6.4c-0.5-1.5-1.5-1.5-2.5-1.5c2,3,1.5,6.4,2,9.4
					c-0.5-0.5-0.5-1.5-1.5-1c2,3.5-0.5,6.4,1,9.4l-1.5-1c-1.5,4.9,3,1.5,2,5.9c-0.5-1-1-0.5-1.5-1c2.5,4,1.5,10.4,2.5,14.3h-0.5
					c0.5,4.5-0.5,8.9,0.5,13.8c-0.5,2-3.5-0.5-3,4c3,0,1,7.9,4.5,4.9c-0.5,4-1.5,10.4-0.5,12.9c-1-2-3.5,2-3.5-1.5l-1.5,2.5
					c-1-0.5,0.5-2.5-1-2c0,1.5,1,6.4,1,7.9c1.5,3,4.9,5.9,4.9,10.9c-1-2.5-3,1.5-3.5-0.5c1,1,2,2,2.5,3.5c1,1.5,2,3,2.5,4.5
					c0,2-2,0-1.5,3c0.5,0,1,1.5,2,3c-0.5,0.5,0.5,9.9-2,7.9c-1-0.5-0.5-3.5-1.5-2.5c0,0.5,0,1,0,1.5c-2,0-2,1-4.9,1l-0.5-0.5
					c-2.5-0.5-6.4,1-3,2.5c2,0-1.5-1.5,1.5-1c-1,1.5-5.4,2-9.9,2c1.5-0.5,1-1,1.5-2c-2.5,1-4.5,2-6.9,2.5c-2,0.5-4.5,1-6.4,1.5
					c0,1.5,1.5-2.5,2.5-1.5c-5.9-2-11.9,2.5-16.8,0c1,0,0.5,2,0.5,1.5c-3,0-2.5-2-4.5-1.5c0-1-2.5,0.5-4,0.5c-1,1-0.5-0.5,1-0.5
					c-1.5,0.5-4.5,1-8.4,1.5c-5.4,0.5-11.9,0.5-15.8-0.5c0,0.5-7.4,2.5-9.9,2.5l2.5-1.5c0,0-0.5,0-0.5-0.5c0.5-2.5-0.5-5.9,1-6.9
					c-1-1.5-0.5,3,0,6.4c4.5-0.5,7.9-1,4.5,0c0-0.5-2.5,0-4.9,0.5c-0.5-1-1-2,0-2.5c0-4-2-6.9-0.5-11.4c-0.5,1.5,2.5,2,2.5-1
					c-0.5-4.9-1-1-1.5-5.4l-0.5-3c-1.5,0,0-3.5-1.5-2c1.5-0.5-1-5.9,2-5.4l2,0.5c0-1.5-2.5-3-3.5-4c0,0,0.5-0.5,1-0.5
					c-3.5-0.5,0.5-4-2.5-5.9c1-3.5,0-8.9,2-10.9c-1-3-2-5.4-1.5-8.4c0.5,0.5,0.5,1.5,1,1.5c1-2,0-2.5-0.5-4.5c0.5,0.5,2-4,3-5.9
					c-1-3-3-2-4-2c3.5-2.5-2-7.9,1-10.9c0.5,1,1.5,4,2.5,1.5c3.5-2.5-2.5-4.9-1-8.9l-2.5,1c1.5-2-1.5-5.9,1-5.4c-1-1.5,1-4.9-2-4.5
					c2.5-6.4-1.5-16.3,3.5-20.3c-0.5-1,0-3.5-1.5-3c-1.5,1.5,1,2,0,3c0-1-1-1-1-1c0.5-2,1-3.5,3-2c1.5-4.5-4.5-4.9-3.5-10.4
					c1,0.5,1.5,0,1.5-2l-2-3.5c0.5-4,2.5-2,4.5-2.5c-0.5-2,0-4.5-1.5-5.4l2.5-2.5c-1.5,2-1-1.5-1.5-2.5l0.5,1c0.5,0,0.5-1,0.5-1.5
					c0-0.5,0-1-0.5-1.5c-0.5,0-1,0.5-1.5,1c-0.5,0.5-0.5,1.5-0.5,2.5c-0.5-0.5-0.5-1-0.5-2c0-0.5-0.5-0.5-1-1c2,0,1.5-2,1.5-3
					c0.5-1-1.5,0-1.5-0.5c1-0.5,0-1.5,1.5-1.5c0.5,0-1,1.5,0,1.5c0.5-1,2.5-2,1-3c-1-0.5-3.5,3-2.5,0.5c0.5,0,1-0.5,2-0.5l0.5-2l0,0
					l-1.5,1.5c0-0.5,0.5-0.5,0.5-1c-2,2-3,0.5-4.5,2.5c-0.5,0-1-1-2-1.5l0,0c-0.5-0.5-1-0.5-1.5-0.5h-0.5c-0.5,0-0.5,0-1,0.5
					c-0.5,0-1,0.5-1.5,0.5v-0.5c-1,0-3.5,0-4.9,1c-4.5-1.5-1-6.4-5.4-4c-3.5,0-7.4,3-6.4,4c-4.5-0.5-9.4,0-14.3,0
					c0-3.5,0-7.4,1-10.9c-0.5-0.5-1,0-1.5-2c0-3,0-5.9,0-9.4c0-2.5,0-4.9-0.5-6.9c0-3.5,0-7.4,1.5-9.9c0.5,2,1.5,0,2.5,0
					c-1.5-2,1.5-2-1-3c-1.5,0-2,0-3,2c-1-4.5-1-10.9,0.5-13.4c-0.5,1-1,0.5-1.5-0.5c0.5,0,1,0,1.5-0.5c0.5-0.5,0.5-1,0.5-2
					c0.5-1.5,0-4-0.5-5.9l-1.5-1c0.5-0.5,1-1.5,1.5-2c-0.5-1.5-3-3-1.5-6.4c0.5,0,1,0.5,1.5,0c-0.5-2.5-1.5-6.4-2-9.9
					c2-0.5,4.5-0.5,6.9,0c2,0.5,3.5,1.5,4.9,2c1.5,0,4.5-1.5,0.5-2c4,0.5,7.4,1,9.9,1.5c2.5,0.5,4.5,1,5.4,2c1.5-1,3.5-1.5,5.4-2.5
					c1-0.5,2-0.5,3-1l1-0.5c1-0.5,2-1,3-1c0-0.5,0-0.5,0-1l1,1c1,0-2-1.5-1-1.5c1,1,2.5,0.5,3.5,2c1-1.5-2-3-2.5-3.5
					c-1.5-0.5,1,0.5-1,0.5c-0.5,0,0-0.5,0-0.5c0-1,0-2.5-1-2.5c1-1,2.5,0,3.5,0.5l-1-2c2.5-2.5,4.5,5.9,7.4,3.5l-0.5-2
					c2.5-2,2.5,5.4,3.5,0.5c-1-2-4-4-4.9-2c-0.5-4.5-4.9-2-4.9-6.9c1.5-1.5,0.5,4,2,3c2-2.5-1-4.5-0.5-6.9c-1,2.5-3,0.5-3.5-1
					c1-2.5,2,1.5,2.5-2c-1.5-0.5-2-4-3-1c-3-1.5,1-4-1.5-5.4c2-1,4.5,3.5,5.4-0.5c-2,1-2.5-5.9-5.4-3.5c0.5-2,2-2,3.5-0.5
					c1.5-2.5-3-6.9,1-6.9l-2-1c1-0.5,1.5-2,3-3c0.5-1,0-3,0-4.9c0.5-1.5,1-3,2-2c0-1,2-5.9-0.5-4.5c-2.5,3,0,4.5-3.5,4.9
					c3-1.5,1.5-4.9,1.5-6.9h1c0-1.5,2-3.5,1-4.9c0,1,1,1,2,0.5l-1-2c2-4.9,3,0.5,5.4-3.5l-1,3.5c0-1,2.5-1,3.5-3
					c-0.5-1.5-1-4.5-1.5-5.4c1.5-2.5,2,0.5,3-2.5l-1,4c0,0.5,3.5,0,5.9-2c1.5-2,2.5-5.9-0.5-4c1.5-1,4-2,3.5,0c3-3-1.5-1,1-4
					c2,0,6.4-1,9.4-0.5c-0.5,1.5-1,2.5-1.5,4c0.5-0.5,1.5-1,2-1c-1.5,3,2,1,1.5,3.5c1.5-0.5,2.5-2,3.5-3c-2.5-0.5-2-2.5-1-4
					c1-1.5,2.5-3.5,1-4.9c3-1.5,4.5,0,5.9,1c1.5,1,2.5,1.5,4.9-1.5c-1-0.5,1-4-2.5-2c4-0.5,1.5-4,6.4-3.5c-3,2,4,2.5,0,5.4
					c0-1-3,0-3.5,0.5c2,1,0.5,3,4,2.5c2-1,4.9-1.5,4.5-3c-0.5-2-3.5,1-2.5-1.5c1-0.5,2-0.5,3-0.5c1,0,2,0,2.5,0c0.5,0,0.5,0,1,0h0.5
					c0.5,0,0.5-0.5,1-1.5c-0.5,0-1,0-1.5,0c-0.5,0-1.5-0.5-1.5-0.5c-1-0.5-1-1.5-1.5-2c1-0.5,2-0.5,3-0.5l1.5-0.5l-0.5,1.5
					c4.9,1,1.5-2.5,5.9-2l2,2.5c-1,2-6.9-1-5.9,2.5c3,0,4-1.5,6.9-0.5c-0.5,0.5-1.5,0.5-2,0.5c1,0,2,4.5,6.4,2c2-1,0.5-1,0.5-2.5
					c4.9-0.5,6.4-1.5,9.4-2c-0.5,2.5,5.4,0,2,3c-1.5-1.5-8.4-1.5-10.4,1c2,3-4-0.5-4.9,2.5c4,0,3.5,3,4.5,4.9c1,0,2-0.5,3-1
					c0.5-2-1-2-1-3.5c4.5,0.5,8.4-0.5,10.9-2.5c1.5,1,1,2.5-0.5,3c4.9-0.5,10.9-0.5,15.3,0.5c-3-3,5.4-0.5,3.5-3
					c-2.5-0.5-4.9-3-3.5-4c1.5,0,0,1.5,0.5,2c2-1.5,3.5,2.5,5.4,0c-4.5,1-1,3.5-2,5.9c3.5-1.5,0,1.5,3,1.5c1-0.5,2-0.5,2.5-1
					c1-0.5,2.5-0.5,3.5-1c2.5-0.5,5.4-1,8.4-1c2.5,1,5.9,1,9.9,1c0.5,4,1,7.4,1,10.9c-1,3.5-4,2.5-4.5,5.4c0,3.5,3-3.5,1.5,2
					l-0.5-0.5c0.5,0.5,0,3.5,0,4.9c0,2,0.5,4,2,4.5l-3-1.5c-0.5,1,0.5,1.5,0.5,2c-1,0-2,1-2.5-0.5c-2,2.5,0.5,5.4,0.5,8.4l1.5-2
					c1.5,4.9-0.5,7.9,0,12.4h-1.5l1,3c-1.5-0.5-2.5,2-1.5,3.5l-4-6.9c1-2,2,2,3.5,1c1.5-1,1-5.4-0.5-5.9c0,1.5,0,1.5,1,3
					c-2.5,0.5-2-2-4-3c0,1-0.5,2,0,2.5c-1-1.5-1.5-3.5-1.5-5.9c1,2,1.5-1,2-0.5c-2,0-2.5-3-2-6.4c1-1,1-3,0-4.5c-0.5-2-1.5-4-1-4.9
					c2,0.5,3.5,3,4.5,5.4c1-2.5,0-3,1-5.4c-1.5-1-4-1.5-4.9-3.5l1.5-1c-1-2-3-0.5-2.5-3.5c0-0.5,0-1.5,0.5-2
					c-3.5-0.5-7.4-0.5-10.4-0.5V106c-2.5,3.5-9.4,1-12.9,2.5c-6.4-1.5-13.8,1.5-16.8-1c-5.4,0.5-10.9,1-15.8,1.5
					c-2.5,0-5.4,0.5-7.9,0.5c-0.5,0-2,0.5-3,0.5c-1.5,0-2.5,0.5-4,0.5l1.5-2.5c-1.5,2-1.5-1-3.5,0c2.5,1-2,3-3,4.5
					c-4.9,0-9.9,4-12.4,7.4l-1-1c-1,2-2.5,3.5-4.5,4.9c-1,0.5-2,1.5-3,2c-1,0.5-2,1.5-3,2.5c-1,0-2.5,0-3.5,1c0,2,0.5,3,0,4.5
					c0,1-0.5,2.5-0.5,4.5c-0.5,1.5-1.5,3-2,4.5c-0.5,2-1.5,3.5-2,4.9c0.5,3,1,5.4,1,8.4c0.5,3,0.5,6.4,0.5,9.4c0,3,0,6.4,0,9.4
					c0,1.5,0,3.5,0.5,4.9c0,2.5,0.5,4.9,0.5,7.4c-0.5,0.5-1,0.5-2,1c1,5.9,1.5,12.9,2,19.3c-7.9,0-16.3,0-23.7,0c-1.5,0-3,0-4.5,0
					c-1,0-2.5,0-3.5,0c-1,0-2,0-3,0c-0.5,0-1,0-1,0.5c0-1,0-2,0-3c-1-0.5-2-0.5-2.5,0.5c-0.5,0.5,0,1.5,0.5,2.5c-1-0.5-1.5,0-2.5,0
					c0,0.5-0.5,0.5-1,0c-0.5,1,1.5,2.5,2,3.5c-0.5,1-1,1-1,4c0,2.5,0,4.5,0.5,7.9v-1.5c-0.5-0.5-2-1-2,1c1,2.5-1,8.9,3,6.4
					c-1,3.5-0.5,7.4-0.5,11.4c0,1.5,0,1,0,1.5v0.5c0,0.5-0.5,1-1,2c1-1,1-0.5,2-1c0,0,0,0.5,0,1c0.5,0.5,1.5,1.5,3,0
					c0,0.5-0.5,1.5,0,2c0.5-0.5,0-1.5,1-2c2-0.5,4-0.5,5.9-0.5h4.5h4.9c6.4,0.5,12.9,1,18.8,1.5c0,4-0.5,7.4,0,10.9
					c0,3.5,0.5,6.9,0.5,10.4l0.5,8.9c0,4,0.5,7.9,0.5,12.4c0,7.9,0,16.3,0,23.7h-0.5c3,4.9-3,11.9,1.5,16.3c-0.5,1-0.5,4.5-1.5,4
					c2,4-2,11.4,0.5,17.3c0-0.5,0-1-0.5-1.5c-1.5,5.9,0.5,11.4-1,17.8c-0.5-0.5-0.5-2-1.5-2c-1.5,2.5,3,5.9-0.5,6.9c0,1.5,2,1,1.5,0
					c-0.5,6.9-0.5,13.8,0,21.3l0.5,5.4v2.5c0,1,0,2,0,2l1,2.5c-0.5,1-1,1.5-1.5,2.5c-1,2-4.5,4,0,2c0,0.5,1-1.5,0.5-0.5
					c1-0.5,1,0.5,1,1.5c0,1,0.5,1.5,1.5,0.5c0-2,1-1,1-2.5c0.5,0,0.5,0.5,1,0.5c0.5,0,1,0.5,1.5,0.5c1,0.5,2,0.5,3,1
					c1.5,0.5,3.5,0.5,5.9-0.5l-0.5,1c5.9-3,12.4-1.5,17.3-4.9c2.5,0,4.9,0,7.4,0h3.5h2c0.5,0,0.5,0,0.5,0c1,0,1.5-0.5,2.5-0.5
					c0-1-0.5-2-0.5-3c0-5.4-0.5-10.9-0.5-16.3c-0.5-10.9-1-21.8-1-32.6c0.5-15.3,0-30.7,0-46c0-7.4,0-15.3,0-23.2
					c0-5.4,0-10.4,0.5-15.8c0-7.4,0.5-14.8,0.5-22.3c0.5,0,1,0,1,0c8.4,1.5,12.4,2,15.8,2.5c2,0,4,0,5.9,0c1,0,2.5,0,4-0.5
					c0.5,0,1.5,0,2.5,0c1,0,2,0,2,0c-0.5,0.5-1,0.5-0.5,1c0.5-2.5,5.9,0,6.4-2.5c2.5,0,4.5,0,6.4,0h3.5c0.5,0,0.5,0,0.5,0
					c0.5,0,1,0,1-0.5s0-0.5,0-1c0.5,0,2.5,2,2,1c-0.5-0.5-1-1-1.5-1h0.5c-0.5-0.5-1.5-1-2.5-1c-0.5,2-0.5-4.9-0.5-8.9
					c0-4.5,0-8.4,0-12.9v-6.4v-3l0,0c0,0,0.5-0.5,1-1c0,0,0-0.5-0.5-0.5h-0.5c0,0,0,0-0.5,0h-2.5l-9.4-0.5h-14.3
					c-5.4-0.5-11.9-0.5-18.8-0.5c0-8.9-0.5-17.8-1-25.7l0.5-3.5l0.5-2l0.5-2c0-0.5,0-1,0.5-2.5c-0.5-8.9,3.5-16.8,9.9-20.8
					c3.5-2,6.9-3.5,10.9-4c2-0.5,4,0,5.9-0.5c1,0,2,0,3,0h2c9.9,0.5,19.3,1,29.7,0C329.9,144.5,326.4,151,317,152z"/>
				<path class="st1" d="M324.9,148c1-1,2-3.5,3.5-1.5C327.4,147,325.9,148.5,324.9,148z"/>
				<path class="st1" d="M309.6,89.2c0,0.5-1-0.5-1-0.5c1,0,1.5-1,2.5-0.5C310.1,88.2,310.1,88.7,309.6,89.2z"/>
				<path class="st1" d="M291.8,88.7c0.5-1,4-2,6.4-2L291.8,88.7z"/>
				<path class="st1" d="M275,84.2c-1.5-1-1-1.5,1-1.5C276.5,83.2,275.5,83.7,275,84.2z"/>
				<path class="st1" d="M274,86.7c-1.5,0-2-0.5-3-1C271.5,86.2,274.5,84.7,274,86.7z"/>
				<path class="st1" d="M233,90.2c-1,0.5-2.5,2.5-4,2C230,92.1,233,88.7,233,90.2z"/>
				<path class="st1" d="M216.1,103c-0.5,0.5-1,0.5-1.5,1.5c-1.5,0.5-1-1,0-2L216.1,103z"/>
				<polygon class="st1" points="199.3,333.9 198.8,332 199.8,332 				"/>
				<path class="st1" d="M263.1,420c1-0.5,1.5,0,1.5,0.5s0,1,0.5,1c-1.5,0-1-0.5-1-0.5C264.1,420.5,264.1,420,263.1,420z"/>
				<polygon class="st1" points="282.9,356.7 282.9,357.2 280.4,357.2 				"/>
			</g>
		</g>
	</g>
</g>
</svg>
