<?xml version="1.0" encoding="utf-8"?>
<!-- Generator: Adobe Illustrator 25.2.1, SVG Export Plug-In . SVG Version: 6.00 Build 0)  -->
<svg version="1.1" id="Layer_1" xmlns="http://www.w3.org/2000/svg" xmlns:xlink="http://www.w3.org/1999/xlink" x="0px" y="0px"
	 viewBox="0 0 500 500" style="enable-background:new 0 0 500 500;" xml:space="preserve">
<style type="text/css">
	.st0{fill:black;}
	.st1{fill:white;}
</style>
<g id="ig" onclick="life.html">
	<circle class="st0" cx="237.1" cy="245.6" r="207.2"/>
	<g>
		<g>
			<g>
				<path class="st1" d="M443.3,252.1c1.5,0.5,4.5,0.5,3.5-1.5l-5-1.5L443.3,252.1z"/>
				<path class="st1" d="M451.8,239.1c-2.5-2-7-4.5-11.5-2.5c5,2,3,2.5,8.5,4.5c0.5,2-1.5,3.5-3.5,3c1.5,0.5-1,3,2,4
					c3.5-2.5,3.5-6,0.5-9C449.3,238.1,450.8,238.6,451.8,239.1z"/>
				<path class="st1" d="M366.4,70.9l0.5,1C366.9,71.4,366.4,70.9,366.4,70.9z"/>
				<path class="st1" d="M252.1,27.5c1,0,1.5-0.5,1.5-1C252.6,26.5,251.6,27,252.1,27.5z"/>
				<path class="st1" d="M230.7,21.5c0.5,0,1,0,1.5,0.5C231.6,21,231.1,21,230.7,21.5z"/>
				<path class="st1" d="M366.4,70.9l-2-3.5C363.4,68.4,364.9,69.4,366.4,70.9z"/>
				<path class="st1" d="M436.8,215.2c0.5,0.5,1,1,1.5,1.5c-0.5-0.5-0.5-1-0.5-1.5C437.3,214.7,436.8,214.7,436.8,215.2z"/>
				<path class="st1" d="M409.4,104.4l0.5,1c0.5,0,1.5-0.5,2-0.5L409.4,104.4z"/>
				<path class="st1" d="M434.3,138.8c-0.5-1-4,1-6,1.5c2-0.5,3,0,3.5,0.5C432.8,140.3,433.3,139.8,434.3,138.8z"/>
				<path class="st1" d="M451.8,202.7l1,1C452.3,203.7,451.8,203.2,451.8,202.7z"/>
				<path class="st1" d="M388.4,82.4c0.5-0.5,0.5-1,0.5-1.5C388.9,81.4,388.9,81.9,388.4,82.4z"/>
				<path class="st1" d="M428.8,294.5C429.3,294.5,429.3,294.5,428.8,294.5C428.8,294.1,428.8,294.1,428.8,294.5z"/>
				<path class="st1" d="M454.3,252.1L454.3,252.1c1,0.5,1.5,0.5,2.5,0.5L454.3,252.1z"/>
				<path class="st1" d="M190.2,20.5L190.2,20.5C191.2,20,190.7,20,190.2,20.5z"/>
				<path class="st1" d="M9,301.5c2.5-5,6.5,5.5,9-1.5C16.5,301,10,296,9,301.5z"/>
				<path class="st1" d="M437.3,213.7c0-0.5,0-1-0.5-1.5C436.8,213.2,436.8,213.7,437.3,213.7z"/>
				<path class="st1" d="M18,300L18,300L18,300C18,299.5,18,300,18,300z"/>
				<path class="st1" d="M105.4,58.9c0.5,0.5,1,0.5,2,1C106.8,59.4,106.3,58.9,105.4,58.9z"/>
				<path class="st1" d="M169.2,34.5h-1.5C168.3,34.5,168.7,34.5,169.2,34.5z"/>
				<path class="st1" d="M81.4,85.9c-1,0.5-1.5,0-2,1.5h0.5C79.9,86.4,80.4,85.9,81.4,85.9z"/>
				<path class="st1" d="M56.9,112.8c0.5,0,0.5,0,1,0c0-0.5,0.5-0.5,0.5-1L56.9,112.8z"/>
				<path class="st1" d="M388.4,380.4c1.5,0.5,2.5,1,4,1.5C389.4,379.9,391.9,375.9,388.4,380.4z"/>
				<path class="st1" d="M439.3,214.7c-1,0-1.5,0-2-0.5c0,0.5,0,0.5,0.5,1C438.3,214.7,438.8,214.7,439.3,214.7z"/>
				<path class="st1" d="M103.4,110.8l-4,3C100.4,112.8,101.9,111.8,103.4,110.8z"/>
				<path class="st1" d="M182.2,443.3h1.5C183.2,442.8,182.7,442.8,182.2,443.3z"/>
				<path class="st1" d="M89.9,124.8c-1.5-0.5-3,0-4,0c0,0.5,0,0.5,0.5,1L89.9,124.8z"/>
				<path class="st1" d="M392.4,381.4L392.4,381.4L392.4,381.4z"/>
				<path class="st1" d="M402.9,349c-2.5,4,3.5,4.5,5.5,7c-1.5,6-5,0-8,0.5c-0.5,2,0.5,4,0.5,6c0.5,2,0.5,4-0.5,5
					c-1-0.5-1.5,0-2-1.5c1.5,5.5-6.5,9-5,16c-0.5,0-1,0-1.5-0.5c2.5,1,5,3,6.5,4.5c-1.5,1.5,0,5.5-3.5,3.5c1-1,0-2-0.5-3l-0.5,3
					c-5.5-2,1-3.5-2-6c-1.5,4.5-2,11.5-5.5,13c-4-3,4-7-2-7l5-2.5c-8.5-2.5,2.5-2-6.5-5c-5.5,4-3,7.5-9,11c1,3,3.5,2.5,4,5.5
					c-4,10.5-14.5-4.5-15,5.5c1,4,4,9-2,9.5l-2-5.5c-5.5,3.5,2,9-6,10c-0.5-2.5,3-4.5,2-4.5c-6.5-1-0.5,4.5-3.5,6.5l-3.5-4
					c-3,2-5.5,5-8,8c-2.5,3-5.5,6-9,8c-0.5-1.5,0-3.5-2-4c-4,3.5-9,5.5-14,7c-5.5,1-10.5,1.5-15.5,1.5l-2,5.5c-1,0-2-1.5-1.5-2.5
					c-4-0.5,0.5,2.5-0.5,5c-2,1-3.5-1.5-2.5-3.5c-2.5,2.5-6.5,5.5-11,8c-1,0.5-2,1-3.5,1.5c-1,0.5-2.5,0.5-3.5,0.5
					c-2.5,0-4.5,0-6.5-1l1-1.5c-5.5-1-5,10-10.5,6.5l1-1c-6-0.5-12.5,0.5-18,0.5c-1.5,0-3,0-4.5,0c-1.5,0-3-0.5-4-1
					c-2.5-0.5-5-2-7.5-3.5c-1,3-4,2.5-6.5,1.5c-3-0.5-5.5-1-6.5,3c-6-5.5-4-6.5-13-11c-2.5-0.5-4.5,4.5-8,5l1-4.5l-5.5,3.5l-1-6
					l-3,0.5c1,0.5,2,2.5,1.5,4c-2.5,0.5-5-1-7-3c-1.5-2-2.5-4.5-2.5-5.5h-11.5c1-1.5,3-1.5,4.5-2.5c-7,2.5,1-5-5.5-2.5
					c0.5,1-1.5,2.5-2,3c-1.5-3.5-6.5-6-11-7l2-2.5c-7-4-15-6.5-23-11c2,3-1.5,7-4.5,6l2-4.5c-3,1.5,1.5,3-3.5,4
					c-2.5-2.5,1.5-6,3.5-6l-4-1c0.5-1.5,2-1.5,3-3c-3,1.5-2.5-8-7.5-5.5l0.5-1.5c-1.5-1.5-3.5-2.5-5-3.5c-1.5-1-2.5-2-4-2.5
					c-2.5-1.5-5-3-7.5-5.5c-3,3-4.5,0.5-8.5,1.5c-2.5-5-4.5-11.5-9-16c-4.5-2-3.5,1.5-7,1c3-2.5-1.5-7.5,3-6.5c-2.5-3-4-5-6-6.5
					c-1-1-2-2-3.5-3c-1.5-1-3-2.5-4.5-4.5c-1,2-0.5,3-2,3.5c-1.5-1-1-4.5,1-5h0.5c-5.5-3.5-6.5-10-6.5-17c0-3.5-0.5-6.5-1-9
					c-0.5-1.5-1-2.5-2-3.5c-0.5-1-1.5-2-3-2.5l0.5,0.5l-7-7c-1-4,3.5,1.5,5-2.5c-2.5-2-4-3.5-5-5.5c-1-2-1-4-1.5-5.5
					c-0.5-3.5-0.5-7-3.5-10.5c4.5-4,4-9.5,2-15c-1-3-2-5.5-2-8.5c0-3,0.5-5.5,2-7.5l-2.5,0.5c-2.5-2,1.5-2.5,2-4.5
					c-2,0.5-2.5,2.5-4,1c-2.5-9-0.5-19,1.5-28c1-4.5,3-9,5-13.5l2.5-6.5c1-2,2-4.5,3-6.5c2.5-6-12.5-7.5-4-14l4,4
					c-1-7.5,2-14,4.5-20.5c3-6.5,6.5-12.5,7.5-20c0.5,1.5,2,2,1.5,3c4.5-1,5.5-9,3-10.5c1.5-1.5,2.5,1,4.5,0.5c3.5-1,0-8.5,3.5-8
					c0.5,0,0.5,1.5,0.5,2c-0.5-2.5,5.5-6.5,1-7.5c4.5-3,4.5-9,9-10.5c-1.5-5,7.5-5,3.5-10c5,5,10-3,10.5-7.5c0.5,2,3.5-0.5,4.5,2.5
					c2.5-2.5,4.5-5.5,1.5-8c5,1,6.5-3,8-5.5c1.5-3,3-5.5,8-2.5c1.5-2.5,3.5-4.5,5-7c2-2,3.5-4,5.5-6c2-2,4-3.5,5.5-5.5l3-2.5l3-2
					c1.5,3-1,4.5-3,6c-2,1.5-4,3-2,6c1.5-2,3-3.5,4-5.5c1.5-1.5,2.5-3.5,4-5c2.5-3,5.5-5.5,10-7c2.5,0,0,3.5-0.5,4.5
					c3.5-3.5,8-4.5,12-6c2-0.5,4-1.5,6-2.5s4-2,5.5-3.5c0,0.5-0.5,1.5-1,2c1.5-0.5,4,0,3-3l-1.5,1c-4-3.5,4-10.5,4-13
					c-0.5,9.5,9,0,7,12c1-1,2-2.5,1-4.5c1.5,0,2.5,1,1.5,4c2.5-1.5,3.5-3,4-4c0.5-1,1.5-2,4-2.5c0,1.5-1,2-1,4c2-3.5,4.5-6.5,9.5-6
					c0,1,0.5,2-1,2c7.5-2,13-9,22-6.5c-2.5,6.5,3,2,3.5,7.5c1.5-0.5,3-1,4.5-1.5l-2-3c4,0.5,8-3.5,11.5-1.5l-3.5,4l8-0.5l-4.5-2.5
					c4.5-2.5,0-7,5.5-5.5c-1,0.5,4.5,0,6,4l0,0c2.5-1.5,4.5-3,7.5-1c0.5,2-1.5,6-1,7.5c2.5-4,10,0,13.5-4c-1,1-1.5,4-1.5,4.5
					l2.5-3.5c1.5,1.5,2,2.5,1,4.5c5.5,2,0-7.5,6-2.5c-0.5,0-0.5,1-1.5,1c3,1.5,6.5,2,10,2c3.5,0,6.5,1,9.5,3c0,6-5.5-0.5-5,4.5
					c4.5,1,9.5,1,14.5,1.5c5,0.5,9.5,1.5,13.5,4l-1-1.5c4.5-6.5,4.5,6.5,10,5c-1,0-3.5,3-2.5,2.5c4.5,4.5,11.5,4.5,21,7.5l-2,1
					c2,3.5,7,6.5,9.5,9.5c2-1,4,0.5,4.5-2.5c0.5,2,1,3.5,1.5,5s1.5,2.5,2.5,3.5c2,2,4.5,3.5,7.5,4.5c2.5,1.5,5.5,2.5,7.5,4
					c2,2,3.5,4.5,3.5,8c-1-1-3.5-1-2.5-0.5l7.5,5.5c2-3,1-2,1.5-5.5c2.5-0.5,5.5,0.5,7,2c-4.5-1.5-4,3.5-4.5,6c0.5-1,2-1,2.5-2
					c-2,7.5,6-3.5,6.5,4l-1.5,1c2,1.5,5.5,2,6.5,4.5c-2.5,3-3-1-6,1c2.5,3,11,1.5,9,7c-2-1-3-2.5-5-3.5c-1.5,5.5-0.5,5.5,0,8v-0.5
					l1.5,6.5l0.5-2c5.5-1,7.5,1,8.5,3c0.5,1,1.5,2.5,2.5,3.5c1,1,2,2,4.5,3c-8.5-2.5-4,1-8,2.5c-0.5,2-0.5,5-2,4.5
					c4.5,1-0.5,5.5,6,7c-1.5,1,1,3-2.5,3.5c2.5,3,2-2,4-2.5c3.5,1.5,3.5,5.5,3.5,9.5c0,4,0.5,8,5,11c4.5,6,9.5,6,14,12.5
					c-1.5,3-5.5-0.5-5.5-0.5c-1,4,0,6.5,2.5,10c-1.5-0.5-2.5,0.5-4,2c1,2.5,5.5,1,4,5c-1.5-0.5-4.5-0.5-6-2c2,3,5,5.5,7,9
					c-2.5,1-4-1.5-6-2.5c1.5,3.5,4,9.5,7.5,10l1.5-2.5c0.5,1.5-3.5,1-4,0c-3.5-3,0.5-5,2-5l1.5,2.5c8-3.5-3-9.5-3-14.5l6.5,1l-6-4
					c1.5-1.5,4.5-3,6-0.5c2.5-4-3-2.5-0.5-6.5c0.5-0.5,1-0.5,1,0l-2.5-3c1.5,0.5,4-1.5,4,0.5c2-7.5-7-9-3-12.5l0.5,0.5
					c-4.5-8-4.5,0.5-12-4c3-2.5,6-5,9-8l-4.5,0.5c0-1-0.5-3,1.5-3c-4-2-1.5,1.5-5,0.5c1-3,0-5.5-1.5-8c-1-2.5-2-4.5,1-6.5
					c-4,0-0.5,5-5,1.5c6.5-4.5-3.5-4.5-2-9.5c4-0.5,4,4,5.5-1.5c-3.5,0.5-4-1.5-4-4c0-2.5,0-5-1-6.5c-5,2.5-6-5.5-10.5-9.5
					c2-1-4-10.5-5.5-16l1-0.5c-5,2.5-7.5-2.5-11-5c2.5-2,4-2.5,6.5-1.5c-1-1-1.5-2-2.5-3c-2,0.5-3.5,0-5.5-1.5l3.5-2
					c-4-3.5-10.5-4.5-13-11c-3,2.5-4,11-10.5,8.5c1.5-1.5,3.5-4.5,5.5-4c-0.5,0-2.5,0-3-1.5l4.5-0.5c-1-3-3,1-4.5-1c2-2,0-2.5,2-4
					c0.5,0,0.5,2.5,2,2c-1.5-2-3-5.5-2-8c-1,1.5-2.5,3-4.5,2c-4-3.5,1-4,0-7c-2,0.5-3.5-3-6.5,0.5c-1-1,0-2.5,0-4
					c-3.5,0-10.5-7-10.5-1.5l0.5,0.5h-0.5l0,0l0,0c-2.5-0.5-4.5-1.5-6-2.5c-2-1.5-3.5-2.5-5-4c-3.5-3-6.5-6.5-10.5-8l0.5-1.5
					c-5-1-10.5-4-15.5-3c-1.5-0.5-2-4-1-5.5c-4-0.5-5,0.5-9.5-3.5c4.5-1-0.5-2.5,4.5-0.5c-4.5-3-4.5-5.5-11.5-3.5c3-3-2-6-5-5.5
					l2.5,4c-3-0.5-5-1.5-7-2.5l3-4.5c-4.5-4.5-10-3-14.5-2.5c-5,1-9,1-12-4.5c-3.5,3,5.5,3.5,2,7c-4.5-1.5-8.5-9-10-9.5
					c-6.5-3.5-7,6-14,3.5c0.5,2,1,6.5-4,8c-4.5-1-5.5-8-2-9c1,0,1.5,0.5,1.5,1c1.5-0.5,4-1,2-3l-1,1.5c-2.5-2-9-2-7.5-5
					c-4,1.5-1.5,3,1,4c-6-3-10-1-16.5-2c1,1,2,3,1,3c-9.5-1.5-4,3.5-10.5,4.5c-4-2.5,1-6.5-5.5-4c-4-1.5-1.5-4.5,0-6
					c-1.5,1-3,1.5-4.5,1.5c-1.5,0-2.5,0-4-0.5c-2.5-0.5-5-2-7-2l3-2c-2,1-3.5,1.5-5,1.5l2.5,3c-2-0.5-3.5,0-3.5-1.5
					c-1.5,2.5,2.5,5.5-1,9.5c-2.5-1.5-7,3-8.5-1.5c8,0-2-4.5,4.5-6.5c-1,1-2.5,1-4.5,0.5c-0.5-0.5,0-1,0.5-1.5c-8.5-2.5-2.5,6-10,8
					c0.5-3-3-4.5-4-3.5c3-0.5,2.5,4,0.5,6.5c-5.5-1-4.5,3-7,3h3c0,3-2.5,3-5.5,5c-1-2,2.5-2.5,1-3c-2,5.5-9.5-1.5-13.5,3
					c-3-1-2-4.5-4.5-5c-4.5,5-7.5-1-12,4.5c3,2.5,3,1.5,0.5,6.5l8-6.5l-4,7.5c3-1,5-5,7-5c-2,4-1.5,3,0.5,5c-6-3-6,6.5-12,5l-4-8
					c-4,0-7,2-9,5c-2.5,3-5,6.5-9.5,8l3.5-0.5c0.5,3.5-4.5,3.5-6.5,6c-1.5-2.5-3.5-2.5-6-3.5c1.5,1.5-6,4-3,9.5l-5.5-0.5
					c-7,3.5-2,11.5-7.5,16c-0.5-4-4.5-3-2-8.5c-2,1.5-4,2.5-2.5,4.5c-2.5-0.5-2.5,7.5-6,7c0,1.5,2,4,0,5.5c-0.5,0-1-1-1-1
					c1,1-1.5,4.5,2.5,5c-5.5-0.5-9,3.5-12.5,7.5c-1.5,2-3,4-5,5.5c-1.5,1.5-3.5,2.5-6,3c-2.5,5-5.5,10.5-8,14.5c-0.5-1-1-1-0.5-1.5
					c-6,4,5,8-1.5,13c-6,1,0-4.5-3-3.5c-4.5-2-5.5,0-6,3c-0.5,3-1.5,6-5,7.5v-1.5c-4.5,2-1,10.5-4.5,16c0,0-0.5-0.5-1.5-0.5
					c2.5,6,1.5,14,0.5,20c-3-3-1-3.5-5-3.5c-0.5,2.5,6,1.5,5.5,6.5c-2.5,1-5.5,4-9.5,3.5c0.5-1.5,1-3.5,1.5-5c-3,0.5-3.5,2-3.5,4
					c0,2,1,4,0,5l-2-1c-1.5,8,4.5,9.5,2,17.5l2-0.5c4.5,5.5-4,3-0.5,8.5l-6,0.5c1,3.5,4,11.5,4.5,17c-4-3.5-5.5-10-7.5-14.5
					c-0.5,3-1,10.5,1.5,12.5c-0.5-1.5-1.5-3-0.5-4c4,4.5,6,9,5.5,15c-5.5-1-6.5,3-7.5,7.5c-1,4.5-0.5,10-5,12.5
					c2.5,5.5,2,11,1.5,16.5c0,5.5-0.5,12,1,18c8-6,1,3.5,9.5,1c1,2.5,1.5,4,1,4l-3,10c-2,2.5-2.5-2-4.5-1.5c1,6.5-3,3.5-4.5,8.5
					c3-2,5,1,5,5l2.5-6.5c3.5,4,2,6,1,8.5s-2.5,5,1.5,8.5l-3.5-2c1.5,2,3,6,5.5,10c2,4,5.5,7,10,8c-0.5,1-2.5,3.5-4,1.5
					c2,5.5,6.5,10.5,10.5,15c4.5,4.5,8.5,8.5,8.5,13.5l-2.5,0.5c1.5,1.5,5.5,1,5,4c-1,0.5-2.5,0.5-2,1.5c1.5,0.5,6.5,2,7,5l-3.5-0.5
					c2,5.5,6,8,10,9.5c4.5,1.5,9,2.5,12.5,5.5c-5,4.5-0.5,12.5,2,16l-1,0.5c4.5,4.5,9.5,7.5,15,9.5c5,2,11,3.5,16.5,6
					c0.5,2.5,2,5,3.5,7c2,2,4.5,4,7.5,6c5.5,4,12,8,16.5,12c-1-2,2.5-4.5,5-4c2,2.5,9-1,6,4.5l-1-0.5c-0.5,6,5.5,7.5,9.5,9l3.5-7
					c3.5,7,11,9.5,18,10c7,0.5,13.5,1,15.5,6.5c3-1,6.5-0.5,9.5-2l-1,4c4,1,6.5,2,10,2.5c3,0.5,6.5,1.5,11.5,1l-2.5,3
					c5.5,0.5,8-12,13-12l1,6.5c9.5,1,19.5,5.5,28.5-1c0,1,0,3-1.5,3c4.5,0.5,18,2,15-6c1,5.5,10-1,14.5-4.5v4.5c3-6.5,3-7.5,8-10.5
					c1.5,0,2,3,0,2.5c5,1,2.5-4.5,8.5-4l-1.5,3c5-1,4-2,5.5-6c2.5-2.5,9-2,11,1c0-2.5,1-6,4-6c1,1,0.5,2.5,0,3c2,0,4-0.5,5-1.5
					c1.5-1,2.5-2,3.5-3c2-2,3.5-4,7-3.5c0.5,1,1.5,1.5,2,2c-6,2.5-10.5,4.5-10.5,4c1.5,3.5,6.5,2,5,8.5c3-4.5,6.5-13.5,12-14
					c0.5,0,1,0.5,1,1l-0.5,0.5c1,0,2-1,2.5-2c1.5-0.5,3-0.5,4-1c2,2.5,6-1.5,8.5-3c-2.5-3.5,1-4.5-3.5-6c0.5,0,0,0.5-1.5,1.5
					c-0.5,0.5-0.5,0.5-0.5,1v-0.5c-1.5,1-3,2-5.5,3.5c0.5-3,1.5-5.5,5-5c-0.5-3-0.5-6-0.5-7.5c6,3.5,13.5,2.5,16.5,4.5
					c2.5-3.5,6-6.5,9-10c1.5-1.5,2.5-3.5,3.5-5.5c0.5-2,1-4,0.5-6.5c1-2,3.5,0,5,0.5c-0.5,1.5-1.5,2.5-1.5,3.5c2-4.5,9.5-9.5,6-14
					c6-2,1.5,6,6,0l0.5,2c8.5-2.5,10-10,12-16.5c1.5-7,3-14,12.5-17.5c-1.5,0.5-2,1-3,0.5c2-1.5,3.5-3.5,5-5.5c1.5-2,3-4,4-6
					c2.5-4.5,5-8.5,6.5-13c2-4.5,3.5-9,6-13.5c2.5-4,4.5-8.5,8-12c3.5-4.5,0-6.5-1-10l4.5,0.5c-1-2.5-2.5-4.5-3.5-7
					c-1-4.5,2.5-7,6-10c1.5-1.5,3-3,4-5c0.5-2,0.5-4.5-1-7l-3,0.5c1-3.5,0-11.5,3.5-10.5c-0.5-0.5-3-1.5-1-2.5h2.5
					c-0.5-1.5-1-3-1.5-4.5l-2-4.5c2-6.5,9.5,2,10.5-8.5c-0.5-4-6.5-11-8-9.5c0,1.5-1.5,4-4,4l-1-3.5c-7-0.5-14-3-19.5,4.5l4,5.5
					l-3.5,1.5v-4.5c-3.5,2.5-0.5,4,1.5,6c-2,0.5-3,1-4,2c2,2,4.5,3.5,6.5,5.5c-3,0.5-5-3-7,0.5c2.5,2.5,6.5-1.5,8,2.5
					c-3.5,2-6,1-3.5,4.5c-2,0-3-0.5-3.5-2c1.5,3,0,7,3.5,9c-2,1-2,3-2.5,5c-0.5,2-1.5,3-4.5,2.5c1.5,1,4,5.5,3.5,8
					c-6.5-6-2.5,8.5-10.5,5c6,5-1,11.5,1,18.5c-0.5-0.5-1.5-1.5-1-2c-1.5,3-4,3-6,4c5.5,2.5,4.5,7.5,6.5,11.5c-7,1-5-5-10.5-6.5
					c4.5,2,1.5,8,5.5,8.5c-4.5,1-2.5,1.5-7.5,0.5c6,4,0,3,2.5,7.5c-5.5,2-6.5-2.5-7,2.5C402.9,353.5,402.9,349,402.9,349z
					 M331,433.8L331,433.8c1-0.5,1.5-1,2-1.5C332.5,432.8,332,433.3,331,433.8z M322.5,438.3c1-0.5,2.5-1,4-1.5c1,1,1.5,2.5,0.5,3
					C326.5,438.3,324,438.8,322.5,438.3z M355.5,453.8c-1,1.5-2,1-3,0.5c0.5-0.5,1.5-1,2.5-2v-0.5
					C355,452.3,355.5,453.3,355.5,453.8z"/>
				<path class="st1" d="M355,447.3C355,447.3,355,446.8,355,447.3c0-0.5-0.5-0.5-1-1c0,0.5,0,1,0,1.5
					C354.5,447.8,355,447.8,355,447.3z"/>
				<path class="st1" d="M366.9,71.9L366.9,71.9L366.9,71.9C366.9,72.4,366.9,72.4,366.9,71.9z"/>
				<polygon class="st1" points="192.7,443.8 192.7,444.8 193.7,443.8 				"/>
				<path class="st1" d="M397.9,120.8c0,0.5-0.5,0.5-0.5,1.5C397.9,121.8,397.9,121.3,397.9,120.8z"/>
				<path class="st1" d="M410.9,140.3l0.5,3.5C411.4,142.3,411.4,141.3,410.9,140.3z"/>
				<path class="st1" d="M418.3,156.8c1,0,1.5-0.5,2-0.5l0,0L418.3,156.8z"/>
				<path class="st1" d="M178.7,60.9C178.7,60.9,178.2,60.9,178.7,60.9C177.2,62.4,177.7,61.9,178.7,60.9z"/>
				<path class="st1" d="M261.1,44c-1,0.5-2,1-3,1.5C259.6,45.9,261.1,46.4,261.1,44z"/>
				<path class="st1" d="M103.9,110.3L103.9,110.3L103.9,110.3L103.9,110.3z"/>
				<path class="st1" d="M254.6,45.4c1.5,1,2.5,1,4,0.5C257.1,45.4,255.6,44.9,254.6,45.4z"/>
				<path class="st1" d="M438.8,230.7v1c0.5,0,0.5,0,0.5,0L438.8,230.7z"/>
				<path class="st1" d="M439.3,231.7l0.5,1C439.8,232.1,439.8,231.7,439.3,231.7z"/>
				<path class="st1" d="M441.3,234.1l-1-2C439.8,233.1,439.8,234.1,441.3,234.1z"/>
				<path class="st1" d="M436.8,207.2h-1.5C435.3,207.2,435.8,207.2,436.8,207.2z"/>
				<path class="st1" d="M434.3,200.2c0,2-2,5-0.5,7h1C432.8,206.7,437.3,201.2,434.3,200.2z"/>
				<path class="st1" d="M442.3,164.8c0.5,2,1,4.5,1,6.5c1-1.5,2.5-4,4-1C449.3,160.3,444.8,172.7,442.3,164.8z"/>
				<path class="st1" d="M435.8,145.3c2,3,2-1,3-1.5C436.3,142.3,435.8,142.3,435.8,145.3z"/>
				<path class="st1" d="M329,46.4l2-3.5C328,42.5,330.5,44.5,329,46.4z"/>
				<path class="st1" d="M297,55.4c0.5,1,1,2,1.5,3l2-3C299.5,55.4,298,54.9,297,55.4z"/>
				<polygon class="st1" points="288.1,25 289.1,24.5 284.6,25 				"/>
				<path class="st1" d="M57.9,104.9l4,2.5C62.9,105.4,58.9,101.9,57.9,104.9z"/>
				<path class="st1" d="M15.5,204.7c-2.5,0.5-4.5,3.5-2.5,5.5C13.5,207.7,15.5,205.7,15.5,204.7z"/>
				<polygon class="st1" points="155.8,472.3 153.3,472.8 157.8,472.8 				"/>
			</g>
			<g>
				<path class="st1" d="M30,252.1c1.5,0.5,4,0.5,3.5-1.5l-5-1.5L30,252.1z"/>
				<path class="st1" d="M39.5,239.1c-2.5-2.5-6.5-5.5-11-4.5c4.5,2.5,2.5,3,8,6c0.5,2-2,3.5-3.5,3c1,1-1,3,2,4.5
					c4-2.5,4.5-5.5,1.5-9.5C37.5,237.6,39,238.6,39.5,239.1z"/>
				<path class="st1" d="M134.8,81.9h-1.5C133.8,82.4,134.3,82.4,134.8,81.9z"/>
				<path class="st1" d="M242.1,46.4c-1,0-1,0.5-1,1C241.6,47.4,242.1,46.9,242.1,46.4z"/>
				<path class="st1" d="M261.1,51.4c-0.5,0-0.5-0.5-1-0.5C260.6,51.9,261.1,51.9,261.1,51.4z"/>
				<path class="st1" d="M134.8,81.9l3.5-0.5C137.3,79.9,136.3,81.4,134.8,81.9z"/>
				<path class="st1" d="M31,210.2c0,0.5,0.5,1.5,1,2c0-0.5,0-1-0.5-2C31.5,210.7,31.5,210.2,31,210.2z"/>
				<path class="st1" d="M100.4,118.8L100.4,118.8c-0.5,1,0,1.5,0.5,2.5L100.4,118.8z"/>
				<path class="st1" d="M78.9,150.3c0.5-0.5-3-3-4.5-4c1,1.5,1.5,2.5,1.5,3C76.9,149.8,77.4,149.8,78.9,150.3z"/>
				<path class="st1" d="M49.4,204.7l0.5,1C49.9,205.7,49.9,205.2,49.4,204.7z"/>
				<path class="st1" d="M120.3,99.9c0.5,0.5,1,0.5,1.5,1C120.8,100.4,120.3,100.4,120.3,99.9z"/>
				<path class="st1" d="M25.5,302.5C26,302.5,26,302.5,25.5,302.5C26,302.5,25.5,302.5,25.5,302.5z"/>
				<path class="st1" d="M41,252.1L41,252.1c1.5,0.5,2,0.5,3,0.5L41,252.1z"/>
				<path class="st1" d="M294.5,60.4L294.5,60.4C293.5,60.9,294,60.9,294.5,60.4z"/>
				<path class="st1" d="M449.8,294.1c4.5-2.5,3,7,8.5,2.5C456.8,296.5,453.3,290.6,449.8,294.1z"/>
				<path class="st1" d="M32,209.2c0-0.5,0-1,0-1.5C31.5,208.2,31.5,208.7,32,209.2z"/>
				<path class="st1" d="M458.3,296.5L458.3,296.5L458.3,296.5C458.8,296,458.8,296.5,458.3,296.5z"/>
				<path class="st1" d="M366.9,88.4c0.5-0.5,0.5-1.5,0.5-2C367.4,86.9,366.9,87.4,366.9,88.4z"/>
				<path class="st1" d="M316.5,57.4l1,1C317,57.9,316.5,57.4,316.5,57.4z"/>
				<path class="st1" d="M394.9,103.4c0.5,1,0,1.5,1.5,1.5v-0.5C395.4,104.9,394.9,104.4,394.9,103.4z"/>
				<path class="st1" d="M416.9,127.3c0-0.5,0-0.5,0.5-1c-0.5,0-0.5-0.5-1-0.5L416.9,127.3z"/>
				<path class="st1" d="M77.4,403.4c0.5-1.5,1-2.5,2-3.5C77.4,401.9,72.9,398.4,77.4,403.4z"/>
				<path class="st1" d="M33.5,210.7c-1-0.5-1.5-1-1.5-1.5c0,0.5,0,1,0,1C32.5,210.7,33,210.7,33.5,210.7z"/>
				<path class="st1" d="M418.8,79.9l4,4.5C421.8,83.4,420.3,81.4,418.8,79.9z"/>
				<path class="st1" d="M320,476.3l-1,1C319.5,476.8,320,476.8,320,476.3z"/>
				<path class="st1" d="M435.3,97.4c-0.5,2-0.5,3,0,4.5c0.5,0,1,0,1.5,0L435.3,97.4z"/>
				<path class="st1" d="M79.4,399.4L79.4,399.4L79.4,399.4z"/>
				<path class="st1" d="M48.4,372.9c3,5,6-0.5,9.5-1c5,5-2,5-3,8.5c1.5,1.5,4,2,6,3c2,0.5,4,1,5,2.5c-0.5,0.5-0.5,1.5-2,1.5
					c6,1,8,10.5,15.5,11c0,0.5-0.5,1-0.5,1.5c1.5-2.5,3.5-4.5,5.5-5.5c1.5,1.5,5.5,1,3.5,4c-1-1-2-0.5-3.5,0l3,1
					c-2.5,5-3.5-1.5-6.5,1c4.5,2.5,12,4,13.5,8c-3,4-7.5-5.5-7,1.5l-2.5-6c-3,9-2-3-5.5,6c4.5,7,8,5,12.5,12c3.5-1,2.5-3.5,6-4
					c11.5,3.5-2,15.5,9,16c4-1,8.5-6,11,0.5l-5,3.5c6,5,8.5-4,12.5,4c-2.5,1-6-2-5.5-1c1.5,7,5-0.5,8,2l-2,4.5c4,2,8,3,12.5,4.5
					c4.5,1.5,8.5,3,13,4c-1,1-3.5,2-2,4c6,1.5,11.5,4,16.5,7.5c5.5,3,10.5,6.5,15.5,10l5.5-2.5c1,0.5,1,2.5,0,3c4,2.5,1-2.5,3.5-3.5
					c2.5,0.5,2.5,3.5,0.5,4c4.5-1,10-1.5,15.5-1c1.5,0,2.5,0.5,4,0.5c1.5,0,2.5,0.5,4,0.5c2.5,0.5,4.5,1.5,6.5,3l-2,1
					c6,2.5,8-8,13.5-3l-1,0.5c6.5,1.5,14,1,20.5,1.5c1.5,0,3.5,0.5,5,0.5c1.5,0,3,0,4.5,0.5c3,0.5,6,1.5,8.5,3c1-3,4-2.5,7.5-2.5
					c3.5,0.5,6.5-0.5,6-4.5c8,3,6,5,17.5,6.5c3,0,3-6.5,6.5-8l1,4.5l3.5-6l4,4.5l3-2c-1.5,0-3.5-1.5-3.5-2.5c2.5-1.5,5.5-1.5,8.5-1
					c3,0.5,5.5,1.5,5.5,2.5l10.5-8c0.5,2-1.5,3-2.5,5c4.5-7,3,4,7-2c-1-0.5-0.5-2.5-1-3.5c4,1.5,10.5-1.5,14.5-5l0.5,3.5
					c9-3,17-11,26-16.5c-4,1-6.5-4.5-4-6.5l3.5,3.5c0-3.5-3.5,0-2.5-5c3.5-1.5,5.5,3,4.5,5.5l3-4c1,1,0.5,2.5,1.5,4c0-3.5,9.5-1,9-7
					l1,1c2-1.5,4-3,5.5-4.5c1.5-1.5,2.5-3,4-4.5c2.5-3,4.5-5.5,7.5-8.5c-3-3,0.5-5,0-9c5-3.5,12.5-6.5,17-12.5c2-5.5-2-3.5-2-7
					c3,2,7.5-4,7.5,0.5c2.5-4,4-6.5,5.5-9c1-1.5,1.5-3,2.5-5c0.5-2,1.5-4,2-7c-2,0-3.5,1-4-0.5c0.5-2,4-3,5-2v0.5
					c1-7,7-11.5,12.5-17c2.5-2.5,5.5-5.5,7-8c1-1.5,1.5-3,2-4.5c0-1.5,0-3-0.5-4.5v0.5v-11.5c2.5-4.5,1.5,3.5,5,1
					c-0.5-3.5-0.5-6,0-8c0.5-2.5,1-4.5,2-6.5c1.5-4,3.5-8,2.5-13c6.5-2.5,7-9,7.5-16c0-3.5,0.5-7,0.5-10.5c0-3.5,1-6.5,3-8.5
					l-2.5,0.5c-2.5-2.5,1.5-3,2.5-5c-2,0-2.5,2.5-4,1c-0.5-11-0.5-22,0.5-33.4c0.5-5.5,0.5-11.5,0.5-17.5c0-3,0-6,0-9
					c-0.5-3-0.5-5.5-1-8.5c-1.5-8.5-14.5-1-11-12.5l5.5,1.5c-5-7-8.5-15-11-23c-3.5-7.5-7-15.5-12.5-21.5c1.5,0.5,3-0.5,3.5,1
					c1.5-5-6.5-11-9-9.5c-1-2.5,2-2,2.5-4c0-4-8.5-5-6.5-8.5c0.5-0.5,1.5,0,2,0.5c-2.5-1-6-8.5-8-4.5c-2-6-8-8-9.5-13.5
					c-5.5,0.5-5.5-9-11-5.5c5.5-4-3-12-8.5-12c2.5-0.5-1-4,2-5c-3.5-3-7-4.5-9-1.5c-0.5-5.5-4.5-7.5-8-8.5c-3.5-1-7-2-5.5-7.5
					c-3-1-6-2.5-9-3.5s-6-2-9-3c-3-1-5.5-2-8.5-3l-4-1.5l-4-1.5c1.5-3,5-2,7.5-0.5c2.5,1.5,5.5,2.5,7-0.5c-2.5-1-5.5-1.5-7.5-2
					c-2.5,0-5-0.5-7-0.5c-4.5-0.5-9-1.5-13.5-4.5c-2-2,2.5-2,4-2.5c-5.5-1.5-10.5-3-15.5-5c-2.5-1-5-2-7-2.5c-2.5-0.5-5-1-7.5-0.5
					c0-0.5,1.5-1,2.5-1c-2-0.5-4-2-4.5,1l2-0.5c1.5,5-10,7-10.5,9.5c5.5-8-8.5-4.5-1-14c-1.5,0.5-3,1.5-3.5,3.5c-1.5-1-2-2.5,0.5-4
					c-3.5,0-5,1-6,2c-1,1-2.5,1.5-5.5,1c0.5-1.5,1.5-2,2.5-3.5c-3.5,2.5-7,5-12,3c0.5-1,0-2,1.5-2c-9-1-15.5,6.5-25,3
					c3-6.5-3-2.5-3.5-8c-2,0.5-3.5,1-5.5,1.5l2,2.5c-4.5,0-8.5,4.5-12.5,3l3.5-2.5l-8.5,1.5l5,2c-4.5,3,1,7-5,6c1-0.5-4.5,0-7-2.5
					l0,0c-2,2-4,4.5-7.5,3.5c-1-1.5,0-6-1-7.5c-1.5,5-10.5,3-12,8.5c0.5-1.5,0-4.5-0.5-5l-1,4c-2.5-0.5-2.5-1-3-3.5
					c-6.5,1,3.5,6.5-4.5,5.5c0.5-0.5,0-1,1-2c-4,0-7,1.5-10.5,3c-3.5,1.5-6.5,3.5-10,3.5c-4-4.5,5.5-3.5,1.5-7
					c-4.5,2-9,5.5-13.5,8.5c-4.5,3-8,6.5-13,8h2c2.5,7.5-8-0.5-11,5c0.5-1-0.5-4.5-0.5-3.5c-6.5,2.5-11,8.5-17.5,16v-2.5
					c-4,1-9,5.5-13,7c0,2.5-2,3.5,1,5c-2,0-4,0-6,0.5c-1.5,0.5-3,1.5-4,2.5c-2.5,2-4,4.5-5.5,7.5c-1.5,2.5-3,5-5,7.5
					c-2,2-4.5,4-8,4.5c1-1,1-3.5,0-3l-5,8.5c3,1.5,2.5,0.5,6,0.5c0.5,2.5,0,5.5-1.5,7c1-4.5-4.5-3.5-7-3.5c1,0.5,1.5,1.5,2.5,2
					c-8,0,5,5-2.5,8l-1-1.5c-1,2.5-0.5,6-2.5,8c-4-1.5,0-3.5-2.5-5.5c-2,3.5,1.5,10.5-3.5,11c0-2,1-4,1-6c-6,0.5-5.5,1.5-7.5,3.5
					l0,0l-5.5,4.5l2-1c3,5,2.5,7,1,9.5c-0.5,1-1.5,2.5-2,3.5c-0.5,1.5-0.5,3,0.5,5.5c-3-8.5-3-2.5-6.5-5c-2,1-4.5,2.5-5,1.5
					c2,4.5-5,3.5-2,10c-1.5-0.5-1.5,3-4.5,1c-1,4.5,3,0,4.5,1c1,4-1.5,7-4.5,10c-2.5,3.5-5,7.5-3.5,12.5c0.5,8.5,5,11,5.5,18.5
					c-3,2-4.5-3-4.5-3c-3,3.5-3.5,6-2.5,10c-1-1-2.5-0.5-4,0.5c0,3,5,3,2,6.5c-1.5-1-4-2-5.5-4c1,4,3,7.5,3.5,11.5
					c-2.5,0.5-3.5-2.5-5-4c0.5,4.5,0.5,11,5,12.5l1.5-2.5c0,1.5-3.5,0.5-4-1c-2.5-4,2-5,3.5-5l0.5,2.5c9-1.5,0-10,1.5-15.5l6,3
					l-4.5-6c2-1,5.5-1,6,2c3.5-3-1.5-3.5,2.5-6c0.5,0,1,0,1,0.5l-1-4c1,1,4.5,0.5,3,2.5c5-5-2-11,3-12v0.5c0.5-9-4-2-7-10
					c4,0,8-0.5,12-0.5l-4-2.5c0.5-1,1.5-2.5,3-1.5c-2-4-2,0-4-3c2.5-1.5,3-4.5,4-6.5c1-2.5,2-4,6-3c-2.5-3-4,2.5-4.5-2.5
					c7.5,2,1-5.5,6-7.5c3,3-0.5,5,4.5,3.5c-2.5-2.5-1.5-4,0.5-5.5c2-1.5,4.5-2,5-4c-4.5-3,1.5-7,3-13c1,1,8.5-7,13-9.5l0.5,0.5
					c-3.5-4,0-8,2-11.5c2.5,2.5,3,3.5,2.5,6c0.5-1,1.5-2,2.5-2.5c-1-2-0.5-3,0.5-5.5l2.5,3.5c3-3.5,2.5-10.5,9-13
					c-2.5-3-11.5-4-8-10.5c1.5,1.5,4.5,3.5,3.5,5.5c0-0.5,0.5-2.5,2-2.5l0.5,4.5c3-1-1-3,1-4.5c2,2,2.5,0.5,4,2.5c0,0.5-2.5,0.5-2,2
					c2-1.5,5.5-2,8-1c-1.5-1-2.5-3-1.5-4.5c3.5-3.5,3.5,1.5,6.5,1c-0.5-2.5,3-2.5,0.5-6c1-1,2.5,0.5,4,1.5c0.5-3,9-7,4-9.5h-0.5
					c0,0,0,0,0-0.5l0,0l0,0c1-2,2.5-3.5,4-5c1.5-1,4-2,6-2.5c4-1.5,8.5-2.5,11.5-5.5l0.5,1.5c3.5-4,9-5.5,11-10c1.5-0.5,4,1,4.5,3
					c3-2.5,2.5-4.5,8.5-4c-2.5,3.5,2,1.5-3,3c5-0.5,6.5,1.5,10-4c-0.5,4,5,3.5,6.5,1.5l-4-1.5c2-1.5,4.5-2,6.5-2.5l0.5,5
					c5.5,1.5,8.5-2,12-5c3.5-3,6.5-5.5,11-1c2-4-5.5-1.5-4-6c4.5,0,10.5,6.5,11.5,6c6,2,4.5-8.5,11-7c-1-1.5-2.5-6.5,2.5-8.5
					c4.5,0.5,6,7,3.5,8.5c-1,0-1.5-0.5-1.5-1c-1.5,0.5-3,1.5-1.5,3.5l0.5-2c2.5,1.5,8.5,1,7,4c3-2,1.5-3-1-4
					c5.5,2.5,8.5-0.5,14.5,1.5c-1-1-1.5-3-1-3c8.5,2.5,4-3,10-3.5c3,3-1.5,6.5,4.5,4.5c3.5,2,0.5,4.5-1,6c1.5-1,2.5-1,4-1
					c1,0,2,1,3,1.5c2,1.5,3.5,3,5,4l-3,1c1.5-0.5,3-0.5,4.5,0l-1-4c1.5,1,3,1,2.5,2.5c2-2-0.5-6,3.5-8.5c2,2,7-1,6.5,4
					c-6.5-3,0,4.5-6,4.5c1-0.5,2.5,0,4,0.5c0,0.5-0.5,1-1,1c5,5.5,4-4.5,10.5-3c-1.5,2.5,0,5.5,1.5,5c-2.5-0.5,0-4.5,3-6
					c3.5,3,5-0.5,7,0.5l-2-1.5c1.5-2.5,3.5-1.5,7-1c-0.5,2-3,0.5-2.5,1.5c4.5-3,5.5,7,11,6c1.5,2.5-1.5,4.5-0.5,6.5
					c6-1.5,3.5,5.5,9.5,5c0-4-0.5-3.5,4.5-4.5l-9-1.5l7.5-2c-2.5-1-6-0.5-7.5-1.5c3.5-1.5,3-1,3-4c1.5,6.5,8,0.5,10.5,5.5l-4,8
					c2,3,5,3,8.5,3.5c3.5,0.5,7,1,10,4l-1.5-2.5c3-2.5,4.5,2.5,8,2.5c-2,2.5-1,4-1,6.5c1-2,4.5,4,9-0.5l0.5,5.5
					c4.5,5.5,11.5-2,16,3.5c-3.5,1-3,4.5-7.5,3.5c1.5,1.5,2.5,3,4,1.5c-0.5,2,7,1,7,4.5c1.5-0.5,4-2.5,5.5-0.5c0,0.5-1,1-1,1
					c1-1,4,1.5,5-2.5c-1,6,2.5,9,6,12.5c1.5,1.5,3.5,3,4.5,5c1,2,1.5,4,1,6.5c3.5,3.5,8,7.5,10.5,11c-1,0.5-1,1-1.5,0
					c1,6.5,9-1.5,10,6.5c-2,5.5-4-2-4.5,1c-4,3-2.5,4.5-0.5,6c2,1.5,5,3.5,3.5,7l-1-0.5c-1.5,4.5,7,6,9,11.5c0,0-1,0-1.5,0.5
					c6.5,1.5,10.5,8,13.5,13c-4-0.5-3-1.5-6,0.5c1.5,2,5.5-3,8.5,1.5c-1.5,2.5-2,6-6,8c-0.5-1.5-1-3-1.5-4.5c-2,2-1.5,3.5-0.5,4.5
					c1,1.5,2.5,2.5,2.5,4l-2.5,0.5c2.5,6.5,8,5.5,10,13l1.5-1c6.5,3-2.5,4,2.5,7.5l-5.5,2.5c1.5,2.5,7.5,9,9,14c-4.5-2.5-8-8-11-11
					c0.5,2.5,2,9,5,10c-0.5-1-2.5-2.5-1.5-3.5c5.5,3,7.5,7,8,13c-6,0-6.5,3.5-6.5,7.5s-0.5,9-5,11c2,5,1.5,9.5,0,14.5
					c-1.5,5-4,9.5-4,15c9.5-2.5,0,3,9,4.5c0,3-0.5,3.5-1,4l-7.5,6.5c-3,1-1.5-3-3.5-3c-2,5-4.5,1.5-7.5,4c3.5,0,4,3,2,6l5-3
					c1.5,4.5-1,5.5-3.5,6.5c-2.5,1-5,2-4,6.5l-2-3.5c0,2-1,5.5-1.5,9.5c-0.5,4-1,7.5,1.5,11c-1.5,0-4,0-4-2c-2.5,4-3,10-4,15
					c-1.5,5-3,10-7,12l-1.5-2c-0.5,2,2,5-1.5,5.5c-0.5-0.5-1.5-2-2-1.5c0,1,0.5,6-2,7.5l-1-3c-4,3-5,6.5-5.5,11c-0.5,4-1,8-3,11.5
					c-5-4.5-11-0.5-14.5,1.5l-0.5-1c-4.5,3.5-6.5,7.5-9,12c-2,4.5-4.5,8.5-8,13c-2.5-0.5-4.5,0-7,1c-2.5,1-5,2-7.5,3.5
					c-5,2.5-10.5,6.5-16,6.5c2,0.5,2,4.5,1,6c-2.5,0-4,7-6.5,1.5l1-0.5c-4-4.5-7.5-1-11.5,0l2.5,7.5c-7-3.5-12.5,0-18,2.5
					c-5.5,2.5-10.5,5.5-14.5,1c-2,2.5-5,3-7,5.5l-0.5-4c-3.5,0-6,0-8.5,0c-2.5,0-5.5,1-9.5,1.5l1.5-3c-4.5,0-5,12.5-9.5,13l-1.5-6.5
					c-8.5,1-16-5.5-24.5,0c0-1,0.5-2.5,2-3c-4,0-14-6-14,3c0.5-5.5-8-1.5-13,0l1.5-4c-4.5,4.5-5,5.5-11,6c-1-1,0-3.5,1-2
					c-3.5-3-4,3-8.5-0.5l2.5-2c-4-1.5-4,0-7.5,2.5c-3,0.5-7.5-4-7-7.5c-1.5,2-4.5,4-6.5,2c0-1.5,1.5-2,2-2c-1.5-1.5-3-2-4.5-2
					c-1.5-0.5-3-0.5-4-0.5c-2.5,0-5,0-6.5-3c0.5-1.5,0.5-2,0.5-2.5c5,2.5,9,5,8.5,5c1.5-3.5-2-6,3-9.5c-4.5,1-12.5,4-16,0.5
					c0-0.5,0-1,0-1.5h0.5c-0.5-1-1.5-1-3-0.5c-1-1.5-1.5-2-2.5-3c1-3-3.5-4-5.5-5.5c-2,3.5-4.5,1.5-3.5,6c0-0.5,0.5,0,2,0.5
					c0.5,0,0.5,0,1,0c0,0,0,0-0.5,0c1.5,0.5,3,1.5,5,2.5c-2.5,1-5,1.5-6-2c-2.5,1.5-5,3.5-6.5,4c0.5-6.5-3-12.5-1.5-16
					c-3.5-1-7-3-10.5-4.5c-2-0.5-4-1-5.5-1.5c-2-0.5-4,0-6,0.5c-2-0.5,0-3.5,0-4.5c1.5,0,2.5,1,3.5,1c-4.5-1-9.5-7.5-14-4
					c-2-5.5,5.5-1.5,0-6l2-0.5c-1.5-8-7.5-9.5-14-12c-6-2.5-12-6-12-15c0,1,0,2-0.5,2.5c-1-2-1.5-4-2.5-6s-2-4-3.5-6
					c-2.5-4-5.5-7-7.5-11c-2.5-4-4.5-8-6-12c-2-4-2-9-2-13.5c0-5-3.5-4.5-7.5-6.5l4-2.5c-2-1-4-2.5-6.5-3.5c-3-3-1-7,0.5-10.5
					c0.5-2,1.5-4,1-5.5c0-2-0.5-4-3-6l-3,1.5c0-3.5-3.5-10,0-10c-0.5-0.5-3.5-0.5-2-2l2.5-0.5c-1-1.5-2-2.5-2.5-4l-2-4
					c1.5-6.5,9.5,0,9.5-9c-1-3-7.5-9.5-9-8c0,1.5-1.5,3.5-3.5,3.5l-1.5-3c-7-0.5-14.5-3.5-19,5.5l4.5,6l-3.5,2l-0.5-5
					c-3,3,0,4.5,2,6.5c-2,0.5-3,1.5-3.5,3c2.5,2,4.5,3.5,7,5.5c-2.5,1-5.5-2-6.5,2c3.5,2.5,5.5-3,8.5,1c-2.5,3-5.5,2.5-2,5.5
					c-1.5,0.5-3,0-4-1c2.5,2.5,2,8,6,8.5c-1.5,2-1,4.5-1,6.5c0.5,2,0.5,4-3,4.5c2,0.5,6.5,4,7.5,6.5c-9-3,2,10-6.5,11
					c7.5,1.5,7.5,12,13.5,17c-0.5,0-2-0.5-2-1c0.5,3.5-1,5.5-1.5,8.5c5.5-2,9.5,3,14,4c-3,6.5-7.5,0.5-12,4c4-2,8,5,10.5,2
					c-1.5,4.5,0,3.5-4,7.5c7-3,2.5,2.5,8,2.5c-0.5,6-5.5,4.5-0.5,8C53.4,375.9,48.4,372.9,48.4,372.9z M151.3,453.8L151.3,453.8
					c-1-0.5-2-0.5-2.5-1C149.3,453.3,150.3,453.3,151.3,453.8z M161.3,458.3c-1-0.5-2.5-1.5-4-2c0.5-1.5,1.5-2.5,2-2
					C158.3,454.8,160.3,456.8,161.3,458.3z M155.8,422.8c1.5,0.5,1.5,1,1.5,2c-0.5-0.5-1.5-0.5-2.5-1c0,0-0.5,0-0.5,0.5
					C154.8,423.8,155.3,423.3,155.8,422.8z"/>
				<path class="st1" d="M150.8,426.3L150.8,426.3c-0.5,0.5-0.5,1,0,1.5c0.5-0.5,1-0.5,1-1C151.3,426.3,150.8,426.3,150.8,426.3z"/>
				<path class="st1" d="M133.3,82.4L133.3,82.4C133.3,82.4,132.8,82.4,133.3,82.4C132.8,81.9,132.8,82.4,133.3,82.4z"/>
				<polygon class="st1" points="308.5,481.2 308.5,480.3 307.5,481.2 				"/>
				<path class="st1" d="M81.9,110.8c-0.5,0-1,0-1.5,0C80.9,110.8,81.4,110.8,81.9,110.8z"/>
				<path class="st1" d="M66.4,130.8l-3,2.5C64.9,131.8,65.9,131.3,66.4,130.8z"/>
				<path class="st1" d="M54.4,146.8c0.5,0.5,1,1,1.5,1l0,0L54.4,146.8z"/>
				<path class="st1" d="M323.5,30c0.5,0,0.5,0,1,0C326,30,325,30,323.5,30z"/>
				<path class="st1" d="M230.2,31.5c1-1,1.5-2,2.5-2.5C231.1,29,229.7,29,230.2,31.5z"/>
				<path class="st1" d="M418.3,79.4C418.3,79.9,418.3,79.9,418.3,79.4L418.3,79.4L418.3,79.4z"/>
				<path class="st1" d="M237.1,29c-1.5-0.5-3-0.5-4.5,0C234.1,29.5,235.6,29.5,237.1,29z"/>
				<path class="st1" d="M28,227.7l-0.5,1c0.5,0,0.5,0,0.5,0V227.7z"/>
				<path class="st1" d="M28.5,229.2l0.5,1C29,229.7,29,229.2,28.5,229.2z"/>
				<path class="st1" d="M29.5,232.1l-1-2.5C28.5,230.7,28.5,231.7,29.5,232.1z"/>
				<path class="st1" d="M34.5,202.2l-1.5-0.5C33,201.7,33.5,202.2,34.5,202.2z"/>
				<path class="st1" d="M36,194.2c-1,1.5-4.5,4-4,6.5l1,0.5C31,199.7,38,196.7,36,194.2z"/>
				<path class="st1" d="M63.9,170.2c-1,1.5-2,3.5-3.5,5.5c2-0.5,4.5-1,4,2C71.4,172.2,60.4,177.7,63.9,170.2z"/>
				<path class="st1" d="M73.9,154.3c-0.5,3.5,2,1,3,1.5C76.4,153.8,76.4,152.8,73.9,154.3z"/>
				<path class="st1" d="M171.7,63.9l1.5,3.5C174.7,65.9,172.2,65.9,171.7,63.9z"/>
				<path class="st1" d="M190.2,36c-1-0.5-2-1-3.5-1.5v4C187.7,37.5,188.7,36.5,190.2,36z"/>
				<polygon class="st1" points="212.2,58.4 211.2,58.9 215.2,56.4 				"/>
				<path class="st1" d="M410.4,125.3l3-3.5C411.9,120.8,407.4,123.8,410.4,125.3z"/>
				<path class="st1" d="M456.3,209.2c-2,1.5-3,4.5-0.5,5.5C455.8,212.7,457.3,210.2,456.3,209.2z"/>
				<polygon class="st1" points="324,437.3 325,434.8 322.5,437.3 				"/>
			</g>
			<g>
				<g>
					<path class="st1" d="M124.8,168.8c-0.5-3.5-2,2-1-2.5C124.8,167.3,125.3,167.8,124.8,168.8z"/>
					<path class="st1" d="M123.3,154.8c-3-5.5-1.5-12.5,2.5-18.5c3.5-6,9-10,13.5-15c1-1,1,3,3.5,1c2-2.5,5.5-4,9-5
						c3.5-1,8-1,12-0.5c8,0.5,16.5,2,24,4l-1,1c3,0.5,6.5-2.5,9.5-2c0,0.5-1,1-0.5,1.5c1-2,5.5-1,6.5-2c1,0.5,1,2,2.5,3l1.5-2
						c5-5,11.5,0.5,18-2c-0.5,0.5-1,1-0.5,1.5c10.5-3,23.5-2.5,35.4-3.5c-0.5,0.5-1,2,0,3c0.5-2,4-2.5,7.5-3c1.5,2,5.5-2,9-1
						l-0.5,0.5c2.5-2.5,4,1.5,6-1.5l1.5,1.5c1-3,4,1.5,6,0v-0.5c2-1,3,1,5,0.5v0.5c4.5-1,7.5,1,7-1.5c1.5,2-4.5,1-2,3.5
						c15-2.5,30.5-2,45.9-2c2,1,3,1.5,3,2.5c1.5-0.5,5.5,0.5,7.5,0c-0.5,0,0.5,1.5,1,2c2,2,4-1,6,1.5c-1.5,0-2,0.5-2,1.5
						c3-0.5,6,2,8.5,3.5c-0.5,0-1.5-0.5-2,0.5c4,0.5,4,4.5,7,6h-2c1.5,5,3-0.5,4.5,3.5c-1-0.5-1,0-2,0c4,2,5.5,9,7,12.5h-0.5
						c1,4.5,0,9,1,13.5c-0.5,1.5-3.5-0.5-3,4c3,0,1,7.5,4.5,5c-0.5,4-1.5,9.5-0.5,12c-1-1.5-3.5,2-3.5-1.5l-1.5,2.5
						c-1-0.5,0.5-2.5-1-1.5c0,1.5,1,6,1,7.5c1.5,3,5,5.5,5,10.5c-1-2-3,1.5-3.5,0l5.5,6.5c0,1.5-2,0.5-1.5,2.5c0.5,0,1,1,2,1.5
						c-0.5,0.5,0.5,6.5-2,7c-1,0.5-0.5-2.5-1.5-1c0,3,1,3,1,6h-0.5c-0.5,2,1,5.5,2.5,3.5c0-1.5-1.5,0.5-1-1.5c1.5,1.5,2,4.5,2,7.5
						c-0.5-1-1-1-2-1.5c2,4,3,8,3.5,12.5c1.5,0-2.5-1.5-1.5-2.5c-2,5.5,2.5,11.5,0,16c0-1,2-0.5,1.5-0.5c0,2.5-2,2.5-1.5,4.5
						c-1,0,0.5,2,0.5,4c1,1-0.5,0.5-0.5-1c1,2.5,2.5,12.5,1,18.5c0.5,0,2.5,3.5,2.5,5l-1.5-0.5c-1,1,0,4.5-1.5,4.5c2,3-2-11,0-7
						c-1.5,1,2.5,5.5,0.5,4.5c0,2.5,2,5.5,0.5,8c0.5-0.5-2.5-2-2.5,0c0.5,4,1,1,1.5,4l0.5,2c1.5,0,0,3.5,1.5,2c-1.5,0.5,1,5.5-2,5
						l-2-0.5c0,1.5,2.5,2.5,3.5,4c0,0-0.5,0.5-1,0.5c3.5,0.5-0.5,4,2.5,6c-1,3.5,0,8.5-2,10.5c1,2.5,2.5,5,1.5,8.5
						c-0.5-1-0.5-1.5-1-2c-1,2,0,2.5,0,5c-0.5-0.5-2.5,4.5-4.5,6.5c0,3,2,2.5,3,3.5c-2,1-2,3-3,5.5c-0.5,2.5-1.5,5-3.5,5.5
						c0-1,1-4.5-1-3c-2,0.5-2.5,1.5-2.5,3.5s-0.5,4-3,5l3,1c-2.5,0.5-4,6-5.5,3.5c-0.5,2-5,2.5-3,4.5c-4,1.5-8,3.5-12.5,5
						c-4,1-8.5,1.5-11-1c-1,0.5-3.5,0-3,1.5c1.5,1.5,2.5-1,3,0c-1,0-1,1-1.5,1c-2.5-0.5-3.5-1-2-3c-4.5-1.5-4.5,4.5-10,3.5
						c0.5-1,0-1.5-2-1.5l-3,2c-3.5-0.5-2-2.5-2-4.5c-2,0.5-4.5,0-5,1.5l-2.5-2.5c1.5,1.5-1.5,1-2.5,1.5l1-0.5c-0.5-1-2.5-0.5-3.5,0
						c0.5,1,2.5,1.5,4,2c-1,1-2.5,0.5-4,1.5c0.5-2-3-1.5-4.5-1.5c-2-0.5-2,1.5-2.5,1.5c0-1-3,0-1.5-1.5c0.5-0.5,1.5,1,2.5,0
						c-1-0.5-1-2.5-3.5-1c-2,1,0.5,3.5-3,2.5c1-0.5,1-1,2-2l-3-1v1.5c-0.5-0.5,0-0.5-0.5-1c-1,2-5,0.5-5.5,2.5c-1.5,0-3.5-1-5-1.5
						h0.5c-2-1-4.5-0.5-6,1v-0.5c-1,0-3.5,0-5,1c-2.5-1.5-1-6.5-4-4c-2.5,0-4,3-3,4c-5-1-10,1.5-14.5-1c-0.5,0.5-0.5,1-1.5,1.5
						c-7-0.5-15,2-20.5-1.5c2-0.5,0-1.5,0-2.5c-1.5,1.5-2-1.5-2.5,1c0,1.5,0,2,2,3c-4,1-10.5,1-13-0.5c1,0.5,0.5,1-0.5,1.5
						c0.5-2.5-3-3-5-2l-0.5,1.5l-1.5-1.5c-1,0.5-1,3-3.5,1.5c0-0.5-0.5-1-0.5-1.5c-2.5,1-6,3-8.5,2l-2-2c-1,0-3,1.5-1,2
						c-4.5-1.5-7.5-1.5-9-3.5c-7.5,4.5-19,4.5-28,4.5l0.5-1c-2.5-1-1,2-3,1c1-1-2-2.5,0-3.5c-4-1.5-5.5,2-8.5,2
						c-0.5,1.5,2.5-0.5,1.5,1c-0.5,0.5-6-2-7-0.5c-1-1,0.5-2.5,1-3c-1,0-2,0.5-3,0.5c-1-2,1-2,3-3c2-0.5,4-1.5,2.5-3.5h-2
						c-1-2.5,6-1,1-3c-2.5,0.5-5.5,2.5-3.5,4.5c-5-1-4,4-9.5,1.5c-1-2,4.5,2,4-0.5c-1.5-2.5-5.5-1.5-7-3.5c2,2-1.5,3-3,2
						c-2-2.5,3-0.5-0.5-3c-1.5,0.5-5-1.5-3,1.5c-3,1-3-4-6-4c0.5-2.5,6.5,0,4-4c-1,2-5.5-3-6.5,1c-1-2,0.5-3,2-2.5
						c-0.5-2.5-6.5-4-3.5-6.5h-2c0-1,0-2.5,0.5-4c-1-2-5-6.5-2-7c-0.5-0.5-1-6-3-3.5c-0.5,3.5,2,3.5,0,6c1.5-3-1.5-5-2.5-7l1-0.5
						c-0.5-1-0.5-4-2-5c0.5,1,1.5,0.5,1.5-0.5c-0.5-0.5-1-1-2-1c-1-3.5,3-1,2.5-4.5l1.5,2.5c-0.5-0.5,1.5-2,1-3.5
						c-1.5-0.5-3.5-2-5-2.5c-0.5-2,2-1,0-3l2,2.5c0.5,0.5,2.5-1.5,2.5-4.5c-0.5-1.5-3-4.5-4-1.5c0-1.5,1-3,2-2c-0.5-3-1.5,0.5-2.5-2
						c1-1,2.5-4.5,4-6.5l2.5,3v-2c2,2.5,1.5-1,4,0c0.5-1-0.5-3-1-4c-3.5,3.5-5-4-8.5-3c-1-5,8-3,3-8.5c-1,1-3.5-1.5-2.5,1.5
						c0.5-3-3.5-2-2-6c1.5,2.5,3.5-3,5.5,1c-1-0.5-1,2-0.5,3c1.5-1.5,3.5,0.5,3.5-3c-0.5-2-0.5-4.5-2-4c-2,0,0,3-1.5,1.5
						c-0.5-4,2-4.5-1-6c0.5,2.5-1.5,3-3,3l-1-3l1.5,0.5c1-4.5-2.5-1.5-2-6l2.5-2c2,1-1,6.5,2.5,5.5c0-3-1.5-4-0.5-6.5
						c0.5,0.5,0.5,1.5,0.5,2c0-1,4.5-2,2-6c-1-2-1-0.5-2.5-0.5c-0.5-4.5-1.5-6-2-9c2.5,0.5,0-5,3-2c-1.5,1.5-1.5,8,1,10
						c3-1.5-0.5,3.5,2.5,4.5c0-3.5,3-3.5,5-4c0-1-0.5-2-1-2.5c-2-0.5-2,1-3.5,1c0.5-4-0.5-8-2.5-10.5c1-1.5,2.5-1,3,0.5
						c-0.5-5-0.5-10,0.5-15c-3,3-0.5-5-3-3c-0.5,2.5-3,4.5-4,3.5c0-1.5,1.5,0,2-0.5c-1.5-2,2.5-3,0-5c1,4.5,3.5,1,6,1.5
						c-1.5-3,1.5,0,1.5-3c-1.5-3-2.5-7-3-11c2-4.5,0-11.5,0-15.5c1-2,4-0.5,4.5-3c0-2.5-3,2-1.5-2l0.5,0.5c-0.5-1,2-7.5-2-8.5l3,1
						c0.5-0.5-0.5-1.5-0.5-2c1,0,2-1,2.5,0.5c2-2.5-0.5-5-0.5-8l-1.5,1.5c-1.5-4.5,0.5-7.5,0-12h1.5l-1-2.5c1.5,0.5,2.5-2,1.5-3l4,7
						c-1,2-2-2-3.5-1s-1,5,0.5,5.5c0-1.5,0-1.5-1-3c2.5-0.5,2,2,4,3c0-1,0.5-2,0-2c1,1.5,1.5,3,1.5,6c-1-2-1.5,1-2,0.5
						c2,0,2.5,3,2,6c-2.5,2.5,1.5,6,1,10c-2-1.5-3.5-3.5-4.5-6c-1,2.5,0,2.5-1,5c1.5,1,4,2,5,5h-1.5c1,3,3,3,2.5,6.5
						c-0.5,6-0.5,12.5-1,17.5h-1.5c3.5,2.5,1,9,2.5,12.5c-1.5,6,1.5,13-1,16c1,10.5,2.5,20,2,31l-2-2c1.5,2-1.5,1.5-1,3
						c2-2,2.5,2.5,3.5,4c-1.5,5,0,11,1.5,15.5h-1.5c3,4.5,0.5,9.5,0,15c-0.5,0.5-2,1.5-2,3.5c1,1.5,2,2.5,2.5,3.5c0.5,1,1,2,2,3.5
						c0.5,2.5,1,6.5,1.5,9c4,3.5,7,6.5,11,9c4,2.5,8.5,4,13,3.5l0.5,2c2-1,5.5-1.5,9-1.5c3,0,6.5,0,10,0c6.5,0,13,0.5,18-0.5l-1,3
						c3,1,7.5-1,6.5-3c3,1,8-1.5,10,1c3.5,0.5,4-1.5,7-2c6.5,1,9,1,15.5,0.5h-1.5c-0.5,0.5-0.5,2,1,2c2.5-1,8.5,1,6-3
						c6.5,2,15.5-1.5,22,1c-0.5-1,1-1,2-2c6,0,12,2,16.5,0.5c1,0.5-1.5,1.5,1,2c1.5-0.5,0-1.5,2-2c9.5-2,19,2,28,1.5
						c7.5-1,15.5-1,23-1c7.5,0,16.5,0.5,20-0.5v0.5c1.5-1.5,3-1.5,5-2c2-0.5,4-1,3.5-3.5c1,0,2.5-1.5,3,0c0.5-1.5,2-2.5,3.5-4
						s3-3,2.5-5.5c0,0.5,0,0.5,0,1c1.5-1.5,2-3.5,2.5-5c0.5-2,0.5-4,1-6c0.5,0.5,0.5,1,1,1.5c1.5-1.5-3-5,0.5-6.5c0-1.5-2-1-1.5,0
						c1.5-13-1-27.5-1.5-40.9c2-10,6-0.5,3.5-8.5c0.5-0.5-1.5-0.5-0.5-0.5c-1-3,4-4.5,2-7c-2,1-1-1.5-2.5-1.5c1.5-6,3.5-7,1.5-12
						l1,0.5c-3-5.5-1.5-12-5-16.5c-0.5-30.5-2.5-59.9-3-89.9v-1.5v-1v-1.5c0-1,0-2-0.5-3c-0.5-2-1.5-4-2.5-6c-2-3.5-5.5-6.5-9.5-8
						c-2-1-4-1.5-6-1.5c-1,0-2,0-3.5-0.5h-5.5c-7.5,0-15-0.5-22.5-1c-7-3-7.5-3-15.5-1.5c0.5-0.5,1-0.5,0.5-1c-0.5,2.5-5.5,0-6,2.5
						c-11-0.5-21.5,0-32.9,0c2-0.5,2.5-2.5,0.5-2l-2.5,1.5l-0.5-0.5c-1.5,0.5-3,1.5-1.5,2.5c-28.5,2-56.9-3-84.9-2
						c-6.5-1-17.5-0.5-20.5,1c-7-0.5-14,3-18.5,9c-2,3-3.5,6.5-4,10.5c0,1,0,2,0,3v4c0,2.5,0.5,5.5,0.5,8
						C131.3,166.8,124.8,163.8,123.3,154.8z"/>
					<path class="st1" d="M124.8,173.2c-1,1-2,3.5-3.5,1.5C122.8,174.2,123.8,172.7,124.8,173.2z"/>
					<path class="st1" d="M112.3,240.1c0.5,0-0.5,1-0.5,1c0-1-1-1.5-0.5-2.5C111.3,239.6,111.8,239.6,112.3,240.1z"/>
					<path class="st1" d="M111.8,257.1c-1-0.5-2-4-2-6L111.8,257.1z"/>
					<path class="st1" d="M107.3,273.1c-1,1.5-1.5,1-1.5-1C106.3,272.1,106.8,272.6,107.3,273.1z"/>
					<path class="st1" d="M109.8,274.1c0,1.5-0.5,2-1,2.5C109.3,276.6,107.8,273.6,109.8,274.1z"/>
					<path class="st1" d="M106.3,308.5c0,1,1,2.5,0,3.5C107.3,311,104.9,308,106.3,308.5z"/>
					<path class="st1" d="M108.3,324.5c0,0.5-0.5,0.5,0,1.5c-0.5,1-1.5,0-1.5-1L108.3,324.5z"/>
					<path class="st1" d="M380.4,365.9c-0.5,0.5-0.5,1.5-1,2l-0.5-1C379.4,366.4,379.9,365.9,380.4,365.9z"/>
					<path class="st1" d="M390.4,234.6c-0.5-1.5,1-1,1-1.5C391.4,234.6,389.9,232.6,390.4,234.6z"/>
					<polygon class="st1" points="384.9,165.8 384.9,166.3 382.4,165.8 					"/>
				</g>
				<g>
					<path class="st1" d="M320,260.1c-0.5-1.5-2,1-1-1C320,259.1,320.5,259.6,320,260.1z"/>
					<path class="st1" d="M318.5,254.1c-3-2-3.5-4.5-3.5-7.5c-0.5-2.5-0.5-5.5-3-7.5c-0.5-0.5,3-1,2-2c-5.5-3-6.5-10.5-8-17.5h1
						c-0.5-1.5-3.5-1-4-2c0.5-0.5,1,0,1.5-1c-1.5,1-2-1-3.5-0.5c0-1,1-2,1.5-3l-2,1c-4.5,2-3.5-3.5-7-3.5c0.5-0.5,1-0.5,1-1
						c-5-0.5-9-3.5-14-4.5c0.5-0.5,1-1.5,1.5-2.5c-1,2-2.5,1.5-4,1.5c0.5-2.5-2.5,1-3.5-0.5l0.5-0.5c-1.5,2-1-2-2.5,0.5v-2
						c-1.5,3-1-2-2.5-0.5v0.5c-1,0.5-1-1-2-1v-0.5c-2,0.5-2.5-1.5-3,1c-0.5-2,2-0.5,1.5-3.5c-6.5,1.5-12,0.5-18,1c-1-1-1-1-1.5-2
						c-0.5,0.5-2,1-2.5,2c0,0-0.5-1-1-1c-1.5-0.5-0.5,2.5-2,2c0.5-0.5,0.5-1.5,0-2.5c-0.5,2-2,2-3,3c0-0.5,0.5-0.5,0-1.5
						c-0.5,2.5-2.5,0-3,2v-1.5c-2.5-1,0.5,3-1.5,2.5c0-0.5,0-1,0-1.5c-0.5,3-3,3-4,4.5v-0.5c-1.5,1-3.5,1-4,3c-1,0-1.5-3-3-1.5
						c1.5,2.5-2,2.5,0.5,4.5c-1.5,0.5-4,1-4,2c0-1-2.5-2.5-2-3l-2-1c-0.5-1,1-0.5,0-1.5c-0.5,0.5-1.5,2.5-2,2.5c0,2,1.5,5,0.5,6.5
						c0-1.5-2.5-2-2.5-2.5c0.5,2,1,3.5,2,5.5c-0.5,0.5-1.5-1.5-1.5-0.5c0.5,0.5,0.5,1,1,1.5c-0.5,0-1,2-3.5,0.5c-1-0.5,0-1-1-1
						c-1,1,0,1.5-0.5,2.5h-0.5c-1,0.5-0.5,2.5,1.5,2.5c0.5-0.5-1.5-1-0.5-1c1,1.5,0.5,2.5,0,3.5c0-0.5-1-1-1.5-1.5c1,2.5,1,4,1,6
						c1,0.5-1.5-1.5-1-1.5c-2.5,1,0,5-3,5c0-0.5,1.5,0.5,1.5,0.5c-0.5,1-2.5,0-2,1c-1-0.5,0,1,0,1.5c0.5,0.5-0.5,0-0.5-0.5
						c0.5,1.5,1,5-1,6.5c0.5,0,2.5,2,2,2.5l-1.5-0.5c-1,0,0,1.5-1.5,1.5c2,1.5-0.5-4,0.5-2.5c-1.5,0,2,2.5,0,1.5c0,1,1.5,2,0,3
						c0.5,0-2-1-2-0.5c0,1.5,0.5,0.5,1,1.5l0.5,1c1.5,0.5-0.5,1,1.5,1c-1.5,0,0.5,2-2,1.5l-2-0.5c0,0.5,2,1,3,1.5c0,0-0.5,0-1,0
						c3.5,0.5-0.5,1.5,2,2c-1.5,1,0,3-2,3.5c1,1,2.5,1.5,1.5,2.5c-0.5,0-0.5-0.5-1-0.5c-1,0.5,0,1,0.5,1.5c-0.5,0-2,1.5-3,2.5
						c1,1,3,0,4,0c-3,1.5,2.5,2,0,3.5c-0.5,0-2-1-2.5,0c-3,1.5,3,1,1.5,3l2.5-1c-1.5,1,2,1.5-0.5,2c1,0-0.5,2,2,1
						c-1.5,3,3,4.5-0.5,7.5c0.5,0,0.5,1,1.5,0.5c1-1-1.5,0-0.5-1h1c-0.5,1,0,1.5-2.5,2c-0.5,2,4.5-0.5,5,1.5c-1,0.5-1.5,1-1,1h2
						c0.5,1.5-1.5,2-3.5,3c0.5,0.5,1,1,2.5,0.5l-1.5,2c1-1.5,1.5,0,2,0h-0.5c-0.5,0.5,0.5,1,1,1c1-1,0.5-1.5,1-2.5c1,0,1,0.5,2,0
						c-1.5,1-0.5,1.5,0,2c0,1,1.5-0.5,2-0.5c-0.5,0.5,0.5,1-1,1.5c-0.5,0,0.5-1-0.5-0.5c-0.5,1-1.5,2,0,1.5c1,0,2.5-2.5,2.5-1
						c-0.5,0-1,0.5-2,1v1.5l1.5-1c0,0.5-0.5,0.5-0.5,0.5c1.5-1,1.5,1,3-0.5c0.5,0.5,0,1.5,0.5,2l0,0c0,1,1,1.5,2,1l-0.5,0.5
						c0,0.5,1,0.5,2,0.5c0,1.5-3.5,5-1.5,4c1,0.5,3-1.5,3.5-2.5c0.5,2,3.5,0.5,3.5,3.5c0.5-0.5,0.5-1,1.5-1c1.5,2,5,0.5,5.5,4.5
						c-1,0.5-0.5,1.5-1,2.5c1-1,0,1.5,1.5-0.5c0.5-1.5,1-2,0.5-3c1.5,0,3.5,0.5,4,2c0-1,0.5-1,0.5-1.5c-1,2.5,0,3,1,2.5l0.5-1.5v1.5
						c0.5-0.5,1-3,1.5-1.5c0,0.5,0,1,0,1.5c1-1,2.5-2.5,3-1.5l0.5,2c0.5,0,1.5-1.5,0.5-2c1,1.5,2,2,2.5,3.5c3-4.5,6.5-4,9.5-4v1
						c1,1,0.5-2,1-1c0,1,1,2,0.5,3.5c1.5,1,1.5-2,2-2.5c0-1.5-0.5,1-0.5-1c0-0.5,1.5,1,1.5-1.5c0.5,1,0.5,2.5,0.5,3.5l0.5-1
						c1.5,2.5-1.5,5,0,8l0.5-0.5c1,2-1.5,3,0.5,3.5c0.5-1,1-4.5,0-5.5c1.5-1,0-5,1.5-5.5c0.5,1-1,0.5-0.5,2c1,1.5,1.5-1.5,2-1
						c-1-0.5-1-3-0.5-3.5c1,1,0,2,1,2c0-1.5,0.5-2.5-0.5-3c-0.5-3,1.5,0.5,1-2c1,2,0,4.5,1.5,5.5c-0.5-2,0.5-3-1-5.5
						c0.5,0.5,1,2,1,3c1,1,0.5-4,2-0.5l-0.5-2c0.5,0.5,1,1,1.5,2c0.5,0,1-3,2-0.5c0-0.5,1.5-1,0-2.5c-1.5-1-0.5,2-2-0.5
						c1.5,2,1-1,1-1.5l0.5,1c0-0.5,1-0.5,0.5-2c0,0.5,0.5,1.5,1,1.5l-0.5-1.5c0.5-1.5,1.5,2.5,2.5,1.5v1.5c0-0.5,1,1,1.5,0
						c-0.5-1.5-1-3.5-1.5-4.5c0-1,1,1.5,1-0.5l0.5,2c0,0.5,2,2,2.5,1.5c0-1-0.5-3-1.5-3.5c0.5,0,1.5,0.5,1.5,1.5c0.5-1-1-1.5-1-2.5
						c1,0.5,2.5,1.5,4,2l1,2.5l0.5-0.5c0.5,2.5,1.5,1,2.5,3c0.5,0,0.5-1,0.5-1.5c-3-2-2-5-4-7c0.5-1.5,6,5.5,4,0.5c-1-0.5-2-3-2-1.5
						c1-0.5-1.5-3,0-2.5c0.5,1.5,3,2,3.5,4c-0.5-1-1,0-1,0.5c1,0.5,2,2.5,3,2c0.5-0.5,1-1.5-0.5-2.5c-1.5-1.5-0.5,1-1.5-1
						c0.5-1.5,2.5,0.5,0.5-2c-0.5,1-2-0.5-3-1.5c0-0.5,0-1,0-1l1,1c1.5-0.5-1.5-2,0-2.5l2.5,1c1.5,1.5-2,1,0.5,3c0.5-0.5-0.5-2,1-2
						c0,0.5,0,0.5,0,1c0.5,0,4,2.5,3,0c-0.5-1-1-1-2-2c0.5-1.5,0-2.5,0-3.5c2,1.5,1-1,2.5,1c-1.5-0.5-2.5,1.5-1,3.5
						c2.5,1.5-1,0.5,1,3c1-1,3,1,5,2c0.5,0,0-1,0-1.5c-1.5-1.5-1.5-1-3-2c1.5-1,1.5-2.5,0.5-4.5c1,0,2.5,1.5,2,2
						c0.5-1.5,1.5-3.5,3-4.5c-3-0.5,0.5-2-2-2.5c-1,0.5-3.5,0-4-1c0.5-0.5,1,0.5,2,1c-1-1.5,3,0.5,1-1.5c0,2,3,2,5,3.5
						c-0.5-1.5,1.5,1,2-0.5c-0.5-1.5-1-3.5-1-5c2.5-0.5,1.5-4,2-5c1.5-0.5,3.5,1,4.5,0c0-1-3,0-1.5-1l0.5,0.5
						c-0.5-0.5,2.5-2.5-1-3.5l2.5,1c0.5,0-0.5-0.5-0.5-1c1,0,2,0,2.5,0.5c2-0.5,0-2,0-3l-2,0.5c-1-2,1-3,0.5-4.5h1.5l-1-1
						c1.5,0.5,2.5-0.5,1.5-1c1.5,1,2.5,2,4,3c-1,0.5-2-1-3.5-0.5c-1.5,0.5-1.5,2,0.5,2.5c0.5-0.5,0-0.5-0.5-1c2.5,0,2,1,3.5,1.5
						c0-0.5,0.5-0.5,0-1c1,1,1,1.5,1,2.5c-1-1-1.5,0-2,0c2,0.5,2.5,1.5,1.5,3c-2.5,0.5,1,3,0,4.5c-2-1-3-2.5-4-3.5
						c-1.5,0.5,0,1-1.5,1.5c1.5,1,3.5,2,4,3.5l-5.5,1c0.5,1.5,2.5,2,1.5,3.5c-1,1-1.5,2.5-2,3.5c-0.5,1-1,2-1.5,3l-1.5-0.5
						c2.5,2.5-0.5,4,0,6c-1.5,1-1.5,2-2,3.5c-0.5,1-1,2-2.5,2c-1,2-2,4.5-3,6c-1,2-2.5,3.5-4.5,5l-1-2c0.5,2-1.5-0.5-1.5,0
						c2,0.5,0.5,2.5,1,4c-2.5,0-4,3-4.5,5.5l-1-1c0,3.5-3.5,2.5-6,3.5c-0.5-0.5-1.5-1.5-2-1c0,3-1,3-2,5c-1.5,0.5-4,1-5.5,0.5
						c-4,5-10,4.5-15.5,7l-0.5-1.5c-2.5,2-6,2.5-9,2s-6-0.5-8.5,0l1-3c-1.5-1-3.5,0.5-3.5,2.5c-1.5-1-4,1-4.5-2c-1.5-1-2,1-3.5,1
						c-2.5-2-4-2-7-2.5l0.5,0.5c0.5-0.5,1-1.5,0.5-2c-1.5,0.5-3.5-2.5-4,1.5c-2-3-7.5-1.5-9-6c-0.5,1-1,0.5-1.5,1
						c-2.5-1.5-3.5-5-6.5-5c0-0.5,1.5-1,1-1.5c-1,0-1,1-2,1c-2.5-1-4-3-5-5s-2-4.5-3.5-5.5c-6-4.5-9.5-11.5-12.5-18h0.5
						c-3.5-1,1-6-4-6.5c0.5-0.5,0-2,1-2c-2.5-1.5,0.5-5.5-2.5-7.5c0,0.5,0,0.5,0.5,0.5c1-3-1.5-5,0-8c0.5,0.5,0.5,1,1.5,1
						c1.5-1-3-2.5,0.5-3c0-0.5-2-0.5-1.5,0c1-6-0.5-13,0-19.5c3-4,6,1,4-3c0.5,0-1-0.5-0.5-0.5c-0.5-1.5,4.5-1,3-2.5
						c-2-0.5-1-1-2-1.5c2.5-2,4-2,3.5-4.5l1,0.5c-2-3.5,1-5.5-1-9.5c6.5-13,16-25,29.5-32.4c6.5-3,13.5-5.5,21-7.5
						c7.5-1.5,15-1.5,22,0c3,3.5,3,3.5,7,3c0,0.5-0.5,0.5-0.5,1c0.5-2.5,2.5,0.5,3.5-2c5,1.5,10.5,2.5,15.5,5c-1,0-2,1.5-1,2l1.5-1
						v0.5c1,0,2-0.5,1.5-2c7,2.5,13,7,17.5,12.5c4.5,5.5,8,11.5,12,17c1,3.5,4,7,6,10c1,11,0,20,2.5,30
						C326.5,259.1,320,257.6,318.5,254.1z"/>
					<path class="st1" d="M320,262.1c-1,0.5-2,1.5-3.5,0.5C317.5,262.1,319,261.6,320,262.1z"/>
					<path class="st1" d="M301.5,283.6c0.5,0-0.5,0-1,0c0-0.5-1-1,0-1C300.5,283.1,301,283.1,301.5,283.6z"/>
					<path class="st1" d="M298,288.6c-1-0.5-1-2-0.5-3L298,288.6z"/>
					<path class="st1" d="M291.1,290.1c-1-0.5-1.5-0.5-1-1C291.1,289.1,291.1,289.6,291.1,290.1z"/>
					<path class="st1" d="M293.1,291.6c-0.5,0.5-1,0-1.5,0C292.1,292.1,291.6,290.6,293.1,291.6z"/>
					<path class="st1" d="M282.6,297c0,0,0,1.5-1,0.5C282.6,298,282.1,295.5,282.6,297z"/>
					<path class="st1" d="M279.6,301C279.6,301.5,279.1,301,279.6,301c-1,0-1-1-1-1L279.6,301z"/>
					<polygon class="st1" points="201.2,271.6 202.2,272.1 201.2,272.6 					"/>
					<path class="st1" d="M208.7,229.2c0-1,1,0,1.5,0C209.7,230.2,209.2,228.7,208.7,229.2z"/>
					<polygon class="st1" points="223.2,208.2 223.2,208.2 222.2,206.2 					"/>
				</g>
				<g>
					<path class="st1" d="M340,176.7c-0.5-0.5-2,0-1,0C340,176.7,341,176.7,340,176.7z"/>
					<path class="st1" d="M339,175.7c-3-0.5-3-0.5-2.5-1c0-0.5,0.5-1-1.5-1c-0.5,0,3-1,2-1c-4.5,0.5-2.5-1-0.5-4l1-0.5
						c0.5-0.5-2,1-2,0.5c0.5-0.5,0.5-0.5,1.5-1c-1.5,1-1,0-2,1c0.5-0.5,1.5-1.5,2-2l-1.5,1.5c-3.5,3-0.5-1-2.5,0.5
						c0.5-0.5,0.5-0.5,1-1c-2.5,2-2.5,1-4,1.5c0.5-0.5,1-2,1.5-2.5c-1,2-1.5,2.5-1.5,2.5c1-2-1,1.5-0.5,0.5v-0.5c-1,2,0-1.5-0.5,1
						l0.5-1.5c-1,3,0.5-1.5-0.5,0v0.5c-0.5,0.5,0-1,0-0.5v-0.5c-0.5,0.5,0-1-0.5,1.5c0.5-2,0.5-1,1-3.5c-1.5,2.5-2,2-3,2
						c0-1-0.5-1-0.5-2c0,0.5-0.5,0.5,0,1.5c0,0-0.5-1-0.5-1.5c-0.5-1,0.5,2.5,0,1.5c0-0.5,0-1.5-0.5-2.5c0,2,0,1.5,0,2.5
						c0-0.5,0-0.5-0.5-1.5c0.5,2-0.5-0.5-0.5,1l-0.5-1.5c-1-1.5,1,3,0.5,2c0-0.5-0.5-1-0.5-1.5c0.5,2.5,0,2,0,2.5v-0.5
						c0,0.5-0.5,0-0.5,1c-0.5-0.5-1.5-3-1.5-2.5c1.5,2.5,0,1,2,4c-0.5-0.5-1-1-0.5,0c-0.5-1-2-2.5-2-3l-1-1c-0.5-1,0.5,0-0.5-1
						c0,0,0.5,1.5,0,1c1,1.5,3,4,3,4.5c-0.5-1-2-2-2.5-2.5c1,1.5,2.5,2.5,3.5,4c0,0-1.5-1.5-1-1c0.5,0.5,1,1,1.5,1.5
						c-0.5,0,0.5,0.5-1.5-1c-1-0.5-0.5-0.5-1-1c0,0,0.5,0.5,0.5,1h-0.5c-0.5,0,1,1,2,2c0,0-1.5-1-0.5-0.5c1,1,1.5,1.5,1.5,1.5
						c-0.5-0.5-1-0.5-1.5-1c1.5,1.5,2,2,3,2.5c1,0.5-2-1-1.5-1c-1.5-0.5,2,1.5-0.5,0.5c0,0,1.5,1,1.5,0.5c0,0-2-1-1.5-0.5
						c-1-0.5,0.5,0,0.5,0.5c0.5,0.5-0.5,0-0.5-0.5c1,0.5,2.5,1,1,0.5c0.5,0,2.5,0.5,2.5,0.5l-1.5-0.5c-1,0,0,0-1.5,0
						c2,0.5-1.5-0.5,0,0c-1.5-0.5,2.5,1,0.5,0c0,0,2,0.5,0.5,0c0.5,0-2.5-0.5-2-0.5c0.5,0,1,0,1.5,0.5h0.5c1.5,0,0,0,1.5,0.5
						c-1.5,0,1,0-2,0h-2c0,0,2.5,0.5,3.5,0.5c0,0-0.5,0-1,0c3.5,0-0.5,0,2.5,0c-1,0,0,0-2,0c1,0,2,0,1.5,0c-0.5,0-0.5,0-1,0
						c-1,0,0,0,0.5,0c-0.5,0-2,0.5-3,0.5c1,0,3-0.5,4-0.5c-3,0.5,2-0.5-1,0.5c-0.5,0-1.5,0-2.5,0.5c-3,1,2.5-0.5,1,0l2.5-0.5
						c-1.5,0.5,1.5-0.5-1,0.5c1-0.5-1,0.5,1.5-0.5c-2,1,1-0.5-3,1.5c0.5,0,0,0,1.5-0.5c1.5-0.5-1,0.5,0,0c0,0,0.5-0.5,1-0.5
						c-0.5,0.5-0.5,0.5-2.5,1.5c-1.5,1,4-2,3-1.5c-1,0.5-1.5,1-1,0.5l1.5-1c-0.5,0.5-2,1.5-3.5,2.5c0.5,0,0.5,0,1.5-1l-2,1.5
						c1.5-1,1-0.5,1.5-1l-0.5,0.5c-0.5,0.5,0,0,0,0c1-0.5,1-1,1.5-1c0.5-0.5,0.5-0.5,1.5-1c-1.5,1-1,1-1,1c-0.5,0.5,1.5-1,1-1
						c-0.5,0.5,0,0-1,1c0,0,0.5-0.5,0,0c-0.5,0.5-2,1.5-1,1c0.5-0.5,2.5-2.5,2-1.5c-0.5,0.5-1,1-1.5,1l-0.5,0.5l1-1
						c-0.5,0.5-0.5,0.5-0.5,0.5c1.5-1,0.5-0.5,2-1.5l-1,1l0,0c-0.5,0.5,0,0.5,0.5-0.5v0.5c0,0,0,0,0.5-1c-1,1-4,5-2.5,3.5
						c0,0,2-2.5,2.5-3c-0.5,1,1-1.5-0.5,1c0.5-0.5,0.5-1,1-1.5c0,0.5,0,0,0,0s0,0.5-0.5,1c-0.5,0.5-0.5,1.5-1,2.5
						c0.5-1.5-0.5,1.5,0.5-1c0.5-1.5,1-2,1-2.5l0,0v0.5c0.5-1,0-0.5,0-0.5c0,0.5-0.5,1-0.5,1c0,0.5,0,0,0,0l0.5-1c0,0,0,0.5-0.5,1
						c0,0,0-0.5,0.5-1l0,0c0,0.5,0,0.5,0,0.5c0-0.5,0-0.5,0-1l0,0v1c0,0,0-0.5,0-1c0-0.5,0,0,0,0c0-0.5,0,0.5-0.5,2c0-1,0-2,0.5-2.5
						l0,0l0,0l0,0l0,0l0,0c0,0.5,0,1,0,1.5c0,1.5,0-2.5,0-1.5l0,0l0,0v0.5c0-0.5,0-0.5,0-0.5c0,1,0.5,2,0.5,3c0,1,0.5,2.5,0.5,4
						v-0.5c0.5,2,0,2.5,0.5,3.5c0-1-0.5-4-0.5-5c0-0.5-1-5.5-1-4.5c0,1,0,0.5,0.5,2c0.5,1.5,0-1,0-0.5c0-0.5,0-1-0.5-1.5l0,0v0.5
						c0-0.5,0-0.5,0-0.5l0,0l0,0l0,0l0,0c0-0.5,0.5,1,0.5,1.5c0-0.5-0.5-1-0.5-1.5l0,0l0,0l0,0l0,0l0,0l0,0l0,0l0,0l0,0l0,0l0,0l0,0
						l0,0l0,0l0,0l0,0l0,0l0,0l0,0l0,0l0,0l0,0l0,0l0,0l1.5,2l0,0c1.5,2,1,1.5,2.5,3c0.5,0.5,0-0.5-0.5-1c-1.5-2-2-2.5-3.5-4.5l0,0
						c1,1,1.5,2,0,0l0,0l0,0l0.5,0.5c-0.5-1-0.5-0.5-0.5-0.5c1,1,2,2.5,2.5,2.5c0-0.5,0-0.5-1.5-1.5c-1-1,0,0-1-1c0,0,0,0,0.5,0.5
						l0,0l0,0l0,0l0,0l0,0l0,0l0,0l0,0l0,0l0,0c0,0,0.5,0.5,1,1c0.5,0.5,1,1,0,0c-0.5-0.5-0.5-0.5-1-1l0,0l0,0l0,0l0,0l0,0l0,0
						l0.5,0.5c2.5,2-0.5-0.5,2,1.5c0,0,2.5,2,4,3l-0.5-0.5c-1.5-1-1.5-1-3-2.5c0.5,0-0.5-0.5-1.5-1.5c1,0.5,2.5,1.5,2.5,1.5
						c-0.5-0.5,0-0.5,0.5,0c-2.5-1.5-0.5-0.5-3-1.5c0,0-0.5-0.5-1-0.5l0,0l0,0l0,0c1,0.5,3,1.5,4.5,2.5c-1-0.5,1.5,1,1.5,0.5
						c-1-0.5-2-1-2.5-1.5c2,0.5,0-0.5,0-0.5c1,0.5,3.5,1,4,1c0,0-3-0.5-1.5-0.5h0.5c-0.5,0,2,0-2-1l3,0.5c0.5,0-0.5,0-0.5,0
						c1,0,2,0.5,2.5,0.5c2,0.5-0.5-0.5-0.5-0.5h-1.5c-1.5-0.5,0.5-0.5,0-0.5h1.5h-1c1.5,0,2.5,0,1.5,0c1.5,0,2.5,0.5,4,1
						c-1,0-2-0.5-3.5-0.5c-1.5,0-1,0,0.5,0.5c0,0,0,0-0.5-0.5c2.5,0,2,0.5,3.5,0.5c0,0,0.5,0,0,0c1,0.5,1.5,0.5,1.5,0.5
						c-1-0.5-1.5,0-2-0.5c2,0.5,2.5,0.5,2,1c-2.5-0.5,1.5,1,0.5,1c-2-0.5-3.5-1.5-4.5-1.5c-1,0,0,0-1,0c1.5,0.5,3.5,1,4.5,1.5
						l-1.5-0.5c0.5,0.5,3,1,2.5,1.5c-1,0.5-1,1-1.5,1l-1.5-0.5c3,1.5,0.5,1.5,2,2.5c-1.5-0.5,0.5,2-2,0.5c0.5,1.5,0.5,3-1,3.5
						l-1.5-2c1,1.5-1-1-1-0.5c1.5,1,1.5,2,2,3c-1.5-1-1,1-0.5,2.5l-1-1c1,2.5-1,1-1.5,1c-0.5-0.5-1-1.5-1-1.5c1,2.5,0.5,2,1,4
						c-0.5,0-1,0-2-1c-0.5,4-2.5,2-3.5,4.5l-0.5-2c-1.5,4-3.5,0.5-5,2l0.5-3c0-1-1,0.5-1.5,3c0-1-1.5,1-1-1.5c-0.5-0.5-1,1-1.5,1.5
						c-0.5-1.5-1-1-2-1v0.5c0.5-0.5,1-2,0.5-2c-0.5,0.5-0.5-1-2,2.5c0-2.5-3,0.5-2.5-2.5c-0.5,1-1,1-1,1.5c-1-0.5-0.5-2.5-2-1.5
						c0-0.5,1-1,1-1.5c-0.5,0-1,1-1.5,1.5c-2.5,0.5-1-3.5-2-4c-3-0.5-3.5-3-4.5-5l0.5-0.5c-3,0.5,2-2.5-2-1.5c0.5-0.5,0-0.5,1.5-1
						c-2,0,1.5-2-1-2c0,0,0,0,0.5,0c1.5-1-1-1.5,0.5-2.5c0.5,0,0.5,0,1.5,0c1.5-0.5-3-0.5,0.5-1c0,0-2,0-1.5,0c1.5-2-1-3.5-1-6
						c2.5-1,6,1.5,3.5-0.5c0.5,0-1.5-0.5-0.5,0c-1-0.5,4,0.5,2,0c-2-0.5-1-0.5-2.5-1c1.5-0.5,3.5,0.5,2-1l1,0.5c-2.5-2-1-2-3.5-4.5
						c1.5-4,3.5-9,8-12c4.5-1.5,9.5-4,14.5-2c1,3,0.5,3,2,2c0,0.5,0,0.5,0,1c0.5-2.5,1,0,1.5-2.5c1.5,1,3.5,0.5,5,1.5
						c-0.5,0-1.5,2-1,2l1-1.5v0.5c0.5,0,1-1,1.5-2c2.5,0,4.5,2.5,5.5,4.5c1,2.5,1.5,4.5,3,6.5c-0.5,1.5,1,2,2,3
						c-1.5,4.5-4,7-1.5,9.5C346.5,176.7,340.5,176.2,339,175.7z"/>
					<path class="st1" d="M340.5,177.2c-1,0-2,0-3.5,0C338,177.2,339.5,177.2,340.5,177.2z"/>
					<path class="st1" d="M327.5,177.7C328,177.7,327,177.7,327.5,177.7c-0.5-0.5-1.5-1-1-0.5C326.5,177.2,327,177.2,327.5,177.7z"
						/>
					<path class="st1" d="M327,177.2c-0.5-0.5-0.5-0.5-1-0.5l0,0l0,0L327,177.2z"/>
					<path class="st1" d="M326,176.7L326,176.7L326,176.7z"/>
					<path class="st1" d="M326,176.7L326,176.7L326,176.7z"/>
					<path class="st1" d="M326,176.7L326,176.7L326,176.7z"/>
					<path class="st1" d="M326,176.7L326,176.7L326,176.7z"/>
					<polygon class="st1" points="324,177.2 324.5,177.2 323.5,177.2 					"/>
					<path class="st1" d="M324,175.7c-0.5-0.5,1,0.5,1,0.5S324,175.2,324,175.7z"/>
					<polygon class="st1" points="322,170.2 322,170.2 321,168.3 					"/>
				</g>
			</g>
		</g>
	</g>
</g>
</svg>
