<?xml version="1.0" encoding="utf-8"?>
<!-- Generator: Adobe Illustrator 25.2.1, SVG Export Plug-In . SVG Version: 6.00 Build 0)  -->
<svg version="1.1" id="Layer_1" xmlns="http://www.w3.org/2000/svg" xmlns:xlink="http://www.w3.org/1999/xlink" x="0px" y="0px"
	 viewBox="0 0 154.9 1920" style="enable-background:new 0 0 154.9 1920;" xml:space="preserve">
<style type="text/css">
	.st0{fill:white;}
</style>
<g>
	<path class="st0" d="M72.4,1900.1c0.6,1,2.1,0.4,1.8-2.3l-2.5-1.9L72.4,1900.1z"/>
	<path class="st0" d="M77.1,1881.8c-1.2-3.2-3.3-6.9-5.6-4.8c2.4,3.2,1.4,3.9,4.2,7.4c0.3,2.7-0.8,4.8-1.7,4.3c0.6,1-0.5,4.2,1,5.7
		c1.9-3.6,2-8.1,0.4-12.7C75.9,1880.6,76.6,1881.6,77.1,1881.8z"/>
	<path class="st0" d="M80.9,1615.1l-0.3,1.7C80.8,1616.4,80.9,1615.8,80.9,1615.1z"/>
	<path class="st0" d="M82.3,1449.9c0.1,1.3,0.3,1.8,0.5,1.8C82.7,1450.6,82.5,1449.6,82.3,1449.9z"/>
	<path class="st0" d="M85,1421.7c-0.1,0.6-0.1,1.1-0.2,1.7C85.1,1422.7,85.2,1422.1,85,1421.7z"/>
	<path class="st0" d="M80.9,1615.1l0.8-4.4C80.9,1610.4,81.1,1613,80.9,1615.1z"/>
	<path class="st0" d="M71.1,1845c0.1,0.9,0.4,1.7,0.7,2.4c-0.1-0.8-0.2-1.5-0.3-2.3C71.3,1845.1,71.2,1845.1,71.1,1845z"/>
	<path class="st0" d="M83,1688l0,1.3c0.3,0.4,0.6,0.8,1,1.1L83,1688z"/>
	<path class="st0" d="M83.3,1743.9c0.1-1.3-2-1.7-2.9-2.2c0.9,0.7,1.3,1.6,1.4,2.8C82.2,1744.4,82.7,1744.3,83.3,1743.9z"/>
	<path class="st0" d="M79.6,1832.5l0.3,1.6C79.8,1833.7,79.7,1833,79.6,1832.5z"/>
	<path class="st0" d="M83.4,1647.9c0.3-0.1,0.6-0.3,0.8-0.5C83.9,1647.4,83.7,1647.6,83.4,1647.9z"/>
	<path class="st0" d="M67.5,84.5c0.2,0,0.2,0,0.4,0C67.7,84.1,67.5,84,67.5,84.5z"/>
	<path class="st0" d="M78,19.7l0.1,0.9c0.4,0.1,0.8,0.2,1.2,0.2L78,19.7z"/>
	<path class="st0" d="M87.8,1370c0,0.1,0,0.1,0,0.2C88,1371.6,87.9,1370.9,87.8,1370z"/>
	<path class="st0" d="M86.2,896.1c-1.9,5.4-2.4-8.7-4.5-0.7C82.5,894.7,85,902.8,86.2,896.1z"/>
	<path class="st0" d="M71.3,1843.6c0-0.8,0-1.5,0-2.3C71.2,1842.3,71.2,1843,71.3,1843.6z"/>
	<path class="st0" d="M81.7,895.4C81.7,895.4,81.7,895.4,81.7,895.4l-0.2,0.8C81.5,895.9,81.6,895.7,81.7,895.4z"/>
	<path class="st0" d="M86.5,1251.1c-0.4,0.2-0.7,0.7-0.9,1.2C85.8,1252.3,86,1252,86.5,1251.1z"/>
	<path class="st0" d="M83.5,1339.7l0.3-2.2C83.6,1338.4,83.5,1339.1,83.5,1339.7z"/>
	<path class="st0" d="M83.5,1205.1c0.2-1.2,0.5-1.6,0.2-3.2c-0.1,0.2-0.2,0.3-0.3,0.5C83.7,1202.9,83.8,1203.7,83.5,1205.1z"/>
	<path class="st0" d="M83.5,1157.2c-0.2,0.3-0.3,0.6-0.4,0.9c0,0.5,0.1,1,0.1,1.5L83.5,1157.2z"/>
	<path class="st0" d="M68.5,230c0.6-1,1.3-1.7,1.9-2.2C68.9,228.5,68.4,221.5,68.5,230z"/>
	<path class="st0" d="M72.2,1845c-0.5-0.3-0.8-0.7-0.9-1.4c0,0.6,0.1,1.1,0.1,1.6C71.8,1845.3,72.1,1845.3,72.2,1845z"/>
	<path class="st0" d="M66.8,1203.1l0.3-7.6C66.9,1197.6,66.8,1200.4,66.8,1203.1z"/>
	<path class="st0" d="M68.8,573.6l-0.3-1.7C68.5,572.5,68.6,573.1,68.8,573.6z"/>
	<path class="st0" d="M66.8,1172.9c0.7-1.4,1.2-2.8,1.5-4.3c-0.2-0.3-0.3-0.7-0.5-0.9L66.8,1172.9z"/>
	<path class="st0" d="M70.5,227.8C70.5,227.8,70.4,227.8,70.5,227.8C70.4,227.8,70.5,227.8,70.5,227.8z"/>
	<path class="st0" d="M65.4,177.7c-0.1,7.3,2.7,3.4,4.3,4.9c0.8,8.7-2,4-3.5,7c0.7,5.4,3.3,9.5,3.2,13.6c-0.5,0.3-0.6,1.1-1.2,0.2
		c2.2,5.7,0.1,17,2.9,23.6c-0.2,0.5-0.5,0.7-0.7,0.9c1.4-1.1,2.8-1.2,3.8-1c0,3.3,1.8,6-0.1,7.3c0.1-2-0.7-2.2-1.2-3.1l0.8,3.4
		c-2.6,3.1-0.9-4.6-2.8-4.6c0.8,6.6,3,14.4,2.3,19.5c-2.6,1.1-0.9-11.9-3.1-5.1l1-7.9c-4,6,0.3-4.8-4,0.7
		c-0.7,10.4,1.3,11.6,0.6,21.9c1.4,2.3,2.1-0.8,3.5,1.6c2.6,14.7-6.4,11.6-3,22.4c1.7,2.8,4.9,3.9,3.2,11.6l-2.9-2.6
		c-0.3,10,4.2,5.7,2.2,16.2c-1.1-1.9-1-7.9-1.3-6.4c-2.3,6.8,1.6,4.8,1.6,10l-2.6,1.1c0.4,10.7,2.2,22.4,2.7,34.3
		c-0.8-0.7-1.6-2.7-2.3,0.1c1.3,14.9-0.3,31.8-1.8,46.2l2.2,5.5c0,1.3-1,2.4-1.4,1c-0.8,5.6,1.4,0.3,2.3,3c0.2,3.2-1.3,4.2-1.9,2.2
		c1.9,9.9,4,28.2,1.7,38.6l-0.7-2c-0.9,8.1,4.5,9.2,2.5,16.7l-0.4-1.4c-1,17.6,1.1,37.1-2.3,50.5c3.2,2.6-1.4,17.4,3,18.6
		c-2.2,10.1-3,7.2-4.5,21.4c-0.2,3.8,2.8,5.6,3.2,10.3l-2.3,0.1l2.4,6.4l-2.8,3.4l0.6,4.4c0.1-1.7,1-3.7,1.7-3.5
		c1.1,6.9-1.6,16.7-2.8,16.9l2,16.2c-0.9-0.4-1.3-3.1-1.8-5.2c2.4,8.7-2.4,1.6-0.3,9.5c0.5-1.1,1.4,0.6,1.8,0.8
		c-1.4,4-1.4,13-0.8,19.6l-1.6-1.3c-0.4,12,0.8,25.4,0.7,38.9c0.7-4.8,3.5-3.7,3.8,0.2l-2.4,1.6c1.5,2.6,0.9-4.1,2.8,1.1
		c-0.3,5-2.8,3.4-3.6,0.5l0.9,6.1c-0.7,0.4-1.1-1.1-2-1.5c1.5,2.5-2.5,10.6,0.2,14.2l-0.7,0.3c0,13.5,0.8,19.6,0.9,30.6
		c2.1,0.2,1.6,4.5,3.4,7.8c-0.7,8.1-2.3,17-2.2,26.8c1.1,6.8,1.8,2,3,5.1c-1.9,0.5-1.7,10.2-3.1,5.2c0.3,11.7,0.4,14.9,1.9,29.7
		c0.8-1.6,1.1-3.4,1.8-2.5c0.3,2.7-0.8,6.1-1.7,5.7l-0.2-0.7c2.9,16.6-5.6,38.3-1.6,51.5l-0.2-0.7l2.1,13.7
		c-0.3,6.3-1.4-3.8-2.6,0.9c3.2,14.8-0.5,23.3,1.7,35.5c-5.7,9.4,0.4,33.4-3.2,46.1l1.3-0.7c1.3,3.3-0.8,4-1.1,6.4
		c1-0.3,1.2-3.6,1.9-1.5c1.6,27.8-2,57.5-3.2,86c-0.4,10.4,6.9,5.9,3.7,19.1l-2.5-3.7c3,21.1-0.1,43.1,2.4,63.7
		c-0.6-1.2-1.3-1.3-1.3-3.3c-1.8,4.4-0.1,16.1,1.4,16.2c-0.2,3.2-1.3,0.7-2.1,2.7c-1.1,4.4,2.3,11,0.5,13.3c-0.3,0.4-0.6-1.2-0.7-2
		c0.9,2.8-0.2,13.3,1.9,10.5c-1,7.7,0.9,14.8-0.3,21c2.3,4-1.1,13.2,2.2,14.5c-3.4-0.6-2.7,13.6-1.1,18.5c-1-1.6-1.1,4.3-2.5,2.3
		c0,5.6,0.7,10.7,2.4,9.7c-4.1,10.3,3.3,20.7-1.9,26.5c1.8,16.6,3.1,31.9,3.9,46.9c-3.4-0.5-0.3-16.5-3.9-15.9
		c1.4,14.2,4.3,22.3,3.5,36.4c-0.5,3.6-1.5-2.1-2.1-3.3c1.4,14.1-0.3,27.3,1.5,39.9c-0.3,0-0.7-1.4-0.9-2.7c0.1,2.5-0.5,5.8,1,5.5
		l-0.4-2.4c2.2-4,4.7,9.8,5.9,10.3c-4.4-4.2-1.1,12.4-6.7,5.7c0.3,1.6,1,3.7,2.1,3.3c-0.3,2.4-0.9,3.2-2.1,0.7
		c0.8,8.9,2.5,5.7,2.4,13.8c-0.7,0-1-1.7-1.9-2.5c1.5,4.1,2.9,8.2,2.3,15c-0.4-0.4-1,0.4-1-1.6c0.2,11.7,3.9,19.9,2.5,32.7
		c-3.2-3.8-1.1,4.4-3.9,5l0.8,6.9l1.4-2.8c0,6,2,11.4,1.1,16.6l-1.2-4.5l0.5,11.3l1.1-6.4c1.4,6.1,3.6-0.7,2.8,7.4
		c-0.3-1.6,0,6-1.7,9.2c0,0,0,0,0,0c0.9,3,1.8,6.1,1.1,10.5c-0.9,1.2-3.1-0.9-3.7-0.2c2.3,2.9,0.7,14.1,3.2,17.9
		c-0.6-1.2-2.1-1.3-2.4-0.9l1.9,2.5c-0.6,2.8-0.9,3.2-2.1,2.8c-0.3,8.4,3.6-2.7,2,7.3c-0.2-0.8-0.4-0.4-0.7-2
		c-0.8,10,1.2,19.4,0.3,28.6c-2.8,2.7-0.7-8-3.1-4.9c0.5,13.3,3.4,27.5,2.7,40.4l0.3-2.4c4,1.8-2,9.6-0.1,16.1
		c-0.3-1.6-2.2-2.1-1.8-1.7c-0.6,8.8,1,18,2.2,31.3l-1-1.7c-0.9,5.2-0.5,13.7-1,19.3c1,1.7,0.9,4.9,2.3,2.9
		c-5.8,17.3,3.1,33-1.7,48.3c0-1.8-0.9-4.4-0.9-2.9l0.9,13.1c1.7-1,1.1-1.7,2.4-4.5c1,1.7,1.8,5.3,1.8,8.6c-1.2-5.9-2.8,0.1-3.8,2.6
		c0.5-0.4,1.1,0.4,1.7,0.2c-3.1,6.8,3.5,1.1,1.4,10.5l-0.9-0.5c0.5,3.5,1.7,6.7,1.4,10.5c-2,1.6-0.9-3.7-2.6-3.9
		c0.1,5.3,3.8,10.4,1.8,15.2c-0.6-2.2-0.6-5.5-1.1-7.7c-2.4,5.2-1.8,5.8-2.1,9.7l0.1-0.4l-1.1,8.9l0.6-2.3c5.2,6.6,1,13.5,4.4,22.4
		c-3.3-8.6-1.9-1.4-4.2-2.1c-0.6,2.3-1.3,5.7-2,4.7c1.8,4.2-1.4,7,1.2,13c-0.7,0.3-0.1,4.5-1.9,3.6c0.6,5.5,1.3-1.3,2.2-0.8
		c2.5,8.4-3,19.8,0.4,31.9c1.4,10.5,3.9,12.4,5.1,22.1c-1.2,3.3-2.7-2.7-2.7-2.7c-1.1,5.3-0.9,9.3,0,14.2c-0.6-1-1.2,0-2,1.5
		c0.2,4,2.7,2.7,1.6,7.9c-0.8-0.9-2.1-2.1-2.9-4c0.7,4.7,2,9.4,2.7,14.2c-1.3,1.3-1.9-2.9-2.8-4.7c0.6,5.5,1.2,14.2,3.2,15.9
		l0.7-3.5c0.1,2-1.7,1-2.1-0.4c-1.6-4.7,0.7-6.8,1.4-7l0.5,3.5c4.3-3.6-0.7-13.9-0.4-20.9l3.1,2.9l-2.6-7.2c0.8-1.5,2.6-2.6,3,0.9
		c1.5-5-1.1-4.4,0.6-8.7c0.3-0.5,0.4-0.3,0.5,0.2l-0.9-4.9c0.7,1,2.2-0.8,1.8,2.2c1.8-8.8-2.3-14.2,0-17.5l0.2,0.7
		c-1.1-12.2-2.3-1.2-5-10.3l5.7-6.2l-2.3-1.2c0.1-1.3,0.3-3.7,1.2-3.3c-1.6-4.7-1,0.8-2.5-1.9c2.1-6.1-1-16.7,2.7-18.1
		c-1.7-2.2-1.3,5.8-2.6-0.7c3.9-1.8-0.7-7.5,1.1-13c2,1.7,1,6.9,2.8,1.4c-3.4-3.3,0.8-10.8,0.1-15.4c-2.7-0.2-1.1-10.1-2.1-18
		c0.9,0.5,1.5-14.7,2.5-22l0.5,0.2c-2.8-1.4-2.2-8.9-2.8-14.4c1.7,0.2,2.3,1.2,3,4.2l0-5.1c-0.9-1.2-1.4-2.8-1.7-6.2l2.1,1.3
		c-0.1-6.8-2.4-13.8-1.1-22.6c-1.9-0.5-5.4,7-6.6-2.3c1-0.3,2.8-0.7,3.2,1.7c-0.1-0.8-0.9-2.8-0.4-4.5l1.8,3.7
		c0.8-4-1.5-2.1-1.3-5.3c1.5,0.1,1.1-2.4,2.2-1.9c0.1,0.8-0.6,2.8,0,4c0.3-3.6,1.1-8,2.3-9.4c-0.8,0.3-2,0-2.2-2.6
		c-0.1-6.8,1.8-2.3,2.5-6.3c-1-1.7,0-6-2.2-6.1c0-2,1-2.4,1.6-3.1c-1-3.5-0.3-16.5-2.6-12.5l-0.2,0.9c0-0.2,0-0.4-0.1-0.6
		c0,0,0,0,0,0v0c-2.2-11.6,1.3-24.1,0.3-35.6l0.7,0c-0.8-6.9-0.5-15.3-2.1-20.2c0-2,1.4-4.8,2.2-3.9c-0.6-5.3-1.4-5.8-0.2-13.4
		c1.3,5.3,1.1-1.8,0.9,5.4c0.6-6.8,1.8-8.4-0.2-15.7c1.9,2.5,2.4-5.1,1.8-8.4l-1.4,4.8c-0.3-3.6-0.1-6.8,0.1-10.1l2.5,1.8
		c3-14-5.2-25.2-0.1-35.8c-1.8-3.7-1.2,7.6-3.3,4.3c0.3-6.4,3.9-13.1,3.9-15.1c1.4-8.8-3.7-8.2-2.7-17.4c-0.9,1.2-3.3,2.3-4.1-4.6
		c0.3-6.4,3.7-7.9,4.5-3.8c0.1,1.5-0.2,2.3-0.5,2.2c0.3,2.1,0.7,4.8,1.7,2.3l-0.9-0.8c0.9-3.2,0.8-12,2.3-10
		c-0.8-4.9-1.5-2.1-1.9,1.5c1.3-8.2,0-12.9,0.9-21.4c-0.5,1.3-1.5,2.6-1.5,1.2c1.1-12.5-1.7-5.5-2.1-13.9c1.4-4.8,3.2,1.7,2.1-6.8
		c0.9-5.2,2.4-1.1,3.1,1c-1.7-7.7,1.1-14.5,1.4-18.9l0.7,4.1c-0.4-2.4-0.4-4.4-0.4-6.5l-1.8,2.3c0.3-2.4,0.3-4.4,1.1-4.4
		c-1.2-2.5-3,1.9-4.6-3c0.9-3.2-1-9.7,1.4-10.8c-0.8,10,2.4-1.1,2.8,7.4c-0.3-1.6-0.3-3.6,0-6c0.3-0.4,0.5,0.3,0.6,1
		c2.1-9.6-2.7-4.4-2.6-14.4c1.3,1.3,2.5-2.3,2.2-3.9c0,4-2.2,1.9-3.3-1.8c1-6.4-0.8-6.9-0.7-10.3l-0.5,3.8c-1.3-1.3-1.2-4.5-1.6-8.9
		c1-0.4,0.7,4,1.2,2.5c-2.3-4.9,2.4-11.2,0.8-18c0.9-3.2,2.5-0.3,3.1-3.1c-1.7-7.7,1.8-8.4,0.4-16.5c-1.8,2.3-1.4,2.7-3.1-3
		l1.3,13.3l-2.6-8.6c0,4,1.1,8.5,0.8,10.9c-1.5-4.1-1-3.7-2.5-1.7c2.7-5.5-1.6-10.9,0.2-17.3l4.4,0.2c2-9.6-2.3-17-1.2-29.4l-0.8,4
		c-1.8-1.7-0.2-7.7-1-11.7c1.5,0.4,2-2.1,2.9-3.9c-1.1,0.2,0.1-9.1-2.9-10.2l2-5.5c0.8-10-4.2-11.5-3.7-21.1c1.6,2.9,2.7-1.5,3.8,5
		c0-3.2,0.3-6.1-0.7-6.2c0.9-1.9-2-8.9-0.6-11.9c-0.7-1.4-2.2-1.8-2.1-5.4c0.3-0.4,0.7,0,0.7,0c-0.7,0-1-5.7-2.6-2.5
		c4.6-9.9-0.3-27.7,3.6-36.4c-0.5-7-1-15.5-1.1-21.9c0.4,0.4,0.7,0,0.6,1.2c1.4-8.8-4.3-5.4-2.7-15.4c2.4-5.1,1.3,5.3,2.2,2.1
		c4.9-1.4-0.7-12.1,2.2-18.8l0.3,1.6c1.7-5.2-1.9-12.6-1.5-21c0,0,0.4,0.4,0.7,0c-2.5-5.8-3.3-16.7-4-24.8c1.9,2.5,1,3.7,3,2.1
		c-0.3-3.6-3.1,1.1-3.7-6.2c1-2.4,2-7.6,4-8.3l0.1,6.8c2.7-3.5-0.1-8.8,0.4-12.5l1.2,0.5c-0.4-10.5-3.3-10.6-3.1-21.9l-0.9,1.2
		c-2.9-6.2,1.6-5.2-0.5-11.3l3-1.9c-0.7-4.1-2.9-14.2-3.4-21.5c2.2,4.1,3.3,12.6,4.6,17.9c0-4-0.2-13.7-1.7-15.8
		c0.3,1.6,1,3.7,0.6,5.3c-2.3-4.9-3.5-11.4-3.4-19.5c5.8,1.4,1.5-20.9,5.9-26.7c-2.1-14.2,0.9-28.1,0.6-44.7
		c-4.5,5.9-0.1-4.8-4.7-3.8c-0.3-3.8-0.2-5.3,0.1-5.7l2.7-11.7c1.3-2.8,1,3.7,2,3.3c0.4-8.4,1.9-3.5,3.2-9.1
		c-1.6,1.1-2.4-2.9-1.7-7.7l-2.1,6.8c-2.4-11.8,3.9-10.2,1.4-22.1l1.4,3.8c-0.9-6.1,0-22.5-3.7-28.4c0.5-1.1,1.8-2.5,2.1,0.2
		c0.6-14.6-3.9-32.4-1.7-43.7l1.1,1.1c-0.3-2.7-2.1-4.7-1-8.1c0.5,0.2,1.1,1.1,1.2-0.2c-0.4-1.4-2-7.2-1.3-10.8l1.3,3.1
		c1.5-14.2-3.1-21.8-3.9-33.7c3.3,0,4.4-11.1,4.9-16.7l0.5,0.2c0.4-16.5-2.7-28.1-4-43.4c3.6-9.5,1.5-32.2,3.5-47.5
		c-0.6,2.3-2.6-0.4-2.9-3.1c0.7-3.6-2.3-9.9,0.7-9.3l-0.1,1.3c3-2.7,2.2-10.1,2.3-15.8l-4-0.9c5.8-15.1-2.1-39.4,3.1-47.6
		c-1-3.6-1-8.1-2-11.7l2.1,0.2c0.5-10.1,0.8-15.1,0.3-27.5l1.5,2.5c0.1-7-6.1-8.9-6.3-15.3l3.2-1.9c0-12.2,2.7-24.6-0.1-36.7
		c0.5,0.2,1.4,0.6,1.5,2.5c0.1-5.8,2.2-22.3-2.2-20.2c2.8-0.1,0.3-12.6-1-19.2l2.1,1c-2.7-5.6-3.4-5.8-4.2-13.5
		c0.3-1.8,1.7-1.6,1.1,0.8c1.1-6.2-2-4.8-0.9-12.3l1.3,2.8c0.2-6.3-0.6-5.8-2.1-9.3c-0.8-4,0.5-12,2.4-12.9
		c-1.2-0.9-2.7-4.3-2.2-8.1c0.7-0.5,1.2,0.9,1.4,1.5c1.4-10.6-2.4-15.7-0.4-23c0.7-0.2,1-0.6,1.3-1.2c-0.1,8.4-0.2,15.2-0.3,14.5
		c1.9,0,2.3-6.8,4.9-1.4c-1.5-5.5-4.6-14.8-3.7-21.4c0.2-0.3,0.4-0.6,0.7-0.9l0.2,0.7c0.2-1.5,0-2.9-0.3-4.2
		c0.3-2.1,0.6-3.5,0.6-5.5c1.6-0.8,0.9-7.8,0.9-11.2c-2.1,0.3-1.8-4.2-3.5,0c0.2-0.5,0.3,0.6,0.3,2.9c0.1,0.5,0.1,1.1,0.2,1.4
		c-0.1-0.1-0.1-0.1-0.2-0.2c0.1,2.2,0.1,5.1,0.1,8.4c-1.1-2.7-2-5.5-0.8-9.2c-1.4-1.7-2.8-3.7-3.4-4.7c2.9-4.6,4.5-13.6,6.4-14.8
		c-1.2-10.3-0.8-24.4-4.8-30.9c-0.5-2.9,1.1-3.4,1.8-4.5c0.4,1.7,0.3,3.7,0.9,4.6c-1-5.9-0.4-17.4-3.2-18.8c1.3-7.4,2.6,4.2,2.1-6
		l0.8,1.4c4.4-20-7.1-32.6-1.4-54.8c-0.3,1.5-0.5,2.3-1,2.6c2.5-25.3-2.4-52.2,1.6-77.2c0.8-7.1-1-7.9-2.3-12.2l2.3-1.5l-2.6-7.4
		c-1.9-10.5,5.6-18.2,1.9-31.5l-1.5,1.7c0.3-4.8-0.9-15.1,0.9-14.3c-0.3-0.5-1.6-1.6-0.8-3.4l1.2-0.1l-2-11.7
		c0.9-9.1,4.7,1.4,4.9-11.9c-0.5-4.9-3.5-14.1-4.3-12.2c-0.1,2-0.7,5.1-1.9,5.2l-0.6-4.5c-3.5-0.8-7.1-4.3-9.5,6.8l2.1,7.7L69,37.6
		l-0.1-6.5c-1.6,3.7-0.2,6,0.8,8.6c-0.9,0.6-1.5,1.7-1.9,3.2l3.3,7.6c-1.4,0.9-2.7-3.4-3.5,1.7c1.6,3.6,3.1-3.4,4.1,2.5
		c-1.6,3.7-2.9,2.6-1.5,7c-0.9,0.6-1.5-0.3-1.9-2c1.1,3.9,0.5,10.2,2.3,12.2c-2,3.8,0.5,13-2.8,12.6c0.8,1.2,2.6,6.8,2.7,10.3
		c-4-6.5-0.2,13.3-4.5,11.6c3.6,4.8,1.6,17.3,3.6,25.8c-0.3-0.5-0.9-1.4-0.7-2.2c-0.3,4.8-1.4,6.2-2,9.2c2.9,0.6,3.6,8.1,5.4,12.1
		c-2.8,5.9-3.5-3.6-6.2-1.7c2.4-0.3,2.4,10.2,4.4,8.2c-1.8,4.5-0.9,3.9-3.3,6.2c3.7,0.8,0.6,4.2,2.9,7.9c-1.8,6.5-3.5,1.7-2.3,8.8
		C66.7,184,65.4,177.7,65.4,177.7z M71.8,347C71.8,347,71.8,347,71.8,347c-0.1-1.5-0.1-2.7-0.2-3.5C71.7,344.2,71.7,345.3,71.8,347z
		 M71.8,361.2c0.1-1.7,0.1-3.9,0.1-6.2c0.7-0.5,1.5,0,1.4,1.5C72.9,355.8,72.5,359.1,71.8,361.2z M86.5,331.1c0.3,2.3-0.1,3-0.5,3.3
		c0-1.1-0.1-2.3-0.3-3.9c-0.1-0.1-0.2-0.2-0.3-0.3C85.8,330.5,86.2,330.7,86.5,331.1z"/>
	<path class="st0" d="M83.7,327.1c0-0.3-0.1-0.5-0.2-0.9c-0.2,0.5-0.3,0.9-0.5,1.3c0.2,0.3,0.4,0.6,0.7,0.8
		C83.7,327.9,83.7,327.5,83.7,327.1z"/>
	<path class="st0" d="M80.6,1617.1l0-0.3c-0.1,0.2-0.2,0.5-0.3,0.6C80.4,1617.3,80.5,1617.3,80.6,1617.1z"/>
	<polygon class="st0" points="67.8,557.8 68.3,557.7 67.9,556.5 	"/>
	<path class="st0" d="M73.3,1695.5c-0.2,0.1-0.4,0.4-0.5,1C72.9,1696.5,73.1,1696.1,73.3,1695.5z"/>
	<path class="st0" d="M72.9,1729.4l-0.8,4.8C72.5,1732.1,72.7,1730.6,72.9,1729.4z"/>
	<path class="st0" d="M71.8,1755.4c0.4,0.3,0.6,0.4,0.9,0.5c0,0,0,0,0-0.1L71.8,1755.4z"/>
	<path class="st0" d="M69.3,1341.5c0-0.3,0-0.7-0.1-1C68.8,1338.1,69,1339.7,69.3,1341.5z"/>
	<path class="st0" d="M74.3,1464.7c-0.4-1.3-0.8-2.6-1-4C73.1,1462.9,73.1,1464.6,74.3,1464.7z"/>
	<path class="st0" d="M66.8,1204C66.8,1204,66.8,1204,66.8,1204c0-0.3,0-0.5,0-0.8L66.8,1204z"/>
	<path class="st0" d="M73.3,1455c-0.4,2.2-0.3,4,0,5.7C73.4,1458.9,73.6,1456.8,73.3,1455z"/>
	<path class="st0" d="M70.9,1868.2l-0.1,1.3c0.1,0,0.3,0.1,0.3,0.1L70.9,1868.2z"/>
	<path class="st0" d="M71.1,1869.6l0.2,1.4C71.4,1870.4,71.3,1869.8,71.1,1869.6z"/>
	<path class="st0" d="M71.9,1874l-0.5-2.9C71.4,1872,71.3,1873.3,71.9,1874z"/>
	<path class="st0" d="M71.8,1833.8l-0.8-0.4C71.2,1833.6,71.5,1833.7,71.8,1833.8z"/>
	<path class="st0" d="M71.6,1823.3c-0.2,2.5-1.6,6.3-1.2,9.8l0.6,0.3C69.9,1831.7,72.9,1825.7,71.6,1823.3z"/>
	<path class="st0" d="M81.1,1779.6l-0.6,8.8c0.8-1.5,1.9-3.6,2.1,0.4C85,1777.7,80.8,1791.1,81.1,1779.6z"/>
	<path class="st0" d="M82.3,1752.4c0.4,4.7,1.2-0.1,1.6,0.2C83.2,1749.6,83,1748.9,82.3,1752.4z"/>
	<path class="st0" d="M82.3,1555.7l1.9,0.5C83.9,1552.6,83.5,1556.2,82.3,1555.7z"/>
	<polygon class="st0" points="72.3,1518.2 71.1,1521.7 72.9,1523.4 	"/>
	<polygon class="st0" points="86,1495.9 86.3,1497.5 85.6,1491.5 	"/>
	<path class="st0" d="M85.4,1165.7l-2.4,1.1C83.4,1169.3,86.1,1169.8,85.4,1165.7z"/>
	<path class="st0" d="M82.9,1023.1c1.2-1.6,1.9-5.6,0.8-8C83.6,1018.3,82.6,1021.5,82.9,1023.1z"/>
	<polygon class="st0" points="86.8,595.6 87.6,598.4 86.9,593 	"/>
</g>
</svg>
