<?xml version="1.0" encoding="utf-8"?>
<!-- Generator: Adobe Illustrator 25.2.1, SVG Export Plug-In . SVG Version: 6.00 Build 0)  -->
<svg version="1.1" id="Layer_1" xmlns="http://www.w3.org/2000/svg" xmlns:xlink="http://www.w3.org/1999/xlink" x="0px" y="0px"
	 viewBox="0 0 500 500" style="enable-background:new 0 0 500 500;" xml:space="preserve">
<style type="text/css">
	.st0{fill:black;}
	.st1{fill:white;}
</style>
<g id="mail" onclick="life.html">
	<circle class="st0" cx="249.3" cy="246.7" r="208.1"/>
	<g>
		<g>
			<g>
				<path class="st1" d="M467.9,253.2c1.5,0.5,4.5,0.5,3.5-1.5l-5-1.5L467.9,253.2z"/>
				<path class="st1" d="M476.4,240.1c-2.5-2-7-4.5-11.5-2.5c5,2,3,2.5,8.5,4.5c0.5,2-1.5,3.5-3.5,3c1.5,0.5-1,3,2,4
					c3.5-2.5,3.5-6,0.5-9C473.9,239.1,475.4,239.6,476.4,240.1z"/>
				<path class="st1" d="M390.7,71.2l0.5,1C391.2,71.7,391.2,71.2,390.7,71.2z"/>
				<path class="st1" d="M275.8,27.5c1,0,1.5-0.5,1.5-1C276.3,26.5,275.8,27,275.8,27.5z"/>
				<path class="st1" d="M254.3,21.5c0.5,0,1,0,1.5,0.5C255.3,21,254.8,21,254.3,21.5z"/>
				<path class="st1" d="M390.7,71.2l-2-3.5C387.7,68.7,389.7,69.7,390.7,71.2z"/>
				<path class="st1" d="M461.4,216.1c0.5,0.5,1,1,1.5,1.5c-0.5-0.5-0.5-1-0.5-1.5C461.9,215.6,461.9,215.6,461.4,216.1z"/>
				<path class="st1" d="M433.8,104.8l0.5,1c0.5,0,1.5-0.5,2-0.5L433.8,104.8z"/>
				<path class="st1" d="M458.9,139.4c-0.5-1-4,1-6,1.5c2-0.5,3,0,3.5,0.5C457.4,140.9,458.4,140.4,458.9,139.4z"/>
				<path class="st1" d="M476.4,203.5l1,1C476.9,204.5,476.9,204,476.4,203.5z"/>
				<path class="st1" d="M413.2,82.7c0.5-0.5,0.5-1,0.5-1.5C413.2,81.7,413.2,82.2,413.2,82.7z"/>
				<path class="st1" d="M453.4,295.8C453.9,295.8,453.9,295.8,453.4,295.8C453.9,295.3,453.4,295.3,453.4,295.8z"/>
				<path class="st1" d="M478.9,253.2L478.9,253.2c1,0.5,1.5,0.5,2.5,0.5L478.9,253.2z"/>
				<path class="st1" d="M213.7,20.5L213.7,20.5C214.7,20,214.2,20,213.7,20.5z"/>
				<path class="st1" d="M31.6,302.8c2.5-5,6.5,5.5,9-1.5C39.2,302.3,33.1,297.3,31.6,302.8z"/>
				<path class="st1" d="M461.9,214.6c0-0.5,0-1-0.5-1.5C461.4,214.1,461.9,214.6,461.9,214.6z"/>
				<path class="st1" d="M40.7,301.3L40.7,301.3L40.7,301.3C41.2,300.8,41.2,301.3,40.7,301.3z"/>
				<path class="st1" d="M128.9,59.1c0.5,0.5,1,0.5,2,1C130.4,59.6,129.9,59.1,128.9,59.1z"/>
				<path class="st1" d="M193.1,34.6h-1.5C192.1,34.6,192.6,34.6,193.1,34.6z"/>
				<path class="st1" d="M104.9,86.2c-1,0.5-1.5,0-2,1.5h0.5C103.4,86.7,103.4,86.2,104.9,86.2z"/>
				<path class="st1" d="M80.3,113.3c0.5,0,0.5,0,1,0c0-0.5,0.5-0.5,0.5-1L80.3,113.3z"/>
				<path class="st1" d="M412.7,382.1c1.5,0.5,2.5,1,4,1.5C414.2,381.6,416.2,377.5,412.7,382.1z"/>
				<path class="st1" d="M463.9,215.6c-1,0-1.5,0-2-0.5c0,0.5,0,0.5,0.5,1C462.9,215.6,463.4,215.6,463.9,215.6z"/>
				<path class="st1" d="M126.4,111.3l-4,3C123.9,113.3,125.4,112.3,126.4,111.3z"/>
				<path class="st1" d="M205.6,445.2h1.5C206.6,444.7,206.1,444.7,205.6,445.2z"/>
				<path class="st1" d="M112.9,125.3c-1.5-0.5-3,0-4,0c0,0.5,0,0.5,0.5,1L112.9,125.3z"/>
				<path class="st1" d="M416.7,383.1L416.7,383.1L416.7,383.1z"/>
				<path class="st1" d="M427.3,350.5c-2.5,4,3.5,4.5,5.5,7c-1.5,6-5,0-8,0.5c-0.5,2,0.5,4,0.5,6c0.5,2,0.5,4-0.5,5
					c-1-0.5-1.5,0-2-1.5c1.5,5.5-6.5,9-5,16c-0.5,0-1,0-1.5-0.5c2.5,1,5,3,6.5,4.5c-1.5,1.5,0,5.5-3.5,3.5c1-1,0-2-0.5-3l-0.5,3
					c-5.5-2,1-3.5-2-6c-1.5,4.5-2,11.5-5.5,13c-4-3,4-7-2-7l5-2.5c-8.5-2.5,2.5-2-6.5-5c-5.5,4-3,7.5-9,11c1,3,3.5,2.5,4,5.5
					c-4,10.5-14.5-4.5-15,5.5c1,4,4,9-2,9.5l-2-5.5c-5.5,3.5,2,9-6,10c-0.5-2.5,3-4.5,2-4.5c-6.5-1-0.5,4.5-3.5,6.5l-3.5-4
					c-3,2-5.5,5-8,8c-2.5,3-5.5,6-9,8c-0.5-1.5,0-3.5-2-4c-4,3.5-9,5.5-14,7c-5.5,1-10.5,1.5-15.5,1.5l-2,5.5c-1,0-2-1.5-1.5-2.5
					c-4-0.5,0.5,2.5-0.5,5c-2,1-3.5-1.5-2.5-3.5c-2.5,2.5-6.5,5.5-11,8c-1,0.5-2,1-3.5,1.5c-1,0.5-2.5,0.5-3.5,0.5
					c-2.5,0-4.5,0-6.5-1l1-1.5c-5.5-1-5,10-10.5,6.5l1-1c-6-0.5-12.5,0.5-18.1,0.5c-1.5,0-3,0-4.5,0c-1.5,0-3-0.5-4-1
					c-2.5-0.5-5-2-7.5-3.5c-1,3-4,2.5-6.5,1.5c-3-0.5-5.5-1-6.5,3c-6-5.5-4-6.5-13-11c-2.5-0.5-4.5,4.5-8,5l1-4.5l-5.5,3.5l-1-6
					l-3,0.5c1,0.5,2,2.5,1.5,4c-2.5,0.5-5-1-7-3c-1.5-2-2.5-4.5-2.5-5.5h-11.5c1-1.5,3-1.5,4.5-2.5c-7,2.5,1-5-5.5-2.5
					c0.5,1-1.5,2.5-2,3c-1.5-3.5-6.5-6-11-7l2-2.5c-7-4-15-6.5-23.1-11c2,3-1.5,7-4.5,6l2-4.5c-3,1.5,1.5,3-3.5,4
					c-2.5-2.5,1.5-6,3.5-6l-4-1c0.5-1.5,2-1.5,3-3c-3,1.5-2.5-8-7.5-5.5l0.5-1.5c-1.5-1.5-3.5-2.5-5-3.5c-1.5-1-2.5-2-4-2.5
					c-2.5-1.5-5-3-7.5-5.5c-3,3-4.5,0.5-8.5,1.5c-2.5-5-4.5-11.5-9-16c-4.5-2-3.5,1.5-7,1c3-2.5-1.5-7.5,3-6.5c-2.5-3-4-5-6-6.5
					c-1-1-2-2-3.5-3c-1.5-1-3-2.5-4.5-4.5c-1,2-0.5,3-2,3.5c-1.5-1-1-4.5,1-5h0.5c-5.5-3.5-6.5-10-6.5-17c0-3.5-0.5-6.5-1-9
					c-0.5-1.5-1-2.5-2-3.5c-0.5-1-1.5-2-3-2.5l0.5,0.5l-7-7c-1-4,3.5,1.5,5-2.5c-2.5-2-4-3.5-5-5.5c-1-2-1-4-1.5-5.5
					c-0.5-3.5-0.5-7-3.5-10.5c4.5-4,4-9.5,2-15c-1-3-2-5.5-2-8.5c0-3,0.5-5.5,2-7.5l-2.5,0.5c-2.5-2,1.5-2.5,2-4.5
					c-2,0.5-2.5,2.5-4,1c-2.5-9-0.5-19.1,1.5-28.1c1-4.5,3-9,5-13.5l2.5-6.5c1-2,2-4.5,3-6.5c2.5-6-12.5-7.5-4-14l4,4
					c-1-7.5,2-14,4.5-20.6c3-6.5,6.5-12.5,7.5-20.1c0.5,1.5,2,2,1.5,3c4.5-1,5.5-9,3-10.5c1.5-1.5,2.5,1,4.5,0.5c3.5-1,0-8.5,3.5-8
					c0.5,0,0.5,1.5,0.5,2c-0.5-2.5,5.5-6.5,1-7.5c4.5-3,4.5-9,9-10.5c-1.5-5,7.5-5,3.5-10c5,5,10-3,10.5-7.5c0.5,2,3.5-0.5,4.5,2.5
					c2.5-2.5,4.5-5.5,1.5-8c5,1,6.5-3,8-5.5c1.5-3,3-5.5,8-2.5c1.5-2.5,3.5-4.5,5-7c2-2,3.5-4,5.5-6s4-3.5,5.5-5.5l3-2.5l3-2
					c1.5,3-1,4.5-3,6c-2,1.5-4,3-2,6c1.5-2,3-3.5,4-5.5c1.5-1.5,2.5-3.5,4-5c2.5-3,5.5-5.5,10-7c2.5,0,0,3.5-0.5,4.5
					c3.5-3.5,8-4.5,12-6c2-0.5,4-1.5,6-2.5c2-1,4-2,5.5-3.5c0,0.5-0.5,1.5-1,2c1.5-0.5,4,0,3-3l-1.5,1c-4-3.5,4-10.5,4-13
					c-0.5,9.5,9,0,7,12c1-1,2-2.5,1-4.5c1.5,0,2.5,1,1.5,4c2.5-1.5,3.5-3,4-4c0.5-1,1.5-2,4-2.5c0,1.5-1,2-1,4c2-3.5,4.5-6.5,9.5-6
					c0,1,0.5,2-1,2c7.5-2,13-9,22.1-6.5c-2.5,6.5,3,2,3.5,7.5c1.5-0.5,3-1,4.5-1.5l-2-3c4,0.5,8-3.5,11.5-1.5l-3,2l8-0.5l-4.5-2.5
					c4.5-2.5,0-7,5.5-5.5c-1,0.5,4.5,0,6,4l0,0c2.5-1.5,4.5-3,7.5-1c0.5,2-1.5,6-1,7.5c2.5-4,10,0,13.5-4c-1,1-1.5,4-1.5,4.5
					l2.5-3.5c1.5,1.5,2,2.5,1,4.5c5.5,2,0-7.5,6-2.5c-0.5,0-0.5,1-1.5,1c3,1.5,6.5,2,10,2s6.5,1,9.5,3c0,6-5.5-0.5-5,4.5
					c4.5,1,9.5,1,14.5,1.5s9.5,1.5,13.5,4l-1-1.5c4.5-6.5,4.5,6.5,10,5c-1,0-3.5,3-2.5,2.5c4.5,4.5,11.5,4.5,21.1,7.5l-2,1
					c2,3.5,7,6.5,9.5,9.5c2-1,4,0.5,4.5-2.5c0.5,2,1,3.5,1.5,5c0.5,1.5,1.5,2.5,2.5,3.5c2,2,4.5,3.5,7.5,4.5c2.5,1.5,5.5,2.5,7.5,4
					c2,2,3.5,4.5,3.5,8c-1-1-3.5-1-2.5-0.5l7.5,5.5c2-3,1-2,1.5-5.5c2.5-0.5,5.5,0.5,7,2c-4.5-1.5-4,3.5-4.5,6c0.5-1,2-1,2.5-2
					c-2,7.5,6-3.5,6.5,4l-1.5,1c2,1.5,5.5,2,6.5,4.5c-2.5,3-3-1-6,1c2.5,3,11,1.5,9,7c-2-1-3-2.5-5-3.5c-1.5,5.5-0.5,5.5,0,8v-0.5
					l1.5,6.5l0.5-2c5.5-1,7.5,1,8.5,3c0.5,1,1.5,2.5,2.5,3.5c1,1,2,2,4.5,3c-8.5-2.5-4,1-8,2.5c-0.5,2-0.5,5-2,4.5
					c4.5,1-0.5,5.5,6,7c-1.5,1,1,3-2.5,3.5c2.5,3,2-2,4-2.5c3.5,1.5,3.5,5.5,3.5,9.5c0,4,0.5,8,5,11c4.5,6,9.5,6,14,12.5
					c-1.5,3-5.5-0.5-5.5-0.5c-1,4,0,6.5,2.5,10c-1.5-0.5-2.5,0.5-4,2c1,2.5,5.5,1,4,5c-1.5-0.5-4.5-0.5-6-2c2,3,5,5.5,7,9
					c-2.5,1-4-1.5-6-2.5c1.5,3.5,4,9.5,7.5,10l1.5-2.5c0.5,1.5-3.5,1-4,0c-3.5-3,0.5-5,2-5l1.5,2.5c8-3.5-3-9.5-3-14.5l6.5,1l-6-4
					c1.5-1.5,4.5-3,6-0.5c2.5-4-3-2.5-0.5-6.5c0.5-0.5,1-0.5,1,0l-2.5-3c1.5,0.5,4-1.5,4,0.5c2-7.5-7-9-3-12.5l0.5,0.5
					c-4.5-8-4.5,0.5-12-4c3-2.5,6-5,9-8l-4.5,0.5c0-1-0.5-3,1.5-3c-4-2-1.5,1.5-5,0.5c1-3,0-5.5-1.5-8c-1-2.5-2-4.5,1-6.5
					c-4,0-0.5,5-5,1.5c6.5-4.5-3.5-4.5-2-9.5c4-0.5,4,4,5.5-1.5c-3.5,0.5-4-1.5-4-4c0-2.5,0-5-1-6.5c-5,2.5-6-5.5-10.5-9.5
					c2-1-4-10.5-5.5-16l1-0.5c-5,2.5-7.5-2.5-11-5c2.5-2,4-2.5,6.5-1.5c-1-1-1.5-2-2.5-3c-2,0.5-3.5,0-5.5-1.5l3.5-2
					c-4-3.5-10.5-4.5-13-11c-3,2.5-4,11-10.5,8.5c1.5-1.5,3.5-4.5,5.5-4c-0.5,0-2.5,0-3-1.5l4.5-0.5c-1-3-3,1-4.5-1c2-2,0-2.5,2-4
					c0.5,0,0.5,2.5,2,2c-1.5-2-3-5.5-2-8c-1,1.5-2.5,3-4.5,2c-4-3.5,1-4,0-7c-2,0.5-3.5-3-6.5,0.5c-1-1,0-2.5,0-4
					c-3.5,0-10.5-7-10.5-1.5l0.5,0.5h-0.5l0,0l0,0c-2.5-0.5-4.5-1.5-6-2.5c-2-1.5-3.5-2.5-5-4c-3.5-3-6.5-6.5-10.5-8l0.5-1.5
					c-5-1-10.5-4-15.5-3c-1.5-0.5-2-4-1-5.5c-4-0.5-5,0.5-9.5-3.5c4.5-1-0.5-2.5,4.5-0.5c-4.5-3-4.5-5.5-11.5-3.5c3-3-2-6-5-5.5
					l2.5,4c-3-0.5-5-1.5-7-2.5l3-4.5c-4.5-4.5-10-3-14.5-2.5c-5,1-9,1-12-4.5c-3.5,3,5.5,3.5,2,7c-4.5-1.5-8.5-9-10-9.5
					c-6.5-3.5-7,6-14,3.5c0.5,2,1,6.5-4,8c-4.5-1-5.5-8-2-9c1,0,1.5,0.5,1.5,1c1.5-0.5,4-1,2-3l-1,1.5c-2.5-2-9-2-7.5-5
					c-4,1.5-1.5,3,1,4c-6-3-10-1-16.5-2c1,1,2,3,1,3c-9.5-1.5-4,3.5-10.5,4.5c-4-2.5,1-6.5-5.5-4c-4-1.5-1.5-4.5,0-6
					c-1.5,1-3,1.5-4.5,1.5s-2.5,0-4-0.5c-2.5-0.5-5-2-7-2l3-2c-2,1-3.5,1.5-5,1.5l2.5,3c-2-0.5-3.5,0-3.5-1.5
					c-1.5,2.5,2.5,5.5-1,9.5c-2.5-1.5-7,3-8.5-1.5c8,0-2-4.5,4.5-6.5c-1,1-2.5,1-4.5,0.5c-0.5-0.5,0-1,0.5-1.5c-8.5-2.5-2.5,6-9.5,8
					c0.5-3-3-4.5-4-3.5c3-0.5,2.5,4,0.5,6.5c-5.5-1-4.5,3-7,3h3c0,3-2.5,3-5.5,5c-1-2,2.5-2.5,1-3c-2,5.5-9.5-1.5-13.5,3
					c-3-1-2-4.5-4.5-5c-4.5,5-7.5-1-12,4.5c3,2.5,3,1.5,0.5,6.5l8-6.5l-4,7.5c3-1,5-5,7-5c-2,4-1.5,3,0.5,5c-6-3-6,6.5-12,5l-4-8
					c-4,0-7,2-9,5c-2.5,3-5,6.5-9.5,8l3.5-0.5c0.5,3.5-4.5,3.5-6.5,6c-1.5-2.5-3.5-2.5-6-3.5c1.5,1.5-6,4-3,9.5l-5.5-0.5
					c-7,3.5-2,11.5-7.5,16c-0.5-4-4.5-3-2-8.5c-2,1.5-4,2.5-2.5,4.5c-2.5-0.5-2.5,7.5-6,7c0,1.5,2,4,0,5.5c-0.5,0-1-1-1-1
					c1,1-1.5,4.5,2.5,5c-5.5-0.5-9,3.5-12.5,7.5c-1.5,2-3,4-5,5.5c-1.5,1.5-3.5,2.5-6,3c-2.5,5-5.5,10.5-8,14.5c-0.5-1-1-1-0.5-1.5
					c-6,4,5,8-1.5,13c-6,1,0-4.5-3-3.5c-4.5-2-5.5,0-6,3c-0.5,3-1.5,6-5,7.5v-1.5c-4.5,2-1,10.5-4.5,16c0,0-0.5-0.5-1.5-0.5
					c2.5,6,1.5,14,0.5,20.1c-3-3-1-3.5-5-3.5c-0.5,2.5,6,1.5,5.5,6.5c-2.5,1-5.5,4-9.5,3.5c0.5-1.5,1-3.5,1.5-5c-3,0.5-3.5,2-3.5,4
					c0,2,1,4,0,5l-2-1c-1.5,8,4.5,9.5,2,17.6l2-0.5c4.5,5.5-4,3-0.5,8.5l-6,0.5c1,3.5,4,11.5,4.5,17c-4-3.5-5.5-10-7.5-14.5
					c-0.5,3-1,10.5,1.5,12.5c-0.5-1.5-1.5-3-0.5-4c4,4.5,6,9,5.5,15c-5.5-1-6.5,3-7.5,7.5c-1,4.5-0.5,10-5,12.5
					c2.5,5.5,2,11,1.5,16.5c0,5.5-0.5,12,1,18.1c8-6,1,3.5,9.5,1c1,2.5,1.5,4,1,4l-3,10c-2,2.5-2.5-2-4.5-1.5c1,6.5-3,3.5-4.5,8.5
					c3-2,5,1,5,5l2.5-6.5c3.5,4,2,6,1,8.5c-1,2.5-2.5,5,1.5,8.5l-3.5-2c1.5,2,3,6,5.5,10c2,4,5.5,7,10,8c-0.5,1-2.5,3.5-4,1.5
					c2,5.5,6.5,10.5,10.5,15c4.5,4.5,8.5,8.5,8.5,13.5l-2.5,0.5c1.5,1.5,5.5,1,5,4c-1,0.5-2.5,0.5-2,1.5c1.5,0.5,6.5,2,7,5l-3.5-0.5
					c2,5.5,6,8,10,9.5c4.5,1.5,9,2.5,12.5,5.5c-5,4.5-0.5,12.5,2,16l-1,0.5c4.5,4.5,9.5,7.5,15,9.5c5,2,11,3.5,16.5,6
					c0.5,2.5,2,5,3.5,7c2,2,4.5,4,7.5,6c5.5,4,12,8,16.5,12c-1-2,2.5-4.5,5-4c2,2.5,9-1,6,4.5l-1-0.5c-0.5,6,5.5,7.5,9.5,9l3.5-7
					c3.5,7,11,9.5,18.1,10c7,0.5,13.5,1,15.5,6.5c3-1,6.5-0.5,9.5-2l-1,4c4,1,6.5,2,10,2.5c3,0.5,6.5,1.5,11.5,1l-2.5,3
					c5.5,0.5,8-12,13-12l1,6.5c9.5,1,19.6,5.5,28.6-1c0,1,0,3-1.5,3c4.5,0.5,18.1,2,15-6c1,5.5,10-1,14.5-4.5v4.5
					c3-6.5,3-7.5,8-10.5c1.5,0,2,3,0,2.5c5,1,2.5-4.5,8.5-4l-1.5,3c5-1,4-2,5.5-6c2.5-2.5,9-2,11,1c0-2.5,1-6,4-6c1,1,0.5,2.5,0,3
					c2,0,4-0.5,5-1.5c1.5-1,2.5-2,3.5-3c2-2,3.5-4,7-3.5c0.5,1,1.5,1.5,2,2c-6,2.5-10.5,4.5-10.5,4c1.5,3.5,6.5,2,5,8.5
					c3-4.5,6.5-13.5,12-14c0.5,0,1,0.5,1,1l-0.5,0.5c1,0,2-1,2.5-2c1.5-0.5,3-0.5,4-1c2,2.5,6-1.5,8.5-3c-2.5-3.5,1-4.5-3.5-6
					c0.5,0,0,0.5-1.5,1.5c-0.5,0.5-0.5,0.5-0.5,1v-0.5c-1.5,1-3,2-5.5,3.5c0.5-3,1.5-5.5,5-5c-0.5-3-0.5-6-0.5-7.5
					c6,3.5,13.5,2.5,16.5,4.5c2.5-3.5,6-6.5,9-10c1.5-1.5,2.5-3.5,3.5-5.5c0.5-2,1-4,0.5-6.5c1-2,3.5,0,5,0.5
					c-0.5,1.5-1.5,2.5-1.5,3.5c2-4.5,9.5-9.5,6-14c6-2,1.5,6,6,0l0.5,2c8.5-2.5,10-10,12-16.5c1.5-7,3-14,12.5-17.6
					c-1.5,0.5-2,1-3,0.5c2-1.5,3.5-3.5,5-5.5c1.5-2,3-4,4-6c2.5-4.5,5-8.5,6.5-13c2-4.5,3.5-9,6-13.5c2.5-4,4.5-8.5,8-12
					c3.5-4.5,0-6.5-1-10l4.5,0.5c-1-2.5-2.5-4.5-3.5-7c-1-4.5,2.5-7,6-10c1.5-1.5,3-3,4-5c0.5-2,0.5-4.5-1-7l-3,0.5
					c1-3.5,0-11.5,3.5-10.5c-0.5-0.5-3-1.5-1-2.5h2.5c-0.5-1.5-1-3-1.5-4.5l-2-4.5c2-6.5,9.5,2,10.5-8.5c-0.5-4-6.5-11-8-9.5
					c0,1.5-1.5,4-4,4l-1-3.5c-7-0.5-14-3-19.6,4.5l4,5.5l-3.5,1.5v-4.5c-3.5,2.5-0.5,4,1.5,6c-2,0.5-3,1-4,2c2,2,4.5,3.5,6.5,5.5
					c-3,0.5-5-3-7,0.5c2.5,2.5,6.5-1.5,8,2.5c-3.5,2-6,1-3.5,4.5c-2,0-3-0.5-3.5-2c1.5,3,0,7,3.5,9c-2,1-2,3-2.5,5
					c-0.5,2-1.5,3-4.5,2.5c1.5,1,4,5.5,3.5,8c-6.5-6-2.5,8.5-10.5,5c6,5-1,11.5,1,18.6c-0.5-0.5-1.5-1.5-1-2c-1.5,3-4,3-6,4
					c5.5,2.5,4.5,7.5,6.5,11.5c-7,1-5-5-10.5-6.5c4.5,2,1.5,8,5.5,8.5c-4.5,1-2.5,1.5-7.5,0.5c6,4,0,3,2.5,7.5c-5.5,2-6.5-2.5-7,2.5
					C427.8,355,427.3,350.5,427.3,350.5z M355.1,435.7L355.1,435.7c1-0.5,1.5-1,2-1.5C357.1,434.7,356.6,435.2,355.1,435.7z
					 M346.5,440.2c1-0.5,2.5-1,4-1.5c1,1,1.5,2.5,0.5,3C351.1,440.2,348.6,440.7,346.5,440.2z M379.6,455.8c-1,1.5-2,1-3,0.5
					c0.5-0.5,1.5-1,2.5-2v-0.5C379.6,454.3,379.6,455.3,379.6,455.8z"/>
				<path class="st1" d="M379.6,449.2C379.6,449.2,379.6,448.7,379.6,449.2c0-0.5-0.5-0.5-1-1c0,0.5,0,1,0,1.5
					C379.1,449.8,379.1,449.8,379.6,449.2z"/>
				<path class="st1" d="M391.7,72.2L391.7,72.2L391.7,72.2C391.2,72.7,391.7,72.7,391.7,72.2z"/>
				<polygon class="st1" points="216.7,445.7 216.2,446.7 217.2,445.7 				"/>
				<path class="st1" d="M422.8,121.3c0,0.5-0.5,0.5-0.5,1.5C422.3,122.3,422.8,121.8,422.8,121.3z"/>
				<path class="st1" d="M435.8,140.9l0.5,3.5C436.3,142.9,435.8,141.9,435.8,140.9z"/>
				<path class="st1" d="M442.8,157.4c1,0,1.5-0.5,2-0.5l0,0L442.8,157.4z"/>
				<path class="st1" d="M202.6,61.1C202.6,61.1,202.1,61.1,202.6,61.1C200.6,62.6,201.6,62.1,202.6,61.1z"/>
				<path class="st1" d="M285.4,44.1c-1,0.5-2,1-3,1.5C283.9,46.1,284.9,46.6,285.4,44.1z"/>
				<path class="st1" d="M126.9,110.8L126.9,110.8L126.9,110.8L126.9,110.8z"/>
				<path class="st1" d="M278.4,45.6c1.5,1,2.5,1,4,0.5C280.9,45.6,279.9,45.1,278.4,45.6z"/>
				<path class="st1" d="M463.4,231.6v1c0.5,0,0.5,0,0.5,0L463.4,231.6z"/>
				<path class="st1" d="M464.4,232.6l0.5,1C464.9,233.1,464.4,232.6,464.4,232.6z"/>
				<path class="st1" d="M465.9,235.1l-1-2C464.9,234.1,464.4,235.1,465.9,235.1z"/>
				<path class="st1" d="M461.4,208.1h-1.5C460.4,208.1,460.9,208.1,461.4,208.1z"/>
				<path class="st1" d="M459.4,201c0,2-2,5-0.5,7h1C457.4,207.6,462.4,202,459.4,201z"/>
				<path class="st1" d="M467.4,165.4c0.5,2,1,4.5,1,6.5c1-1.5,2.5-4,4-1C473.9,160.9,469.9,173.5,467.4,165.4z"/>
				<path class="st1" d="M460.4,145.9c2,3,2-1,3-1.5C460.9,142.9,460.4,142.9,460.4,145.9z"/>
				<path class="st1" d="M353.1,46.6l2-3.5C352.6,42.6,354.6,44.6,353.1,46.6z"/>
				<path class="st1" d="M321,55.6c0.5,1,1,2,1.5,3l2-3C323.5,55.6,322.5,55.1,321,55.6z"/>
				<polygon class="st1" points="311.9,25 313.5,24.5 308.4,25 				"/>
				<path class="st1" d="M81.3,105.3l4,2.5C85.8,105.8,82.3,102.3,81.3,105.3z"/>
				<path class="st1" d="M38.2,205.5c-2.5,0.5-4.5,3.5-2.5,5.5C36.2,208.6,38.2,206.6,38.2,205.5z"/>
				<polygon class="st1" points="179.6,474.3 176.6,474.8 181.1,474.8 				"/>
			</g>
			<g>
				<path class="st1" d="M14.1,253.2c1.5,0.5,4,0.5,3.5-1.5l-5-1.5L14.1,253.2z"/>
				<path class="st1" d="M23.6,240.1c-2.5-2.5-6.5-5.5-11-4.5c4.5,2.5,2.5,3,8,6c0.5,2-2,3.5-3.5,3c1,1-1,3,2,4.5
					c4-2.5,4.5-5.5,1.5-9.5C21.6,238.6,23.1,239.6,23.6,240.1z"/>
				<path class="st1" d="M119.4,82.2h-1.5C118.4,82.7,118.9,82.7,119.4,82.2z"/>
				<path class="st1" d="M227.2,46.6c-1,0-1,0.5-1,1C226.7,47.6,227.2,47.1,227.2,46.6z"/>
				<path class="st1" d="M246.8,51.6c-0.5,0-0.5-0.5-1-0.5C245.8,52.1,246.3,52.1,246.8,51.6z"/>
				<path class="st1" d="M119.4,82.2l3.5-0.5C121.9,80.2,120.9,81.7,119.4,82.2z"/>
				<path class="st1" d="M15.1,211.1c0,0.5,0.5,1.5,1,2C16.1,212.6,16.1,212.1,15.1,211.1C15.6,211.6,15.6,211.1,15.1,211.1z"/>
				<path class="st1" d="M84.8,119.3L84.8,119.3c-0.5,1,0,1.5,0.5,2.5L84.8,119.3z"/>
				<path class="st1" d="M63.2,150.9c0.5-0.5-3-3-4.5-4c1,1.5,1.5,2.5,1.5,3C61.2,150.4,62.2,150.4,63.2,150.9z"/>
				<path class="st1" d="M33.7,205.5l0.5,1C34.2,206.6,34.2,206.1,33.7,205.5z"/>
				<path class="st1" d="M104.9,100.2c0.5,0.5,1,0.5,1.5,1C105.4,100.7,104.9,100.7,104.9,100.2z"/>
				<path class="st1" d="M9.6,303.8C10.1,303.8,10.1,303.8,9.6,303.8L9.6,303.8z"/>
				<path class="st1" d="M25.1,253.2L25.1,253.2c1.5,0.5,2,0.5,3,0.5L25.1,253.2z"/>
				<path class="st1" d="M279.9,60.6L279.9,60.6C278.9,61.1,279.4,61.1,279.9,60.6z"/>
				<path class="st1" d="M435.8,295.3c4.5-2.5,3,7,8.5,2.5C442.8,297.8,439.3,291.8,435.8,295.3z"/>
				<path class="st1" d="M16.1,210.1c0-0.5,0-1,0-1.5C16.1,209.1,15.6,209.6,16.1,210.1z"/>
				<path class="st1" d="M444.3,297.8L444.3,297.8L444.3,297.8C444.8,297.3,444.8,297.8,444.3,297.8z"/>
				<path class="st1" d="M352.6,88.7c0.5-0.5,0.5-1.5,0.5-2C353.1,87.2,353.1,87.7,352.6,88.7z"/>
				<path class="st1" d="M301.9,57.6l1,1C302.4,58.1,302.4,57.6,301.9,57.6z"/>
				<path class="st1" d="M380.6,103.8c0.5,1,0,1.5,1.5,1.5v-0.5C381.6,105.3,380.6,104.8,380.6,103.8z"/>
				<path class="st1" d="M402.7,127.8c0-0.5,0-0.5,0.5-1c-0.5,0-0.5-0.5-1-0.5L402.7,127.8z"/>
				<path class="st1" d="M61.7,405.1c0.5-1.5,1-2.5,2-3.5C61.7,403.6,57.2,400.1,61.7,405.1z"/>
				<path class="st1" d="M17.6,211.6c-1-0.5-1.5-1-1.5-1.5c0,0.5,0,1,0,1C16.6,211.6,17.1,211.6,17.6,211.6z"/>
				<path class="st1" d="M404.7,80.2l4,4.5C407.7,83.7,406.2,81.7,404.7,80.2z"/>
				<path class="st1" d="M305.4,478.3l-1,1C304.9,478.8,305.4,478.8,305.4,478.3z"/>
				<path class="st1" d="M421.3,97.7c-0.5,2-0.5,3,0,4.5c0.5,0,1,0,1.5,0L421.3,97.7z"/>
				<path class="st1" d="M63.7,401.1L63.7,401.1L63.7,401.1z"/>
				<path class="st1" d="M33.1,374.5c3,5,6-0.5,9.5-1c5,5-2,5-3,8.5c1.5,1.5,4,2,6,3c2,0.5,4,1,5,2.5c-0.5,0.5-0.5,1.5-2,1.5
					c6,1,8,10.5,15.5,11c0,0.5-0.5,1-0.5,1.5c1.5-2.5,3.5-4.5,5.5-5.5c1.5,1.5,5.5,1,3.5,4c-1-1-2-0.5-3.5,0l3,1
					c-2.5,5-3.5-1.5-6.5,1c4.5,2.5,12,4,13.5,8c-3,4-7.5-5.5-7,1.5l-2.5-6c-3,9-2-3-5.5,6c4.5,7,8,5,12.5,12c3.5-1,2.5-3.5,6-4
					c11.5,3.5-2,15.5,9,16c4-1,8.5-6,11,0.5l-5,3.5c6,5,8.5-4,12.5,4c-2.5,1-6-2-5.5-1c1.5,7,5-0.5,8,2l-2,4.5c4,2,8,3,12.5,4.5
					c4.5,1.5,8.5,3,13,4c-1,1-3.5,2-2,4c6,1.5,11.5,4,16.5,7.5c5.5,3,10.5,6.5,15.5,10l5.5-2.5c1,0.5,1,2.5,0,3c4,2.5,1-2.5,3.5-3.5
					c2.5,0.5,2.5,3.5,0.5,4c4.5-1,10-1.5,15.5-1c1.5,0,2.5,0.5,4,0.5s2.5,0.5,4,0.5c2.5,0.5,4.5,1.5,6.5,3l-2,1c6,2.5,8-8,13.5-3
					l-1,0.5c6.5,1.5,14,1,20.6,1.5c1.5,0,3.5,0.5,5,0.5c1.5,0,3,0,4.5,0.5c3,0.5,6,1.5,8.5,3c1-3,4-2.5,7.5-2.5
					c3.5,0.5,6.5-0.5,6-4.5c8,3,6,5,17.6,6.5c3,0,3-6.5,6.5-8l1,4.5l3.5-6l4,4.5l3-2c-1.5,0-3.5-1.5-3.5-2.5c2.5-1.5,5.5-1.5,8.5-1
					c3,0.5,5.5,1.5,5.5,2.5l10.5-8c0.5,2-1.5,3-2.5,5c4.5-7,3,4,7-2c-1-0.5-0.5-2.5-1-3.5c4,1.5,10.5-1.5,14.5-5l0.5,3.5
					c9-3,17-11,26.1-16.5c-4,1-6.5-4.5-4-6.5l3.5,3.5c0-3.5-3.5,0-2.5-5c3.5-1.5,5.5,3,4.5,5.5l3-4c1,1,0.5,2.5,1.5,4
					c0-3.5,9.5-1,9-7l1,1c2-1.5,4-3,5.5-4.5c1.5-1.5,2.5-3,4-4.5c2.5-3,4.5-5.5,7.5-8.5c-3-3,0.5-5,0-9c5-3.5,12.5-6.5,17-12.5
					c2-5.5-2-3.5-2-7c3,2,7.5-4,7.5,0.5c2.5-4,4-6.5,5.5-9c1-1.5,1.5-3,2.5-5c0.5-2,1.5-4,2-7c-2,0-3.5,1-4-0.5c0.5-2,4-3,5-2v0.5
					c1-7,7-11.5,12.5-17c2.5-2.5,5.5-5.5,7-8c1-1.5,1.5-3,2-4.5c0-1.5,0-3-0.5-4.5v0.5v-11.5c2.5-4.5,1.5,3.5,5,1
					c-0.5-3.5-0.5-6,0-8c0.5-2.5,1-4.5,2-6.5c1.5-4,3.5-8,2.5-13c6.5-2.5,7-9,7.5-16c0-3.5,0.5-7,0.5-10.5c0-3.5,1-6.5,3-8.5
					l-2.5,0.5c-2.5-2.5,1.5-3,2.5-5c-2,0-2.5,2.5-4,1c-0.5-11-0.5-22.1,0.5-33.6c0.5-5.5,0.5-11.5,0.5-17.6c0-3,0-6,0-9
					c-0.5-3-0.5-5.5-1-8.5c-1.5-8.5-14.5-1-11-12.5l5.5,1.5c-5-7-8.5-15-11-23.1c-3.5-7.5-7-15.5-12.5-21.6c1.5,0.5,3-0.5,3.5,1
					c1.5-5-6.5-11-9-9.5c-1-2.5,2-2,2.5-4c0-4-8.5-5-6.5-8.5c0.5-0.5,1.5,0,2,0.5c-2.5-1-6-8.5-8-4.5c-2-6-8-8-9.5-13.5
					c-5.5,0.5-5.5-9-11-5.5c5.5-4-3-12-8.5-12c2.5-0.5-1-4,2-5c-3.5-3-7-4.5-9-1.5c-0.5-5.5-4.5-7.5-8-8.5s-7-2-5.5-7.5
					c-3-1-6-2.5-9-3.5c-3-1-6-2-9-3c-3-1-5.5-2-8.5-3l-4-1.5l-4-1.5c1.5-3,5-2,7.5-0.5c2.5,1.5,5.5,2.5,7-0.5c-2.5-1-5.5-1.5-7.5-2
					c-2.5,0-5-0.5-7-0.5c-4.5-0.5-9-1.5-13.5-4.5c-2-2,2.5-2,4-2.5c-5.5-1.5-10.5-3-15.5-5c-2.5-1-5-2-7-2.5c-2.5-0.5-5-1-7.5-0.5
					c0-0.5,1.5-1,2.5-1c-2-0.5-4-2-4.5,1l2-0.5c1.5,5-10,7-10.5,9.5c5.5-8-8.5-4.5-1-14c-1.5,0.5-3,1.5-3.5,3.5c-1.5-1-2-2.5,0.5-4
					c-3.5,0-5,1-6,2s-2.5,1.5-5.5,1c0.5-1.5,1.5-2,2.5-3.5c-3.5,2.5-7,5-12,3c0.5-1,0-2,1.5-2c-9-1-15.5,6.5-25.1,3
					c3-6.5-3-2.5-3.5-8c-2,0.5-3.5,1-5.5,1.5l2,2.5c-4.5,0-8.5,4.5-12.5,3l3.5-2.5l-8.5,1.5l5,2c-4.5,3,1,7-5,6c1-0.5-4.5,0-7-2.5
					l0,0c-2,2-4,4.5-7.5,3.5c-1-1.5,0-6-1-7.5c-1.5,5-10.5,3-12,8.5c0.5-1.5,0-4.5-0.5-5l-1,4c-2.5-0.5-2.5-1-3-3.5
					c-6.5,1,3.5,6.5-4.5,5.5c0.5-0.5,0-1,1-2c-4,0-7,1.5-10.5,3s-6.5,3.5-10,3.5c-4-4.5,5.5-3.5,1.5-7c-4.5,2-9,5.5-13.5,8.5
					c-4.5,3-8,6.5-13,8h2c2.5,7.5-8-0.5-11,5c0.5-1-0.5-4.5-0.5-3.5c-6.5,2.5-11,8.5-17.6,16v-2.5c-4,1-9,5.5-13,7c0,2.5-2,3.5,1,5
					c-2,0-4,0-6,0.5c-1.5,0.5-3,1.5-4,2.5c-2.5,2-4,4.5-5.5,7.5c-1.5,2.5-3,5-5,7.5c-2,2-4.5,4-8,4.5c1-1,1-3.5,0-3l-5,8.5
					c3,1.5,2.5,0.5,6,0.5c0.5,2.5,0,5.5-1.5,7c1-4.5-4.5-3.5-7-3.5c1,0.5,1.5,1.5,2.5,2c-8,0,5,5-2.5,8l-1-1.5c-1,2.5-0.5,6-2.5,8
					c-4-1.5,0-3.5-2.5-5.5c-2,3.5,1.5,10.5-3.5,11c0-2,1-4,1-6c-6,0.5-5.5,1.5-7.5,3.5l0,0l-5.5,4.5l2-1c3,5,2.5,7,1,9.5
					c-0.5,1-1.5,2.5-2,3.5c-0.5,1.5-0.5,3,0.5,5.5c-3-8.5-3-2.5-6.5-5c-2,1-4.5,2.5-5,1.5c2,4.5-5,3.5-2,10c-1.5-0.5-1.5,3-4.5,1
					c-1,4.5,3,0,4.5,1c1,4-1.5,7-4.5,10c-2.5,3.5-5,7.5-3.5,12.5c0.5,8.5,5,11,5.5,18.6c-3,2-4.5-3-4.5-3c-3,3.5-3.5,6-2.5,10
					c-1-1-2.5-0.5-4,0.5c0,3,5,3,2,6.5c-1.5-1-4-2-5.5-4c1,4,3,7.5,3.5,11.5c-2.5,0.5-3.5-2.5-5-4c0.5,4.5,0.5,11,5,12.5l1.5-2.5
					c0,1.5-3.5,0.5-4-1c-2.5-4,2-5,3.5-5l0.5,2.5c9-1.5,0-10,1.5-15.5l6,3l-4.5-6c2-1,5.5-1,6,2c3.5-3-1.5-3.5,2.5-6
					c0.5,0,1,0,1,0.5l-1-4c1,1,4.5,0.5,3,2.5c5-5-2-11,3-12v0.5c0.5-9-4-2-7-10c4,0,8-0.5,12-0.5l-4-2.5c0.5-1,1.5-2.5,3-1.5
					c-2-4-2,0-4-3c2.5-1.5,3-4.5,4-6.5c1-2.5,2-4,6-3c-2.5-3-4,2.5-4.5-2.5c7.5,2,1-5.5,6-7.5c3,3-0.5,5,4.5,3.5
					c-2.5-2.5-1.5-4,0.5-5.5c2-1.5,4.5-2,5-4c-4.5-3,1.5-7,3-13c1,1,8.5-7,13-9.5l0.5,0.5c-3.5-4,0-8,2-11.5c2.5,2.5,3,3.5,2.5,6
					c0.5-1,1.5-2,2.5-2.5c-1-2-0.5-3,0.5-5.5l2.5,3.5c3-3.5,2.5-10.5,9-13c-2.5-3-11.5-4-8-10.5c1.5,1.5,4.5,3.5,3.5,5.5
					c0-0.5,0.5-2.5,2-2.5l0.5,4.5c3-1-1-3,1-4.5c2,2,2.5,0.5,4,2.5c0,0.5-2.5,0.5-2,2c2-1.5,5.5-2,8-1c-1.5-1-2.5-3-1.5-4.5
					c3.5-3.5,3.5,1.5,6.5,1c-0.5-2.5,3-2.5,0.5-6c1-1,2.5,0.5,4,1.5c0.5-3,9-7,4-9.5h-0.5c0,0,0,0,0-0.5l0,0l0,0c1-2,2.5-3.5,4-5
					c1.5-1,4-2,6-2.5c4-1.5,8.5-2.5,11.5-5.5l0.5,1.5c3.5-4,9-5.5,11-10c1.5-0.5,4,1,4.5,3c3-2.5,2.5-4.5,8.5-4c-2.5,3.5,2,1.5-3,3
					c5-0.5,6.5,1.5,10-4c-0.5,4,5,3.5,6.5,1.5l-4-1.5c2-1.5,4.5-2,6.5-2.5l0.5,5c5.5,1.5,8.5-2,12-5c3.5-3,6.5-5.5,11-1
					c2-4-5.5-1.5-4-6c4.5,0,10.5,6.5,11.5,6c6,2,4.5-8.5,11-7c-1-1.5-2.5-6.5,2.5-8.5c4.5,0.5,6,7,3.5,8.5c-1,0-1.5-0.5-1.5-1
					c-1.5,0.5-3,1.5-1.5,3.5l0.5-2c2.5,1.5,8.5,1,7,4c3-2,1.5-3-1-4c5.5,2.5,8.5-0.5,14.5,1.5c-1-1-1.5-3-1-3c8.5,2.5,4-3,10-3.5
					c3,3-1.5,6.5,4.5,4.5c3.5,2,0.5,4.5-1,6c1.5-1,2.5-1,4-1c1,0,2,1,3,1.5c2,1.5,3.5,3,5,4l-3,1c1.5-0.5,3-0.5,4.5,0l-1-4
					c1.5,1,3,1,2.5,2.5c2-2-0.5-6,3.5-8.5c2,2,7-1,6.5,4c-6.5-3,0,4.5-6,4.5c1-0.5,2.5,0,4,0.5c0,0.5-0.5,1-1,1c5,5.5,4-4.5,10.5-3
					c-1.5,2.5,0,5.5,1.5,5c-2.5-0.5,0-4.5,3-6c3.5,3,5-0.5,7,0.5l-2-1.5c1.5-2.5,3.5-1.5,7-1c-0.5,2-3,0.5-2.5,1.5c4.5-3,5.5,7,11,6
					c1.5,2.5-1.5,4.5-0.5,6.5c6-1.5,3.5,5.5,9.5,5c0-4-0.5-3.5,4.5-4.5l-9-1.5l7.5-2c-2.5-1-6-0.5-7.5-1.5c3.5-1.5,3-1,3-4
					c1.5,6.5,8,0.5,10.5,5.5l-4,8c2,3,5,3,8.5,3.5c3.5,0.5,7,1,10,4l-1.5-2.5c3-2.5,4.5,2.5,8,2.5c-2,2.5-1,4-1,6.5c1-2,4.5,4,9-0.5
					l0.5,5.5c4.5,5.5,11.5-2,16,3.5c-3.5,1-3,4.5-7.5,3.5c1.5,1.5,2.5,3,4,1.5c-0.5,2,7,1,7,4.5c1.5-0.5,4-2.5,5.5-0.5
					c0,0.5-1,1-1,1c1-1,4,1.5,5-2.5c-1,6,2.5,9,6,12.5c1.5,1.5,3.5,3,4.5,5c1,2,1.5,4,1,6.5c3.5,3.5,8,7.5,10.5,11c-1,0.5-1,1-1.5,0
					c1,6.5,9-1.5,10,6.5c-2,5.5-4-2-4.5,1c-4,3-2.5,4.5-0.5,6c2,1.5,5,3.5,3.5,7l-1-0.5c-1.5,4.5,7,6,9,11.5c0,0-1,0-1.5,0.5
					c6.5,1.5,10.5,8,13.5,13c-4-0.5-3-1.5-6,0.5c1.5,2,5.5-3,8.5,1.5c-1.5,2.5-2,6-6,8c-0.5-1.5-1-3-1.5-4.5c-2,2-1.5,3.5-0.5,4.5
					c1,1.5,2.5,2.5,2.5,4l-2.5,0.5c2.5,6.5,8,5.5,10,13l1.5-1c6.5,3-2.5,4,2.5,7.5l-5.5,2.5c1.5,2.5,7.5,9,9,14c-4.5-2.5-8-8-11-11
					c0.5,2.5,2,9,5,10c-0.5-1-2.5-2.5-1.5-3.5c5.5,3,7.5,7,8,13c-6,0-6.5,3.5-6.5,7.5c0,4-0.5,9-5,11c2,5,1.5,9.5,0,14.5
					c-1.5,5-4,9.5-4,15c9.5-2.5,0,3,9,4.5c0,3-0.5,3.5-1,4l-7.5,6.5c-3,1-1.5-3-3.5-3c-2,5-4.5,1.5-7.5,4c3.5,0,4,3,2,6l5-3
					c1.5,4.5-1,5.5-3.5,6.5c-2.5,1-5,2-4,6.5l-2-3.5c0,2-1,5.5-1.5,9.5c-0.5,4-1,7.5,1.5,11c-1.5,0-4,0-4-2c-2.5,4-3,10-4,15
					c-1.5,5-3,10-7,12l-1.5-2c-0.5,2,2,5-1.5,5.5c-0.5-0.5-1.5-2-2-1.5c0,1,0.5,6-2,7.5l-1-3c-4,3-5,6.5-5.5,11c-0.5,4-1,8-3,11.5
					c-5-4.5-11-0.5-14.5,1.5l-0.5-1c-4.5,3.5-6.5,7.5-9,12c-2,4.5-4.5,8.5-8,13c-2.5-0.5-4.5,0-7,1c-2.5,1-5,2-7.5,3.5
					c-5,2.5-10.5,6.5-16,6.5c2,0.5,2,4.5,1,6c-2.5,0-4,7-6.5,1.5l1-0.5c-4-4.5-7.5-1-11.5,0l2.5,7.5c-7-3.5-12.5,0-18.1,2.5
					c-5.5,2.5-10.5,5.5-14.5,1c-2,2.5-5,3-7,5.5l-0.5-4c-3.5,0-6,0-8.5,0c-2.5,0-5.5,1-9.5,1.5l1.5-3c-4.5,0-5,12.5-9.5,13l-1.5-6.5
					c-8.5,1-16-5.5-24.6,0c0-1,0.5-2.5,2-3c-4,0-14-6-14,3c0.5-5.5-8-1.5-13,0l1.5-4c-4.5,4.5-5,5.5-11,6c-1-1,0-3.5,1-2
					c-3.5-3-4,3-8.5-0.5l2.5-2c-4-1.5-4,0-7.5,2.5c-3,0.5-7.5-4-7-7.5c-1.5,2-4.5,4-6.5,2c0-1.5,1.5-2,2-2c-1.5-1.5-3-2-4.5-2
					c-1.5-0.5-3-0.5-4-0.5c-2.5,0-5,0-6.5-3c0.5-1.5,0.5-2,0.5-2.5c5,2.5,9,5,8.5,5c1.5-3.5-2-6,3-9.5c-4.5,1-12.5,4-16,0.5
					c0-0.5,0-1,0-1.5h0.5c-0.5-1-1.5-1-3-0.5c-1-1.5-1.5-2-2.5-3c1-3-3.5-4-5.5-5.5c-2,3.5-4.5,1.5-3.5,6c0-0.5,0.5,0,2,0.5
					c0.5,0,0.5,0,1,0c0,0,0,0-0.5,0c1.5,0.5,3,1.5,5,2.5c-2.5,1-5,1.5-6-2c-2.5,1.5-5,3.5-6.5,4c0.5-6.5-3-12.5-1.5-16
					c-3.5-1-7-3-10.5-4.5c-2-0.5-4-1-5.5-1.5c-2-0.5-4,0-6,0.5c-2-0.5,0-3.5,0-4.5c1.5,0,2.5,1,3.5,1c-4.5-1-9.5-7.5-14-4
					c-2-5.5,5.5-1.5,0-6l2-0.5c-1.5-8-7.5-9.5-14-12c-6-2.5-12-6-12-15c0,1,0,2-0.5,2.5c-1-2-1.5-4-2.5-6c-1-2-2-4-3.5-6
					c-2.5-4-5.5-7-7.5-11c-2.5-4-4.5-8-6-12c-2-4-2-9-2-13.5c0-5-3.5-4.5-7.5-6.5l4-2.5c-2-1-4-2.5-6.5-3.5c-3-3-1-7,0.5-10.5
					c0.5-2,1.5-4,1-5.5c0-2-0.5-4-3-6l-3,1.5c0-3.5-3.5-10,0-10c-0.5-0.5-3.5-0.5-2-2l2.5-0.5c-1-1.5-2-2.5-2.5-4l-2-4
					c1.5-6.5,9.5,0,9.5-9c-1-3-7.5-9.5-9-8c0,1.5-1.5,3.5-3.5,3.5l-1.5-3c-7-0.5-14.5-3.5-19.1,5.5l4.5,6l-3.5,2l-0.5-5
					c-3,3,0,4.5,2,6.5c-2,0.5-3,1.5-3.5,3c2.5,2,4.5,3.5,7,5.5c-2.5,1-5.5-2-6.5,2c3.5,2.5,5.5-3,8.5,1c-2.5,3-5.5,2.5-2,5.5
					c-1.5,0.5-3,0-4-1c2.5,2.5,2,8,6,8.5c-1.5,2-1,4.5-1,6.5c0.5,2,0.5,4-3,4.5c2,0.5,6.5,4,7.5,6.5c-9-3,2,10-6.5,11
					c7.5,1.5,7.5,12,13.5,17c-0.5,0-2-0.5-2-1c0.5,3.5-1,5.5-1.5,8.5c5.5-2,9.5,3,14,4c-3,6.5-7.5,0.5-12,4c4-2,8,5,10.5,2
					c-1.5,4.5,0,3.5-4,7.5c7-3,2.5,2.5,8,2.5c-0.5,6-5.5,4.5-0.5,8C37.7,377.5,33.1,374.5,33.1,374.5z M135.9,455.8L135.9,455.8
					c-1-0.5-2-0.5-2.5-1C133.9,455.3,134.9,455.3,135.9,455.8z M146,460.3c-1-0.5-2.5-1.5-4-2c0.5-1.5,1.5-2.5,2-2
					C143,456.8,145,458.8,146,460.3z M140.5,424.7c1.5,0.5,1.5,1,1.5,2c-0.5-0.5-1.5-0.5-2.5-1c0,0-0.5,0-0.5,0.5
					C139.5,425.7,140,425.2,140.5,424.7z"/>
				<path class="st1" d="M135.4,428.2L135.4,428.2c-0.5,0.5-0.5,1,0,1.5c0.5-0.5,1-0.5,1-1C135.9,428.2,135.4,428.2,135.4,428.2z"/>
				<path class="st1" d="M117.9,82.7L117.9,82.7C117.9,82.7,117.4,82.7,117.9,82.7C117.4,82.2,117.4,82.7,117.9,82.7z"/>
				<polygon class="st1" points="293.9,483.3 293.9,482.3 292.9,483.3 				"/>
				<path class="st1" d="M66.2,111.3c-0.5,0-1,0-1.5,0C65.2,111.3,65.7,111.3,66.2,111.3z"/>
				<path class="st1" d="M50.7,131.3l-3,2.5C49.2,132.3,50.2,131.8,50.7,131.3z"/>
				<path class="st1" d="M39.2,147.4c0.5,0.5,1,1,1.5,1l0,0L39.2,147.4z"/>
				<path class="st1" d="M308.9,30c0.5,0,0.5,0,1,0C311.4,30,310.4,30,308.9,30z"/>
				<path class="st1" d="M215.2,31.6c1-1,1.5-2,2.5-2.5C216.2,29,214.7,29,215.2,31.6z"/>
				<path class="st1" d="M404.2,79.7C404.2,80.2,404.2,80.2,404.2,79.7L404.2,79.7L404.2,79.7z"/>
				<path class="st1" d="M222.2,29c-1.5-0.5-3-0.5-4.5,0C219.2,29.5,220.7,29.5,222.2,29z"/>
				<path class="st1" d="M12.1,228.6l-0.5,1c0.5,0,0.5,0,0.5,0V228.6z"/>
				<path class="st1" d="M12.6,230.1l0.5,1C13.1,230.6,13.1,230.1,12.6,230.1z"/>
				<path class="st1" d="M13.6,233.1l-1-2.5C13.1,231.6,12.6,232.6,13.6,233.1z"/>
				<path class="st1" d="M18.6,203l-1.5-0.5C17.1,202.5,17.6,203,18.6,203z"/>
				<path class="st1" d="M20.1,195c-1,1.5-4.5,4-4,6.5l1,0.5C15.1,200.5,22.1,197.5,20.1,195z"/>
				<path class="st1" d="M48.2,171c-1,1.5-2,3.5-3.5,5.5c2-0.5,4.5-1,4,2C55.7,173,44.7,178.5,48.2,171z"/>
				<path class="st1" d="M58.2,154.9c-0.5,3.5,2,1,3,1.5C60.7,154.4,60.7,153.4,58.2,154.9z"/>
				<path class="st1" d="M156.5,64.1l1.5,3.5C159.5,66.2,157,66.2,156.5,64.1z"/>
				<path class="st1" d="M175.1,36.1c-1-0.5-2-1-3.5-1.5v4C172.5,37.6,173.6,36.6,175.1,36.1z"/>
				<polygon class="st1" points="197.1,58.6 196.1,59.1 200.1,56.6 				"/>
				<path class="st1" d="M396.2,125.8l3-3.5C397.7,121.3,393.2,124.3,396.2,125.8z"/>
				<path class="st1" d="M442.3,210.1c-2,1.5-3,4.5-0.5,5.5C441.8,213.6,443.3,211.1,442.3,210.1z"/>
				<polygon class="st1" points="309.4,439.2 310.4,436.7 307.9,439.2 				"/>
			</g>
			<g>
				<g>
					<path class="st1" d="M361.6,349c3-0.5-1.5-2,2-1C363.1,349.5,362.6,350,361.6,349z"/>
					<path class="st1" d="M374.6,344.9c3.5-5,6.5-9.5,8.5-15.5c1-3,1-6,1-9s-0.5-6-1.5-8.5c0-1.5,3,0.5,2.5-2.5
						c-4.5-10.5-2-27.1,1.5-40.1l1,1c0.5-2.5-2.5-5.5-2-8c0.5,0,1,1,1.5,0c-2-0.5-1-4.5-2-6c0.5-1,2-1,3-2.5l-2-1.5
						c-5-4,0.5-10-2-15.5c0.5,0.5,1,1,1.5,0.5c-3-9-2.5-20.6-3.5-30.6c0.5,0.5,2,1,3,0c-2-0.5-2.5-3.5-3-6.5c2-1-2-4.5-1-8l0.5,0.5
						c-2.5-2.5,1.5-3.5-1.5-5.5l1.5-1.5c-1.5-0.5-1-1-1-2c0.5-1,1-2,0-2.5h-0.5c-1-1,0-2.5-1.5-3.5V177c-2.5-2.5-3-5-4.5-3
						c0.5-2.5,3,1.5,3.5-1.5c-3-2-6-3-9-4c-3-0.5-6-0.5-9.5-0.5c-6.5,0-13.5,0-20.1,0c-1.5-1-2.5-1.5-3-2c-1.5,0.5-5,0.5-6,1.5
						c0.5,0-1-1-1.5-1.5c-2.5-1-2.5,2.5-5.5,1.5c1-0.5,1.5-1.5,1-2.5c-2,2-5.5,1.5-8,2c0.5-0.5,1-0.5,1-1.5c-3,2-5.5-0.5-8,1l1-1.5
						c-4-1.5-1,3-5,2c1-0.5,0.5-1,0.5-1.5c-3.5,2.5-8.5,1.5-12,2.5v-0.5c-3.5,0.5-7.5-0.5-11.5,0.5c-1.5-0.5,0.5-3.5-3.5-3
						c0,3-6.5,1-4,4.5c-3-0.5-8.5-1.5-10.5-0.5c1.5-1-1.5-3.5,1-3.5l-2-1.5c0.5-1,2,0.5,1.5-1c-1.5,0-5.5,1-6.5,1c-2.5,1.5-5,5-9,5
						c2-1-1-3,0-3.5l-5.5,5.5c-1.5,0-0.5-2-2-1.5c0,0.5-0.5,1-1.5,2c-0.5-0.5-5.5,0.5-6-2c-0.5-1,2-0.5,0.5-1.5c-2.5,0-2.5,1-5,1
						v-0.5c-1.5-0.5-5,1-3,2.5c1,0-0.5-1.5,1.5-1c-1,1.5-4,2-6.5,2c1-0.5,0.5-1,1-2c-3.5,2-7,3-10.5,3.5c0,1.5,1.5-2.5,2-1.5
						c-5-2-10,2.5-14,0c0.5,0,0.5,2,0.5,1.5c-2.5,0-2-2-3.5-1.5c0-1-2,0.5-3.5,0.5c-1,1-0.5-0.5,1-0.5c-2,1-11,2.5-16,1
						c0,0.5-3,2.5-4,2.5l0.5-1.5c-1-1-4,0-4-1.5c-2.5,2,9.5-2,6,0c-1-1.5-4.5,2.5-4,0.5c-2.5,0-4.5,2-6.5,0.5c0.5,0.5,2-2.5,0-2.5
						c-3.5,0.5-1,1-3.5,1.5L161,173c0,1.5-3,0-1.5,1.5c-0.5-1.5-5,1-4.5-2l0.5-2c-1.5,0-2.5,2.5-3.5,3.5c0,0-0.5-0.5-0.5-1
						c0,3.5-3.5-0.5-5,2.5c-1.5-0.5-3.5-0.5-5-0.5c-1,0-2,0-2.5-1c-1.5,1.5-1.5,3-3.5,3c0-0.5,0.5-0.5,0-1.5c-1.5-0.5-1,0.5-1.5,1.5
						c0-0.5-3,0-4.5,0.5c0,2,1.5,2.5,2.5,3c-1.5-0.5-2,1-1.5,2c0,1,0.5,2-1,2.5c-0.5-0.5-1-2.5-2.5-1.5c-3.5,1,2,3,0.5,6.5l2.5-1
						c-1.5,1.5,1.5,5-1,4.5c1,1-1,4,2,3.5c-2.5,5.5,1.5,13.5-3.5,16.5c0.5,1,0,3,1.5,2.5c1.5-1.5-1-2,0-2.5c0,0.5,1,1,1,1
						c-0.5,1.5-1,3-3,1.5c-1.5,4,4.5,4,3.5,9c-1,0-1.5,0-1.5,1.5l2,2.5c-0.5,3-2.5,2-4.5,2c0.5,1.5,0,3.5,1.5,4.5l-2.5,2
						c1.5-1.5,1,1.5,1.5,2l-0.5-1c-1,0.5-0.5,2,0,3c1,0,1.5-2,2-3.5c1,1,0.5,2,1.5,3.5c-2-0.5-1.5,2.5-1.5,4c-0.5,1.5,1.5,1.5,1.5,2
						c-1,0,0,2.5-1.5,1.5c-0.5-0.5,1-1,0-2c-0.5,1-2.5,1-1,3c1,1.5,3.5-0.5,2.5,2.5c-0.5-1-1-1-2-1.5l-1,3h1.5c-0.5,0.5-0.5,0-1,0.5
						c2,1,0.5,4.5,2.5,5c0,1.5-1,3-1.5,4.5v-0.5c-1,1.5-0.5,4,1,5h-0.5c0,1,0,3,1,4c-1.5,2.5-6.5,1-4,3.5c0,2.5,3,3.5,4,2.5
						c-1,4,1.5,9-1,12.5c0.5,0.5,1,0,1.5,1.5c-0.5,6,2,13-1.5,17.6c-0.5-2-1.5,0-2.5,0c1.5,1.5-1.5,1.5,1,2.5c1.5,0,2,0,3-1.5
						c1,3.5,1,9-0.5,11c0.5-1,1,0,1.5,0.5c-1,0-2,0.5-2,1c-0.5,0.5,0,1,0.5,1.5h1.5c-0.5,0.5-1,0.5-1.5,1c0.5,0.5,3-0.5,2,1
						c-0.5,0.5-1,0.5-1.5,1c1.5,0.5,4,0,3.5,1.5c-0.5,0.5-0.5,1.5-0.5,2c0.5,0,2-0.5,1.5-1.5c0.5,2,2,2.5,2,4.5c0.5-0.5,1-1,1.5-1
						l1-0.5h0.5l0.5-0.5c2-0.5,4-1,6-1.5c4-0.5,8.5-0.5,12.5-0.5v1c2,1,1-2,2.5-1c-0.5,1,1.5,2.5,0,3.5c3,1,4-2,6-2.5
						c0.5-1.5-1.5,1-1-1c0.5-0.5,4,1,4.5-1c0.5,1,0,2.5,0,3.5l2-1c2,2.5-5,4.5-2.5,7.5l1.5-0.5c1.5,2.5-4.5,2.5,0,3.5c2-1,3.5-4,2-5
						c4-0.5,2-5,6-5c1,1.5-3.5,0.5-2.5,2c2,2,4-1,5.5-0.5c-2-1-0.5-3,1-3.5c2,1-1.5,2,1.5,2.5c0.5-1.5,3-2,1-3c1-3,3,1,4.5-1.5
						c1,2-3,4.5,0,5.5c-0.5-2,4-2.5,2.5-5.5c1.5,0.5,1.5,2,0.5,3.5c2,1,4.5-3.5,5,0.5l0.5-2c0.5,0.5,1.5,1,2.5,2c1.5,0,5-2.5,5,0.5
						c0.5-0.5,4,0,2.5-2c-2.5-1.5-2.5,1.5-4-1.5c1.5,2.5,3.5-0.5,4.5-1v1c1-0.5,2.5,0,3-1.5c-0.5,0.5-0.5,1.5,0.5,1.5l1-2
						c3-1,0.5,3,4,2.5l-2.5,1.5c0.5-0.5,1.5,1.5,3,1c0.5-1.5,1.5-3.5,2-5c1.5-0.5,1,2,2.5,0l-2,2c-0.5,0.5,1.5,2.5,4,2.5
						c1.5-0.5,4-3,1.5-4c1,0,3,1,2,2c2.5-0.5-0.5-1.5,2-2.5c1,1,4,2.5,5.5,4l-2.5,2.5h1.5c-2,2,1,1.5,0,4c1,0.5,2.5-0.5,3.5-1
						c-3-3.5,3.5-5,2.5-8.5c4.5-1,2.5,8,7,3c-0.5-1,1.5-3.5-1.5-2.5c2.5,0.5,2-3.5,5-2c-2.5,1.5,2.5,3.5-1,5.5c0-1-2-1-2.5-0.5
						c1,1.5,0,3.5,2.5,3.5c1.5-0.5,4-0.5,3.5-2c0-2-2.5,0-1.5-1.5c3.5-0.5,4,2,5.5-1c-2,0.5-2.5-1.5-2.5-3l2.5-1l-0.5,1.5
						c4,1,1-2.5,5-2l2,2.5c-1,2-5.5-1-5,2.5c2.5,0,3.5-1.5,5.5-0.5c-0.5,0.5-1,0.5-1.5,0.5c1,0,2,4.5,5.5,2c2-1,0.5-1,0.5-2.5
						c4-0.5,5-1.5,7.5-2c-0.5,2.5,4.5,0,1.5,3c-1.5-1.5-7-1.5-8.5,1c1.5,3-3-0.5-4,2.5c3,0,3,3,3.5,5c1,0,1.5-0.5,2.5-1
						c0.5-2-1-2-1-3.5c3.5,0.5,7-0.5,9-2.5c1,1,1,2.5-0.5,3c4-0.5,9-0.5,13,0.5c-2.5-3,4.5-0.5,2.5-3c-2-0.5-4-3-3-4
						c1.5,0,0,1.5,0.5,2c1.5-1.5,2.5,2.5,4.5,0c-4,1-1,3.5-1.5,6c3-1.5,0,1.5,2.5,1.5c3-1.5,6-2.5,9.5-3c4,2,10,0,13.5,0
						c2,1,0.5,4,2.5,4.5c2.5,0-1.5-3,1.5-1.5l-0.5,0.5c1-0.5,6.5,2,7.5-2l-1,3c0.5,0.5,1-0.5,2-0.5c0,1,1,2-0.5,2.5
						c2,2,4.5-0.5,6.5-0.5l-1.5-1.5c4-1.5,6.5,0.5,10.5,0v1.5l2.5-1c-0.5,1.5,1.5,2.5,2.5,1.5l-6,4c-1.5-1,2-2,1-3.5
						c-1-1.5-4.5-1-5,0.5c1.5,0,1.5,0,2.5-1c0.5,2.5-1.5,2-2.5,4c0.5,0,1.5,0.5,2,0c-1.5,1-3,1.5-5,1.5c1.5-1-1-1.5-0.5-2
						c0,2-2.5,2.5-5,2c-2-2.5-5.5,1.5-8.5,1c1.5-2,3-3.5,5-4.5c-2-1-2.5,0-4.5-1c-1,1.5-1.5,4-4.5,5V348c-2.5,1-2.5,3-5.5,2.5
						c-5.5-0.5-11-0.5-15-1V348c-2.5,3.5-7.5,1-10.5,2.5c-5-1.5-11.5,1.5-14-1c-9,1-17,2.5-27.1,2l1.5-2c-1.5,1.5-1-1.5-3-1
						c2,2-2.5,2.5-3.5,3.5c-4-1.5-9.5,0-13.5,1.5V352c-4,3-8.5,0.5-13,0c-0.5-0.5-1.5-2-3-2c-2.5,2.5-4,2.5-7.5,4
						c-2.5,0-7-0.5-10-1.5c-10.5,3.5-21.1,1-31.6,3.5l-1-2c-5,2-11,2-16.5,2c-3,0-5.5,0-8,0c-4,0-7.5-0.5-11-1.5c1-1,1.5-1.5,2-2.5
						c-3.5-2-8.5-3.5-9-1c-1.5-1.5-4-3-5.5-5c-2-2-3-4-2.5-5.5c-1.5-4-3.5-4-5-8c0-2.5,0-4,0-6c0-1,0-1.5,0-2c0-0.5,0-1,0-1.5
						c0-2,0-4-0.5-6.5v1.5c0.5,0.5,2,0.5,2-0.5c-1-2,1-7.5-3-5.5c2-6-1.5-13.5,1-19.1c-1,0.5-1-1-2-1.5c0-5,2-10.5,0.5-14.5
						c0.5-1,1.5,1.5,2-1c-0.5-1-1.5,0-2-1.5c-2-8,2-16.5,1.5-24.1c-2-13-1-27.1-1.5-39.6h0.5c-3-4,3-10-1.5-13.5c0.5-1,0.5-4,1.5-3
						c-1-1.5-0.5-4,0-6.5c0.5-4,1.5-8,2-12c-0.5,0.5-0.5,1-0.5,2c2-3.5,3.5-6.5,6-9.5c2-3,5-5.5,9-7c-0.5,0.5-1.5,1.5-1.5,2.5
						c1.5,0,2.5-2,4-3c1-1,2.5-2,4-0.5c1.5-0.5,0.5-2-0.5-1.5c2-0.5,4.5-1,6.5-1c1,0,2.5,0,3,0h2c3,0,6,0,9-0.5
						c6-0.5,12-1.5,18.1-1.5c8.5,2,0.5,6,7,3.5c0.5,0.5,0.5-1.5,0.5-0.5c2.5-1,4,4,6,2c-0.5-2,1-1,1.5-2.5c5,1.5,6,3.5,10.5,1.5
						l-0.5,1c5-3,10.5-1.5,14.5-5c26.6-0.5,52.1-2.5,78.2-3c13,0.5,25.6,0,38.1,0c6.5,0,12.5,0,19.1,0c3,0,6.5,0,9.5,0.5l5,0.5h2.5
						c1,0,3,0,4,0.5c5,2,7,4,9.5,5c2.5,1.5,5,2.5,9.5,6c-0.5,0-1-0.5-1,0.5c1-0.5,2.5,0.5,4,2c1.5,1.5,2.5,3.5,3.5,3
						c2,3.5,3.5,7.5,4,11.5c0.5,2,0.5,4,0.5,6v3.5c0,4.5,0.5,9.5,0.5,14.5c-0.5-1.5-2.5-2.5-2-0.5l1.5,2l-0.5,0.5
						c0.5,1.5,1.5,2.5,2.5,1.5c2,25.1-3,49.6-2,73.7c-1,6,0,14,0.5,20.6c-1,4.5-1.5,9-2.5,13.5c-0.5,2-0.5,4.5-1,6.5l-0.5,3.5
						c0,1.5-0.5,3.5-1,5c-3.5,13-15,23.6-29.6,24.6c0,0,1-1.5,3-3.5C368.6,350,371.6,348,374.6,344.9z"/>
					<path class="st1" d="M358.1,349.5c-0.5-1-3-2-1-3.5C357.1,347,358.1,348.5,358.1,349.5z"/>
					<path class="st1" d="M299.9,336.9c0,0.5-1-0.5-1-0.5c0.5,0,1.5-1,2-0.5C300.4,335.4,300.4,336.4,299.9,336.9z"/>
					<path class="st1" d="M285.4,335.9c0-1,3.5-2,5-2L285.4,335.9z"/>
					<path class="st1" d="M271.3,331.4c-1-1-1-1.5,0.5-1.5C272.3,330.9,271.8,330.9,271.3,331.4z"/>
					<path class="st1" d="M270.3,333.9c-1,0-1.5-0.5-2.5-1C268.3,333.9,270.8,332.4,270.3,333.9z"/>
					<path class="st1" d="M240.2,330.9c-0.5,0-2.5,1-3,0C238.2,331.4,240.7,329.4,240.2,330.9z"/>
					<path class="st1" d="M226.7,332.4c-0.5,0-0.5-0.5-1,0c-1-0.5,0-1.5,0.5-1.5L226.7,332.4z"/>
					<polygon class="st1" points="130.4,187.5 130.9,189 129.9,189 					"/>
					<path class="st1" d="M221.2,175.5c1.5-0.5,1,1,1.5,1C221.2,176.5,223.2,175,221.2,175.5z"/>
					<polygon class="st1" points="280.9,169.9 280.4,169.9 280.9,167.4 					"/>
				</g>
				<g>
					<path class="st1" d="M129.4,167.9c-1.5-0.5-1,2-1,0C128.9,167.4,129.4,166.9,129.4,167.9z"/>
					<path class="st1" d="M374.6,171c0.5,7-7,6-8,11.5c0,0.5-2-2.5-2.5-1c-0.5,6-7,8.5-13,9l-0.5-1c-1,0,0,3-1,3.5
						c-0.5-0.5-0.5-1-1-1.5c1,1.5-1,2-0.5,3c-1-0.5-1.5-1.5-2.5-1.5l1,2c2,4.5-3,2.5-3.5,5.5c0-0.5-0.5-1-0.5-1c-1,4.5-4.5,7-7,10.5
						c-0.5-0.5-1-1.5-2-2c1,1.5,0.5,3,0,4c-2-1.5,0,2.5-2,2.5v-0.5c1,2.5-2,0-0.5,2.5l-1.5-1c1.5,2.5-2-0.5-1.5,1.5l0.5,0.5
						c0,1-1.5,0-1.5,1h-0.5c-0.5,1.5-2.5,1-1,2.5c-1.5-1,0.5-1.5-2-3c-2.5,5-6.5,8.5-10.5,12c-1-0.5-1.5-0.5-2-1c0,0.5-1,1.5-1,3
						c0,0-1-0.5-1.5-0.5c-1.5,0,1,2.5-0.5,2.5c0-1-0.5-1.5-1-2c0.5,2-0.5,2.5-1,3.5c0-0.5,0-1-0.5-1.5c0.5,2.5-2,1-2,2.5l-0.5-1.5
						c-2.5,0,1.5,2.5,0,2.5c0-0.5-0.5-1-1-1.5c0.5,3-1.5,3.5-2,5l-0.5-0.5c-1,1-2.5,1.5-3,3.5c-1,0-2-2.5-3-1.5c2,2-1,2.5,1.5,4.5
						c-1.5,0.5-3.5,1-3.5,2.5c-0.5-1-2.5-2-2-3l-1.5-1c-0.5-1,1,0,0-1c-0.5,0.5-1,2.5-1.5,2c0.5,2,1.5,5,0.5,6.5c0-1.5-2.5-2-2-3
						l2,5.5c-0.5,0.5-1.5-1.5-1.5-0.5c0.5,0.5,0.5,1,1,1.5c-0.5,0-1,2-3,0c-1-0.5,0.5-1-1-1.5c-0.5,0.5,0,1.5-1,2l-0.5-0.5
						c-1,0-0.5,2,1,3c0.5,0-1-1,0-1c0.5,1.5,0,2.5-0.5,3.5c0-0.5-0.5-1-1-2c0.5,2.5,0,4-1,5.5c1,1-1-2-0.5-2c-2.5,0-1.5,4.5-4,3.5
						c0-0.5,1.5,1.5,1,1c-1,0.5-2-1-2,0c-1-1-0.5,1-0.5,1.5c0.5,1-0.5-0.5,0-0.5c0,1.5-1.5,5-4,5c0.5,0.5,0.5,1,0.5,1.5
						c0,0.5-0.5,1.5-0.5,2l-1-1.5c-1-0.5-1.5,1.5-2.5,0.5c0,1.5,1,0,1.5-1c0.5-1.5,1-2,1-1c-1-1-0.5,4-1.5,1.5c-1,1-1,3.5-2.5,3
						c0.5,0-0.5-3-1-2c-1,1.5,0,1-1,2.5l-0.5,1.5c0.5,1.5-1.5,1,0,2.5c-0.5-1.5-2,3-2.5-0.5l-0.5-2.5c-0.5,0.5-0.5,3.5-0.5,5
						c0,0-0.5-0.5-0.5-1c0.5,4-1.5,1-2,4.5c-0.5,0-1.5,0.5-2.5,1c-1-1-1.5-2-1.5-3.5c-1,0.5-2,1-3.5-1c0.5,0,0.5,0,1-1
						c-0.5-1.5-1-1-1.5-1c0-0.5-1-3.5-1-5c-1,0.5-1.5,2.5-2,3.5c0-2-0.5-2-1.5-2c-1,0-2-0.5-2-2c0.5,0,2,0,2-1.5c1-3.5-3,0.5-3.5-2
						l-1.5,2.5c0.5-2-2.5,0-1-2c-1,0.5-0.5-1.5-2,0.5c0-3-5-2.5-3-7c-0.5,0-1-0.5-1.5,0.5c-0.5,1.5,1-0.5,0.5,0.5
						c-0.5,0-1,0.5-1,0.5c0-1-0.5-1.5,1.5-2.5c0-2-4,2.5-5,0.5c1-1,1-1,0.5-1.5l-2,0.5c-0.5-1,1-2.5,2.5-4c-0.5,0-1.5-1-2.5,0l1-2.5
						c-0.5,1.5-1,0.5-1.5,0.5h0.5c0.5-0.5-0.5-1-1-1c-0.5,1-0.5,2-0.5,2.5c-1,0.5-1,0-2,0.5c1.5-1.5,0-1.5,0-2c0-0.5-1.5,1-1.5,0.5
						c0.5-0.5-0.5-1,0.5-1.5c0.5,0,0,1,0.5,0.5c0-1,1.5-2,0-1.5c-1,0.5-2,3-2.5,1c0.5,0,1-0.5,1.5-1v-1.5l-1,1
						c0-0.5,0.5-0.5,0.5-0.5c-1.5,1-1.5-0.5-3,0.5c-0.5,0,0-1.5-0.5-2l0,0c0-1-1-1-2-0.5l0.5-0.5c0-0.5-1-0.5-2,0c0-1.5,4-5,2-4
						c-0.5-0.5-3,1.5-3.5,2.5c-0.5-2-3.5-1-3-4c-0.5,0.5-1,1-1.5,1c-1.5-2-5-2-4.5-5.5c1,0,1-1,1.5-2c-1.5,1,0.5-1.5-1.5,0
						c-1,1-1.5,1.5-1.5,2.5c-1.5-0.5-3.5-1.5-3-3.5c0,1-0.5,1-1,1c1.5-2,1-2.5,0-2.5l-1,1l0.5-1.5c-0.5,0-2.5,2-2,0.5
						c0.5-0.5,0.5-1,1-1.5c-1.5,0.5-3.5,1-3.5-0.5l1-2c-0.5,0-2,0.5-1.5,1.5c-0.5-2-1-2.5,0-4.5c-5,1.5-8-0.5-10-3l1-1
						c0-1.5-1.5,1-1.5,0c1-0.5,1-2,2.5-2.5c0-1.5-2.5,0.5-3.5,0.5c-1,1,1-0.5,0,1c-0.5,0.5-0.5-2-2-0.5c0.5-1,1.5-2,2-2.5l-1,0.5
						c1-2.5,4.5-2,6-5h-0.5c1-2,3-1,2.5-2.5c-1,0.5-4,2.5-4,3.5c-1.5-0.5-4,3.5-5,2.5c0.5-1.5,1,0.5,2-1c0.5-2-2,0-2-1
						c0,1-2,2.5-2.5,2.5c0-1.5,1.5-1,1-2c-1,1-2.5,1-2.5,2c-2,2-0.5-1.5-2.5,0c1-2,4-3,3.5-4.5c-1,1.5-3,1-4.5,3.5c0-1,1-2,2-2.5
						c0-1.5-3.5,1.5-1.5-1.5l-1.5,1.5c0-0.5,0.5-1,0.5-2.5c-0.5-0.5-3.5,0.5-1.5-1.5c-0.5,0-1.5-1-2.5,1c0,1.5,2-0.5,0.5,2
						c1-2-1-0.5-2-0.5l0.5-1c-0.5,0-1-0.5-2,0.5c0.5-0.5,1-1,1-1.5l-1.5,1c-1.5,0,2-2.5,0.5-3l1.5-0.5c-0.5,0,0.5-1.5-0.5-1.5
						c-1,1-3,2.5-3.5,3c-1,0,1-1.5-0.5-1l2-1c0.5-0.5,1.5-2.5,0.5-3c-1,0-3,1-3,2.5c-0.5-0.5,0-1.5,1-2c-1-0.5-1,1.5-2.5,1.5
						c0.5-1,0.5-3,1-4.5l2.5-1.5l-0.5-0.5c2-1,1-1.5,2.5-3c0-0.5-1-0.5-1.5,0c-1.5,3.5-4.5,3-6,5.5c-2-0.5,4.5-7-0.5-4
						c-0.5,1-2.5,2-1,2c-0.5-1-2.5,2-3,0c1.5-0.5,1.5-3,3.5-4c-1,1,0,1,0.5,1c0.5-1,2-2.5,1.5-3c-0.5,0-1.5-0.5-2.5,0.5
						c-1,1.5,1,0.5-0.5,1.5C152,204,154,202,151,204c1,0.5-0.5,2-1,3h-1.5l1-1c-0.5-1.5-2,1.5-3,0l1-2.5c1.5-1.5,1,2,3-0.5
						c-0.5-0.5-2,0.5-2-1c0.5,0,0.5,0,1,0c0-0.5,2.5-4-0.5-3c-1,0.5-1,1-2,2c-1.5-0.5-2.5,0-3.5-0.5c2-2-1-1.5,1.5-2.5
						c-0.5,1.5,1,3,3.5,1.5c1.5-2.5,0.5,1,3-1c-1-1,1-3,2-4.5c0-0.5-1,0-1.5,0c-1.5,1.5-1,1.5-2,3c-0.5-1.5-2.5-1.5-4-0.5
						c0-1,1.5-2.5,2-2c-1.5-0.5-3-2-3.5-3.5c-1,3-2-0.5-3,1.5c0,1-0.5,3-2,4c-0.5-0.5,1-1,1-1.5c-1.5,1,1-2.5-1.5-1
						c2,0.5,2.5-2.5,4.5-4c-1.5,0.5,1-1,0.5-2c-1.5,0.5-3.5,0-4.5,0c0.5-2.5-3-2.5-4-3.5c0-1.5,2.5-3,2-4c-0.5-0.5-1.5,2.5-1.5,1
						l0.5-0.5c-0.5,0-0.5-3-3.5-0.5l2-2c0-0.5-0.5,0-1,0c0.5-0.5,1-1.5,1.5-2c0.5-2-1.5-1-2.5-1.5l-0.5,1.5c-2,0-1.5-2-3.5-2.5l1-1
						h-1.5c1-1,1.5-2.5,0-1.5l4.5-1.5c0,1-2,1-2.5,2.5c-0.5,1.5,0.5,2,2,1c-0.5-0.5-0.5,0-1,0c1.5-2,2-1.5,3-2c-0.5,0,0-1-0.5-0.5
						c1-0.5,1.5-0.5,2.5,0.5c-1,0.5-0.5,1.5-1.5,1.5c1.5-1.5,2.5-1.5,3,0c-1,2.5,2.5,0,3,1.5c-1.5,1-3.5,2-4.5,2
						c0,1.5,0.5,0.5,0.5,2c1.5-1,3-2.5,4.5-2.5l-1,1c1,0,2.5-1.5,3.5-0.5c1,2,3,3.5,4,4.5l-1,1c3-2,3,1,5,0.5c0.5,2.5,4.5,2,3.5,4.5
						c3.5,1.5,6.5,2.5,9,5.5l-2,1.5c1.5-1-0.5,1.5,0,1.5c0.5-2,2-1,3.5-2c0,2.5,3,2.5,5,2l-1,1c3-1,2.5,2,4,3.5c0,0.5-1,2-0.5,2
						c2.5-1,2.5-0.5,5-1c1,0.5,2,2.5,2,4c5.5,0,7,4.5,11.5,5.5l-1,1.5c5.5,0,7,5.5,11,6.5l-2,2c0,1.5,2.5,1,3.5-1c0,1.5,3,0.5,2,3
						c0.5,1,2,0,3,0c1,2.5,2,2.5,4,3.5l-0.5-0.5c-0.5,0.5-1.5,1.5-1,2c1,0,1.5,2.5,3.5-1c0.5,3,5,2,5,5.5c0.5-1,1-0.5,1.5-1
						c1.5,1.5,2,4,4,4c0,0.5-1.5,1-1,1.5c0.5,0,1-1,1.5-1c3.5,0.5,3.5,5.5,6.5,7.5c5,2,8.5,6,13,9l-0.5,0.5c3-1,1,4.5,5,2.5
						c0,1,1,1,0,2c0.5,0,1,0,1,0.5v0.5c0,0.5,0,1,1,0c0,0,0,0-0.5,0.5c0,2,1,0,1,2c0,0.5-0.5,0.5-0.5,1.5c0,2,1-3,0.5,1
						c0,0,0.5-2,0-2c0,0.5,0.5,1,0.5,1c1-0.5,2-3.5,2-4.5c1,0.5,2,1.5,2.5,2.5c0.5,0.5,0.5,1,0.5-0.5c0.5,0.5-1-1-0.5-0.5
						c0-1.5,4,2,3,0c-1.5-1.5-0.5-1-1.5-2c2.5-0.5,4,1,4-1.5l0.5,1c-0.5-3.5,2-4,1-7.5c7.5-7.5,14-15.5,21.6-22.6
						c8-6,14.5-13.5,23.6-19.1c4,0.5,4,0.5,5-2c0,0.5,0,0.5,0.5,1c-1.5-2,1.5-1.5,0-3.5c3-2,5.5-5,8.5-7.5c-0.5,0.5,1,2.5,1,1.5
						l-0.5-1.5l0.5,0.5c0-0.5,0-2-1-2c6-8,16.5-10.5,23.6-17c2.5-0.5,4.5-3.5,6-5.5c7.5-2.5,14.5-4.5,18.6-11
						C372.6,162.4,376.1,167.9,374.6,171z"/>
					<path class="st1" d="M130.4,168.9c-0.5,1-0.5,2-2,3C129.4,171,129.9,169.4,130.4,168.9z"/>
					<path class="st1" d="M139.5,193c0.5-0.5,0,0.5,0,1c-0.5,0-1,0.5-1,0C139,194,139.5,193.5,139.5,193z"/>
					<path class="st1" d="M143.5,197.5c-1,1-2.5,0.5-3,0H143.5z"/>
					<path class="st1" d="M145,204.5c0,1-0.5,1.5-1,1C144,205,144.5,205,145,204.5z"/>
					<path class="st1" d="M147,203c0.5,0.5,0,1,0,1.5C147,203.5,145.5,204,147,203z"/>
					<path class="st1" d="M153.5,213.1c0.5,0,1.5,0,0.5,1C154.5,213.1,152.5,214.1,153.5,213.1z"/>
					<path class="st1" d="M159,215.6L159,215.6c0.5,1-0.5,1-1,1L159,215.6z"/>
					<polygon class="st1" points="238.2,277.3 237.2,277.3 238.2,276.8 					"/>
					<path class="st1" d="M281.9,264.7c0-1,1,0.5,1,0.5C282.9,265.7,282.4,264.2,281.9,264.7z"/>
					<polygon class="st1" points="296.4,245.2 296.4,245.7 294.9,243.7 					"/>
				</g>
				<g>
					<path class="st1" d="M122.9,337.4c0,0.5,1.5,1,0.5,1C122.9,337.4,122.4,336.9,122.9,337.4z"/>
					<path class="st1" d="M217.7,251.2c3,5-2.5,2.5-1.5,6c0,0.5-2-2.5-2-1.5c2,4.5-2,4-5.5,3l-0.5-0.5c-0.5,0,1,2,0.5,2
						c-0.5-0.5-0.5-0.5-1-1c1,1.5,0,1,1,2c-0.5-0.5-1.5-1.5-2-2l1,1.5c3,4-1.5,1-0.5,3c-0.5-0.5-0.5-0.5-1-1c1,3-0.5,4-1,5.5
						c-0.5-0.5-1.5-1.5-2-2c1.5,1.5,1.5,2.5,1.5,3c-1.5-1.5,1,2-0.5,1.5l-0.5-0.5c1.5,2-1.5-0.5,0.5,1.5l-1.5-1c2,2.5-1.5-1-0.5,0.5
						l0.5,0.5c0.5,0.5-1-0.5-0.5,0.5h-0.5c0,1-1.5,0,0.5,1.5c-1.5-1.5,0-1-2.5-3c0,3-1.5,4-3,5.5c-1-0.5-1-0.5-2-1.5
						c0,0.5-0.5,1,0.5,2l-1-1c-1-0.5,1.5,2,0.5,1.5c-0.5-0.5-1-1-1.5-2c1,1.5,0.5,1.5,0.5,2.5c0-0.5-0.5-0.5-1-1c1,2-1,0-0.5,1.5
						l-1-1c-1.5-1,2,2,1,2c0-0.5-0.5-1-1-1c1.5,2,0,2,0.5,3l-0.5-0.5c0,0.5-1,0.5-1,1.5c-0.5-0.5-2.5-2.5-2.5-2c2,2,0,1.5,2.5,3.5
						c-0.5,0-2,0-1.5,0.5c-0.5-1-2.5-2.5-2.5-3l-1.5-1c-0.5-1,0.5,0-0.5-1c0,0,0,1.5,0,1c1,1.5,3,4,2.5,5c-0.5-1-2-2-2.5-2.5l3,4.5
						c0,0-1.5-1.5-1.5-1c0.5,0.5,0.5,1,1,1.5c-0.5,0,0,1-2-1c-1-0.5,0-0.5-1-1c-0.5,0.5,0.5,1,0,1.5l-0.5-0.5
						c-0.5,0,0.5,1.5,1.5,2.5c0,0-1-1-0.5-1c1,1.5,1,2,0.5,2c0-0.5-0.5-1-1-1.5c1,2,1,3,1.5,4c1,1-1.5-2-1-1.5c-2-1,0.5,3-1.5,1.5
						c0,0,1.5,1.5,1,1c-0.5,0-1.5-1.5-1.5-0.5c-1-1,0,0.5,0,1c0.5,0.5-0.5-0.5-0.5-0.5c0.5,1,0.5,3-1,2.5c0.5,0.5,1.5,2.5,1.5,2.5
						l-1-1.5c-1-0.5-0.5,0.5-1.5-0.5c1,2,0-2.5,0.5-1c-1-1,1.5,2.5,0,0.5c0,0.5,1,2-0.5,1c0.5,0-1.5-2-1.5-1.5
						c0,0.5,0.5,0.5,0.5,1.5l0.5,0.5c1,1-0.5,0,1,1.5c-1-1,0,1-2-1l-1.5-1.5c0,0.5,1.5,2,2,2.5l-0.5-0.5c2,2.5-0.5,0,1,2
						c-1-0.5-1,0.5-2.5-0.5c0.5,1,1,2,0,2c0-0.5,0-0.5-0.5-1c-1-0.5-0.5,0,0,0.5c-0.5-0.5-1.5-1-2.5-2c0.5,1,1.5,2,2.5,3
						c-2.5-2,0.5,2-1.5,0.5c0-0.5-0.5-1.5-1.5-2c-2.5-2,1,2-0.5,1.5l2,2c-1.5-1,0.5,1.5-1.5-0.5c0.5,1-1,0,1,1.5c-2-1-0.5,2.5-4-0.5
						c0,0.5-0.5,0.5,0.5,1c1,1-0.5-1,0-0.5c0,0,0.5,0.5,0.5,1c-0.5-0.5-1-0.5-2-2c-1.5-1,2.5,3.5,1.5,3.5c-0.5-1-1-1-1-1l1,1.5
						c-0.5,0-2-1.5-3-3c0,0.5-0.5,0.5,0.5,1.5l-2-1.5c1.5,1,0.5,1,1,1.5v-0.5c-0.5-0.5-0.5,0-0.5,0.5c1,1,1.5,1,1.5,1
						c0.5,0.5,0,0.5,0.5,1.5c-1-1.5-1-0.5-1.5-0.5c-0.5,0,1,1.5,1,1.5c-0.5-0.5-0.5,0-1-1c0-0.5,1,0.5,0.5,0c-0.5-0.5-1.5-1.5-1-0.5
						c0.5,1,2.5,2.5,1.5,2c0-0.5-0.5-1-1-1.5l-1-0.5l1,1c-0.5-0.5-0.5-0.5-0.5-0.5c1,1.5,0,1,1,2.5c0,0.5-1-0.5-1.5-0.5l0,0
						c-1-0.5-0.5,0,0,1v-0.5c0,0,0,0.5,0.5,1c-1-0.5-4.5-4.5-3-2.5c0,0.5,1.5,2.5,2.5,3.5c-1-0.5,0,2-2,0.5c0.5,0.5,0.5,1,1,1
						c-1,0,0,3-3,1c-0.5-0.5-1-1-2-2c1,1-1.5-1,0.5,1c1,1,1.5,1.5,2,2c0,1-0.5,1.5-1.5,0.5c0.5,0.5,1,1,1,1c-1.5-2-2-2-2-1l1,1l-1-1
						c0,0.5,2,2.5,1,1.5c-0.5-0.5-1-1-1-1c0.5,1,1.5,3,0.5,2l-1.5-1.5c0,0.5,0.5,1.5,1.5,1.5c-1.5-0.5-1.5-0.5-3-1.5
						c2.5,4,1.5,5,0.5,5.5l-0.5-1c-1-0.5,1,1.5,0.5,1c-0.5-1-1.5-1.5-2.5-2.5c-1-0.5,1,2,1,2.5c1,1-0.5-1,1,0.5c0.5,0.5-1-0.5,0,1.5
						c-0.5-0.5-1.5-2-2.5-2.5l0.5,1c-2-1.5-2.5-4-5-6v0.5c-1.5-1.5-1.5-2.5-2.5-2.5c0.5,1,2.5,3.5,3.5,4c0,1,3.5,4,3,4.5
						c-1-1,0-0.5-1-2c-1.5-1,0,1-0.5,1c1,0.5,2,2,2,2.5c-1-0.5-1.5-1.5-1.5-1.5c1,1,1,2,2,2.5c2,2-1-0.5,0.5,1.5c-1.5-1.5-3-3.5-4-4
						c1.5,1.5,1.5,2.5,3.5,4.5c-0.5-0.5-1.5-1.5-2.5-2.5c-1-0.5,2,3-1,0.5l1.5,1.5c-0.5-0.5-1-0.5-2-1.5c0,0,1,2.5-1,0.5
						c0,0.5-0.5,0.5,1,2c1,0.5-0.5-1.5,1.5,0.5c-1.5-1.5,0,0.5,0,1.5l-1-1c0,0.5,0,0.5,0.5,1.5c-0.5-0.5-1-1-1-1l1,1.5
						c0,1-2-2-2-1.5l-0.5-1c0,0.5-1-1-1-0.5c1,1,2,3,3,3.5c0.5,0.5-1.5-1-0.5,0l-1-1.5c-0.5-0.5-2-2-2-1.5c0,0.5,1.5,2.5,2.5,3
						c0,0-1-0.5-1.5-1.5c0,0.5,1,1,1.5,2c-1-0.5-2-1.5-3.5-2.5l-1.5-2l0,0c-1-2-1-1-2.5-3c-0.5,0,0,0.5,0.5,1c3,2.5,3,4,5.5,6.5
						c0,1-6-5.5-3-1.5c0.5,0.5,2,2.5,2,1.5c-0.5,0,2,2.5,1,2c-0.5-1-2.5-2-3.5-4c0.5,1,1,0.5,0.5,0c-1-1-2-2.5-2.5-2
						c0,0.5,0,0.5,1,2c1.5,1.5,0-0.5,1.5,1c0,1-2-1,0,1.5c0-0.5,1.5,1,2.5,2l0.5,1l-1-1c-1-0.5,1.5,2,1,2l-2-1.5
						c-1.5-1.5,1.5,0-1-2.5c-0.5,0,0.5,1.5,0,1c0-0.5,0-0.5-0.5-0.5c0,0-3.5-3.5-2-1c0.5,1,1,1,1.5,2c0,0.5,0.5,2,0.5,2
						c-1.5-2-0.5,0.5-2-2c1,1,1.5,0,0-1.5c-2-2,0.5,0-1.5-2.5c-0.5,0.5-2.5-2-4-3.5c0,0,0.5,0.5,0.5,1c1,1.5,1.5,1,2.5,2.5
						c-0.5,0-0.5,1,0.5,2.5c-1-0.5-2-2-2-2c0,1-1,1-1.5,1c2.5,2,0,1,2,2.5c0.5,0.5,2.5,1.5,3,2.5c-0.5,0-1-1-1.5-1.5
						c1,1.5-2-1.5-0.5,0.5c0-1-2.5-2.5-4-4.5c0.5,1.5-1-1-1.5-1c0.5,1,1,2.5,1,3c-2-1-1,1-1.5,1.5c-1-0.5-2.5-2.5-3-3
						c0,0.5,2,2,1,1.5l-0.5-0.5c0.5,0.5-2-0.5,0.5,2l-2-2c0,0,0,0.5,0.5,0.5c-0.5-0.5-1.5-1-1.5-2c-1.5-1-0.5,0.5-0.5,1l1.5,1
						c0.5,1.5-1,0.5-1,1.5l-1-1l0.5,1c-1-1-2-2-1-0.5l-2-3.5c1,0.5,1,1.5,2.5,2.5c1,1,1,0.5,0-1c-0.5,0,0,0.5,0.5,1
						c-1.5-1.5-1.5-2-2.5-3c0,0-0.5-0.5,0,0.5c-0.5-1-0.5-1-0.5-1.5c0.5,1,1,1,1.5,1.5c-1.5-1.5-1.5-2-1-2c2,1.5-0.5-1.5,0.5-1.5
						c1.5,1.5,2,3,2.5,4c1,0.5,0-0.5,1,0.5c-1-1-2.5-3-3-4l1,1c-0.5-1-2-2.5-1-2.5c1,0,1.5-0.5,2.5-1l1,1c-2-2.5,0-1.5-0.5-3
						c1.5,0.5,0.5-2,2.5-0.5c0-2,0.5-3.5,2-4l1.5,2c-1-1.5,1,1,1,0.5c-1.5-1-1.5-2-2-3c1.5,1,1-1,0.5-2.5l1,1
						c-1.5-2.5,0.5-1,1.5-1.5c0.5,0.5,1.5,1.5,1.5,1c-1.5-2-1-2-1.5-3.5c0.5-0.5,1-0.5,2,0c-1-3.5,1.5-3,1.5-6l1.5,1
						c-1.5-4,2.5-2.5,2-5l2,2.5c1,0.5,0-1.5-1.5-3c1,0.5,0-2,1.5,0c0.5,0-0.5-1.5-0.5-2c1.5,0,1.5,0,1.5-1H149
						c0.5,0.5,1.5,1.5,1.5,1.5c-0.5-1,1.5,0-1.5-2.5c2,1,0.5-2.5,3-1c-0.5-0.5-0.5-1-1-1.5c0.5-0.5,2.5,0.5,2-1.5
						c0.5,0.5,1,1.5,1.5,1c0-0.5-1-1-1-1.5c-0.5-2,3-0.5,3.5-1.5c0-3,2.5-3.5,3.5-5l0.5,0.5c-1.5-2.5,3,1,0.5-2.5
						c0.5,0.5,0.5,0,1.5,1c-1-2,2.5,0.5,1-2c0,0,0,0,0,0.5c1.5,0.5,0.5-1.5,2-1c0,0.5,0,0.5,0.5,1c1,1-1.5-3,1-0.5c0,0-1-1.5-1-1
						c2,0,2-3,3-5c2.5,0.5,4,4.5,3,1.5c0.5,0.5-1-1-0.5-0.5c-0.5-1,3,2.5,2,1c-1.5-1.5-0.5-1-1.5-2c1.5,0.5,3,2,2.5,0l0.5,1
						c-1.5-3,0-2-2-5.5c2.5-3.5,4-7.5,6.5-10.5c3.5-2,5-6,9.5-7.5c2.5,1.5,2.5,1.5,2.5,0c0.5,0.5,0.5,0.5,0.5,1
						c-1.5-2,0.5-0.5-1-2.5c1.5-0.5,2-2,3-3c0,0.5,1.5,2,1.5,1.5l-1-1.5l0.5,0.5c0-0.5-1-1.5-1.5-2c1.5-4,7.5-3,10-6
						c1.5,0,1.5-1.5,2-2.5c4.5,0.5,8,0.5,8.5-3C213.2,244.2,217.7,249.2,217.7,251.2z"/>
					<path class="st1" d="M123.4,336.9c1,1,1.5,1,2.5,2.5C124.9,338.4,123.9,337.4,123.4,336.9z"/>
					<path class="st1" d="M138.5,339.9C138.5,339.4,139,340.4,138.5,339.9c0.5,0.5,1,1.5,0.5,1C139.5,340.9,139,340.4,138.5,339.9z"
						/>
					<path class="st1" d="M140.5,338.9c0.5,1,1,2,1,2L140.5,338.9z"/>
					<path class="st1" d="M145.5,340.9c1,0.5,1,1,1,1C146,341.4,145.5,341.4,145.5,340.9z"/>
					<path class="st1" d="M144,338.9c0,0,0.5,0.5,1,0.5C144,338.9,145,340.4,144,338.9z"/>
					<path class="st1" d="M149.5,337.9C149.5,337.9,149,336.9,149.5,337.9C149,337.4,150.5,339.4,149.5,337.9z"/>
					<path class="st1" d="M149.5,335.4C150,335.4,150,335.4,149.5,335.4c0.5,0,1,1,1,1L149.5,335.4z"/>
					<polygon class="st1" points="175.1,305.8 175.6,306.3 174.6,305.3 					"/>
					<path class="st1" d="M187.6,293.8c-0.5-0.5,1,0.5,1,0.5C188.6,294.8,187.6,293.8,187.6,293.8z"/>
					<polygon class="st1" points="190.6,283.8 190.6,283.8 189.1,282.3 					"/>
				</g>
				<g>
					<path class="st1" d="M376.6,343.4c0.5,0,1-1.5,1-0.5C376.6,343.4,376.1,343.9,376.6,343.4z"/>
					<path class="st1" d="M283.4,256.2c5-3,2.5,2.5,6.5,1c0.5,0-2,2.5-1.5,2c4-2,4.5,1.5,3.5,5.5l-0.5,0.5c0,0.5,2-1,2-0.5
						c-0.5,0.5-0.5,0.5-1,1c1.5-1,1,0,2-1c-0.5,0.5-1.5,1.5-1.5,2.5l1.5-1.5c3.5-3,1,1.5,3,0c-0.5,0.5-0.5,0.5-1,1c3-1,4,0.5,6,0.5
						c-0.5,0.5-1.5,1.5-2,2c1.5-1.5,2-1.5,3-1.5c-1.5,1.5,2-1,1.5,0l-0.5,0.5c2-1.5-0.5,1.5,1.5-0.5l-1,1.5c2-2-0.5,1.5,0.5,0.5
						l0.5-0.5c0.5-0.5,0,1,0.5,0.5v0.5c1,0,0,1.5,1.5-0.5c-1,1.5-1,0-2.5,2.5c3-0.5,4.5,1.5,6,2.5c-0.5,1-0.5,1-1,2c0.5,0,1,0,2-0.5
						l-0.5,1c-0.5,1,2-1.5,1.5-0.5c-0.5,0.5-1,1-1.5,1.5c1.5-1,1.5-0.5,2.5-1c-0.5,0.5-0.5,0.5-1,1c2-1.5,0.5,1,1.5,0l-1,1
						c-0.5,1.5,2-2,2-1c-0.5,0-0.5,0.5-1,1c2-1.5,2-0.5,3-0.5l-0.5,0.5c0.5,0,0.5,1,1.5,0.5c-0.5,0.5-2.5,2.5-1.5,2.5
						c2-2,1.5,0,3.5-2.5c0,0.5,0,2,1,1.5c-1,0.5-2,2.5-2.5,2.5l-1,1.5c-1,1,0-0.5-1,0.5c0,0,1.5-0.5,1,0c1.5-1,4-3,4.5-3
						c-1,0.5-2,2.5-2.5,2.5l4-3.5c0,0-1.5,1.5-0.5,1.5c0.5-0.5,1-1,1.5-1c0,0.5,1,0-0.5,2c-0.5,1-0.5,0-1,1c0.5,0,1-0.5,1.5,0v0.5
						c0,0.5,1.5-0.5,2-1.5c0,0-1,1.5-0.5,0.5c1-1,2-1,2-1c-0.5,0-1,1-1.5,1.5c2-1,2.5-1.5,3.5-1.5c1-1-2,1.5-1.5,1
						c-0.5,2,3-1,1.5,1.5c0,0,1-1.5,1-1s-1,1.5-0.5,1.5c-0.5,1,0.5,0,1,0c0.5-0.5-0.5,0.5-0.5,0.5c1-0.5,3-1,2.5,1
						c0.5-0.5,2-1.5,2-1.5l-1,1c-0.5,1,0.5,0.5-0.5,1.5c1.5-1.5-2.5,0.5-1-0.5c-1,1,2.5-1.5,0.5,0c0.5,0,2-1,1,0.5
						c0-0.5-2,1.5-1.5,1.5s0.5-0.5,1.5-0.5l0.5-0.5c1-1,0,0.5,1.5-1c-1,1,1,0-1,2l-1.5,1.5c0.5,0,2-1.5,2.5-2c0,0-0.5,0.5-0.5,1
						c2.5-2.5,0,0.5,2-1c-0.5,1,1,1-0.5,2.5c1-0.5,2-1,2-0.5c-0.5,0-0.5,0-1,0.5c-0.5,1,0,0.5,0.5,0c-0.5,0.5-1,2-1.5,3
						c1-0.5,2-2,3-2.5c-2,2.5,2-1,0.5,1.5c-0.5,0.5-1.5,1-2,1.5c-2,2.5,2-1.5,1.5,0l2-2c-1,1.5,1.5-0.5-0.5,1.5c1-0.5,0,1,1.5-1
						c-1,2,2.5,0.5-0.5,4c0.5,0,0.5,0.5,1-1c1-1-1,0.5-0.5,0c0,0,0.5-0.5,1-1c0,0.5,0,1-2,2.5c-0.5,1.5,3.5-3,3.5-1.5
						c-1,1-1,1-0.5,1l1.5-1c0,0.5-1.5,2-3,3.5c0.5,0,0.5,0,1.5-0.5l-1.5,2c1-1.5,1-0.5,1.5-1l-0.5,0.5c-0.5,0.5,0,0.5,0.5,0.5
						c1-1,1-1.5,1-2c0.5-0.5,0.5,0,1.5-1c-1.5,1.5-0.5,1-0.5,1.5c0,0.5,1.5-1,1.5-1c-0.5,0.5,0,0.5-1,1c-0.5,0,0.5-1,0-0.5
						c-0.5,0.5-1.5,2-0.5,1c1-0.5,2.5-2.5,2-1.5c-0.5,0.5-1,1-1.5,1l-0.5,1l1-1c0,0.5-0.5,0.5-0.5,0.5c1.5-1,1,0,2.5-1.5
						c0.5,0-0.5,1-0.5,1.5l0,0c-0.5,1,0,0.5,1,0l-0.5,0.5c0,0,0.5,0,1-0.5c-0.5,1-4,4.5-2.5,3.5c0.5,0,2.5-2,3-3c-0.5,1.5,2-0.5,1,2
						c0.5-0.5,1-1,1-1c0,1,3,0,1,3c-0.5,0.5-1,1-2,2c1-1-1,1.5,1-0.5c1-1,1.5-1.5,1.5-2.5c1,0,1.5,0.5,1,1.5c0.5-0.5,1-1,1-1
						c-1.5,1.5-1.5,2.5-1,2l1-1l-1,1c0.5-0.5,2-2,1.5-1c-0.5,0.5-0.5,1-1,1c1-0.5,3-2,2-0.5l-1,2c0.5,0,1.5-1,1.5-1.5
						c-0.5,1.5-0.5,1.5-1.5,3c4-2.5,5-2,5.5-0.5l-1,1c-0.5,1,1.5-1.5,1-0.5c-1,0.5-1.5,2-2.5,2.5c-0.5,1,1.5-1,2.5-1
						c1-1-1,0.5,0.5-1c0.5-0.5-0.5,1.5,1-0.5c-0.5,0.5-1.5,2-2.5,2.5l1-0.5c-1.5,2-3.5,3-5.5,5.5h0.5c-1.5,2-2,1.5-2.5,2.5
						c1-0.5,3-3,3.5-3.5c1,0,3.5-3.5,4-3c-0.5,1-0.5,0-1.5,1.5c-1,1.5,1-0.5,1,0.5c0.5-1,2-2.5,2.5-2.5c-0.5,1-1.5,1.5-1.5,2
						c1-1,2-1.5,2-2c2-2,0,1,1.5-0.5c-1,1.5-3.5,3-4,4c1.5-1.5,2-1.5,4-4c0,0.5-1,1.5-2,2.5c-0.5,1,3-2,0.5,0.5l1.5-1.5
						c-0.5,0.5-0.5,1-1,2c0,0,2.5-1.5,0.5,0.5c0.5,0,0.5,0.5,2-1.5c0.5-1-1.5,1,0.5-1.5c-1.5,2,0.5,0,1-0.5l-1,1
						c0.5-0.5,0.5,0,1.5-1c-0.5,0.5-1,1-1,1.5l1.5-1c1-0.5-2,2.5-1.5,2.5l-1,1c0.5,0-0.5,1,0,1c1-1,2.5-2.5,3.5-3.5
						c0.5-0.5-1,1.5,0,0.5l-1.5,1c-0.5,0.5-1.5,2-1.5,2.5c0.5-0.5,2.5-1.5,2.5-2.5c0,0-0.5,1-1,2c0.5,0,1-1.5,2-2
						c-0.5,1-1.5,2.5-2,3.5l-2,1.5l0,0c-1.5,1.5-1,1.5-2.5,3c0,0.5,0.5,0,1-0.5c2-3,4-3.5,6-6c1,0-5,6-1,3c0.5-0.5,2.5-2.5,1.5-2
						c0,0.5,2.5-2.5,2-1c-1,1-2,2.5-3.5,4c1-1,0.5-1,0-0.5c-0.5,1-2.5,2.5-2,2.5s0.5,0,2-1c1.5-1.5-0.5,0,1-1.5c1,0-1,2,1.5-0.5
						c-0.5,0,1-1.5,1.5-2.5l1-0.5l-1,1c0,1,1.5-1.5,2-1l-1.5,2c-1.5,1.5,0-1.5-2.5,1.5c0,0.5,1.5-1,1,0c-0.5,0-0.5,0-0.5,0.5
						c0,0-3,3.5-1,2c1-0.5,1-1,2-2c0.5,0,2-0.5,2-0.5c-2,2,0.5,0.5-1.5,2.5c1-1,0-1.5-1.5,0c-2,2.5,0-0.5-2,1.5c0.5,0.5-1.5,2.5-3,4
						c0,0,0.5-0.5,1-0.5c1.5-1.5,1-1.5,2.5-3c0,0.5,1,0.5,2.5-1c-0.5,1-2,2-2,2c1,0,1,0.5,1.5,1.5c1.5-2.5,1,0,2.5-2
						c0-0.5,1.5-2.5,2.5-3.5c0,0.5-1,1-1.5,1.5c1.5-1-1.5,2,0.5,0.5c-1,0.5-2.5,2.5-4,4.5c1-0.5-1,1-1,1.5c1-0.5,2.5-1,3-1
						c-1,2,1,1,1.5,1.5c-0.5,1-2.5,3-2.5,3.5c0.5,0,1.5-2.5,1.5-1l-0.5,0.5c0.5-0.5-0.5,2,2-0.5l-2,2c0,0.5,0.5,0,0.5-0.5
						c-0.5,0.5-1,1.5-1.5,1.5c-1,1.5,0.5,0,1,0.5l1-1.5c1.5-0.5,0.5,1,1.5,1l-1,1l1-0.5c-1,1-1.5,2-0.5,1l-3.5,2.5
						c0.5-1,1.5-1.5,2.5-2.5c1-1,0-1-1,0c0,0.5,0.5,0,1-0.5c-1.5,2-1.5,1.5-3,2.5c0,0,0,0.5,0.5,0c-1,0.5-1,0.5-1.5,0.5
						c1-0.5,1-1,1.5-1.5c-1.5,1.5-2,1.5-2,1c1.5-2-1.5,0.5-1.5-0.5c1.5-1.5,3-2.5,3.5-3c0.5-1-0.5,0,0-1c-1,1-3,2.5-4,3l1-1
						c-1,0.5-2.5,2-2.5,1.5c0-1-0.5-1.5-1-2l1-1c-2.5,2-1.5,0-3,1c0.5-1.5-2.5,0-1-2.5c-2,0-3.5,0-4-1.5l1.5-1.5c-1.5,1,0.5-1,0.5-1
						c-1,1.5-2,1.5-3,2.5c0.5-1.5-1-1-2.5,0l1-1c-2.5,1.5-1-0.5-1.5-1.5c0.5-0.5,1-1.5,1-1.5c-2,1.5-2,1.5-3.5,2c-0.5-0.5-0.5-1,0-2
						c-3.5,1.5-3-1-6-1l1-1.5c-4,1.5-3-2-5-1.5l2-2c0.5-1-1.5,0-2.5,1.5c0.5-1-2,0.5-0.5-1.5c0-0.5-1.5,0.5-2,0.5
						c0-1.5-0.5-1.5-1.5-1.5v0.5c0.5-0.5,1.5-1.5,1.5-1.5c-1,0.5-0.5-1.5-2.5,1.5c1-2-2.5,0-1.5-3c-0.5,1-1,1-1.5,1
						c-0.5-0.5,0-2.5-1.5-1.5c0-0.5,1.5-1,1-1.5c-0.5,0-1,1-1.5,1c-2,0.5-0.5-3-1.5-3.5c-3,0-3.5-2-5.5-3l0.5-0.5
						c-2.5,1.5,1-3-2.5-0.5c0.5-0.5,0-0.5,1-1.5c-1.5,1,0-2.5-2-1c0,0,0,0,0.5,0c0.5-1.5-1.5-0.5-1-2c0.5,0,0.5,0,1-1s-2.5,2-0.5-1
						c0,0-1.5,1-1,1c-0.5-2-3.5-2-5-2.5c0.5-2.5,4-4.5,1.5-3c0.5-0.5-1,1-0.5,0.5c-1,0.5,2-3.5,1-2c-1.5,1.5-1,1-2,1.5
						c0.5-1.5,1.5-3,0-2.5l1-1c-2.5,2-2,0-5,2.5c-3.5-2-7.5-3.5-11-5.5c-2.5-3-6.5-4.5-8-8.5c1.5-3,1-3-0.5-2.5
						c0.5-0.5,0.5-0.5,0.5-0.5c-1.5,2-0.5-0.5-2.5,1.5c-1-1.5-2-2-3.5-3c0.5,0,2-1.5,1.5-1.5l-1.5,1l0.5-0.5c-0.5,0-1.5,1-1.5,1.5
						c-4-1-3.5-7-7-9c0-1.5-1.5-1.5-2.5-2c0-4.5,0-8-3.5-8.5C277.3,261.2,281.9,256.7,283.4,256.2z"/>
					<path class="st1" d="M376.1,342.9c1-1,1-1.5,2.5-2.5C377.6,341.4,376.6,342.4,376.1,342.9z"/>
					<path class="st1" d="M378.1,327.9C377.6,328.4,378.1,327.4,378.1,327.9c0.5-0.5,1.5-1,1-0.5
						C378.6,326.9,378.6,327.4,378.1,327.9z"/>
					<path class="st1" d="M377.1,325.9c1-1,1.5-1,2-1L377.1,325.9z"/>
					<path class="st1" d="M378.6,320.9c0.5-1,1-1,1-1C379.1,320.4,378.6,320.4,378.6,320.9z"/>
					<path class="st1" d="M376.6,322.9c0,0,0-0.5,0.5-1C376.6,322.4,378.1,321.4,376.6,322.9z"/>
					<path class="st1" d="M375.6,317.4C375.1,317.4,374.6,317.9,375.6,317.4C374.6,317.4,376.6,315.9,375.6,317.4z"/>
					<path class="st1" d="M372.6,316.9L372.6,316.9c0-0.5,0.5-1,1-1L372.6,316.9z"/>
					<polygon class="st1" points="341,293.8 341.5,293.8 341,294.3 					"/>
					<path class="st1" d="M328.5,282.8c-0.5,0.5,0.5-1,0.5-1C329.5,281.8,328.5,282.3,328.5,282.8z"/>
					<polygon class="st1" points="318,280.3 318,280.3 316.5,282.3 					"/>
				</g>
			</g>
		</g>
	</g>
</g>
</svg>
