<?xml version="1.0" encoding="utf-8"?>
<!-- Generator: Adobe Illustrator 25.2.1, SVG Export Plug-In . SVG Version: 6.00 Build 0)  -->
<svg version="1.1" xmlns="http://www.w3.org/2000/svg" xmlns:xlink="http://www.w3.org/1999/xlink" x="0px" y="0px"
	 viewBox="0 0 1920 1080" style="enable-background:new 0 0 1920 1080;" xml:space="preserve">
<style type="text/css">
	.st0{fill:#202020;}
</style>
<g id="penlette">
	<g>
		<g>
			<path class="st0" d="M853.6,384c-2,0.3-0.9,0.8,4.7,0.7l3.9-1L853.6,384z"/>
			<path class="st0" d="M890.8,385.8c6.5-0.5,14-1.3,9.8-2.2c-6.4,1-8,0.6-14.9,1.7c-5.5,0.1-9.7-0.3-8.7-0.7
				c-2,0.2-8.6-0.2-11.6,0.4c7.2,0.8,16.3,0.8,25.9,0.2C893.3,385.4,891.3,385.7,890.8,385.8z"/>
			<path class="st0" d="M1431.8,387.4l-3.5-0.1C1429.3,387.3,1430.5,387.3,1431.8,387.4z"/>
			<path class="st0" d="M1765.2,387.9c-1.6,0-2.2,0.1-2.3,0.2C1764.3,388,1765.5,388,1765.2,387.9z"/>
			<path class="st0" d="M1742.3,432.3c1-0.5,1.8-1.1,2.6-1.7C1743.9,431.3,1742.9,431.9,1742.3,432.3z"/>
			<path class="st0" d="M1431.8,387.4l9,0.3C1441.4,387.3,1436.2,387.4,1431.8,387.4z"/>
			<path class="st0" d="M965.4,383.4c-1.9,0-3.4,0.1-4.9,0.3c1.5,0,3-0.1,4.6-0.1C965.2,383.5,965.3,383.5,965.4,383.4z"/>
			<path class="st0" d="M1284.1,388.2h-2.7c-0.8,0.1-1.6,0.2-2.3,0.4L1284.1,388.2z"/>
			<path class="st0" d="M1170.7,388.3c2.6,0,3.5-0.8,4.4-1.2c-1.4,0.4-3.3,0.5-5.6,0.6C1169.5,387.9,1169.8,388.1,1170.7,388.3z"/>
			<path class="st0" d="M990.8,386.9l-3.2,0.1C988.5,386.9,989.9,386.9,990.8,386.9z"/>
			<path class="st0" d="M1365.2,388.3c0.2,0.1,0.6,0.2,1,0.3C1366.3,388.5,1365.9,388.4,1365.2,388.3z"/>
			<path class="st0" d="M823.9,432.3C824,432.3,823.9,432.2,823.9,432.3C823.4,432.2,823.3,432.3,823.9,432.3z"/>
			<path class="st0" d="M853.8,386l-0.3,1.8c0.1,0.2,0.2,0.5,0.4,0.5L853.8,386z"/>
			<path class="st0" d="M1649.2,413.5c0.2,0,0.3-0.1,0.5-0.1C1652.3,412.6,1650.8,413,1649.2,413.5z"/>
			<path class="st0" d="M795.2,689.4c10.3,3.7-17.3-3.9-1.8,1.4C792,690,808.1,693.6,795.2,689.4z"/>
			<path class="st0" d="M968.4,383.6c1.5,0,3.1,0,4.7,0C970.9,383.5,969.5,383.5,968.4,383.6z"/>
			<path class="st0" d="M793.4,690.7L793.4,690.7l1.6,0.5C794.3,691.1,794,690.9,793.4,690.7z"/>
			<path class="st0" d="M1419.5,488.7c0.5-0.1,1.4-0.3,2.4-0.6C1421.8,488.1,1421.2,488.2,1419.5,488.7z"/>
			<path class="st0" d="M1590.1,431.3l-4.3,1.1C1587.5,432.1,1588.9,431.7,1590.1,431.3z"/>
			<path class="st0" d="M1334.4,527.4c-2.2,1-3,1.2-5.9,2.8c0.3-0.1,0.6-0.2,0.9-0.3C1330.4,529.3,1331.8,528.4,1334.4,527.4z"/>
			<path class="st0" d="M1248,572.2c0.5-0.2,1.1-0.5,1.7-0.7c0.8-0.5,1.8-1,2.7-1.5L1248,572.2z"/>
			<path class="st0" d="M629.3,401c0.4,2,0.6,3.3,0.7,4.3c0-0.8,1.3,2,1.9,3.1c0.3,0.5,0.4,0.6,0-0.4c-0.2-0.5-0.5-1.3-1-2.4
				S629.9,403,629.3,401z"/>
			<path class="st0" d="M965.5,383.9c0.6-0.2,1.4-0.3,2.9-0.4c-1.1,0-2.2,0-3.2,0C964.8,383.7,964.8,383.8,965.5,383.9z"/>
			<path class="st0" d="M1333.7,535.1l-13.9,6.7C1323.7,540,1328.7,537.6,1333.7,535.1z"/>
			<path class="st0" d="M150.3,598.5l-0.1-3.8c0,0.7,0,1.3,0,1.9c0,0.3,0,0.6,0,0.9C150.3,597.8,150.3,598.2,150.3,598.5z"/>
			<path class="st0" d="M1279.2,562.7c-2.6,1-5.2,2.3-7.9,3.6c-0.5,0.4-1.1,0.8-1.5,1C1272.9,565.8,1276,564.2,1279.2,562.7z"/>
			<path class="st0" d="M629.9,405.4L629.9,405.4L629.9,405.4z"/>
			<path class="st0" d="M698.2,473.3c-3.2-1.6-5.2-2.6-6.4-3.1c-1.2-0.6-1.7-0.7-1.9-0.6c-0.4,0.2,0.4,1.1-1.1,0.7
				c-3.8-2-6-3.5-7.5-4.4c-1.4-0.9-1.8-1.4-2-1.7c-0.3-0.6,0.6-0.5-1.7-2.3c-9-5.6-16.1-10-21.7-15.7c-0.3-0.5-1.3-1.7,0.1-0.6
				c-0.5-0.5-1-1-1.6-1.5c-0.5-0.5-1.2-1-1.7-1.7c-1.1-1.2-2.3-2.7-3.5-4.2c-2.4-3.1-4.9-6.6-7.2-10.2s-4.6-7.4-6.6-11
				s-3.7-7.1-5.2-10c-0.3-1-0.4-1.4-0.4-1.7c0.2,2.2-0.1,2.7-0.7,2.4c-2.4-6-4.4-11.3-4.3-13.9c0.9,3.9,1.3,4.1,2.1,5.9
				c-0.8-2.1-1.4-4.3-2-6.5c-0.2-3.1,0.4-0.9,1.2,2.1s2,6.6,2.3,6.5c-0.9-2.6-1.7-5.2-2.5-8c-0.4-1.4-0.7-2.7-1.1-4.1l-0.3-1.4
				l-0.3-1.5c-0.2-1-0.4-2-0.6-3c-4.7,0.1-9.4,0.2-13.7,0.3c-3.8,0.1-7.3,0.1-10.3,0c-2.2-1,24.1-0.3,10.4-1.2l14.2,0.3
				c0.3,2.1,0.6,4.2,1,6.1c-0.2-2.2-0.4-4-0.4-5c-0.1-1-0.1-1.4,0-1.3c0.1,0.2,0.5,2.3,0.8,4.4c0.1,0.5,0.2,1.1,0.3,1.6
				c0.1,0.3,0.1,0.6,0.2,0.9c0.1,0.5,0.2,0.9,0.3,1s0.1,0,0.2-0.5c0-0.2,0-0.6,0-1c0-0.1,0-0.2,0-0.4c0-0.2,0-0.5-0.1-0.8
				c0-0.5-0.1-1.1-0.2-1.8c-0.3-1.9-0.6-3.8-0.8-4.7c-3.7,0-6.9,0-9.9,0c-1.9,0-3.7,0-5.3,0c-3.3,0.1-6,0.1-8.9,0.2
				c-5.7,0.1-11.4,0.2-21.4,0.1c-4.7,0.6,1.6,0.8-3.2,1.4c-29.8,1-23.5-2.6-45.4-1.2c-5.7,0.7-7.9,2-23.5,1.3l5.3-1.1
				c-20.4-0.1-11.6,1.7-32.9,0.9c3.8-0.5,16-0.4,12.9-0.5c-13.8-0.9-9.8,0.6-20.4,0.6l-2.2-1c-21.7,0.2-45.5,0.9-69.5,1.1
				c1.3-0.3,5.4-0.6-0.2-0.9c-30.3,0.5-64.6-0.1-93.8-0.7l-11.1,0.9c-2.6,0-4.8-0.4-2-0.6c-11.4-0.3-0.6,0.6-6.1,0.9
				c-6.5,0.1-8.5-0.5-4.5-0.8c-20.1,0.8-57.2,1.6-78.3,0.7l4.1-0.3c-16.5-0.4-18.6,1.8-33.9,1l2.9-0.2c-4.1,0-8.1-0.1-12.3-0.1
				c-5,0-10,0-15.1,0c0,15.1,0,30.1,0,44.3c-0.1,13.3-0.3,25.7-0.8,36.2c1.3,5.2-0.6,35.4,1.2,37.7c-0.9,20.4-1.2,14.6-1.8,43.3
				c-0.1,7.7,1.1,11.4,1.3,20.9l-0.9,0.2l1,12.9l-1.1,6.9l0.2,8.9c0.1-3.5,0.4-7.5,0.7-7c0.1,1.7,0.1,3.5,0.1,5.4c0,2,0,4.1,0,6.2
				c0,1.1,0.2,2.2,0.7,3.2s1.2,1.8,2.1,2.3c0.9,0.6,1.9,0.9,3,0.9c0.5,0,1.1,0,1.6,0c0.4,0,0.9,0,1.3,0c2.7-0.1,5.2-0.1,7.4-0.2
				c4.3,0,7.2,0,7.4,0.2l16.4-1.5c5.4-0.5,10.9-0.7,16.4-1.1c-0.7,0.4-6.2,0.7-10.5,1.2c17.5-1.6,3.2,0.8,19.2-0.7
				c-2.2-0.1,1.1-0.6,1.5-0.8c4,0.1,10.6,0.2,17.8,0c3.6,0,7.4-0.1,11.1-0.2s7.4-0.1,10.8-0.2l-2.6,0.6c6.1,0,12.3,0,18.7,0
				c6.4,0,12.9,0.1,19.5,0.2c3.3,0,6.6,0.1,10,0.1c3.3,0.1,6.7,0.2,10.1,0.3c6.8,0.2,13.5,0.4,20.4,0.7c-4.9-0.4-6.8-0.8-6.4-1.1
				s2.9-0.6,6.9-0.4l3.1,1.2c5.2-0.3-8.3-0.8,2.3-1c10.2,0.7,6.8,1.5,0.9,1.5l12.4,0.3c0.7,0.3-2.2,0.3-3,0.7
				c2.6-0.1,7.9,0.3,13.5,1c5.6,0.6,11.5,1.2,15.2,0.9l0.7,0.3c6.8,0.5,12.7,1.1,18,1.5c5.3,0.5,10.1,0.9,14.7,1.3
				c9.2,0.9,17.9,1.9,28.9,3.1c0.5-0.8,9.1,0.6,15.8,0.8c4,0.6,8.2,1.2,12.5,2c4.2,0.8,8.6,1.5,13,2.3c4.5,0.8,9,1.6,13.7,2.4
				c4.6,0.9,9.4,1.8,14.2,2.6c13.7,2,4.1,0,10.3,0.6c0.9,0.9,20.2,4.7,10.1,3.2c11.6,2.2,19,3.6,27.2,5.4c8.2,1.7,17.1,3.4,31.7,6.7
				c-3.1-1.1-6.6-2.1-4.7-1.9c5.3,1.2,11.9,3.2,11.1,3.4l-1.4-0.3c8.2,1.6,17,4,25.9,6.5s18,5.3,26.9,7.9
				c17.8,5.4,34.7,10.5,47.9,13.2l-1.5-0.3l27,6.5c12.3,3.5-7.5-1.5,1.5,1.5c29.2,6.7,45.6,12.8,69.5,18.8
				c8.9,3.7,25.2,8.4,42.2,13.3c8.5,2.4,17.3,5,25.4,7.5c8.1,2.5,15.6,5,21.6,7.2l-1.3-1c6.5,1.5,7.6,2.7,12.2,4.3
				c-0.5-0.6-6.7-2.7-2.7-1.7c36.4,11.1,73.7,24.5,110.5,39c1,0.4,2.2,0.6,3.1,0.6c0.9,0,1.8-0.1,2.6-0.2c1.6-0.3,3-0.7,4.4-1.3
				s2.7-1.3,4.1-2.4c0.3-0.3,0.7-0.6,1-1l0.7-0.7l1.2-1.3c3.3-3.4,6.6-6.8,9.9-10.2c3.4-3.3,6.7-6.7,10.1-10s6.8-6.5,10.2-9.8
				c7.7-7.2,9.3-9.8,11.7-12.7c2.3-2.9,5.2-6.2,15.6-14.5l-5,5.8c15.4-14.6,32.2-28.5,49.3-41.7c17.2-13.2,34.7-25.7,51.7-37.7
				c-1.9,1.6-1.8,1.9-5.2,4.2c3.8-2.2,10.6-6.7,16.4-10.7s10.7-7.4,10.6-7.7c5.5-3.4,1.6-0.4,5.1-2.2c7.8-4.2,18.4-12.3,22.8-14.2
				c0.7-0.3-2,1.5-3.3,2.4c1.2-0.8,3.2-2.1,5.5-3.5s4.9-2.9,7.2-4.2c4.6-2.7,7.9-4.7,5.3-3.7c3.4-1.9,6.8-3.8,10-5.7
				s6.4-3.8,9.5-5.5c6.2-3.5,12-6.8,17.6-9.5c1.7-1.2,4-2.6,6.6-4s5.4-2.8,8.1-4.2c5.4-2.7,10.1-5.2,10.9-6.3
				c-0.1,0.4,1.4-0.1,3.9-1.2c2.4-1.1,5.8-2.8,9.5-4.6c7.4-3.6,15.9-8.1,20.2-10.5c-2.8,1.8,7.9-3.4,4.7-1.2
				c10.2-4.8,19.5-9.4,17.4-9.2c4.9-1.8,9.7-4,14.3-6c4.7-2.1,9.1-4.2,13.3-6.2c4.2-2,8.2-3.9,11.8-5.4c3.6-1.5,7-2.7,9.9-3.3
				c7.7-3.4,15.2-6.7,22.7-9.9c7.5-3.1,14.9-6.1,22.2-9.1c1.8-0.8,3.6-1.5,5.4-2.2s3.6-1.4,5.4-2.1c3.6-1.4,7.2-2.8,10.8-4.2
				c7.2-2.8,14.3-5.5,21.4-8c-0.6,1.5-31.3,11.6-29.6,12.5c6.7-2.6,12.6-5,18.2-7.3c1.4-0.6,2.8-1.1,4.1-1.7c1.4-0.5,2.7-1,4.1-1.6
				c2.7-1,5.3-2,7.9-3c5.3-2,10.5-4,16.2-6s11.7-4,18.5-6.1c7.1-2.1-3.8,1.9-6.1,2.9c6.8-2.4,13.4-4.6,20-6.8
				c6.6-2,13.1-4.1,19.6-6.1c3.2-1,6.4-2,9.6-3s6.3-1.9,9.5-2.8c6.3-1.9,12.4-3.8,18.5-5.7c0,0.1-2.6,1-5.1,1.9
				c4.8-1.4,11.3-3.1,10.6-3.5l-4.7,1.5c-4,0.7,0.7-1.2,6.4-3.2c5.8-2,12.7-4.3,13-4.6c-7.8,4,24.4-6.2,11.9-0.5
				c3.2-1,7.1-2.3,6.3-2.5c4.8-1.1,6.3-1.3,1.7,0.4c17.3-4.8,11-3.8,26.8-7.9c0,0.3-3.1,1.2-4.7,2c1-0.3,2-0.6,3-1c1-0.3,2-0.7,3-1
				c2-0.6,4-1.1,6.2-1.2c1.1-0.1,2.2,0,3.3,0.2c1.1,0.2,2.2,0.5,3.3,1.1c2.2,1.1,4.3,3,6.3,5.6c-0.7-0.5,0.2,0.7-2.4-2
				c1,0.9,1.8,2,2.7,3c0.5,0.6,0.9,1.1,1.4,1.7s0.9,1.1,1.4,1.7c1.9,2.2,4,4.1,6.2,5.8c2.2,1.8,4.4,3.2,6.8,4.6
				c2.4,1.3,4.8,2.4,7.4,3.3c5.1,1.7,10.7,2.6,16.5,2.2s11.9-2.1,17.8-5.6c-1.5,1.3-1.8,1.7-1.3,1.5s1.8-0.8,3.3-1.8
				s3.1-2.3,4.5-3.4c1.3-1.1,2.4-2,2.8-2.1c3.3-3.9,5.8-8,7.9-12.4c-0.5,0.8-1.1,1.6-1.6,2.4c-0.6,0.8-1.1,1.6-1.7,2.4
				c3.4-5.4,5.6-11,7.1-16.5c0.8-2.8,1.3-5.5,1.8-8.2c0.3-1.4,0.5-2.7,0.7-4l0.3-2c0.1-0.3,0.1-0.8,0.2-1.3l0.2-1.4l-0.1,1.6
				c0,0.3,0,0.5-0.1,0.8l-0.1,0.6c-0.1,0.8-0.1,1.5-0.2,2.3c-0.2,1.5-0.4,3.1-0.6,4.6c0.4-1.9,0.7-3.9,0.9-5.8l0.2-1.5
				c0-0.2,0.1-0.6,0.1-1l0.1-1c0.1-1.4,0.2-2.8,0.3-4.1l0.1-1V384v-0.3v-0.1h-0.1h-2.1h-4.2h-6.1l3.2,0.1l3.9,0.1l4.4,0.1h0.5
				l-0.1,0.6l-0.1,1.1c-0.1,0.7-0.1,1.5-0.2,2.2c0.1-1,0.1-1.9,0.1-2.6c0-0.4,0-0.7,0-1c-0.3,0-0.7,0-0.9,0
				c-1.2,0.1-1.9,0.1-2.4,0.2c-1,0.1-1,0.3-1.1,0.4s-0.4,0.2-1.8,0.3c-0.7,0-1.5,0-2.7,0s-2.8,0-4.8-0.1c3.3-0.1-12.2,0-18.6-0.7
				l0,0c-6.1,0.4-12.3,0.7-21.3,0.5c-2.3-0.4,1.9-1.2,0.4-1.5c-6,0.9-28.7,0.3-36.2,1.3c2.5-0.2,2.7-0.8,1.8-0.9l-5,0.8
				c-5.7-0.2-6.5-0.4-5.6-0.8c-17.1-0.1,5.4,1.4-14.8,0.8c1.6-0.1,0.8-0.2,4.1-0.3c-20.3-0.3-39.3,0.5-58,0.1
				c-5.5-1.1,16.3-0.3,10-1.2c-26.9,0.2-55.8,1.4-81.9,1.1l4.9,0.1c-3.6,1.6-19.4-0.8-32.6,0c3.2-0.1,4.2-0.9,3.4-0.7
				c-17.9-0.2-36.5,0.4-63.6,0.9l3.3-0.4c-10.5-0.4-27.7-0.2-39.1-0.4c-3.4,0.4-9.9,0.3-5.9,0.9c-35.1-2.3-66.9,1.2-98-0.7
				c3.7,0,8.9-0.4,5.9-0.4L1282,384c2.1,0.7,3.5,0.4,9,1c-3.3,0.4-10.8,0.7-17.4,0.7c11.9-0.5-0.1-1.1-5.2-1.5
				c0.9,0.2-0.9,0.5-0.5,0.7c-13.8-1.2-2.3,1.4-21.2,0.6l1-0.4c-7.1,0.2-13.6,0.7-21.2,0.6c-3.2-0.8,7.5-0.4,8-1
				c-10.7,0-21.1,1.5-30.8,0.7c4.6-0.2,11.1-0.2,15.6-0.5c-10.6-0.9-11.8-0.7-19.6-0.9h0.8l-18.1-0.4l4.6,0.2
				c-13.4,2.1-27.3,0.4-45.3,1.8c17.6-1.3,2.9-0.8,4.2-1.7c-4.6-0.2-11.6-0.5-9.6-0.8c-8.5,0.7-14.2-0.6-26.3,0.5
				c-0.5-0.3-9.1,0-7.2-0.8c-11.1,0.2,2.6,0.5,1.7,0.9c-17.1,1-40.2-1.2-64.8,0.2c-21.2,0.6-25.1,1.5-44.8,2
				c-6.6-0.5,5.4-1.1,5.4-1.1c-10.7-0.4-18.8-0.4-28.9,0c2-0.3-0.1-0.5-3.1-0.8c-8.1,0.1-5.4,1.1-16.1,0.6c1.8-0.3,4.2-0.9,8.1-1.2
				c-9.5,0.3-19,0.8-28.9,1.1c-2.6-0.5,6-0.8,9.5-1.1c-11.1,0.2-28.8,0.5-32.2,1.3l7.1,0.3c-4,0-2.1-0.7,0.9-0.8
				c9.5-0.6,13.7,0.3,14.3,0.6l-7,0.2c7.2,1.7,28.3-0.3,42.5-0.2l-5.9,1.2l14.5-1c3.1,0.3,5.2,1-1.8,1.2c10.2,0.6,9-0.4,17.7,0.2
				c1,0.1,0.5,0.2-0.4,0.2l9.9-0.4c-2,0.3,1.7,0.9-4.5,0.7c17.8,0.7,28.7-0.9,35.4,0l-1.5,0.1c24.7-0.4,2.4-0.9,20.9-2l12.5,2.3
				l2.4-0.9c2.6,0,7.6,0.1,6.7,0.5c9.5-0.6-1.6-0.4,3.9-1c12.3,0.8,33.9-0.4,36.6,1.1c4.4-0.7-11.7-0.5,1.4-1
				c3.7,1.6,15.2-0.3,26.4,0.5c-3.4,0.8-14.1,0.4-2.8,1.1c6.8-1.4,21.8,0.3,31.3,0c0.4-1.1,20.6-0.5,36.4-0.8
				c-1,0.4,29.9,0.6,44.7,1l-0.4,0.2c2.9-1.1,18.1-0.9,29.2-1.1c-0.4,0.7-2.4,0.9-8.4,1.2h10.4c2.5-0.4,5.7-0.5,12.5-0.7l-2.6,0.8
				c13.9,0,27.9-1,45.8-0.4c1-0.8-14.2-2.1,4.7-2.6c0.7,0.4,1.4,1.1-3.5,1.3c1.6,0,5.8-0.4,9-0.2l-7.5,0.7c8.1,0.3,4.2-0.6,10.8-0.5
				c-0.1,0.6,4.8,0.4,3.9,0.9c-1.7,0.1-5.7-0.2-8.2,0c7.3,0.1,16.2,0.5,19.1,0.9c-0.6-0.3,0-0.8,5.4-0.9c13.9,0,4.8,0.7,12.8,1
				c3.4-0.4,12.2,0,12.4-0.9c4.1,0,4.8,0.4,6.4,0.7c7.2-0.4,33.6-0.1,25.5-1l-1.8-0.1c0.3,0,0.8,0,1.2,0c-0.1,0,0,0-0.1,0h0.1
				c23.6-0.9,48.9,0.5,72.3,0.1v0.3c13.9-0.3,31-0.2,41-0.8c4.1,0,9.7,0.5,8,0.9c10.7-0.2,11.9-0.6,27.3-0.1
				c-10.7,0.5,3.7,0.5-11,0.4c13.8,0.2,17,0.7,31.9-0.1c-5.1,0.8,10.4,1,17,0.7l-9.7-0.5c7.4-0.1,13.9,0,20.4,0l-3.6,1
				c28.3,1.2,51.1-2.1,72.7,0c7.5-0.7-15.4-0.5-8.7-1.3c13,0.1,26.6,1.6,30.7,1.6c17.9,0.5,16.7-1.5,35.4-1.1
				c-2.4-0.4-4.7-1.3,9.3-1.6c0.8,0,1.6,0,2.3,0c0.6,0,1.2,0,1.8,0.1c0.5,0,1.1,0.1,1.5,0.1c0.2,0,0.4,0,0.7,0c0.1,0,0.2,0,0.3,0
				c0.1,0,0.2,0,0.2,0.1c-0.3,1.8-0.6,2.9-0.8,3.4c-0.2,0.5-0.4,0.5-0.6,0.1c-0.1-0.4-0.2-1.1-0.2-2c-1.6,0-2.3-0.1-2.3-0.2
				c-0.2,0-0.3,0-0.4,0h-0.8c-0.5,0-1.1,0-1.6,0c-1,0-2,0.1-2.6,0.1c-1.3,0.1-1.4,0.2,1.2,0.4l1.7-0.4c1,0,2.5,0.1,4,0.2
				c0.1,0,0.3,0,0.4,0.1l-0.1,0.5c0,0.3-0.1,0.6-0.1,0.9c-0.1,0.8-0.2,1.6-0.3,2.3c-0.7,4.6-1.7,7.7-1.5,5.7
				c-0.8,4.6-1.1,5.6-0.7,4.7c0.4-1,1.3-4,2-7.5c-1.6,7.9-3.7,13.9-6.5,19.5c-1.4,2.8-3,5.5-5,8.3c-2,2.7-4.4,5.3-7.7,7.6
				c0.5-0.4,1.1-0.7,1.5-1c0.5-0.3,0.8-0.5,1.1-0.7c0.5-0.3,0.6-0.2-0.4,0.7c-4.6,3.7-8,5-10.2,5.9c-2.2,0.8-3.2,1.2-4,1.5
				s-1.3,0.6-2.7,0.9c-1.4,0.3-3.6,0.8-7.7,0.5c-1.2-0.1-2-0.3-2.5-0.5c-0.6-0.1-0.9-0.3-1.1-0.4c-0.3-0.2-0.1-0.3-0.2-0.4
				c0-0.1-0.2-0.2-1.5-0.5c-1.2-0.3-3.4-0.7-7.2-2.3c-1.1-0.5-1.9-1-2.6-1.4c-0.6-0.4-1-0.7-1.2-0.9c-0.5-0.4-0.2-0.4,0.3-0.2
				c0.6,0.2,1.5,0.6,2.6,1s2.2,0.8,3.1,1.1c-3.4-1.1-6.5-2.8-9.2-4.8s-5.1-4.2-7-6.5c-0.5-0.6-0.9-1.2-1.4-1.7
				c-0.4-0.6-0.9-1.2-1.3-1.7c-0.5-0.6-0.9-1.3-1.4-1.9s-1-1.2-1.5-1.8c-2.1-2.4-4.5-4.4-7-5.6c1.6,0.7,3.1,1.7,4.4,2.6
				c1.3,1,2.5,2.1,3.6,3.2c-1.9-2-4-3.8-6.3-5.2c-2.3-1.4-5-2.3-7.5-2.6c1.9,0.5,3.8,1.3,5.5,2.3c-2.7-1.4-5.6-1.8-7.5-1.9
				s-3.1,0-3-0.2c-2.8,0.5-1.7,0.7-1.3,1c0.2,0.1,0.2,0.3-0.4,0.5c-0.7,0.2-2,0.6-4.5,1.4c-6.4,1.3-19,5.3-21.4,4.9
				c19.8-4.8-2.4-0.4,14.3-4.8c-3.2,0.9-7.1,1.9-11.9,3c-0.7,0.1,0.6-0.4,1.9-0.7c-19.1,4-8.4,3.2-28,8.5c2.3-1.2-4.8,0.3-7.9,1.2
				c7.9-2.1,4-0.2-3.1,2.2c-6.3,1.5-9.7,2.6-12.3,3.5c-2.6,0.9-4.5,1.6-7.7,2.5l7.5-2c-2.4,1.2-8.6,3-17.2,5.7
				c-0.9-0.2,7.8-2.6,4.7-1.8c-2.3,0.9-4.9,1.7-7.6,2.5c-2.7,0.7-5.6,1.5-8.6,2.2c-6,1.5-12.4,3.2-19,5.6c-6.3,1.6-0.9-0.8-6.4,0.7
				c-14.7,5.5-16.4,4.6-31.9,10.3c2.4-0.4,3.7-0.7,3.2-0.4c-0.6,0.3-3.1,1.3-8.5,3.5c4.2-1.6,8.5-3.1,12.8-4.6l12.8-4.5l-16.2,6.4
				c7.8-2.5,16.2-5.8,20.9-7.2c-7.7,3.1-6.9,2.7-3,2c-10.9,2.5-20.9,7.4-33.3,11.1l-0.2-1.8c-18.7,5.6-32.3,12.4-56,21
				c2.6-0.9,5.1-1.8,7.7-2.7c-2.9,1.9-14.5,5.8-22,9c0.5-0.8-4.3,0.8-7.7,1.8c0.5,0.2-17.1,7-18.8,9l-10.7,3.6
				c-9.4,3.9-14.6,6.7-19.6,9.4c-5.1,2.7-10.1,5.3-18.9,9.4c5.1-3.1-3.2,0.3,8.6-5.6c-6,2.7-11.3,5.1-11.2,5.5
				c-1.8,0.6-5.8,2.7-10.1,4.9s-8.8,4.4-11.7,5.6c-2.4,1.5-2.9,2.4-9.5,5.6c-0.8,0.2-0.1-0.3-0.1-0.3c0.1,0.3-10.1,5.4-4.1,3.2
				c-2.4,0.9-4.9,2-7.6,3.2c-1.3,0.6-2.8,1.2-4.2,1.9c-1.4,0.7-2.8,1.4-4.3,2.1c-5.8,2.9-12,6.1-18.1,9.3c-6.1,3.1-12,6.5-17.5,9.4
				c-5.4,2.9-10.4,5.4-14.4,7.2c-3.1,1.7-6.3,3.7-9.6,5.7c-3.3,2-6.6,3.9-9.9,5.9s-6.6,3.9-9.8,5.8c-3.1,1.9-6.1,3.8-8.9,5.5
				c0.6-0.6-0.1-0.3,2-1.5c-7.8,4.4-9.9,6.2-12.3,8.2c-1.2,1-2.5,2-4.5,3.4c-2.1,1.4-4.9,3.2-9.3,5.8c-9.3,4.8,8.8-6.2,3.2-3.1
				c-1.7-0.1-6.9,3.3-13.1,7.5c-3.1,2.1-6.4,4.5-9.8,6.7c-3.3,2.2-6.6,4.4-9.6,6.1l2.7-2c-9.1,5.3-20.6,15.1-34.4,25.2
				c0,0,0.6-0.6-0.1-0.3c-2.2,2-4.9,4.3-8,6.8c-3,2.6-6.4,5.4-9.9,8.2c-3.5,2.9-7.1,5.9-10.6,8.8c-3.5,2.9-6.9,5.9-10,8.5
				c3.4-3.8,5.5-5.1,2.6-3.7c-2.8,2.4-2.2,2.3-2.3,2.8c-0.1,0.5-0.9,1.5-6.4,6.4c-1.9,1.4-5,3.8-7.8,5.8c-2.7,2.1-5.2,3.9-6,4
				l5.2-4.6l5.3-4.5c-3.1,1.9-6.5,4.8-9.8,8c-3.3,3.1-6.6,6.3-9.3,8.7l0.4-1c-3.9,3.6-6.8,6.4-9.2,8.8c-2.4,2.4-4.2,4.4-6.2,6.5
				c-1.9,2-3.9,4.1-6.3,6.7c-2.5,2.6-5.5,5.6-9.6,9.7l1.9-1.4c-7.9,9.8-7.9,7-15.8,16.7l-3.5,1.9c-0.2,0.3-0.5,0.6-0.8,0.9
				c-0.3,0.3-0.6,0.7-0.8,0.9c-0.5,0.5-1.2,1-2,1.5s-1.9,1-3,1.3s-2.4,0.5-3.3,0.2c-4-1.3-8.8-2.9-13.8-4.6c-5-1.7-10-3.4-14.5-5
				c1.7,0.4,3.7,1,5.9,1.6c2.2,0.7,4.7,1.5,7.2,2.3c5.1,1.7,10.5,3.4,15.4,5c0.5,0.1,1.3,0.1,2.1-0.1c0.8-0.2,1.6-0.5,2.4-0.8
				c-0.7,0.3-1.5,0.5-2.3,0.7c-0.4,0.1-0.8,0.1-1.2,0.1s-0.6,0-0.9-0.1c-8.6-3.2-20.8-7.6-24.1-8.3c3.1,1,7.1,2.2,10.1,3.5
				c-2.4-0.7-5-1.4-7.8-2.3c-2.8-0.8-5.8-1.7-8.9-2.8c-3.1-1-6.5-2.1-9.9-3.3c-3.5-1.2-7.2-2.5-11-3.8c1.7-0.6-8.2-4.2-20-8.3
				c-5.9-2-12.2-4.1-17.8-6.1c-5.5-2-10.3-3.7-13-5c-27.7-8-54.4-17.5-86.7-26.7c10.9,5-9.4-2.7-8-0.3c-7.5-2.1-10.4-2.9-11-3.2
				l-22.5-7.5c-5.3-2,7.3,1.6,6.7,1c-16.4-4.8-6.7-2.7-17.5-6.2c2.1,1.3-6-0.7-15.3-3.5l13,4.5c-23.3-5.5-19.5-7-43-12.5l7.5,1.5
				c-12-3-44-12-56.1-13.8c-2-0.8-4.7-2,0.6-0.7c-7.1-2-14.7-4-22.3-6c-7.7-2-15.4-3.9-23-5.8c-3.8-0.9-7.5-1.8-11.2-2.8
				c-3.7-0.9-7.2-1.8-10.7-2.6c-6.9-1.6-13.3-3.2-18.8-4.8l2.3,0.1c-2.7-0.6-5.1-1-7.6-1.4s-5.2-1-8.6-1.9c0.4-0.1,2.3,0-0.2-0.5
				c-1.5-0.2-5.1-0.8-9.2-1.6c-4.2-0.8-8.8-1.7-12.4-2.5c2.1,0.3,4.2,0.5,6.2,0.8c-7-1.6-13.3-2.8-19.1-3.9c-2.9-0.5-5.7-1-8.4-1.5
				c-2.7-0.4-5.3-0.8-8-1.2c-10.4-1.4-20.2-2.7-32.2-4.4c0.1-0.7-5.4-2-12.4-3.3c-3.5-0.7-7.3-1.3-11-1.9c-3.7-0.6-7.2-1.1-10-1.6
				l0.4-0.1c-4.2-0.6-8.2-1.2-12.1-1.6c-3.9-0.4-7.7-0.8-11.4-1.2c-7.4-0.8-14.4-1.5-21.4-1.9c-7-0.5-13.9-0.9-21-1.4
				c-7.1-0.3-14.4-0.7-22.2-1.2c-1.2-0.2-2.5-0.4-3.9-0.5s-2.9-0.3-4.5-0.5c-3.2-0.3-6.7-0.6-10.4-0.8c-3.8-0.3-7.8-0.5-12-0.8
				c-4.2-0.2-8.6-0.4-13-0.6c-4.5-0.2-9-0.4-13.6-0.5c-4.6-0.2-9.1-0.2-13.6-0.3s-8.9-0.2-13.2-0.3c-4.3-0.2-8.4-0.1-12.3-0.3
				c4.8,0.2-0.8,1-6.3,1.2c-3.6-0.1-8.7,0.1-12.7,0.2c-4,0.2-6.9,0.2-6.3-0.4h2.6c-2.8-0.5-7.9-0.7-13.8-0.6c-2.9,0-6.1,0.1-9.2,0.2
				c-3.1,0.1-6.3,0.2-9.2,0.4l-1.9,1.7c-4.2-0.2-8.7-0.2-13.5-0.1c-1.2,0-2.4,0-3.6,0.1c-1.2,0.1-2.4,0.1-3.7,0.2
				c-2.5,0.1-5,0.3-7.5,0.4c-5.1,0.3-10.2,0.7-15.3,1.1c-2.4,0.2-4.9,0.4-7.3,0.6c-0.4,0-0.9,0.1-1.2-0.2c-0.4-0.2-0.5-0.7-0.4-1.1
				c-0.1-3.9-0.1-7.6-0.1-11.2c0-3.8,0-7.3,0-10.6c0.1-6.6,0.3-12,0.7-15.8c-0.4-7.4-0.4-16.5-0.8-23.8l0.9,0.4
				c0.2-20.4,0.3-30.6,0.1-55.8l0.6,5.1c0.1-14.2-2.4-18-2.5-31.1l1.3-4c0-10.9,0.2-21.9,0.3-32.8c0.1-5.5,0.1-10.9,0.1-16.4
				c0-2.7,0-5.5,0-8.2v-2v-1v-0.2V391v-0.1l-0.1-1.1l1.2-0.1c1.4-0.1,2.9-0.1,4.3-0.2c-0.2,0.1-0.5,0.2-1.2,0.4
				c-0.4,0.1-0.9,0.1-1.5,0.2c-0.6,0-1.8,0.1-1.7,0.1c2.7,0,6.7,0.1,11.2,0.1c4.7,0,9.9,0.1,14.5,0.1c9.3,0,16.6-0.2,14.5-1.1
				c0.3,1.1,25.6,0.1,39-0.4l-2.1,0.8c11.3-1.1,11.7-1.4,27.5-1.7c3.8,0.1,3.3,0.7-1.7,0.5c12.5,0.4,9.7-0.8,24.9-0.4l-5.6,0.5
				c12.8,0.1,11.8-0.2,18.9-0.8c8.1-0.3,24.4,0.2,26.3,1c1.7-0.5,8.8-1.1,16.3-0.9c1,0.3-1.7,0.5-3.1,0.5c21.5,0.6,31.9-1,46.7-0.1
				c0.3,0.3,1.3,0.4,2.5,0.5c-17.1,0-30.8-0.1-29.5-0.1c0,0.8,13.8,0.9,2.8,2c11.1-0.6,30-1.8,43.4-1.5c0.6,0.1,1.3,0.1,1.8,0.3
				l-1.4,0.1c3.1,0.1,5.9,0,8.5-0.1c4.3,0.1,7,0.2,11.1,0.2c1.6,0.6,15.8,0.3,22.7,0.4c-0.6-0.8,8.4-0.7,0-1.4
				c1.1,0.1-1.3,0.1-5.9,0.1c-1,0-2.2,0-2.9,0.1c0.1,0,0.3,0,0.5-0.1c-4.5,0-10.4,0-17.1,0.1c5.4-0.4,11.1-0.8,18.7-0.3
				c3.5-0.5,7.4-1.1,9.6-1.4c9.4,1.2,27.5,1.8,30,2.5c21-0.5,49.4-0.3,62.6-1.9c6-0.2,6.9,0.5,9.1,0.7c-3.4,0.2-7.5,0.1-9.4,0.4
				c11.9-0.4,35.3-0.2,38.2-1.3c15,0.5-8.5,1,12.2,0.8l-2.8,0.3c5.8,0.2,11.2,0.4,16.5,0.4c2.6,0,5.2,0,7.7,0c1.2,0,2.4,0,3.6,0
				c0.5,0,1-0.1,1.6-0.1c0.2,0.8,0.4,1.6,0.6,2.3c0.4,1.5,0.8,3,1.2,4.6c0.8,3,1.8,5.9,2.9,8.9c2.2,5.9,5.1,11.4,8.3,17
				c3.2,5.5,6.8,11.1,10.9,16.9c1,1.4,2.1,2.9,3.2,4.4c0.5,0.7,1.1,1.5,1.7,2.2c0.6,0.8,1.2,1.5,1.8,2.2c2.5,2.9,5.3,5.7,8.3,8.5
				c-1.2-1-2-1.9-2.6-2.5s-1-1.1-1.1-1.3c2.3,2.3,4.8,4.4,7.3,6.5c2.6,2,5.1,4.1,7.8,6c5.4,3.8,11,7.3,16.8,10.5
				c2.9,1.6,5.9,3.1,8.8,4.6c3,1.4,6,2.8,9.1,4.1c3,1.3,6.2,2.4,9.3,3.6l4.8,1.5c1.6,0.5,3.2,0.9,4.8,1.4c6.5,1.7,13.1,2.9,19.8,3.3
				c6.6,0.5,13.3,0.5,19.8,0.2c6.6-0.3,13.1-1,19.5-2.1s12.8-2.6,18.9-4.5c7-2.3,10.6-4.4,13.5-6.2c1.4-0.9,2.7-1.8,4-2.9
				c1.3-1,2.7-2.2,4.4-3.7l3-1.4c3.7-3.8,6.7-8.1,8.7-12.9c0.6-1.3,1.2-2.5,1.6-3.7c0.2-0.6,0.5-1.2,0.7-1.9
				c0.2-0.6,0.3-1.3,0.5-1.9s0.4-1.2,0.5-1.9c0.1-0.6,0.2-1.2,0.4-1.9c0.1-0.6,0.3-1.2,0.3-1.9c0.1-0.6,0.1-1.3,0.2-1.9
				c0.1-2.6-0.3-5.2-1.3-7.7s-2.7-4.7-4.7-6.5c-2.1-1.8-4.6-3.2-7.5-4c-1.4-0.4-3-0.5-4.6-0.4c-0.8,0.1-1.8,0.2-2.2,0.3
				c-0.6,0.1-1.2,0.2-1.9,0.3s-1.5,0.2-2.3,0.4c-0.3,0.1-0.7,0.2-1,0.2c-0.3,0.1-0.6,0.1-1,0.2c-1.3,0.2-2.6,0.3-4,0.3
				s-2.8-0.2-4.3-0.5s-2.9-0.6-4.3-1.2c0.8,0.6,1.8,1.2,2.8,1.7c-2.2-0.6-4.9-1.8-7.1-3.9c-2.2-2.1-3.8-5-4.5-7.9
				c-0.4-1.5-0.6-2.8-0.6-4s0.2-2.2,0.6-3c0.3-0.8,0.6-1.3,0.9-1.6c0.2-0.3,0.4-0.4,0.3-0.2c0.2-0.4,0.4-1.1,1-2s1.6-1.9,3.1-2.9
				l0.5,0.2c2.8-2.4,6.2-4,9.9-4.4s7.5,0.5,11.1,1.8c8.4,3.7,7.7,3.8,7.8,4.4c0.1,0.3,0.4,0.6,2.4,1.5c1,0.4,2.4,1,4.5,1.6
				c1,0.3,2.2,0.6,3.7,0.9c0.7,0.1,1.5,0.2,2.3,0.3c0.2,0,0.4,0,0.6,0.1c0.2,0,0.5,0,0.8,0c0.5,0,1,0,1.6,0c3.2-0.3,6.9-2.3,9.1-5.4
				c1.1-1.5,1.9-3.4,2.3-5.1c0.3-1.5,0.6-3,0.9-4.3c1-5.4,1.2-9.1,0.7-7.3c-0.8,4-2.7,10.1-3.2,10.2c0.7-3,1.4-6,1.9-9
				c-0.5-1-0.8-3.2-1.6-2.5c-0.4,0.4-0.9,1.4-1.7,3.7c-0.4,1.1-0.9,2.6-1.5,4.4c-0.3,0.9-0.7,1.9-1,3l-0.1,0.4l-0.1,0.3
				c-0.1,0.2-0.2,0.4-0.3,0.6c-0.2,0.4-0.5,0.8-0.7,1.2c-0.9,1.6-2.3,2.9-4,3.5c-0.4,0.1-0.9,0.3-1.3,0.3c-0.2,0-0.5,0.1-0.7,0.1
				s-0.5,0-0.8,0c-1.2,0-2.4-0.2-3.6-0.4c-1.5-0.5-2.9-1.2-4.4-1.9c2,0.6,3.9,1.1,5.9,1.5c0.5,0.1,1,0.2,1.5,0.2s1,0.1,1.3,0.1
				c0.7,0,1.5-0.1,2.2-0.3c-0.6,0.1-1.2,0.1-1.8,0.1c-0.3,0-0.5,0-0.8-0.1c-0.4,0-0.7-0.1-1.1-0.1c-1.4-0.2-2.7-0.5-3.9-0.7
				c-2.5-0.5-4.8-1.1-7.3-1.8c-1-0.8-2.9-1.8-5.7-3.2c-5-1.7-11-3.1-16.7-1.8c-1.1-0.1,0.8-0.7,1.6-1c0.4-0.1,0.5-0.2-0.3-0.3
				c-0.8,0-2.5-0.1-5.5,0.9c-1,0.4-1.6,0.8-1.9,1c-0.3,0.2-0.4,0.3-0.3,0.4c0.2,0.1,1-0.1,1.7-0.3c0.7-0.1,1.2-0.1,0.7,0.2
				c-0.2,0.1-0.7,0.4-1.5,0.8c-0.4,0.2-0.8,0.4-1.4,0.8c-0.5,0.3-1.1,0.7-1.8,1.2c-1.8,1-2.9,1.8-3.8,2.4c-0.9,0.6-1.5,1.1-2.2,1.8
				c-0.6,0.6-1.2,1.3-2,2.6c-0.7,1.2-1.5,3.1-1.7,5.9c-0.2,0.8-0.4,0.6-0.4-0.4s0.2-2.8,1.2-4.9c-0.5,1.2-1,2.5-1.2,4
				s-0.3,3-0.1,4.5s0.5,2.8,1,4.1c0.4,1.3,0.9,2.6,1.6,3.8c1.2,2.5,3.1,4.5,4.8,6c1.8,1.4,3.5,2.2,4.6,2.5c1,0.6,2.2,1.1,3.5,1.5
				s2.8,0.8,4.3,1c3.1,0.5,6.7,0.4,9.7-0.5c1-0.2,2.3-0.4,3.6-0.5c0.3,0,0.7-0.1,1-0.2c0.4-0.1,0.6-0.1,0.7-0.1c0.4,0,0.7-0.1,1,0
				c0.3,0,0.6,0.1,0.8,0.1c0.2,0.1,0.5,0.1,0.6,0.2c0.3,0.1,0.5,0.3,0.3,0.4c0.5,0,1.3,0.1,2.5,0.4c1.1,0.4,2.6,0.9,3.9,1.9
				c1.3,1,2.6,2.3,3.5,3.7c1,1.5,1.4,3.1,1.6,4.6c-0.2-0.7-0.4-1.1-0.5-1.5c-0.1-0.3-0.2-0.5-0.3-0.5s-0.1,0-0.1,0.2s0,0.5,0,0.8
				s0.2,0.8,0.1,1.3c0,0.5,0.1,1.1,0,1.8c0,0.3,0,0.7-0.1,1c0,0.3-0.1,0.8-0.2,1.2c-0.2,0.8-0.3,1.7-0.5,2.6c-0.8,3.5-2.4,7-3.9,9.4
				c-0.4,0.6-0.7,1.1-1,1.5s-0.7,0.7-0.9,1c-0.5,0.5-0.8,0.5-0.7,0.1c-0.9,2-2.8,4.5-5.5,7s-6.2,5.1-10.3,7.4
				c-8.1,4.5-18.1,7.6-26.2,9.7c0.9-0.3,2.7-0.9,4.1-1.2c-4.6,1.1-7.6,1.4-10.2,1.8c-1.3,0.1-2.5,0.2-3.8,0.3s-2.6,0.2-4.1,0.3
				c-0.5,0.6-4.5,1.5-9.3,2c-4.8,0.6-10.6,0.8-14.6,1c-2.9-0.4-3.9-0.8-3.8-1c0.1-0.2,1.2-0.3,2.6-0.4c2.8-0.2,6.5-0.5,4.7-1
				c0.3,0.5-4.8,0.6-9.3,0.4c-1.2-0.1-2.3-0.1-3.3-0.2s-1.9-0.2-2.6-0.2c-1.4-0.1-1.9,0-1,0.3c-8.5-2.3-7.4-1.9-11.5-4
				c-0.5,0.2-1.2,0.3-2.2,0.1s-2.1-0.6-3.4-1c-0.7-0.2-1.4-0.5-2.1-0.7c-0.7-0.3-1.5-0.5-2.3-0.8c-1.6-0.6-3.3-1.1-5.1-1.6
				c-5.8-2.8-6.4-3.6-7.2-4.2s-1.9-1-8.2-4.1c-1.4-0.9-1.8-1.2-1.5-1.2s1.1,0.4,2.2,0.8C695.4,472,698.2,473.3,698.2,473.3z
				 M401.3,383.8C401.3,383.7,401.3,383.7,401.3,383.8c3,0,5.5-0.1,7.1-0.1C406.9,383.7,404.8,383.7,401.3,383.8z M372.4,383.8
				c3.5,0,7.9,0,12.5,0c1,0.3-0.1,0.6-3,0.6C383.5,384.2,376.7,384,372.4,383.8z M433.5,389.6c-4.6,0.1-6.1,0-6.7-0.2
				c2.2,0,4.7-0.1,8-0.1c0.1,0,0.4-0.1,0.5-0.1C434.8,389.3,434.3,389.5,433.5,389.6z"/>
			<path class="st0" d="M441.7,388.5c0.7,0,1,0,1.9-0.1c-0.9-0.1-1.8-0.1-2.7-0.2c-0.6,0.1-1.1,0.2-1.6,0.3
				C440,388.5,440.9,388.5,441.7,388.5z"/>
			<path class="st0" d="M1427.7,387.2h0.6c-0.5,0-1-0.1-1.3-0.1C1427.5,387.2,1427.5,387.2,1427.7,387.2z"/>
			<polygon class="st0" points="149.9,566.1 150.1,566 150,563.5 			"/>
			<path class="st0" d="M1268.7,384.3c-0.3-0.1-0.9-0.1-2.1-0.2C1266.7,384.2,1267.6,384.3,1268.7,384.3z"/>
			<path class="st0" d="M1200,384.1l-9.7-0.3C1194.5,384,1197.6,384.1,1200,384.1z"/>
			<path class="st0" d="M1147.2,383.7c-0.7,0.1-0.9,0.3-1,0.4h0.1L1147.2,383.7z"/>
			<path class="st0" d="M1595.2,435.7c-0.7,0.2-1.3,0.4-1.9,0.6C1588.7,437.8,1591.8,436.9,1595.2,435.7z"/>
			<path class="st0" d="M1737.1,384.7c2.7-0.1,5.3-0.3,8-0.4C1740.6,384.2,1737.2,384.2,1737.1,384.7z"/>
			<path class="st0" d="M1335.2,534.4L1335.2,534.4c-0.5,0.2-1,0.5-1.5,0.7L1335.2,534.4z"/>
			<path class="st0" d="M1756.7,384.3c-4.4-0.2-8.2-0.1-11.6,0C1748.7,384.3,1753,384.4,1756.7,384.3z"/>
			<path class="st0" d="M918.3,383.4h-2.5c0,0.1-0.1,0.1-0.3,0.1L918.3,383.4z"/>
			<path class="st0" d="M915.5,383.5l-2.8,0.1C914,383.6,915.1,383.6,915.5,383.5z"/>
			<path class="st0" d="M906.7,383.8l6-0.2C910.6,383.6,908.1,383.5,906.7,383.8z"/>
			<path class="st0" d="M988.2,383.8l0.8-0.3C988.6,383.5,988.3,383.6,988.2,383.8z"/>
			<path class="st0" d="M1009.5,383.7c-5.1-0.1-12.7-0.6-19.8-0.5l-0.7,0.2C992.4,383,1004.7,384.2,1009.5,383.7z"/>
			<path class="st0" d="M1098.2,387.4l-17.8-0.2c3.1,0.3,7.2,0.8-0.9,0.8C1101.9,389,1074.8,387.3,1098.2,387.4z"/>
			<path class="st0" d="M1153.4,387.9c-9.6,0.1,0.1,0.5-0.4,0.7C1159,388.3,1160.5,388.2,1153.4,387.9z"/>
			<path class="st0" d="M1552.3,387.9l-1,0.8C1558.7,388.5,1551.4,388.4,1552.3,387.9z"/>
			<polygon class="st0" points="1628.6,383.9 1621.4,383.4 1618,384.1 			"/>
			<polygon class="st0" points="1673.6,389.4 1670.4,389.5 1682.7,389.2 			"/>
			<path class="st0" d="M1262.8,563.2l2.4-0.2C1269.5,560.4,1269.9,559,1262.8,563.2z"/>
			<path class="st0" d="M1029.8,734.1c-2.5,1.9-8.5,7.5-11.6,11.5C1022.7,740.9,1027.5,736.5,1029.8,734.1z"/>
			<path class="st0" d="M194.8,596.6l5.8-0.5l-5.5,0.3l-2.7,0.2l-2.7,0.2C191.4,596.8,193.1,596.7,194.8,596.6z"/>
		</g>
		<g>
			<path class="st0" d="M787.7,453.5c0.2,0.2,0.8,0.3,0.7,0.1l-0.9-0.5L787.7,453.5z"/>
			<path class="st0" d="M789.8,452.9c-0.4-0.4-1.1-0.8-2-0.9c0.9,0.5,0.5,0.4,1.5,0.9c0,0.2-0.4,0.2-0.7,0.1
				c0.2,0.1-0.3,0.2,0.3,0.5c0.8,0,0.9-0.3,0.4-0.8C789.4,452.7,789.6,452.9,789.8,452.9z"/>
			<path class="st0" d="M786.6,434.4v0.2C786.6,434.5,786.6,434.4,786.6,434.4z"/>
			<path class="st0" d="M776.9,426.6c0.1,0,0.2-0.1,0.2-0.1C777.1,426.4,777,426.5,776.9,426.6z"/>
			<path class="st0" d="M775.3,424.7l0.1,0.1C775.4,424.7,775.4,424.7,775.3,424.7z"/>
			<path class="st0" d="M786.6,434.4v-0.5C786.4,434.1,786.5,434.2,786.6,434.4z"/>
			<path class="st0" d="M788,450.1c0,0.1,0.1,0.1,0.2,0.2l-0.1-0.1C788.1,450.1,788,450.1,788,450.1z"/>
			<path class="st0" d="M790.4,438.6L790.4,438.6c0.2,0.1,0.3,0,0.5,0H790.4z"/>
			<path class="st0" d="M792.2,442.6c0-0.1-0.8,0.1-1.2,0.2c0.3,0,0.5,0,0.6,0C791.7,442.8,791.9,442.7,792.2,442.6z"/>
			<path class="st0" d="M791.4,449.6L791.4,449.6C791.5,449.7,791.5,449.7,791.4,449.6z"/>
			<path class="st0" d="M788.9,435.8c0.1-0.1,0.2-0.1,0.2-0.2C789.1,435.7,789,435.7,788.9,435.8z"/>
			<path class="st0" d="M784.1,455.8L784.1,455.8C784.1,455.9,784.1,455.8,784.1,455.8z"/>
			<path class="st0" d="M789.7,454.3L789.7,454.3c0.2,0.1,0.3,0.2,0.4,0.3L789.7,454.3z"/>
			<path class="st0" d="M771.7,422.5L771.7,422.5C771.8,422.5,771.7,422.5,771.7,422.5z"/>
			<path class="st0" d="M741.6,441.4c0.8-0.4,0.9,0.8,1.8,0.2C743.1,441.7,742.2,440.9,741.6,441.4z"/>
			<path class="st0" d="M788.1,450L788.1,450C788,450,788,450,788.1,450z"/>
			<path class="st0" d="M743.4,441.6L743.4,441.6L743.4,441.6C743.5,441.6,743.5,441.6,743.4,441.6z"/>
			<path class="st0" d="M762,422.4c0,0.1,0.1,0.2,0.1,0.4C762.1,422.7,762,422.6,762,422.4z"/>
			<path class="st0" d="M769,423.8l-0.2-0.1C768.9,423.7,768.9,423.7,769,423.8z"/>
			<path class="st0" d="M758.5,424.2c-0.1,0-0.2-0.1-0.3,0c0,0,0,0.1,0.1,0.1C758.3,424.2,758.4,424.1,758.5,424.2z"/>
			<path class="st0" d="M754.9,425.4L754.9,425.4h0.2H754.9z"/>
			<path class="st0" d="M777.7,460.9c0.1,0.2,0.3,0.4,0.4,0.7C777.8,461,778.1,460.7,777.7,460.9z"/>
			<path class="st0" d="M788.4,450.2c-0.2,0-0.3-0.1-0.3-0.1v0.1C788.2,450.2,788.3,450.2,788.4,450.2z"/>
			<path class="st0" d="M760,430.7h-0.5C759.7,430.8,759.9,430.8,760,430.7z"/>
			<path class="st0" d="M757.4,458.2h0.2C757.5,458.1,757.5,458.1,757.4,458.2z"/>
			<path class="st0" d="M758.4,431.2c-0.2-0.2-0.3-0.4-0.4-0.5c0,0.1,0,0.1,0,0.2L758.4,431.2z"/>
			<path class="st0" d="M778.1,461.6L778.1,461.6L778.1,461.6z"/>
			<path class="st0" d="M779.8,458.5c-0.3,0.2,0.4,1,0.6,1.6c-0.3,0.5-0.6-0.6-1-1c-0.1,0.4,0.1,1.4-0.1,1.5
				c-0.1-0.2-0.2-0.2-0.2-0.4c0.1,1-0.9,0.5-0.9,1.6c-0.1-0.1-0.1-0.2-0.2-0.2c0.3,0.5,0.5,1,0.6,1.4c-0.2,0.1-0.1,0.8-0.5,0.2
				c0.1,0,0-0.3,0-0.5l-0.1,0.4c-0.5-0.9,0.2-0.5-0.1-1.2c-0.3,0.5-0.5,1.5-0.9,1.3c-0.4-1,0.6-0.5-0.1-1.3c0.2,0.1,0.4,0.2,0.6,0.2
				c-0.9-1.4,0.3,0-0.6-1.5c-0.7-0.1-0.5,0.7-1.2,0.6c0,0.6,0.3,0.8,0.3,1.4c-0.7,1.3-1.3-2.3-1.6-0.9c0,0.7,0.1,2-0.5,1.4v-1.2
				c-0.6,0-0.1,1.7-0.9,1c0.1-0.5,0.4-0.4,0.3-0.5c-0.5-0.9-0.2,0.7-0.5,0.7l-0.2-1c-0.3,0.1-0.6,0.4-1,0.6
				c-0.3,0.2-0.7,0.5-1.1,0.6c0-0.3,0.2-0.6,0-0.9c-0.9,0.6-2-0.2-2.8-0.9l-0.5,0.8c-0.1,0-0.1-0.4,0-0.6c-0.3-0.4-0.1,0.5-0.3,0.9
				c-0.2,0-0.2-0.5,0-0.8c-0.4,0.3-0.9,0.7-1.4,0.8s-0.9-0.1-1.1-0.6l0.2-0.2c-0.4-0.5-1,1.6-1.3,0.7l0.1-0.1
				c-0.5-0.4-1.1-0.5-1.6-0.7s-1-0.6-1.1-1.3c-0.7,1.1-0.8-0.9-1.6,0.6c-0.2-1.1,0.1-1.3-0.3-2.2c-0.2-0.2-0.9,0.8-1.2,0.8l0.5-0.8
				l-0.8,0.6l0.4-1h-0.4c0.1,0.1,0,0.5-0.2,0.7c-0.6,0.1-0.5-1.1-0.2-1.5c-0.4,0-0.8,0-1.3,0c0.2-0.3,0.5-0.3,0.7-0.4
				c-1,0.4,0.5-0.8-0.4-0.4c-0.1,0.2-0.4,0.4-0.5,0.5c0.2-0.6-0.3-0.9-0.7-1l0.5-0.4c-0.4-0.6-1.3-0.8-1.8-1.4c0,0.4-0.9,1.1-1.1,1
				l0.7-0.7c-0.6,0.3-0.1,0.4-0.9,0.7c-0.1-0.3,0.7-0.9,1-1h-0.5c0.2-0.2,0.4-0.2,0.7-0.5c-0.6,0.3,0.3-1.1-0.6-0.6l0.2-0.2
				c-0.4-0.6-1-0.7-1.3-1.2c-0.7,0.5-0.7,0.1-1.4,0.3c0-0.3,0-0.6,0.1-1c0-0.3,0.1-0.6-0.1-0.9c-0.6-0.2-0.7,0.2-1.2,0.2
				c0.7-0.4,0.3-0.8,1-0.8c-0.4-0.6-0.5-0.7-1.4-1.4c-0.3,0.2-0.3,0.3-0.6,0.4c-0.2-0.1,0.2-0.5,0.5-0.5h0.1c-0.7-0.3-0.3-1.1,0-1.7
				c0.4-0.6,0.8-1.1-0.1-1.4h0.1c-0.3-0.2-0.6-0.5-0.9-0.7c0.1-0.4,0.6,0.2,1-0.1c-0.7-0.4-0.6-0.7-0.5-1s0.3-0.6-0.1-1
				c0.6-0.1,0.9-0.2,1-0.4c0.2-0.2,0.2-0.4,0.1-0.7c-0.1-0.5-0.2-1.1,0.6-1.2l-0.5-0.1c-0.4-0.3,0.4-0.1,0.5-0.2
				c-0.4-0.1-0.5,0-0.8-0.2c-0.1-0.9,0.5-1.5,1.1-2.1c0.7-0.5,1.5-0.9,2.2-1.3c0.4-0.3-1.9-2.1-0.4-1.8l0.6,0.8
				c0-0.8,0.4-1.3,0.9-1.6c0.2-0.2,0.5-0.3,0.7-0.6c0.2-0.2,0.4-0.5,0.5-0.8c0.1,0.2,0.2,0.5,0.1,0.5c0.6,0.5,0.8-0.5,0.5-1
				c0.2,0,0.3,0.4,0.5,0.6c0.4,0.3,0.1-1.1,0.6-0.5c0.1,0.1,0,0.2,0,0.3c0-0.4,0.7-0.3,0.2-0.9c0.5,0.1,0.7-0.7,1.2-0.4
				c-0.1-1,0.9,0.1,0.5-1.1c0.4,1.3,1.1,0.8,1.2,0.1c0,0.4,0.3,0.3,0.4,0.9c0.3-0.1,0.5-0.4,0.3-1.1c0.5,0.7,0.7,0.4,0.9,0
				c0.2-0.3,0.5-0.6,0.8,0.4c0.9-0.8,1.8-1.4,2.8-1.7c0,1.4-1,0.1-1,1.6c0.8-0.5,1.4-1.8,2.3-1.4c0.2,0.2-0.2,0.6-0.2,0.8
				c0.9-0.5,1.7,0.2,2.5-0.4c0,0.1-0.1,0.2-0.2,0.3c0.2,0,0.3,0.2,0.4-0.4l-0.2,0.1c-0.1-0.9,0.9-1.7,1.1-2.2
				c-0.6,1.7,0.7,0.6-0.1,2.7c0.1-0.1,0.3-0.4,0.4-0.8c0.1,0.2,0.1,0.4-0.1,0.8c0.6-0.2,0.6-0.9,1.1-0.7c-0.1,0.3-0.2,0.4-0.3,0.7
				c0.4-0.5,0.8-1,1.2-0.6c-0.1,0.2-0.1,0.4-0.2,0.4c0.7,0.1,1.7-1.1,2.3-0.3c-0.7,1.1,0.1,0.5-0.2,1.5c0.2-0.1,0.3-0.1,0.5-0.1
				v-0.6c0.3,0.2,1-0.4,1.2,0l-0.5,0.3l0.8,0.1l-0.2-0.6c0.6-0.4,0.5-1.3,0.9-0.8c-0.2,0.1,0.4,0.2,0.3,0.9l0,0
				c0.3-0.2,0.7-0.5,0.8-0.1c-0.1,0.4-0.6,1.1-0.7,1.3c0.6-0.7,0.9,0.2,1.7-0.5c-0.2,0.2-0.5,0.7-0.5,0.8l0.5-0.6
				c0,0.3,0,0.4-0.3,0.8c0.4,0.4,0.6-1.3,0.8-0.4c-0.1,0-0.1,0.1-0.3,0.2c0.4,0.6,1.4,0.3,1.7,1c-0.5,1-0.6-0.1-1,0.8
				c0.4,0.2,1,0.2,1.5,0.2c0.5,0.1,1,0.2,1.3,0.6v-0.2c1.2-1.1-0.1,1,0.8,0.8c-0.2,0-0.7,0.5-0.6,0.4c0.3,0.6,1.1,0.5,2.1,0.9
				l-0.4,0.2c0,0.5,0.5,0.8,0.5,1.2c0.4-0.2,0.5,0,0.8-0.4c-0.6,1.2,0,1.4,0.6,1.6s1.2,0.5,0.6,1.4c-0.1-0.1-0.5-0.1-0.4,0
				c0.3,0.2,0.5,0.4,0.7,0.6c0.6-0.4,0.3-0.3,0.7-0.7c0.4-0.1,0.8,0,0.9,0.2c-0.6-0.2-1,0.5-1.3,0.8c0.2-0.1,0.4-0.2,0.6-0.3
				c-0.9,0.9,1.3-0.5,0.8,0.4l-0.3,0.1c0.3,0.1,0.8,0.2,0.8,0.5c-0.7,0.4-0.4-0.1-1,0.1c0.2,0.3,1.7,0.1,1,0.7
				c-0.3-0.1-0.3-0.3-0.6-0.3c-0.8,0.7-0.5,0.6-0.6,0.9l0,0c-0.1,0.2-0.1,0.5-0.2,0.7l0.2-0.2c2.1-0.2,0.6,0.7,2.1,1
				c-1.4-0.3-0.8,0.1-1.7,0.2c-0.2,0.2-0.4,0.5-0.7,0.5c0.8,0.1-0.5,0.5,0.6,0.7c-0.3,0.1,0,0.3-0.7,0.3c0.3,0.3,0.5-0.1,0.9-0.2
				c0.5,0.2,0.3,0.6,0.1,0.9c-0.2,0.4-0.4,0.7,0.3,1.1c0.6,0.7,1.6,0.8,2,1.5c-0.5,0.2-1-0.2-1-0.2c-0.5,0.3-0.4,0.6-0.1,1
				c-0.2-0.1-0.5,0-0.8,0c0,0.3,1,0.3,0.5,0.6c-0.3-0.1-0.8-0.3-1.1-0.4c0.2,0.3,0.7,0.7,0.9,1.1c-0.5,0-0.7-0.3-1-0.5
				c0.2,0.4,0.3,1,1,1.3c0.1,0,0.2-0.1,0.3-0.2c0,0.1-0.7-0.1-0.8-0.2c-0.6-0.4,0.3-0.4,0.7-0.3l0.1,0.3c1.7,0.1-0.1-1,0.1-1.4
				l1.2,0.4c-0.3-0.2-0.6-0.4-1-0.6c0.3-0.1,1-0.1,1.2,0.2c0.6-0.3-0.4-0.4,0.3-0.6c0.1,0,0.2,0,0.2,0l-0.3-0.4
				c0.3,0.1,0.9,0,0.7,0.2c0.8-0.6-0.9-1.1,0.1-1.3l0.1,0.1c-0.5-0.9-0.9-0.1-2-0.7c0.8-0.2,1.5-0.4,2.2-0.6h-0.9
				c0-0.1,0.1-0.3,0.5-0.3c-0.7-0.3-0.4,0.1-1,0c0.8-0.5-0.6-1.1,0.9-1.5c-0.7,0-0.5,0.5-1,0.1c1.5-0.4-0.3-0.5,0.3-1
				c0.8-0.1,0.5,0.4,1.1-0.1c-1.4,0.1,0.1-0.9-0.3-1.2c-1,0.3-0.6-0.6-1.2-1c0.3-0.1,0.2-1.3,0.3-1.9l0.2-0.1
				c-1,0.3-1.1-0.2-1.5-0.5c0.6-0.3,0.9-0.3,1.2-0.2l-0.2-0.4c-0.4,0.1-0.6,0-0.8-0.1l0.8-0.3c-0.3-0.5-1.4-0.5-1.2-1.3
				c-0.7,0.4-1.6,1.5-2.3,1.3c0.3-0.2,0.9-0.6,1.2-0.6c-0.1,0-0.4,0-0.3-0.2l0.7-0.1c0.1-0.4-0.6,0.2-0.6,0c0.5-0.3,0.3-0.4,0.7-0.6
				c0.1,0-0.1,0.3,0.2,0.3c-0.1-0.3,0.1-0.8,0.4-1.1c-0.3,0.2-0.7,0.5-0.8,0.3c-0.3-0.4,0.5-0.6,0.5-1c-0.4,0.1-0.3-0.4-1,0.1
				c-0.1-0.1,0.2-0.4,0.4-0.6c-0.2,0-0.5-0.2-0.7-0.4c-0.2-0.1-0.5-0.1-0.7,0.3v0.1c0,0,0,0-0.1,0l0,0l0,0c-0.6,0-0.8-0.4-1-0.9
				s-0.3-1-0.8-1.1l0.2-0.2c-0.6-0.1-1-0.6-1.7-0.4c-0.1-0.1,0.1-0.6,0.4-0.9c-0.5-0.1-0.7,0.2-0.8-0.6c0.6-0.2,0.2-0.5,0.6,0
				c-0.2-0.5-0.1-1-1-0.7c0.6-0.5,0.3-1-0.1-1c0,0.2,0,0.4,0,0.7c-0.3-0.1-0.5-0.3-0.6-0.5l0.7-0.7c-0.1-0.8-0.8-0.7-1.4-0.6
				c-0.6,0.1-1.1,0.2-1-0.9c-0.6,0.5,0.3,0.7-0.4,1.3c-0.3-0.4-0.1-1.9-0.3-1.9c-0.4-0.8-1.2,1-1.7,0.4c-0.1,0.4-0.4,1.2-1,1.4
				c-0.4-0.3,0.1-1.6,0.5-1.7c0.1,0,0.1,0.1,0.1,0.2c0.2,0,0.5-0.1,0.4-0.5l-0.2,0.3c-0.1-0.4-0.7-0.7-0.3-1.1
				c-0.5,0.2-0.4,0.5-0.2,0.8c-0.4-0.7-0.9-0.4-1.4-1c0,0.2,0,0.6-0.1,0.6c-0.8-0.7-0.6,0.5-1.3,0.4c-0.2-0.6,0.5-1.2-0.2-1
				c-0.3-0.5,0.2-0.9,0.5-1.1c-0.8,0.4-1-0.8-1.3-1l0.4-0.2c-0.2,0.1-0.4,0.1-0.6,0v0.7c-0.2-0.2-0.3-0.2-0.2-0.5
				c-0.3,0.4-0.2,1.2-0.7,1.7c-0.2-0.4-0.8,0.2-0.7-0.8c0.7,0.5,0.1-1,0.8-0.9c-0.2,0.1-0.3,0-0.5-0.1c0-0.1,0.1-0.2,0.1-0.2
				c-0.6-1-0.6,1-1.3,0.8c0.2-0.5,0-1-0.2-0.9c0.3,0.1,0,0.9-0.4,1.2c-0.4-0.5-0.6,0.2-0.8,0.1l0.3,0.2c-0.2,0.5-0.4,0.4-0.8,0.5
				c0-0.4,0.3-0.2,0.2-0.4c-0.5,0.9-0.7-1.1-1.3-0.5c-0.2-0.4,0.1-1-0.2-1.3c-0.7,0.6-0.6-0.8-1.3-0.2c0.2,0.7,0.2,0.5-0.3,1.2
				c0.3-0.2,0.7-0.3,1.1-0.5l-0.7,1c0.3,0,0.7-0.4,0.9-0.3c-0.3,0.6-0.3,0.4-0.2,1c-0.4-1.1-0.8,0.6-1.3-0.1v-1.8
				c-0.8-0.8-1.3,0.9-2.3,0.5l0.3,0.3c-0.1,0.7-0.6,0.1-0.9,0.5c0-0.6-0.2-0.8-0.4-1.1c0.1,0.4-0.7,0-0.7,1.2
				c-0.2-0.2-0.4-0.5-0.5-0.7c-0.8-0.2-0.6,1.8-1.3,1.8c0.1-0.7-0.3-1,0.1-1.6c-0.2,0-0.5,0-0.4,0.4c-0.2-0.4-0.5,0.9-0.9,0.5
				c0,0.3,0.1,0.9-0.2,0.9c-0.1-0.1-0.1-0.3-0.1-0.3c0.1,0.3-0.3,0.5,0.1,1.1c-0.6-0.8-1.1-0.6-1.6-0.4s-0.9,0.5-1.5-0.1
				c-0.5,0.4-0.9,0.9-1.4,1.1c0-0.2-0.1-0.3,0-0.2c-0.9-0.2,0.4,1.7-0.5,1.5c-0.8-0.6,0.1-0.7-0.3-0.9c-1.1-1.6-0.7,0.7-1.7,0.1
				v-0.2c-0.4-0.2-0.5,0.1-0.6,0.5s-0.2,0.8-0.5,1c0,0-0.1-0.2-0.2-0.2c0.2,1.1-0.2,1.8-0.4,2.5c-0.4-0.7-0.1-0.5-0.7-1
				c-0.1,0.3,0.9,0.9,0.7,1.4c-0.4-0.2-1-0.1-1.6-0.7l0.4-0.4c-1-0.5-0.5,0.5-0.8,0.6l-0.3-0.3c-0.5,0.8,0.5,1.5-0.2,2.2l0.3,0.1
				c0.7,1.1-0.8-0.1-0.3,0.8l-1.1-0.5c0.1,0.5,0.4,1.6,0.3,2.1c-0.6-0.7-0.6-1.5-0.8-2.1c-0.2,0.3-0.5,1-0.1,1.5
				c0-0.2-0.2-0.5,0-0.5c0.3,0.4,0.5,0.8,0.6,1.1c0.1,0.3,0.1,0.6-0.1,0.9c-1-0.6-1.3-0.2-1.6,0.2s-0.5,1-1.4,0.9
				c0.2,0.7-0.1,1.2-0.4,1.8c-0.3,0.6-0.7,1.2-0.8,1.9c1.8-0.2,0,0.4,1.8,0.5c0.1,0.3,0.1,0.4-0.1,0.4c-0.4,0.3-0.8,0.6-1.2,0.9
				c-0.5,0.2-0.4-0.3-0.8-0.3c-0.2,0.7-0.8,0.3-1.3,0.8c0.7-0.1,0.9,0.3,0.7,0.7c0.3-0.2,0.5-0.4,0.8-0.6c1,1-1.5,0.9-0.5,1.9
				l-0.6-0.3c0.3,0.5,0.2,2,1.7,2.3c-0.2,0.1-0.7,0.3-0.8,0.1c0,0.6,0.5,1.2,1,1.8c0.5,0.5,0.8,1,0.6,1.6l-0.5,0.1
				c0.2,0.2,0.9,0.1,0.6,0.5c-0.2,0-0.5,0.1-0.4,0.2c0.2,0.1,0.9,0.3,0.8,0.7h-0.6c-0.1,1.4,1.9,1.1,2.6,1.8c-1.2,0.6-1,1.6-1,2.2
				l-0.2,0.1c0.2,0.3,0.4,0.6,0.6,0.8c0.3,0.2,0.6,0.3,0.9,0.5c0.6,0.2,1.3,0.4,1.9,0.7c-0.3,0.7,0,1.3,0.5,1.9
				c0.4,0.6,1,1.1,1.2,1.8c0-0.3,0.7-0.7,1-0.7c0,0.4,1.2-0.2,0.4,0.7c0,0,0,0-0.1-0.1c-0.6,1,0.1,1.2,0.4,1.5l1-1.2
				c-0.2,1.3,0.5,1.6,1.3,1.8c0.7,0.2,1.4,0.3,1.2,1.4c0.5-0.2,0.8,0,1.2-0.2l-0.4,0.7c0.6,0.6,0.9,0.9,1.9,1.1l-0.5,0.5
				c0.5,0.3,1.7-1.9,2.2-1.8l-0.4,1.2c0.9,0.4,1.5,1.7,2.8,1c-0.1,0.2-0.2,0.5-0.4,0.5c0.4,0.2,1.5,1.3,1.8-0.4
				c-0.3,1.1,1,0.4,1.6,0l-0.3,0.8c0.7-0.9,0.7-1.2,1.4-1.4c0.1,0.1,0,0.7-0.2,0.4c0.4,0.5,0.5-0.7,1-0.2l-0.3,0.5
				c0.5,0.1,0.5-0.1,0.8-0.7c0.3-0.3,0.9,0.3,0.9,1.1c0.1-0.5,0.4-1,0.7-0.8c0,0.3-0.1,0.5-0.2,0.5c0.8,0.6,1.2-0.8,1.8,0
				c0,0.3,0,0.4,0.1,0.5c-0.7,0-1.2-0.1-1.1-0.2c0,0.8,0.5,1,0,2c0.5-0.5,1.3-1.8,1.8-1.5c0,0.1,0,0.2,0.1,0.3v0.1
				c0.1,0.1,0.2,0,0.3-0.1c0.2,0.1,0.3,0.2,0.5,0.2c0.1,0.6,0.7,0.3,0.9,0.3c-0.1-0.8,0.3-0.7-0.1-1.4c0,0.1,0,0.1-0.2,0.2
				c0,0-0.1,0-0.1,0.1c0,0,0,0,0-0.1c-0.2,0-0.4,0-0.7,0.1c0.2-0.4,0.4-0.8,0.7-0.3c0.1-0.5,0.2-1.1,0.3-1.4
				c0.4,1.1,1.2,1.7,1.4,2.4c0.8-0.5,1.9-0.6,2.1-2.3c0.2-0.2,0.3,0.4,0.5,0.6c-0.1,0.2-0.3,0.2-0.3,0.4c0.4-0.5,1.3-0.5,1.1-1.6
				c0.7,0.3,0,1.1,0.7,0.7v0.3c0.5,0.3,0.9,0.3,1.2,0s0.5-0.7,0.7-1.1c0.4-0.8,0.7-1.6,2-1c-0.2-0.1-0.2-0.1-0.3-0.3
				c0.5,0,1-0.2,1.5-0.4c0.4-0.3,0.8-0.6,1.2-1c0.4-0.3,0.7-0.7,1.2-1c0.4-0.3,1-0.4,1.6-0.5c0.6-0.2,0.2-0.7,0-1.3l0.7,0.5
				c-0.1-0.4-0.2-0.8-0.3-1.1c0-0.5,0.6-0.5,1.2-0.5c0.6,0,1.2-0.1,0.9-1l-0.6-0.2c0.3-0.2,0.3-1.2,0.9-0.8
				c-0.1-0.1-0.5-0.4-0.1-0.4l0.4,0.2c-0.1-0.4-0.1-0.8-0.3-1.2c0.6-0.5,1.6,1,2.2,0c0-0.5-0.8-1.6-1.2-1.6
				c-0.1,0.1-0.4,0.2-0.9,0.1l-0.1-0.4c-1.3-0.6-2.5-1.2-3.7-1c0.2,0.2,0.4,0.5,0.6,0.8l-0.7-0.2l0.1-0.3c-0.7-0.1-0.2,0.3,0.1,0.6
				c-0.3-0.1-0.6-0.2-0.7-0.2c0.3,0.3,0.7,0.7,1,1c-0.5-0.2-0.8-0.7-1.3-0.6c0.4,0.5,1.2,0.4,1.3,0.9c-0.7-0.1-1.1-0.5-0.7,0
				c-0.3-0.2-0.5-0.3-0.6-0.5c0.2,0.4-0.1,0.6,0.4,1.1c-0.7-0.2-0.3,0.7-1.3-0.1c0.2,0.2,0.6,0.9,0.5,1.1c-1-1.3-0.5,0.5-1.8-0.7
				c0.8,1.2-0.2,1.1,0,2c0-0.1-0.2-0.3-0.1-0.3c-0.3,0.1-0.6-0.2-0.9-0.3c0.7,0.9,0.5,1.4,0.8,2.2c-1-0.7-0.7-1.2-1.4-2
				c0.6,0.8,0.1,1.1,0.7,1.7c-0.6-0.4-0.4-0.1-1-0.9c0.8,1.2-0.1,0.3,0.2,1.2c-0.7-0.4-0.8-1.1-0.9-0.5
				C779.8,459.1,779.8,458.5,779.8,458.5z M770.7,463.4L770.7,463.4c0.1,0,0.2-0.1,0.2-0.1C770.9,463.4,770.8,463.4,770.7,463.4z
				 M769.8,463.4c0.1,0,0.2,0,0.4,0c0,0.3,0,0.6-0.1,0.6C770.2,463.8,769.9,463.7,769.8,463.4z M772,469.3c-0.2,0.1-0.2,0-0.3-0.2
				c0.1,0,0.2,0,0.3-0.1v-0.1C772.1,469,772.1,469.1,772,469.3z"/>
			<path class="st0" d="M772.3,468.1L772.3,468.1c0-0.1,0-0.2,0-0.2C772.2,468,772.2,468.1,772.3,468.1
				C772.2,468.1,772.3,468.1,772.3,468.1z"/>
			<path class="st0" d="M786.6,434.6L786.6,434.6L786.6,434.6L786.6,434.6z"/>
			<polygon class="st0" points="758.4,458.3 758.3,458.5 758.5,458.4 			"/>
			<path class="st0" d="M787.2,440.8c-0.1,0-0.1,0.1-0.2,0.2C787.1,440.9,787.1,440.9,787.2,440.8z"/>
			<path class="st0" d="M787.9,442.9l-0.2,0.4C787.8,443.1,787.8,443,787.9,442.9z"/>
			<path class="st0" d="M787.9,444.6c0.2,0,0.3,0,0.4,0l0,0H787.9z"/>
			<path class="st0" d="M768.3,429.4C768.3,429.4,768.2,429.4,768.3,429.4C768.1,429.5,768.2,429.5,768.3,429.4z"/>
			<path class="st0" d="M776.6,429.9c-0.1,0.1-0.3,0.2-0.4,0.2C776.2,430.2,776.3,430.3,776.6,429.9z"/>
			<path class="st0" d="M760.1,430.7L760.1,430.7C760.1,430.7,760,430.7,760.1,430.7L760.1,430.7z"/>
			<path class="st0" d="M775.8,430c0.1,0.2,0.2,0.2,0.3,0.2C776.1,430,776,429.9,775.8,430z"/>
			<path class="st0" d="M787.6,451.5L787.6,451.5C787.6,451.6,787.6,451.6,787.6,451.5L787.6,451.5z"/>
			<path class="st0" d="M787.7,451.6L787.7,451.6C787.8,451.6,787.8,451.6,787.7,451.6z"/>
			<path class="st0" d="M787.9,451.9c0-0.1-0.1-0.1-0.2-0.2C787.8,451.7,787.7,451.8,787.9,451.9z"/>
			<path class="st0" d="M788.3,449.5H788C788.1,449.4,788.2,449.4,788.3,449.5z"/>
			<path class="st0" d="M788.3,448.8c-0.1,0.1-0.7,0.3-0.5,0.6h0.2C787.6,449.3,788.8,449,788.3,448.8z"/>
			<path class="st0" d="M791.9,445.6l-0.1,0.7c0.3-0.2,0.7-0.4,0.8-0.1C793.4,445.2,791.9,446.5,791.9,445.6z"/>
			<path class="st0" d="M791.9,443.4c0.2,0.3,0.5-0.1,0.6-0.1C792.2,443.1,792.1,443.1,791.9,443.4z"/>
			<path class="st0" d="M783.8,430.8l0.5-0.6C784,430.2,784.1,430.5,783.8,430.8z"/>
			<polygon class="st0" points="779.3,432.4 779.2,432.9 779.7,432.4 			"/>
			<path class="st0" d="M780.8,426.9h0.2c-0.2,0-0.4,0-0.6,0H780.8z"/>
			<path class="st0" d="M755.3,424.5l0.4,0.9C755.8,425.1,755.5,424.1,755.3,424.5z"/>
			<path class="st0" d="M746.6,432.1c-0.5-0.2-0.9-0.1-0.7,0.3C746.2,432.2,746.6,432.2,746.6,432.1z"/>
			<polygon class="st0" points="752,463.1 751.6,463.2 752.1,463.3 			"/>
		</g>
	</g>
</g>
<g id="diche">
	<g>
		<path d="M1070.8,475.4c-5.5,0-10.4-1.3-14.8-4s-8-6.2-10.6-10.7s-3.9-9.5-3.9-15s1.3-10.5,3.9-15s6.2-8,10.7-10.6
			s9.6-3.9,15.2-3.9c2.9,0,5.7,0.4,8.3,1.2c2.7,0.8,5.1,1.9,7.4,3.4v-23.6l15.2-2.5v80.1h-15V470
			C1082.5,473.6,1077,475.4,1070.8,475.4z M1073.3,462.5c2.8,0,5.4-0.5,7.7-1.4c2.3-1,4.3-2.3,6-4.1v-22.5c-1.7-1.7-3.7-3-6.1-4
			s-4.9-1.4-7.7-1.4c-3.2,0-6,0.7-8.6,2.2c-2.5,1.4-4.6,3.4-6,6s-2.2,5.4-2.2,8.6s0.7,6,2.2,8.5s3.5,4.5,6,6
			C1067.2,461.7,1070.1,462.5,1073.3,462.5z"/>
	</g>
	<g>
		<path d="M1121.7,410.1c-2.4,0-4.4-0.8-6.1-2.5s-2.5-3.7-2.5-6.1s0.8-4.5,2.5-6.2s3.7-2.5,6.1-2.5s4.5,0.8,6.2,2.5s2.5,3.7,2.5,6.2
			c0,2.4-0.8,4.4-2.5,6.1C1126.2,409.2,1124.1,410.1,1121.7,410.1z M1114.2,474.7v-57.8h15.2v57.8H1114.2z"/>
	</g>
	<g>
		<path d="M1168.8,475.8c-5.7,0-10.8-1.3-15.4-3.9s-8.2-6.2-10.9-10.8c-2.7-4.5-4-9.6-4-15.2c0-5.7,1.3-10.8,4-15.3
			s6.3-8.1,10.9-10.8c4.6-2.7,9.7-4,15.4-4c4.6,0,9,0.9,13.1,2.7c4.2,1.8,7.8,4.3,10.8,7.7l-9.3,9.9c-2.1-2.4-4.4-4.1-6.7-5.3
			c-2.3-1.1-4.9-1.7-7.6-1.7c-3,0-5.6,0.7-7.9,2.2s-4.2,3.5-5.5,6c-1.4,2.5-2.1,5.4-2.1,8.7c0,3.1,0.7,5.9,2.1,8.5s3.3,4.5,5.7,6
			c2.4,1.4,5.1,2.2,8.1,2.2c2.6,0,5-0.5,7.3-1.6c2.2-1.1,4.4-2.7,6.5-4.8l9.1,9.5c-3,3.2-6.5,5.7-10.6,7.5
			C1177.5,474.9,1173.3,475.8,1168.8,475.8z"/>
	</g>
	<g>
		<path d="M1198.2,474.7v-77.6l15.2-3.3v27.9c4.4-3.9,9.8-5.9,16.2-5.9c4.5,0,8.5,1,11.9,2.9c3.4,2,6.1,4.7,8,8.1s2.9,7.5,2.9,12
			v35.8h-15.2V441c0-3.8-1.1-6.7-3.2-8.9c-2.1-2.2-5.1-3.3-8.8-3.3c-2.6,0-4.9,0.5-6.9,1.5s-3.7,2.4-5,4.3v40L1198.2,474.7
			L1198.2,474.7z"/>
	</g>
	<g>
		<path d="M1292.2,475.8c-5.8,0-11-1.3-15.7-4s-8.4-6.2-11.1-10.8s-4.1-9.6-4.1-15.2s1.3-10.7,3.9-15.2s6.2-8.1,10.7-10.8
			c4.5-2.7,9.5-4,15.1-4s10.5,1.4,14.7,4.1s7.7,6.4,10.1,11.1c2.5,4.7,3.7,9.9,3.7,15.8v4h-42.8c0.7,2.3,1.8,4.4,3.3,6.2
			s3.4,3.3,5.7,4.3c2.2,1,4.7,1.5,7.3,1.5s5-0.4,7.2-1.2s4.1-2,5.6-3.4l10,9.1c-3.6,2.9-7.2,5-10.9,6.3
			C1301,475.1,1296.8,475.8,1292.2,475.8z M1276.5,440.1h28c-0.5-2.3-1.5-4.3-2.8-6s-3-3.1-4.9-4.1s-4-1.5-6.3-1.5
			c-2.4,0-4.5,0.5-6.4,1.4s-3.5,2.3-4.8,4C1278.1,435.7,1277.1,437.7,1276.5,440.1z"/>
	</g>
</g>
<g id="steph">
	<g>
		<path d="M944,375.8c-5.3,0-10.2-0.7-14.7-2c-4.5-1.4-8.4-3.3-11.8-5.9l7.5-10.1c3.3,2.2,6.5,3.9,9.6,5s6.1,1.7,9.1,1.7
			c3.4,0,6.1-0.6,8.2-1.7c2-1.1,3-2.6,3-4.5c0-1.5-0.6-2.7-1.7-3.5c-1.2-0.9-3-1.5-5.5-1.9l-11.1-1.7c-5.8-0.9-10.1-2.8-13.1-5.6
			c-3-2.8-4.4-6.6-4.4-11.2c0-3.8,1-7,2.9-9.7s4.7-4.8,8.3-6.3s7.8-2.3,12.8-2.3c4.2,0,8.3,0.6,12.4,1.8c4,1.2,7.8,3,11.4,5.4
			l-7.3,9.9c-3.2-2-6.2-3.4-9.1-4.3c-2.9-0.9-5.8-1.3-8.8-1.3c-2.7,0-4.9,0.5-6.6,1.5c-1.7,1-2.5,2.4-2.5,4.1c0,1.5,0.6,2.8,1.8,3.7
			s3.2,1.5,6.1,1.9l11.1,1.7c5.7,0.8,10,2.6,13.1,5.5c3,2.9,4.5,6.5,4.5,11c0,3.7-1.1,7-3.3,9.8s-5.2,5.1-9,6.8
			C953.1,375.3,948.9,375.8,944,375.8z"/>
	</g>
	<g>
		<path d="M1003.1,375.6c-6.4,0-11.3-1.5-14.6-4.4s-4.9-7.2-4.9-12.8v-28.8h-11.9V317h11.9v-14.7l15.2-3.4v18.2h16.5v12.6h-16.5
			v25.7c0,2.7,0.6,4.6,1.8,5.7c1.2,1.2,3.2,1.7,6.2,1.7c1.5,0,2.8-0.1,4-0.3c1.2-0.2,2.6-0.5,4-1V374c-1.5,0.5-3.5,0.9-5.8,1.2
			C1006.8,375.4,1004.8,375.6,1003.1,375.6z"/>
	</g>
	<g>
		<path d="M1050.3,375.8c-5.8,0-11-1.3-15.7-4s-8.4-6.2-11.1-10.8s-4.1-9.6-4.1-15.2s1.3-10.7,3.9-15.2c2.6-4.5,6.2-8.1,10.7-10.8
			c4.5-2.7,9.5-4,15.1-4c5.5,0,10.5,1.4,14.7,4.1c4.3,2.7,7.7,6.4,10.1,11.1c2.5,4.7,3.7,9.9,3.7,15.9v4h-42.8
			c0.7,2.3,1.8,4.4,3.3,6.2c1.5,1.8,3.4,3.3,5.7,4.3c2.2,1,4.7,1.5,7.3,1.5c2.6,0,5-0.4,7.2-1.2s4-2,5.6-3.4l10,9.1
			c-3.6,2.9-7.2,5-10.9,6.3C1059.2,375.1,1055,375.8,1050.3,375.8z M1034.7,340.1h28c-0.5-2.3-1.5-4.3-2.8-6c-1.4-1.7-3-3.1-4.9-4.1
			s-4-1.5-6.3-1.5c-2.4,0-4.5,0.5-6.4,1.4s-3.5,2.3-4.8,4C1036.3,335.7,1035.3,337.7,1034.7,340.1z"/>
	</g>
	<g>
		<path d="M1157.1,374.7v-77.6l15.7-3.3v27.9c4.5-3.9,10.1-5.9,16.8-5.9c4.7,0,8.8,1,12.3,2.9c3.6,2,6.3,4.7,8.3,8.1s3,7.5,3,12
			v35.8h-15.7V341c0-3.8-1.1-6.7-3.3-8.9c-2.2-2.2-5.2-3.3-9.1-3.3c-2.7,0-5.1,0.5-7.1,1.5c-2.1,1-3.8,2.4-5.2,4.3v40L1157.1,374.7
			L1157.1,374.7z"/>
	</g>
	<g>
		<path d="M1102.2,370.9c2.3,1.5,4.8,2.6,7.4,3.4c2.7,0.8,5.4,1.2,8.3,1.2c5.5,0,10.6-1.3,15.1-3.9s8.1-6.2,10.8-10.6
			c2.7-4.5,4-9.5,4-15s-1.3-10.5-3.9-15s-6.2-8-10.6-10.7s-9.4-4-14.8-4c-6.2,0-11.7,1.9-16.4,5.5V317h-15v83.7l15.2-2.5
			L1102.2,370.9z M1130.6,354.4c-1.5,2.5-3.5,4.5-6,6c-2.6,1.5-5.4,2.2-8.6,2.2c-2.7,0-5.3-0.5-7.7-1.5s-4.4-2.3-6-3.9v-22.5
			c1.7-1.9,3.7-3.2,6-4.2c2.3-0.9,4.9-1.4,7.7-1.4c3.2,0,6,0.7,8.6,2.2c2.5,1.4,4.6,3.4,6,6s2.2,5.4,2.2,8.6
			C1132.8,349.1,1132.1,351.9,1130.6,354.4z"/>
	</g>
</g>
</svg>
