<?xml version="1.0" encoding="utf-8"?>
<!-- Generator: Adobe Illustrator 25.2.1, SVG Export Plug-In . SVG Version: 6.00 Build 0)  -->
<svg version="1.1" id="Layer_1" xmlns="http://www.w3.org/2000/svg" xmlns:xlink="http://www.w3.org/1999/xlink" x="0px" y="0px"
	 viewBox="0 0 500 500" style="enable-background:new 0 0 500 500;" xml:space="preserve">
<style type="text/css">
	.st0{fill:#202020;}
</style>
<g>
	<path class="st0" d="M151.4,228.7c-0.7-0.5-2.2-0.2-1.9,1.2l2.6,1L151.4,228.7z"/>
	<path class="st0" d="M146.5,238.6c1.3,1.7,3.5,3.7,6,2.6c-2.5-1.7-1.5-2.1-4.5-4c-0.3-1.5,0.9-2.6,1.8-2.3
		c-0.7-0.5,0.6-2.3-1.1-3.1c-2.1,1.9-2.1,4.3-0.4,6.9C147.7,239.2,147,238.7,146.5,238.6z"/>
	<path class="st0" d="M142.4,382l0.3-0.9C142.5,381.3,142.4,381.6,142.4,382z"/>
	<path class="st0" d="M192.2,421.1c-0.6,0.2-0.9,0.5-0.9,0.8C192,421.5,192.4,421.3,192.2,421.1z"/>
	<path class="st0" d="M207.8,420.2c-0.3,0-0.6,0-0.9,0C207.3,420.5,207.7,420.5,207.8,420.2z"/>
	<path class="st0" d="M142.4,382l-0.8,2.4C142.4,384.5,142.2,383.2,142.4,382z"/>
	<path class="st0" d="M152.9,258.4c-0.1-0.5-0.4-0.9-0.7-1.3c0.1,0.4,0.2,0.8,0.3,1.2C152.6,258.3,152.8,258.3,152.9,258.4z"/>
	<path class="st0" d="M140.2,342.8v-0.7c-0.3-0.2-0.7-0.4-1.1-0.6L140.2,342.8z"/>
	<path class="st0" d="M139.8,312.8c-0.1,0.7,2.1,0.9,3.1,1.2c-0.9-0.4-1.4-0.9-1.5-1.5C141,312.5,140.5,312.5,139.8,312.8z"/>
	<path class="st0" d="M143.8,265.1l-0.3-0.9C143.6,264.5,143.7,264.8,143.8,265.1z"/>
	<path class="st0" d="M139.8,364.4c-0.3,0-0.6,0.2-0.8,0.3C139.2,364.6,139.5,364.5,139.8,364.4z"/>
	<path class="st0" d="M318.6,142.8c-0.2,0-0.2,0.1-0.4,0.1C318.5,143,318.7,143,318.6,142.8z"/>
	<path class="st0" d="M314,180l-0.1-0.5c-0.4,0-0.9-0.1-1.3,0L314,180z"/>
	<path class="st0" d="M235.7,415.4c-0.1,0-0.1,0-0.1,0C235,415.9,235.4,415.7,235.7,415.4z"/>
	<path class="st0" d="M299.6,237.8c1.7,3.1-5.5,0.1-2.5,4.1C297.1,240.9,302.3,240.6,299.6,237.8z"/>
	<path class="st0" d="M152.6,259.1c0,0.4,0,0.8,0,1.2C152.7,259.8,152.7,259.4,152.6,259.1z"/>
	<path class="st0" d="M297.1,241.9L297.1,241.9l0.3,0.4C297.2,242.1,297.2,242,297.1,241.9z"/>
	<path class="st0" d="M296.4,390.6c-0.3-0.3-0.7-0.5-1-0.6C295.5,390.2,295.8,390.4,296.4,390.6z"/>
	<path class="st0" d="M250.1,406l1.2-0.1C250.8,405.9,250.5,405.9,250.1,406z"/>
	<path class="st0" d="M317.2,375.3c0.6-0.2,1-0.1,1.6-0.8c-0.1,0-0.2-0.1-0.4-0.1C318.4,374.8,318.1,375.2,317.2,375.3z"/>
	<path class="st0" d="M338.5,358.6c-0.2,0-0.5,0-0.7,0c-0.2,0.2-0.4,0.5-0.5,0.7L338.5,358.6z"/>
	<path class="st0" d="M268.2,75.7c0.3,0.8,0.3,1.6,0.2,2.4c0.2-0.8,1.3-0.8,1.7-0.9c0.2-0.1,0.3-0.1,0.1-0.3
		c-0.1-0.1-0.3-0.3-0.7-0.5C269.2,76.2,268.8,76,268.2,75.7z"/>
	<path class="st0" d="M151.6,258.4c0.6,0.1,0.9,0.4,1,0.8c0-0.3-0.1-0.6-0.1-0.9C152.1,258.2,151.8,258.2,151.6,258.4z"/>
	<path class="st0" d="M308.4,359.8l3.4-1.9C310.8,358.4,309.6,359.1,308.4,359.8z"/>
	<path class="st0" d="M136.9,173.4l-0.3-1C136.6,172.8,136.7,173.1,136.9,173.4z"/>
	<path class="st0" d="M320.5,351c1,0.2,1.9,0.1,2.6-0.2c0-0.2,0-0.5,0-0.7C322.2,350.4,321.4,350.7,320.5,351z"/>
	<path class="st0" d="M268.4,78.1C268.4,78.1,268.4,78.1,268.4,78.1C268.4,78.1,268.4,78.1,268.4,78.1z"/>
	<path class="st0" d="M295.2,93.2c-2.9-3.4-3.5,0.4-5.4,0.8c-4.2-3.1-0.1-3.2-0.3-5.6c-1.5-0.9-3.1-1.3-4.6-1.6
		c-1.5-0.3-2.9-0.6-3.8-1.4c0.2-0.5-0.1-0.9,0.7-1.1c-1-0.1-2.1-0.5-3.1-1.1c-1-0.6-2.1-1.3-3.2-2c-0.5-0.4-1.1-0.7-1.7-1
		c-0.6-0.3-1.2-0.6-1.8-0.8c-1.2-0.4-2.4-0.7-3.6-0.6c-0.1-0.4-0.1-0.7-0.1-0.9c-0.2,1.6-0.8,3-1.5,3.8c-1.6-0.8-3.9,0.1-3.6-1.9
		c1,0.6,1.4-0.1,2.2-0.4l-2.1-0.1c-0.4-3.3,2.8,0.3,3.8-1.5c-2-0.5-4.2-0.7-6.2-1c-2.1-0.2-3.9-0.5-5.1-1.4c0.3-2.8,6.8,1.7,4-2
		l2,1.3c0.7,0.4,1.3,1,1.9,1.5c-1.4-5.5,2.5,1.6,1.4-4.1c-1.3-0.9-2.5-1.3-3.5-1.7c-1-0.3-1.9-0.5-2.8-0.7c-0.9-0.1-1.8-0.4-2.8-0.6
		c-1-0.2-2.2-0.6-3.7-1.2c-1.8,1.1-0.2,2.3-1.9,3.3c-2.2,0-3.6-0.3-4.6-1c-1-0.7-1.6-1.6-2.2-2.6c-0.6-0.9-1.1-1.8-1.9-2.3
		c-0.8-0.5-1.9-0.5-3.6,0.2c-0.9,0.8-1.7,2-2.7,2.8c-1,0.8-2.3,0.9-4.4,0c0.6-1,1.1-2,1.7-3c-2.9-0.3-3.9,0.8-4.7,1.7
		c-0.4,0.4-0.9,0.8-1.6,0.9c-0.7,0.1-1.7,0-3.2-0.5c1-1.3,4.6-0.9,3.7-1.3c-1-0.6-1.7-0.9-2.2-0.8c-0.5,0.1-0.8,0.4-1.1,0.8
		c-0.6,0.8-1,1.8-2.5,1.9l-0.7-2.7c-1.6,0.2-3.1,0.4-4.7,0.8c-1.6,0.4-3.2,0.9-4.9,1.3c-0.8,0.2-1.6,0.4-2.4,0.7
		c-0.8,0.3-1.6,0.6-2.4,0.8c-1.6,0.6-3.3,1-4.9,1.5c0.2-0.9,1.2-2-0.6-2.4c-2.1,0.9-4.3,1.6-6.5,2.2c-2.2,0.8-4.5,1.4-6.9,2.1
		c-1.1,0.4-2.3,0.8-3.5,1.1c-1.2,0.4-2.3,0.7-3.5,1.1c-1.1,0.4-2.3,0.8-3.4,1.2c-0.6,0.2-1.1,0.4-1.7,0.6c-0.5,0.2-1.1,0.5-1.6,0.7
		c-0.5,1.3-1,2.6-1.5,3.9c-0.7,0.4-1.8,0-1.4-0.9c-3.3,1.4,0.7,1.3,0,3.1c-1.4,1.3-2.9,0.6-2.3-0.8c-1.7,2.6-4.2,6.3-6.7,10
		c-0.6,0.9-1.2,1.8-1.9,2.6c-0.6,0.9-1.2,1.7-1.8,2.5c-0.6,0.8-1.3,1.5-1.9,2.1c-0.6,0.7-1.3,1.2-2,1.7l0.1-1.4
		c-1.7,1.8-1.5,3.6-1.1,5.3c0.3,1.7,0.5,3.1-1.5,4.6c0-0.3,0-0.6,0-0.9c-2.7,4.4-4.5,9.6-6,14.3c-1.5,4.8-2.9,9.3-5.4,12.7
		c0.8,0.5,0.9,1.4,0.8,2.4c-0.1,1-0.4,2.2-0.7,3.4c-0.6,2.3-0.9,4.6,1.4,5.2c-1.5,2.7-2.3,3.6-3.2,4.8c-0.8,1.2-1.6,2.8-2.6,6.8
		c-0.3,2.1,2.8,3.3,3.2,5.9l-2.5,0c0.8,1.2,1.7,2.4,2.5,3.6l-3,1.9l0.6,2.4c0.1-1,1.1-2.1,1.8-1.9c1.1,3.8-1.6,9.2-2.9,9.3
		c0.1,0.1,0.1,0.6,0.1,0.9l0.1,1c0.1,0.6,0.2,1.3,0.3,1.9c0.3,1.2,0.5,2.4,1,3.6c0.9,2.3,2.5,4.2,4.4,5.7c-1,0.4-2.9-1.3-4.4-2.9
		c1.5,1.6,2.3,2.3,2.6,2.8c0.3,0.5,0.2,0.8,0,1.2c-0.2,0.3-0.4,0.6-0.1,1.1c0.3,0.5,1.1,1.2,3,2c-0.4-1,1.4-0.7,1.9-1
		c0.5,0.8,1.3,1.7,2.4,2.6c0.2,0.2,0.5,0.4,0.7,0.6c0.2,0.2,0.4,0.4,0.6,0.5c0.4,0.3,0.9,0.6,1.4,0.9c1.9,1.2,4.1,2.1,6,2.6
		l-1.4,1.2c6.3,3.4,13.7,4.7,20.7,7.2c-2.2-1.6-0.7-4.2,1.4-3.8l-0.1,2.7c1.9-1.1-1.8-1.7,1.6-2.6c2.5,1.2,0.8,3.4-1,3.7l3.4,0.2
		c-0.1,0.8-0.9,0.9-1.5,1.8c1.8-1.1,4.6,4.3,7.4,2.3l-0.1,0.8c6.9,2.4,10.3,2.5,16,4.3c0.8-2.1,2.9-0.9,5.1-2.1
		c3.9,2.1,7.9,5.2,12.9,6.8c3.8,0.1,1.6-1.5,3.6-2.2c-0.4,2,4.6,3.5,1.5,4.1c6,1.7,7.6,2.2,15.6,3.4c-0.5-1.1-1.3-1.8-0.6-2.2
		c1.5,0.2,2.8,1.9,2.2,2.8l-0.4,0.1c4.7,0.1,8.9,3.3,12.9,6.3c4,3,7.8,5.9,11.8,5.3l-0.4,0c2.5,0.2,5,0.5,7.5,0.8
		c2.9,1.7-2.4,0.6-0.7,2.8c4.2,0,7,1.4,9.5,2.9c2.5,1.5,4.7,3,8.1,3.5c0.8,3.8,4.6,5.7,8.7,7.6c4.1,1.9,8.4,3.9,10,7.2l0.5-1.4
		c2.1-0.2,1.2,1.8,2,2.8c0.5-1-0.7-2.1,0.5-2.1c6.3,3.3,11.7,8.3,15.9,13.8c4.2,5.6,7.2,11.6,9,17.2c0.7,2,2.6,1.9,4.2,2.1
		c0.8,0.1,1.6,0.3,2,0.9c0.4,0.6,0.6,1.6,0.1,3.2c-1-0.3-2-0.6-3-0.9c2.7,3.7,3.1,8.5,2.6,12.9c-0.5,4.5-1.9,8.6-2.7,13.4
		c-0.3-0.8-1-1.1-0.7-1.9c-0.6,0.2-1.1,0.7-1.5,1.4c-0.4,0.6-0.7,1.4-0.9,2.1c-0.4,1.5-0.4,3.1,0.3,3.5c-0.9,1.2-1.4-0.5-2.5-0.2
		c-1,0.5-1.2,1.8-1.5,3.1c-0.3,1.2-0.6,2.3-1.7,2.1c-0.4-0.1-0.1-0.8,0-1.2c0,0.4-0.3,0.9-0.6,1.4c-0.4,0.5-0.8,1-1.2,1.5
		c-0.7,1-1.1,1.8,0.1,2.1c-1.7,1-2.7,2.4-3.8,3.8c-0.5,0.7-1.1,1.3-1.7,1.9c-0.6,0.5-1.3,1-2.1,1.2c0.1,1.6-1.4,2.4-2.7,3.2
		c-1.2,0.8-2.3,1.5-1.5,3.1c-2-3-7.1,1.7-8.4,4.4c0.1-1.4-2.4,0.2-2.4-1.6c-2.3,1.5-4.2,3.5-2.8,4.8c-3.4-0.5-5.2,1.6-6.9,3.4
		c-1.7,1.8-3.3,3.3-5.9,1.5c-6.7,5.7-13.5,10.2-20.4,14c-0.6-1.7,1.4-2.6,3.3-3.6c1.9-0.9,3.6-1.9,2.7-3.5
		c-6.1,4.3-8.9,8.9-16.2,10.7c-2,0.2,0.5-1.9,0.8-2.7c-6.4,4.1-13.6,4.7-19.3,8.7c-0.1-0.3,0.5-0.9,1-1.4c-1.2,0.5-3.1,0.5-2.4,2
		l1.1-0.8c2.8,1.6-3.4,6.4-3.3,7.6c0.7-5.1-6.7,0.9-5.1-5.9c-0.7,0.6-1.5,1.6-1,2.6c-1.3,0.1-1.9-0.4-1-2c-4.2,2.2-2.1,3.4-6.2,4.6
		c-0.2-0.8,0.5-1.3,0.7-2.3c-1.6,2.1-3.3,4.2-7,4.6c0.1-0.5-0.5-1,0.5-1.3c-5.9,1.9-9.1,6.8-16.1,7.1c1.1-3.8-2.5-0.5-3.6-3.3
		l-3.3,1.8l1.8,1c-3.1,0.7-5.4,3.5-8.3,3.2l2.1-1.8l-5.7,1.9l3.6,0.3c-2.8,2.2,1.2,3.6-3.2,3.8c0.8-0.5-3.2,0.7-5.2-0.7c0,0,0,0,0,0
		c-1.4,1.3-2.8,2.6-5.2,2.4c-0.8-0.8-0.2-3.3-0.7-3.9c-1,2.8-7.2,2.2-8.7,5.2c0.5-0.7,0.2-2.3,0-2.6L167,418
		c-1.6-0.4-1.9-0.6-1.9-1.9c-4.5,0.5,2.1,3.5-3.4,2.9c0.4-0.2,0.1-0.5,0.9-1c-0.7,0-1.3,0.1-2,0.2c-0.4,0.1-0.9,0.1-1.3,0.3
		c-0.9,0.2-1.7,0.5-2.6,0.9c-1.8,0.6-3.9,1.3-5.3,1c1.6-3.4,3.2-1.3,3.9-4c-0.4,0.1-0.9,0.3-1.5,0.6l-0.9,0.4l-0.5,0.2
		c-0.1,0.1-0.1,0-0.1,0l-0.1-0.1c-0.4-0.5-0.8-1.2-1.1-2c-0.4-0.8-0.7-1.9-0.9-3c-0.1-0.6-0.2-1.2-0.2-1.8c0-0.3,0-0.6,0-1
		c0-0.4,0.1-0.9,0.1-1.3l-0.3,1.3c-4.2-1,2.1-5.1,0.1-8.6c0.3,0.9,2.4,1.1,1.9,0.9c0.7-4.7-1-9.7-2.4-16.9l1.1,0.9
		c1-2.8,0.6-7.4,1.1-10.4c-1.1-0.9-0.9-2.6-2.5-1.6c6.2-9.3-3.3-17.7,1.8-26c0,1,0.9,2.4,1,1.6l-1-7c-1.9,0.6-1.1,0.9-2.6,2.4
		c-1.1-0.9-1.9-2.9-1.9-4.6c1.2,3.2,3,0,4-1.4c-0.6,0.2-1.2-0.2-1.8-0.1c3.3-3.7-3.7-0.6-1.5-5.6l1,0.3c-0.5-1.9-1.8-3.6-1.5-5.6
		c2.1-0.8,1,2,2.8,2.1c-0.1-2.8-4.1-5.6-1.9-8.2c0.6,1.2,0.6,2.9,1.2,4.1c2.5-2.8,1.9-3.1,2.3-5.2l-0.1,0.2l1.1-4.8l-0.7,1.2
		c-5.6-3.5-1-7.2-4.7-12c3.5,4.6,2,0.8,4.4,1.1c0.7-1.2,1.4-3.1,2.1-2.5c-2-2.3,1.5-3.8-1.3-7c0.8-0.1,0.1-2.4,2-1.9
		c-0.6-2.9-1.4,0.7-2.3,0.5c-2.7-4.5,3.2-10.7-0.4-17.2c-1.5-5.6-4.1-6.7-5.4-11.9c1.2-1.8,2.8,1.4,2.8,1.4c1.1-2.8,0.9-5,0-7.7
		c0.7,0.5,1.3,0,2.1-0.8c-0.2-2.1-2.8-1.4-1.7-4.3c0.9,0.5,2.3,1.1,3.1,2.2c-0.7-2.5-2.2-5-2.9-7.6c1.4-0.7,2.1,1.6,2.9,2.5
		c-0.6-2.9-1.2-7.6-3.4-8.5l-0.8,1.9c-0.1-1.1,1.9-0.6,2.2,0.2c1.7,2.5-0.7,3.6-1.5,3.8l-0.5-1.9c-4.6,1.9,0.7,7.5,0.5,11.3
		l-3.3-1.6l2.8,3.9c-0.9,0.8-2.7,1.4-3.2-0.5c-1.6,2.7,1.2,2.4-0.6,4.7c-0.3,0.3-0.4,0.1-0.6-0.1l1,2.6c-0.7-0.5-2.4,0.4-1.9-1.2
		c-1.9,4.7,2.5,7.6,0,9.4l-0.2-0.4c1.1,6.6,2.4,0.6,5.3,5.5l-6,3.3l2.4,0.6c-0.1,0.7-0.3,2-1.2,1.8c1.7,2.5,1.1-0.4,2.6,1
		c-2.2,3.3,1,9-2.9,9.7c1.9,1.2,1.4-3.1,2.7,0.4c-4.2,1,0.7,4-1.2,7c-2.2-0.9-1-3.7-2.9-0.8c3.6,1.8-0.8,5.8-0.1,8.3
		c2.9,0.1,1.2,5.5,2.2,9.7c-1-0.3-1.6,7.9-2.6,11.8l-0.5-0.1c2.9,0.8,2.4,4.8,3,7.7c-1.8-0.1-2.4-0.6-3.2-2.2l0,2.8
		c0.9,0.6,1.4,1.5,1.8,3.3l-2.2-0.7c0.1,3.7,2.6,7.4,1.1,12.1c2.1,0.3,5.7-3.8,7.1,1.2c-1.1,0.2-3,0.4-3.5-0.9
		c0.1,0.4,0.9,1.5,0.4,2.4l-1.9-2c-0.8,2.2,1.6,1.1,1.4,2.9c-1.6,0-1.1,1.3-2.4,1c-0.1-0.4,0.6-1.5,0-2.2c-0.3,1.9-1.2,4.3-2.4,5.1
		c0.9-0.2,2.1,0,2.3,1.4c0.1,3.7-1.9,1.3-2.7,3.4c1.1,0.9,0,3.2,2.3,3.3c0,1.1-1.1,1.3-1.8,1.7c1,1.9,0.3,8.9,2.8,6.8l0.2-0.5
		c0.1,0.1,0.1,0.2,0.1,0.3c0,0,0,0,0,0v0c2.4,6.2-1.3,13-0.3,19.2l-0.8,0c0.4,1.9,0.6,3.9,0.8,5.8c0.1,1,0.3,1.9,0.5,2.8
		c0.1,0.4,0.2,0.8,0.4,1.2c0.1,0.5,0.3,0.9,0.6,1.2c0,0.6-0.4,1.4-0.8,2.1s-1.1,1.1-1.5,1c0.3,1.8,0.7,2.7,0.8,3.8
		c0.1,1.2,0,2.5-0.6,5.7c-0.7-1.3-1-0.8-1.1-0.6c-0.1,0.2,0,0.1,0.1-2.6c-0.3,2.7-0.8,4.7-0.9,6.5c-0.1,0.9,0,1.8,0.2,2.6
		c0.1,0.4,0.2,0.8,0.4,1.2c0.1,0.2,0.2,0.4,0.3,0.6c0,0,0,0.1,0.1,0l0.2-0.1l0.3-0.1c0.2-0.1,0.4-0.2,0.7-0.3
		c-1.9,1.3-1.6,1.9-0.2,2c1.4,0.1,3.6-0.3,5.1-0.8c-1-0.3-1.9-0.7-2.7-1c2.9-0.8,5.1-0.9,7.5-1.2c-0.8,1-1.6,2.1-2.5,3.1
		c2.6,0.4,5.7-0.1,8.6-0.9c1.4-0.4,2.8-0.9,4.1-1.4l0.9-0.4l0.6-0.3c0.4-0.2,0.7-0.4,1.1-0.6c2.9-1.7,5.7-3.1,9-1
		c1.6-2.2-4.3-0.5-3-3c3.5-0.3,7.8,2.6,8.9,2.4c5,0.4,3.5-4.7,8.6-4.9c-0.8-0.8-2-3.1,1.4-4.8c3.4-0.4,5.1,2.9,3.1,4.1
		c-0.8,0.3-1.3,0.1-1.3-0.2c-1,0.6-2.4,1.3-0.8,2l0.2-1c1.9,0.6,6.6-0.6,5.8,1.1c2.4-1.5,0.7-1.8-1.3-1.8c4.7,0.3,6.8-1.6,11.5-1.9
		c-0.8-0.3-1.8-1.2-1.1-1.4c6.8-0.5,2.4-2.5,6.7-4c2.9,0.7,0,3.6,4.1,1.2c3,0.2,1.2,2.3,0.4,3.3c3.6-2.9,7.9-1,10.4-1.3l-1.9,1.4
		c1.2-0.8,2.2-1.1,3.3-1.4l-1.8-1.5c1.4,0,2.4-0.4,2.6,0.4c0.9-1.6-1.9-2.7,0.2-5.1c1.9,0.4,4.8-2.5,6.1-0.3c-5.5,0.8,1.3,2.2-3,4
		c0.8-0.5,1.8-0.9,3.2-0.9c0.3,0.2,0,0.5-0.3,0.8c5.7,0.6,1.5-3.4,6.7-5c-0.2,1.6,2,2.2,2.8,1.6c-2.1,0.7-1.7-1.9-0.2-3.6
		c3.7,0,3.3-2,5.1-2.4l-2.1,0.2c0.2-1.6,1.9-1.9,4.1-3.1c0.6,1-1.8,1.4-0.9,1.6c1.7-3.2,6.6,0.4,9.6-2.4c2,0.3,1.1,2.5,2.8,2.5
		c3.3-3.2,5,0.2,8.6-2.9c-1.9-1.3-1.9-0.8,0.3-3.7c-2.1,1.3-4.2,2.6-6.3,3.9c1.1-1.4,2.2-2.9,3.4-4.3c-2,0.8-3.9,2.8-5.2,3
		c1.5-2.2,1.5-1.7-0.1-2.8c1.9,0.8,3.1-0.1,4.4-1.2c1.2-1,2.5-2.2,4.4-2l1.7,4.4c5.7,0,7.7-5.8,14.4-7.6l-2.3,0.2
		c0-2.1,3.7-2,5.4-3.6c0.5,1.5,2,1.4,3.3,1.9c-0.6-1,4.6-2.2,3.7-5.3c1.2,0.2,2.4,0.3,3.7,0.4c2.7-0.9,3.5-2.7,4.3-4.5
		c0.8-1.8,1.5-3.6,3.9-4.7c-0.5,2.3,2.2,2-0.3,4.9c1.6-0.9,3.1-1.5,2.5-2.4c1.4,0.3,3.1-4.4,5.3-4.1c0.2-1-0.5-2.5,1.3-3.5
		c0.4,0.1,0.4,0.6,0.4,0.6c-0.4-0.6,2-2.7-0.5-3.1c3.6,0.5,6.7-1.9,9.5-4.4c0.7-0.6,1.4-1.2,2.1-1.9c0.7-0.6,1.4-1.2,2.1-1.7
		c1.4-1,2.8-1.7,4.4-1.8c0.3-0.4,0.6-0.8,1-1.2c0.3-0.4,0.6-0.9,1-1.3c0.6-0.9,1.3-1.7,2-2.6c1.3-1.8,2.5-3.5,3.6-4.9
		c0.2,0.5,0.6,0.5,0,0.9c1.1-0.8,1.5-1.5,1.6-2.2c0.1-0.7-0.1-1.4-0.3-2c-0.2-0.7-0.4-1.4-0.3-2.1c0.2-0.7,0.6-1.5,1.7-2.5
		c3.7-1.1-0.4,3.3,1.3,2.3c2.4,1.1,3.3-0.6,3.9-2.7c0.3-1.1,0.7-2.3,1.1-3.4c0.5-1.1,1.1-2.1,2.2-2.7l-0.1,1
		c1.5-1.1,1.7-3.2,1.8-5.4c0-1.2,0-2.4,0-3.6c0.1-1.2,0.1-2.5,0.5-3.7c0,0,0.4,0.3,0.8,0.2c-1.9-4-2.3-10.2-3.6-14.7
		c2.2,1.2,1.2,2,3.2,1c-0.2-1.1-1.1-0.8-1.9-0.9c-0.9,0-1.8-0.3-2.4-2.3c0.5-0.7,0.8-1.9,1.2-3c0.4-1.1,1-2.1,2-2.6
		c0.4,1.3,0.7,2.7,1,4c0.6-0.6,0.8-1.3,0.9-2c0-0.7-0.2-1.3-0.6-2c-0.6-1.3-1.6-2.4-1.7-3.5l1.3-0.1c-1.2-3.1-2.7-4.2-4.1-5.4
		c-1.4-1.2-2.8-2.4-4.3-5.2l-0.5,1c-2.2-0.7-2.2-1.5-2.1-2.4c0.1-0.9,0.2-1.9-1.8-2.6c0.7-0.9,1.3-1.8,1.9-2.7
		c-1-0.8-2.9-1.9-4.9-3.2c-2-1.2-4.2-2.5-5.8-3.8c1.6,0,3.5,0.7,5.3,1.6c1.8,0.9,3.6,2,5.1,2.9c-0.7-1-2-2.5-3.5-3.7s-2.9-2.2-3.9-2
		c0.9,0.5,2.2,0.8,2.5,1.8c-3.8-0.5-7.1-2.1-10.3-5.1c2.4-2,0.4-4.3-2.1-6.6c-2.5-2.4-5.7-4.7-5.7-7.6c-3.9-1.4-7.1-3.8-10.3-6.3
		c-3.2-2.6-6.6-5.3-10.7-7.4c0.6,5.7-2.4-1.2-4.2,3.4c-2-0.7-2.7-1.1-2.7-1.5c-1.4-1.8-2.9-3.7-4.4-5.5c-0.7-1.9,2.3-0.1,2.6-1.1
		c-4-2.4-0.8-2.7-3.1-5.3c-0.2,1.9-2.5,1.6-4.7-0.2l2.4,3.6c-7-0.4-3.4-6.1-10.4-6.4l2.5-0.6c-3.4-0.6-11.4-4.9-15.9-2.5
		c-0.3-0.7-0.6-2.3,0.9-2.1c-7.2-3.6-18-2.5-22.9-6.9l1-0.9c-1.5-0.2-3.2,1.2-4.5-0.5c0.3-0.4,1-0.9,0.3-1.2c-0.9,0.1-4.4,0.7-6-0.6
		l2-0.7c-6.8-4-12.2-0.8-18.6-2.1c1.1-3.3-4.2-6.3-6.9-7.8l0.3-0.4c-8.3-3.2-15.3-2-23.4-3.3c-1.8-2.6-5.7-4.4-10-6.1
		c-4.3-1.7-8.9-3.5-12-6c0.8,1.1-1.2,2.5-2.7,2.2c-1.4-1.4-5.5,0.1-3.8-2.7l0.5,0.3c0.1-1.7-0.6-2.7-1.6-3.5
		c-0.1-0.1-0.2-0.2-0.4-0.3l-0.3-0.2c-0.1,0-0.1-0.1-0.2-0.1c-0.1-0.1-0.2-0.1-0.3-0.2c-1.1,0.9-2.2,1.9-3.4,2.7
		c0.2-0.6,0.4-1.3,0.6-2c0.1-0.5,0.4-1,0.4-1.3c0-0.2,0.1-0.4,0-0.6l-0.1-1.5c-0.1-1.2-0.3-2.5-0.5-3.6c-0.7-4.7-1.4-9,1.5-11
		c-1-1.9-0.9-4.2-1.8-6.1l2.2,0.2c0.2-1.3,0.4-2.4,0.6-3.4c0.2-1,0.4-2,0.5-3c0.1-1,0.3-2.1,0.4-3.2c0.1-1.2,0.2-2.5,0.3-4.1
		l1.4,1.5c0.3-1.7-1.1-3-2.6-4.4c-1.4-1.3-2.9-2.7-2.6-4.4c1.2-0.1,2.3-0.2,3.5-0.2c0.4-1.5,0.8-2.9,1.4-4.3l1.9-4.1
		c0.7-1.3,1.1-2.7,1.5-4.2c0.4-1.4,0.5-2.9,0.4-4.6c0.4,0.3,1.2,0.8,1,1.8c0.3-0.6,0.9-1.4,1.4-2.4c0.3-0.5,0.6-0.9,0.9-1.4
		c0.3-0.5,0.6-0.9,0.8-1.4c0.5-0.9,0.8-1.8,0.7-2.6c-0.1-0.8-0.5-1.4-1.7-1.8c1.3,0.7,2.2-0.4,2.8-2.3c0.3-0.9,0.6-1.9,0.9-3
		c0.3-1,0.5-2.1,0.8-2.9l1.4,1.8c-0.2-1.9-0.5-3-0.4-4.1c0-0.5,0.1-1.1,0.4-1.7c0.3-0.6,0.6-1.2,1.2-2c0.9-0.4,1.8,0.7,0.6,1.2
		c1.5-0.6,1.5-1.4,1.6-2.3c0.2-0.8,0.4-1.7,2.2-2.4l-0.1,2c1.2-0.9,1.7-1.4,1.9-2.1c0.2-0.6,0.2-1.3,0.4-2.5
		c0.6-0.9,1.9-1.7,3.3-1.9c1.4-0.2,2.8,0,3.5,0.8c-0.2-1.3,0.5-3.6,2.5-3.8c0.6,0.6,0.1,1.3-0.1,1.6c1.4-0.2,2.4-0.6,3.2-1.2
		c0.4-0.3,0.9-0.6,1.2-0.8c0.4-0.3,0.8-0.6,1.1-0.8c1.5-1.1,2.8-2.2,4.9-1.5c0.3,0.7,0.6,1,0.9,1.1c-2,0.4-3.8,1.1-5,1.4
		c-1.2,0.4-2,0.6-1.9,0.4c0.4,1,1.4,1.3,2.1,1.8s1.1,1.2,0.4,2.9c0.4-0.6,1-1.3,1.6-2c0.6-0.7,1.2-1.6,2-2.2
		c1.5-1.3,3.3-2.4,4.9-2.3c0.2,0.2,0.4,0.3,0.6,0.6l-0.3,0.3c0.8,0.1,1.4-0.2,1.9-0.7c1.1,0.2,1.8,0.3,2.7,0.2
		c0.6,1.5,3.9,0.5,5.5,0.4c-0.4-2.2,1.9-2.1-0.3-3.7c0.3,0.1-0.3,0.3-1.4,0.5c-0.2,0.1-0.5,0.2-0.7,0.3c0-0.1,0.1-0.1,0.1-0.2
		c-1.1,0.2-2.6,0.3-4.1,0.7c0.6-0.7,1.2-1.3,1.9-1.7s1.6-0.3,2.6,0.2c0.7-1.5,1.6-3.1,2.1-3.9c0.7,0.7,1.4,1.3,2.3,1.9
		c0.8,0.6,1.7,1.2,2.4,1.7c1.6,1,2.8,1.9,3.2,2.8c1.3-0.4,2.7-0.5,4.1-0.7s2.9-0.3,4.3-0.5c2.8-0.3,5.4-0.9,7.4-2.8
		c1.6-0.2,1.5,1.5,1.9,2.3c-0.9,0.2-1.9,0-2.4,0.5c1.5-0.3,3.6,0.1,5.6,0.1c1,0,1.9,0,2.6-0.1c0.8-0.2,1.4-0.5,1.8-1.2
		c3.2,2.3-2.8,2,2.2,3l-0.9,0.7c1,0.9,1.9,1.7,2.9,2.2c1,0.5,2,0.8,3.1,1.1c2,0.5,4.2,0.6,6.5,0.8c1.1,0.2,2.2,0.4,3.3,0.7
		c1.1,0.3,2.3,0.6,3.2,1.2c1,0.6,2,1.4,2.9,2.3c0.2,0.2,0.4,0.5,0.6,0.8c0.2,0.3,0.4,0.6,0.5,0.9c0.4,0.6,0.7,1.3,1,2
		c-0.3-0.8-0.5-1.2-0.3-1.7c4.1,5.1,9,9.4,13.2,14.6c4.3,5.1,7.9,11,8.7,17.7c0.4,1.8,1,2.6,1.9,3.2c0.8,0.6,1.9,0.8,3,1.6l-1.9,1.6
		c1.3,0.9,2.6,1.7,4,2.6c1,1.1,1.3,2.4,1.3,3.7c0,1.3-0.2,2.7-0.5,4.1c-0.4,2.8-0.7,5.6,2,8.5l1.4-1.3c0.1,1.3,0.9,3.1,1.2,4.7
		c0.4,1.6,0.5,2.9-0.5,2.8c0.3,0.2,1.8,0.5,1.2,1.6l-1.2,0.3c1.1,1.9,2.1,3.8,3.2,5.7c-0.1,2.4-1.4,2.4-2.5,2.7s-2.1,0.8-1.9,4.1
		c0.8,2.4,4.3,6.8,5,5.8c0-1,0.6-2.7,1.9-2.8c0.3,0.8,0.6,1.6,0.8,2.4c1.9,0.1,3.8,0.6,5.5,0.4c1.7-0.4,3.3-1.6,4.3-4.9
		c-0.9-1.4-1.8-2.8-2.8-4.1l1.6-1.6c0.2,1.2,0.4,2.4,0.5,3.7c1.5-2.3-0.2-3.5-1.4-4.8c0.9-0.5,1.5-1.2,1.7-2.1
		c-1.4-1.2-2.8-2.5-4.2-3.6c1.3-0.8,3.2,1.4,3.5-1.6c-2-1.7-2.9,2.5-4.5-0.6c1.3-2.3,2.8-2,0.8-4.1c0.9-0.5,1.6-0.2,2.2,0.7
		c-0.8-1-1.2-2.4-1.7-3.6c-0.5-1.2-1.1-2.3-2.2-2.6c1.5-2.6-2.4-6.9,1-7.7c-1-0.4-3.7-2.9-4.5-4.7c2.6,1.1,2-0.7,1.4-2.9
		c-0.6-2.2-1.5-4.6,0.9-5c-1.1-0.3-2-1-2.8-1.9c-0.8-0.9-1.4-2.1-2.1-3.3c-0.6-1.2-1.3-2.5-2-3.7c-0.8-1.2-1.5-2.3-2.6-3.2
		c0.4,0.1,1.2,0.3,1.2,0.8c-1-2.6-0.4-3.8-0.6-5.8c-2.9,1.2-5.7-2.2-8.5-3.1c0.4-2.2,1.4-2.3,2.6-2.1c1.2,0.2,2.5,0.7,3.5-0.5
		c-2,1.4-5.5-3.7-6.5-1.5c0.1-3.2-0.5-2.4,0.8-5c-3.4,2-2-1.6-5.3-1.8c-1-4.1,2.2-3.1-1.5-5.6c-0.2-1.2,0.5-1.3,1.4-1.1
		C294.3,92.7,295.2,93.2,295.2,93.2z M201.1,71.5C201.1,71.5,201.1,71.4,201.1,71.5c0.8-0.3,1.5-0.4,1.9-0.6
		C202.6,71,202.1,71.1,201.1,71.5z M193.2,73.7c0.5-0.1,1-0.3,1.6-0.5c0.6-0.2,1.2-0.3,1.8-0.5c0.5,0.7,0.4,1.5-0.4,1.7
		c0.1-0.3-0.3-0.4-0.9-0.6C194.7,73.8,193.9,73.8,193.2,73.7z M212.1,85.4c-1.1,0.4-1.5,0.1-1.7-0.4c0.5-0.2,1.1-0.3,1.9-0.5
		c0-0.1,0.1-0.2,0.1-0.3C212.3,84.7,212.2,85.1,212.1,85.4z"/>
	<path class="st0" d="M213.7,82.3c0.2-0.1,0.2-0.2,0.4-0.2c-0.2-0.2-0.5-0.3-0.7-0.4c-0.1,0.2-0.2,0.5-0.3,0.7
		C213.3,82.3,213.5,82.3,213.7,82.3z"/>
	<path class="st0" d="M142.8,380.9l-0.1,0.2c0.1-0.1,0.2-0.3,0.3-0.3C142.9,380.9,142.8,380.9,142.8,380.9z"/>
	<polygon class="st0" points="135.9,164.5 136.5,164.5 136,163.8 	"/>
	<path class="st0" d="M150.5,338.8c0.2-0.1,0.4-0.2,0.6-0.5C150.9,338.2,150.7,338.5,150.5,338.8z"/>
	<path class="st0" d="M151,320.6l0.8-2.6C151.3,319.1,151.1,319.9,151,320.6z"/>
	<path class="st0" d="M152.1,306.5c-0.4-0.2-0.7-0.2-1-0.3c0,0,0,0,0,0L152.1,306.5z"/>
	<path class="st0" d="M244.4,392.1c0.2-0.1,0.3-0.2,0.5-0.3C245.9,391,245.1,391.4,244.4,392.1z"/>
	<path class="st0" d="M182.6,414.5c0.6-0.5,1.2-1.1,1.8-1.5C183.2,413.1,182.3,413.2,182.6,414.5z"/>
	<path class="st0" d="M308.1,360C308.1,360,308.1,360,308.1,360c0.1,0,0.2-0.1,0.4-0.2L308.1,360z"/>
	<path class="st0" d="M187.4,412.4c-1.2-0.2-2.2,0.1-3,0.6C185.4,413,186.5,412.9,187.4,412.4z"/>
	<path class="st0" d="M153.1,245.9l0.1-0.7c-0.1,0-0.3,0-0.4-0.1L153.1,245.9z"/>
	<path class="st0" d="M152.8,245.1l-0.3-0.8C152.6,244.7,152.6,245,152.8,245.1z"/>
	<path class="st0" d="M152,242.8l0.6,1.6C152.6,243.8,152.6,243.1,152,242.8z"/>
	<path class="st0" d="M152.1,264.4l0.8,0.2C152.7,264.5,152.4,264.4,152.1,264.4z"/>
	<path class="st0" d="M152.3,270c0.2-1.3,1.7-3.4,1.2-5.2l-0.6-0.2C154.1,265.5,150.9,268.8,152.3,270z"/>
	<path class="st0" d="M142.2,293.5l0.6-4.7c-0.9,0.8-2,1.9-2.2-0.2C138,294.5,142.6,287.4,142.2,293.5z"/>
	<path class="st0" d="M141,308.2c-0.4-2.5-1.3,0-1.8-0.1C140,309.7,140.2,310.1,141,308.2z"/>
	<path class="st0" d="M140.9,415.7c-0.7,0.1-1.4,0.2-2,0.3C139.2,418.9,139.7,415.7,140.9,415.7z"/>
	<path class="st0" d="M156.8,417.6c-0.2-0.4-0.4-0.8-0.5-1.2c-0.4,0.7-0.9,1.4-1.4,2.2C155.5,418.3,156.2,418,156.8,417.6z"/>
	<polygon class="st0" points="168.6,430.2 167.8,430.7 170.9,429.3 	"/>
	<path class="st0" d="M336.2,363.4l-2.1-1.5C333.4,363.2,335,365.6,336.2,363.4z"/>
	<path class="st0" d="M352.4,286.1c0.7-1.4,0.1-4-1.8-4.5C351.5,283.3,351.6,285.4,352.4,286.1z"/>
	<path class="st0" d="M156.2,180.8c0.3,0,0.6-0.1,0.9-0.1c-0.3,0-0.6-0.1-0.9-0.2C156.2,180.6,156.2,180.7,156.2,180.8z"/>
</g>
</svg>
