<?xml version="1.0" encoding="utf-8"?>
<!-- Generator: Adobe Illustrator 25.2.1, SVG Export Plug-In . SVG Version: 6.00 Build 0)  -->
<svg version="1.1" id="Layer_1" xmlns="http://www.w3.org/2000/svg" xmlns:xlink="http://www.w3.org/1999/xlink" x="0px" y="0px"
	 viewBox="0 0 500 500" style="enable-background:new 0 0 500 500;" xml:space="preserve">
<style type="text/css">
	.st0{fill:#202020;stroke:#000000;stroke-width:3;stroke-linejoin:round;stroke-miterlimit:10;}
	.st1{fill:#202020;stroke:#000000;stroke-linejoin:round;stroke-miterlimit:10;}
</style>
<g>
	<path class="st0" d="M260.6,255.5c-0.3,0.6,0.3,0.9,1.6-0.2l0.3-1.5L260.6,255.5z"/>
	<path class="st0" d="M270.8,250.3c1.3-1.6,2.5-3.7,0.9-3.7c-0.9,2-1.6,1.9-2.5,4.2c-1.3,1.1-2.5,1.5-2.5,1
		c-0.3,0.6-2.2,1.4-2.6,2.4c2.2-0.6,4.5-2.3,6.4-4.6C271.1,249.5,270.8,250.1,270.8,250.3z"/>
	<path class="st0" d="M382.7,131.2l-0.6,0.9C382.4,131.9,382.6,131.5,382.7,131.2z"/>
	<path class="st0" d="M358.4,40.6c0.7,0.4,1,0.6,1.1,0.5C358.9,40.7,358.4,40.4,358.4,40.6z"/>
	<path class="st0" d="M343.3,30.9c0.4,0.2,0.7,0.3,1,0.5C343.9,31.1,343.6,30.9,343.3,30.9z"/>
	<path class="st0" d="M382.7,131.2c0.5-0.8,1-1.6,1.4-2.4C383.9,128.5,383.4,130,382.7,131.2z"/>
	<path class="st0" d="M286.9,234.3c-0.4,0.4-0.7,0.8-1,1.1c0.3-0.3,0.7-0.6,1-1C287,234.4,286.9,234.3,286.9,234.3z"/>
	<path class="st0" d="M359.1,169.7l-0.5,0.7c-0.1,0.3-0.1,0.5-0.1,0.8L359.1,169.7z"/>
	<path class="st0" d="M336.3,195.9c0.6-0.5,0.1-1.3,0-1.8c0,0.6-0.3,1.1-0.7,1.6C335.7,195.8,335.9,195.9,336.3,195.9z"/>
	<path class="st0" d="M295.2,232.1l-0.7,0.7C294.7,232.6,295,232.3,295.2,232.1z"/>
	<path class="st0" d="M373.7,149.6c0.1,0,0.3,0,0.4-0.1C374.1,149.4,373.9,149.5,373.7,149.6z"/>
	<path class="st0" d="M70.9,422.9c0-0.1-0.1-0.1-0.1-0.1C70.7,423,70.7,423.1,70.9,422.9z"/>
	<path class="st0" d="M40.9,449.7l0.3-0.4c-0.1-0.2-0.2-0.3-0.3-0.4L40.9,449.7z"/>
	<path class="st0" d="M310.1,26.5c0.1,0,0.1,0,0.2,0C311.1,26.2,310.6,26.3,310.1,26.5z"/>
	<path class="st0" d="M260.6,192.5c1.6-0.5,0.6,0.4-0.2,1.2c-0.8,0.8-1.5,1.5,0.9,0.6C260.7,194.2,264.2,190.7,260.6,192.5z"/>
	<path class="st0" d="M287.7,233.8c0.3-0.3,0.7-0.6,1.1-0.9C288.3,233.3,287.9,233.5,287.7,233.8z"/>
	<path class="st0" d="M261.2,194.3L261.2,194.3c0.2-0.1,0.3-0.1,0.5-0.2C261.5,194.2,261.4,194.2,261.2,194.3z"/>
	<path class="st0" d="M271.2,74c0.2,0,0.3-0.1,0.5-0.2C271.6,73.8,271.4,73.8,271.2,74z"/>
	<path class="st0" d="M292.3,35l-1.3,0.6C291.5,35.4,291.9,35.2,292.3,35z"/>
	<path class="st0" d="M253.9,96.6c-0.2,0.9-0.4,1.2-0.3,2.4c0-0.1,0.1-0.2,0.1-0.4C253.7,98.2,253.6,97.6,253.9,96.6z"/>
	<path class="st0" d="M277,110.1c-0.2,0.1-0.4,0.2-0.6,0.3c-0.3,0.2-0.6,0.5-0.9,0.7C276,110.8,276.5,110.5,277,110.1z"/>
	<path class="st0" d="M123.4,350.5c-0.2,0.6-0.5,1-0.7,1.4C123.3,351.4,123.7,355.6,123.4,350.5z"/>
	<path class="st0" d="M287.3,234.6c0-0.3,0.1-0.5,0.4-0.9c-0.2,0.2-0.5,0.4-0.7,0.7C287,234.6,287.1,234.7,287.3,234.6z"/>
	<path class="st0" d="M260.8,98.5c-0.1,0.5-0.1,1.1,0,1.6c0,0.6,0.1,1.3,0.2,1.9c-0.1-0.5-0.1-1.1-0.2-1.8
		C260.7,99.7,260.7,99.1,260.8,98.5z"/>
	<path class="st0" d="M181.1,150.2l-0.3,1C181,150.9,181.1,150.5,181.1,150.2z"/>
	<path class="st0" d="M266.7,106.7c0.5,0.3,1.2,0.5,1.8,0.6c0.1-0.1,0.3-0.2,0.3-0.3C268.1,107,267.4,106.9,266.7,106.7z"/>
	<path class="st0" d="M122.7,351.8C122.7,351.8,122.7,351.8,122.7,351.8C122.7,351.8,122.7,351.8,122.7,351.8z"/>
	<path class="st0" d="M110,380.8c3-3.3,0.6-2.3,0.7-3.5c3.3-4.2,2.3-1.3,3.9-2.2c2-2.7,2.9-5.3,4.6-7.1c0.3,0,0.6-0.3,0.4,0.3
		c0.3-0.6,0.8-1.3,1.3-2c0.1-0.2,0.3-0.4,0.4-0.6c0.3-0.3,0.5-0.6,0.8-0.9c0.5-0.6,1.1-1.2,1.6-1.9c-0.1-0.7-0.1-1.3-0.2-2
		c-0.1-0.6-0.1-1.2-0.2-1.8c-0.1-0.8-0.2-1.6-0.2-2.4c-0.2-1.5-0.4-3-0.8-4.2c0.1-0.3,0.2-0.5,0.3-0.5c-0.6,0.7-1.1,0.8-1.6,0.7
		c-0.1-2-0.8-3.7-0.1-4.4c0,1.2,0.3,1.3,0.6,1.9l-0.4-2.1c1.1-1.9,0.4,2.8,1.2,2.8c-0.2-2-0.6-4.2-0.8-6.3c-0.2-2.1-0.4-4-0.2-5.6
		c1.1-0.6,0.3,7.3,1.3,3.1c-0.1,1.6-0.3,3.2-0.4,4.8c1.6-3.7-0.1,2.9,1.7-0.5c0.3-6.3-0.6-7,0-13.3c-0.5-1.4-0.9,0.4-1.4-1
		c-0.3-4.5,0.5-6.2,1.2-7.6c0.7-1.4,1.4-2.5,1-5.8c-0.3-0.9-0.7-1.5-1-2.5c-0.2-1-0.3-2.4,0.4-4.6l1,1.7c1-6-1.3-3.7,0.5-9.9
		c0.2,1.2-0.3,4.8,0,3.9c1.5-3.9-0.2-3,0.3-6.1l1.2-0.5c0.2-1.6,0.5-3.2,0.7-4.9c0.2-1.7,0.5-3.4,0.8-5.1c0.3-1.7,0.6-3.5,0.9-5.2
		c0.3-1.8,0.8-3.5,1.2-5.2c0.2,0.5,0.2,1.7,1,0.2c0.5-2.2,1-4.5,1.8-6.7c0.8-2.2,1.6-4.5,2.5-6.7c0.8-2.2,1.9-4.4,2.9-6.5
		c1-2.1,2-4.1,3-6l0.6-3.4c0.4-0.7,1-1.1,0.8-0.3c1.8-2.9-0.5-0.4-0.1-2c0.8-1.8,1.6-2,1.3-0.8c0.5-1.4,1.1-3.1,1.9-5
		c0.8-1.9,1.7-3.9,2.6-6c1.8-4.1,3.7-8.1,5.4-10.9l-0.3,1.3c2.4-4.5,0.5-6,3-10L157,218c4.5-10,7.5-21.8,11.4-29.2
		c-0.8-1.9,3.8-10.1,2.3-11.3c2.8-5.6,2.5-3.9,5.8-11.9c0.8-2.2,0-3.6,0.7-6.4l0.9,0.2l0.3-4l1.8-1.5l0.7-2.6c-0.4,1-1.2,2-1.4,1.7
		c1-4.1,4.3-9.2,4.8-9c1-3.1,2.2-6.1,3.5-9c0.2,0.4-0.4,1.8-0.8,3.1c0.7-2.5,1.1-2.5,1.4-2.6c0.3,0,0.6,0,1.4-2.2
		c-0.5,0.4-0.3-0.6-0.4-0.8c0.9-0.8,2-2.3,3.3-3.8c1.3-1.5,2.7-3,4-4.2l-0.1,0.9c2.4-1.9,5-3.2,8.1-3.6c0.8-0.1,1.6-0.1,2.4-0.1
		c0.8,0,1.5,0.1,2.2,0.3c1.4,0.3,2.7,0.9,3.8,1.9c-0.7-0.8-0.9-1.3-0.6-1.6c0.1-0.1,0.3-0.2,0.7-0.1c0.3,0,0.7,0.2,1.1,0.5
		c0,0.4-0.1,0.8-0.1,1.3c0.6,0.2,0.4-0.2,0.2-0.5c-0.2-0.3-0.2-0.6,1,0.1c0.8,1,0.8,1.6,0.5,1.7c-0.3,0.1-0.9-0.1-1.5-0.5
		c0.7,0.6,1.4,1.4,2,2.2c-0.2,0.3-0.7-0.2-1.1-0.2c0.6,0.3,1,1.6,1.4,3c0.3,1.4,0.6,2.9,1.4,3.8l-0.2,0.3c0.8,3.6,1.2,6.4,1.5,9.1
		c0.3,2.7,0.4,5.2,0.4,8.5c0.9,0.1,0.6,2.7,1.2,4.7c-0.6,4.9-1.8,10.2-2.6,16c-0.2,4.2,0.6,1.3,0.8,3.2c-0.8,0.2-1.8,6-1.8,2.9
		c-1.1,7-1.4,9-2.8,17.9c0.5-0.9,0.9-1.9,1.1-1.3c-0.2,1.6-1.2,3.6-1.5,3.2l0-0.4c-0.1,0.9-0.2,1.8-0.4,2.7
		c-0.1,0.5-0.2,0.9-0.3,1.4c-0.2,0.6-0.3,1.2-0.5,1.8c-0.8,2.9-1.8,6-2.9,9.3c0.1,0,0.1,0.1,0.2,0.1l0.3,0l0.5,0l1.1,0l2.1,0.1
		c1.4,0.1,2.9,0.1,4.4,0.2c1.3,0,2.7,0,4,0c0.9,0,1.8,0,2.7,0c3.6-0.1,6.8-0.6,9.5-1.7l-0.5,0.2c3-0.9,5.8-2.1,8.4-3.3
		c1.9-0.6,1.4-0.3,0.8,0.2c-0.6,0.4-1.4,0.9,0.1,0.7c2.1-1.2,4-2.1,5.8-2.9c1.8-0.8,3.4-1.6,5-2.3c3.2-1.5,6.1-2.9,9.2-5.3
		c1.6-0.2,3.5-1.1,5.6-2.3c2.1-1.3,4.3-2.8,6.5-4.6c4.4-3.5,8.6-7.5,12.1-9.8L287,182c1.1-1.9,2-1.6,3.2-2.6c-0.5-0.1-2,1.3-1.3,0.1
		c1.5-1.6,2.9-3.4,4.4-5.2c1.4-1.8,2.8-3.7,4.1-5.6c2.6-3.8,5-7.7,7.2-11.7c4.4-8.1,8.1-16.7,10.2-25.9c0.4-1.7,0.4-2.8,0.3-3.6
		c-0.1-0.8-0.4-1.4-0.6-2.1c-0.5-1.3-0.6-2.6,0.1-6.9c0.3,0.8,0.7,1.7,1,2.5c-0.1-3.5-0.4-7.1-1-10.7c-0.6-3.6-1.6-7.2-3.2-10.6
		c-1.6-3.4-3.8-6.6-6.6-9.1l-1-0.9l-1.1-0.8l-1.1-0.8c-0.4-0.3-0.9-0.5-1.3-0.8c-1.8-1-3.9-1.7-6.1-1.8c0.5,0,0.8-0.1,1.2-0.2
		c0.4-0.1,0.8,0,1.6,0.2c-0.8-0.5-2.1-0.9-3.6-1c-0.7-0.1-1.5-0.1-2.3,0c-0.8,0.1-1.5,0.3-2.2,0.4c-2.9,0.8-4.7,2.6-4.5,2.8
		c-1.1,0.7-1.3,0.7-1.4,0.6c-0.1-0.1-0.2-0.4-0.9,0.1c-1.6,1-3,3.1-3.8,5.4c-0.1,0.3-0.2,0.6-0.2,0.9c-0.1,0.3-0.2,0.6-0.2,0.7
		c0,0.2-0.1,0.4-0.2,0.7c-0.2,0.5-0.4,1-0.8,1.4c-0.2,0.2,0.1-1,0.2-1.4c0,0.4-0.3,1.1-0.6,2.3c-0.1,0.2-0.1,0.4-0.2,0.6
		c0,0.1-0.1,0.3-0.1,0.4c-0.1,0.3-0.2,0.6-0.3,0.8c-0.4,1.1-0.9,1.9-0.1,1.6c-1.1,1.4-2.4,3.1-3.5,4c-1.2,1-2.5,1.6-3.8,1.5
		c-0.8,0.6-2.4,0.5-3.7,0c-0.6-0.2-1.2-0.4-1.6-0.5c-0.4-0.1-0.7-0.1-1,0.1c0.2-0.3,0.1-0.6,0-1c-0.2-0.4-0.5-0.9-0.8-1.6
		c-0.3-0.7-0.6-1.7-0.9-2.7c-0.3-1-0.5-1.8-0.6-2.4c0.2,0.4,0.3-0.1,0.5-0.6c0.2-0.4,0.4-0.8,0.6-0.4c0.1-1.1,0.4-2.1,0.6-2.9
		c0.2-0.8,0.3-1.3-0.2-1.3c1-0.8,1.9-1.6,2.9-2.6c1-1,2-2,3-2.9c2.1-2,3.9-3.8,6.1-4.4c1-1.1,1.9-2.2,2.7-3.3
		c0.4-0.6,0.8-1.2,1.2-1.8l0.3-0.5l0.3-0.6c0.2-0.4,0.4-0.9,0.6-1.3c1.3-3.6,0.6-7.4-1.4-10.2c-0.5-0.7-1-1.3-1.6-1.9l-1.4-1.2
		l-1.4-1.2c-0.3-0.2-0.3-0.3-0.5-0.4l-0.3-0.2l-0.6-0.5l-0.3-0.3l-0.2-0.1c0,0-0.2-0.1-0.1-0.1c0.2-0.4,0.5-0.9,0.8-1.3
		c0.3,0.2,0.3,0.5,0.2,0.8c0,0.1-0.1,0.3-0.2,0.5l0,0.1c0,0,0,0,0.1,0.1l0.1,0.1l0.2,0.2c0.3,0.3,0.6,0.5,1,0.7
		c0.7,0.5,1.3,0.8,1.5,0.4c-0.2-0.2-0.4-0.4-0.7-0.5l-0.3-0.3L273,61l0,0c-0.1,0-0.2-0.1-0.3-0.1c-0.2-0.1-0.5-0.2-0.8-0.4
		c-0.1,0-0.1-0.1-0.1-0.1l0-0.2c0-0.1,0-0.2,0.1-0.3c0.1-0.3,0.2-0.5,0.4-0.9c1.9-2.7,4-5.3,7.2-8c0.9-0.6,0.8-0.3,0.4,0.2
		c-0.4,0.6-1,1.4-1.2,1.7c2.8-3.1,6-5.7,9.2-8c3.2-2.3,6.4-4.2,9.6-6.3c0,0.1-0.6,0.6-1.2,1.1c1.2-0.8,3.1-1.3,2.7-1.8l-1.2,0.8
		c-1.3,0.1-0.2-1,1.3-2.2c1.4-1.2,3.4-2.3,3.4-2.6c-0.4,0.7-0.2,0.9,0.4,0.8c0.5-0.1,1.4-0.3,2.2-0.4c1.7-0.3,3.1-0.6,1.6,1.2
		c0.4-0.2,0.9-0.5,1.2-0.7c0.3-0.3,0.5-0.5,0.4-0.7c1.4-0.2,1.9-0.1,0.6,0.7c2.4-0.8,3.2-1.2,3.9-1.5c0.7-0.3,1.4-0.7,3.8-0.9
		c0,0.2-0.2,0.3-0.5,0.4c-0.3,0.2-0.6,0.3-0.8,0.6c0.3-0.1,0.6-0.2,0.9-0.4c0.3-0.1,0.6-0.2,0.9-0.3c0.6-0.2,1.2-0.4,1.9-0.5
		c1.4-0.4,3-0.3,5-0.2c-0.2,0.2,0.2,0.4-1,0.4c1.7-0.1,3.3,0.1,4.8,0.1c1.6-0.1,3,0.2,4.6,0.3c0.8,0.1,1.5,0.1,2.3,0.3
		c0.8,0.2,1.5,0.3,2.3,0.5c0.8,0.2,1.6,0.4,2.5,0.7c0.8,0.3,1.7,0.7,2.5,1.1c-1.3,0.2-0.7,0.6,0.1,1c0.4,0.2,0.9,0.5,1.3,0.7
		c0.4,0.3,0.7,0.6,0.6,0.9l3.8,1.5l-1.2-1.2c0.8,0.4,1.6,0.7,2.4,1.1c0.8,0.4,1.5,0.7,2.3,1.1c1.5,0.7,2.9,1.4,4.1,2.5l-1.2-0.6
		l-1.3-0.5c1,0.5,1.9,1.2,2.9,1.8l2.8,1.9l-2.9-2.6c3.4,1.7,0.5-1.5,4.3,1.7c-0.4-0.2,0.3,0.3,1.3,1.2c0.9,0.9,2.1,2.1,2.6,2.9l0,0
		c1.7,0.8,3.3,1.9,5.1,4c0.2,0.8-1.3,0.6-1.2,1.1c0.5,0.1,1.1,0.6,1.9,1.1c0.4,0.3,0.8,0.6,1.1,1c0.4,0.4,0.8,0.8,1.2,1.2
		c1.6,1.6,3.2,3.2,4.3,3.7c-0.7-0.4-1.2,0-1.1,0.3l1.6,0.6c0.9,1.5,0.9,1.7,0.4,1.8c1.5,2,1.6,1.4,1.6,1c0-0.2,0.1-0.4,0.3-0.2
		c0.1,0.1,0.3,0.3,0.5,0.6c0.2,0.3,0.5,0.8,0.9,1.5c-0.3-0.3-0.3-0.1-0.9-0.8c1.6,2.5,3.3,4.9,4.6,7.4c0.3,0.6,0.7,1.2,1,1.9
		c0.3,0.6,0.6,1.3,0.8,1.9c0.3,0.6,0.5,1.3,0.7,1.9c0.2,0.7,0.4,1.3,0.5,2c-0.3,0.9-0.8-0.2-1.1-1.3c-0.4-1.1-0.9-2.1-1-1.1
		c1.4,3.6,2.7,7.4,3.4,11.4c0.7,4,0.8,8.1,0.3,11.9c0.1-0.5,0.2-0.9,0.3-1.4c0.8,0.6,0.4,2-0.1,3.8c-0.2,0.9-0.7,1.8-0.9,2.8
		c-0.3,1-0.5,2-0.5,3c0.1-1-0.6-1.4-0.5-1.1c-1.4,5.1-2.3,10.6-5.1,18.2l0-1.1c-1.5,2.8-3.7,7.4-5.5,10.4c-0.1,1.1-1.1,2.8,0,2
		c-3.6,4-6,8.4-8.4,12.7c-2.4,4.3-4.8,8.4-8.5,11.5c0.7-0.9,1.3-2.4,0.8-1.6c-1.5,2.2-3,4.4-4.6,6.6c1,0,1-0.5,2.5-1.5
		c-0.3,1.1-1.4,3.1-2.7,4.6c1.9-3.1-0.9-0.7-2.2,0.2c0.3-0.1,0.2,0.5,0.5,0.6c-3.7,2.4,0.7,1.5-3.7,5.3l-0.1-0.5
		c-1.2,1.8-2.2,3.6-3.8,5.3c-1.3,0.2,1.2-2,0.8-2.6c-2.1,2.5-3,5.9-5.7,7.5c0.8-1.2,2.1-2.6,2.8-3.8c-2.9,1.7-2.9,2.2-4.7,3.8
		l0.2-0.2c-1.3,1.2-2.7,2.5-4.1,3.7l1.2-0.8c-1.2,4.5-5.4,6.3-8.2,11.1c2.8-4.7,0.1-1.2-0.3-2.1c-1.2,0.8-2.9,2.1-2.6,1.5
		c-1.3,2.4-3.5,2.6-5.3,5.9c-0.3-0.1-2,1.9-2.1,0.9c-2.3,2.5,0.9-0.2,1,0.3c-3,4.4-9.7,7.4-14.3,13.4c-4.4,4.7-4.6,6.3-8.8,10.5
		c-1.9,0.9,0.5-1.9,0.5-1.9c-2.8,1.8-4.6,3.4-6.7,5.6c0.3-0.6-0.3-0.4-1.3,0c-1.8,1.6-0.6,1.9-3.3,3.6c0.2-0.6,0.4-1.5,1.1-2.5
		c-2.1,2.1-3.9,4.3-6.1,6.4c-1,0.1,0.9-1.8,1.5-2.7c-2.5,2.3-6.5,5.8-6.8,7.1l1.9-1.1c-0.9,0.8-0.9-0.2-0.3-0.9
		c1.9-2.3,3.4-2.4,3.8-2.2l-1.5,1.5c2.9,0.1,6.5-5.6,9.9-8.2l-0.5,2.2l2.7-3.7c0.9-0.3,1.9-0.2,0.4,1.3c2.8-1.5,1.8-2.1,4.3-3.3
		c0.3-0.1,0.2,0,0.1,0.2l2-2.3c-0.3,0.6,1,0.4-0.5,1.4c4.6-2.9,6-6.5,8.2-7.1l-0.3,0.4c5.3-5.3-0.1-1.2,3.4-5.8l4.4-0.8l-0.1-1.2
		c0.6-0.5,1.8-1.5,1.8-1c1.7-2.4-0.6,0,0.2-1.6c3.3-1.9,7.2-7.3,8.9-6.8c0.5-1.5-3,2.1-0.5-1.1c2,0.4,3.1-3.4,6.1-5.3
		c-0.1,1.3-2.8,3.3,0.2,1.4c0.4-2.5,4.9-4.5,6.7-6.8c-0.7-0.9,4-4.8,7-8.7c0.1,0.5,6.6-6.3,9.8-9.5l0.1,0.2
		c-0.3-1.4,2.8-4.8,4.8-7.6c0.5,0.5,0.3,1.2-0.6,2.8c0.7-0.8,1.3-1.6,2-2.5c0.2-0.8,0.6-1.7,1.8-3.4l0.2,1.2c2.6-3.4,4.4-7.4,8-11.6
		c-0.5-0.7-4.3,2.2-1.5-2.8c0.5,0.1,1.2,0.3,0.5,1.7c0.2-0.4,0.7-1.6,1.4-2.4c-0.2,0.8-0.4,1.6-0.7,2.3c1.7-1.9,0.2-1.4,1.4-3
		c0.5,0.4,1.2-1,1.4-0.5c-0.2,0.5-1.2,1.3-1.4,2.1c1.3-1.8,3.1-3.9,4-4.4c-0.4,0-0.7-0.5,0.1-1.9c2.2-3.6,1.4-0.8,3-2.8
		c0.1-0.6,0.6-1.4,0.9-2.1c0.3-0.7,0.6-1.4,0.2-1.7c0.6-1.1,1.1-1.1,1.6-1.4c0.4-1.1,1.5-3.4,2.4-5.2c0.8-1.8,1.2-3.2,0.2-2.3
		l-0.3,0.5c0-0.1,0.1-0.2,0.1-0.3c0,0,0,0,0,0l0,0c0.3-0.9,0.6-1.7,1-2.6c0.3-0.9,0.7-1.7,1-2.6c0.8-1.7,1.5-3.4,2.3-5.1
		c1.5-3.4,2.9-7,3.5-10.5l0.3,0.1c0.4-2.1,0.7-4.5,1-6.7c0.1-1.1,0.2-2.2,0.2-3.2c0-1-0.1-1.9-0.2-2.7c0-0.6,0.2-1.4,0.5-1.9
		c0.2-0.5,0.4-0.8,0.6-0.5c-0.2-3.3-0.5-3.7-0.5-8.5c0.5,1.6,0.6,1.3,0.6,1.2c0-0.1,0-0.1,0.1,2.2c0-2.2,0-3.5-0.1-4.9
		c-0.1-1.4-0.6-2.8-1.5-5c1.2,1.4,0.1-3.5-0.9-5.4c0.2,1,0.3,2.1,0.4,3.1c-0.2-0.6-0.4-1.1-0.5-1.6c-0.2-0.5-0.4-1-0.6-1.5
		c-0.4-1-0.7-2-1.1-2.9c0.5,0.2,1,0.4,1.4,0.6c-0.3-1.1-0.7-2.2-1.2-3.2c-0.2-0.5-0.4-1-0.7-1.5c-0.3-0.5-0.6-0.9-0.8-1.3
		c-0.6-0.9-1.1-1.7-1.8-2.5c-0.7-0.8-1.3-1.5-1.9-2.2c-0.6-0.7-1.3-1.4-1.9-2c-0.6-0.7-1.2-1.3-1.8-2c-1.2-1.3-2.2-2.6-2.9-4.2
		c-2.1-1.2,2.9,3.9,0.8,2.9c-1.3-1.5-2.4-3.3-3.3-4.8c-0.9-1.5-1.7-2.7-2.1-3.1c-3.6-4.3-4.8-2.4-9-6.4c0.2,0.4,0.2,0.9-0.2,1
		c-0.4,0.1-1.3-0.3-3.2-1.3c-3.1-2.4-3.1-4.2-0.9-2.9c0.8,0.5,1.1,0.9,1,1c1.1,0.7,2.6,1.5,1.6,0.3l-0.7,0c-0.7-0.7-2.2-1.9-3.4-2.9
		c-1.2-0.9-2.1-1.6-1.3-1.5c-2.9-1.3-1.5-0.2,0.4,1.2c-2.1-1.6-3.8-2.7-5.7-3.7c-0.9-0.5-1.9-0.9-2.9-1.4c-1-0.5-2.1-1.1-3.3-1.7
		c0.7,0.5,1.3,1.2,0.5,0.9c-3.6-1.7-4.5-1.9-5.1-1.8c-0.6,0.1-0.9,0.3-3.5-0.3c-1.4-0.7-1-1-1-1.2c0-0.2-0.3-0.4-3-0.7
		c-3.2-1-0.5-1.1,0.9-1.2c-1.3-0.1-2.5-0.3-3.7-0.4c-1.2-0.1-2.3-0.3-3.3-0.6c-1-0.3-2-0.4-2.9-0.5c-0.9-0.1-1.7-0.2-2.5-0.3
		l2.7-0.3c-1.6,0.2-3,0.1-4.3,0.2c0.5,0.2,1.1,0.4,1.6,0.7c-0.8-0.1-1.5-0.1-2.1-0.1c-0.5,0-0.9-0.1-0.9-0.2
		c-1.6,0.6,1.3,1.2-1.8,2.1c-2.1-0.2-6.1,1.3-7,0.6c1.6-0.3,2.4-0.4,2.7-0.6c0.3-0.1,0.2-0.3,0-0.4c-0.4-0.3-0.9-0.6,1.9-1.1
		c-1.1,0.3-2.4,0.4-3.9,0.7c-0.3-0.1,0.2-0.3,0.6-0.4c-6.4,0.7-2.6,1.7-8.8,3.7c0.6-0.8-1.8-0.4-2.7,0.1c2.5-1,1.5,0.4-0.5,1.7
		c-3.9,1.3-3.9,2.2-5.8,3.2c0.7-0.3,1.5-0.7,2.2-1c-0.2,0.4-0.8,0.9-1.6,1.4c-0.8,0.5-1.9,1.1-3,1.9c-0.2-0.1,0.3-0.5,0.7-0.8
		c0.4-0.3,0.8-0.5,0.3-0.4c-1.1,1.2-2.7,1.9-4.5,2.8c-0.9,0.4-1.8,0.9-2.7,1.4c-0.9,0.6-1.7,1.2-2.5,2c-1.8,1-0.8-0.7-2.4,0.2
		c-3.3,3.7-4.6,2.9-7.9,7c1.6-0.5,1.6-0.9-0.4,2.3c1.8-2.2,3.7-4.3,5.7-6.3c-0.6,0.7-1.1,1.5-1.6,2.2c-0.5,0.8-1.1,1.5-1.6,2.3
		c0.9-0.9,1.8-1.9,2.6-2.8c0.8-0.9,1.6-1.7,2.2-2.1c-1.5,2.2-1.4,1.8-0.1,1.5c-3.4,1.5-4.6,5.1-7.8,7.5l-1.3-1.3
		c-0.6,0.5-1.1,1-1.6,1.6c-0.2,0.2-0.7,0.8-1,1.2c-0.4,0.5-0.7,0.9-1.1,1.4c-0.7,0.9-1.3,1.8-1.9,2.8c-0.3,0.5-0.6,0.9-0.9,1.4
		c-0.2,0.1,0,0.2,0.1,0.3l0.3,0.3l0.7,0.6c0.9,0.8,1.8,1.5,2.7,2.3c0.8,0.7,1.7,1.4,2.5,2.1c0.6,0.5,1.2,1,1.9,1.6
		c0.2,0.1,0.3,0.3,0.5,0.4l0.3,0.3c0.2,0.2,0.3,0.5,0.5,0.8c-0.1-0.2-0.2-0.5-0.3-0.7c-0.1-0.3-0.2-0.4-0.5-0.8
		c0.1,0,0.4,0.1,0.5,0.2c0.1,0.1,0.3,0.2,0.4,0.3c0.3,0.3,0.5,0.7,0.8,1.1c0.4,0.9,0.6,2,0.6,2.9c-0.6-0.2-0.9,0.8-1.5,1.1
		c0.1,0,0.1,0.2,0,0.5c0,0.1-0.1,0.1-0.1,0.2c0,0.1-0.1,0.2-0.2,0.3c-0.2,0.3-0.3,0.5-0.5,0.8c-0.7,1.1-1.6,2.3-1.4,3
		c-0.9,0.6-1.9,1.1-2.9,1.6c-2.3,1.8-3.5,3.2-4.5,4.7c-0.5,0.7-1.1,1.5-1.8,2.4c-0.7,0.9-1.5,1.8-2.5,3.1c0.3-1,0-1-0.2-1.2
		c-0.1-0.1-0.1-0.3,0-0.6c0.2-0.4,0.5-1,1.2-1.8c-1.6,1.6-2.9,3.3-2.6,3.6c-0.5,0.4-1.3,2-1.7,3.7c-0.4,1.7-0.5,3.5-0.8,4.6
		c0.3,1,0.8,1.3,1.1,3.7c-0.1,0.3-0.3,0-0.3,0c0.1,0,0.4,0.9,0.7,1.5c0.3,0.6,0.6,1,0.7-0.1c-0.1,1.6,0.4,3.8,1.9,5.7
		c0.8,0.9,1.8,1.7,2.9,2.2c1.2,0.5,2.3,0.8,3.4,1c2.3,0.4,4.7,0.4,6.7-0.2c2.1-0.5,3.9-1.4,5.3-2c1-0.9,1.8-1.8,2.6-2.8
		c0.8-1,1.5-2.1,2.1-3.3c0.6-1.2,1.1-2.4,1.4-3.6c0.1-0.3,0.1-0.5,0.2-0.7c0.1-0.2,0.1-0.4,0.2-0.7c0.2-0.5,0.4-1,0.5-1.5
		c0.1,0.3,0.3,0.1,0,0.8c0.2-0.3,0.3-0.6,0.4-0.9c0.1-0.2,0.1-0.3,0.2-0.5c0-0.1,0.1-0.3,0.1-0.4c0.1-0.3,0.1-0.6,0.2-0.8
		c0.1-0.2,0.1-0.5,0.1-0.7c0-0.2,0-0.4,0.1-0.7c0-0.5,0.2-0.9,0.5-1.5c0.4-0.5,1.1-1.3,2.4-1.8c0.7-0.1,1,0,0.9,0.1
		c-0.1,0.1-0.4,0.3-0.7,0.6c-0.2,0.1-0.4,0.2-0.5,0.3c-0.1,0.1-0.3,0.2-0.4,0.3c-0.2,0.2-0.2,0.2,0.2,0c0.9,0.6,2-0.3,3.7-0.8
		c0.8-0.3,1.8-0.5,2.7-0.4c0.5,0,0.9,0.1,1.3,0.3c0.4,0.2,0.8,0.4,1.1,0.7c-0.2-0.1-0.5-0.1-0.7-0.1c1,0.7,2.2,1.1,3.9,2.3
		c0.4,0.2,0.9,0.5,1.3,0.9c0.4,0.3,0.9,0.6,1.3,1c0.8,0.8,1.6,1.6,2.2,2.6c0,0-0.3-0.1-0.3,0.2c1.4,1,2.9,2.9,4,5.3
		c1.2,2.4,2,5.1,2.4,7.5c-1-1.4-0.7-2.1-1.4-1.1c0.2,1,0.5,0.8,0.9,0.9c0.3,0.1,0.8,0.4,1.1,2.6c-0.1,0.7-0.3,1.9-0.6,2.9
		c-0.2,1-0.6,1.9-1,2.1c0-1.3,0-2.7-0.1-4c-1,2.1,0.1,5.2-0.3,7.3l-0.5-0.3c-0.2,3.1-0.1,4.7-0.1,6.3c0,1.7,0,3.4-0.9,6.7l0.5-0.6
		c0.1,2-0.3,2.7-0.7,3.4c-0.4,0.7-0.9,1.4-1.1,3.3c-0.5,0.2-1,0.4-1.5,0.7c-0.5,2.4-2,8.5-3.8,12.6c0.3-2.7,2-7.6,2.5-10.7
		c-0.4,1.1-1.2,3.1-1.8,4.8c-0.7,1.8-1.2,3.5-1.3,4.2c0.3-0.9,0.5-2.2,1.1-3c-0.3,3.1-1.6,6.9-4.1,11.2c-0.8-1-2.5,1.7-4.6,4.7
		c-1.1,1.5-2.3,3-3.4,4.3c-1.2,1.2-2.4,2.2-3.3,2.5c-2.5,3.4-5.6,6.3-9.1,8.9c-3.5,2.7-7.3,5.2-11.4,8c2-0.2,1.4,0.2,0.5,0.8
		c-0.9,0.6-2.1,1.4-1.3,2.1c-1.9,1.4-2.7,1.8-2.9,1.8c-2.2,0.9-4.5,1.7-6.7,2.5c-1.7,0.3,1.7-1.4,1.3-1.7c-4.5,2.2-2.2,0.3-5.4,1.3
		c0.5,0.2,0.2,0.6-0.5,1.1c-0.4,0.3-0.8,0.5-1.4,0.8c-0.6,0.3-1.2,0.5-1.9,0.7l2-0.4l2-0.5c-1.5,1-2.6,1.6-3.6,1.9
		c-1,0.3-1.7,0.5-2.5,0.6c-1.6,0.1-3.1,0.4-6.2,2l1.9-1.3c-0.8,0.4-2,0.8-3.3,1.3c-1.3,0.4-2.8,0.9-4.3,1.2
		c-3.3,0.7-6.5,1.4-8.2,2.4c-0.7-0.2-1.6-0.6,0-0.9c-0.8,0.1-1.7,0.1-2.5,0.2l-0.6,0.1l-0.3,0c0,0,0,0-0.1,0l-0.3,0.1l-0.7,0.2
		l-0.4,0.1l-0.2,0.1l-0.1,0c-0.1,0-0.1,0-0.1,0c0-0.3,0-0.7,0-1.1c0-0.2,0-0.5,0.1-0.7c0.1-0.7,0.3-1.3,0.4-2
		c0.6-2.7,1.2-5.2,1.9-7.3l0.3,0.8c0.2-1.7-0.2-3.1,0.7-5c0.2,0.1,0.3,0.8,0.5,0c0-0.9,0.1-4.6,0.8-6.7l0.2,2c2.2-8.6,1-13.6,1.6-21
		c0.7,0.1,1.3-1.6,1.8-3.8c0.5-2.2,0.8-4.8,1-6.6l0.2,0.1c0.3-5.3,0-9.8-0.8-14.2c-0.8-4.4-2-8.7-4.1-13.4c-0.3-1.6-1-3.8-2.6-6.1
		c-0.8-1.1-1.8-2.3-3-3.3c-1.3-1-2.7-2-4.3-2.6c-1.6-0.6-3.3-1.1-5-1.2c-1.7-0.2-3.3-0.2-4.9,0c-3.3,0.3-6.4,1.4-9,2.6
		c1.6-0.6,0.2,1-1.2,2.3c-1.1,0.6-2.3,1.9-3.1,2.9c-0.9,1-1.5,1.7-1.8,1.2c0.2-0.2,0.4-0.4,0.6-0.6c-1.1,0.2-2.4,1.4-3.7,2.9
		c-1.2,1.5-2.4,3.4-3.4,5l1.1,1.4c-3.5,3.6-5.9,9.5-7.7,14.8c-1.8,5.4-3.2,10.2-5,12.3c-0.3,2.3-1.2,4.9-1.5,7.2l-0.8-0.4
		c-2.1,5.9-3.2,8.8-5.3,16.1l-0.1-1.7c-1.4,4.1,0.8,6-0.4,9.8l-1.6,0.7c-2.3,7.2-5.9,13.9-7.4,21.2c-0.1-0.2-0.4-0.5,0-1.7
		c-0.6,1.6-2.1,4.7-3.1,7.3c-1,2.6-1.7,4.7-0.6,4.5c-1.1-0.4-3.1,7-4.4,10.8l-0.5-0.9c-0.5,3.5-0.2,3.8-2.2,8.1
		c-0.6,0.9-1.1,0.5-0.2-0.7c-1.1,1.5-1.2,2.3-1.4,3.2c-0.2,0.9-0.4,1.8-1.7,3.8l0.3-1.8c-1.8,3.5-1.4,3.4-1.8,5.6
		c-0.2,0.6-0.5,1.3-0.9,2c-0.4,0.7-0.7,1.5-1.1,2.2c-0.8,1.4-1.7,2.6-2.1,2.7c0.2,0.7,0,2.9-1.1,5c-0.4,0.2-0.3-0.7-0.2-1.1
		c-0.8,1.5-1.3,2.8-1.6,4.1c-0.4,1.2-0.6,2.4-0.9,3.5c-0.3,1.1-0.5,2.1-0.8,3.1c-0.3,1-0.7,2-1.2,3c-0.3,0-0.5,0.2-0.7,0.6
		c0.2-0.6,0.4-1.2,0.5-1.8c0.2-0.6,0.4-1.1,0.6-1.7c0.4-1.1,0.7-2,1-2.8c0.6-1.6,0.9-2.5,0.9-2.3c-0.8-0.3-2.3,3.7-2.2,0.1
		c-0.3,1.7-0.6,4.1-1,6.5c-0.3,2.4-0.8,4.9-1.5,6.8c-0.1,0.2-0.3,0.3-0.4,0.5l0-0.4c-0.3,0.9-0.5,1.7-0.6,2.6
		c-0.5,1.2-0.7,2-1.1,3.3c-0.8,0.3-1.4,4.7-2,6.7c0.9,0,0.2,2.7,1.5,0.3c-0.1,0.3,0-0.4,0.3-1.8c0-0.3,0.1-0.7,0.1-0.9
		c0,0,0,0.1,0,0.2c0.3-1.4,0.7-3.1,1.1-5.1c0.1,1.7,0,3.5-1,5.7c0.3,1.2,0.6,2.5,0.7,3.2c-1.8,2.6-3.4,7.9-4.3,8.6
		c-0.3,3.2-0.7,7-1,10.5c-0.2,3.5-0.1,6.7,0.5,8.8c0,1.8-0.6,2.1-1,2.7c-0.1-1.1,0-2.3-0.2-2.9c0.1,3.7-0.6,10.8,0.6,11.8
		c-0.7,4.6-1-2.6-1,3.7l-0.3-0.9c-0.5,2.4-0.6,4.7-0.5,6.9c0,2.2,0.3,4.3,0.6,6.3c0.3,2.1,0.7,4.1,1,6.2c0.2,1,0.4,2.1,0.5,3.2
		c0.2,1.2,0.3,1.9,0.4,2.7c-0.3,0.3-0.6,0.7-0.9,1c-0.2,0.2-0.4,0.4-0.6,0.6c-0.2,0.2-0.5,0.5-0.7,0.7c-1,0.9-2,1.8-3.2,2.7
		c0.7-0.6,1.1-0.9,1.4-0.9c-11.2,10.9-20.8,24.6-32.3,34.9c-3.2,3-2.9,3.9-4.3,6.2l-1.3,0.1l-2.2,4.1c-3.7,5.4-9.2,6.8-13.6,13.9
		l1.2-0.4c-2.1,2.1-6,7.2-6.2,6.3c-0.1,0.3-0.1,1.2-1.2,1.8l-0.4-0.3l-4.2,6c-4,3.9-0.9-2-6.4,4c-1.9,2.4-4.7,7.4-3.7,6.8
		c0.8-0.9,2.3-2.1,2.8-1.9l-1.7,2.2c0.8,1.4,0.5,4,5.8-0.4l2.5-4.1l1.6-0.7l-2.6,3c2-1.2,2.5-2.7,3.3-4.2c0.5,0,1.2-0.3,1.9-1
		l2.1-4.4c0.8,0-0.5,2.3,1.8,0.2c1-2.1-2.4,0.7-0.3-2.3c2-1.2,2-0.4,3.3-2.8c0.5,0,0.3,0.6-0.2,1.5c1.3-2.1,4.1-4.8,4.3-6.2
		c2.2-1.2,5.2-6.1,6.1-5c0.3-0.8,2-3.8,3.4-5.5c-1.4,4.1,5.5-6,6.2-4c0.9-3.2,6.6-8.4,9.5-12.8c-0.1,0.3-0.3,0.9-0.7,1.2
		c2.1-2.1,3-2.4,4.4-3.7c-0.7-1.1,2.2-4.7,3.3-7.1c3.3-1.9-0.4,2.6,1.2,2.5c-0.9-0.5,3.4-5.3,2-5c2.4-1.6,1.9-1.5,3.6-1.9
		c-0.8-1.4,1.5-2.1,2.3-4.4c3.2-2.5,1.8,0.2,4.4-3.4C112.2,377.5,110,380.8,110,380.8z M130.4,279.9
		C130.4,279.9,130.4,279.9,130.4,279.9c-0.2,0.9-0.4,1.6-0.5,2.1C130,281.5,130.2,280.9,130.4,279.9z M132.9,271.6
		c-0.4,1-0.9,2.2-1.2,3.6c-0.4,0.2-0.6-0.2-0.3-1C131.4,274.6,132.3,272.7,132.9,271.6z M122,287.8c0.2-1.4,0.5-1.8,0.7-2
		c-0.1,0.7-0.3,1.4-0.4,2.4c0,0,0,0.1,0.1,0.2C122.2,288.3,122.1,288.1,122,287.8z"/>
	<path class="st0" d="M122.6,290.6c0,0.2,0,0.3-0.1,0.6c0.1-0.3,0.3-0.5,0.4-0.8c-0.1-0.2-0.1-0.4-0.2-0.5
		C122.7,290.1,122.6,290.3,122.6,290.6z"/>
	<path class="st0" d="M382.1,132.3l0.1-0.2c-0.1,0.1-0.2,0.2-0.3,0.3C382,132.3,382,132.3,382.1,132.3z"/>
	<polygon class="st0" points="178.3,159.4 178.1,159.4 178,160.2 	"/>
	<path class="st0" d="M353,170.8c-0.1,0-0.3,0.1-0.6,0.3C352.5,171.2,352.7,171,353,170.8z"/>
	<path class="st0" d="M339.2,186.3l-2.2,1.9C338,187.5,338.7,186.9,339.2,186.3z"/>
	<path class="st0" d="M327.9,197.6c0,0.3,0,0.4,0.1,0.5c0,0,0,0,0,0L327.9,197.6z"/>
	<path class="st0" d="M296.1,39.8c-0.2,0.1-0.3,0.2-0.5,0.3C294.4,40.9,295.2,40.4,296.1,39.8z"/>
	<path class="st0" d="M363.6,48.9c-0.7-0.4-1.4-0.8-2.1-1.2C362.4,48.6,363.2,49.3,363.6,48.9z"/>
	<path class="st0" d="M260.8,98.2C260.8,98.2,260.8,98.2,260.8,98.2c0,0.1,0,0.2,0,0.3L260.8,98.2z"/>
	<path class="st0" d="M358.8,45.5c0.5,0.4,0.9,0.9,1.4,1.2c0.4,0.4,0.9,0.7,1.3,1C360.6,47,359.8,46,358.8,45.5z"/>
	<path class="st0" d="M275.8,243.1l-0.6,0.4c0,0,0,0.1,0,0.2L275.8,243.1z"/>
	<path class="st0" d="M275.2,243.7l-0.6,0.6C274.9,244.1,275.2,243.9,275.2,243.7z"/>
	<path class="st0" d="M273.3,245.6l1.3-1.3C274.1,244.7,273.5,245.2,273.3,245.6z"/>
	<path class="st0" d="M292.4,230.1l0-0.4C292.4,229.8,292.4,229.9,292.4,230.1z"/>
	<path class="st0" d="M297.3,225.8c-1.2,1-3.4,2-4.9,3.5l0,0.3C292.9,228.7,296.5,227.2,297.3,225.8z"/>
	<path class="st0" d="M319.9,210.8l-4.1,3.5c0.9-0.4,2.2-0.9,0.4,0.8C321.9,211.2,314.7,215.5,319.9,210.8z"/>
	<path class="st0" d="M332.3,199.3c-1.9,2.2,0.4,0.3,0.4,0.6C333.8,198.4,334.1,198,332.3,199.3z"/>
	<path class="st0" d="M392.4,95.4l0.8,0.3C393.1,93.4,392.9,95.7,392.4,95.4z"/>
	<path class="st0" d="M383.5,73.9c0.1,0.7,0.3,1.4,0.4,2.1l1,0.6C384.6,75.7,384.1,74.8,383.5,73.9z"/>
	<path class="st0" d="M380.8,59.2l0.7,0.7l-1.4-1.4l-1.4-1.3C379.4,57.9,380.1,58.5,380.8,59.2z"/>
	<path class="st0" d="M271.7,113.9c-0.4-0.2-0.7-0.5-1.1-0.7c-0.9,0.3-1.4,0.7-1.3,0.9C269.4,114.3,270.2,114.5,271.7,113.9z"/>
	<path class="st0" d="M306.5,134.4c-0.7,0.8-1.7,3-1.6,4.5C305.5,137.2,306.3,135.4,306.5,134.4z"/>
	<path class="st0" d="M179.6,134.7c0.2-0.6,0.4-1.2,0.6-1.8c-0.5,1.1-0.9,2.2-1.3,3.2L179.6,134.7z"/>
</g>
<g>
	<path class="st1" d="M285.9,125.4c0.2-0.1,0.7-0.6,0.5-0.6l-0.8,0.6L285.9,125.4z"/>
	<path class="st1" d="M286.7,123.5c-0.5,0.2-1.2,0.8-1.8,1.5c0.8-0.6,0.5-0.3,1.5-1c0.2,0-0.1,0.4-0.4,0.6c0.2-0.2,0,0.3,0.5-0.1
		c0.5-0.7,0.3-0.9-0.3-0.5C286.4,123.8,286.6,123.6,286.7,123.5z"/>
	<path class="st1" d="M274,118.7l0.1,0.1C274.1,118.7,274.1,118.7,274,118.7z"/>
	<path class="st1" d="M265.5,122c0-0.1,0-0.2-0.1-0.2C265.5,121.8,265.5,121.9,265.5,122z"/>
	<path class="st1" d="M263.6,122.1c0,0,0.1,0,0.1,0C263.6,122,263.5,122,263.6,122.1z"/>
	<path class="st1" d="M274,118.7l-0.3-0.3C273.8,118.7,273.9,118.6,274,118.7z"/>
	<path class="st1" d="M283.9,124.3c0.1,0,0.1-0.1,0.2-0.2c-0.1,0-0.1,0-0.1,0C283.9,124.2,283.9,124.3,283.9,124.3z"/>
	<path class="st1" d="M278,117.5L278,117.5c0.1-0.1,0.1-0.3,0.2-0.4L278,117.5z"/>
	<path class="st1" d="M281.3,117.7c-0.1-0.1-0.3,0.8-0.4,1.2c0.1-0.3,0.2-0.5,0.3-0.6C281.3,118.1,281.3,117.9,281.3,117.7z"/>
	<path class="st1" d="M285.4,121l0.1-0.1C285.5,121,285.5,121,285.4,121z"/>
	<path class="st1" d="M275.7,117.3c0-0.1,0-0.2-0.1-0.3C275.6,117.1,275.7,117.3,275.7,117.3z"/>
	<path class="st1" d="M285.4,128.5c0.1,0,0.1,0,0.1-0.1C285.5,128.5,285.4,128.5,285.4,128.5z"/>
	<path class="st1" d="M287.7,123.9L287.7,123.9c0.2-0.1,0.3-0.2,0.5-0.3L287.7,123.9z"/>
	<path class="st1" d="M260.6,123.5C260.6,123.5,260.6,123.5,260.6,123.5C260.6,123.4,260.5,123.4,260.6,123.5z"/>
	<path class="st1" d="M262.6,150.6c0.2-0.8,1-0.6,1.1-1.6C263.5,149.4,262.5,149.9,262.6,150.6z"/>
	<path class="st1" d="M283.9,124.2C283.9,124.2,283.8,124.2,283.9,124.2C283.8,124.2,283.8,124.2,283.9,124.2z"/>
	<path class="st1" d="M263.7,149L263.7,149l0-0.1C263.7,149,263.7,149,263.7,149z"/>
	<path class="st1" d="M257.1,130c0.2,0,0.3,0.1,0.4,0.1C257.4,130.1,257.3,130,257.1,130z"/>
	<path class="st1" d="M260.8,126.1l-0.2,0C260.7,126.1,260.8,126.1,260.8,126.1z"/>
	<path class="st1" d="M257.4,133c-0.1,0.1-0.2,0-0.1,0.2c0,0,0.1,0,0.1,0C257.3,133.1,257.3,133.1,257.4,133z"/>
	<path class="st1" d="M256.9,135.8c0.1,0,0.1,0,0.2,0l0-0.1L256.9,135.8z"/>
	<path class="st1" d="M286.4,133.5c0.3,0,0.5,0,0.8,0C286.6,133.5,286.4,133.2,286.4,133.5z"/>
	<path class="st1" d="M284.2,123.9c-0.1,0.2-0.2,0.3-0.3,0.3c0,0,0.1,0,0.1,0C284.1,124.1,284.1,124,284.2,123.9z"/>
	<path class="st1" d="M264.2,134.9l-0.2,0.2C264.1,135,264.2,134.9,264.2,134.9z"/>
	<path class="st1" d="M278.5,144.4l0-0.1C278.5,144.3,278.5,144.3,278.5,144.4z"/>
	<path class="st1" d="M264,135.9c-0.3,0-0.5,0-0.6,0.1c0.1,0,0.1,0,0.2,0.1L264,135.9z"/>
	<path class="st1" d="M287.2,133.6L287.2,133.6L287.2,133.6z"/>
	<path class="st1" d="M285.2,131.6c0,0.2,1.2,0.1,1.8,0.1c0.3,0.3-0.9,0.2-1.5,0.3c0.3,0.2,1.4,0.4,1.3,0.5c-0.2,0-0.3,0-0.5,0
		c0.9,0.3,0,0.6,1.1,1c-0.1,0-0.2,0-0.3,0c0.6,0,1.2,0.1,1.6,0.2c0,0.1,0.7,0.4-0.1,0.3c0-0.1-0.3-0.1-0.5-0.2l0.3,0.2
		c-1.1,0-0.3-0.3-1.2-0.4c0.3,0.3,1.2,0.8,0.8,1c-1.1-0.2-0.2-0.6-1.2-0.5c0.2-0.1,0.3-0.2,0.5-0.2c-1.7,0,0.1-0.2-1.7-0.2
		c-0.4,0.3,0.4,0.5,0.1,0.8c0.6,0.2,0.9,0.2,1.4,0.4c0.9,0.9-2.7-0.3-1.5,0.5c0.7,0.3,1.9,0.8,1.1,0.9l-1.1-0.5
		c-0.2,0.3,1.6,0.8,0.6,0.9c-0.4-0.3-0.2-0.4-0.4-0.4c-1-0.1,0.6,0.4,0.5,0.6l-1-0.4c0,0.2,0.1,0.5,0.3,0.9c0.1,0.3,0.2,0.6,0.2,0.9
		c-0.3-0.2-0.5-0.4-0.9-0.5c0.2,0.8-0.8,1.1-1.6,1.2l0.6,0.7c0,0-0.4-0.2-0.5-0.3c-0.4,0,0.5,0.4,0.7,0.7c0,0.1-0.5-0.2-0.7-0.4
		c0.2,0.4,0.3,0.9,0.3,1.3c-0.1,0.4-0.3,0.6-0.8,0.4l-0.1-0.3c-0.5,0,1.1,1.6,0.3,1.2l-0.1-0.2c-0.8,0.2-0.9,1.5-2.3,0.7
		c0.7,1.1-0.9,0,0.1,1.5c-0.9-0.5-1-0.9-1.8-1.1c-0.2,0,0.4,1.1,0.3,1.4l-0.5-0.8l0.3,1l-0.7-1l0,0.3c0.1,0,0.3,0.3,0.5,0.6
		c-0.1,0.5-0.9-0.3-1.2-0.7c-0.1,0.3-0.2,0.7-0.3,1c-0.1-0.4-0.1-0.5-0.1-0.8c0.1,1-0.5-0.9-0.4,0c0.1,0.2,0.2,0.5,0.3,0.7
		c-0.4-0.5-0.7-0.3-0.9,0l-0.2-0.6c-0.5,0-0.8,0.6-1.3,0.7c0.3,0.3,0.5,1.4,0.4,1.5l-0.3-1c0,0.6,0.3,0.3,0.2,1.1
		c-0.2-0.1-0.4-1.1-0.4-1.5l-0.2,0.4c-0.1-0.3-0.1-0.5-0.1-0.9c0,0.7-0.6-0.9-0.5,0.2l-0.1-0.3c-0.5,0-0.7,0.5-1.1,0.5
		c0.1,0.9-0.1,0.7-0.2,1.4c-0.4-0.3-0.7-0.9-1.1-0.9c-0.3,0.4-0.1,0.8-0.3,1.3c0-0.8-0.4-0.7-0.1-1.3c-0.5,0.1-0.5,0.1-1.2,0.7
		c0,0.3,0.1,0.5,0,0.8c-0.1,0.1-0.2-0.4-0.1-0.7l0-0.1c-0.4,0.5-0.7-0.2-0.9-0.7c-0.2-0.6-0.3-1.2-0.8-0.4l0.1-0.1
		c-0.3,0.2-0.5,0.4-0.8,0.6c-0.2-0.2,0.4-0.5,0.4-1c-0.5,0.5-0.7,0.4-0.8,0.2c-0.1-0.2-0.2-0.4-0.6-0.2c0.5-1.1,0.3-1.2,0-1.2
		c-0.3-0.1-0.7-0.1-0.3-0.8l-0.4,0.4c-0.5,0.3,0.1-0.3,0.2-0.5c-0.3,0.3-0.3,0.4-0.6,0.6c-0.6-0.1-0.7-0.7-0.7-1.2
		c0.1-0.6,0.3-1.2,0.4-1.7c0-0.3-2.8,0.9-1.7,0l1-0.2c-0.7-0.1-0.8-0.5-0.8-0.9c0-0.4,0-0.7-0.6-1.1c0.2,0,0.6,0,0.6,0.1
		c0.8-0.2,0-0.5-0.6-0.6c0.1-0.1,0.6,0,0.9-0.1c0.5-0.1-1-0.4-0.2-0.5c0.1,0,0.2,0.1,0.3,0.1c-0.4-0.1,0.1-0.5-0.8-0.4
		c0.4-0.2-0.3-0.6,0.2-0.8c-0.9-0.3,0.5-0.4-0.8-0.7c1.4,0.3,1.3-0.3,0.6-0.6c0.4,0.2,0.5-0.1,1,0.2c0-0.2-0.2-0.5-0.9-0.6
		c0.9,0,0.6-0.2,0.4-0.5c-0.2-0.3-0.4-0.5,0.7-0.2c-0.5-0.9-0.7-1.7-0.7-2.4c1.3,0.7-0.2,0.7,1.2,1.3c-0.3-0.7-1.2-1.7-0.6-2
		c0.3,0,0.5,0.4,0.7,0.6c-0.2-0.8,0.7-0.9,0.4-1.7c0.1,0.1,0.2,0.2,0.2,0.3c0-0.1,0.3-0.1-0.2-0.4l0.1,0.2c-0.9-0.4-1.3-1.5-1.7-1.9
		c1.3,1.3,0.7-0.2,2.3,1.6c-0.1-0.1-0.2-0.4-0.6-0.7c0.2,0,0.4,0.1,0.7,0.5c0-0.5-0.6-0.9-0.4-1.1c0.2,0.2,0.3,0.3,0.5,0.6
		c-0.3-0.5-0.7-1.1-0.3-1.1c0.1,0.1,0.3,0.3,0.3,0.4c0.3-0.4-0.5-1.8,0.3-1.8c0.8,1.1,0.4,0.2,1.2,1.1c0-0.2,0-0.3,0-0.5l-0.5-0.4
		c0.2-0.1-0.1-1,0.3-0.8l0.1,0.5l0.3-0.5l-0.5-0.2c-0.1-0.7-0.9-1.2-0.4-1.1c0,0.1,0.2-0.2,0.8,0.3l0,0c-0.1-0.4-0.2-0.8,0.2-0.7
		c0.3,0.3,0.7,1.1,0.9,1.3c-0.4-0.9,0.4-0.6,0-1.6c0.1,0.2,0.4,0.8,0.5,0.9l-0.3-0.8c0.2,0.1,0.3,0.3,0.6,0.7
		c0.4-0.1-0.9-1.2-0.1-0.9c0,0.1,0.1,0.2,0.1,0.3c0.6,0.1,0.6-0.9,1.1-0.7c0.6,1-0.2,0.4,0.4,1.3c0.4-0.4,0.5-1.8,1.2-1.7l-0.1-0.1
		c-0.5-1.6,0.7,0.6,0.7-0.2c0,0.1,0.2,0.9,0.2,0.7c0.4,0.1,0.6-0.6,1.1-1.3l0,0.4c0.3,0.3,0.6,0.1,0.9,0.2c0-0.4,0.2-0.4,0-1
		c0.6,1.2,0.9,0.8,1.2,0.4c0.3-0.4,0.7-0.9,1.1,0.2c-0.1,0-0.2,0.4-0.1,0.4c0.2-0.2,0.4-0.3,0.6-0.4c0-0.7-0.1-0.4-0.2-1
		c0.1-0.4,0.3-0.8,0.4-0.8c-0.3,0.5,0,1.2,0.1,1.6c0-0.2,0-0.5,0-0.7c0.2,1.3,0.1-1.5,0.5-0.6l-0.1,0.4c0.2-0.2,0.4-0.7,0.6-0.5
		c0,0.9-0.2,0.4-0.3,1.1c0.2,0,0.7-1.5,0.8-0.7c-0.1,0.2-0.3,0.2-0.4,0.4c0.1,1,0.2,0.8,0.3,0.9l0,0c0.1,0.2,0.2,0.3,0.3,0.5l0-0.3
		c0.7-2.1,0.7-0.3,1.4-1.6c-0.8,1.2-0.3,0.7-0.6,1.7c0,0.3,0.1,0.6,0,0.8c0.4-0.7,0.1,0.7,0.7-0.3c-0.1,0.3,0.2,0.1-0.1,0.8
		c0.3-0.2,0.1-0.5,0.3-0.9c0.3-0.4,0.4-0.1,0.6,0.3c0.1,0.4,0.2,0.6,0.7,0.1c0.7-0.3,1.3-1.2,2-1.4c-0.1,0.5-0.7,0.9-0.7,0.9
		c0,0.5,0.1,0.5,0.5,0.4c-0.2,0.2-0.3,0.4-0.4,0.7c0.2,0,0.8-0.8,0.7-0.3c-0.2,0.2-0.6,0.7-0.9,0.9c0.3-0.1,0.8-0.4,1.2-0.5
		c-0.3,0.4-0.6,0.5-0.9,0.8c0.3,0,0.8,0,1.4-0.6l0.1-0.3c0.1,0-0.5,0.6-0.6,0.6c-0.6,0.4,0-0.4,0.2-0.7l0.3,0c1-1.5-0.7-0.2-0.9-0.5
		l0.9-1c-0.3,0.2-0.6,0.4-0.9,0.7c0.1-0.3,0.5-1,0.8-1c0.1-0.7-0.5,0.3-0.2-0.5c0-0.1,0.1-0.2,0.1-0.2l-0.4,0.2
		c0.2-0.2,0.5-0.8,0.5-0.6c0-0.9-1.2,0.4-0.8-0.5l0.1-0.1c-0.8,0.1-0.5,0.8-1.4,1.6c0.3-0.8,0.5-1.5,0.7-2.3l-0.5,0.9
		c0-0.1-0.1-0.2,0-0.5c-0.5,0.5-0.1,0.4-0.5,0.9c0-0.9-0.9,0.1-0.5-1.4c-0.3,0.7,0.1,0.6-0.4,1c0.4-1.6-0.4,0.1-0.5-0.7
		c0.3-0.8,0.5-0.3,0.4-1.1c-0.6,1.3-0.5-0.5-0.9-0.2c-0.3,1.1-0.7,0.3-1.1,0.7c0.1-0.4-0.7-0.8-1.1-1.2l0-0.2
		c-0.2,1.2-0.6,0.9-0.9,1.1c0-0.7,0.1-1,0.3-1.3l-0.3,0c-0.1,0.4-0.2,0.6-0.4,0.7l0.1-0.9c-0.4,0-0.8,1-1.3,0.5
		c0,0.8,0.5,2.2,0.1,2.8c0-0.4-0.1-1.2,0-1.4c0,0.1-0.1,0.4-0.2,0.2l0.1-0.7c-0.2-0.3-0.1,0.6-0.2,0.6c0-0.6-0.2-0.4-0.2-0.9
		c0-0.1,0.2,0.2,0.2,0c-0.2-0.1-0.5-0.5-0.6-0.9c0.1,0.4,0.1,0.8,0,0.9c-0.4,0.1-0.2-0.7-0.5-1c0,0.4-0.4,0-0.2,1
		c-0.1,0-0.2-0.4-0.3-0.7c-0.1,0.4-0.9,0.3-0.5,1.2l0.1,0.1c0,0,0,0,0,0l0,0l0,0c-0.4,1.1-1.4-0.2-1.9,0.4l-0.1-0.3
		c-0.3,0.5-0.7,0.5-0.8,1.2c-0.1,0-0.4-0.4-0.5-0.8c-0.2,0.3-0.1,0.7-0.7,0.4c0.1-0.6-0.3-0.4,0.1-0.5c-0.5-0.1-0.8-0.5-0.8,0.4
		c-0.2-0.8-0.7-0.8-0.8-0.5l0.5,0.4c-0.1,0.2-0.3,0.2-0.5,0.2l-0.4-1c-0.7-0.4-0.8,0.3-0.8,0.8c-0.1,0.5-0.2,1-1,0.2
		c0.2,0.7,0.6,0.2,0.9,1c-0.4,0.1-1.5-1-1.6-0.9c-0.8-0.2,0.5,1.5-0.2,1.5c0.3,0.3,0.9,1,0.8,1.5c-0.3,0.1-1.3-1-1.3-1.4
		c0.1-0.1,0.2,0,0.2,0.1c0-0.2,0-0.4-0.3-0.6l0.2,0.3c-0.4-0.2-0.8,0.2-1-0.4c0,0.5,0.3,0.6,0.6,0.6c-0.7-0.1-0.6,0.4-1.2,0.5
		c0.2,0.1,0.5,0.4,0.5,0.4c-0.8,0.1,0.2,0.7,0,1.2c-0.6-0.2-0.9-1.1-0.9-0.4c-0.5-0.1-0.7-0.7-0.9-1c0.2,0.8-1,0.3-1.2,0.4l0-0.4
		c0,0.2-0.1,0.3-0.1,0.4l0.6,0.4c-0.2,0-0.3,0.1-0.5-0.1c0.3,0.4,1,0.8,1.3,1.4c-0.4-0.1-0.1,0.7-0.9,0.1c0.7-0.2-0.8-0.6-0.6-1.1
		c0,0.2-0.1,0.2-0.3,0.3c-0.1-0.1-0.1-0.2-0.2-0.2c-1.1-0.1,0.7,0.9,0.3,1.4c-0.4-0.4-0.9-0.6-0.9-0.4c0.2-0.2,0.8,0.5,1,0.9
		c-0.6,0,0,0.5-0.1,0.6l0.3,0c0.4,0.4,0.2,0.5,0.2,0.8c-0.4-0.2-0.1-0.4-0.3-0.4c0.6,0.8-1.2-0.1-0.9,0.6c-0.4-0.1-0.9-0.6-1.2-0.6
		c0.4,0.8-0.9,0-0.7,0.8c0.7,0.3,0.6,0.1,1,0.8c0-0.3,0-0.6,0-0.9c0.2,0.3,0.4,0.7,0.7,1c0.1-0.2-0.1-0.7,0-0.7
		c0.4,0.5,0.3,0.4,0.8,0.6c-1.1-0.3,0.2,0.8-0.6,0.8l-1.6-0.9c-1,0.1,0.3,1.3-0.4,1.8l0.4-0.1c0.6,0.4-0.1,0.5,0.1,0.8
		c-0.6-0.3-0.8-0.2-1.2-0.3c0.4,0.2-0.3,0.5,0.9,1c-0.3,0-0.6,0-0.9,0c-0.5,0.5,1.5,1.2,1.1,1.6c-0.6-0.3-1.1-0.2-1.5-0.7
		c-0.1,0.2-0.2,0.3,0.2,0.4c-0.4,0,0.7,0.7,0.1,0.7c0.2,0.1,0.9,0.3,0.8,0.5c-0.1,0-0.3-0.1-0.3-0.1c0.3,0.1,0.3,0.4,1.1,0.4
		c-1,0.1-1.1,0.4-1.1,0.8c0,0.4,0.1,0.8-0.8,0.9c0.1,0.4,0.4,0.9,0.4,1.3c-0.2,0-0.3,0-0.2-0.1c-0.6,0.5,1.8,0.3,1.1,0.9
		c-1,0.3-0.6-0.3-0.9-0.1c-2.1,0.1,0.3,0.7-0.8,1.2l-0.1-0.1c-0.7,0.4,0.8,0.7,0.8,1.2c0,0-0.2,0-0.3,0c1.1,0.2,1.5,0.7,1.9,1
		c-0.8,0.1-0.5-0.1-1.2,0.2c0.2,0.2,1.3-0.4,1.6-0.1c-0.4,0.2-0.7,0.6-1.5,1l-0.2-0.4c-1,0.5,0.2,0.5,0.1,0.8l-0.5,0.1
		c0.4,0.6,1.6,0.1,1.7,0.7l0.3-0.2c1.3-0.2-0.5,0.6,0.5,0.5l-1.1,0.7c0.4,0.1,1.5,0.1,1.9,0.4c-0.9,0.3-1.6,0.1-2.2,0.1
		c0.1,0.2,0.5,0.7,1.1,0.5c-0.2,0-0.5,0-0.4-0.2c1-0.2,1.6-0.2,1.8,0.1c-1,0.7-0.9,1-0.8,1.4c0.1,0.4,0.4,0.7-0.1,1.5
		c0.7,0,0.9,0.4,1.1,0.9c0.2,0.4,0.5,1,0.9,1.3c0.8-1.8,0.3,0.1,1.4-1.5c0.3,0,0.3,0.1,0.3,0.2c0,0.4,0,0.9,0,1.4
		c-0.1,0.6-0.4,0.2-0.6,0.6c0.4,0.4-0.2,0.8-0.1,1.5c0.3-0.6,0.7-0.8,0.8-0.4c0-0.3,0-0.7,0-1c1.1-0.6-0.1,1.8,1,1.2l-0.5,0.4
		c0.5-0.1,1.5,0.6,2.3-0.7c0,0.2-0.1,0.8-0.3,0.8c0.4,0.3,1.1,0,1.6-0.2c0.6-0.2,1-0.3,1.3,0.2l-0.1,0.5c0.2-0.1,0.4-0.8,0.6-0.3
		c0,0.2-0.1,0.5-0.1,0.5c0.1-0.1,0.6-0.8,0.7-0.5l-0.2,0.5c0.9,0.7,1.5-1.2,2.1-1.5c0,1.4,0.7,1.8,1.1,2l0,0.2
		c1.1,0.1,1.7-1.4,2.5-2c0.9,1.4,2,0.2,3.2,0.7c-0.2-0.2-0.3-1-0.2-1.2c0.3,0.2,0.2-1.1,0.6,0.1l-0.1,0c0.6,1.1,0.9,0.6,1.2,0.5
		l-0.6-1.6c0.9,0.9,1.4,0.5,1.7,0c0.4-0.5,0.6-0.9,1.4-0.1c0-0.5,0.2-0.6,0.2-1.1l0.5,0.8c0.6-0.2,1-0.2,1.5-0.8l0.3,0.6
		c0.4-0.2-1.1-2.4-0.9-2.7l0.9,1c0.6-0.4,1.9-0.1,1.6-1.5c0.1,0.1,0.4,0.4,0.3,0.6c0.3-0.2,1.6-0.3,0.2-1.5c0.9,0.8,0.6-0.5,0.5-1.1
		l0.6,0.6c-0.6-1-0.9-1.2-0.8-1.7c0.2,0,0.6,0.4,0.3,0.3c0.6,0-0.5-0.7,0.1-0.8l0.4,0.5c0.3-0.2,0-0.4-0.4-0.9
		c-0.1-0.4,0.6-0.4,1.3,0c-0.4-0.3-0.8-0.8-0.5-0.9c0.3,0.1,0.4,0.3,0.4,0.4c0.8-0.2-0.4-1.3,0.6-1.2c0.3,0.1,0.4,0.2,0.5,0.2
		c-0.2,0.4-0.5,0.7-0.5,0.7c0.7,0.4,1,0.2,1.8,1c-0.3-0.6-1.2-1.8-0.7-1.9c0.1,0,0.2,0,0.3,0.1l0.1,0.1c0.1,0,0.1-0.2,0-0.3
		c0.2-0.1,0.3-0.1,0.4-0.2c0.6,0.3,0.6-0.3,0.7-0.4c-0.8-0.4-0.6-0.5-1.3-0.6c0.1,0,0.1,0.1,0.1,0.2c0,0,0,0.1,0,0.1l-0.1,0
		c0,0.1-0.1,0.3-0.2,0.5c-0.3-0.3-0.6-0.6-0.1-0.6c-0.5-0.3-1-0.7-1.2-0.8c1.2,0.3,2.1,0.1,2.8,0.3c-0.2-0.7,0.2-1.5-1.3-2.4
		c-0.2-0.2,0.5,0,0.8,0c0.1,0.1,0.1,0.2,0.3,0.4c-0.3-0.4,0.1-1-1-1.4c0.6-0.3,1,0.5,0.9-0.1l0.3,0.2c1.1-0.4,0.4-1.1-0.2-1.6
		c-0.6-0.6-1.2-1,0-1.6c-0.1,0.1-0.2,0.1-0.4,0.1c0.3-0.3,0.4-0.7,0.3-1.1c0-0.4-0.2-0.7-0.3-1.1c-0.2-0.7-0.5-1.4,0.2-2.3
		c0.2-0.5-0.5-0.4-1.1-0.4l0.9-0.4c-0.4,0-0.8-0.1-1.2-0.1c-0.5-0.1,0-0.6,0.3-1c0.3-0.4,0.6-1-0.3-1l-0.5,0.4
		c0-0.3-0.8-0.6-0.1-0.9c-0.1,0-0.6,0.3-0.4,0l0.4-0.3c-0.4,0-0.7-0.1-1.1-0.1c0-0.6,1.7-1,1.3-1.8c-0.4-0.2-1.7,0.2-1.8,0.5
		c0,0.1-0.1,0.4-0.5,0.7l-0.3,0c-1.2,0.9-2.4,1.8-2.9,2.8c0.3-0.1,0.6-0.2,0.9-0.3l-0.5,0.5l-0.2-0.2c-0.5,0.5,0.1,0.2,0.5,0.1
		c-0.3,0.2-0.5,0.4-0.6,0.5c0.4-0.2,0.9-0.4,1.3-0.5c-0.5,0.3-1,0.5-1.2,0.8c0.6-0.2,1-0.8,1.5-0.8c-0.5,0.5-1,0.7-0.4,0.6
		c-0.3,0.2-0.5,0.3-0.7,0.3c0.5-0.1,0.3,0.2,1.1-0.1c-0.7,0.5,0.4,0.4-0.9,0.9c0.3-0.1,1.1-0.2,1.2-0.1c-1.6,0.4,0.1,0.5-1.6,1
		c1.5-0.3,0.8,0.3,1.7,0.4c-0.1,0-0.4,0-0.3,0c-0.1,0.2-0.5,0.3-0.8,0.5c1.2-0.2,1.5,0,2.3,0.1c-1.1,0.4-1.5,0.1-2.6,0.3
		c1-0.2,1.1,0.2,1.9,0c-0.7,0.3-0.3,0.2-1.4,0.4c1.5-0.1,0.3,0.1,1.2,0.2c-0.7,0.3-1.4,0.1-1,0.4
		C285.8,131.8,285.2,131.6,285.2,131.6z M286.2,138.5C286.2,138.5,286.2,138.5,286.2,138.5c0-0.1,0-0.1,0-0.2
		C286.2,138.4,286.2,138.4,286.2,138.5z M285.9,139.1c0.1,0,0.1-0.1,0.2-0.2c0.3,0.1,0.5,0.3,0.5,0.4
		C286.4,139.1,286.2,139.1,285.9,139.1z M292.1,140.6c0,0.2-0.1,0.1-0.3,0.1c0-0.1,0-0.1,0-0.3c0,0-0.1,0-0.1-0.1
		C291.8,140.4,292,140.5,292.1,140.6z"/>
	<path class="st1" d="M291.1,139.9C291.1,139.9,291.1,139.8,291.1,139.9c-0.1-0.1-0.2-0.1-0.2-0.1
		C290.9,139.8,291,139.9,291.1,139.9L291.1,139.9z"/>
	<path class="st1" d="M274.1,118.8L274.1,118.8c0,0,0,0,0,0.1C274.2,118.8,274.2,118.8,274.1,118.8z"/>
	<polygon class="st1" points="278.9,143.7 279,143.9 278.9,143.7 	"/>
	<path class="st1" d="M278.3,121.5c0,0.1,0,0.2,0,0.2C278.3,121.7,278.3,121.6,278.3,121.5z"/>
	<path class="st1" d="M279.8,121.9l0.2,0.3C279.8,122,279.8,121.9,279.8,121.9z"/>
	<path class="st1" d="M280.7,122.5c0.1-0.2,0.1-0.3,0.1-0.4l0,0L280.7,122.5z"/>
	<path class="st1" d="M265.7,129.5C265.6,129.5,265.6,129.6,265.7,129.5C265.7,129.8,265.7,129.7,265.7,129.5z"/>
	<path class="st1" d="M268.1,124.2c0,0.2,0.1,0.3,0.1,0.5C268.4,124.7,268.4,124.7,268.1,124.2z"/>
	<path class="st1" d="M264.2,134.8L264.2,134.8C264.2,134.8,264.2,134.8,264.2,134.8L264.2,134.8z"/>
	<path class="st1" d="M268,124.8c0.2,0.1,0.2,0,0.2-0.2C268.1,124.7,268,124.7,268,124.8z"/>
	<path class="st1" d="M284.5,125L284.5,125c0.1,0,0.1,0,0.1,0L284.5,125z"/>
	<path class="st1" d="M284.6,124.9l0.1,0C284.7,124.9,284.7,124.9,284.6,124.9z"/>
	<path class="st1" d="M285,124.8l-0.2,0.1C284.8,124.9,284.8,125,285,124.8z"/>
	<path class="st1" d="M283.7,123.8l-0.2,0.3C283.5,124,283.6,124,283.7,123.8z"/>
	<path class="st1" d="M283.3,123.7c0.1,0.1-0.2,0.7,0.1,0.6l0.2-0.2C283.2,124.5,283.6,123.3,283.3,123.7z"/>
	<path class="st1" d="M283.1,119.2l0.4,0.4c0.1-0.3,0.1-0.8,0.4-0.8C283.6,117.6,283.6,119.5,283.1,119.2z"/>
	<path class="st1" d="M281.7,118.2c0.3-0.1,0.1-0.5,0.2-0.7C281.6,117.8,281.6,117.9,281.7,118.2z"/>
	<path class="st1" d="M270.7,119.1l-0.3-0.8C270.3,118.5,270.5,118.6,270.7,119.1z"/>
	<polygon class="st1" points="270.7,123.7 271,124 270.8,123.3 	"/>
	<path class="st1" d="M266.9,119.2l0-0.1c-0.1,0.1-0.1,0.3-0.2,0.4L266.9,119.2z"/>
	<path class="st1" d="M256.2,135.2l1,0.1C257.1,135.1,256,134.9,256.2,135.2z"/>
	<path class="st1" d="M258.4,143.6c-0.4,0.3-0.6,0.7-0.1,0.6C258.3,144,258.6,143.7,258.4,143.6z"/>
	<polygon class="st1" points="280.8,151.7 280.8,152.1 281,151.7 	"/>
</g>
<g>
	<path class="st0" d="M389.8,117.1c-0.2,0.3,0.1,0.9,0.8,0.6l0.2-1.1L389.8,117.1z"/>
	<path class="st0" d="M395.2,117.7c0.7-0.7,1.6-1.7,0.8-2.6c-0.7,1.1-1,0.8-1.6,2.2c-0.7,0.3-1.3,0-1.3-0.4
		c-0.2,0.3-1.2,0.1-1.4,0.8c1.1,0.5,2.3,0.3,3.4-0.7C395.4,117.1,395.2,117.5,395.2,117.7z"/>
	<path class="st0" d="M427.4,163l0.2-0.4C427.5,162.7,427.5,162.9,427.4,163z"/>
	<path class="st0" d="M441.5,198.7c0-0.3,0-0.5-0.1-0.5C441.4,198.5,441.4,198.8,441.5,198.7z"/>
	<path class="st0" d="M438.5,205.4c0.1-0.1,0.1-0.3,0.2-0.4C438.6,205.2,438.5,205.3,438.5,205.4z"/>
	<path class="st0" d="M427.4,163l-0.5,1.1C427.2,164.3,427.3,163.6,427.4,163z"/>
	<path class="st0" d="M404.9,113.9c-0.3,0.1-0.5,0.1-0.7,0.3c0.2,0,0.4-0.1,0.6-0.1C404.9,114,404.9,114,404.9,113.9z"/>
	<path class="st0" d="M428,144c0-0.1,0-0.2,0-0.3c-0.1-0.1-0.3-0.2-0.4-0.3C427.6,143.6,427.8,143.8,428,144z"/>
	<path class="st0" d="M424.8,130.3c0.1,0.3,1,0,1.4,0c-0.4,0-0.7-0.2-0.9-0.4C425.1,130,425,130.1,424.8,130.3z"/>
	<path class="st0" d="M408.3,117.6l-0.4,0.1C408,117.6,408.2,117.6,408.3,117.6z"/>
	<path class="st0" d="M427.5,154.3c-0.1,0-0.3,0.1-0.3,0.1C427.3,154.5,427.4,154.4,427.5,154.3z"/>
	<path class="st0" d="M231.4,464.7c0-0.1-0.1-0.1-0.1-0.1C231.3,464.7,231.3,464.8,231.4,464.7z"/>
	<path class="st0" d="M215.6,473.1l0.1-0.2c-0.1-0.1-0.2-0.3-0.3-0.4L215.6,473.1z"/>
	<path class="st0" d="M432.5,217.4C432.5,217.4,432.5,217.3,432.5,217.4C432.6,217,432.5,217.2,432.5,217.4z"/>
	<path class="st0" d="M391,317c1.6-0.5-0.8,2.4,1.3,1.4C391.8,318.3,392.6,316,391,317z"/>
	<path class="st0" d="M405.3,114c0.2,0,0.4,0,0.7,0C405.7,114,405.5,114,405.3,114z"/>
	<path class="st0" d="M392.2,318.4L392.2,318.4l0.2-0.1C392.4,318.3,392.3,318.4,392.2,318.4z"/>
	<path class="st0" d="M437,242.4c0.1-0.1,0.2-0.3,0.2-0.4C437.1,242.1,437.1,242.1,437,242.4z"/>
	<path class="st0" d="M430.4,225.2l-0.4,0.4C430.2,225.5,430.3,225.4,430.4,225.2z"/>
	<path class="st0" d="M438.7,251.6c-0.1,0.3-0.3,0.3-0.3,0.8c0.1,0,0.1-0.1,0.1-0.1C438.5,252.1,438.5,251.9,438.7,251.6z"/>
	<path class="st0" d="M434.2,263c0.1,0,0.2-0.1,0.3-0.1c0-0.1,0.1-0.3,0.1-0.4L434.2,263z"/>
	<path class="st0" d="M261,439.4c-0.4,0-0.7-0.1-1-0.3C260.6,439.5,259.2,440.9,261,439.4z"/>
	<path class="st0" d="M404.9,114.4c0.1-0.2,0.2-0.3,0.4-0.4c-0.2,0-0.3,0-0.5,0C404.9,114.2,404.8,114.3,404.9,114.4z"/>
	<path class="st0" d="M445.4,253.9l-0.8,2.2C444.9,255.4,445.2,254.6,445.4,253.9z"/>
	<path class="st0" d="M333.5,382.1l-0.3,0.4C333.3,382.4,333.5,382.3,333.5,382.1z"/>
	<path class="st0" d="M442.4,262.2c-0.4,0.2-0.8,0.5-1.1,0.8c0,0.1,0,0.2,0.1,0.3L442.4,262.2z"/>
	<path class="st0" d="M260,439.1C260,439.1,260,439.1,260,439.1C260,439.1,260,439.1,260,439.1z"/>
	<path class="st0" d="M250.9,449.2c1.5-1.2,0-1.5-0.1-2.2c1.6-1.7,1.4,0,2.4-0.1c0.9-1.2,1.1-2.7,2-3.3c0.2,0.1,0.4,0,0.4,0.4
		c0.6-1.7,3.5-2.9,4.2-4.9c0.2,0,0.3,0,0.4,0.1c-0.6-0.3-1-0.7-1.2-1.1c0.7-0.6,0.8-1.6,1.5-1.2c-0.4,0.3-0.3,0.6-0.3,0.9l0.5-0.8
		c1.3,0.3-0.7,1.1-0.2,1.7c1.2-1.4,2.2-3.4,3.5-4c0.9,0.7-2.3,2.3-0.2,1.9l-1.9,1c2.3,0.3-1.1,0.7,1.2,1.2c2.4-1.5,2.1-2.4,4.4-3.8
		c0.1-0.9-0.7-0.6-0.6-1.4c2.4-3.3,4.1,0.2,5.5-2.7c0.1-1-0.5-2.3,1.6-3l0.2,1.4c2.2-1.6,0.1-2.3,2.9-3.4c-0.1,0.7-1.4,1.6-1,1.5
		c2-0.4,0.6-1.3,1.7-2.2l0.9,0.7c2.2-1.9,4.2-4.4,6.6-6.5c0.1,0.4-0.2,1,0.6,0.8c2.9-2.9,6.9-5.1,10.4-6.8l0.6-1.6
		c0.3-0.2,0.8,0,0.6,0.3c1.4-0.6-0.3-0.5,0.1-1.2c0.6-0.6,1.2-0.2,1,0.3c1.6-2.2,5.1-5.9,7.9-6.8l-0.3,0.6c2-1,0.8-3,2.9-3.6
		l-0.2,0.4c4-2.6,7.6-6.6,11.2-7.8c-0.3-1.5,4-2.5,3-4.2c2.7-1,2.3-0.3,5.6-2.3c0.8-0.6,0.4-1.9,1.2-2.8l0.7,0.7l0.6-1.9l1.5,0.3
		l0.7-1c-0.4,0.3-1,0.3-1.2,0.1c1.1-1.5,3.9-2.4,4.2-2.1l2.7-3.5c0.2,0.4-0.3,0.9-0.5,1.5c1.1-2.3,1,0.5,2-1.6
		c-0.4,0-0.3-0.5-0.4-0.7c1.2-0.3,3-1.9,4.2-3.3l0.2,0.7c2.5-2,4.9-4.8,7.6-7.3c-1.2,0.7-1.7-0.4-1-1.2l1,0.5
		c0.1-0.9-1.1,0.5-0.6-1.1c1.1-0.8,1.5,0.2,1.1,1l1-1.4c0.3,0.2,0.1,0.5,0.3,0.9c0.1-0.9,2.8-1.2,2.8-2.7l0.3,0.2
		c2.7-2.5,3.6-3.9,5.8-5.9c-0.6-0.7,0.4-1.3,0.6-2.5c1.8-1.3,4-2.5,5.8-4.3c1-1.6-0.1-0.9,0.1-1.9c0.7,0.5,2.5-1.4,1.9,0
		c2.2-2.3,2.8-2.9,5.1-6.2c-0.5,0.1-1,0.3-1-0.1c0.4-0.6,1.4-0.9,1.6-0.6l-0.1,0.2c2.3-4,9-5.6,10.3-9.4l-0.1,0.2l1.9-3.3
		c1.3-1.1-0.3,1.2,1,0.6c1.8-3.8,4.5-4.4,6.1-7.4c3.5-0.2,6-6.7,9.4-8.3l-0.6-0.2c0.2-1,1-0.6,1.5-1c-0.4-0.2-1,0.4-0.9-0.2
		c4.5-6.1,10.8-11.2,16.1-17c1.9-2.2-1.3-3.1,2-5.1l0.2,1.4c2.5-5.3,7.1-9.4,9.3-14.7c0,0.4,0.3,0.6,0,1.1c0.6-0.3,1.3-1.2,1.7-2.1
		c0.4-0.9,0.5-1.8,0.3-2c0.5-0.7,0.6,0.1,1.1-0.2c1-0.8,0.7-3.1,1.7-3.3c0.2,0,0,0.4,0,0.6c0.1-0.8,1.9-3.2,0.8-2.9
		c0.7-0.8,1.1-1.8,1.5-2.7c0.4-0.9,0.7-1.8,1.3-2.5c-0.2-0.7,0.3-1.5,0.7-2.3c0.4-0.8,0.7-1.4,0.1-1.9c1.3,0.7,2.5-3.3,2.2-4.9
		c0.3,0.6,0.8-1.1,1.2-0.4c0.2-0.8,0.3-1.7,0.2-2.3c-0.1-0.6-0.3-1-0.7-0.9c1.1-1.4,0.9-3.2,0.5-4.7c-0.3-1.5-0.9-2.8-0.1-4.1
		c-1.2-2.9-3.5-5.3-5.8-6.6c-0.6-0.3-1.2-0.6-1.8-0.9c-0.6-0.2-1.2-0.4-1.8-0.6c-0.7-0.3-0.9-0.2-1.2-0.3c-0.3,0-0.6-0.1-0.9-0.1
		c0.5-0.6,1-0.5,1.5-0.4c0,0,0.5,0.2,0.7,0.3c0.3,0.1,0.6,0.2,0.8,0.2c0.5,0.1,0.8,0,1-0.3c-0.5-0.2-1-0.3-1.5-0.4
		c-0.2-0.1-0.5-0.1-0.7-0.2l-0.3,0.1c-0.2,0-0.4,0.1-0.6,0.1l-0.3,0l-0.3,0.1c-0.7,0.2-1.6,0.3-2.3,0.2c0,0-0.1,0-0.1,0l0.1-0.1
		c0.1-0.1,0.2-0.2,0.2-0.3c0.3-0.2,0.4-0.2,0.6-0.2c0.2,0,0.4,0,0.5,0c-0.1-0.9,0.9-1,2.3-5.2c0.1,0.1,0.1,0.5,0,0.8
		c0.3-0.6,0.9-1.3,0.3-1.5l-0.2,0.7c-1.3,0.5-0.4-3.3-0.9-3.6c1.1,1.9,2-2.8,3.2-0.1c0.1-0.5,0.1-1.1-0.4-1.2
		c0.4-0.5,0.7-0.6,0.9,0.2c0.8-2.4-0.2-1.9,0.7-3.9c0.3,0.1,0.2,0.6,0.4,1c-0.1-1.3-0.2-2.5,0.8-4.1c0.1,0.2,0.4,0.1,0.2,0.6
		c1.2-3,0.6-5.6,2.2-8.8c1,1.4,0.8-1,2-0.8l0.2-2l-0.8,0.6c0.5-1.6,0-3.3,0.7-4.6c0.1,0.4,0.1,0.9,0.2,1.3c0.2-1,0.3-2.1,0.4-3.1
		l-0.8,1.7c-0.3-1.8-1.5-0.1-0.8-2.2c0,0.2,0.1-0.2,0.3-0.7c0.1-0.6,0.4-1.3,0.8-1.7l0,0c-0.2-0.9-0.6-1.7-0.2-2.9
		c0.4-0.3,1.3,0.3,1.6,0.1c-0.2-0.2-0.4-0.6-0.4-1c-0.1-0.4-0.1-0.9-0.2-1.5c0-0.5-0.1-1-0.2-1.5c-0.1-0.5-0.3-0.8-0.6-1.1
		c0.3,0.3,0.9,0.3,1,0.2l-0.9-0.6c0.2-0.8,0.3-1,0.8-0.9c-0.3-2.4-1.3,1-1.2-1.9c0.1,0.2,0.2,0.1,0.4,0.5c-0.1-0.7-0.2-1.4-0.4-2.1
		c-0.2-0.7-0.5-1.3-0.8-1.9c-0.3-0.6-0.7-1.2-1-1.8l-0.5-0.9c-0.2-0.3-0.3-0.6-0.5-0.9c0.3-0.7,0.7-0.2,1,0.3c0.4,0.5,0.6,1,0.9,0.3
		c-0.5-0.9-1.3-1.7-2-2.4c-0.8-0.7-1.6-1.4-2.4-2c-0.9-0.5-1.7-1.1-2.5-1.6c-0.9-0.5-1.7-0.9-2.4-1.5l0.5,0.5
		c-0.6,0.6-1.1,0-1.7-0.6c-0.6-0.6-1.5-1.5-2.1-1.3c0.4,0,0.8-0.7,0.6-0.5c-0.5-0.4-1.2-0.4-2.2-0.5c0-0.6-0.2-1.4-0.1-2.8
		c0.1,0.2,0.2,0.3,0.4,0.4c0-0.1,0.1-0.1,0.1-0.2c0-0.1,0.1-0.2,0.1-0.3c0.1-0.2,0.1-0.4,0.2-0.6c0.1-0.4,0.2-0.9,0.3-1.4
		c0.2-0.9,0.4-1.9,0.6-2.6c-0.4-0.5-0.2-1.4-0.9-0.9c1.5-2.2,1.5-4.5,1.2-6.7c-0.2-2.2-0.6-4.3,0.4-6.4c0,0.5,0.4,1.2,0.4,0.8
		c-0.1-1.2-0.3-2.4-0.5-3.6c-0.7,0.3-0.4,0.5-1,1.3c-0.4-0.4-0.8-1.4-0.9-2.3c0.6,1.5,1.2-0.1,1.5-0.8c-0.2,0.1-0.5-0.1-0.7,0
		c1.1-2-1.5-0.2-0.9-2.8l0.4,0.1c-0.3-0.9-1-1.7-1.1-2.7c0.7-0.6,0.6,0.9,1.3,0.8c-0.2-0.7-0.7-1.3-1.1-1.9
		c-0.5-0.6-0.8-1.2-0.6-1.9c0.4,0.5,0.6,1.4,1,1.9c0.6-1.6,0.3-1.8,0.2-2.8l0,0.1c-0.1-0.9-0.3-1.7-0.4-2.6l0,0.7
		c-0.7-0.3-1.1-0.6-1.4-1c-0.4-0.4-0.6-0.8-0.8-1.3c-0.4-0.9-0.9-1.9-2.2-2.6c2.4,1.3,0.9-0.1,1.8-0.4c-0.1-0.4-0.2-0.8-0.2-1.1
		c-0.1-0.3-0.1-0.6,0.1-0.5c-0.7-0.3-0.9-0.8-1.2-1.3c-0.3-0.6-0.7-1.1-1.7-1.3c0.2-0.3-0.9-1-0.2-1.3c-0.7-0.5-0.7-0.3-0.6,0
		c0.1,0.3,0.3,0.8,0.1,0.9c-0.6-0.3-1.2-0.6-1.7-1.1c-0.6-0.4-1-1.1-1.7-1.6c-0.6-0.5-1.3-1-2.1-1.4c-0.8-0.3-1.7-0.5-2.7-0.5
		c-3.1-0.3-3.8,0.6-6.5,0.9c-0.4-0.3-0.2-0.6,0.1-0.7c0.3-0.2,0.7-0.3,0.7-0.3c-0.7-0.3-1.3-0.5-2-0.5c-0.6,0-1.3,0.1-1.9,0.3
		c0.3-0.3,0-0.5-0.4-0.8c-0.6,0-0.7,0.3-1,0.5c-0.2,0.2-0.5,0.4-1.2,0.2c0.2-0.4,0.5-1,1-1.3c-1.3,0.4-2.6,1.1-3.9,1.5
		c-0.4-0.5,0.7-0.9,1.2-1.3c-1.5,0.3-3.9,1-4.2,2l1,0.1c-0.5,0.1-0.4-0.7,0-0.9c1.2-0.9,1.9,0,2,0.3c-0.3,0.1-0.6,0.2-0.9,0.3
		c0.6,0.8,1.5,0.7,2.5,0.3c1-0.4,2.2-1,3.2-0.9l-0.8,1.3l1.9-1.1c0.4,0.3,0.7,1.1-0.3,1.3c0.7,0.3,0.9,0.2,1.2,0.1
		c0.3-0.1,0.5-0.2,1.1,0.2c0.1,0.1,0.1,0.2-0.1,0.2l1.3-0.2c-0.3,0.2,0.1,0.9-0.6,0.7c1.1,0.5,2,0.3,2.8,0.3c0.8,0,1.4-0.1,1.6,0.5
		l-0.2,0c0.8,0,1.2,0.1,1.4,0.1c0.2,0,0.3-0.2,0.3-0.3c0.1-0.3,0.1-0.8,1.5-0.8c0.2,0.9,0.4,1.8,0.5,2.8l0.7-0.7
		c0.3,0.2,0.8,0.6,0.5,0.8c1.4,0,0-0.5,1-0.7c0.5,0.8,1.3,1.4,2.1,1.9c0.7,0.6,1.2,1.2,0.8,1.9c0.9-0.1-0.7-1.5,0.9-0.6
		c-0.4,0.7,0,1,0.5,1.4c0.5,0.4,1.2,0.8,1.3,1.6c-0.9,0.1-1.4-1.2-1.2,0.4c0.8-0.1,1.1,0.6,1.3,1.3c0.2,0.7,0.2,1.6,0.5,2
		c0.5-0.2,1,0.3,1.3,1.1c0.3,0.9,0.7,1.9,1.1,2.9c-0.2,0-0.1,1,0,2.2c0.1,1.2,0.2,2.7,0.1,3.6l-0.2,0c0.6,0.1,0.9,0.6,1.1,1.3
		c0.2,0.7,0.3,1.6,0.4,2.3c-0.7,0-1-0.2-1.4-1l0.1,1.3c0.4,0.3,0.6,0.7,0.8,1.6l-0.9-0.3c0.1,0.9,0.4,1.8,0.5,2.7
		c0.2,1,0.3,2-0.1,3.1c0.8,0.2,2.3-1.8,2.8,0.7c-0.4,0.1-1.2,0.1-1.3-0.5c0,0.2,0.3,0.8,0.1,1.2c-0.2-0.3-0.5-0.7-0.7-1
		c-0.4,1,0.6,0.6,0.5,1.4c-0.6-0.1-0.5,0.6-1,0.4c0-0.2,0.3-0.7,0.1-1.1c-0.2,0.9-0.6,2.1-1.1,2.4c0.4-0.1,0.8,0.1,0.9,0.8
		c-0.1,1.8-0.8,0.5-1.2,1.5c0.4,0.5-0.2,1.6,0.7,1.7c-0.1,0.5-0.5,0.6-0.8,0.7c0.3,1-0.6,4.3,0.6,3.4l0.1-0.2c0,0,0,0.1,0,0.2
		c0,0,0,0,0,0l0,0c0.3,2.1-0.7,4.7-1.7,7.6c1,0.5,2.2,0.9,3.5,1.1l-0.2,0.3c0.6,0.1,1.3,0.2,1.9,0.5c0.4,0.1,0.9,0.3,1.3,0.4
		c0.9,0.2,1.6,0.6,2.4,0.7c0.5,0.3,0.7,1.1,0.3,1.3c0.6,0.3,0.9,0.4,1.3,0.6c0.2,0.1,0.4,0.3,0.6,0.5c0.2,0.2,0.5,0.5,0.7,0.9
		c-0.6-0.3-0.6-0.1-0.6,0c0,0.1,0,0-0.6-0.6c0.6,0.6,0.7,1.1,1,1.5c0.1,0.2,0.3,0.4,0.6,0.6c0.3,0.2,0.6,0.4,1,0.6
		c-0.5,0-0.5,0.4-0.4,0.8c0.1,0.5,0.5,0.9,0.8,1.2c0-0.4,0-0.8-0.1-1.2c0.6,0.6,0.8,1.4,1.1,2.1c-0.4,0-0.8,0-1.1,0.1
		c0,0.4,0.1,0.8,0.2,1.1c0.1,0.4,0.2,0.7,0.4,1c0.4,0.6,0.7,1.3,1.1,1.9c0.2,0.3,0.4,0.6,0.5,1c0.1,0.3,0.2,0.7,0.2,1
		c0.1,0.7,0,1.3-0.6,2c0.4,0.4,0.5,0,0.6-0.5c0.1-0.5,0.2-1,0.7-0.6c0,1.7-1.6,3.3-1.6,3.8c-0.7,2.1,1.4,2.2,0.7,4.5
		c0.4-0.2,1.5-0.4,1.5,1.5c-0.5,1.7-1.9,1.7-2,0.6c0-0.4,0.2-0.6,0.3-0.5c0-0.6-0.1-1.3-0.6-0.7l0.3,0.3c-0.3,0.4-0.5,1.1-0.7,1.7
		c-0.3,0.6-0.5,0.9-0.7,0.6c0.1,1.3,0.5,0.7,0.9-0.2c-1,1.9-0.8,3.2-1.8,5.2c0.3-0.3,0.8-0.4,0.7-0.1c-1.5,2.9,0.3,1.6-0.4,3.7
		c-1,1-1.1-0.9-1.5,1.4c-0.9,1.1-1-0.1-1.1-0.7c0,2.1-1.8,3.3-2.4,4.3l0.1-1.1c-0.1,0.6-0.3,1.1-0.5,1.6l0.9-0.2
		c-0.4,0.5-0.6,1-0.9,0.9c0.2,0.8,1.4,0.1,1.4,1.5c-0.7,0.6-0.7,2.5-1.8,2.3c1.5-2.2-1-0.2-0.2-2.2c-0.1,0.4-0.3,0.9-0.7,1.4
		c-0.1,0-0.1-0.2-0.1-0.3c-1.9,1.8,0.5,1.5-0.7,3.8c-0.3-0.6-1.2,0-1.3,0.5c0.5-0.9,1.1,0,1,1c-1.2,1.3-0.6,1.8-1.1,2.5l0.7-0.8
		c0.3,0.6-0.2,1.3-0.6,2.4c-0.4-0.1,0.3-1.1-0.1-0.8c0.1,0.4-0.1,0.7-0.3,1c-0.1,0.1-0.2,0.3-0.4,0.4c-0.2,0.2-0.4,0.4-0.6,0.6
		c-0.9,0.9-2,2-2.3,3.2c-0.6,0.6-0.9,0.6-1.3,0.7c-0.3,0-0.6,0-1.1,0.6c-0.5,1.2-1.1,2-1.8,2.8c-0.4,0.4-0.7,0.8-1.1,1.2
		c-0.2,0.2-0.4,0.4-0.6,0.7c-0.1,0.1-0.2,0.2-0.3,0.4c-0.1,0.1-0.1,0.2-0.2,0.3c0.5,0.1,1.2,0.1,2.1,0.1c0-0.8-0.2-0.6,3.3-1
		l-3.3-0.1l0-0.2l0.1-0.3l0.3-0.6l0.6-1.2c-0.1,0.4-0.1,0.7-0.1,1l0,0.4c0,0.1,0,0.1,0,0.2c0.1,0,0.1,0.1,0.2,0.1l1.1-0.1
		c-0.2,0-0.5,0-0.8-0.1c-0.2-0.1,0.1-0.4,0.2-0.7c0.1-0.3,0.2-0.5,0.3-0.8c0.2-0.5,0.5-1,0.8-1.3c0,1.1-0.1,1,1.2,0.1
		c-0.6,0.5-1,0.9-1.3,1.3c-0.1,0.2-0.3,0.4-0.3,0.6l-0.1,0.3c0,0.1,0.1,0.1,0.2,0.1c0.8,0,1.6-0.1,2.2-0.1c0.7,0,1.2,0.1,1.6,0.4
		l-2.3,1.6c0.9,0.3,2.1,0.5,3.2,0.6c0.3,0,0.6,0.1,0.8,0.1l0.7,0.1c0.5,0.1,1,0.1,1.5,0.2c0.2,0,0.5,0,0.7,0.1c0.1,0,0.3,0,0.4,0.1
		c0.3,0,0.5,0.1,0.8,0.2c0.3,0.1,0.5,0.2,0.8,0.3c0.2,0.2,0.5,0.3,0.7,0.5l-0.5-0.7c0.3-0.2,0.8,0,1.1,0.3c0.2,0.2,0.3,0.4,0.5,0.5
		c0.1,0.1,0.2,0.2,0.3,0.2c0.1,0.1,0.2,0.1,0.3,0.2c-0.5,0.4-0.4,0.9-0.5,1.3c0.4-0.3,0.7,1.3,1.9,1.2c-0.1,0.2-0.1,0.4-0.2,0.7
		l-0.3,0.7c0,0.3,0.1,0.5,0.1,0.7c0,0.2,0.1,0.4,0.2,0.6c0.2,0.4,0.5,0.6,0.7,1c0.4,0.7,0.9,1.4,0.6,2.6c-0.6-0.8-1.1,0.2-1.5-1.4
		c-0.1,0.7-0.3,1.4,0.1,1.5c-0.4,0.3,0.4,2.3-0.3,2.9c0.2,0.4,0.8,0.7,0.5,1.6c-0.1,0.1-0.3-0.1-0.3-0.1c0.3,0.1,0,1.5,0.9,1
		c-0.7,0.5-1.2,1.1-1.5,1.9c-0.4,0.7-0.7,1.6-1,2.4c-0.7,1.6-1.3,3.3-2.6,3.9c-0.3,0.9-0.7,1.8-1.1,2.7c-0.4,0.9-0.8,1.8-1.3,2.5
		c-0.1-0.2-0.3-0.2,0-0.4c-1.7,1.7,0.8,2.2-1.1,4.1c-1.6,0.6,0.3-1.5-0.5-1c-1-0.4-1.3,0.3-1.7,1.2c-0.4,0.9-0.8,2-1.8,2.4l0.1-0.4
		c-1.3,0.7-1.2,3.2-2.6,4.9c0,0-0.1-0.2-0.2-0.2c0,1.9-1.5,4.4-2.5,6.3c-0.2-1,0.2-1-0.7-1.2c-0.5,0.8,1.2,0.6,0.2,2.2
		c-0.7,0.2-1.9,1.1-2.7,0.7l1.1-1.5c-1.5,0.1-1.4,1.9-2.1,2.5l-0.3-0.4c-1.6,2.3-0.6,3.1-2.6,5.4l0.5,0c-0.1,2.1-1.4,0.6-1.7,2.5
		L412,295c-0.5,1-1.5,3.7-2.6,5.3c0-1.4,1.1-3.5,1.6-4.9c-0.7,0.8-2.3,2.9-2.2,3.7c0.2-0.4,0.3-1,0.7-1.2c-0.1,1.6-0.9,3.3-2.3,4.9
		c-1.6-1.9-4.1,3.8-6.6,3.7c-1.8,3.4-5.3,5.3-8.2,8.7c2.4,0.1-0.8,1,0.8,2.1c-0.6,0.8-0.9,1.1-1.1,1.1l-3,1.5c-0.9,0.2,0.4-1,0-1.2
		c-1.7,1.5-1.2,0.1-2.6,0.9c0.7,0.3,0.2,1.3-0.9,2l1.9-0.7c-1.4,3-3.1,0.8-4.5,3.8l0.3-1.1c-0.9,1.4-4.2,4.3-4.2,6.5
		c-0.4,0-1-0.1-0.6-0.7c-2.9,2.6-4.9,7.3-7.8,8.8l-0.1-0.5c-0.4,0.6-0.3,1.5-1.3,1.8c-0.1-0.2-0.1-0.5-0.4-0.3
		c-0.2,0.4-0.8,1.9-1.7,2.4l0.2-1c-3.1,2.2-3.3,5-5.4,7.4c-1-1-3.4,0.7-4.7,1.6l-0.1-0.2c-3.3,2.9-4.7,6-7.3,9.2
		c-2.9,0.6-6.8,5.4-10.4,7.5c0.6-0.2,0.6,0.9,0.2,1.5c-0.9,0.4-1.3,2.5-2.1,1.4l0.3-0.2c-1.4-0.5-2.6,1.1-3.8,2.1l0.9,1.4
		c-4.6,0.8-7.4,7.6-10.5,7.4c-0.5,1-1.4,1.7-1.9,2.7l-0.5-0.7c-2.2,1.6-3.3,2.3-5.7,4.6l0.1-0.9c-1.5,1.1-0.2,3.5-1.5,4.6l-1.3-0.7
		c-2.5,2.1-5.8,3.2-7.6,6.2c-0.1-0.2-0.2-0.6,0.1-0.9c-1.2,0.9-5.2,2.9-3.7,4c-0.8-0.9-2.7,2-3.8,3.4l-0.3-0.9
		c-0.5,1.8-0.4,2.1-1.9,3.6c-0.5,0.2-0.8-0.3-0.1-0.5c-1.6,0.6-0.5,1.4-2.4,2.3l0.3-0.9c-1.4,1-1.1,1.1-1.5,2.2
		c-0.6,0.9-2.7,1.8-3.4,1.3c0.1,0.5-0.2,1.6-1.2,2c-0.3-0.2-0.1-0.5,0-0.7c-2.6,1.2-2.8,3.4-4.8,3.9c-0.2-0.2-0.4-0.2-0.6-0.2
		c1.8-1.4,3.3-2.4,3.2-2.3c-0.5-0.6-2,0.3-1.6-1.4c-0.8,1.4-2,4-3.6,4.7c-0.1,0-0.2,0-0.4-0.1l0.1-0.2c-0.4,0.2-0.6,0.5-0.8,0.8
		c-0.5,0.2-0.9,0.4-1.3,0.7c-0.6-0.4-1.9,1-2.6,1.5c0.6,0.7-0.4,1.3,0.9,1.2c-0.2,0,0.1-0.2,0.5-0.6c0.1-0.1,0.2-0.2,0.3-0.3
		c0,0,0,0.1,0,0.1c0.5-0.4,1.1-0.9,1.8-1.4c-0.3,0.8-0.7,1.5-1.8,1.8c0,0.7-0.1,1.5-0.1,1.9c-1.7-0.2-4.1,0.7-4.8,0.3
		c-1.9,2.1-5,4.3-5.3,6.7c-0.5,0.7-1,0.2-1.4,0.2c0.3-0.4,0.7-0.7,0.7-1.1c-1,1.3-3.6,3-3.1,4.2c-1.9,0.8,0.2-1.5-1.8,0.3l0.1-0.5
		c-5.4,1.9-5,7.8-11.1,9.7c0.4-0.1,0.6-0.2,0.8-0.1c-6,3.5-10.2,9.7-16.4,12.8c-1.7,1-1.3,1.7-1.9,2.9l-0.9-0.5l-0.8,2.1
		c-1.6,2.5-5.2,1.4-6.9,5l0.8,0.2c-1,0.8-2.8,3-3.1,2.3c0,0.2,0.1,0.8-0.5,0.9l-0.4-0.3l-1.8,2.8c-2,1.4-1.1-1.7-3.8,0.6
		c-0.9,1-1.8,3.7-1.2,3.6c0.4-0.4,1.2-0.7,1.6-0.4l-0.7,1c0.9,1.2,1.2,2.9,4.1,1.7l0.9-2.1l1,0.1l-1.2,1.2c1.2-0.2,1.2-1,1.5-1.8
		c0.4,0.2,0.8,0.2,1.2,0l0.5-2.4c0.6,0.3,0.1,1.5,1.3,0.8c0.3-1.1-1.5-0.3-0.7-1.7c1.2-0.2,1.3,0.4,1.8-0.8c0.4,0.2,0.4,0.5,0.1,0.9
		c0.5-1,1.9-2,1.8-2.9c1.3-0.1,2.5-2.5,3.3-1.4c0-0.5,0.6-2,1.3-2.7c-0.2,2.4,2.7-2.3,3.6-0.6c0-2,3.1-3.5,4.3-5.6
		c0,0.2-0.1,0.5-0.3,0.6c1.1-0.7,1.6-0.6,2.4-0.9c-0.7-1.1,0.7-2.6,1-3.8c2-0.1,0.2,1.7,1.3,2.3c-0.7-0.7,1.4-2.5,0.5-2.8
		c1.4-0.2,1-0.4,2.2,0c-0.8-1.3,0.7-0.9,0.8-2.3c1.8-0.5,1.3,0.8,2.4-0.7C251.9,447.7,250.9,449.2,250.9,449.2z M284.8,419
		C284.8,419,284.8,419,284.8,419c-0.3,0.3-0.5,0.5-0.7,0.6C284.3,419.5,284.5,419.3,284.8,419z M287.8,416.7c-0.4,0.3-0.9,0.6-1.3,1
		c-0.3-0.2-0.4-0.5-0.1-0.7C286.4,417.2,287.2,416.8,287.8,416.7z M277.7,416.7c0.4-0.5,0.7-0.5,0.9-0.4c-0.2,0.2-0.5,0.4-0.8,0.7
		c0,0,0,0.1,0,0.1C277.7,417,277.6,416.8,277.7,416.7z"/>
	<path class="st0" d="M277.5,418.2c-0.1,0.1-0.1,0.1-0.2,0.2c0.1,0,0.3,0,0.4-0.1c0-0.1,0-0.2,0-0.4
		C277.7,418.1,277.6,418.2,277.5,418.2z"/>
	<path class="st0" d="M427.7,162.5L427.7,162.5c0,0,0.1,0,0.1-0.1C427.7,162.5,427.7,162.5,427.7,162.5z"/>
	<polygon class="st0" points="330.5,385.2 330.4,385.1 330.2,385.4 	"/>
	<path class="st0" d="M431.8,141.7c0.1,0,0.1-0.1,0.2-0.3C432,141.4,431.9,141.5,431.8,141.7z"/>
	<path class="st0" d="M430.3,132.3c0-0.5-0.1-0.9-0.2-1.4C430.2,131.5,430.2,132,430.3,132.3z"/>
	<path class="st0" d="M427.6,125.3c-0.2,0-0.3,0-0.4,0.1c0,0,0,0,0,0L427.6,125.3z"/>
	<path class="st0" d="M435.8,227.7c0,0.1-0.1,0.2-0.1,0.3C435.6,228.6,435.7,228.2,435.8,227.7z"/>
	<path class="st0" d="M445.5,195.4c0.1,0.4,0.2,0.8,0.3,1.1C445.9,195.9,446,195.4,445.5,195.4z"/>
	<path class="st0" d="M445.5,253.6C445.5,253.6,445.5,253.6,445.5,253.6c0,0.1-0.1,0.2-0.1,0.2C445.4,253.8,445.5,253.7,445.5,253.6
		z"/>
	<path class="st0" d="M445.5,198.1c0.3-0.6,0.3-1.1,0.3-1.6C445.7,197,445.5,197.6,445.5,198.1z"/>
	<path class="st0" d="M398.4,114.4l-0.4,0c0,0.1,0,0.1,0,0.1L398.4,114.4z"/>
	<path class="st0" d="M398,114.6l-0.4,0.2C397.8,114.8,397.9,114.7,398,114.6z"/>
	<path class="st0" d="M396.8,115.2l0.8-0.4C397.3,114.8,397,114.9,396.8,115.2z"/>
	<path class="st0" d="M408.2,114.3l0.1-0.3C408.2,114,408.2,114.1,408.2,114.3z"/>
	<path class="st0" d="M411.2,114.5c-0.7-0.2-1.7-0.9-2.8-0.8l-0.1,0.2C408.8,113.5,410.4,115,411.2,114.5z"/>
	<path class="st0" d="M420.4,122.7l-1.6-1.5c0.1,0.5,0.2,1.2-0.6,0.7C419.8,124.3,418.3,120.9,420.4,122.7z"/>
	<path class="st0" d="M424.2,128.2c-0.7-0.9-0.4,0.3-0.6,0.3C424.3,129,424.4,129.1,424.2,128.2z"/>
	<path class="st0" d="M435.4,174.9l-0.6,0.6C435.6,175.9,435,175.2,435.4,174.9z"/>
	<polygon class="st0" points="444.8,180.2 444.8,179.1 443.9,178.9 	"/>
	<polygon class="st0" points="440.7,187.3 440.5,186.9 441,188.3 	"/>
	<path class="st0" d="M434.5,260.7l1,0.2C435.6,260.2,434.6,259.6,434.5,260.7z"/>
	<path class="st0" d="M414.3,292.3c-0.6,0-1.6,0.6-1.6,1.5C413.3,293.2,414.1,292.8,414.3,292.3z"/>
	<polygon class="st0" points="333,372.5 333.3,371.8 332.4,372.9 	"/>
</g>
<g>
	<path class="st0" d="M168.5,173.5c0.3-0.1,0.7-0.6,0.3-0.8l-0.9,0.6L168.5,173.5z"/>
	<path class="st0" d="M168,170.3c-0.7,0-1.7,0.3-2.2,1.2c1-0.4,0.8,0,2-0.5c0.4,0.2,0.2,0.7-0.1,0.9c0.3-0.1,0.3,0.6,0.9,0.3
		c0.2-0.9-0.2-1.4-1.1-1.4C167.5,170.5,167.8,170.4,168,170.3z"/>
	<path class="st0" d="M147.2,140l0,0.3C147.2,140.2,147.2,140.1,147.2,140z"/>
	<path class="st0" d="M139.7,118.8c0.1,0.2,0.2,0.2,0.3,0.2C139.8,118.9,139.7,118.7,139.7,118.8z"/>
	<path class="st0" d="M140,114.9c0,0.1,0,0.2,0,0.2C140,115,140.1,114.9,140,114.9z"/>
	<path class="st0" d="M147.2,140l0-0.7C146.9,139.4,147.1,139.7,147.2,140z"/>
	<path class="st0" d="M162.6,168.4c0.1,0.1,0.3,0.1,0.4,0.1c-0.1,0-0.2-0.1-0.3-0.2C162.7,168.3,162.6,168.3,162.6,168.4z"/>
	<path class="st0" d="M153,148.1l0.1,0.2c0.1,0,0.3-0.1,0.4-0.1L153,148.1z"/>
	<path class="st0" d="M157.5,154.3c-0.1-0.2-0.8,0.3-1.2,0.5c0.4-0.1,0.6-0.1,0.7-0.1C157.2,154.6,157.3,154.5,157.5,154.3z"/>
	<path class="st0" d="M164,164.6l0.2,0.1C164.2,164.7,164.1,164.6,164,164.6z"/>
	<path class="st0" d="M150.3,143.4c0.1-0.1,0.2-0.2,0.2-0.2C150.4,143.2,150.4,143.3,150.3,143.4z"/>
	<path class="st0" d="M264.1,51.1c-0.1,0-0.1,0.1-0.1,0.1C264,51.2,264.1,51.1,264.1,51.1z"/>
	<path class="st0" d="M266.4,61l-0.1-0.1c-0.1,0.1-0.3,0.2-0.4,0.3L266.4,61z"/>
	<path class="st0" d="M140.2,108C140.2,108,140.2,108,140.2,108C140.3,108.2,140.3,108.1,140.2,108z"/>
	<path class="st0" d="M163.4,53.1c-1.1-0.1,0.2-1.5-1.2-1.5C162.6,51.8,162.4,53.3,163.4,53.1z"/>
	<path class="st0" d="M162.5,168.1c-0.1-0.1-0.2-0.1-0.2-0.2C162.4,168,162.4,168.1,162.5,168.1z"/>
	<path class="st0" d="M162.3,51.6L162.3,51.6l-0.1,0C162.2,51.6,162.2,51.6,162.3,51.6z"/>
	<path class="st0" d="M140.2,92.5c-0.2,0-0.3,0-0.4,0.1C139.9,92.6,140,92.6,140.2,92.5z"/>
	<path class="st0" d="M138.2,104.1l0.1-0.3C138.2,103.9,138.2,104,138.2,104.1z"/>
	<path class="st0" d="M140.2,86.3c0.1-0.1,0.2-0.2,0.2-0.4c0,0-0.1,0-0.1,0C140.4,86,140.4,86.1,140.2,86.3z"/>
	<path class="st0" d="M142.2,80.2c-0.1,0-0.1,0-0.2,0c0,0.1,0,0.1,0,0.2L142.2,80.2z"/>
	<path class="st0" d="M247.9,37.5c0,0.3-0.1,0.6-0.2,0.8C248,37.7,249,38.1,247.9,37.5z"/>
	<path class="st0" d="M162.9,168c-0.2,0.1-0.3,0.2-0.4,0.1c0.1,0,0.1,0.1,0.2,0.1C162.8,168.2,162.9,168.1,162.9,168z"/>
	<path class="st0" d="M133.5,84.2c0.1-0.4,0.3-0.7,0.4-1.1C133.7,83.4,133.6,83.8,133.5,84.2z"/>
	<path class="st0" d="M199.8,26.6l0.2-0.2C200,26.4,199.9,26.4,199.8,26.6z"/>
	<path class="st0" d="M134.8,79.9c0.4-0.1,0.6-0.2,0.8-0.4c-0.1-0.1-0.1-0.1-0.2-0.2L134.8,79.9z"/>
	<path class="st0" d="M247.7,38.3L247.7,38.3L247.7,38.3z"/>
	<path class="st0" d="M254.8,41c-0.8-0.7-1.1,0.6-1.7,1c-1.2-0.5,0.1-1,0.1-1.8c-0.8-0.3-1.9,0.2-2.4-0.2c0.1-0.2,0-0.3,0.3-0.4
		c-1.2,0.3-2-1.5-3.5-1c0-0.1,0-0.2,0.1-0.3c-0.2,0.6-0.5,1.1-0.8,1.4c-0.4-0.2-1.1,0.1-0.8-0.6c0.2,0.2,0.4-0.1,0.7-0.2l-0.6,0
		c0.2-1.2,0.8,0.1,1.2-0.6c-1-0.2-2.4-0.1-2.9-0.7c0.5-1,1.6,0.6,1.3-0.7l0.7,1c0.2-1.9,0.5,0.5,0.8-1.5c-1.1-1.1-1.7-0.5-2.8-1.5
		c-0.6,0.3-0.4,0.8-1,1.2c-2.3-0.2-0.1-3.2-2.2-2.7c-0.7,0.4-1.5,1.6-2.1,0.4l0.9-0.9c-1.2-0.8-1.5,1.2-2.5-0.2
		c0.5-0.3,1.2,0.1,1.1-0.1c-0.5-1.3-0.9,0.3-1.6,0l0.3-1c-1.5-0.6-3.4-0.4-5-0.9c0.2-0.3,0.6-0.5,0.3-0.9c-2.2-0.2-4.4-1.7-6.3-2.8
		l-1,0.7c-0.2-0.1-0.2-0.5,0-0.6c-0.7-0.6-0.2,0.6-0.7,0.8c-0.5-0.1-0.5-0.7-0.1-0.9c-0.8,0.2-1.9,0.5-3,0.5c-0.5,0-1-0.1-1.5-0.2
		c-0.5-0.1-0.9-0.3-1.3-0.6l0.3-0.2c-1.2-0.5-1.6,1.7-2.6,0.7l0.2-0.1c-1.3-0.4-2.6-0.3-3.9-0.4c-0.6,0-1.3-0.1-1.8-0.2
		c-0.6-0.1-1.1-0.3-1.6-0.6c-0.3,1.3-2.6-0.5-2.7,1.3c-1.5-0.8-1.1-1.1-3.3-1.5c-0.6,0-0.7,1.2-1.3,1.5l-0.2-1l-0.8,1.2l-0.7-1.1
		l-0.6,0.4c0.3,0,0.6,0.3,0.6,0.6c-0.9,0.6-2.5-0.2-2.7-0.7c-0.7,0.4-1.4,0.9-2.1,1.3c0-0.4,0.3-0.6,0.6-1c-1,1.3-0.5-0.9-1.4,0.2
		c0.2,0.2,0.1,0.6,0.1,0.8c-0.7-0.4-2-0.1-2.9,0.4l0-0.7c-1.8,0.4-3.5,1.5-5.3,2.1c0.8,0.1,1,1.2,0.5,1.5l-0.6-0.9
		c-0.1,0.7,0.7,0.1,0.3,1.2c-0.7,0.2-0.9-0.9-0.6-1.4l-0.7,0.7c-0.2-0.3,0-0.5-0.1-0.9c-0.1,0.7-1.8-0.3-1.9,0.9l-0.2-0.3
		c-0.9,0.4-1.5,0.8-2.1,1.1c-0.6,0.4-1.1,0.8-1.8,1.1c0.4,0.8-0.3,0.9-0.4,1.8c-1.1,0.3-2.7,0.2-3.8,1c-0.6,0.9,0.1,0.8,0,1.5
		c-0.5-0.7-1.6,0.1-1.3-0.8c-1.4,1-1.8,1.2-3.2,2.9c0.4,0.1,0.7,0.1,0.7,0.4c-0.2,0.3-0.9,0.2-1.1-0.2l0-0.1
		c-0.6,1.2-2.1,1.4-3.5,1.7c-0.7,0.2-1.4,0.3-1.9,0.6c-0.5,0.3-0.9,0.7-1,1.3l0-0.1l-1,1.9c-0.8,0.4,0.1-0.8-0.8-0.8
		c-0.4,1.2-1.1,1.6-1.8,2.1c-0.7,0.4-1.3,0.8-1.7,1.7c-1.3-0.5-2.2,0.4-3.1,1.3c-0.8,1-1.6,2.1-2.8,2.2l0.5,0.3c0,0.7-0.6,0.2-1,0.3
		c0.3,0.3,0.7,0,0.7,0.4c-0.3,0.4-0.6,0.8-1,1.2c-0.3,0.4-0.7,0.8-1,1.1c-0.7,0.7-1.5,1.4-2.4,2.1c-1.7,1.4-3.3,2.8-4.9,4.3
		c-1,1.2,1.9,2.4-0.3,3.2l-0.6-1c-0.2,0.8-0.5,1.6-0.9,2.2c-0.4,0.7-0.8,1.4-1.2,2c-0.8,1.3-1.7,2.7-1.9,4.3
		c-0.1-0.3-0.4-0.4-0.3-0.7c-1,0.2-1.1,2.1-0.5,2.4c-0.3,0.4-0.6-0.1-1,0c-0.3,0.2-0.3,0.7-0.3,1.1c0,0.4,0.1,0.8-0.3,0.8
		c-0.1,0-0.2-0.3-0.2-0.4c0.2,0.5-0.8,1.8,0.1,1.8c-0.8,0.9-0.5,2.1-1.3,2.8c0.7,0.9-1.1,1.7,0.2,2.3c-1.3-0.5-1.8,1.6-1.3,2.4
		c-0.4-0.4-0.6,0.5-1.1,0.1c-0.2,0.8-0.1,1.6,0.6,1.7c-1,0.5-0.9,1.4-0.7,2.1c0.1,0.7,0.3,1.3-0.9,1.6c0.2,1.3,0.3,2.5,0.4,3.6
		c0.2,1.2,0.3,2.3,0.3,3.4c-1.4-0.2,0.1-2.4-1.4-2.5c0.4,2.2,1.4,3.4,1.1,5.4c-0.2,0.5-0.6-0.3-0.8-0.5c0.3,1,0.2,2,0.2,3
		c0,1,0.1,1.9,0.5,2.8c-0.1,0-0.3-0.2-0.4-0.4c0.1,0.4-0.2,0.9,0.5,0.8l-0.2-0.3c0.9-0.6,2,1.3,2.5,1.3c-1.9-0.5-0.3,1.8-2.8,1
		c0.1,0.2,0.5,0.5,0.9,0.4c-0.1,0.4-0.3,0.5-0.9,0.2c0.5,1.3,1.1,0.7,1.2,1.9c-0.3,0-0.5-0.2-0.8-0.3c0.7,0.5,1.3,1,1.2,2
		c-0.2,0-0.4,0.1-0.5-0.2c0.4,1.7,2,2.6,1.8,4.5c-1.5-0.3-0.3,0.7-1.4,1l0.6,0.9l0.5-0.5c0.2,0.9,1.2,1.4,0.9,2.2l-0.6-0.5
		c0.2,0.5,0.4,1,0.6,1.5c0.1-0.3,0.2-0.7,0.2-1c0.8,0.7,1.4-0.4,1.4,0.7c-0.2-0.2,0.2,0.8-0.3,1.4l0,0c0.5,0.3,1,0.6,0.9,1.3
		c-0.3,0.3-1.3,0.2-1.5,0.4c1.1,0.1,0.8,1.9,2,2c-0.3-0.1-0.9,0.1-1,0.2l0.9,0.1c-0.1,0.5-0.2,0.5-0.7,0.6c0.2,1.2,1.3-0.8,1.1,0.7
		c-0.1-0.1-0.2,0-0.4-0.2c0.1,0.7,0.4,1.3,0.7,1.9c0.3,0.6,0.7,1.2,0.7,1.8c-1,0.8-0.7-1-1.5-0.2c0.9,1.7,2.7,3.1,3.2,4.9l0-0.4
		c1.6-0.5-0.2,1.6,0.9,2.1c-0.2-0.2-1,0.1-0.8,0.1c0.2,1.3,1.5,2.1,2.8,3.6l-0.5,0c0,0.8,0.7,1.8,0.9,2.6c0.5,0,0.7,0.4,1.1-0.1
		c-0.5,1.7,0.4,2.5,1.3,3.3c0.9,0.8,1.9,1.5,1.6,2.9c-0.1-0.2-0.6-0.3-0.5-0.1l1.3,1.4c0.5-0.5,0.2-0.4,0.5-1.1c0.5,0,1,0.2,1.3,0.6
		c-0.9-0.4-1,0.7-1.1,1.2c0.2-0.2,0.4-0.2,0.6-0.4c-0.5,1.5,1.3-0.7,1.3,0.9l-0.4,0.2c0.4,0.3,1.1,0.4,1.3,0.9
		c-0.6,0.7-0.6-0.2-1.2,0.2c0.5,0.6,2.1,0.3,1.8,1.3c-0.4-0.1-0.7-0.5-1-0.6c-0.4,1.2-0.1,1.1,0.1,1.6l0-0.1l0.4,1.3l0-0.4
		c2.3-0.6,1.5,1.3,3.3,1.4c-1.8-0.1-0.7,0.3-1.6,0.8c0,0.4,0.1,1-0.2,1c1,0,0.1,1.2,1.6,1.1c-0.2,0.2,0.4,0.5-0.3,0.9
		c0.7,0.5,0.3-0.5,0.6-0.7c1.6,0.3,0.8,3,3,3.4c1.4,0.7,2.4,0.2,3.7,0.9c-0.1,0.7-1.1,0.5-1.1,0.5c0.2,0.9,0.6,1.2,1.3,1.5
		c-0.3,0.1-0.4,0.3-0.5,0.7c0.4,0.4,1.1-0.5,1.3,0.4c-0.3,0.1-0.8,0.4-1.3,0.4c0.7,0.3,1.5,0.4,2.2,0.7c-0.3,0.5-0.9,0.3-1.3,0.3
		c0.7,0.4,1.7,1.1,2.5,0.7l-0.1-0.6c0.2,0.2-0.4,0.6-0.7,0.6c-1,0-0.5-0.9-0.3-1.1l0.5,0.2c1-1.6-1.5-1.2-2.1-2l1.2-0.6l-1.5,0
		c0.1-0.4,0.5-1,1-0.8c0-0.9-0.8-0.1-0.6-1.1c0-0.1,0.1-0.1,0.2-0.1l-0.8-0.2c0.3-0.1,0.6-0.7,0.8-0.3c-0.2-1.4-2-0.8-1.6-1.8l0.1,0
		c-1.4-1-0.8,0.5-2.5,0.3l1.3-2.2l-0.8,0.5c-0.1-0.2-0.3-0.5,0.1-0.7c-0.9-0.1-0.3,0.4-1,0.5c0.2-1.2-1.8-1.5-0.7-2.7
		c-0.8,0.2,0.1,1-0.9,0.6c1.1-1.2-0.9-0.6-0.8-1.7c0.8-0.3,0.9,0.5,1-0.6c-1.4,0.5-0.6-1.4-1.2-1.7c-0.9,0.7-1.2-0.8-2.2-1.5
		c0.3-0.2-0.6-2-0.9-3.1l0.2-0.1c-1.1,0.5-1.5-0.5-2.1-1c0.6-0.4,0.9-0.4,1.4-0.2l-0.4-0.6c-0.4,0.1-0.7,0-1-0.3l0.8-0.3
		c-0.5-0.8-1.9-1.1-2-2.4c-0.7,0.4-1.4,2-2.6,1.2c0.3-0.3,1-0.7,1.3-0.5c-0.1-0.1-0.5-0.1-0.5-0.4l0.9,0.1c0-0.6-0.7,0.1-0.9-0.3
		c0.5-0.3,0.2-0.5,0.7-0.7c0.1,0.1,0,0.5,0.3,0.5c-0.2-0.5-0.1-1.2,0.2-1.6c-0.3,0.2-0.7,0.4-1,0.1c-0.5-0.8,0.5-0.7,0.5-1.3
		c-0.5,0-0.4-0.7-1.2-0.3c-0.1-0.2,0.2-0.5,0.4-0.7c-0.6-0.2-1.2-1.9-1.8-1l0,0.1c0,0,0,0-0.1-0.1l0,0l0,0c-1.5-1-1-3.2-2.1-4.4
		l0.3-0.1c-0.7-0.7-1-1.8-1.9-2.2c-0.1-0.3,0.3-0.8,0.6-0.9c-0.5-0.6-0.9-0.5-0.8-1.7c0.8,0.5,0.4-0.4,0.6,0.5c-0.1-1,0.3-1.3-0.9-2
		c0.9,0,0.7-1,0.3-1.3l-0.3,0.8c-0.3-0.4-0.4-0.8-0.5-1.3l1.1-0.1c0.6-2.2-3.2-2.5-1.6-4.5c-0.9-0.3-0.2,1.1-1.1,1
		c-0.2-0.9,1.1-2.2,1-2.4c0.3-1.3-1.8-0.6-1.7-2c-0.3,0.2-1.3,0.6-1.8-0.2c-0.1-0.9,1.3-1.4,1.7-1c0.1,0.2,0,0.3-0.1,0.3
		c0.2,0.2,0.5,0.6,0.8,0.1l-0.4,0c0.3-0.5,0-1.7,0.7-1.5c-0.5-0.6-0.7-0.1-0.7,0.4c0.3-1.2-0.4-1.7-0.2-2.9
		c-0.2,0.2-0.6,0.5-0.6,0.3c0.1-1.7-0.8-0.6-1.2-1.7c0.5-0.7,1.4,0,0.7-1c0.3-0.7,1-0.3,1.3-0.1c-0.9-0.9,0.2-2,0.2-2.5
		c0.1,0.2,0.2,0.3,0.4,0.5c-0.2-0.3-0.2-0.6-0.3-0.8l-0.7,0.4c0.1-0.3,0.1-0.6,0.4-0.6c-0.5-0.3-1.2,0.4-1.9-0.2
		c0.3-0.5-0.5-1.3,0.4-1.5c-0.2,1.4,1-0.2,1.3,0.9c-0.1-0.2-0.2-0.5-0.1-0.8c0.1-0.1,0.2,0,0.3,0.1c0.8-1.3-1.2-0.5-1.3-1.8
		c0.6,0.1,1.1-0.4,0.9-0.6c0,0.5-0.9,0.3-1.4-0.2c0.4-0.9-0.4-0.9-0.3-1.4l-0.2,0.5c-0.6-0.2-0.5-0.6-0.7-1.2
		c0.4-0.1,0.3,0.5,0.5,0.3c-1-0.7,0.9-1.5,0.3-2.4c0.4-0.4,1.1,0,1.3-0.4c-0.7-1,0.8-1.1,0.2-2.1c-0.8,0.3-0.6,0.3-1.3-0.5l0.5,1.8
		l-1.1-1.2c0,0.5,0.4,1.2,0.3,1.5c-0.6-0.6-0.4-0.5-1-0.3c1.2-0.7-0.6-1.5,0.2-2.3l1.9,0.2c1-1.2-0.7-2.3-0.1-3.9l-0.4,0.5
		c-0.7-0.3,0-1-0.2-1.6c0.6,0.1,0.9-0.2,1.3-0.3c-0.5,0,0.2-1.2-1-1.5l0.9-0.6c0.5-1.2-1.4-1.9-0.9-3.1c0.6,0.5,1.1,0.1,1.4,1
		c0.1-0.4,0.3-0.8-0.1-0.9c0.4-0.1-0.5-1.4,0.1-1.6c-0.2-0.2-0.9-0.5-0.7-0.9c0.1,0,0.3,0.1,0.3,0.1c-0.3-0.1-0.2-0.8-1-0.6
		c1.1-0.4,1.4-1.3,1.6-2.2c0.1-0.4,0.2-0.9,0.4-1.3c0.2-0.4,0.5-0.6,1-0.8c0.2-0.9,0.4-2.1,0.7-2.9c0.2,0.1,0.3,0.1,0.2,0.3
		c1-0.9-1.3-1.4-0.2-2.4c1.2-0.2,0.2,0.9,0.7,0.7c1.9,0.7,0.5-1.6,1.9-1.9l0,0.3c0.9-0.3,0.1-1.8,0.8-2.8c0,0,0.1,0.1,0.3,0.2
		c-0.5-1.2-0.1-2.7,0.3-3.7c0.5,0.7,0.1,0.6,0.9,0.9c0.2-0.5-1.2-0.6-0.8-1.5c0.6,0,1.3-0.4,2,0l-0.5,0.8c1.2,0.2,0.6-1,1.1-1.3
		l0.4,0.3c0.7-1.2-0.4-2,0.7-3.2l-0.4-0.1c-0.5-1.4,1-0.1,0.8-1.3l1.1,0.6c0.1-0.6,0.2-2.3,0.7-3.2c0.3,1,0,2.2,0,3.1
		c0.3-0.4,1-1.5,0.8-2.1c-0.1,0.2,0,0.6-0.3,0.7c-0.3-1.1-0.1-2.1,0.7-2.9c1.7,1.8,2.3-1.7,4.3-0.9c0.4-1,1.1-1.6,1.9-2.1
		c0.4-0.3,0.9-0.5,1.3-0.8c0.4-0.3,0.9-0.6,1.3-1c-1.8-0.9,0.5-0.5-0.9-1.8c0.3-0.4,0.5-0.5,0.6-0.5l1.9-0.1c0.6,0.2-0.1,0.6,0.2,1
		c0.9-0.6,0.9,0.3,1.8,0.2c-0.6-0.4-0.3-1,0.3-1.2l-1.3-0.1c0.6-1.8,2.1,0.4,2.7-1.3l0,0.8c0.4-0.8,2.4-1.8,2.1-3.5
		c0.3,0.1,0.7,0.4,0.5,0.7c1.7-0.9,2.7-3.8,4.5-3.9l0.1,0.5c0.2-0.3,0.1-1.1,0.7-0.9c0.1,0.2,0.1,0.5,0.3,0.4c0.1-0.2,0.4-1.2,1-1.2
		l-0.1,0.7c1-0.2,1.4-0.9,1.8-1.6c0.4-0.7,0.7-1.6,1.3-2.1c0.7,1.2,2.2,1,2.9,0.8l0.1,0.2c2-0.9,2.8-2.6,4.5-4
		c1.7,0.8,4.2-0.9,6.4-0.8c-0.4-0.1-0.3-1.1,0-1.3c0.5,0.2,1-1.3,1.3,0l-0.2,0c0.7,1.1,1.5,0.6,2.2,0.4l-0.3-1.7
		c0.6,0.5,1.2,0.5,1.8,0.5c0.6,0,1.2-0.3,1.7-0.5c1.1-0.4,2.1-1,2.8,0.1c0.4-0.5,1-0.5,1.4-1l0.1,0.9c1.3,0.1,2,0.1,3.6-0.1
		l-0.3,0.6c0.9,0,1-2.6,1.9-2.7l0.3,1.3c0.8-0.1,1.6,0.3,2.4,0.5c0.8,0.2,1.6,0.2,2.4-0.4c0,0.2-0.1,0.6-0.4,0.6
		c0.8,0.1,2.7,1.2,2.7-0.6c-0.1,1.2,1.6,0.3,2.6,0l-0.3,0.8c0.9-1,1-1.3,2.1-1.4c0.2,0.2,0.1,0.7-0.2,0.4c0.7,0.6,0.8-0.7,1.7,0
		l-0.5,0.5c0.8,0.3,0.8,0,1.4-0.6c0.6-0.2,1.5,0.6,1.4,1.4c0.2-0.4,0.9-1,1.3-0.6c0,0.3-0.3,0.4-0.4,0.5c1.1,1,2.3-0.3,3,0.8
		c-0.1,0.3-0.1,0.4,0,0.5c-1.1-0.4-1.9-0.7-1.8-0.7c-0.2,0.8,0.5,1.2-0.5,2c0.8-0.3,2.5-1.3,3.2-0.5c0,0.1,0,0.2,0,0.3l-0.1,0.1
		c0.2,0.2,0.4,0.1,0.6,0.1c0.2,0.2,0.3,0.4,0.6,0.5c-0.2,0.7,0.8,0.7,1.2,0.9c0.3-0.8,0.8-0.5,0.6-1.4c0,0.1-0.1,0.1-0.4,0
		c-0.1,0-0.2,0-0.2,0c0,0,0,0,0.1-0.1c-0.3-0.1-0.6-0.2-1.1-0.4c0.5-0.3,1-0.5,1.3,0.2c0.4-0.4,0.9-0.9,1.2-1.1
		c0.1,1.4,0.9,2.5,0.7,3.3c1.5,0.1,3,1.2,4.6,0.1c0.5,0,0.2,0.6,0.2,0.9c-0.3,0-0.5-0.1-0.7,0c0.9,0,2.1,1,2.9,0.1
		c0.6,1-1,0.6,0.2,1.2l-0.3,0.2c0.7,1.5,1.9,1.5,3.3,1.5c1.3,0.1,2.6,0.3,3.1,2.2c-0.1-0.2-0.1-0.4,0-0.5c1,1.5,2.6,2.4,4,3.4
		c0.7,0.5,1.4,1,2,1.7c0.6,0.6,1.1,1.4,1.4,2.3c0.4,0.9,1.1,0.5,1.9,0.5l-0.5,0.8l1.5,0c1.6,0.5,0,3.4,2.3,3.7l0.3-0.6
		c0.3,0.6,1.6,1.3,1,1.7c0.1,0,0.7-0.3,0.6,0.1l-0.4,0.3c0.6,0.2,1.1,0.5,1.7,0.7c0.5,1.2-1.7,1.1-0.7,2.5c0.5,0.4,2.2,0.6,2.4,0.3
		c-0.1-0.2-0.1-0.7,0.3-1l0.6,0.4c0.6-0.4,1.4-0.7,1.9-1.1c0.5-0.4,0.9-1.1,0.8-2c-0.5-0.1-0.9-0.3-1.4-0.4l0.4-0.7l0.6,0.7
		c0.2-0.8-0.5-0.8-1-0.8c0.2-0.3,0.4-0.6,0.3-0.9l-1.8,0c0.4-0.5,1.2-0.3,1-1.1c-0.8,0-0.7,1.2-1.6,0.8c0.2-0.8,0.7-1.1-0.1-1.2
		c0.2-0.3,0.5-0.4,0.8-0.3c-0.7-0.1-1.1-1-1.9-0.7c0.3-1-1.4-1.3-0.3-2.2c-0.4,0.1-1.5,0-1.9-0.3c1.9-0.5-1.2-1.5,0.2-2.5
		c-1.5,0.5-2.3-1.3-3.7-1.6c0.1,0,0.4-0.1,0.4,0c-0.4-0.6-0.3-1-0.4-1.5c-0.9,0.8-1.9,0.3-2.8,0.5c0.2-1.5,1.3-0.7,1.9-1.8
		c-0.6,0.8-1.8-0.2-2.1,0.6c0-1-0.2-0.6,0.2-1.6c-1.1,1.1-0.6-0.2-1.7,0.2c-0.2-1.2,0.7-1.3-0.4-1.6C253.7,40.9,254.8,41,254.8,41z
		 M232.3,30.8C232.3,30.8,232.3,30.8,232.3,30.8c0.2,0,0.4,0.1,0.5,0.1C232.7,30.9,232.5,30.8,232.3,30.8z M230.3,30.1
		c0.2,0.1,0.5,0.2,0.8,0.3c0,0.3-0.2,0.6-0.4,0.5C230.9,30.8,230.5,30.4,230.3,30.1z M232,37.3c-0.3,0-0.3-0.2-0.3-0.4
		c0.1,0,0.3,0.1,0.5,0.1c0,0,0.1-0.1,0.1-0.1C232.2,37.1,232.1,37.2,232,37.3z"/>
	<path class="st0" d="M232.9,36.5c0,0,0.1,0,0.1,0c0-0.1-0.1-0.2-0.1-0.3c-0.1,0.1-0.1,0.1-0.2,0.2
		C232.8,36.4,232.9,36.4,232.9,36.5z"/>
	<path class="st0" d="M147.2,140.3L147.2,140.3C147.2,140.3,147.2,140.3,147.2,140.3C147.1,140.3,147.2,140.3,147.2,140.3z"/>
	<polygon class="st0" points="202.1,25.7 202.1,25.9 202.2,25.7 	"/>
	<path class="st0" d="M150.2,151.2c-0.1,0.1-0.1,0.1-0.1,0.2C150.1,151.4,150.2,151.3,150.2,151.2z"/>
	<path class="st0" d="M152.7,155.3l0.1,0.7C152.9,155.7,152.8,155.4,152.7,155.3z"/>
	<path class="st0" d="M154.6,158.5c0.2-0.1,0.3-0.1,0.3-0.2l0,0L154.6,158.5z"/>
	<path class="st0" d="M132.2,104.5c0-0.1,0-0.1,0-0.1C132,104,132.1,104.2,132.2,104.5z"/>
	<path class="st0" d="M136.9,121.6c-0.2-0.1-0.4-0.3-0.6-0.4C136.4,121.5,136.4,121.7,136.9,121.6z"/>
	<path class="st0" d="M133.4,84.3C133.5,84.3,133.5,84.3,133.4,84.3l0-0.1L133.4,84.3z"/>
	<path class="st0" d="M136.2,120.4c-0.1,0.3,0,0.6,0.2,0.8C136.3,120.9,136.4,120.6,136.2,120.4z"/>
	<path class="st0" d="M164.8,170.8l0.1,0.2c0,0,0.1-0.1,0.1-0.1L164.8,170.8z"/>
	<path class="st0" d="M165,170.9l0.2,0.1C165.1,170.9,165.1,170.8,165,170.9z"/>
	<path class="st0" d="M165.7,171.1l-0.5-0.1C165.3,171,165.4,171.2,165.7,171.1z"/>
	<path class="st0" d="M161.7,167l-0.3,0.2C161.5,167.1,161.6,167.1,161.7,167z"/>
	<path class="st0" d="M160.7,165.9c0.2,0.3,0.1,1.1,0.6,1.4l0.2-0.1C160.9,167.3,161.3,165.8,160.7,165.9z"/>
	<path class="st0" d="M159.7,158.7l0.6,1.1c0.1-0.4,0.3-0.9,0.7-0.5C160.9,157.5,160.6,160,159.7,158.7z"/>
	<path class="st0" d="M157.8,155.5c0.5,0.4,0.4-0.3,0.6-0.4C157.9,154.9,157.8,154.9,157.8,155.5z"/>
	<path class="st0" d="M144.2,132.4l0.8-0.3C144.7,131.8,144.7,132.3,144.2,132.4z"/>
	<polygon class="st0" points="138.4,129.1 138.1,129.7 138.9,129.7 	"/>
	<polygon class="st0" points="142.9,124.3 143.1,124.5 142.5,123.8 	"/>
	<path class="st0" d="M142.5,81.5l-1-0.2C141.6,81.7,142.6,82.1,142.5,81.5z"/>
	<path class="st0" d="M150.7,64.5c0.5,0.1,1.1-0.1,0.9-0.6C151.4,64.1,150.8,64.2,150.7,64.5z"/>
	<polygon class="st0" points="198.4,34.5 198.1,35 198.7,34.5 	"/>
</g>
<g>
	<path class="st1" d="M296.9,276.8c0.1,0.3,0.5,0.7,0.7,0.5l-0.5-0.9L296.9,276.8z"/>
	<path class="st1" d="M299.4,277.2c-0.1-0.6-0.4-1.5-1.2-2.1c0.4,1,0.1,0.7,0.6,1.8c-0.1,0.3-0.5,0-0.8-0.3c0.1,0.3-0.4,0.1-0.1,0.7
		c0.8,0.4,1.1,0.2,1-0.6C299.2,276.8,299.3,277,299.4,277.2z"/>
	<path class="st1" d="M318.8,263l-0.2,0C318.7,263,318.7,263,318.8,263z"/>
	<path class="st1" d="M330.5,253.8c-0.1,0.1,0,0.2,0,0.3C330.6,254,330.6,253.9,330.5,253.8z"/>
	<path class="st1" d="M333.2,253c-0.1,0-0.1,0-0.2,0C333.2,253.1,333.2,253.1,333.2,253z"/>
	<path class="st1" d="M318.8,263l0.5,0C319.1,262.7,319,262.9,318.8,263z"/>
	<path class="st1" d="M300.3,273.1c0,0.1,0,0.2,0,0.3c0-0.1,0-0.2,0.1-0.2C300.4,273.2,300.3,273.2,300.3,273.1z"/>
	<path class="st1" d="M314.3,267.8L314.3,267.8c0,0.2,0,0.3,0.1,0.5L314.3,267.8z"/>
	<path class="st1" d="M310.6,271.2c0.1,0-0.4-0.7-0.6-1.1c0.2,0.3,0.2,0.5,0.2,0.6C310.2,270.9,310.4,271,310.6,271.2z"/>
	<path class="st1" d="M303.5,275.2l0,0.2C303.5,275.3,303.5,275.2,303.5,275.2z"/>
	<path class="st1" d="M317.2,265.7c0.1,0.1,0.2,0.2,0.2,0.2C317.4,265.8,317.3,265.7,317.2,265.7z"/>
	<path class="st1" d="M420.5,169.8c0,0.1,0.1,0.1,0.1,0.1C420.5,169.8,420.5,169.8,420.5,169.8z"/>
	<path class="st1" d="M427.8,169.4L427.8,169.4c0.1,0.2,0.2,0.4,0.3,0.5L427.8,169.4z"/>
	<path class="st1" d="M337.5,250.9C337.5,250.9,337.5,250.9,337.5,250.9C337.4,251.1,337.5,251,337.5,250.9z"/>
	<path class="st1" d="M369.7,222.9c-0.9-0.3-0.1-1.3-1.2-1.5C368.8,221.6,368.9,222.9,369.7,222.9z"/>
	<path class="st1" d="M300.5,273.1c0-0.1,0.1-0.1,0.2-0.1C300.5,273,300.5,273.1,300.5,273.1z"/>
	<path class="st1" d="M368.5,221.4C368.5,221.4,368.5,221.4,368.5,221.4l-0.1,0C368.4,221.4,368.5,221.4,368.5,221.4z"/>
	<path class="st1" d="M345.3,243.6c-0.1-0.1-0.2-0.2-0.3-0.2C345.1,243.4,345.2,243.5,345.3,243.6z"/>
	<path class="st1" d="M338.4,247.8l0.2,0C338.5,247.7,338.5,247.8,338.4,247.8z"/>
	<path class="st1" d="M347.7,240c0.1,0,0.2,0.1,0.3-0.1c0,0-0.1,0-0.1-0.1C347.9,239.9,347.9,240,347.7,240z"/>
	<path class="st1" d="M351,237.2c-0.1,0-0.1-0.1-0.2-0.1c0,0-0.1,0.1-0.1,0.1L351,237.2z"/>
	<path class="st1" d="M410.7,178.6c0.2,0.1,0.5,0.3,0.7,0.5C410.9,178.6,411.3,178,410.7,178.6z"/>
	<path class="st1" d="M300.6,273.5c-0.1-0.2-0.2-0.3-0.1-0.4c0,0-0.1,0.1-0.1,0.1C300.5,273.4,300.5,273.5,300.6,273.5z"/>
	<path class="st1" d="M343.3,234.5l0.6-0.3C343.7,234.2,343.5,234.3,343.3,234.5z"/>
	<path class="st1" d="M387.2,198.6l0.1-0.2C387.2,198.4,387.1,198.5,387.2,198.6z"/>
	<path class="st1" d="M345.4,232.7c0.3,0.2,0.5,0.2,0.7,0.2c0-0.1,0-0.1-0.1-0.2L345.4,232.7z"/>
	<path class="st1" d="M411.4,179C411.4,179,411.4,179,411.4,179C411.4,179,411.4,179,411.4,179z"/>
	<path class="st1" d="M413.5,174.5c-0.5,0.4,0.5,1.1,0.8,1.7c-0.4,0.8-0.8-0.4-1.4-0.7c-0.2,0.6,0.2,1.6-0.1,1.8
		c-0.1-0.1-0.2-0.1-0.3-0.4c0.2,1-1.1,1-0.8,2.3c-0.1-0.1-0.2-0.1-0.2-0.2c0.5,0.4,0.8,0.8,1.1,1.2c-0.2,0.2,0.1,0.9-0.5,0.4
		c0.2-0.1,0-0.3-0.1-0.6l0,0.5c-0.9-0.7,0.1-0.6-0.4-1.2c-0.2,0.7-0.2,1.8-0.7,1.9c-0.8-0.8,0.6-1-0.5-1.3l0.8-0.1
		c-1.5-0.9,0.4-0.2-1.1-1.3c-0.9,0.4-0.4,1.1-1.4,1.5c0.2,0.6,0.6,0.6,0.8,1.2c-0.3,1.7-2.5-1.4-2.4,0.3c0.3,0.7,1.1,1.8,0.1,1.7
		l-0.6-1.1c-0.8,0.5,0.7,1.7-0.5,1.7c-0.2-0.5,0.3-0.8,0.1-0.8c-1.1-0.3,0.1,0.8-0.2,1.1l-0.8-0.8c-0.6,0.7-0.9,2-1.6,2.9
		c-0.2-0.3-0.2-0.7-0.6-0.7c-0.7,1.3-2.3,1.7-3.7,2.1l0.2,1c-0.1,0.1-0.4-0.2-0.5-0.4c-0.6,0.1,0.4,0.5,0.4,0.9
		c-0.2,0.2-0.6-0.2-0.7-0.5c-0.2,1.2-0.8,2.9-2.2,2.8l0-0.3c-0.8,0.2,0.6,2-0.5,1.8l0-0.2c-1.5,0.7-2.3,2.5-4.1,2.2
		c0.7,1.2-1.6,0.6-0.5,2c-1.3-0.1-1.3-0.5-2.7-0.2c-0.3,0.2,0.4,1.2,0.2,1.6l-0.6-0.7l0.2,1.2l-1-0.7l-0.1,0.4
		c0.2-0.1,0.5,0.1,0.7,0.3c-0.2,0.7-1.6,0.5-1.9,0.1l-0.6,1.6c-0.2-0.3-0.1-0.6-0.1-0.9c0,1.3-0.8-0.7-0.7,0.5
		c0.2,0.1,0.3,0.5,0.5,0.6c-0.7-0.2-1.3,0.3-1.6,0.9l-0.3-0.6c-0.9,0.6-1.5,1.7-2.5,2.5c0.5,0,1.2,0.9,1,1.2l-0.8-0.7
		c0.2,0.6,0.5,0.1,0.7,1c-0.4,0.2-1-0.7-1-1.1l-0.2,0.6c-0.2-0.2-0.2-0.4-0.5-0.7c0.2,0.6-1.4-0.2-0.9,0.9l-0.2-0.2
		c-0.9,0.8-1.1,1.4-1.8,2.1c0.6,0.7,0.1,0.8,0.4,1.5c-0.7,0.3-1.8,0.2-2.4,0.9c-0.2,0.7,0.3,0.7,0.5,1.3c-0.6-0.6-1.2,0-1.2-0.7
		c-0.7,0.8-0.9,1-1.5,2.4c0.3,0.2,0.5,0.2,0.7,0.4c-0.1,0.3-0.6,0.1-0.9-0.2l0-0.1c-0.4,1.9-4.2,0.4-4,2.5l0-0.1l-0.4,1.5
		c-0.5,0.3-0.1-0.7-0.8-0.8c-0.1,1.9-1.7,1.2-2,2.6c-2.2-1.3-2.2,2.1-4.1,1.6l0.4,0.4c0.1,0.6-0.5,0-0.7,0c0.3,0.3,0.6,0.2,0.6,0.5
		c-1.5,2.1-4.5,2.7-6.8,4c-0.8,0.5,1.5,2.6-0.3,2.3l-0.4-1c-0.6,2.2-3,2.5-3.7,4.5c-0.1-0.3-0.3-0.5-0.1-0.6
		c-0.8-0.3-1.1,0.9-0.7,1.4c-0.3,0.1-0.4-0.4-0.8-0.5c-0.6-0.1-0.1,1.4-0.8,0.9c-0.1-0.1-0.1-0.3-0.1-0.4c0,0.4-1,0.7-0.2,1.2
		c-0.8,0.1-0.8,1.2-1.5,1.1c0.4,1-1.2,0.4-0.4,1.5c-0.9-1.1-1.7-0.1-1.6,0.7c-0.2-0.4-0.6-0.1-0.8-0.7c-0.4,0.3-0.6,0.8,0,1.3
		c-1.8-0.7-0.5,2.3-2.3,0.9c-0.6,1.6-1.4,2.8-2.2,4c-0.9-1.1,1-1.1,0-2.2c-0.6,1.3-0.4,2.7-1.6,3.2c-0.4,0.1-0.3-0.6-0.3-0.9
		c-0.6,1.3-2,1.5-2.3,2.8c-0.1-0.1-0.1-0.3-0.1-0.5c-0.1,0.2-0.5,0.2-0.1,0.7l0.1-0.3c0.9,0.5,0.6,2.1,0.9,2.5
		c-0.9-1.7-1.2,0.4-2.2-1.8c0,0.2,0,0.5,0.3,0.9c-0.2,0-0.5-0.1-0.6-0.6c-0.4,0.8,0.3,1.1-0.3,1.6c-0.2-0.2-0.2-0.4-0.3-0.8
		c0.1,0.7,0.2,1.4-0.4,1.6c-0.1-0.2-0.3-0.3-0.2-0.4c-0.7,0.8-0.3,2.4-1.6,2.7c-0.6-1.3-0.6-0.1-1.4-1l-0.2,0.7l0.6,0.3
		c-0.4,0.3-0.2,1.3-0.8,1.3l0-0.6l-0.6,0.8l0.7,0c0,0.8,1,1.1,0.2,1.3c0-0.2-0.4,0.3-1.1,0c0,0,0,0,0,0c0,0.5,0.1,0.9-0.4,1
		c-0.3-0.2-0.8-1.1-1-1.2c0.4,0.9-0.8,1-0.4,2.1c-0.1-0.3-0.5-0.7-0.6-0.8l0.3,0.8c-0.4,0-0.5-0.1-0.8-0.5c-0.7,0.4,1.2,1,0,1.1
		c0-0.1-0.1-0.2-0.1-0.4c-0.9,0.3-1,1.5-1.9,1.7c-1-0.8,0.4-0.7-0.5-1.3c-0.8,0.9-1,2.7-2,3.2l0.2,0c1,1.4-1.2-0.1-1.1,0.9
		c0-0.2-0.5-0.8-0.4-0.7c-0.8,0.3-1,1.4-1.5,2.5l-0.2-0.4c-0.6,0-1.1,0.6-1.6,0.8c0.2,0.4-0.1,0.6,0.4,0.9c-2.8-0.9-1.4,2.9-3.8,2.2
		c0.1-0.1,0.1-0.5,0-0.5l-0.6,1.1c0.5,0.5,0.4,0.2,1,0.5c0.2,0.4,0.1,0.9-0.1,1.1c0.1-0.7-0.8-0.9-1.2-1.1c0.2,0.1,0.3,0.4,0.4,0.5
		c-1.3-0.6,0.9,1.2-0.3,1.1l-0.2-0.3c-0.1,0.4,0,0.9-0.3,1.1c-0.7-0.6,0-0.5-0.4-1.1c-0.3,0.3,0.3,1.8-0.6,1.5
		c0-0.3,0.2-0.5,0.2-0.8c-1-0.5-0.9-0.2-1.2-0.1l0,0l-0.9,0.2l0.3,0.1c1,2.1-0.7,1.1-0.3,2.7c-0.3-1.5-0.4-0.7-1-1.5
		c-0.3-0.1-0.8-0.1-0.9-0.4c0.2,0.8-0.9-0.1-0.6,1.2c-0.2-0.2-0.3,0.2-0.8-0.4c-0.2,0.5,0.4,0.3,0.7,0.7c0.1,1.3-2.2,0.2-2.1,2
		c-0.3,1.1,0.2,2-0.1,2.9c-0.5-0.2-0.5-1-0.5-1c-0.7,0-0.9,0.3-1,0.8c-0.1-0.3-0.3-0.4-0.7-0.6c-0.2,0.3,0.5,1-0.1,1
		c-0.2-0.3-0.4-0.8-0.5-1.2c-0.1,0.5-0.1,1.2-0.2,1.7c-0.4-0.3-0.3-0.8-0.4-1.2c-0.2,0.5-0.7,1.2-0.2,1.9l0.4,0
		c-0.1,0.1-0.5-0.5-0.5-0.7c-0.1-0.8,0.7-0.2,0.9,0.1l-0.1,0.4c1.4,1.2,0.8-1,1.3-1.4l0.6,1.2l-0.2-1.3c0.3,0.2,0.9,0.7,0.8,1
		c0.8,0.2,0-0.6,0.8-0.3c0.1,0.1,0.1,0.1,0.1,0.2l0.1-0.6c0.1,0.3,0.7,0.7,0.3,0.7c1.1,0.1,0.3-1.6,1.2-1l0,0.1
		c0.6-1-0.5-0.8-0.6-2.2l2,1.5l-0.5-0.8c0.1,0,0.3-0.1,0.5,0.2c-0.1-0.8-0.3-0.3-0.5-0.9c1,0.3,0.9-1.3,2-0.2
		c-0.3-0.7-0.8-0.1-0.6-0.9c1.2,1.2,0.3-0.7,1.2-0.4c0.4,0.8-0.2,0.7,0.7,1c-0.7-1.3,0.9-0.4,1.1-0.9c-0.7-0.9,0.4-1,0.7-1.7
		c0.2,0.3,1.4-0.4,2.2-0.5l0.1,0.2c-0.7-1,0-1.2,0.2-1.7c0.4,0.5,0.5,0.8,0.5,1.2l0.4-0.3c-0.2-0.4-0.2-0.6,0-0.9l0.5,0.7
		c0.4-0.4,0.3-1.6,1.3-1.6c-0.5-0.6-1.9-1.3-1.6-2.3c0.3,0.3,0.8,0.9,0.8,1.1c0-0.1,0-0.4,0.2-0.4l0.2,0.8c0.5,0-0.3-0.6,0-0.7
		c0.4,0.5,0.5,0.2,0.7,0.6c0,0.1-0.4,0-0.3,0.2c0.3-0.1,0.9-0.1,1.3,0.2c-0.3-0.3-0.5-0.6-0.4-0.9c0.4-0.4,0.6,0.4,1.1,0.5
		c-0.2-0.4,0.4-0.3-0.2-1.1c0.1-0.1,0.4,0.2,0.7,0.3c0-0.5,1.1-1,0.1-1.6l-0.1,0c0,0,0,0,0-0.1c0,0,0,0,0,0l0,0c0.2-1.4,2-1,2.5-2
		l0.2,0.2c0.2-0.7,0.9-1,0.8-1.8c0.1-0.1,0.7,0.2,0.9,0.5c0.2-0.5,0-0.8,0.9-0.8c0,0.7,0.4,0.3-0.1,0.6c0.6-0.2,1.1,0.1,1-1
		c0.3,0.8,1,0.5,1.1,0.1l-0.7-0.2c0.2-0.3,0.4-0.4,0.7-0.6l0.6,0.9c1.8,0.2,0.3-3.1,2.4-2.1c-0.2-0.8-0.9,0-1.2-0.8
		c0.5-0.3,2,0.5,2.1,0.4c1-0.1-0.4-1.7,0.5-1.9c-0.3-0.2-1-0.9-0.8-1.6c0.5-0.3,1.6,0.7,1.5,1.2c-0.1,0.1-0.2,0.1-0.3,0
		c-0.1,0.2-0.1,0.5,0.3,0.7l-0.2-0.3c0.5,0.1,1-0.4,1.3,0.2c0.1-0.6-0.3-0.6-0.6-0.5c0.9-0.1,0.9-0.7,1.7-0.9
		c-0.2-0.1-0.6-0.3-0.5-0.4c1.2-0.4-0.1-0.9,0.4-1.5c0.7,0.2,0.8,1.1,1,0.3c0.6,0,0.7,0.7,0.8,1.1c0.1-1,1.3-0.5,1.7-0.6l-0.1,0.5
		c0.1-0.3,0.2-0.4,0.3-0.5l-0.6-0.4c0.2,0,0.4-0.2,0.6,0.1c-0.1-0.5-0.9-0.8-1-1.6c0.5,0.1,0.4-0.9,1.1-0.2
		c-0.9,0.3,0.7,0.7,0.2,1.3c0-0.2,0.2-0.3,0.4-0.3c0.1,0.1,0.1,0.2,0.1,0.3c1.2,0.1-0.4-1.1,0.3-1.7c0.3,0.5,0.8,0.7,0.9,0.5
		c-0.3,0.2-0.7-0.6-0.8-1.1c0.7,0,0.3-0.7,0.5-0.8l-0.4,0.1c-0.3-0.5,0-0.6,0.2-1c0.3,0.3-0.1,0.5,0.1,0.5c-0.3-1,1.4,0.1,1.5-0.8
		c0.5,0.1,0.7,0.8,1.1,0.8c0.1-1,1.1,0.1,1.2-0.8c-0.6-0.4-0.6-0.3-0.6-1.2l-0.6,1.2l-0.1-1.3c-0.3,0.2-0.3,0.9-0.5,0.9
		c-0.1-0.7,0-0.5-0.6-0.9c1.1,0.5,0.3-1.1,1.3-0.9l1.2,1.4c1.2,0.1,0.6-1.7,1.7-2.1l-0.5,0c-0.4-0.7,0.5-0.5,0.5-1
		c0.4,0.5,0.7,0.5,1.1,0.7c-0.3-0.3,0.7-0.5-0.1-1.5l0.9,0.3c0.9-0.3-0.4-2,0.4-2.4c0.2,0.7,0.8,0.8,0.7,1.5
		c0.2-0.2,0.5-0.3,0.2-0.6c0.4,0.2,0.1-1.2,0.7-0.9c-0.1-0.3-0.5-0.8-0.2-1c0.1,0.1,0.2,0.2,0.2,0.2c-0.2-0.2,0.1-0.6-0.5-1
		c1.9,0.9,1.8-1.7,3.5-0.9c0.3-0.6,0.8-1.2,1.2-1.6c0.1,0.2,0.2,0.2,0.1,0.3c1-0.1-0.8-1.7,0.3-1.8c1,0.5,0,0.7,0.5,0.8
		c1.4,1.5,0.7-0.9,1.9-0.4l0,0.2c0.8,0.2,0.4-1.3,1-1.7c0,0,0.1,0.2,0.2,0.2c-0.3-1.1,0.2-2,0.6-2.7c0.3,0.8,0,0.5,0.7,1.1
		c0.2-0.3-0.9-0.9-0.6-1.5c0.4,0.2,1.1,0.2,1.7,0.8l-0.4,0.4c1,0.7,0.6-0.5,1-0.6l0.3,0.4c0.6-0.7-0.2-1.7,0.7-2.3l-0.3-0.2
		c-0.4-1.3,0.8,0.2,0.6-0.8l0.9,0.8c0.1-0.5,0.2-1.7,0.5-2.4c0.3,0.9,0,1.8,0,2.5c0.3-0.2,0.9-0.9,0.6-1.5c0,0.2,0,0.5-0.2,0.5
		c-0.3-1-0.2-1.8,0.4-2.2c1.5,1.9,1.8-0.7,3.4,0.4c0.4-1.5,2.2-1.3,3.2-2.4c-1.6-1.1,0.3-0.3-1-1.7c0.2-0.3,0.3-0.4,0.4-0.3l1.5,0.2
		c0.6,0.3,0,0.5,0.3,0.9c0.7-0.4,0.8,0.4,1.5,0.5c-0.5-0.5-0.4-0.9,0.1-1l-1-0.3c0.1-1.5,1.7,0.7,1.9-0.8l0.1,0.7
		c0.2-0.6,1.6-1.3,1-2.8c0.2,0.1,0.7,0.4,0.6,0.7c1.2-0.7,1.2-3.1,2.6-3.1l0.2,0.4c0.1-0.3-0.2-1,0.3-0.8c0.1,0.2,0.2,0.4,0.3,0.4
		c0-0.2,0-1.1,0.4-1.1l0.1,0.6c1.4-0.4,0.7-2.3,1.3-3.2c0.9,1.1,2,0.8,2.5,0.6l0.1,0.2c1.2-0.8,1.2-2.5,1.9-3.8
		c1.6,0.6,2.6-1.4,4.2-1.6c-0.3-0.1-0.7-0.9-0.6-1.1c0.4,0,0.1-1.3,0.8-0.3l-0.1,0.1c1,0.8,1.3,0.1,1.7-0.2l-1-1.3
		c2.6,1,2.1-3,4.1-1.8c0-0.5,0.3-0.8,0.3-1.3l0.6,0.7c0.8-0.4,1.3-0.6,2-1.5l0.2,0.6c0.5-0.4-1.1-2.5-0.6-2.9l1,0.9
		c0.8-0.7,2.4-0.5,2.5-2.2c0.1,0.2,0.3,0.5,0.2,0.6c0.4-0.3,2.1-0.6,0.8-1.9c0.8,0.9,0.9-0.6,1.1-1.4l0.5,0.7
		c-0.3-1.2-0.5-1.4-0.2-2.1c0.2,0,0.6,0.4,0.3,0.4c0.7,0-0.2-0.9,0.6-1l0.2,0.6c0.5-0.3,0.2-0.5,0.1-1.2c0-0.5,1-0.5,1.5,0
		c-0.3-0.4-0.4-1.1,0-1.2c0.2,0.2,0.3,0.4,0.3,0.5c1.1-0.2,0.4-1.7,1.5-1.5c0.2,0.2,0.3,0.3,0.4,0.3c-0.6,0.5-1.1,0.8-1.1,0.7
		c0.5,0.6,1.1,0.3,1.4,1.5c0-0.8-0.2-2.3,0.5-2.4c0.1,0,0.1,0.1,0.2,0.2l0,0.1c0.2,0,0.2-0.2,0.2-0.3c0.2,0,0.4,0,0.5-0.1
		c0.5,0.5,0.8-0.2,1-0.3c-0.6-0.7-0.2-0.8-1-1.1c0.1,0,0,0.1-0.1,0.3c0,0-0.1,0.1,0,0.2c0,0,0,0,0-0.1c-0.1,0.1-0.3,0.3-0.5,0.5
		c-0.1-0.5-0.2-1,0.4-0.8c-0.2-0.5-0.5-1.1-0.6-1.4c1.1,0.7,2.2,0.7,2.7,1.2c0.4-1,1.5-1.7,0.8-3.3c0.1-0.3,0.5,0.2,0.8,0.3
		c0,0.2-0.2,0.3-0.1,0.6c0.1-0.7,1.1-1.1,0.4-2.1c0.8,0,0.4,1.1,1,0.3l0.1,0.4c2.6,0.3,0.3-4.2,3.4-3.6c-0.2,0-0.3,0-0.4-0.2
		c2.4-0.7,2.9-3.8,5.7-4c0.7-0.2,0.3-0.8,0.2-1.5l0.7,0.6l-0.2-1.3c0.2-1.2,2.8,0.7,2.7-1.2l-0.5-0.4c0.4-0.2,0.8-1.2,1.2-0.6
		c0-0.1-0.3-0.6,0-0.5l0.3,0.4l0.3-1.3c0.9-0.3,1.2,1.6,2.2,0.9c0.2-0.4,0-1.9-0.3-2.1c-0.2,0.1-0.6,0.1-0.9-0.3l0.1-0.5
		c-0.9-1.2-1.6-2.5-3.1-2.7l0.1,1.1l-0.6-0.4l0.4-0.4c-0.7-0.3-0.5,0.3-0.4,0.8c-0.3-0.3-0.5-0.4-0.7-0.4l0.4,1.5
		c-0.4-0.4-0.5-1.1-1.1-1c0.2,0.7,1.1,0.8,0.9,1.5c-0.7-0.3-1-0.8-0.9-0.1c-0.3-0.3-0.4-0.5-0.4-0.7c0,0.6-0.6,0.7-0.2,1.5
		c-0.8-0.4-0.8,0.9-1.6-0.2c0.1,0.3,0.2,1.2,0,1.5c-0.6-1.7-1,0.7-2-0.8c0.6,1.4-0.8,1.5-0.8,2.6c0-0.1-0.1-0.4,0-0.3
		c-0.4,0.2-0.8-0.1-1.2-0.1c0.8,1,0.4,1.6,0.6,2.5c-1.2-0.6-0.7-1.3-1.6-2.1c0.7,0.8-0.1,1.4,0.6,1.9c-0.8-0.3-0.5-0.1-1.3-0.7
		c0.9,1.2-0.1,0.4,0.2,1.4c-0.9-0.2-1.1-1-1.2-0.2C413.4,175.3,413.5,174.5,413.5,174.5z M403.6,186.4
		C403.6,186.4,403.6,186.4,403.6,186.4c0.1-0.1,0.1-0.2,0.2-0.3C403.7,186.2,403.7,186.3,403.6,186.4z M402.6,187.2
		c0.1-0.1,0.3-0.2,0.4-0.3c0.2,0.2,0.4,0.5,0.3,0.6C403.2,187.3,402.9,187.3,402.6,187.2z M408.6,190.2c-0.1,0.2-0.2,0.1-0.4,0
		c0.1-0.1,0.1-0.2,0.2-0.3c0,0,0-0.1-0.1-0.1C408.5,190,408.6,190.1,408.6,190.2z"/>
	<path class="st1" d="M408.2,189.1c0,0,0-0.1,0-0.1c-0.1,0-0.2-0.1-0.2-0.1C408,189,408.1,189.1,408.2,189.1
		C408.1,189.1,408.1,189.1,408.2,189.1z"/>
	<path class="st1" d="M318.6,263L318.6,263C318.6,262.9,318.5,262.9,318.6,263C318.5,262.9,318.5,262.9,318.6,263z"/>
	<polygon class="st1" points="388,197.3 388.1,197.5 388.1,197.3 	"/>
	<path class="st1" d="M311.2,265.2c-0.1-0.1-0.1-0.1-0.2-0.1C311,265.1,311.1,265.1,311.2,265.2z"/>
	<path class="st1" d="M308.7,267l-0.5,0C308.5,267,308.6,267,308.7,267z"/>
	<path class="st1" d="M306.7,268.2c0.1,0.1,0.1,0.2,0.2,0.3c0,0,0,0,0,0L306.7,268.2z"/>
	<path class="st1" d="M334.5,243.3C334.5,243.3,334.5,243.3,334.5,243.3C334.6,243,334.5,243.1,334.5,243.3z"/>
	<path class="st1" d="M327.3,252.1c0-0.2,0-0.4,0-0.6C327.1,251.6,327,251.7,327.3,252.1z"/>
	<path class="st1" d="M343.2,234.5C343.2,234.5,343.2,234.5,343.2,234.5C343.3,234.5,343.3,234.5,343.2,234.5L343.2,234.5z"/>
	<path class="st1" d="M327.7,251.2c-0.3,0-0.4,0.1-0.4,0.3C327.5,251.5,327.7,251.4,327.7,251.2z"/>
	<path class="st1" d="M298.6,274.4l-0.1,0c0,0,0.1,0.1,0.1,0.1L298.6,274.4z"/>
	<path class="st1" d="M298.6,274.6l0,0.2C298.6,274.7,298.7,274.7,298.6,274.6z"/>
	<path class="st1" d="M298.5,275.1l0.1-0.3C298.5,274.8,298.4,274.8,298.5,275.1z"/>
	<path class="st1" d="M301.3,272.7l-0.2-0.3C301.1,272.5,301.2,272.6,301.3,272.7z"/>
	<path class="st1" d="M301.9,272c-0.2,0.1-0.9-0.2-1,0.2l0.1,0.2C300.9,272,302.1,272.6,301.9,272z"/>
	<path class="st1" d="M307.5,272.6l-0.8,0.3c0.3,0.2,0.8,0.4,0.5,0.7C308.7,273.7,306.6,273.1,307.5,272.6z"/>
	<path class="st1" d="M309.7,271.4c-0.2,0.4,0.3,0.4,0.4,0.5C310.1,271.5,310.1,271.4,309.7,271.4z"/>
	<path class="st1" d="M323.2,259.9l0.5,0.6C323.9,260.3,323.5,260.3,323.2,259.9z"/>
	<polygon class="st1" points="323.1,254.6 322.6,254.4 322.9,255 	"/>
	<polygon class="st1" points="328.4,257.7 328.3,257.9 328.6,257.3 	"/>
	<path class="st1" d="M350.9,238.3l-0.7-0.7C350.1,237.9,350.8,238.8,350.9,238.3z"/>
	<path class="st1" d="M360.1,229.2c0.4,0.3,0.9,0.3,0.8-0.2C360.6,229.2,360.1,229,360.1,229.2z"/>
	<polygon class="st1" points="390.5,205.7 390.5,206.1 390.7,205.6 	"/>
</g>
<g>
	<path class="st1" d="M328.8,314c0.1,0.3,0.5,0.7,0.6,0.5l-0.6-0.9L328.8,314z"/>
	<path class="st1" d="M331,314.7c-0.2-0.5-0.5-1.4-1.3-2c0.5,0.9,0.2,0.6,0.8,1.7c-0.1,0.2-0.5-0.1-0.7-0.4c0.1,0.2-0.4,0,0,0.6
		c0.7,0.5,1,0.3,0.8-0.4C330.7,314.2,330.9,314.5,331,314.7z"/>
	<path class="st1" d="M345.8,304.5l-0.2,0C345.7,304.5,345.8,304.5,345.8,304.5z"/>
	<path class="st1" d="M354.8,297.8c0,0.1,0,0.2,0,0.3C354.8,297.9,354.9,297.8,354.8,297.8z"/>
	<path class="st1" d="M357,297.5c-0.1,0-0.1,0-0.1,0C356.9,297.5,357,297.5,357,297.5z"/>
	<path class="st1" d="M345.8,304.5l0.4,0.1C346.1,304.2,346,304.4,345.8,304.5z"/>
	<path class="st1" d="M331.3,311.1c0,0.1,0,0.2,0.1,0.3c0-0.1,0-0.1,0-0.2C331.3,311.2,331.3,311.2,331.3,311.1z"/>
	<path class="st1" d="M342.6,308.2L342.6,308.2c0,0.2,0.1,0.3,0.1,0.4L342.6,308.2z"/>
	<path class="st1" d="M339.8,310.8c0.1,0-0.5-0.7-0.7-1c0.2,0.3,0.3,0.5,0.2,0.6C339.5,310.4,339.6,310.6,339.8,310.8z"/>
	<path class="st1" d="M334.2,313.4l0,0.2C334.2,313.5,334.2,313.4,334.2,313.4z"/>
	<path class="st1" d="M344.8,306.7c0.1,0.1,0.2,0.2,0.2,0.2C345,306.8,344.9,306.7,344.8,306.7z"/>
	<path class="st1" d="M421.6,234.3c0,0.1,0.1,0.1,0.1,0.1C421.6,234.3,421.6,234.3,421.6,234.3z"/>
	<path class="st1" d="M427.8,234.9L427.8,234.9c0.1,0.2,0.2,0.3,0.3,0.5L427.8,234.9z"/>
	<path class="st1" d="M360.4,296.1C360.4,296.1,360.4,296.1,360.4,296.1C360.4,296.3,360.4,296.2,360.4,296.1z"/>
	<path class="st1" d="M384.5,275.2c-0.8-0.4-0.2-1.2-1.2-1.5C383.6,274,383.9,275.1,384.5,275.2z"/>
	<path class="st1" d="M331.4,311.2c0,0,0.1-0.1,0.1-0.1C331.5,311.1,331.4,311.1,331.4,311.2z"/>
	<path class="st1" d="M383.4,273.7C383.3,273.7,383.3,273.7,383.4,273.7l-0.1,0C383.3,273.7,383.3,273.7,383.4,273.7z"/>
	<path class="st1" d="M366.2,290.6c-0.1-0.1-0.2-0.2-0.3-0.2C366,290.4,366,290.5,366.2,290.6z"/>
	<path class="st1" d="M360.8,293.4l0.2,0C360.9,293.4,360.8,293.4,360.8,293.4z"/>
	<path class="st1" d="M367.8,287.6c0.1,0,0.2,0.1,0.2-0.1c0,0-0.1,0-0.1-0.1C368,287.6,368,287.7,367.8,287.6z"/>
	<path class="st1" d="M370.3,285.6c-0.1,0-0.1-0.1-0.2-0.1c0,0,0,0.1,0,0.1L370.3,285.6z"/>
	<path class="st1" d="M414.3,240.9c0.2,0.1,0.4,0.3,0.6,0.5C414.5,240.9,414.7,240.5,414.3,240.9z"/>
	<path class="st1" d="M331.6,311.5c-0.1-0.2-0.2-0.3-0.2-0.4c0,0,0,0.1-0.1,0.1C331.4,311.4,331.5,311.5,331.6,311.5z"/>
	<path class="st1" d="M363.4,282.2l0.5-0.2C363.7,282,363.5,282,363.4,282.2z"/>
	<path class="st1" d="M396.6,255.7l0-0.2C396.6,255.6,396.5,255.6,396.6,255.7z"/>
	<path class="st1" d="M365,280.9c0.3,0.2,0.5,0.3,0.6,0.3c0-0.1,0-0.1-0.1-0.2L365,280.9z"/>
	<path class="st1" d="M414.9,241.4C414.9,241.4,414.9,241.4,414.9,241.4C414.9,241.4,414.9,241.4,414.9,241.4z"/>
	<path class="st1" d="M416.2,237.6c-0.4,0.3,0.6,1,0.9,1.6c-0.2,0.6-0.8-0.5-1.3-0.8c-0.1,0.5,0.4,1.5,0.2,1.6
		c-0.1-0.1-0.2-0.2-0.3-0.4c0.3,1-0.8,0.8-0.4,1.9c-0.1-0.1-0.2-0.1-0.2-0.2c0.4,0.4,0.8,0.9,1.1,1.2c-0.2,0.2,0.2,0.8-0.4,0.3
		c0.1-0.1-0.1-0.3-0.2-0.5l0,0.4c-0.9-0.7,0-0.5-0.5-1.1c-0.1,0.6,0.1,1.6-0.4,1.6c-0.7-0.8,0.4-0.8-0.6-1.2l0.7,0
		c-1.4-1,0.3-0.1-1.1-1.3c-0.7,0.2-0.3,0.9-1,1.1c0.3,0.6,0.6,0.6,0.9,1.2c-0.1,1.5-2.3-1.6-2,0c0.3,0.7,1.1,1.8,0.3,1.5l-0.6-1
		c-0.6,0.3,0.8,1.6-0.2,1.4c-0.2-0.4,0.2-0.6,0-0.7c-1-0.4,0.2,0.7-0.1,1l-0.7-0.8c-0.4,0.6-0.6,1.7-1,2.4c-0.2-0.3-0.3-0.6-0.6-0.8
		c-0.4,1.1-1.7,1.3-2.9,1.4l0.3,1c-0.1,0-0.4-0.2-0.4-0.4c-0.5,0,0.4,0.5,0.5,0.9c-0.1,0.2-0.6-0.2-0.6-0.5c0,1-0.4,2.5-1.6,2.2
		l-0.1-0.3c-0.7,0.1,0.7,1.9-0.2,1.5l0-0.2c-1.2,0.4-1.6,1.9-3.2,1.4c0.7,1.1-1.3,0.3-0.2,1.8c-1.1-0.3-1.2-0.7-2.3-0.5
		c-0.3,0.1,0.5,1.1,0.3,1.5l-0.6-0.7l0.3,1.1l-0.9-0.8l-0.1,0.4c0.1,0,0.5,0.2,0.6,0.4c-0.1,0.6-1.3,0.2-1.6-0.2l-0.3,1.3
		c-0.2-0.3-0.2-0.5-0.2-0.8c0.2,1.1-0.7-0.7-0.6,0.3c0.2,0.1,0.3,0.5,0.5,0.6c-0.6-0.3-1.1,0.1-1.2,0.6l-0.4-0.6
		c-0.7,0.4-1.1,1.3-1.8,1.9c0.5,0,1.1,1,1,1.2l-0.7-0.7c0.3,0.6,0.5,0.1,0.7,0.9c-0.3,0.1-0.9-0.8-1-1.1l-0.1,0.5
		c-0.2-0.2-0.2-0.4-0.5-0.7c0.3,0.6-1.2-0.3-0.7,0.7l-0.2-0.2c-0.7,0.6-0.8,1.1-1.3,1.6c0.6,0.7,0.2,0.7,0.5,1.4
		c-0.6,0.1-1.5,0-2,0.5c-0.1,0.6,0.4,0.7,0.6,1.2c-0.5-0.6-1-0.1-1.1-0.8c-0.5,0.6-0.7,0.8-1,1.9c0.3,0.2,0.5,0.2,0.6,0.5
		c-0.1,0.2-0.5,0-0.8-0.3l0-0.1c-0.1,1.6-3.5-0.2-3.1,1.7l0-0.1l-0.1,1.3c-0.4,0.2-0.2-0.6-0.8-0.8c0.1,1.7-1.3,0.9-1.4,2.1
		c-2-1.4-1.6,1.6-3.3,0.9l0.4,0.4c0.2,0.6-0.4-0.1-0.6-0.1c0.3,0.3,0.5,0.2,0.6,0.6c-1,1.7-3.5,1.8-5.3,2.7c-0.6,0.3,1.6,2.5,0,2
		l-0.5-1c-0.3,1.9-2.3,1.8-2.6,3.5c-0.1-0.2-0.3-0.5-0.2-0.6c-0.7-0.4-0.9,0.7-0.5,1.1c-0.2,0.1-0.4-0.4-0.7-0.6
		c-0.5-0.2,0.1,1.2-0.6,0.7c-0.1-0.1-0.1-0.2-0.1-0.3c0.1,0.4-0.7,0.5,0,1.1c-0.7,0-0.5,0.9-1.2,0.8c0.4,0.9-1,0.2-0.2,1.3
		c-0.9-1.1-1.4-0.3-1.3,0.4c-0.2-0.4-0.5-0.2-0.8-0.7c-0.3,0.3-0.4,0.7,0.1,1.2c-1.6-0.9-0.2,2-1.9,0.5c-0.4,1.3-0.8,2.4-1.4,3.3
		c-0.9-1.1,0.8-0.8-0.2-1.9c-0.4,1.1,0,2.4-0.9,2.7c-0.3,0-0.3-0.6-0.4-0.8c-0.4,1.1-1.5,1.1-1.7,2.2c-0.1-0.1-0.1-0.3-0.1-0.4
		c-0.1,0.1-0.4,0.1,0,0.6l0-0.2c0.8,0.6,0.7,1.9,1,2.3c-1-1.6-0.9,0.2-2.1-1.9c0,0.2,0.1,0.5,0.4,0.8c-0.2,0-0.4-0.2-0.6-0.6
		c-0.2,0.7,0.4,1-0.1,1.4c-0.2-0.2-0.2-0.4-0.4-0.7c0.2,0.6,0.4,1.3-0.2,1.4c-0.1-0.2-0.3-0.3-0.2-0.4c-0.5,0.6,0,2.1-1,2.2
		c-0.7-1.2-0.5-0.2-1.3-1l-0.1,0.6l0.5,0.3c-0.3,0.2-0.1,1.1-0.6,1.1l-0.1-0.6l-0.4,0.7l0.6,0.1c0.1,0.7,1,1.1,0.4,1.2
		c0-0.2-0.3,0.2-0.9-0.2c0,0,0,0,0,0c0.1,0.4,0.2,0.9-0.2,0.8c-0.3-0.2-0.8-1-1-1.2c0.5,0.9-0.6,0.8-0.1,1.8
		c-0.1-0.2-0.5-0.7-0.6-0.8l0.4,0.7c-0.3-0.1-0.4-0.2-0.7-0.6c-0.5,0.2,1.1,1,0.2,1c0-0.1-0.1-0.2-0.1-0.3c-0.7,0.2-0.7,1.2-1.4,1.3
		c-0.9-0.8,0.2-0.6-0.6-1.2c-0.6,0.7-0.5,2.3-1.4,2.6l0.2,0c1,1.4-1-0.2-0.9,0.7c0-0.2-0.5-0.8-0.4-0.6c-0.6,0.2-0.7,1.1-1,2.1
		l-0.2-0.4c-0.5-0.1-0.8,0.4-1.3,0.5c0.2,0.4,0,0.5,0.5,0.9c-2.5-1.1-0.9,2.4-3,1.5c0.1-0.1,0-0.5-0.1-0.4l-0.4,0.9
		c0.5,0.5,0.4,0.3,0.9,0.6c0.2,0.4,0.2,0.8,0,1c0-0.6-0.8-0.9-1.1-1.1c0.2,0.2,0.3,0.4,0.4,0.5c-1.2-0.7,0.9,1.2-0.2,0.9l-0.2-0.3
		c-0.1,0.3,0.1,0.8-0.2,0.9c-0.6-0.6-0.1-0.5-0.5-1c-0.2,0.3,0.5,1.7-0.3,1.2c0-0.3,0.1-0.4,0.1-0.7c-0.9-0.5-0.8-0.3-1.1-0.3l0,0
		l-0.8,0l0.3,0.1c1.1,2-0.4,0.9,0,2.4c-0.4-1.4-0.4-0.7-1-1.4c-0.3-0.1-0.7-0.2-0.8-0.4c0.3,0.8-0.8-0.2-0.3,1
		c-0.2-0.2-0.3,0.2-0.7-0.5c-0.1,0.4,0.4,0.4,0.6,0.7c0.2,1.2-1.8-0.1-1.5,1.5c-0.2,0.9,0.4,1.8,0.2,2.6c-0.5-0.2-0.6-1-0.6-1
		c-0.6-0.1-0.7,0.1-0.7,0.6c-0.1-0.3-0.3-0.4-0.6-0.6c-0.2,0.2,0.6,1,0,0.9c-0.2-0.3-0.5-0.8-0.6-1.1c-0.1,0.4,0.1,1.1,0,1.5
		c-0.4-0.4-0.4-0.8-0.5-1.1c-0.1,0.4-0.4,1,0,1.7l0.4,0.1c-0.1,0.1-0.5-0.5-0.5-0.7c-0.2-0.7,0.5-0.1,0.8,0.2l-0.1,0.3
		c1.3,1.2,0.5-0.8,1-1l0.7,1.1l-0.3-1.1c0.3,0.2,0.8,0.7,0.8,1c0.7,0.3-0.1-0.6,0.6-0.2c0.1,0.1,0.1,0.1,0.1,0.2l0-0.5
		c0.1,0.3,0.6,0.7,0.4,0.7c0.9,0.2,0.1-1.4,0.9-0.7l0,0.1c0.3-0.9-0.6-0.8-0.8-2.1l1.8,1.6l-0.6-0.8c0.1,0,0.3-0.1,0.5,0.2
		c-0.2-0.7-0.3-0.3-0.6-0.9c0.9,0.4,0.6-1,1.7,0.1c-0.4-0.7-0.7-0.2-0.7-0.9c1.2,1.2,0.2-0.5,1-0.2c0.5,0.7-0.1,0.6,0.7,1
		c-0.7-1.3,0.8-0.2,0.8-0.6c-0.7-0.9,0.2-0.8,0.4-1.4c0.2,0.3,1.2-0.1,1.8-0.1l0.1,0.2c-0.7-1-0.1-1.1,0-1.5
		c0.4,0.5,0.6,0.8,0.6,1.2l0.3-0.2c-0.2-0.3-0.2-0.6-0.1-0.8l0.5,0.7c0.3-0.3,0.1-1.4,0.9-1.3c-0.5-0.6-1.8-1.4-1.7-2.3
		c0.3,0.3,0.8,0.9,0.8,1.1c0-0.1-0.1-0.4,0.1-0.3l0.3,0.7c0.4,0.1-0.3-0.6-0.1-0.6c0.4,0.5,0.4,0.2,0.7,0.6c0,0.1-0.3-0.1-0.2,0.2
		c0.3-0.1,0.7,0,1.1,0.3c-0.2-0.3-0.5-0.6-0.5-0.8c0.3-0.3,0.6,0.5,1,0.6c-0.2-0.4,0.3-0.2-0.3-1c0.1-0.1,0.4,0.2,0.6,0.4
		c-0.1-0.5,0.8-0.8-0.1-1.4l-0.1,0c0,0,0,0,0-0.1c0,0,0,0,0,0l0,0c0-1.2,1.6-0.6,1.9-1.4l0.2,0.2c0.1-0.6,0.7-0.8,0.5-1.5
		c0.1-0.1,0.6,0.2,0.8,0.6c0.1-0.4-0.1-0.7,0.7-0.6c0.1,0.6,0.4,0.3,0,0.5c0.5-0.1,0.9,0.2,0.8-0.7c0.4,0.7,0.9,0.6,0.9,0.2
		l-0.6-0.2c0.1-0.2,0.3-0.3,0.5-0.4l0.6,0.9c1.5,0.4-0.1-2.8,1.8-1.6c-0.3-0.7-0.7-0.1-1.1-0.9c0.4-0.2,1.7,0.7,1.8,0.6
		c0.8,0.1-0.6-1.5,0.2-1.6c-0.3-0.2-1-1-0.9-1.5c0.4-0.2,1.4,0.9,1.4,1.3c-0.1,0.1-0.2,0-0.3-0.1c0,0.2-0.1,0.4,0.3,0.6l-0.2-0.3
		c0.4,0.2,0.8-0.3,1.1,0.3c0-0.5-0.3-0.6-0.6-0.6c0.8,0.1,0.7-0.5,1.4-0.6c-0.2-0.1-0.5-0.4-0.5-0.4c0.9-0.2-0.2-0.8,0.2-1.3
		c0.6,0.2,0.8,1.1,0.9,0.4c0.5,0.1,0.7,0.7,0.8,1c-0.1-0.9,1.1-0.3,1.4-0.3l0,0.4c0-0.2,0.1-0.3,0.2-0.4l-0.6-0.5
		c0.2,0,0.3-0.1,0.5,0.2c-0.2-0.5-0.9-0.9-1.1-1.6c0.4,0.2,0.2-0.7,0.9,0c-0.7,0.2,0.7,0.7,0.4,1.2c0-0.2,0.1-0.2,0.3-0.2
		c0.1,0.1,0.1,0.2,0.1,0.2c1.1,0.3-0.5-1.1,0-1.5c0.3,0.5,0.8,0.7,0.8,0.6c-0.2,0.2-0.7-0.6-0.8-1.1c0.6,0.1,0.2-0.5,0.4-0.7l-0.3,0
		c-0.3-0.5-0.1-0.6,0-0.9c0.3,0.3,0,0.4,0.2,0.5c-0.4-1,1.2,0.3,1.2-0.5c0.4,0.2,0.7,0.8,1,0.9c-0.1-0.9,0.9,0.2,1-0.6
		c-0.6-0.5-0.5-0.3-0.7-1.1l-0.4,1l-0.3-1.2c-0.2,0.2-0.1,0.7-0.3,0.7c-0.2-0.6-0.1-0.5-0.6-0.9c1,0.6,0.1-1,1-0.7l1.2,1.4
		c1,0.2,0.3-1.5,1.2-1.6l-0.4-0.1c-0.4-0.6,0.3-0.4,0.3-0.8c0.4,0.5,0.7,0.6,1,0.8c-0.3-0.3,0.5-0.4-0.2-1.4l0.8,0.4
		c0.7-0.2-0.5-1.9,0.1-2.1c0.3,0.6,0.8,0.8,0.8,1.5c0.2-0.1,0.4-0.2,0.1-0.5c0.3,0.2-0.1-1,0.5-0.7c-0.1-0.3-0.5-0.8-0.3-0.9
		c0.1,0.1,0.2,0.2,0.2,0.2c-0.2-0.2,0-0.6-0.6-1c1.8,1.1,1.3-1.3,2.9-0.4c0.2-0.5,0.5-1,0.8-1.3c0.1,0.2,0.2,0.2,0.1,0.2
		c0.8,0.1-0.9-1.6,0.1-1.5c0.9,0.6,0.1,0.6,0.5,0.8c1.4,1.5,0.4-0.7,1.6-0.1l0,0.2c0.7,0.3,0.2-1.1,0.7-1.4c0,0,0.1,0.2,0.2,0.2
		c-0.4-1.1,0-1.8,0.2-2.4c0.4,0.7,0.1,0.5,0.7,1c0.1-0.2-0.9-1-0.7-1.5c0.4,0.2,0.9,0.3,1.5,1l-0.3,0.3c0.9,0.7,0.4-0.4,0.7-0.4
		l0.3,0.4c0.4-0.6-0.3-1.5,0.3-2l-0.3-0.2c-0.5-1.2,0.7,0.3,0.4-0.7l0.9,0.9c0-0.4,0-1.5,0.2-2c0.4,0.9,0.2,1.6,0.3,2.3
		c0.2-0.2,0.7-0.7,0.4-1.2c0,0.2,0.1,0.5-0.1,0.4c-0.4-1-0.3-1.6,0.1-1.9c1.5,1.9,1.5-0.4,3,0.8c0.2-1.3,1.7-0.9,2.5-1.7
		c-1.5-1.2,0.2-0.2-1.1-1.7c0.1-0.3,0.2-0.3,0.3-0.2l1.3,0.4c0.5,0.3,0.1,0.5,0.4,0.8c0.5-0.2,0.7,0.5,1.3,0.6
		c-0.5-0.5-0.5-0.9-0.1-0.9l-0.9-0.4c0-1.3,1.6,0.8,1.5-0.5l0.2,0.6c0.1-0.5,1.2-1,0.5-2.4c0.2,0.1,0.6,0.5,0.6,0.7
		c0.9-0.4,0.6-2.7,1.8-2.4l0.2,0.4c0.1-0.2-0.3-0.9,0.2-0.7c0.1,0.2,0.2,0.4,0.3,0.4c0-0.2-0.2-0.9,0.2-0.9l0.2,0.5
		c1.1-0.1,0.3-1.9,0.7-2.7c0.9,1.1,1.8,0.9,2.2,0.9l0.1,0.2c1-0.6,0.7-2.1,1.2-3.2c1.5,0.8,2.1-0.9,3.4-0.9
		c-0.3-0.1-0.7-0.9-0.6-1.1c0.4,0.1-0.1-1.2,0.7-0.2l-0.1,0c0.9,0.8,1.1,0.3,1.4,0.1l-1-1.3c2.3,1.2,1.5-2.4,3.3-1.1
		c-0.1-0.5,0.2-0.7,0.1-1.1l0.6,0.7c0.7-0.3,1-0.4,1.5-1.1l0.3,0.6c0.4-0.3-1.2-2.4-0.9-2.7l1,0.9c0.6-0.5,2-0.2,1.9-1.6
		c0.1,0.2,0.3,0.5,0.3,0.6c0.3-0.2,1.7-0.3,0.5-1.6c0.8,0.9,0.7-0.5,0.7-1.1l0.5,0.7c-0.4-1.1-0.6-1.4-0.4-1.9
		c0.2,0,0.5,0.5,0.3,0.4c0.6,0.1-0.3-0.8,0.4-0.8l0.2,0.6c0.4-0.2,0.2-0.4-0.1-1.1c0-0.4,0.8-0.3,1.3,0.2c-0.3-0.4-0.5-1.1-0.2-1
		c0.2,0.2,0.3,0.4,0.3,0.5c0.9,0,0.2-1.5,1.1-1.1c0.2,0.2,0.3,0.3,0.4,0.4c-0.4,0.3-0.8,0.6-0.8,0.5c0.5,0.6,1,0.4,1.4,1.5
		c-0.1-0.7-0.5-2.1,0.1-2.1c0.1,0,0.1,0.1,0.2,0.2l0,0.1c0.1,0,0.2-0.1,0.1-0.3c0.2,0,0.3,0,0.4,0c0.5,0.5,0.6-0.1,0.8-0.2
		c-0.6-0.7-0.3-0.8-0.9-1.1c0.1,0,0,0.1-0.1,0.2c0,0,0,0.1,0,0.1c0,0,0,0,0-0.1c-0.1,0.1-0.2,0.3-0.4,0.4c-0.2-0.5-0.2-0.9,0.3-0.7
		c-0.3-0.5-0.6-1.1-0.7-1.3c1,0.8,1.9,0.9,2.5,1.4c0.2-0.8,1.1-1.3,0.3-2.9c0-0.3,0.5,0.2,0.7,0.4c0,0.2-0.1,0.3,0,0.5
		c0-0.6,0.8-0.9,0.1-1.8c0.7,0.1,0.5,1,0.9,0.4l0.2,0.3c2.2,0.6-0.2-3.7,2.5-2.8c-0.2,0-0.3-0.1-0.4-0.2c2-0.3,2.1-3,4.4-2.8
		c0.6,0,0.1-0.7,0-1.3l0.7,0.7l-0.3-1.2c0-1.1,2.4,1,2.2-0.7l-0.5-0.4c0.3-0.1,0.5-0.9,1-0.3c0-0.1-0.3-0.6,0-0.4l0.3,0.4l0.1-1.2
		c0.7-0.1,1.2,1.6,1.9,1.1c0.1-0.4-0.2-1.7-0.5-1.9c-0.1,0.1-0.5,0-0.8-0.4l0.1-0.4c-0.9-1.2-1.7-2.5-2.9-2.8l0.2,1l-0.6-0.4
		l0.3-0.3c-0.6-0.4-0.4,0.2-0.2,0.6c-0.3-0.3-0.5-0.4-0.7-0.5l0.5,1.4c-0.4-0.4-0.6-1-1-1.1c0.2,0.7,1,0.8,1,1.4
		c-0.6-0.4-0.9-0.8-0.8-0.2c-0.3-0.3-0.4-0.5-0.4-0.7c0.1,0.5-0.4,0.6,0,1.3c-0.7-0.5-0.5,0.7-1.4-0.4c0.2,0.3,0.3,1.1,0.2,1.3
		c-0.7-1.6-0.8,0.5-1.8-1c0.7,1.4-0.5,1.3-0.4,2.3c-0.1-0.1-0.2-0.3-0.1-0.3c-0.3,0.1-0.7-0.2-1-0.3c0.8,1,0.6,1.5,0.8,2.3
		c-1.1-0.7-0.7-1.3-1.6-2.1c0.7,0.8,0.1,1.2,0.8,1.8c-0.7-0.4-0.4-0.1-1.2-0.8c1,1.2,0,0.4,0.4,1.3c-0.8-0.3-1-1-1.1-0.4
		C416.2,238.3,416.2,237.6,416.2,237.6z M409.1,247C409.1,247,409.1,247,409.1,247c0.1-0.1,0.1-0.2,0.1-0.2
		C409.2,246.8,409.2,246.9,409.1,247z M408.4,247.6c0.1,0,0.2-0.1,0.3-0.2c0.2,0.2,0.4,0.5,0.3,0.5
		C409,247.7,408.7,247.7,408.4,247.6z M413.9,251c0,0.2-0.2,0.1-0.3,0c0-0.1,0.1-0.1,0.1-0.3c0,0,0-0.1-0.1-0.1
		C413.8,250.8,413.8,250.9,413.9,251z"/>
	<path class="st1" d="M413.4,250C413.4,249.9,413.4,249.9,413.4,250c-0.1-0.1-0.1-0.2-0.2-0.2C413.2,249.9,413.3,250,413.4,250
		C413.3,250,413.3,250,413.4,250z"/>
	<path class="st1" d="M345.7,304.4L345.7,304.4C345.6,304.4,345.6,304.4,345.7,304.4C345.6,304.4,345.6,304.4,345.7,304.4z"/>
	<polygon class="st1" points="397.1,254.7 397.3,254.9 397.2,254.7 	"/>
	<path class="st1" d="M339.6,305.4c-0.1-0.1-0.1-0.1-0.2-0.1C339.5,305.4,339.6,305.4,339.6,305.4z"/>
	<path class="st1" d="M337.8,306.7l-0.5,0C337.5,306.8,337.7,306.8,337.8,306.7z"/>
	<path class="st1" d="M336.1,307.5c0.1,0.1,0.2,0.2,0.2,0.3c0,0,0,0,0,0L336.1,307.5z"/>
	<path class="st1" d="M356.9,288.9C356.9,288.9,356.9,288.9,356.9,288.9C356.9,288.6,356.9,288.7,356.9,288.9z"/>
	<path class="st1" d="M351.9,295.8c0-0.2-0.1-0.4-0.1-0.5C351.6,295.4,351.5,295.4,351.9,295.8z"/>
	<path class="st1" d="M363.4,282.2C363.4,282.2,363.4,282.2,363.4,282.2C363.4,282.2,363.4,282.2,363.4,282.2L363.4,282.2z"/>
	<path class="st1" d="M352.1,295.1c-0.2,0-0.3,0.1-0.3,0.2C351.9,295.3,352.1,295.3,352.1,295.1z"/>
	<path class="st1" d="M330,312.1L330,312.1c0,0.1,0,0.1,0,0.1L330,312.1z"/>
	<path class="st1" d="M330,312.2l0,0.1C330,312.3,330.1,312.3,330,312.2z"/>
	<path class="st1" d="M330,312.6l0-0.3C330,312.4,329.9,312.4,330,312.6z"/>
	<path class="st1" d="M332.1,310.9l-0.2-0.3C331.9,310.7,332,310.8,332.1,310.9z"/>
	<path class="st1" d="M332.5,310.4c-0.2,0.1-0.8-0.3-0.8,0l0.1,0.2C331.7,310.2,332.8,310.9,332.5,310.4z"/>
	<path class="st1" d="M337.4,311.6l-0.6,0.2c0.3,0.2,0.7,0.5,0.5,0.7C338.5,312.8,336.7,312,337.4,311.6z"/>
	<path class="st1" d="M339.1,310.8c-0.1,0.3,0.3,0.4,0.4,0.5C339.5,311,339.5,310.9,339.1,310.8z"/>
	<path class="st1" d="M349.3,302.3l0.5,0.6C349.9,302.7,349.6,302.7,349.3,302.3z"/>
	<polygon class="st1" points="348.6,297.5 348.1,297.3 348.4,297.9 	"/>
	<polygon class="st1" points="353.4,301 353.4,301.1 353.5,300.7 	"/>
	<path class="st1" d="M370.3,286.6l-0.7-0.7C369.6,286.1,370.3,287,370.3,286.6z"/>
	<path class="st1" d="M377.1,279.6c0.4,0.3,0.8,0.4,0.6-0.1C377.5,279.6,377.1,279.5,377.1,279.6z"/>
	<polygon class="st1" points="400.3,262.5 400.3,262.9 400.4,262.4 	"/>
</g>
</svg>
